<svg width="80" height="80" fill="none" xmlns="http://www.w3.org/2000/svg"><path fill="#fff" d="M0 0h80v80H0z"/><path fill-rule="evenodd" clip-rule="evenodd" d="M32.244 61.96a.213.213 0 1 0-.002 0h.002zm-.64-.212c0 .278.178.514.426.602v2.164h-.851v-.638a.213.213 0 0 0-.426 0v.639h-.85V63.2a.639.639 0 1 0-.426 0v1.313h-.852v-.638a.213.213 0 1 0-.425 0v.639h-.851a.851.851 0 0 0-.852.85v.852h-.638a.213.213 0 0 0 0 .425h.638v.852h-.638a.213.213 0 0 0 0 .425h.638v.851h-.638a.213.213 0 0 0 0 .426h.638v.851h-2.164a.639.639 0 1 0 0 .426h2.164v.851h-.638a.213.213 0 0 0 0 .426h.638v.85h-.638a.213.213 0 1 0 0 .426h.638v.852h-.638a.213.213 0 1 0 0 .425h.638v.851c0 .47.381.852.852.852h.85v.638a.213.213 0 1 0 .426 0v-.639h.852v1.314a.639.639 0 1 0 .425 0v-1.314h.851v.639a.213.213 0 1 0 .426 0v-.639h.851v2.165a.639.639 0 1 0 .426 0v-2.165h.851v.639a.213.213 0 1 0 .426 0v-.639h.85v1.314a.639.639 0 1 0 .426 0v-1.314h.852v.639a.213.213 0 1 0 .425 0v-.639h.851c.47 0 .852-.38.852-.85v-.852h.638a.213.213 0 1 0 0-.425h-.639v-.852h.639a.213.213 0 0 0 0-.425h-.639v-.851h.639a.213.213 0 0 0 0-.426h-.639v-.851h2.165a.639.639 0 1 0 0-.426H37.99v-.851h.638a.213.213 0 0 0 0-.426h-.639v-.85h.639a.213.213 0 1 0 0-.426h-.639v-.852h.639a.213.213 0 0 0 0-.425h-.639v-.851a.851.851 0 0 0-.85-.852h-.852v-.638a.213.213 0 0 0-.426 0v.639h-.85V63.2a.639.639 0 1 0-.426 0v1.313h-.851v-.638a.213.213 0 0 0-.426 0v.639h-.851V62.35a.639.639 0 1 0-.851-.602zm-7.66 8.503v.018a.213.213 0 1 1 0-.019zm5.743 7.457h.005a.213.213 0 1 1-.005 0zm2.343 1.064c0-.117.095-.212.212-.213h.002a.213.213 0 1 1-.214.213zm2.764-1.064h.005a.213.213 0 1 1-.005 0zm0-14.896a.213.213 0 1 1 .005 0h-.005zm-5.102 0a.213.213 0 1 0-.005 0h.005zm-2.343 2.554v9.788h9.788v-9.788H27.35zm2.128 1.064c0-.118.095-.213.212-.213h.852a.213.213 0 0 1 0 .425h-.852a.213.213 0 0 1-.212-.212zm-.852 2.553a.213.213 0 0 0 .426 0v-1.277a.213.213 0 1 0-.426 0v1.277zm7.023.213a.213.213 0 0 1-.213-.213v-1.277a.213.213 0 0 1 .426 0v1.277a.213.213 0 0 1-.213.213zm-7.023 3.618a.213.213 0 0 0 .426 0V70.26a.213.213 0 1 0-.426 0v2.554zm7.023.212a.213.213 0 0 1-.213-.212V70.26a.213.213 0 0 1 .426 0v2.554a.213.213 0 0 1-.213.212zm-2.554-.425a.213.213 0 0 0 0 .425h1.702a.213.213 0 0 0 0-.425h-1.702zm-3.617 1.49c0-.118.095-.213.212-.213h.852a.213.213 0 0 1 0 .425h-.852a.213.213 0 0 1-.212-.213zm2.34-7.874a.213.213 0 0 0 0 .425h2.98a.213.213 0 0 0 0-.425h-2.98zm-.212 7.873c0-.117.095-.213.212-.213h2.98a.213.213 0 0 1 0 .426h-2.98a.213.213 0 0 1-.212-.213zm-1.916-6.596a.213.213 0 1 0 0 .425h2.128a.213.213 0 1 0 0-.425H29.69zm-1.49-1.49a.213.213 0 1 1-.425 0 .213.213 0 0 1 .426 0zm-.212 8.725a.213.213 0 1 0 0-.426.213.213 0 0 0 0 .426zm8.725-8.725a.213.213 0 1 1-.426 0 .213.213 0 0 1 .426 0zm-.213 8.725a.213.213 0 1 0 0-.426.213.213 0 0 0 0 .426zm4.256-4.256a.213.213 0 1 1 0-.426.213.213 0 0 1 0 .426z" fill="#76A3D3"/><circle cx="32.913" cy="61.585" r=".475" fill="#75DAFE" fill-opacity=".8"/><circle cx="30.983" cy="62.535" r=".475" fill="#75DAFE" fill-opacity=".8"/><circle cx="24.845" cy="70.735" r=".475" fill="#75DAFE" fill-opacity=".8"/><circle cx="30.507" cy="78.286" r=".475" fill="#75DAFE" fill-opacity=".8"/><path d="M30.293 68.606a.442.442 0 1 1 .883 0v2.336l-.168 2.183a.358.358 0 0 1-.715-.028v-4.49z" fill="#91E1FE"/><path d="M36.268 73.455a.442.442 0 0 1 0 .884h-1.445l-1.374-.157a.365.365 0 0 1 .041-.727h2.778zM31.442 65.576a.442.442 0 0 1 0 .884h-.47a.831.831 0 0 1-.177-.019l-.506-.11a.382.382 0 0 1 .081-.755h1.072z" fill="#91E1FE" fill-opacity=".5"/><rect x="27.455" y="7.579" width="12.331" height="23.24" rx="2" stroke="#76A3D3"/><rect x="29.945" y="9.357" width="2.609" height=".711" rx=".356" transform="rotate(90 29.945 9.357)" stroke="#76A3D3" stroke-opacity=".3" stroke-width=".711"/><rect x="30.653" y="9.002" width="3.32" height="1.064" rx=".532" transform="rotate(90 30.653 9.002)" fill="#00C1FE" fill-opacity=".5"/><rect x="34.448" y="9.002" width="3.32" height="1.064" rx=".532" transform="rotate(90 34.448 9.002)" fill="#00C1FE" fill-opacity=".5"/><rect x="32.551" y="14.693" width="3.32" height="1.064" rx=".532" transform="rotate(90 32.55 14.693)" fill="#00C1FE" fill-opacity=".5"/><rect x="30.653" y="20.384" width="3.32" height="1.064" rx=".532" transform="rotate(90 30.653 20.384)" fill="#00C1FE" fill-opacity=".5"/><rect x="32.73" y="20.384" width="3.32" height="1.064" rx=".532" transform="rotate(90 32.73 20.384)" fill="#00C1FE" fill-opacity=".5"/><rect x="34.448" y="26.076" width="3.32" height="1.064" rx=".532" transform="rotate(90 34.448 26.076)" fill="#00C1FE" fill-opacity=".5"/><rect x="30.833" y="26.076" width="3.32" height="1.064" rx=".532" transform="rotate(90 30.833 26.076)" fill="#00C1FE" fill-opacity=".5"/><rect x="29.945" y="15.049" width="2.609" height=".711" rx=".356" transform="rotate(90 29.945 15.049)" stroke="#76A3D3" stroke-opacity=".3" stroke-width=".711"/><rect x="29.945" y="20.74" width="2.609" height=".711" rx=".356" transform="rotate(90 29.945 20.74)" stroke="#76A3D3" stroke-opacity=".3" stroke-width=".711"/><rect x="29.945" y="26.432" width="2.609" height=".711" rx=".356" transform="rotate(90 29.945 26.432)" stroke="#76A3D3" stroke-opacity=".3" stroke-width=".711"/><rect x="31.842" y="9.357" width="2.609" height=".711" rx=".356" transform="rotate(90 31.842 9.357)" stroke="#76A3D3" stroke-opacity=".3" stroke-width=".711"/><rect x="31.842" y="15.049" width="2.609" height=".711" rx=".356" transform="rotate(90 31.842 15.049)" stroke="#76A3D3" stroke-opacity=".3" stroke-width=".711"/><rect x="31.842" y="20.74" width="2.609" height=".711" rx=".356" transform="rotate(90 31.842 20.74)" stroke="#76A3D3" stroke-opacity=".3" stroke-width=".711"/><rect x="31.842" y="26.432" width="2.609" height=".711" rx=".356" transform="rotate(90 31.842 26.432)" stroke="#76A3D3" stroke-opacity=".3" stroke-width=".711"/><rect x="33.739" y="9.357" width="2.609" height=".711" rx=".356" transform="rotate(90 33.74 9.357)" stroke="#76A3D3" stroke-opacity=".3" stroke-width=".711"/><rect x="33.739" y="15.049" width="2.609" height=".711" rx=".356" transform="rotate(90 33.74 15.049)" stroke="#76A3D3" stroke-opacity=".3" stroke-width=".711"/><rect x="33.739" y="20.74" width="2.609" height=".711" rx=".356" transform="rotate(90 33.74 20.74)" stroke="#76A3D3" stroke-opacity=".3" stroke-width=".711"/><rect x="33.739" y="26.432" width="2.609" height=".711" rx=".356" transform="rotate(90 33.74 26.432)" stroke="#76A3D3" stroke-opacity=".3" stroke-width=".711"/><rect x="38.008" y="11.255" width=".711" height=".711" rx=".356" transform="rotate(90 38.008 11.255)" stroke="#76A3D3" stroke-width=".711"/><rect x="38.008" y="16.946" width=".711" height=".711" rx=".356" transform="rotate(90 38.008 16.946)" stroke="#76A3D3" stroke-width=".711"/><rect x="38.008" y="22.637" width=".711" height=".711" rx=".356" transform="rotate(90 38.008 22.637)" stroke="#76A3D3" stroke-width=".711"/><rect x="38.008" y="28.329" width=".711" height=".711" rx=".356" transform="rotate(90 38.008 28.329)" stroke="#76A3D3" stroke-width=".711"/><path stroke="#76A3D3" d="M27.455 13.245h12.331M27.455 18.936h12.331M27.455 24.627h12.331"/><path d="m5.594 17.918 7.104-1.506 1.113 1.735-5.042 1.572 3.045 1.276 1.538.36 1.506 1.277v1.703l-.622.294.622 3.11h.295l1.408.884v1.768H5.594l.458-1.768 1.539-.884c.567-.807 1.597-2.429 1.178-2.455-.419-.026.175-.644.524-.95v-.752l-3.241-1.735-1.211-.164-1.244-.327-.36-1.08v-1.18l.982-1.178h1.375z" fill="#fff"/><path fill-rule="evenodd" clip-rule="evenodd" d="M14.859 17.789c.641 0 1.16-.487 1.16-1.087s-.519-1.086-1.16-1.086c-.641 0-1.16.486-1.16 1.086 0 .6.519 1.087 1.16 1.087zm0 .31c.824 0 1.492-.625 1.492-1.397 0-.771-.668-1.397-1.492-1.397s-1.492.626-1.492 1.397c0 .772.668 1.397 1.492 1.397zM5.574 21.203c.824 0 1.492-.625 1.492-1.397 0-.771-.668-1.397-1.492-1.397s-1.492.626-1.492 1.397c0 .772.668 1.397 1.492 1.397zm0 .31c1.007 0 1.824-.764 1.824-1.707 0-.943-.817-1.707-1.824-1.707-1.007 0-1.824.764-1.824 1.707 0 .943.817 1.707 1.824 1.707zM14.693 28.342H8.061c-.618 0-1.137.396-1.285.931h9.202c-.147-.535-.667-.931-1.285-.931zm1.625.931c-.154-.708-.823-1.241-1.625-1.241H8.061c-.802 0-1.471.533-1.625 1.241-.022.1-.033.204-.033.31h9.948c0-.106-.011-.21-.033-.31z" fill="#76A3D3"/><path fill-rule="evenodd" clip-rule="evenodd" d="M16.02 29.584H6.735v.31h9.285v-.31zm-9.617-.31v.93h9.948v-.93H6.403zM12.04 25.238c1.1 0 1.99-.834 1.99-1.862 0-1.029-.89-1.863-1.99-1.863-1.098 0-1.99.834-1.99 1.863 0 1.028.891 1.862 1.99 1.862zm0 .31c1.282 0 2.322-.972 2.322-2.172 0-1.2-1.04-2.173-2.322-2.173s-2.321.973-2.321 2.173c0 1.2 1.04 2.172 2.321 2.172z" fill="#76A3D3"/><path fill-rule="evenodd" clip-rule="evenodd" d="M12.04 24.307c.55 0 .995-.417.995-.931 0-.515-.445-.931-.995-.931s-.994.416-.994.93c0 .515.445.932.994.932zm0 .31c.733 0 1.327-.556 1.327-1.241 0-.686-.594-1.242-1.327-1.242-.732 0-1.326.556-1.326 1.242 0 .685.594 1.241 1.326 1.241zM5.574 20.272c.275 0 .497-.209.497-.466s-.222-.465-.497-.465-.498.208-.498.465.223.466.498.466zm0 .31c.458 0 .829-.347.829-.776 0-.428-.371-.776-.83-.776-.457 0-.828.348-.828.776 0 .429.371.776.829.776z" fill="#76A3D3"/><path d="M15.357 16.702c0 .257-.223.466-.498.466s-.497-.209-.497-.466.222-.465.497-.465.498.208.498.465z" fill="#76A3D3"/><path fill-rule="evenodd" clip-rule="evenodd" d="m13.428 16.303-7.614 1.81c.214.027.417.088.601.178l6.953-1.653c.006-.116.027-.228.06-.335zM9.72 23.385l-3.8-1.902c.153-.028.3-.073.436-.134l3.39 1.697a2.052 2.052 0 0 0-.026.339zm.088.586L7.99 28.03h.36l1.633-3.649a2.081 2.081 0 0 1-.176-.411zm4.164.611.446 3.45h.334l-.512-3.959a2.109 2.109 0 0 1-.268.51zm-1.718-3.37-3.47-1.563 5.386-1.708a1.497 1.497 0 0 1-.333-.222l-5.93 1.88 3.662 1.649a2.486 2.486 0 0 1 .685-.036zM17.619 15.417a.868.868 0 0 0-.743-.196l-.883.176a.859.859 0 0 0-.32.134c.098.06.188.13.268.21a.518.518 0 0 1 .12-.04l.884-.176a.521.521 0 0 1 .445.118l.983.872a.13.13 0 0 1 .023.171.15.15 0 0 1-.185.05l-.983-.441a.879.879 0 0 0-.802.044l-.109.065a1.315 1.315 0 0 1 .033.35.506.506 0 0 1 .04-.026l.214-.127a.527.527 0 0 1 .48-.026l.984.44c.217.098.479.028.608-.163a.425.425 0 0 0-.075-.562l-.982-.873zm-1.623 2.19a1.476 1.476 0 0 1-.332.271v.26c0 .3.184.571.471.7l.885.397c.071.032.097.115.054.177a.136.136 0 0 1-.132.056l-1.262-.191a.49.49 0 0 1-.39-.308l-.323-.874a1.61 1.61 0 0 1-.356-.015.68.68 0 0 0 .008.024l.357.966c.1.27.35.468.65.513l1.263.192a.476.476 0 0 0 .466-.197.42.42 0 0 0-.192-.623l-.884-.396a.464.464 0 0 1-.283-.42v-.532z" fill="#76A3D3"/><circle cx="11.645" cy="22.728" r="1.579" fill="#75DAFE" fill-opacity=".8" style="mix-blend-mode:multiply"/><circle cx="5.259" cy="19.5" r=".719" fill="#75DAFE" fill-opacity=".8" style="mix-blend-mode:multiply"/><path d="M17.96 16.412h-1.579M16.727 18.89c-.29-.047-.878-.169-.918-.287-.04-.118-.16-.457-.217-.612" stroke="#00C1FE" stroke-opacity=".3" stroke-width="2"/><path fill-rule="evenodd" clip-rule="evenodd" d="m14.013 30.623-7.719-.316-.175-1.263h7.017l.527.631.35.948z" fill="#00C1FE" fill-opacity=".3" style="mix-blend-mode:multiply"/><path fill-rule="evenodd" clip-rule="evenodd" d="M24.277 28.322h.79v-.79h-.79v.79zm-1.579 0h.79v-.79h-.79v.79zm-1.579 0h.79v-.79h-.79v.79zM24.277 23.1h.79v-.79h-.79v.79zm-1.579 0h.79v-.79h-.79v.79zM24.277 17.877h.79v-.79h-.79v.79zm-1.579 0h.79v-.79h-.79v.79zm-1.579 0h.79v-.79h-.79v.79z" fill="#00C1FE"/><path d="m5.217 26.726 8.913-1.907 1.396 2.198-6.325 1.99 3.82 1.617 1.93.456 1.89 1.617v2.157l-.78.373.78 3.94h.37l1.766 1.119v2.24H5.217l.575-2.24 1.93-1.12c.712-1.022 2.005-3.076 1.479-3.11-.526-.033.219-.815.657-1.202V33.9l-4.066-2.198-1.52-.207-1.56-.415-.453-1.368v-1.493l1.233-1.493h1.725z" fill="#fff"/><path fill-rule="evenodd" clip-rule="evenodd" d="M16.822 26.562c.811 0 1.47-.616 1.47-1.376 0-.76-.659-1.376-1.47-1.376-.813 0-1.47.616-1.47 1.376 0 .76.657 1.376 1.47 1.376zm0 .393c1.043 0 1.89-.792 1.89-1.77 0-.976-.847-1.768-1.89-1.768-1.044 0-1.89.792-1.89 1.769 0 .977.845 1.77 1.89 1.77zM5.06 30.887c1.044 0 1.89-.792 1.89-1.77 0-.977-.846-1.769-1.89-1.769s-1.89.792-1.89 1.77c0 .977.846 1.769 1.89 1.769zm0 .393c1.276 0 2.31-.968 2.31-2.162 0-1.195-1.034-2.163-2.31-2.163s-2.31.968-2.31 2.163c0 1.194 1.034 2.162 2.31 2.162zM16.611 39.93h-8.4c-.783 0-1.441.5-1.628 1.18H18.24c-.187-.68-.845-1.18-1.628-1.18zm2.059 1.18c-.195-.898-1.043-1.574-2.059-1.574h-8.4c-1.017 0-1.864.676-2.059 1.573a1.853 1.853 0 0 0-.042.393h12.602a1.85 1.85 0 0 0-.042-.393z" fill="#76A3D3"/><path fill-rule="evenodd" clip-rule="evenodd" d="M18.292 41.502H6.53v.393h11.762v-.393zM6.11 41.11v1.18h12.602v-1.18H6.11zM13.251 35.998c1.392 0 2.52-1.056 2.52-2.359s-1.128-2.359-2.52-2.359c-1.392 0-2.52 1.056-2.52 2.359s1.128 2.359 2.52 2.359zm0 .393c1.624 0 2.94-1.232 2.94-2.752 0-1.52-1.316-2.752-2.94-2.752-1.624 0-2.94 1.232-2.94 2.752 0 1.52 1.316 2.752 2.94 2.752z" fill="#76A3D3"/><path fill-rule="evenodd" clip-rule="evenodd" d="M13.251 34.819c.696 0 1.26-.529 1.26-1.18 0-.651-.564-1.18-1.26-1.18-.696 0-1.26.529-1.26 1.18 0 .651.564 1.18 1.26 1.18zm0 .393c.928 0 1.68-.704 1.68-1.573s-.752-1.573-1.68-1.573c-.928 0-1.68.704-1.68 1.573s.752 1.573 1.68 1.573zM5.06 29.707c.348 0 .63-.264.63-.59 0-.325-.282-.59-.63-.59-.348 0-.63.265-.63.59 0 .326.282.59.63.59zm0 .393c.58 0 1.05-.44 1.05-.982 0-.543-.47-.983-1.05-.983-.58 0-1.05.44-1.05.983 0 .542.47.983 1.05.983z" fill="#76A3D3"/><path d="M17.451 25.186c0 .326-.282.59-.63.59-.348 0-.63-.264-.63-.59 0-.326.283-.59.63-.59.348 0 .63.264.63.59z" fill="#76A3D3"/><path fill-rule="evenodd" clip-rule="evenodd" d="m15.01 24.68-9.645 2.294c.271.033.528.11.76.224l8.808-2.094c.007-.146.033-.288.076-.423zm-4.7 8.97-4.813-2.409c.194-.034.38-.092.553-.169l4.294 2.15a2.603 2.603 0 0 0-.033.417v.012zm.112.743-2.301 5.143h.455l2.069-4.622a2.636 2.636 0 0 1-.223-.521zm5.275.774.564 4.37h.423l-.647-5.014c-.084.23-.198.446-.34.644zm-2.177-4.269-4.396-1.98 6.823-2.163a1.9 1.9 0 0 1-.422-.281l-7.51 2.38 4.638 2.09a3.155 3.155 0 0 1 .867-.046zM20.317 23.558a1.1 1.1 0 0 0-.94-.248l-1.12.222c-.148.03-.286.089-.405.17.124.076.238.165.34.265.048-.022.099-.04.153-.05l1.118-.222a.66.66 0 0 1 .565.149l1.245 1.105a.164.164 0 0 1 .029.216.19.19 0 0 1-.235.064l-1.245-.559a1.112 1.112 0 0 0-1.015.056l-.139.082a1.67 1.67 0 0 1 .042.443.644.644 0 0 1 .05-.033l.271-.16a.668.668 0 0 1 .61-.033l1.245.558a.627.627 0 0 0 .77-.207.539.539 0 0 0-.094-.712l-1.245-1.106zm-2.055 2.774c-.121.133-.263.249-.42.344v.33a.98.98 0 0 0 .596.886l1.12.502c.09.04.123.146.07.225a.172.172 0 0 1-.169.07l-1.598-.242a.62.62 0 0 1-.495-.39l-.408-1.106a2.064 2.064 0 0 1-.45-.02l.01.03.451 1.225c.126.342.443.591.825.65l1.598.242a.603.603 0 0 0 .59-.249c.188-.278.075-.647-.242-.79l-1.12-.502a.588.588 0 0 1-.358-.532v-.673z" fill="#76A3D3"/><circle cx="12.75" cy="32.819" r="2" fill="#75DAFE" fill-opacity=".8" style="mix-blend-mode:multiply"/><circle cx="4.661" cy="28.73" r=".911" fill="#75DAFE" fill-opacity=".8" style="mix-blend-mode:multiply"/><path d="M20.75 24.819h-2M19.188 27.956c-.367-.058-1.113-.212-1.163-.362-.05-.15-.204-.58-.275-.775" stroke="#00C1FE" stroke-opacity=".3" stroke-width="2"/><path fill-rule="evenodd" clip-rule="evenodd" d="m15.75 42.819-9.778-.4-.222-1.6h8.889l.667.8.444 1.2z" fill="#00C1FE" fill-opacity=".3" style="mix-blend-mode:multiply"/><path fill-rule="evenodd" clip-rule="evenodd" d="M20.638 47.899H6.416v9.778h14.222v-9.778zM5.527 57.677c0 .083.011.164.033.24a.887.887 0 0 0-.236.368L4.14 61.84a.889.889 0 0 0 .843 1.17H22.071a.889.889 0 0 0 .844-1.17l-1.185-3.555a.889.889 0 0 0-.236-.368.89.89 0 0 0 .033-.24v-9.778a.889.889 0 0 0-.89-.889H6.417a.889.889 0 0 0-.89.889v9.778zM16.43 62.12h5.641l-1.185-3.555H6.168L4.982 62.12h5.642c0-.06.006-.122.02-.184l.188-.89a.889.889 0 0 1 .87-.703h3.65c.42 0 .782.293.87.704l.188.889c.013.062.02.124.02.184zm-.445 0h-4.917c0-.03.004-.06.01-.092l.189-.889a.444.444 0 0 1 .434-.352h3.651c.21 0 .391.147.435.352l.188.889a.45.45 0 0 1 .01.092z" fill="#76A3D3"/><path fill-rule="evenodd" clip-rule="evenodd" d="M17.046 53.538a.333.333 0 1 0 0 .667.333.333 0 0 0 0-.667zm-.667.333a.667.667 0 1 1 1.334 0 .667.667 0 0 1-1.334 0z" fill="#00C1FE"/><path fill-rule="evenodd" clip-rule="evenodd" d="M17.046 52.205a.167.167 0 0 0-.167.166v.03a.441.441 0 0 1-.267.404.166.166 0 0 1-.044.012.442.442 0 0 1-.455-.101l-.002-.002-.01-.01a.167.167 0 0 0-.235 0 .166.166 0 0 0 0 .236l.01.012a.442.442 0 0 1 .091.482.442.442 0 0 1-.402.284h-.019a.167.167 0 0 0 0 .333h.029a.441.441 0 0 1 .404.267.441.441 0 0 1-.089.487l-.001.001-.01.01a.17.17 0 0 0-.05.118.166.166 0 0 0 .05.118.167.167 0 0 0 .236 0l.011-.011a.441.441 0 0 1 .482-.09.441.441 0 0 1 .284.402v.018a.166.166 0 1 0 .334 0v-.028a.442.442 0 0 1 .523-.435.441.441 0 0 1 .23.12h.001l.01.01a.167.167 0 0 0 .236 0 .166.166 0 0 0 0-.235l-.01-.012a.442.442 0 0 1 .072-.68.442.442 0 0 1 .242-.073h.016a.166.166 0 1 0 0-.333h-.029a.443.443 0 0 1-.404-.268.17.17 0 0 1-.012-.044.441.441 0 0 1 .1-.455l.002-.001.01-.01a.167.167 0 0 0 0-.236.167.167 0 0 0-.236 0l-.011.011a.441.441 0 0 1-.68-.073.44.44 0 0 1-.073-.242v-.016a.167.167 0 0 0-.167-.166zm1.233 2.166.153.068a.109.109 0 0 0 .02.119l.01.009a.498.498 0 0 1 0 .707l-.118-.117.118.117a.5.5 0 0 1-.707 0l-.01-.009a.108.108 0 0 0-.119-.021h-.001a.109.109 0 0 0-.066.1v.027a.5.5 0 1 1-1 0v-.012a.109.109 0 0 0-.07-.098.166.166 0 0 1-.01-.004.108.108 0 0 0-.12.021l-.009.01a.5.5 0 1 1-.707-.708l.01-.009a.109.109 0 0 0 .02-.119v-.002a.108.108 0 0 0-.1-.065h-.027a.5.5 0 0 1 0-1h.013a.109.109 0 0 0 .101-.08.11.11 0 0 0-.021-.12l-.01-.009a.5.5 0 1 1 .708-.707l.01.009a.109.109 0 0 0 .118.021.168.168 0 0 1 .033-.01.109.109 0 0 0 .048-.09v-.028a.5.5 0 0 1 1 0v.015a.108.108 0 0 0 .066.099h.001a.108.108 0 0 0 .12-.02l.008-.01a.503.503 0 0 1 .708 0 .5.5 0 0 1 0 .708l-.01.009a.109.109 0 0 0-.02.119c.004.01.008.022.01.033a.11.11 0 0 0 .089.047h.028a.5.5 0 1 1 0 1h-.015a.107.107 0 0 0-.099.066l-.153-.066zM12.546 52.121a.25.25 0 1 0 0 .5.25.25 0 0 0 0-.5zm-.5.25a.5.5 0 1 1 1 0 .5.5 0 0 1-1 0z" fill="#00C1FE"/><path fill-rule="evenodd" clip-rule="evenodd" d="M12.546 51.121a.125.125 0 0 0-.125.125v.022a.332.332 0 0 1-.2.303.125.125 0 0 1-.034.01.33.33 0 0 1-.341-.076l-.001-.001-.008-.008a.125.125 0 0 0-.176 0 .125.125 0 0 0 0 .177l.008.008a.332.332 0 0 1 .068.362.331.331 0 0 1-.302.213H11.421a.125.125 0 1 0 0 .25h.022a.331.331 0 0 1 .325.393.33.33 0 0 1-.089.172l-.001.001-.008.008a.125.125 0 0 0 0 .177.125.125 0 0 0 .178 0l.008-.009a.332.332 0 0 1 .362-.067.33.33 0 0 1 .213.301V53.496a.125.125 0 0 0 .25 0v-.021a.332.332 0 0 1 .565-.237v.001l.008.008a.125.125 0 0 0 .177 0 .124.124 0 0 0 .037-.089.124.124 0 0 0-.037-.088l-.008-.009a.33.33 0 0 1-.067-.364.331.331 0 0 1 .303-.2h.012a.125.125 0 0 0 0-.25h-.021a.331.331 0 0 1-.304-.201.123.123 0 0 1-.009-.033.33.33 0 0 1 .076-.341v-.001l.008-.008a.125.125 0 0 0 0-.177.125.125 0 0 0-.177 0l-.008.009a.33.33 0 0 1-.51-.055.332.332 0 0 1-.055-.182v-.012a.125.125 0 0 0-.125-.125zm.925 1.625.114.05a.081.081 0 0 0 .016.09l.007.007a.376.376 0 0 1 0 .53l-.088-.088.088.088a.373.373 0 0 1-.53 0l-.007-.006a.08.08 0 0 0-.09-.016.082.082 0 0 0-.05.074v.021a.375.375 0 0 1-.75 0v-.009a.08.08 0 0 0-.053-.073.095.095 0 0 1-.008-.003.082.082 0 0 0-.089.016l-.007.007a.373.373 0 0 1-.53 0 .374.374 0 0 1 0-.531l.007-.007a.082.082 0 0 0 .016-.09h-.001a.08.08 0 0 0-.074-.05h-.021a.375.375 0 1 1 0-.75h.01a.082.082 0 0 0 .076-.06.08.08 0 0 0-.016-.09l-.007-.006a.375.375 0 1 1 .53-.53l.007.006a.08.08 0 0 0 .09.016.129.129 0 0 1 .024-.008.081.081 0 0 0 .036-.067v-.02a.375.375 0 1 1 .75 0v.01a.081.081 0 0 0 .05.075.08.08 0 0 0 .09-.016l.007-.007a.372.372 0 0 1 .408-.081.373.373 0 0 1 .203.49.374.374 0 0 1-.081.122l-.007.007a.082.082 0 0 0-.016.089.121.121 0 0 1 .008.025.082.082 0 0 0 .067.035h.02a.375.375 0 0 1 0 .75h-.01a.082.082 0 0 0-.074.05l-.115-.05z" fill="#00C1FE"/><circle cx="3.244" cy="3.244" r="3.244" transform="matrix(-1 0 0 1 61.562 66.526)" fill="#89DFFF" style="mix-blend-mode:multiply"/><circle cx="4.877" cy="4.877" r="3.877" transform="matrix(-1 0 0 1 64 64.893)" stroke="#003E6E" stroke-opacity=".5" stroke-width="2"/><path fill-rule="evenodd" clip-rule="evenodd" d="M52.479 70.77h1v-1h-1v1zm-2 0h1v-1h-1v1zm-2 0h1v-1h-1v1zm-2 0h1v-1h-1v1zm-2 0h1v-1h-1v1zm-2 0h1v-1h-1v1zM74.783 70.77h1v-1h-1v1zm-2 0h1v-1h-1v1zm-2 0h1v-1h-1v1zm-2 0h1v-1h-1v1zm-2 0h1v-1h-1v1zm-2 0h1v-1h-1v1zM40.59 50.982h1v-1h-1v1zm-2 0h1v-1h-1v1zm-2 0h1v-1h-1v1zM34.66 50.982h1v-1h-1v1zm-2 0h1v-1h-1v1zm-2 0h1v-1h-1v1zm-2 0h1v-1h-1v1zm-2 0h1v-1h-1v1zm-2 0h1v-1h-1v1zM58.283 57.763v-1h-1v1h1zm0 2v-1h-1v1h1zm0 2v-1h-1v1h1zm0 2v-1h-1v1h1z" fill="#00C1FE"/><path fill="#fff" d="M70 13H48v41h22z"/><rect width="20.983" height="41" rx="2" transform="matrix(-1 0 0 1 67.93 13.5)" stroke="#003E6E" stroke-opacity=".5" stroke-width="2"/><rect width="14" height="3" rx="1.5" transform="matrix(-1 0 0 1 64 17.5)" fill="#96E5FE"/><circle cx="3" cy="3" r="2.5" transform="matrix(-1 0 0 1 60 45)" stroke="#fff"/><circle cx="2.491" cy="2.491" r="2.491" transform="matrix(-1 0 0 1 60.274 45)" fill="#89DFFF" style="mix-blend-mode:multiply"/><rect width="14" height="3" rx="1.5" transform="matrix(-1 0 0 1 63.12 24.25)" fill="#96E5FE"/><rect width="14" height="3" rx="1.5" transform="matrix(-1 0 0 1 64.783 32)" fill="#96E5FE"/><rect x="-.5" y=".5" width="13" height="2" rx="1" transform="matrix(-1 0 0 1 63 19)" stroke="#80A9D6"/><rect x="-.5" y=".5" width="13" height="2" rx="1" transform="matrix(-1 0 0 1 63 25)" stroke="#80A9D6"/><rect x="-.5" y=".5" width="13" height="2" rx="1" transform="matrix(-1 0 0 1 63 31)" stroke="#80A9D6"/><path fill-rule="evenodd" clip-rule="evenodd" d="M43.587 24.196h.789v-.79h-.79v.79zm-1.58 0h.79v-.79h-.79v.79z" fill="#00C1FE"/></svg>