<svg width="335" height="335" fill="none" xmlns="http://www.w3.org/2000/svg"><circle cx="167.5" cy="167.5" r="167.5" fill="#EBF3F8"/><path stroke="#00C1FE" stroke-dasharray="1 1" d="M65.5 192v7"/><path fill-rule="evenodd" clip-rule="evenodd" d="M81.5 207.163a3.5 3.5 0 1 0 0-7 3.5 3.5 0 0 0 0 7zm0 1a4.5 4.5 0 1 0 0-9 4.5 4.5 0 0 0 0 9zM53.5 218.163a4.5 4.5 0 1 0 0-9 4.5 4.5 0 0 0 0 9zm0 1a5.5 5.5 0 1 0 0-11 5.5 5.5 0 0 0 0 11zM81 241.163H61a4.002 4.002 0 0 0-3.874 3h27.748a4.002 4.002 0 0 0-3.874-3zm4.9 3a5.002 5.002 0 0 0-4.9-4H61a5.002 5.002 0 0 0-5 5h30c0-.343-.034-.677-.1-1z" fill="#76A3D3"/><path fill-rule="evenodd" clip-rule="evenodd" d="M85 245.163H57v1h28v-1zm-29-1v3h30v-3H56zM73 231.163a6 6 0 1 0 0-12 6 6 0 0 0 0 12zm0 1a7 7 0 1 0 0-14 7 7 0 0 0 0 14z" fill="#76A3D3"/><path fill-rule="evenodd" clip-rule="evenodd" d="M73 228.163a3 3 0 1 0 0-6 3 3 0 0 0 0 6zm0 1a4 4 0 1 0 0-8 4 4 0 0 0 0 8zM53.5 215.163a1.5 1.5 0 1 0 0-3 1.5 1.5 0 0 0 0 3zm0 1a2.5 2.5 0 1 0 0-5 2.5 2.5 0 0 0 0 5z" fill="#76A3D3"/><path d="M83 203.663a1.5 1.5 0 1 1-3 0 1.5 1.5 0 0 1 3 0z" fill="#76A3D3"/><path fill-rule="evenodd" clip-rule="evenodd" d="m77.186 202.378-22.961 5.832a5.444 5.444 0 0 1 1.812.572l20.967-5.326a4.49 4.49 0 0 1 .182-1.078zM66 225.193l-11.46-6.129a5.441 5.441 0 0 0 1.316-.43l10.224 5.467a7.053 7.053 0 0 0-.08 1.092zm.266 1.887-5.48 13.083h1.084l4.925-11.758a6.939 6.939 0 0 1-.53-1.325zm12.556 1.97 1.344 11.113h1.007l-1.541-12.753a6.976 6.976 0 0 1-.81 1.64zm-5.182-10.858-10.464-5.037 16.243-5.501a4.512 4.512 0 0 1-1.005-.716l-17.88 6.056 11.042 5.314a7.035 7.035 0 0 1 2.064-.116zM89.821 199.523a2.5 2.5 0 0 0-2.239-.631l-2.663.565a2.493 2.493 0 0 0-.965.433c.295.193.566.419.808.673.114-.058.237-.101.365-.128l2.663-.565a1.5 1.5 0 0 1 1.343.379l2.964 2.811a.437.437 0 0 1-.49.711l-2.965-1.42a2.499 2.499 0 0 0-2.416.142l-.329.208a4.519 4.519 0 0 1 .1 1.128c.038-.03.079-.058.12-.084l.644-.407a1.5 1.5 0 0 1 1.45-.085l2.965 1.42a1.437 1.437 0 0 0 1.61-2.338l-2.965-2.812zm-4.892 7.055a4.533 4.533 0 0 1-1 .874v.838a2.5 2.5 0 0 0 1.42 2.255l2.667 1.278a.397.397 0 0 1-.236.751l-3.805-.617a1.5 1.5 0 0 1-1.178-.991l-.971-2.815a4.503 4.503 0 0 1-1.074-.05l.025.077 1.075 3.114c.3.87 1.054 1.505 1.963 1.653l3.805.616a1.397 1.397 0 0 0 .828-2.64l-2.667-1.278a1.499 1.499 0 0 1-.852-1.353v-1.712zM263.227 212h-32v22h32v-22zm-34 22c0 .187.025.369.074.541a1.986 1.986 0 0 0-.53.827l-2.667 8a2 2 0 0 0 1.898 2.632h38.45a2 2 0 0 0 1.897-2.632l-2.666-8a1.996 1.996 0 0 0-.53-.827c.048-.172.074-.354.074-.541v-22a2 2 0 0 0-2-2h-32a2 2 0 0 0-2 2v22zm24.531 10h12.694l-2.667-8h-33.117l-2.666 8h12.692a2.05 2.05 0 0 1 .045-.415l.424-2a2 2 0 0 1 1.956-1.585h8.214a2 2 0 0 1 1.957 1.585l.424 2c.03.14.044.279.044.415zm-1 0h-11.063c0-.068.007-.138.022-.208l.424-2a1 1 0 0 1 .978-.792h8.214a1 1 0 0 1 .979.792l.424 2c.015.07.022.14.022.208z" fill="#76A3D3"/><path fill-rule="evenodd" clip-rule="evenodd" d="M254.226 224.833a1.167 1.167 0 1 0 .002 2.334 1.167 1.167 0 0 0-.002-2.334zM251.893 226a2.333 2.333 0 1 1 4.666 0 2.333 2.333 0 0 1-4.666 0z" fill="#00C1FE"/><path fill-rule="evenodd" clip-rule="evenodd" d="M254.227 220.167a.581.581 0 0 0-.584.583v.101a1.54 1.54 0 0 1-.937 1.415.586.586 0 0 1-.154.042 1.554 1.554 0 0 1-1.592-.353l-.004-.005-.035-.035a.582.582 0 0 0-.826 0 .566.566 0 0 0-.171.413.587.587 0 0 0 .171.413l.039.039a1.548 1.548 0 0 1 .317 1.689 1.55 1.55 0 0 1-1.408.994h-.066a.585.585 0 0 0-.413.996c.109.11.258.171.413.171h.101a1.545 1.545 0 0 1 1.413.934 1.543 1.543 0 0 1-.31 1.702l-.004.005-.035.035a.572.572 0 0 0-.172.413.573.573 0 0 0 .171.412l.001.001a.593.593 0 0 0 .412.171.592.592 0 0 0 .413-.171l.04-.04a1.545 1.545 0 0 1 1.688-.316 1.54 1.54 0 0 1 .995 1.408v.066a.58.58 0 0 0 .996.412.583.583 0 0 0 .171-.412v-.101a1.54 1.54 0 0 1 .934-1.414 1.55 1.55 0 0 1 1.702.31l.004.005.035.035a.592.592 0 0 0 .413.171.592.592 0 0 0 .413-.171.584.584 0 0 0 0-.826l-.039-.039a1.548 1.548 0 0 1-.311-1.703c.119-.275.316-.511.566-.677.252-.166.546-.255.848-.257h.055a.58.58 0 0 0 .583-.583.583.583 0 0 0-.583-.583H259.375a1.555 1.555 0 0 1-1.415-.937.597.597 0 0 1-.042-.154 1.547 1.547 0 0 1 .354-1.592l.005-.005.035-.035a.585.585 0 0 0 0-.825l-.001-.001a.593.593 0 0 0-.412-.171.592.592 0 0 0-.413.171l-.04.04a1.545 1.545 0 0 1-1.702.31 1.543 1.543 0 0 1-.934-1.413v-.055a.583.583 0 0 0-.583-.583zm4.316 7.583.534.236a.376.376 0 0 0 .074.416l.032.032a1.744 1.744 0 0 1 .38 1.908 1.733 1.733 0 0 1-.38.568l-.412-.413.412.413a1.75 1.75 0 0 1-2.476 0l-.032-.032a.378.378 0 0 0-.416-.074l-.006.002a.384.384 0 0 0-.23.346v.098a1.75 1.75 0 1 1-3.5 0v-.044a.386.386 0 0 0-.07-.207.385.385 0 0 0-.178-.135.488.488 0 0 1-.034-.014.38.38 0 0 0-.416.074l-.032.032a1.755 1.755 0 0 1-1.909.38 1.753 1.753 0 0 1-.947-2.287c.088-.213.217-.406.38-.568l.032-.032a.376.376 0 0 0 .074-.417l-.003-.006a.38.38 0 0 0-.346-.229h-.097a1.75 1.75 0 0 1 0-3.5h.044a.381.381 0 0 0 .341-.248l.014-.035a.376.376 0 0 0-.074-.416l-.032-.032a1.733 1.733 0 0 1-.513-1.238 1.748 1.748 0 0 1 1.751-1.751 1.748 1.748 0 0 1 1.238.513l.032.032a.378.378 0 0 0 .416.074.625.625 0 0 1 .116-.037.396.396 0 0 0 .104-.104.393.393 0 0 0 .063-.207v-.098a1.75 1.75 0 1 1 3.5 0v.051a.37.37 0 0 0 .063.207.37.37 0 0 0 .166.139l.006.003a.384.384 0 0 0 .417-.074l.032-.032a1.75 1.75 0 1 1 2.476 2.475c-.001 0 0 0 0 0l-.033.032a.376.376 0 0 0-.074.417.583.583 0 0 1 .038.116.378.378 0 0 0 .311.166h.098a1.75 1.75 0 0 1 0 3.5h-.051a.386.386 0 0 0-.347.23l-.536-.23zM240.727 218.75a.75.75 0 1 0 0 1.5.75.75 0 0 0 0-1.5zm-1.5.75a1.5 1.5 0 1 1 3 0 1.5 1.5 0 0 1-3 0z" fill="#00C1FE"/><path fill-rule="evenodd" clip-rule="evenodd" d="M240.727 215.75a.375.375 0 0 0-.375.375v.065a.998.998 0 0 1-.603.91.414.414 0 0 1-.099.027.998.998 0 0 1-1.023-.228l-.003-.003-.023-.022a.37.37 0 0 0-.53 0h-.001a.372.372 0 0 0-.11.265.374.374 0 0 0 .11.266l.026.025a.992.992 0 0 1 .203 1.086.992.992 0 0 1-.905.639h-.042a.375.375 0 0 0 0 .75h.065a.997.997 0 0 1 .709 1.695l-.003.003-.023.022a.388.388 0 0 0-.11.266.37.37 0 0 0 .11.265h.001a.37.37 0 0 0 .53 0l.026-.025a.998.998 0 0 1 1.085-.204.99.99 0 0 1 .639.905l.001.009v.034a.375.375 0 1 0 .75 0v-.065a.989.989 0 0 1 .6-.909.998.998 0 0 1 1.094.2l.003.003.023.022a.375.375 0 0 0 .531 0 .372.372 0 0 0 .11-.265.374.374 0 0 0-.11-.266l-.026-.025a.992.992 0 0 1-.199-1.095.995.995 0 0 1 .908-.6H244.102a.378.378 0 0 0 .375-.375.376.376 0 0 0-.375-.375h-.066a.994.994 0 0 1-.909-.602.347.347 0 0 1-.027-.099.99.99 0 0 1 .227-1.024l.003-.003.023-.022a.372.372 0 0 0 .11-.266.37.37 0 0 0-.11-.265h-.001a.37.37 0 0 0-.53 0l-.026.025a.998.998 0 0 1-1.694-.709v-.035a.376.376 0 0 0-.375-.375zm2.775 4.875.343.151a.242.242 0 0 0 .047.268l.021.021a1.13 1.13 0 0 1 .244 1.226c-.057.137-.14.261-.244.366l-.265-.266.265.265a1.12 1.12 0 0 1-1.592 0l-.02-.02a.247.247 0 0 0-.126-.065.247.247 0 0 0-.142.017l-.004.002a.244.244 0 0 0-.147.222v.063a1.123 1.123 0 0 1-1.125 1.125 1.125 1.125 0 0 1-1.125-1.125v-.028a.245.245 0 0 0-.16-.22l-.022-.009a.246.246 0 0 0-.142-.017.247.247 0 0 0-.126.065l-.02.02a1.12 1.12 0 0 1-.796.33 1.12 1.12 0 0 1-.796-.329 1.145 1.145 0 0 1-.33-.796 1.116 1.116 0 0 1 .33-.796l.021-.021a.242.242 0 0 0 .047-.268l-.001-.003a.24.24 0 0 0-.09-.107.232.232 0 0 0-.133-.041h-.062a1.125 1.125 0 0 1 0-2.25h.028a.252.252 0 0 0 .133-.045.257.257 0 0 0 .095-.136.242.242 0 0 0-.047-.268l-.021-.021a1.13 1.13 0 0 1-.244-1.226 1.13 1.13 0 0 1 1.04-.695 1.12 1.12 0 0 1 .796.33l.02.02a.247.247 0 0 0 .126.065.246.246 0 0 0 .142-.017.328.328 0 0 1 .075-.024.263.263 0 0 0 .066-.067.254.254 0 0 0 .041-.133v-.063a1.122 1.122 0 0 1 1.125-1.125 1.125 1.125 0 0 1 1.125 1.125v.033a.244.244 0 0 0 .147.222l.004.002c.045.02.094.025.142.017a.247.247 0 0 0 .126-.065l.02-.02a1.12 1.12 0 0 1 .796-.33 1.12 1.12 0 0 1 .796.33 1.114 1.114 0 0 1 .33.795 1.116 1.116 0 0 1-.33.796l-.021.021a.242.242 0 0 0-.047.268c.01.024.018.049.024.074.017.026.04.049.067.066a.232.232 0 0 0 .133.041h.063a1.125 1.125 0 0 1 0 2.25h-.033a.232.232 0 0 0-.133.041.24.24 0 0 0-.09.107l-.344-.148z" fill="#00C1FE"/><path d="M57 192v9M75 192v10M117 172v31" stroke="#00C1FE" stroke-dasharray="1 1"/><circle cx="64.627" cy="225.733" r="2.733" fill="#75DAFE" fill-opacity=".8" style="mix-blend-mode:multiply"/><circle cx="43.733" cy="214.104" r="2.733" fill="#75DAFE" fill-opacity=".8" style="mix-blend-mode:multiply"/><path d="M80.698 203.174c-.33-.11-2.407-1.788-3.404-2.613-.608.011-1.899.103-2.201.378M76.313 212.007c-1.1-.175-3.338-.638-3.488-1.088-.15-.45-.612-1.737-.825-2.325" stroke="#00C1FE" stroke-opacity=".6" stroke-width="2"/><path fill-rule="evenodd" clip-rule="evenodd" d="m71.5 244.061-22-.5-.5-2h20l1.5 1 1 1.5z" fill="#00C1FE" fill-opacity=".6" style="mix-blend-mode:multiply"/><path fill-rule="evenodd" clip-rule="evenodd" d="M122.5 207a.5.5 0 1 0 0-1 .5.5 0 0 0 0 1zm1.5-.5a1.5 1.5 0 0 1-1 1.415V213h2v-1.5a.5.5 0 0 1 1 0v1.5h2v-3.085a1.5 1.5 0 1 1 1 0V213h2v-1.5a.5.5 0 0 1 1 0v1.5h2a2 2 0 0 1 2 2v2h1.5a.5.5 0 0 1 0 1H136v2h1.5a.5.5 0 0 1 0 1H136v2h1.5a.5.5 0 0 1 0 1H136v2h5.085a1.5 1.5 0 1 1 0 1H136v2h1.5a.5.5 0 0 1 0 1H136v2h1.5a.5.5 0 0 1 0 1H136v2h1.5a.5.5 0 0 1 0 1H136v2a2 2 0 0 1-2 2h-2v1.5a.5.5 0 0 1-1 0V240h-2v3.085a1.5 1.5 0 1 1-1 0V240h-2v1.5a.5.5 0 0 1-1 0V240h-2v5.085a1.5 1.5 0 1 1-1 0V240h-2v1.5a.5.5 0 0 1-1 0V240h-2v3.085a1.5 1.5 0 1 1-1 0V240h-2v1.5a.5.5 0 0 1-1 0V240h-2a2 2 0 0 1-2-2v-2h-1.5a.5.5 0 0 1 0-1h1.5v-2h-1.5a.5.5 0 0 1 0-1h1.5v-2h-1.5a.5.5 0 0 1 0-1h1.5v-2h-5.085a1.5 1.5 0 1 1 0-1H109v-2h-1.5a.5.5 0 0 1 0-1h1.5v-2h-1.5a.5.5 0 0 1 0-1h1.5v-2h-1.5a.5.5 0 0 1 0-1h1.5v-2a2 2 0 0 1 2-2h2v-1.5a.5.5 0 0 1 1 0v1.5h2v-3.085a1.5 1.5 0 1 1 1 0V213h2v-1.5a.5.5 0 0 1 1 0v1.5h2v-5.085a1.5 1.5 0 1 1 2-1.415zm-21 20a.5.5 0 1 0-1 0 .5.5 0 0 0 1 0zm39 0a.5.5 0 1 0 1 0 .5.5 0 0 0-1 0zM116.5 244a.5.5 0 1 0 0 1 .5.5 0 0 0 0-1zm5.5 2.5a.5.5 0 1 1 1 0 .5.5 0 0 1-1 0zm6.5-2.5a.5.5 0 1 0 0 1 .5.5 0 0 0 0-1zm0-35a.5.5 0 1 0 0-1 .5.5 0 0 0 0 1zm-12 0a.5.5 0 1 0 0-1 .5.5 0 0 0 0 1zm-5.5 6v23h23v-23h-23zm5 2.5a.5.5 0 0 1 .5-.5h2a.5.5 0 0 1 0 1h-2a.5.5 0 0 1-.5-.5zm-2 6a.5.5 0 0 0 1 0v-3a.5.5 0 0 0-1 0v3zm16.5.5a.5.5 0 0 1-.5-.5v-3a.5.5 0 0 1 1 0v3a.5.5 0 0 1-.5.5zm-16.5 8.5a.5.5 0 0 0 1 0v-6a.5.5 0 0 0-1 0v6zm16.5.5a.5.5 0 0 1-.5-.5v-6a.5.5 0 0 1 1 0v6a.5.5 0 0 1-.5.5zm-6-1a.5.5 0 0 0 0 1h4a.5.5 0 0 0 0-1h-4zm-8.5 3.5a.5.5 0 0 1 .5-.5h2a.5.5 0 0 1 0 1h-2a.5.5 0 0 1-.5-.5zm5.5-18.5a.5.5 0 0 0 0 1h7a.5.5 0 0 0 0-1h-7zm-.5 18.5a.5.5 0 0 1 .5-.5h7a.5.5 0 0 1 0 1h-7a.5.5 0 0 1-.5-.5zm-4.5-15.5a.5.5 0 0 0 0 1h5a.5.5 0 0 0 0-1h-5zm-3.5-3.5a.5.5 0 1 1-1 0 .5.5 0 0 1 1 0zm-.5 20.5a.5.5 0 1 0 0-1 .5.5 0 0 0 0 1zm20.5-20.5a.5.5 0 1 1-1 0 .5.5 0 0 1 1 0zm-.5 20.5a.5.5 0 1 0 0-1 .5.5 0 0 0 0 1z" fill="#76A3D3"/><circle cx="124.075" cy="206.116" r="1.116" fill="#75DAFE" fill-opacity=".8"/><circle cx="119.539" cy="208.349" r="1.116" fill="#75DAFE" fill-opacity=".8"/><circle cx="105.116" cy="227.616" r="1.116" fill="#75DAFE" fill-opacity=".8"/><circle cx="118.422" cy="245.358" r="1.116" fill="#75DAFE" fill-opacity=".8"/><circle cx="144.959" cy="227.616" r="1.116" fill="#75DAFE" fill-opacity=".8"/><path d="M117.917 222.614a1.039 1.039 0 1 1 2.076 0v5.488l-.395 5.129a.843.843 0 0 1-1.681-.065v-10.552z" fill="#91E1FE"/><path d="M131.958 234.008a1.039 1.039 0 0 1 0 2.076h-3.396l-3.227-.368a.858.858 0 0 1 .097-1.708h6.526zM120.618 215.495a1.037 1.037 0 1 1 0 2.076h-1.106c-.139 0-.277-.015-.413-.044l-1.189-.258a.897.897 0 0 1 .189-1.774h2.519z" fill="#91E1FE" fill-opacity=".5"/><path d="M194.367 108v-4.195c2.774 0 5.553-5.593 2.776-12.584-2.778-6.99-6.02-6.059-8.335-5.593-.926-2.796-4.114-3.52-8.33-1.398-5.558 2.796-4.168 6.525-2.78 8.39-2.314 4.194-1.715 11.185 1.393 11.185h4.164V108M236.367 108v-4.195c2.774 0 5.553-5.593 2.776-12.584-2.778-6.99-6.02-6.059-8.335-5.593-.926-2.796-4.114-3.52-8.33-1.398-5.558 2.796-4.168 6.525-2.78 8.39-2.314 4.194-1.715 11.185 1.393 11.185h4.164V108M278.367 108v-4.195c2.774 0 5.553-5.593 2.776-12.584-2.778-6.99-6.02-6.059-8.335-5.593-.926-2.796-4.114-3.52-8.33-1.398-5.558 2.796-4.168 6.525-2.78 8.39-2.314 4.194-1.715 11.185 1.393 11.185h4.164V108" stroke="#C8DBED"/><rect x="187.793" y="173.5" width="4" height="2" rx="1" stroke="#C8DBED"/><rect x="179.5" y="173.5" width="4" height="2" rx="1" stroke="#C8DBED"/><rect x="198.793" y="173.5" width="5" height="2" rx="1" stroke="#C8DBED"/><rect x="198.793" y="181.5" width="5" height="2" rx="1" stroke="#C8DBED"/><rect x="187.793" y="181.5" width="4" height="2" rx="1" stroke="#C8DBED"/><rect x="179.5" y="181.5" width="4" height="2" rx="1" stroke="#C8DBED"/><rect x="271.793" y="181.5" width="5" height="2" rx="1" stroke="#C8DBED"/><rect x="271.793" y="173.5" width="5" height="2" rx="1" stroke="#C8DBED"/><rect x="260.793" y="173.5" width="5" height="2" rx="1" stroke="#C8DBED"/><rect x="260.793" y="181.5" width="5" height="2" rx="1" stroke="#C8DBED"/><path fill-rule="evenodd" clip-rule="evenodd" d="M244 150a2 2 0 0 0-2-2h-23a2 2 0 0 0-2 2v12a3 3 0 0 1-3 3h-9a3 3 0 0 1-3-3v-12a2 2 0 0 0-2-2h-27a2 2 0 0 0-2 2v49a2 2 0 0 0 2 2h114a2 2 0 0 0 2-2v-49a2 2 0 0 0-2-2h-26a2 2 0 0 0-2 2v12a3 3 0 0 1-3 3h-9a3 3 0 0 1-3-3v-12zm0-4h1a1 1 0 0 1 1 1v15a1 1 0 0 0 1 1h9a1 1 0 0 0 1-1v-15a1 1 0 0 1 1-1h31a2 2 0 0 1 2 2v53a2 2 0 0 1-2 2H171a2 2 0 0 1-2-2v-53a2 2 0 0 1 2-2h32a1 1 0 0 1 1 1v15a1 1 0 0 0 1 1h9a1 1 0 0 0 1-1v-15a1 1 0 0 1 1-1h28z" fill="#C8DBED"/><path fill-rule="evenodd" clip-rule="evenodd" d="M180.34 147a1 1 0 0 0 .997-.914l2.624-30.259a2 2 0 0 1 1.993-1.827h4.092a2 2 0 0 1 1.993 1.827l2.624 30.259a1 1 0 0 0 1.993-.172l-2.783-32.087A2 2 0 0 0 191.88 112h-7.76a2 2 0 0 0-1.993 1.827l-2.783 32.087a1 1 0 0 0 .996 1.086zm100.319 0a1 1 0 0 0 .997-1.086l-2.783-32.087A2 2 0 0 0 276.88 112h-7.76a2 2 0 0 0-1.993 1.827l-2.783 32.087a1 1 0 1 0 1.993.172l2.624-30.259a2 2 0 0 1 1.993-1.827h4.092a2 2 0 0 1 1.993 1.827l2.624 30.259a1 1 0 0 0 .996.914zm-42.932 0a1 1 0 0 0 .996-1.082l-2.643-32.082a2 2 0 0 0-1.993-1.836h-7.174a2 2 0 0 0-1.993 1.836l-2.643 32.082a1 1 0 1 0 1.993.164l2.492-30.246a2 2 0 0 1 1.993-1.836h3.49a2 2 0 0 1 1.993 1.836l2.492 30.246a1 1 0 0 0 .997.918z" fill="#C8DBED"/><rect x="225.5" y="190.5" width="10" height="12" rx="1.5" stroke="#C8DBED"/><path d="M173.872 151.315c7.093-.502 21.667-1.204 23.214 0 1.548 1.204 1.935 8.384 1.935 11.823M218.583 151.177c6.722-.501 20.533-1.203 22 0 1.467 1.204 1.834 8.384 1.834 11.823M262.376 151.177c6.722-.501 20.533-1.203 22 0 1.467 1.204 1.833 8.384 1.833 11.823" stroke="#00C1FE" stroke-opacity=".3" stroke-width="6"/><path d="m186.112 106.967-.392-8.192c-1.589 1.519-4.974 3.647-5.803 0-.829-3.648.046-4.59.391-5.902M228.271 106.967l-.392-8.192c-1.589 1.519-4.974 3.647-5.803 0-.829-3.648.046-4.59.391-5.902M270.43 106.967l-.392-8.192c-1.589 1.519-4.974 3.647-5.803 0-.829-3.648.046-4.59.392-5.902" stroke="#00C1FE" stroke-opacity=".2" stroke-width="4"/><rect x="178.576" y="172.561" width="22" height="3" rx="1.5" fill="#00C1FE" fill-opacity=".41" style="mix-blend-mode:multiply"/><rect x="199.576" y="182.561" width="11" height="3" rx="1.5" fill="#00C1FE" fill-opacity=".41" style="mix-blend-mode:multiply"/><rect x="272.576" y="174.561" width="11" height="3" rx="1.5" fill="#00C1FE" fill-opacity=".41" style="mix-blend-mode:multiply"/><rect x="258.576" y="181.561" width="8" height="3" rx="1.5" fill="#00C1FE" fill-opacity=".41" style="mix-blend-mode:multiply"/><rect x="228.576" y="191.561" width="8" height="10" rx="2" fill="#00C1FE" fill-opacity=".41" style="mix-blend-mode:multiply"/><rect x="53" y="141" width="26" height="49" rx="2" stroke="#76A3D3" stroke-width="2"/><rect x="58.5" y="144.5" width="6" height="2" rx="1" transform="rotate(90 58.5 144.5)" stroke="#76A3D3"/><rect x="59.744" y="144" width="7" height="2.244" rx="1.122" transform="rotate(90 59.744 144)" fill="#00C1FE" fill-opacity=".5"/><rect x="67.744" y="144" width="7" height="2.244" rx="1.122" transform="rotate(90 67.744 144)" fill="#00C1FE" fill-opacity=".5"/><rect x="63.744" y="156" width="7" height="2.244" rx="1.122" transform="rotate(90 63.744 156)" fill="#00C1FE" fill-opacity=".5"/><rect x="59.744" y="168" width="7" height="2.244" rx="1.122" transform="rotate(90 59.744 168)" fill="#00C1FE" fill-opacity=".5"/><rect x="64.122" y="168" width="7" height="2.244" rx="1.122" transform="rotate(90 64.122 168)" fill="#00C1FE" fill-opacity=".5"/><rect x="67.744" y="180" width="7" height="2.244" rx="1.122" transform="rotate(90 67.744 180)" fill="#00C1FE" fill-opacity=".5"/><rect x="60.122" y="180" width="7" height="2.244" rx="1.122" transform="rotate(90 60.122 180)" fill="#00C1FE" fill-opacity=".5"/><rect x="58.5" y="156.5" width="6" height="2" rx="1" transform="rotate(90 58.5 156.5)" stroke="#76A3D3"/><rect x="58.5" y="168.5" width="6" height="2" rx="1" transform="rotate(90 58.5 168.5)" stroke="#76A3D3"/><rect x="58.5" y="180.5" width="6" height="2" rx="1" transform="rotate(90 58.5 180.5)" stroke="#76A3D3"/><rect x="62.5" y="144.5" width="6" height="2" rx="1" transform="rotate(90 62.5 144.5)" stroke="#76A3D3"/><rect x="62.5" y="156.5" width="6" height="2" rx="1" transform="rotate(90 62.5 156.5)" stroke="#76A3D3"/><rect x="62.5" y="168.5" width="6" height="2" rx="1" transform="rotate(90 62.5 168.5)" stroke="#76A3D3"/><rect x="62.5" y="180.5" width="6" height="2" rx="1" transform="rotate(90 62.5 180.5)" stroke="#76A3D3"/><rect x="66.5" y="144.5" width="6" height="2" rx="1" transform="rotate(90 66.5 144.5)" stroke="#76A3D3"/><rect x="66.5" y="156.5" width="6" height="2" rx="1" transform="rotate(90 66.5 156.5)" stroke="#76A3D3"/><rect x="66.5" y="168.5" width="6" height="2" rx="1" transform="rotate(90 66.5 168.5)" stroke="#76A3D3"/><rect x="66.5" y="180.5" width="6" height="2" rx="1" transform="rotate(90 66.5 180.5)" stroke="#76A3D3"/><rect x="75.5" y="148.5" width="2" height="2" rx="1" transform="rotate(90 75.5 148.5)" stroke="#76A3D3"/><rect x="75.5" y="160.5" width="2" height="2" rx="1" transform="rotate(90 75.5 160.5)" stroke="#76A3D3"/><rect x="75.5" y="172.5" width="2" height="2" rx="1" transform="rotate(90 75.5 172.5)" stroke="#76A3D3"/><rect x="75.5" y="184.5" width="2" height="2" rx="1" transform="rotate(90 75.5 184.5)" stroke="#76A3D3"/><path stroke="#76A3D3" d="M53 153.5h26M53 165.5h26M53 177.5h26"/><circle cx="117.991" cy="164" r="3.991" fill="#89DFFF" style="mix-blend-mode:multiply"/><circle cx="117" cy="164" r="5" stroke="#003E6E" stroke-opacity=".5" stroke-width="2"/><path stroke="#00C1FE" stroke-dasharray="1 1" d="M123 164.5h22M84 164.5h27M117.5 146v12"/><path fill="#fff" d="M104 98.234h26v48h-26z"/><rect x="104" y="98.234" width="26" height="48" rx="2" stroke="#003E6E" stroke-opacity=".5" stroke-width="2"/><rect x="110" y="104.734" width="14" height="3" rx="1.5" fill="#96E5FE"/><circle cx="117" cy="135.234" r="2.5" stroke="#fff"/><circle cx="117.881" cy="134.236" r="2.491" fill="#89DFFF" style="mix-blend-mode:multiply"/><rect x="110.881" y="111.484" width="14" height="3" rx="1.5" fill="#96E5FE"/><rect x="109.217" y="119.234" width="14" height="3" rx="1.5" fill="#96E5FE"/><rect x="110.5" y="106.734" width="13" height="2" rx="1" stroke="#80A9D6"/><rect x="110.5" y="112.734" width="13" height="2" rx="1" stroke="#80A9D6"/><rect x="110.5" y="118.734" width="13" height="2" rx="1" stroke="#80A9D6"/><path fill-rule="evenodd" clip-rule="evenodd" d="m167.795 148.911.48.582c-.19.159-.379.319-.567.48l-.488-.576c.191-.163.382-.325.575-.486zm-1.144.978.495.57c-.186.163-.372.327-.556.493l-.501-.564c.186-.167.374-.334.562-.499zm-1.119 1.005a53.1 53.1 0 0 0-.55.514l.515.551c.18-.17.362-.339.544-.507l-.509-.558zm-1.094 1.034.522.544c-.178.173-.355.346-.53.52l-.529-.538c.178-.176.357-.352.537-.526zm-1.068 1.06.535.531c-.173.177-.346.355-.517.533l-.542-.524c.173-.181.348-.361.524-.54zm-1.042 1.086.549.518c-.17.181-.338.363-.505.546l-.554-.511c.169-.185.339-.37.51-.553zm-1.014 1.112.561.504a65.24 65.24 0 0 0-.491.558l-.567-.497c.164-.189.33-.378.497-.565zm-.987 1.137.573.49c-.16.189-.319.379-.477.57l-.579-.482c.16-.194.321-.387.483-.578zm-.958 1.161.585.476c-.156.193-.31.387-.463.582l-.591-.469c.155-.197.311-.393.469-.589zm-.93 1.185.597.461c-.151.196-.3.394-.448.593l-.603-.453c.15-.201.302-.402.454-.601zm-.9 1.207.608.446c-.145.2-.29.402-.433.604l-.613-.438c.144-.205.291-.409.438-.612zm-.87 1.23.619.43c-.141.204-.28.41-.418.616l-.624-.423c.14-.209.281-.416.423-.623zm-.839 1.251.63.415c-.136.207-.27.415-.403.625l-.634-.407c.134-.212.27-.423.407-.633zm-.808 1.271.64.399c-.131.211-.26.423-.388.636l-.644-.391c.13-.215.26-.43.392-.644zm-.775 1.292.649.382c-.125.214-.249.429-.372.645l-.653-.375c.124-.218.249-.436.376-.652zm-.744 1.31.658.367c-.12.217-.238.435-.355.654l-.663-.358c.119-.222.238-.443.36-.663zm-.711 1.329.667.349c-.114.22-.227.441-.338.663l-.672-.341c.113-.225.227-.449.343-.671zm-.678 1.346.676.333c-.109.223-.216.447-.322.671l-.68-.324c.107-.228.216-.454.326-.68zm-.644 1.362.684.316a58.7 58.7 0 0 0-.305.679l-.688-.307c.102-.23.205-.459.309-.688zm-.61 1.38.692.298c-.097.228-.193.457-.288.686l-.695-.29c.096-.232.193-.463.291-.694zm-.574 1.392.698.281c-.091.231-.182.462-.271.694l-.702-.272c.09-.235.182-.469.275-.703zm-.541 1.409.706.263c-.086.233-.171.466-.254.7l-.708-.255c.084-.237.169-.473.256-.708zm-.504 1.419.712.246c-.08.235-.159.47-.236.706l-.715-.236c.078-.239.158-.478.239-.716zm-.47 1.435.718.227c-.074.236-.146.474-.218.711l-.72-.218c.072-.241.145-.481.22-.72zm-.432 1.443.723.209c-.068.238-.135.477-.2.717l-.726-.2c.066-.243.134-.485.203-.726zm-.397 1.456.728.191c-.062.24-.123.48-.182.721l-.731-.182c.06-.243.122-.487.185-.73zm-.36 1.463c-.057.245-.113.49-.167.736l.735.163c.054-.243.108-.485.165-.727l-.733-.172zm-.324 1.475.737.154c-.05.242-.099.485-.146.729l-.739-.145c.048-.246.097-.492.148-.738zm-.287 1.479.741.135c-.044.244-.087.489-.128.734l-.742-.126c.042-.248.085-.496.129-.743zm-.25 1.489.744.117c-.038.245-.075.49-.11.735l-.745-.107c.036-.249.073-.497.111-.745zm-.212 1.491.746.098a59.78 59.78 0 0 0-.091.74l-.748-.089c.03-.25.061-.5.093-.749zm-.176 1.501.748.079c-.025.246-.05.493-.072.74l-.75-.07c.023-.25.048-.5.074-.749zm-.138 1.499.75.061c-.02.247-.038.495-.055.743l-.751-.051c.017-.251.036-.502.056-.753zm-.102 1.508.752.042c-.014.247-.026.495-.037.743l-.752-.033c.011-.251.023-.502.037-.752zm-.064 1.504.752.024c-.008.247-.014.496-.018.744l-.753-.013c.005-.252.011-.504.019-.755zm-.028 1.511-.001.379.001.379.753-.004-.001-.375.001-.374-.753-.005zm.009 1.515.753-.014c.004.248.01.497.018.745l-.752.023a63.23 63.23 0 0 1-.019-.754zm.046 1.506.752-.033c.011.248.023.496.037.744l-.752.041c-.014-.25-.026-.501-.037-.752zm.083 1.507.751-.051c.017.248.035.496.055.744l-.75.06c-.02-.25-.039-.501-.056-.753zm.12 1.503.75-.07c.022.247.047.494.072.74l-.748.079a61.232 61.232 0 0 1-.074-.749zm.157 1.501.748-.088c.029.247.059.493.091.739l-.746.098a90.079 90.079 0 0 1-.093-.749zm.194 1.495.745-.107c.035.246.072.491.11.735l-.744.117a88.974 88.974 0 0 1-.111-.745zm.232 1.491.742-.126c.041.246.084.49.128.735l-.741.135c-.044-.248-.088-.495-.129-.744zm.268 1.484.739-.145c.047.244.096.487.146.729l-.737.154c-.051-.245-.1-.491-.148-.738zm.305 1.477.735-.163c.054.243.108.485.165.727l-.733.172a56.37 56.37 0 0 1-.167-.736zm.342 1.469.731-.182c.059.241.12.481.182.721l-.728.191a59.943 59.943 0 0 1-.185-.73zm.379 1.46.726-.2c.065.24.132.479.2.717l-.723.21a60.13 60.13 0 0 1-.203-.727zm.415 1.449.72-.218c.071.238.144.475.218.711l-.718.227a54.709 54.709 0 0 1-.22-.72zm.451 1.44.715-.237c.077.236.156.472.236.707l-.712.245a59.91 59.91 0 0 1-.239-.715zm.487 1.426c.084.237.169.473.256.708l.706-.263a52.638 52.638 0 0 1-.254-.699l-.708.254zm.522 1.415.702-.272c.089.232.18.463.271.693l-.698.281a53.786 53.786 0 0 1-.275-.702zm.558 1.4.695-.29c.094.23.191.458.288.686l-.692.299a84.82 84.82 0 0 1-.291-.695zm.592 1.386.688-.307c.1.227.202.454.305.679l-.684.316a71.717 71.717 0 0 1-.309-.688zm.627 1.371.68-.325c.106.225.213.448.322.671l-.676.333c-.11-.226-.219-.452-.326-.679zm.661 1.355.671-.342c.112.222.225.443.339.663l-.667.35c-.116-.223-.23-.447-.343-.671zm.694 1.337.663-.358c.117.218.235.436.355.654l-.658.366c-.122-.22-.242-.441-.36-.662zm.728 1.32.653-.375c.123.216.247.431.372.645l-.65.383a84.67 84.67 0 0 1-.375-.653zm.759 1.3c.13.216.26.43.392.644l.64-.399c-.131-.211-.26-.423-.388-.636l-.644.391zm.793 1.282.634-.406c.133.209.267.417.403.625l-.63.415a61.734 61.734 0 0 1-.407-.634zm.823 1.261c.14.209.281.417.423.624l.619-.431c-.141-.204-.28-.409-.418-.615l-.624.422zm.855 1.241.613-.438c.143.202.287.404.433.604l-.608.446a52.392 52.392 0 0 1-.438-.612zm.884 1.218.603-.453c.148.199.297.397.448.594l-.597.461c-.152-.2-.304-.4-.454-.602zm.915 1.197.591-.468c.153.195.307.389.463.582l-.585.475a52.596 52.596 0 0 1-.469-.589zm.944 1.173.579-.483c.158.191.317.381.477.57l-.573.49a66.992 66.992 0 0 1-.483-.577zm.973 1.149.567-.497c.163.187.326.373.491.558l-.561.504a52.819 52.819 0 0 1-.497-.565zm1.001 1.124c.169.186.339.37.51.553l.549-.518c-.17-.181-.338-.363-.505-.546l-.554.511zm1.028 1.1.542-.525c.171.179.344.357.517.533l-.535.532a53.226 53.226 0 0 1-.524-.54zm1.055 1.073.529-.538c.175.174.352.348.53.52l-.522.545c-.18-.175-.359-.35-.537-.527zm1.081 1.047.515-.551c.18.17.362.339.544.507l-.509.557c-.184-.17-.368-.341-.55-.513zm1.107 1.019.501-.564c.184.166.37.33.556.494l-.495.569a52.722 52.722 0 0 1-.562-.499zm1.131.992.488-.576c.188.161.377.32.567.479l-.48.582a66.927 66.927 0 0 1-.575-.485zm1.155.963.474-.588c.192.156.385.311.579.465l-.466.593a52.477 52.477 0 0 1-.587-.47zm1.179.934.459-.6c.196.152.393.302.591.451l-.451.605c-.201-.151-.4-.303-.599-.456zm1.202.904.444-.611c.199.146.4.292.601.435l-.436.617a67.477 67.477 0 0 1-.609-.441zm1.224.874.428-.622c.203.142.407.282.613.421l-.421.627a67.827 67.827 0 0 1-.62-.426zm1.245.843.412-.632c.207.136.414.271.623.405l-.405.637a52.238 52.238 0 0 1-.63-.41zm1.265.812.397-.642c.21.131.421.26.633.389l-.389.647c-.215-.13-.428-.261-.641-.394zm1.285.78.381-.652c.213.125.427.249.642.372l-.373.657c-.218-.124-.434-.25-.65-.377zm1.304.747.365-.661c.216.12.433.239.651.357l-.356.666c-.221-.12-.441-.24-.66-.362zm1.322.714.348-.67c.219.115.439.228.66.34l-.34.675c-.223-.114-.446-.228-.668-.345zm1.341.681.331-.679c.222.11.444.218.667.324l-.322.683a52.683 52.683 0 0 1-.676-.328zm1.355.647.314-.687c.225.104.45.206.676.307l-.306.691a52.882 52.882 0 0 1-.684-.311zm1.373.613.297-.695c.227.098.454.195.682.29l-.288.698a59.568 59.568 0 0 1-.691-.293zm1.386.578.279-.702c.23.092.46.182.69.272l-.271.705c-.233-.09-.466-.182-.698-.275zm1.401.543.262-.709c.232.086.464.171.696.254l-.253.713-.705-.258zm1.413.507.244-.716c.234.081.468.16.703.237l-.235.719a84.972 84.972 0 0 1-.712-.24zm1.428.471.226-.721c.235.074.471.147.707.219l-.217.724a45.501 45.501 0 0 1-.716-.222zm1.436.435.208-.727c.237.069.475.136.714.202l-.199.729a76.223 76.223 0 0 1-.723-.204zm1.449.399.19-.732c.239.063.478.124.717.183l-.18.735a85.89 85.89 0 0 1-.727-.186zm1.456.362.171-.737c.241.057.482.112.723.166l-.162.738c-.245-.054-.489-.11-.732-.167zm1.468.325.153-.74c.241.05.483.099.725.146l-.144.743a59.57 59.57 0 0 1-.734-.149zm1.471.288.135-.744c.243.044.486.087.73.129l-.125.745a60.16 60.16 0 0 1-.74-.13zm1.483.251.116-.747c.243.038.487.075.731.11l-.106.749a57.335 57.335 0 0 1-.741-.112zm1.483.214.098-.75c.245.032.49.063.736.092l-.088.751c-.249-.03-.498-.061-.746-.093zm1.494.177.079-.753c.245.026.49.051.736.074l-.069.753c-.249-.024-.498-.048-.746-.074zm1.492.138c.249.021.499.039.749.056l.051-.754a88.727 88.727 0 0 1-.74-.055l-.06.753zm1.5.103.042-.756c.246.014.493.026.74.037l-.033.756c-.25-.011-.499-.024-.749-.037zm1.497.064.024-.756c.246.008.493.014.741.019l-.014.756a62.203 62.203 0 0 1-.751-.019zm1.504.028.004-.756.373.001.373-.001.004.756-.377.001-.377-.001zm1.507-.009-.014-.756c.248-.005.495-.011.742-.019l.023.756c-.25.008-.5.014-.751.019zm1.499-.046-.032-.756c.247-.011.493-.023.739-.037l.042.756a91.58 91.58 0 0 1-.749.037zm1.5-.084-.05-.754c.247-.017.493-.036.739-.055l.06.753c-.249.021-.499.039-.749.056zm1.496-.12-.07-.753c.246-.023.492-.048.737-.074l.078.753c-.248.026-.496.05-.745.074zm1.494-.158-.088-.751c.245-.029.491-.06.736-.092l.097.75c-.248.032-.496.063-.745.093zm1.487-.195-.106-.749c.244-.035.488-.072.732-.11l.116.747c-.247.039-.494.076-.742.112zm1.484-.233-.125-.745c.244-.042.488-.085.731-.129l.134.744c-.246.045-.492.088-.74.13zm1.477-.269-.144-.743c.242-.047.484-.096.726-.146l.153.74c-.245.051-.49.101-.735.149zm1.47-.307-.162-.738c.242-.054.483-.109.723-.166l.172.737c-.244.057-.488.113-.733.167zm1.462-.343-.181-.735c.24-.059.479-.12.717-.183l.19.732c-.241.063-.484.125-.726.186zm1.453-.381-.199-.729c.238-.066.476-.133.714-.202l.208.727a97.73 97.73 0 0 1-.723.204zm1.442-.417-.217-.724.708-.219.226.721c-.239.076-.477.15-.717.222zm1.432-.453-.235-.719c.235-.077.469-.156.703-.237l.244.716c-.236.081-.474.161-.712.24zm1.42-.489-.253-.713c.233-.083.465-.168.696-.254l.262.709c-.234.087-.469.173-.705.258zm1.408-.526c.234-.09.466-.182.699-.275l-.28-.702c-.229.092-.459.182-.69.272l.271.705zm1.393-.56-.288-.698c.228-.095.456-.192.683-.29l.297.695c-.23.099-.461.197-.692.293zm1.38-.595-.306-.691c.226-.101.452-.203.676-.307l.314.687c-.227.105-.455.209-.684.311zm1.364-.63-.323-.683c.223-.106.446-.214.668-.324l.331.68c-.225.11-.45.219-.676.327zm1.348-.664-.339-.675c.22-.112.44-.225.659-.34l.348.67c-.222.117-.444.231-.668.345zm1.331-.697-.357-.666c.218-.118.435-.237.651-.357l.365.661c-.219.122-.439.242-.659.362zm1.314-.732-.373-.657c.214-.123.428-.247.641-.372l.381.652a52.18 52.18 0 0 1-.649.377zm1.294-.763-.389-.647c.211-.129.422-.258.632-.389l.397.642c-.212.133-.426.264-.64.394zm27.549-37.992-.733-.172c.056-.242.111-.484.164-.726l.735.163c-.054.245-.109.491-.166.735zm.324-1.475-.737-.153c.05-.243.099-.486.146-.729l.738.144c-.047.247-.097.493-.147.738zm.286-1.478-.741-.135c.045-.245.087-.489.128-.734l.743.125c-.042.249-.085.496-.13.744zm.25-1.49-.743-.117c.037-.244.074-.489.109-.735l.745.107c-.035.249-.072.497-.111.745zm.213-1.491-.747-.098c.032-.246.063-.492.092-.739l.747.088c-.029.25-.06.5-.092.749z" fill="#00C1FE"/><path d="m152.5 197 4 4.5-1 2-6.5 4.5-3.5 5-1.5 7 1.5 3c8.667.333 26.1 1.1 26.5 1.5.4.4 10.167-1.5 15-2.5v-4.5l-4.5-9.5-5.5-3-2.5-1.5 3.5-6.5 3-8h3l-1-3.5V182l-3-1-2-4.5-3.5-4.5-4.5-3h-5l-4.5 1-5 3-3 4.5-1.5 4.5h-2.5v5.5l1.5 1.5 2.5 8z" fill="#fff"/><mask id="a" fill="#fff"><path fill-rule="evenodd" clip-rule="evenodd" d="M179.531 187.673h-27.159c.328 8.712 6.282 15.654 13.58 15.654 7.297 0 13.251-6.942 13.579-15.654z"/></mask><path d="m179.531 187.673 1.999.075.078-2.075h-2.077v2zm-27.159 0v-2h-2.076l.078 2.075 1.998-.075zm27.159-2h-27.159v4h27.159v-4zm-13.579 15.654c-5.901 0-11.28-5.738-11.581-13.729l-3.997.15c.355 9.433 6.883 17.579 15.578 17.579v-4zm11.581-13.729c-.301 7.991-5.681 13.729-11.581 13.729v4c8.694 0 15.223-8.146 15.578-17.579l-3.997-.15z" fill="#003E6E" fill-opacity=".5" mask="url(#a)"/><path fill-rule="evenodd" clip-rule="evenodd" d="M179.298 183c-1.301-7.426-6.761-13-13.3-13-6.539 0-11.999 5.574-13.3 13h2.03c1.267-6.536 6.066-11 11.27-11s10.003 4.464 11.27 11h2.03z" fill="#003E6E" fill-opacity=".5"/><path fill="#fff" d="M150 183h32v3h-32z"/><path stroke="#003E6E" stroke-opacity=".5" d="M150.5 183.5h31v2h-31z"/><path d="m159.871 216-.937.938 2.062 2.888a.938.938 0 0 0 .764.393h.066a.942.942 0 0 1 .664.275l2.507 2.507-2.453 2.488a2.82 2.82 0 0 0-3.312 1.439 2.81 2.81 0 0 0 4.881 2.774 2.803 2.803 0 0 0 .331-2.312l2.488-2.454.908.908-.286.857a.935.935 0 0 0 .227.959l3.146 3.146a.937.937 0 0 0 1.326 0l1.487-1.487a.94.94 0 0 0 0-1.325l-3.147-3.147a.937.937 0 0 0-.959-.227l-.857.286-.9-.9 2.513-2.477a2.825 2.825 0 0 0 2.44-.486c.343-.263.62-.6.811-.987a2.81 2.81 0 0 0 .197-1.972l-2.006 2.007-1.648-.341-.342-1.647 2.008-2.007a2.805 2.805 0 0 0-2.721.728 2.814 2.814 0 0 0-.725 2.722l-2.475 2.51-2.502-2.5a.937.937 0 0 1-.275-.663v-.066a.924.924 0 0 0-.104-.429.929.929 0 0 0-.288-.334L159.871 216zm9.043 9.981a.457.457 0 0 1 .332-.138.463.463 0 0 1 .332.138l2.812 2.812a.467.467 0 0 1-.331.801.462.462 0 0 1-.332-.137l-2.813-2.813a.478.478 0 0 1-.102-.152.48.48 0 0 1 0-.359.478.478 0 0 1 .102-.152zm-7.168.332.442.226.496.025.269.417.417.269.024.496.227.442-.227.441-.024.496-.417.269-.269.417-.496.025-.442.227-.441-.227-.496-.025-.269-.417-.418-.269-.024-.496-.227-.441.227-.442.024-.496.418-.269.269-.417.496-.025.441-.226z" fill="#003E6E" fill-opacity=".5"/><path stroke="#003E6E" stroke-opacity=".5" d="m161.433 174.75 3.5 6.062M166.567 180.812l3.5-6.062"/><path fill-rule="evenodd" clip-rule="evenodd" d="M170.848 215a14.446 14.446 0 0 0-2.169-3.453l1.314-1.537a16.695 16.695 0 0 1 3.014 4.99h-2.159zm-8.83 0a14.622 14.622 0 0 1 1.696-2.865l-1.324-1.55a16.856 16.856 0 0 0-2.531 4.415h2.159zM158 219h-9.795c1.075-6.64 5.932-11.375 11.428-11.642l-1.572-1.838c-6.053 1.026-10.86 6.504-11.877 13.48a19.245 19.245 0 0 0-.184 2h12v-2zm17 2h11.866a18.713 18.713 0 0 0-.184-2c-1.065-7.309-6.292-12.975-12.753-13.597l-1.67 1.955c.161-.008.323-.011.486-.011 5.694 0 10.81 4.817 11.916 11.653H175v2z" fill="#003E6E" fill-opacity=".5"/><path fill-rule="evenodd" clip-rule="evenodd" d="M157.255 195.999a48.897 48.897 0 0 1-1.483-2.59c-.521-.974-.104-2.171.89-2.653.994-.482 2.189-.066 2.713.906.39.725.831 1.504 1.282 2.233a19.22 19.22 0 0 0 1.226 1.789c.31.389.495.555.551.605.021.019.024.021.008.013l1.22.634c.98.51 1.355 1.719.841 2.697a2.008 2.008 0 0 1-2.704.843l-1.197-.622c-.757-.393-1.395-1.109-1.849-1.68a23.042 23.042 0 0 1-1.498-2.175zM164.125 181.515a2 2 0 0 1-2.752-.65l-.968-1.565a2 2 0 0 1 3.402-2.104l.968 1.566a2 2 0 0 1-.65 2.753z" fill="#00C1FE" fill-opacity=".3"/></svg>