<svg width="335" height="335" viewBox="0 0 335 335" fill="none" xmlns="http://www.w3.org/2000/svg">
<circle cx="167.5" cy="167.5" r="167.5" fill="#EBF3F8"/>
<line x1="65.5" y1="192" x2="65.5" y2="199" stroke="#00C1FE" stroke-dasharray="1 1"/>
<path fill-rule="evenodd" clip-rule="evenodd" d="M81.5 207.163C83.433 207.163 85 205.596 85 203.663C85 201.73 83.433 200.163 81.5 200.163C79.567 200.163 78 201.73 78 203.663C78 205.596 79.567 207.163 81.5 207.163ZM81.5 208.163C83.9853 208.163 86 206.148 86 203.663C86 201.178 83.9853 199.163 81.5 199.163C79.0147 199.163 77 201.178 77 203.663C77 206.148 79.0147 208.163 81.5 208.163Z" fill="#76A3D3"/>
<path fill-rule="evenodd" clip-rule="evenodd" d="M53.5 218.163C55.9853 218.163 58 216.148 58 213.663C58 211.178 55.9853 209.163 53.5 209.163C51.0147 209.163 49 211.178 49 213.663C49 216.148 51.0147 218.163 53.5 218.163ZM53.5 219.163C56.5376 219.163 59 216.7 59 213.663C59 210.625 56.5376 208.163 53.5 208.163C50.4624 208.163 48 210.625 48 213.663C48 216.7 50.4624 219.163 53.5 219.163Z" fill="#76A3D3"/>
<path fill-rule="evenodd" clip-rule="evenodd" d="M81 241.163H61C59.1362 241.163 57.5701 242.438 57.126 244.163H84.874C84.4299 242.438 82.8638 241.163 81 241.163ZM85.9 244.163C85.4367 241.881 83.419 240.163 81 240.163H61C58.581 240.163 56.5633 241.881 56.1 244.163C56.0344 244.486 56 244.82 56 245.163H86C86 244.82 85.9656 244.486 85.9 244.163Z" fill="#76A3D3"/>
<path fill-rule="evenodd" clip-rule="evenodd" d="M85 245.163H57V246.163H85V245.163ZM56 244.163V247.163H86V244.163H56Z" fill="#76A3D3"/>
<path fill-rule="evenodd" clip-rule="evenodd" d="M73 231.163C76.3137 231.163 79 228.477 79 225.163C79 221.849 76.3137 219.163 73 219.163C69.6863 219.163 67 221.849 67 225.163C67 228.477 69.6863 231.163 73 231.163ZM73 232.163C76.866 232.163 80 229.029 80 225.163C80 221.297 76.866 218.163 73 218.163C69.134 218.163 66 221.297 66 225.163C66 229.029 69.134 232.163 73 232.163Z" fill="#76A3D3"/>
<path fill-rule="evenodd" clip-rule="evenodd" d="M73 228.163C74.6569 228.163 76 226.82 76 225.163C76 223.506 74.6569 222.163 73 222.163C71.3431 222.163 70 223.506 70 225.163C70 226.82 71.3431 228.163 73 228.163ZM73 229.163C75.2091 229.163 77 227.372 77 225.163C77 222.954 75.2091 221.163 73 221.163C70.7909 221.163 69 222.954 69 225.163C69 227.372 70.7909 229.163 73 229.163Z" fill="#76A3D3"/>
<path fill-rule="evenodd" clip-rule="evenodd" d="M53.5 215.163C54.3284 215.163 55 214.491 55 213.663C55 212.834 54.3284 212.163 53.5 212.163C52.6716 212.163 52 212.834 52 213.663C52 214.491 52.6716 215.163 53.5 215.163ZM53.5 216.163C54.8807 216.163 56 215.044 56 213.663C56 212.282 54.8807 211.163 53.5 211.163C52.1193 211.163 51 212.282 51 213.663C51 215.044 52.1193 216.163 53.5 216.163Z" fill="#76A3D3"/>
<path d="M83 203.663C83 204.491 82.3284 205.163 81.5 205.163C80.6716 205.163 80 204.491 80 203.663C80 202.834 80.6716 202.163 81.5 202.163C82.3284 202.163 83 202.834 83 203.663Z" fill="#76A3D3"/>
<path fill-rule="evenodd" clip-rule="evenodd" d="M77.186 202.378L54.2246 208.21C54.8707 208.295 55.4815 208.492 56.0368 208.782L77.0045 203.456C77.0214 203.083 77.0837 202.722 77.186 202.378ZM66.0001 225.193L54.5406 219.064C55.0022 218.976 55.4433 218.83 55.8561 218.634L66.08 224.101C66.0273 224.447 66 224.802 66 225.163C66 225.173 66 225.183 66.0001 225.193ZM66.2657 227.08L60.7864 240.163H61.8705L66.7947 228.405C66.5755 227.987 66.3973 227.543 66.2657 227.08ZM78.8225 229.05L80.1657 240.163H81.173L79.6316 227.41C79.4333 227.995 79.1598 228.546 78.8225 229.05ZM73.6403 218.192L63.1756 213.155L79.419 207.654C79.0513 207.462 78.7135 207.22 78.4142 206.938L60.5345 212.994L71.5757 218.308C72.0356 218.213 72.5119 218.163 73 218.163C73.2158 218.163 73.4294 218.173 73.6403 218.192Z" fill="#76A3D3"/>
<path fill-rule="evenodd" clip-rule="evenodd" d="M89.8212 199.523C89.2242 198.957 88.3869 198.721 87.5821 198.892L84.9191 199.457C84.5651 199.532 84.2372 199.681 83.9541 199.89C84.2492 200.083 84.5204 200.309 84.7622 200.563C84.8763 200.505 84.9986 200.462 85.1266 200.435L87.7896 199.87C88.2725 199.768 88.7749 199.909 89.1331 200.249L92.0971 203.06C92.2486 203.204 92.2773 203.434 92.1657 203.611C92.0472 203.798 91.8074 203.867 91.6076 203.771L88.6423 202.351C87.8663 201.979 86.9536 202.033 86.2263 202.493L85.897 202.701C85.9645 203.011 86 203.333 86 203.663C86 203.719 85.999 203.774 85.997 203.829C86.0355 203.799 86.0755 203.771 86.1171 203.745L86.7607 203.338C87.1971 203.062 87.7447 203.03 88.2103 203.253L91.1756 204.673C91.8326 204.988 92.6213 204.761 93.0108 204.146C93.3777 203.565 93.2833 202.807 92.7852 202.335L89.8212 199.523ZM84.9286 206.578C84.6407 206.916 84.3037 207.211 83.9286 207.452V208.29C83.9286 209.253 84.4808 210.129 85.3486 210.545L88.0159 211.823C88.2308 211.925 88.3077 212.193 88.1803 212.394C88.095 212.529 87.9376 212.6 87.7803 212.574L83.9748 211.957C83.4295 211.869 82.977 211.488 82.7968 210.966L81.8255 208.151C81.718 208.159 81.6095 208.163 81.5 208.163C81.245 208.163 80.995 208.142 80.7516 208.101C80.7596 208.127 80.768 208.152 80.7769 208.178L81.8515 211.292C82.1518 212.162 82.906 212.797 83.8147 212.945L87.6202 213.561C88.173 213.651 88.726 213.402 89.0254 212.929C89.4728 212.222 89.2027 211.282 88.4479 210.921L85.7806 209.643C85.2599 209.394 84.9286 208.868 84.9286 208.29V206.578Z" fill="#76A3D3"/>
<path fill-rule="evenodd" clip-rule="evenodd" d="M263.227 212H231.227V234H263.227V212ZM229.227 234C229.227 234.187 229.252 234.369 229.301 234.541C229.063 234.763 228.879 235.044 228.771 235.368L226.104 243.368C225.672 244.663 226.636 246 228.002 246H242.695H251.758H266.452C267.817 246 268.781 244.663 268.349 243.368L265.683 235.368C265.575 235.044 265.39 234.763 265.153 234.541C265.201 234.369 265.227 234.187 265.227 234V212C265.227 210.895 264.331 210 263.227 210H231.227C230.122 210 229.227 210.895 229.227 212V234ZM253.758 244H266.452L263.785 236H263.227H231.227H230.668L228.002 244H240.694C240.695 243.864 240.709 243.725 240.739 243.585L241.163 241.585C241.359 240.661 242.175 240 243.119 240H251.333C252.278 240 253.094 240.661 253.29 241.585L253.714 243.585C253.744 243.725 253.758 243.864 253.758 244ZM252.758 244H241.695C241.695 243.932 241.702 243.862 241.717 243.792L242.141 241.792C242.239 241.33 242.647 241 243.119 241H251.333C251.806 241 252.214 241.33 252.312 241.792L252.736 243.792C252.751 243.862 252.758 243.932 252.758 244Z" fill="#76A3D3"/>
<path fill-rule="evenodd" clip-rule="evenodd" d="M254.226 224.833C253.582 224.833 253.06 225.356 253.06 226C253.06 226.644 253.582 227.167 254.226 227.167C254.871 227.167 255.393 226.644 255.393 226C255.393 225.356 254.871 224.833 254.226 224.833ZM251.893 226C251.893 224.711 252.938 223.667 254.226 223.667C255.515 223.667 256.56 224.711 256.56 226C256.56 227.289 255.515 228.333 254.226 228.333C252.938 228.333 251.893 227.289 251.893 226Z" fill="#00C1FE"/>
<path fill-rule="evenodd" clip-rule="evenodd" d="M254.227 220.167C254.072 220.167 253.923 220.228 253.814 220.338C253.705 220.447 253.643 220.595 253.643 220.75V220.851C253.642 221.153 253.553 221.448 253.386 221.699C253.22 221.95 252.983 222.147 252.706 222.266C252.657 222.287 252.605 222.301 252.552 222.308C252.3 222.397 252.029 222.418 251.765 222.37C251.462 222.315 251.181 222.17 250.96 221.955L250.956 221.95L250.921 221.915C250.867 221.861 250.802 221.817 250.731 221.788C250.66 221.759 250.584 221.744 250.508 221.744C250.431 221.744 250.355 221.759 250.284 221.788C250.214 221.817 250.149 221.861 250.095 221.915L250.095 221.915C250.04 221.969 249.997 222.034 249.968 222.105C249.939 222.175 249.924 222.251 249.924 222.328C249.924 222.405 249.939 222.48 249.968 222.551C249.997 222.622 250.04 222.686 250.095 222.741L250.134 222.78C250.35 223.001 250.495 223.282 250.55 223.586C250.604 223.883 250.57 224.19 250.451 224.469C250.343 224.752 250.153 224.998 249.906 225.175C249.654 225.356 249.353 225.456 249.043 225.463L249.029 225.463H248.977C248.822 225.463 248.673 225.525 248.564 225.634C248.455 225.744 248.393 225.892 248.393 226.047C248.393 226.201 248.455 226.35 248.564 226.459C248.673 226.569 248.822 226.63 248.977 226.63H249.078C249.38 226.631 249.674 226.721 249.925 226.887C250.176 227.053 250.373 227.288 250.491 227.564C250.615 227.846 250.652 228.158 250.597 228.461C250.542 228.765 250.397 229.045 250.181 229.266L250.177 229.271L250.142 229.306C250.087 229.36 250.044 229.425 250.015 229.495C249.985 229.566 249.97 229.642 249.97 229.719C249.97 229.795 249.985 229.871 250.015 229.942C250.044 230.013 250.087 230.077 250.141 230.131L250.142 230.132C250.196 230.186 250.26 230.229 250.331 230.259C250.402 230.288 250.478 230.303 250.554 230.303C250.631 230.303 250.707 230.288 250.778 230.259C250.849 230.229 250.913 230.186 250.967 230.132L251.007 230.092C251.228 229.876 251.508 229.731 251.812 229.676C252.11 229.622 252.417 229.657 252.695 229.776C252.979 229.884 253.225 230.073 253.402 230.321C253.582 230.573 253.682 230.874 253.69 231.184L253.69 231.197V231.25C253.69 231.405 253.751 231.553 253.861 231.662C253.97 231.772 254.119 231.833 254.273 231.833C254.428 231.833 254.576 231.772 254.686 231.662C254.795 231.553 254.857 231.405 254.857 231.25V231.151L254.857 231.149C254.858 230.847 254.947 230.552 255.114 230.301C255.279 230.051 255.515 229.854 255.791 229.735C256.072 229.611 256.385 229.575 256.688 229.63C256.992 229.685 257.272 229.83 257.493 230.045L257.497 230.05L257.532 230.085C257.587 230.139 257.651 230.183 257.722 230.212C257.793 230.241 257.869 230.256 257.945 230.256C258.022 230.256 258.098 230.241 258.169 230.212C258.24 230.183 258.304 230.139 258.358 230.085L258.358 230.085C258.413 230.031 258.456 229.966 258.485 229.895C258.514 229.825 258.53 229.749 258.53 229.672C258.53 229.595 258.514 229.52 258.485 229.449C258.456 229.378 258.413 229.314 258.358 229.259L258.319 229.22C258.103 228.999 257.958 228.718 257.903 228.414C257.848 228.112 257.885 227.799 258.008 227.517C258.127 227.242 258.324 227.006 258.574 226.84C258.826 226.674 259.12 226.585 259.422 226.583L259.424 226.583L259.477 226.583C259.631 226.583 259.78 226.522 259.889 226.412C259.998 226.303 260.06 226.155 260.06 226C260.06 225.845 259.998 225.697 259.889 225.588C259.78 225.478 259.631 225.417 259.477 225.417H259.377L259.375 225.417C259.074 225.415 258.779 225.326 258.528 225.16C258.276 224.993 258.079 224.757 257.96 224.48C257.939 224.43 257.925 224.379 257.918 224.326C257.83 224.074 257.808 223.803 257.856 223.539C257.911 223.235 258.056 222.955 258.272 222.734L258.277 222.729L258.312 222.694C258.366 222.64 258.409 222.575 258.438 222.505C258.468 222.434 258.483 222.358 258.483 222.281C258.483 222.205 258.468 222.129 258.438 222.058C258.409 221.987 258.366 221.923 258.312 221.869L258.311 221.868C258.257 221.814 258.193 221.771 258.122 221.741C258.051 221.712 257.975 221.697 257.899 221.697C257.822 221.697 257.746 221.712 257.675 221.741C257.604 221.771 257.54 221.814 257.486 221.868L257.446 221.908C257.225 222.124 256.945 222.269 256.641 222.324C256.338 222.379 256.026 222.342 255.744 222.218C255.468 222.099 255.233 221.903 255.067 221.652C254.9 221.401 254.811 221.106 254.81 220.805L254.81 220.802V220.75C254.81 220.595 254.748 220.447 254.639 220.338C254.53 220.228 254.381 220.167 254.227 220.167ZM258.543 227.75L259.077 227.986C259.046 228.055 259.037 228.132 259.051 228.206C259.064 228.28 259.099 228.348 259.151 228.402L259.183 228.434C259.183 228.434 259.183 228.434 259.183 228.434C259.346 228.596 259.475 228.79 259.563 229.002C259.651 229.214 259.696 229.442 259.696 229.672C259.696 229.902 259.651 230.13 259.563 230.342C259.475 230.555 259.346 230.748 259.183 230.91L258.771 230.497L259.183 230.91C259.021 231.072 258.828 231.202 258.615 231.29C258.403 231.378 258.175 231.423 257.945 231.423C257.715 231.423 257.488 231.378 257.275 231.29C257.063 231.202 256.87 231.073 256.707 230.91C256.707 230.91 256.707 230.91 256.707 230.91L256.675 230.878C256.621 230.826 256.553 230.791 256.479 230.777C256.405 230.764 256.328 230.773 256.259 230.804L256.253 230.806C256.185 230.835 256.127 230.884 256.086 230.945C256.046 231.007 256.024 231.079 256.023 231.152V231.25C256.023 231.714 255.839 232.159 255.511 232.487C255.182 232.816 254.737 233 254.273 233C253.809 233 253.364 232.816 253.036 232.487C252.708 232.159 252.523 231.714 252.523 231.25V231.206C252.52 231.132 252.496 231.06 252.453 230.999C252.408 230.938 252.347 230.89 252.275 230.864C252.264 230.86 252.252 230.855 252.241 230.85C252.172 230.82 252.095 230.811 252.02 230.824C251.947 230.838 251.878 230.872 251.825 230.924L251.793 230.956C251.793 230.956 251.793 230.956 251.793 230.956C251.63 231.119 251.437 231.248 251.225 231.336C251.012 231.424 250.784 231.47 250.554 231.47C250.325 231.47 250.097 231.424 249.884 231.336C249.672 231.248 249.479 231.119 249.317 230.957C249.154 230.794 249.025 230.601 248.937 230.389C248.849 230.176 248.804 229.949 248.804 229.719C248.804 229.489 248.849 229.261 248.937 229.049C249.025 228.836 249.154 228.643 249.317 228.481L249.349 228.449C249.401 228.395 249.436 228.327 249.449 228.253C249.463 228.178 249.453 228.102 249.423 228.032L249.42 228.026C249.391 227.959 249.343 227.901 249.281 227.86C249.22 227.819 249.148 227.797 249.074 227.797H248.977C248.512 227.797 248.067 227.612 247.739 227.284C247.411 226.956 247.227 226.511 247.227 226.047C247.227 225.583 247.411 225.137 247.739 224.809C248.067 224.481 248.512 224.297 248.977 224.297H249.021C249.095 224.294 249.167 224.269 249.227 224.226C249.289 224.182 249.336 224.12 249.362 224.049C249.367 224.037 249.371 224.026 249.376 224.014C249.407 223.945 249.416 223.868 249.402 223.794C249.389 223.72 249.354 223.652 249.302 223.598L249.27 223.566C249.107 223.404 248.978 223.211 248.89 222.998C248.802 222.786 248.757 222.558 248.757 222.328C248.757 222.098 248.802 221.87 248.89 221.658C248.978 221.445 249.107 221.253 249.27 221.09C249.432 220.927 249.625 220.798 249.838 220.71C250.05 220.622 250.278 220.577 250.508 220.577C250.738 220.577 250.966 220.622 251.178 220.71C251.39 220.798 251.583 220.928 251.746 221.09L251.778 221.122C251.832 221.174 251.9 221.209 251.974 221.223C252.048 221.236 252.125 221.227 252.194 221.196C252.232 221.18 252.271 221.167 252.31 221.159C252.351 221.131 252.386 221.096 252.414 221.055C252.454 220.993 252.476 220.921 252.477 220.848V220.75C252.477 220.286 252.661 219.841 252.989 219.513C253.317 219.184 253.762 219 254.227 219C254.691 219 255.136 219.184 255.464 219.513C255.792 219.841 255.977 220.286 255.977 220.75V220.801C255.977 220.875 255.999 220.947 256.04 221.008C256.08 221.07 256.138 221.118 256.206 221.147L256.212 221.15C256.281 221.18 256.358 221.189 256.433 221.176C256.507 221.162 256.575 221.128 256.629 221.076L256.661 221.044C256.823 220.881 257.016 220.752 257.229 220.664C257.441 220.576 257.669 220.53 257.899 220.53C258.129 220.53 258.356 220.576 258.569 220.664C258.781 220.752 258.974 220.881 259.137 221.044C259.299 221.206 259.428 221.399 259.516 221.611C259.604 221.824 259.65 222.051 259.65 222.281C259.65 222.511 259.604 222.739 259.516 222.951C259.428 223.164 259.299 223.357 259.137 223.519C259.136 223.519 259.137 223.519 259.137 223.519L259.104 223.551C259.052 223.605 259.017 223.673 259.004 223.747C258.991 223.822 259 223.898 259.03 223.968C259.047 224.005 259.059 224.044 259.068 224.084C259.095 224.124 259.131 224.16 259.172 224.187C259.233 224.228 259.305 224.25 259.379 224.25H259.477C259.941 224.25 260.386 224.434 260.714 224.763C261.042 225.091 261.227 225.536 261.227 226C261.227 226.464 261.042 226.909 260.714 227.237C260.386 227.566 259.941 227.75 259.477 227.75H259.426C259.352 227.75 259.28 227.772 259.219 227.813C259.157 227.854 259.109 227.912 259.079 227.98L258.543 227.75Z" fill="#00C1FE"/>
<path fill-rule="evenodd" clip-rule="evenodd" d="M240.727 218.75C240.312 218.75 239.977 219.086 239.977 219.5C239.977 219.914 240.312 220.25 240.727 220.25C241.141 220.25 241.477 219.914 241.477 219.5C241.477 219.086 241.141 218.75 240.727 218.75ZM239.227 219.5C239.227 218.672 239.898 218 240.727 218C241.555 218 242.227 218.672 242.227 219.5C242.227 220.328 241.555 221 240.727 221C239.898 221 239.227 220.328 239.227 219.5Z" fill="#00C1FE"/>
<path fill-rule="evenodd" clip-rule="evenodd" d="M240.727 215.75C240.627 215.75 240.532 215.79 240.461 215.86C240.391 215.93 240.352 216.026 240.352 216.125V216.19C240.351 216.384 240.293 216.573 240.186 216.735C240.079 216.897 239.927 217.023 239.749 217.1C239.718 217.113 239.684 217.122 239.65 217.127C239.488 217.184 239.314 217.197 239.144 217.167C238.949 217.131 238.769 217.038 238.627 216.899L238.624 216.896L238.601 216.874C238.567 216.839 238.525 216.811 238.48 216.792C238.434 216.773 238.385 216.764 238.336 216.764C238.287 216.764 238.238 216.773 238.192 216.792C238.147 216.811 238.105 216.839 238.071 216.874L238.07 216.874C238.035 216.909 238.008 216.95 237.989 216.996C237.97 217.041 237.96 217.09 237.96 217.139C237.96 217.189 237.97 217.237 237.989 217.283C238.008 217.329 238.035 217.37 238.07 217.405L238.096 217.43C238.235 217.572 238.328 217.753 238.363 217.948C238.398 218.139 238.376 218.337 238.299 218.516C238.23 218.698 238.108 218.856 237.949 218.97C237.787 219.086 237.593 219.15 237.394 219.155L237.385 219.155H237.352C237.252 219.155 237.157 219.195 237.086 219.265C237.016 219.335 236.977 219.431 236.977 219.53C236.977 219.629 237.016 219.725 237.086 219.795C237.157 219.865 237.252 219.905 237.352 219.905H237.417C237.611 219.906 237.8 219.963 237.962 220.07C238.123 220.177 238.249 220.328 238.325 220.505C238.405 220.687 238.429 220.887 238.393 221.082C238.358 221.277 238.265 221.458 238.126 221.6L238.123 221.603L238.1 221.625C238.066 221.66 238.038 221.701 238.019 221.747C238 221.793 237.99 221.841 237.99 221.891C237.99 221.94 238 221.989 238.019 222.034C238.038 222.08 238.065 222.121 238.1 222.156L238.101 222.156C238.135 222.191 238.177 222.219 238.222 222.238C238.268 222.257 238.317 222.266 238.366 222.266C238.415 222.266 238.464 222.257 238.51 222.238C238.555 222.219 238.596 222.191 238.631 222.156L238.657 222.131C238.799 221.992 238.979 221.899 239.174 221.863C239.366 221.829 239.563 221.851 239.742 221.927C239.925 221.997 240.083 222.119 240.196 222.278C240.312 222.44 240.377 222.633 240.381 222.832L240.382 222.841V222.875C240.382 222.974 240.421 223.07 240.491 223.14C240.562 223.21 240.657 223.25 240.757 223.25C240.856 223.25 240.951 223.21 241.022 223.14C241.092 223.07 241.132 222.974 241.132 222.875V222.811L241.132 222.81C241.132 222.616 241.19 222.427 241.297 222.265C241.403 222.104 241.555 221.978 241.732 221.901C241.913 221.822 242.114 221.798 242.309 221.833C242.504 221.869 242.684 221.962 242.826 222.101L242.829 222.104L242.852 222.126C242.887 222.161 242.928 222.189 242.974 222.208C243.019 222.227 243.068 222.236 243.117 222.236C243.166 222.236 243.215 222.227 243.261 222.208C243.306 222.189 243.348 222.161 243.383 222.126L243.383 222.126C243.418 222.091 243.445 222.05 243.464 222.004C243.483 221.959 243.493 221.91 243.493 221.861C243.493 221.811 243.483 221.763 243.464 221.717C243.445 221.671 243.418 221.63 243.383 221.595L243.357 221.57C243.218 221.428 243.125 221.247 243.09 221.052C243.055 220.857 243.078 220.657 243.158 220.475C243.234 220.298 243.361 220.147 243.522 220.04C243.683 219.933 243.873 219.876 244.066 219.875L244.068 219.875L244.102 219.875C244.201 219.875 244.296 219.835 244.367 219.765C244.437 219.695 244.477 219.599 244.477 219.5C244.477 219.401 244.437 219.305 244.367 219.235C244.296 219.165 244.201 219.125 244.102 219.125H244.038L244.036 219.125C243.843 219.124 243.653 219.067 243.492 218.96C243.33 218.853 243.203 218.701 243.127 218.523C243.113 218.491 243.104 218.458 243.1 218.424C243.043 218.262 243.029 218.087 243.06 217.918C243.095 217.723 243.188 217.542 243.327 217.4L243.33 217.397L243.353 217.375C243.388 217.34 243.415 217.299 243.434 217.253C243.453 217.207 243.463 217.159 243.463 217.109C243.463 217.06 243.453 217.011 243.434 216.966C243.415 216.92 243.388 216.879 243.353 216.844L243.352 216.844C243.318 216.809 243.276 216.781 243.231 216.762C243.185 216.743 243.136 216.734 243.087 216.734C243.038 216.734 242.989 216.743 242.944 216.762C242.898 216.781 242.857 216.809 242.822 216.844L242.796 216.869C242.654 217.008 242.474 217.101 242.279 217.137C242.084 217.172 241.883 217.148 241.702 217.069C241.525 216.992 241.373 216.866 241.267 216.705C241.16 216.543 241.102 216.354 241.102 216.16L241.102 216.159V216.125C241.102 216.026 241.062 215.93 240.992 215.86C240.921 215.79 240.826 215.75 240.727 215.75ZM243.502 220.625L243.845 220.776C243.825 220.821 243.819 220.87 243.828 220.918C243.836 220.966 243.859 221.009 243.892 221.044L243.913 221.065C243.913 221.065 243.913 221.065 243.913 221.065C244.017 221.169 244.1 221.293 244.157 221.43C244.214 221.566 244.243 221.713 244.243 221.861C244.243 222.008 244.214 222.155 244.157 222.291C244.1 222.428 244.017 222.552 243.913 222.657L243.648 222.391L243.913 222.656C243.809 222.761 243.685 222.844 243.548 222.9C243.411 222.957 243.265 222.986 243.117 222.986C242.969 222.986 242.823 222.957 242.686 222.9C242.55 222.844 242.426 222.761 242.321 222.656C242.321 222.656 242.321 222.656 242.321 222.656L242.301 222.636C242.266 222.602 242.222 222.58 242.175 222.571C242.127 222.563 242.078 222.568 242.033 222.588L242.029 222.59C241.986 222.608 241.948 222.639 241.922 222.679C241.896 222.719 241.882 222.765 241.882 222.812V222.875C241.882 223.173 241.763 223.46 241.552 223.67C241.341 223.881 241.055 224 240.757 224C240.458 224 240.172 223.881 239.961 223.67C239.75 223.46 239.632 223.173 239.632 222.875V222.847C239.63 222.799 239.614 222.753 239.586 222.714C239.558 222.674 239.518 222.644 239.472 222.627C239.465 222.624 239.457 222.621 239.45 222.618C239.406 222.598 239.356 222.593 239.308 222.601C239.261 222.61 239.217 222.632 239.182 222.666L239.162 222.686C239.162 222.686 239.162 222.686 239.162 222.686C239.057 222.791 238.933 222.874 238.797 222.93C238.66 222.987 238.514 223.016 238.366 223.016C238.218 223.016 238.072 222.987 237.935 222.93C237.799 222.874 237.675 222.791 237.57 222.687C237.466 222.582 237.383 222.458 237.326 222.321C237.269 222.185 237.24 222.038 237.24 221.891C237.24 221.743 237.269 221.596 237.326 221.46C237.383 221.323 237.466 221.199 237.57 221.095L237.591 221.074C237.624 221.039 237.647 220.996 237.655 220.948C237.664 220.9 237.658 220.851 237.638 220.806L237.637 220.803C237.618 220.759 237.587 220.722 237.547 220.696C237.508 220.669 237.462 220.655 237.414 220.655H237.352C237.053 220.655 236.767 220.536 236.556 220.325C236.345 220.115 236.227 219.828 236.227 219.53C236.227 219.232 236.345 218.945 236.556 218.735C236.767 218.524 237.053 218.405 237.352 218.405H237.38C237.428 218.403 237.474 218.387 237.513 218.36C237.552 218.331 237.583 218.291 237.6 218.246C237.602 218.238 237.605 218.231 237.608 218.224C237.628 218.179 237.634 218.13 237.625 218.082C237.617 218.034 237.594 217.991 237.561 217.956L237.54 217.935C237.436 217.831 237.353 217.707 237.296 217.57C237.239 217.434 237.21 217.287 237.21 217.139C237.21 216.992 237.239 216.845 237.296 216.709C237.353 216.572 237.436 216.448 237.54 216.344C237.645 216.239 237.769 216.156 237.905 216.1C238.042 216.043 238.188 216.014 238.336 216.014C238.484 216.014 238.63 216.043 238.767 216.1C238.903 216.156 239.027 216.239 239.132 216.344L239.152 216.364C239.187 216.398 239.231 216.42 239.278 216.429C239.326 216.437 239.376 216.432 239.42 216.412C239.444 216.401 239.469 216.393 239.495 216.388C239.521 216.37 239.543 216.347 239.561 216.321C239.587 216.281 239.601 216.235 239.602 216.188V216.125C239.602 215.827 239.72 215.54 239.931 215.33C240.142 215.119 240.428 215 240.727 215C241.025 215 241.311 215.119 241.522 215.33C241.733 215.54 241.852 215.827 241.852 216.125V216.158C241.852 216.205 241.866 216.251 241.892 216.291C241.918 216.331 241.956 216.362 241.999 216.38L242.003 216.382C242.048 216.402 242.097 216.407 242.145 216.399C242.192 216.39 242.236 216.368 242.271 216.334L242.291 216.314C242.396 216.209 242.52 216.126 242.656 216.07C242.793 216.013 242.939 215.984 243.087 215.984C243.235 215.984 243.381 216.013 243.518 216.07C243.655 216.126 243.779 216.209 243.883 216.314C243.988 216.418 244.07 216.542 244.127 216.679C244.184 216.815 244.213 216.962 244.213 217.109C244.213 217.257 244.184 217.404 244.127 217.54C244.07 217.677 243.988 217.801 243.883 217.905C243.883 217.905 243.883 217.905 243.883 217.905L243.862 217.926C243.829 217.961 243.806 218.004 243.798 218.052C243.789 218.1 243.795 218.149 243.815 218.194C243.825 218.218 243.833 218.243 243.839 218.268C243.856 218.294 243.879 218.317 243.906 218.334C243.945 218.361 243.991 218.375 244.039 218.375H244.102C244.4 218.375 244.686 218.494 244.897 218.705C245.108 218.915 245.227 219.202 245.227 219.5C245.227 219.798 245.108 220.085 244.897 220.295C244.686 220.506 244.4 220.625 244.102 220.625H244.069C244.021 220.625 243.975 220.639 243.936 220.666C243.896 220.692 243.865 220.729 243.846 220.773L243.502 220.625Z" fill="#00C1FE"/>
<path d="M57 192L57 201" stroke="#00C1FE" stroke-dasharray="1 1"/>
<path d="M75 192L75 202" stroke="#00C1FE" stroke-dasharray="1 1"/>
<path d="M117 172L117 203" stroke="#00C1FE" stroke-dasharray="1 1"/>
<g style="mix-blend-mode:multiply">
<circle cx="64.6274" cy="225.733" r="2.73291" fill="#75DAFE" fill-opacity="0.8"/>
</g>
<g style="mix-blend-mode:multiply">
<circle cx="43.7329" cy="214.104" r="2.73291" fill="#75DAFE" fill-opacity="0.8"/>
</g>
<path d="M80.6981 203.174C80.3679 203.064 78.2911 201.386 77.2938 200.561C76.6862 200.572 75.3954 200.664 75.0928 200.939" stroke="#00C1FE" stroke-opacity="0.6" stroke-width="2"/>
<path d="M76.3127 212.007C75.2126 211.832 72.9749 211.369 72.825 210.919C72.675 210.469 72.2125 209.182 72 208.594" stroke="#00C1FE" stroke-opacity="0.6" stroke-width="2"/>
<g style="mix-blend-mode:multiply">
<path fill-rule="evenodd" clip-rule="evenodd" d="M71.5 244.061L49.5 243.561L49 241.561H69L70.5 242.561L71.5 244.061Z" fill="#00C1FE" fill-opacity="0.6"/>
</g>
<path fill-rule="evenodd" clip-rule="evenodd" d="M122.5 207C122.776 207 123 206.776 123 206.5C123 206.224 122.776 206 122.5 206C122.224 206 122 206.224 122 206.5C122 206.776 122.224 207 122.5 207ZM124 206.5C124 207.153 123.583 207.709 123 207.915V213H125V211.5C125 211.224 125.224 211 125.5 211C125.776 211 126 211.224 126 211.5V213H128V209.915C127.417 209.709 127 209.153 127 208.5C127 207.672 127.672 207 128.5 207C129.328 207 130 207.672 130 208.5C130 209.153 129.583 209.709 129 209.915V213H131V211.5C131 211.224 131.224 211 131.5 211C131.776 211 132 211.224 132 211.5V213H134C135.105 213 136 213.895 136 215V217H137.5C137.776 217 138 217.224 138 217.5C138 217.776 137.776 218 137.5 218H136V220H137.5C137.776 220 138 220.224 138 220.5C138 220.776 137.776 221 137.5 221H136V223H137.5C137.776 223 138 223.224 138 223.5C138 223.776 137.776 224 137.5 224H136V226H141.085C141.291 225.417 141.847 225 142.5 225C143.328 225 144 225.672 144 226.5C144 227.328 143.328 228 142.5 228C141.847 228 141.291 227.583 141.085 227H136V229H137.5C137.776 229 138 229.224 138 229.5C138 229.776 137.776 230 137.5 230H136V232H137.5C137.776 232 138 232.224 138 232.5C138 232.776 137.776 233 137.5 233H136V235H137.5C137.776 235 138 235.224 138 235.5C138 235.776 137.776 236 137.5 236H136V238C136 239.105 135.105 240 134 240H132V241.5C132 241.776 131.776 242 131.5 242C131.224 242 131 241.776 131 241.5V240H129V243.085C129.583 243.291 130 243.847 130 244.5C130 245.328 129.328 246 128.5 246C127.672 246 127 245.328 127 244.5C127 243.847 127.417 243.291 128 243.085V240H126V241.5C126 241.776 125.776 242 125.5 242C125.224 242 125 241.776 125 241.5V240H123V245.085C123.583 245.291 124 245.847 124 246.5C124 247.328 123.328 248 122.5 248C121.672 248 121 247.328 121 246.5C121 245.847 121.417 245.291 122 245.085V240H120V241.5C120 241.776 119.776 242 119.5 242C119.224 242 119 241.776 119 241.5V240H117V243.085C117.583 243.291 118 243.847 118 244.5C118 245.328 117.328 246 116.5 246C115.672 246 115 245.328 115 244.5C115 243.847 115.417 243.291 116 243.085V240H114V241.5C114 241.776 113.776 242 113.5 242C113.224 242 113 241.776 113 241.5V240H111C109.895 240 109 239.105 109 238V236H107.5C107.224 236 107 235.776 107 235.5C107 235.224 107.224 235 107.5 235H109V233H107.5C107.224 233 107 232.776 107 232.5C107 232.224 107.224 232 107.5 232H109V230H107.5C107.224 230 107 229.776 107 229.5C107 229.224 107.224 229 107.5 229H109V227H103.915C103.709 227.583 103.153 228 102.5 228C101.672 228 101 227.328 101 226.5C101 225.672 101.672 225 102.5 225C103.153 225 103.709 225.417 103.915 226H109V224H107.5C107.224 224 107 223.776 107 223.5C107 223.224 107.224 223 107.5 223H109V221H107.5C107.224 221 107 220.776 107 220.5C107 220.224 107.224 220 107.5 220H109V218H107.5C107.224 218 107 217.776 107 217.5C107 217.224 107.224 217 107.5 217H109V215C109 213.895 109.895 213 111 213H113V211.5C113 211.224 113.224 211 113.5 211C113.776 211 114 211.224 114 211.5V213H116V209.915C115.417 209.709 115 209.153 115 208.5C115 207.672 115.672 207 116.5 207C117.328 207 118 207.672 118 208.5C118 209.153 117.583 209.709 117 209.915V213H119V211.5C119 211.224 119.224 211 119.5 211C119.776 211 120 211.224 120 211.5V213H122V207.915C121.417 207.709 121 207.153 121 206.5C121 205.672 121.672 205 122.5 205C123.328 205 124 205.672 124 206.5ZM103 226.5C103 226.224 102.776 226 102.5 226C102.224 226 102 226.224 102 226.5C102 226.776 102.224 227 102.5 227C102.776 227 103 226.776 103 226.5ZM142 226.5C142 226.776 142.224 227 142.5 227C142.776 227 143 226.776 143 226.5C143 226.224 142.776 226 142.5 226C142.224 226 142 226.224 142 226.5ZM116.5 244C116.224 244 116 244.224 116 244.5C116 244.776 116.224 245 116.5 245C116.776 245 117 244.776 117 244.5C117 244.224 116.776 244 116.5 244ZM122 246.5C122 246.224 122.224 246 122.5 246C122.776 246 123 246.224 123 246.5C123 246.776 122.776 247 122.5 247C122.224 247 122 246.776 122 246.5ZM128.5 244C128.224 244 128 244.224 128 244.5C128 244.776 128.224 245 128.5 245C128.776 245 129 244.776 129 244.5C129 244.224 128.776 244 128.5 244ZM128.5 209C128.776 209 129 208.776 129 208.5C129 208.224 128.776 208 128.5 208C128.224 208 128 208.224 128 208.5C128 208.776 128.224 209 128.5 209ZM116.5 209C116.776 209 117 208.776 117 208.5C117 208.224 116.776 208 116.5 208C116.224 208 116 208.224 116 208.5C116 208.776 116.224 209 116.5 209ZM111 215V238H134V215H111ZM116 217.5C116 217.224 116.224 217 116.5 217H118.5C118.776 217 119 217.224 119 217.5C119 217.776 118.776 218 118.5 218H116.5C116.224 218 116 217.776 116 217.5ZM114 223.5C114 223.776 114.224 224 114.5 224C114.776 224 115 223.776 115 223.5V220.5C115 220.224 114.776 220 114.5 220C114.224 220 114 220.224 114 220.5V223.5ZM130.5 224C130.224 224 130 223.776 130 223.5V220.5C130 220.224 130.224 220 130.5 220C130.776 220 131 220.224 131 220.5V223.5C131 223.776 130.776 224 130.5 224ZM114 232.5C114 232.776 114.224 233 114.5 233C114.776 233 115 232.776 115 232.5V226.5C115 226.224 114.776 226 114.5 226C114.224 226 114 226.224 114 226.5V232.5ZM130.5 233C130.224 233 130 232.776 130 232.5V226.5C130 226.224 130.224 226 130.5 226C130.776 226 131 226.224 131 226.5V232.5C131 232.776 130.776 233 130.5 233ZM124.5 232C124.224 232 124 232.224 124 232.5C124 232.776 124.224 233 124.5 233H128.5C128.776 233 129 232.776 129 232.5C129 232.224 128.776 232 128.5 232H124.5ZM116 235.5C116 235.224 116.224 235 116.5 235H118.5C118.776 235 119 235.224 119 235.5C119 235.776 118.776 236 118.5 236H116.5C116.224 236 116 235.776 116 235.5ZM121.5 217C121.224 217 121 217.224 121 217.5C121 217.776 121.224 218 121.5 218H128.5C128.776 218 129 217.776 129 217.5C129 217.224 128.776 217 128.5 217H121.5ZM121 235.5C121 235.224 121.224 235 121.5 235H128.5C128.776 235 129 235.224 129 235.5C129 235.776 128.776 236 128.5 236H121.5C121.224 236 121 235.776 121 235.5ZM116.5 220C116.224 220 116 220.224 116 220.5C116 220.776 116.224 221 116.5 221H121.5C121.776 221 122 220.776 122 220.5C122 220.224 121.776 220 121.5 220H116.5ZM113 216.5C113 216.776 112.776 217 112.5 217C112.224 217 112 216.776 112 216.5C112 216.224 112.224 216 112.5 216C112.776 216 113 216.224 113 216.5ZM112.5 237C112.776 237 113 236.776 113 236.5C113 236.224 112.776 236 112.5 236C112.224 236 112 236.224 112 236.5C112 236.776 112.224 237 112.5 237ZM133 216.5C133 216.776 132.776 217 132.5 217C132.224 217 132 216.776 132 216.5C132 216.224 132.224 216 132.5 216C132.776 216 133 216.224 133 216.5ZM132.5 237C132.776 237 133 236.776 133 236.5C133 236.224 132.776 236 132.5 236C132.224 236 132 236.224 132 236.5C132 236.776 132.224 237 132.5 237Z" fill="#76A3D3"/>
<circle cx="124.075" cy="206.116" r="1.11646" fill="#75DAFE" fill-opacity="0.8"/>
<circle cx="119.539" cy="208.349" r="1.11646" fill="#75DAFE" fill-opacity="0.8"/>
<circle cx="105.116" cy="227.616" r="1.11646" fill="#75DAFE" fill-opacity="0.8"/>
<circle cx="118.422" cy="245.358" r="1.11646" fill="#75DAFE" fill-opacity="0.8"/>
<circle cx="144.959" cy="227.616" r="1.11646" fill="#75DAFE" fill-opacity="0.8"/>
<path d="M117.917 222.614C117.917 222.232 118.126 221.882 118.462 221.7C119.154 221.328 119.993 221.829 119.993 222.614V228.102L119.598 233.231C119.564 233.669 119.198 234.008 118.759 234.008C118.294 234.008 117.917 233.631 117.917 233.166V222.614Z" fill="#91E1FE"/>
<path d="M131.958 234.008C132.395 234.008 132.784 234.281 132.934 234.691C133.18 235.368 132.679 236.084 131.958 236.084L128.562 236.084L125.335 235.716C124.902 235.666 124.575 235.3 124.575 234.864C124.575 234.391 124.959 234.008 125.432 234.008L131.958 234.008Z" fill="#91E1FE" fill-opacity="0.5"/>
<path d="M120.618 215.495C121.116 215.495 121.544 215.849 121.637 216.338C121.76 216.978 121.27 217.571 120.618 217.571L119.512 217.571C119.373 217.571 119.235 217.556 119.099 217.527L117.91 217.269C117.497 217.18 117.202 216.815 117.202 216.392C117.202 215.897 117.604 215.495 118.099 215.495L120.618 215.495Z" fill="#91E1FE" fill-opacity="0.5"/>
<path d="M194.367 108V103.805C197.141 103.805 199.92 98.2124 197.143 91.2213C194.365 84.2301 191.123 85.1623 188.808 85.6283C187.882 82.8319 184.694 82.1084 180.478 84.23C174.92 87.0263 176.31 90.7551 177.698 92.6193C175.384 96.814 175.983 103.805 179.091 103.805C181.864 103.805 184.182 103.805 183.255 103.805V108" stroke="#C8DBED"/>
<path d="M236.367 108V103.805C239.141 103.805 241.92 98.2124 239.143 91.2213C236.365 84.2301 233.123 85.1623 230.808 85.6283C229.882 82.8319 226.694 82.1084 222.478 84.23C216.92 87.0263 218.31 90.7551 219.698 92.6193C217.384 96.814 217.983 103.805 221.091 103.805C223.864 103.805 226.182 103.805 225.255 103.805V108" stroke="#C8DBED"/>
<path d="M278.367 108V103.805C281.141 103.805 283.92 98.2124 281.143 91.2213C278.365 84.2301 275.123 85.1623 272.808 85.6283C271.882 82.8319 268.694 82.1084 264.478 84.23C258.92 87.0263 260.31 90.7551 261.698 92.6193C259.384 96.814 259.983 103.805 263.091 103.805C265.864 103.805 268.182 103.805 267.255 103.805V108" stroke="#C8DBED"/>
<rect x="187.793" y="173.5" width="4" height="2" rx="1" stroke="#C8DBED"/>
<rect x="179.5" y="173.5" width="4" height="2" rx="1" stroke="#C8DBED"/>
<rect x="198.793" y="173.5" width="5" height="2" rx="1" stroke="#C8DBED"/>
<rect x="198.793" y="181.5" width="5" height="2" rx="1" stroke="#C8DBED"/>
<rect x="187.793" y="181.5" width="4" height="2" rx="1" stroke="#C8DBED"/>
<rect x="179.5" y="181.5" width="4" height="2" rx="1" stroke="#C8DBED"/>
<rect x="271.793" y="181.5" width="5" height="2" rx="1" stroke="#C8DBED"/>
<rect x="271.793" y="173.5" width="5" height="2" rx="1" stroke="#C8DBED"/>
<rect x="260.793" y="173.5" width="5" height="2" rx="1" stroke="#C8DBED"/>
<rect x="260.793" y="181.5" width="5" height="2" rx="1" stroke="#C8DBED"/>
<path fill-rule="evenodd" clip-rule="evenodd" d="M244 150C244 148.895 243.105 148 242 148H219C217.895 148 217 148.895 217 150V162C217 163.657 215.657 165 214 165H205C203.343 165 202 163.657 202 162V150C202 148.895 201.105 148 200 148H173C171.895 148 171 148.895 171 150V199C171 200.105 171.895 201 173 201H287C288.105 201 289 200.105 289 199V150C289 148.895 288.105 148 287 148H261C259.895 148 259 148.895 259 150V162C259 163.657 257.657 165 256 165H247C245.343 165 244 163.657 244 162V150ZM244 146H245C245.552 146 246 146.448 246 147V162C246 162.552 246.448 163 247 163H256C256.552 163 257 162.552 257 162V147C257 146.448 257.448 146 258 146H259H289C290.105 146 291 146.895 291 148V201C291 202.105 290.105 203 289 203H171C169.895 203 169 202.105 169 201V148C169 146.895 169.895 146 171 146H202H203C203.552 146 204 146.448 204 147V162C204 162.552 204.448 163 205 163H214C214.552 163 215 162.552 215 162V147C215 146.448 215.448 146 216 146H217H244Z" fill="#C8DBED"/>
<path fill-rule="evenodd" clip-rule="evenodd" d="M180.34 147C180.859 147 181.292 146.603 181.337 146.086L183.961 115.827C184.051 114.793 184.916 114 185.954 114H190.046C191.084 114 191.949 114.793 192.039 115.827L194.663 146.086C194.708 146.603 195.141 147 195.659 147C196.246 147 196.706 146.498 196.656 145.914L193.873 113.827C193.783 112.793 192.918 112 191.88 112H184.12C183.082 112 182.217 112.793 182.127 113.827L179.344 145.914C179.293 146.498 179.754 147 180.34 147ZM280.659 147C281.246 147 281.706 146.498 281.656 145.914L278.873 113.827C278.783 112.793 277.918 112 276.88 112H269.12C268.082 112 267.217 112.793 267.127 113.827L264.344 145.914C264.293 146.498 264.754 147 265.34 147C265.859 147 266.292 146.603 266.337 146.086L268.961 115.827C269.051 114.793 269.916 114 270.954 114H275.046C276.084 114 276.949 114.793 277.039 115.827L279.663 146.086C279.708 146.603 280.141 147 280.659 147ZM237.727 147C238.311 147 238.771 146.501 238.723 145.918L236.08 113.836C235.994 112.798 235.127 112 234.087 112H226.913C225.872 112 225.006 112.798 224.92 113.836L222.277 145.918C222.229 146.501 222.689 147 223.273 147C223.794 147 224.227 146.601 224.27 146.082L226.762 115.836C226.848 114.798 227.714 114 228.755 114H232.245C233.285 114 234.152 114.798 234.238 115.836L236.73 146.082C236.773 146.601 237.206 147 237.727 147Z" fill="#C8DBED"/>
<rect x="225.5" y="190.5" width="10" height="12" rx="1.5" stroke="#C8DBED"/>
<path d="M173.872 151.315C180.965 150.813 195.539 150.111 197.086 151.315C198.634 152.519 199.021 159.699 199.021 163.138" stroke="#00C1FE" stroke-opacity="0.3" stroke-width="6"/>
<path d="M218.583 151.177C225.305 150.676 239.116 149.974 240.583 151.177C242.05 152.381 242.417 159.561 242.417 163" stroke="#00C1FE" stroke-opacity="0.3" stroke-width="6"/>
<path d="M262.376 151.177C269.098 150.676 282.909 149.974 284.376 151.177C285.843 152.381 286.209 159.561 286.209 163" stroke="#00C1FE" stroke-opacity="0.3" stroke-width="6"/>
<path d="M186.112 106.967L185.72 98.7746C184.131 100.294 180.746 102.422 179.917 98.7746C179.088 95.127 179.963 94.1857 180.308 92.873" stroke="#00C1FE" stroke-opacity="0.2" stroke-width="4"/>
<path d="M228.271 106.967L227.879 98.7746C226.29 100.294 222.905 102.422 222.076 98.7746C221.247 95.127 222.122 94.1857 222.467 92.873" stroke="#00C1FE" stroke-opacity="0.2" stroke-width="4"/>
<path d="M270.43 106.967L270.038 98.7746C268.449 100.294 265.064 102.422 264.235 98.7746C263.406 95.127 264.281 94.1857 264.627 92.873" stroke="#00C1FE" stroke-opacity="0.2" stroke-width="4"/>
<g style="mix-blend-mode:multiply">
<rect x="178.576" y="172.561" width="22" height="3" rx="1.5" fill="#00C1FE" fill-opacity="0.41"/>
</g>
<g style="mix-blend-mode:multiply">
<rect x="199.576" y="182.561" width="11" height="3" rx="1.5" fill="#00C1FE" fill-opacity="0.41"/>
</g>
<g style="mix-blend-mode:multiply">
<rect x="272.576" y="174.561" width="11" height="3" rx="1.5" fill="#00C1FE" fill-opacity="0.41"/>
</g>
<g style="mix-blend-mode:multiply">
<rect x="258.576" y="181.561" width="8" height="3" rx="1.5" fill="#00C1FE" fill-opacity="0.41"/>
</g>
<g style="mix-blend-mode:multiply">
<rect x="228.576" y="191.561" width="8" height="10" rx="2" fill="#00C1FE" fill-opacity="0.41"/>
</g>
<rect x="53" y="141" width="26" height="49" rx="2" stroke="#76A3D3" stroke-width="2"/>
<rect x="58.5" y="144.5" width="6" height="2" rx="1" transform="rotate(90 58.5 144.5)" stroke="#76A3D3"/>
<rect x="59.7437" y="144" width="7" height="2.24365" rx="1.12183" transform="rotate(90 59.7437 144)" fill="#00C1FE" fill-opacity="0.5"/>
<rect x="67.7437" y="144" width="7" height="2.24365" rx="1.12183" transform="rotate(90 67.7437 144)" fill="#00C1FE" fill-opacity="0.5"/>
<rect x="63.7437" y="156" width="7" height="2.24365" rx="1.12183" transform="rotate(90 63.7437 156)" fill="#00C1FE" fill-opacity="0.5"/>
<rect x="59.7437" y="168" width="7" height="2.24365" rx="1.12183" transform="rotate(90 59.7437 168)" fill="#00C1FE" fill-opacity="0.5"/>
<rect x="64.1216" y="168" width="7" height="2.24365" rx="1.12183" transform="rotate(90 64.1216 168)" fill="#00C1FE" fill-opacity="0.5"/>
<rect x="67.7437" y="180" width="7" height="2.24365" rx="1.12183" transform="rotate(90 67.7437 180)" fill="#00C1FE" fill-opacity="0.5"/>
<rect x="60.1221" y="180" width="7" height="2.24365" rx="1.12183" transform="rotate(90 60.1221 180)" fill="#00C1FE" fill-opacity="0.5"/>
<rect x="58.5" y="156.5" width="6" height="2" rx="1" transform="rotate(90 58.5 156.5)" stroke="#76A3D3"/>
<rect x="58.5" y="168.5" width="6" height="2" rx="1" transform="rotate(90 58.5 168.5)" stroke="#76A3D3"/>
<rect x="58.5" y="180.5" width="6" height="2" rx="1" transform="rotate(90 58.5 180.5)" stroke="#76A3D3"/>
<rect x="62.5" y="144.5" width="6" height="2" rx="1" transform="rotate(90 62.5 144.5)" stroke="#76A3D3"/>
<rect x="62.5" y="156.5" width="6" height="2" rx="1" transform="rotate(90 62.5 156.5)" stroke="#76A3D3"/>
<rect x="62.5" y="168.5" width="6" height="2" rx="1" transform="rotate(90 62.5 168.5)" stroke="#76A3D3"/>
<rect x="62.5" y="180.5" width="6" height="2" rx="1" transform="rotate(90 62.5 180.5)" stroke="#76A3D3"/>
<rect x="66.5" y="144.5" width="6" height="2" rx="1" transform="rotate(90 66.5 144.5)" stroke="#76A3D3"/>
<rect x="66.5" y="156.5" width="6" height="2" rx="1" transform="rotate(90 66.5 156.5)" stroke="#76A3D3"/>
<rect x="66.5" y="168.5" width="6" height="2" rx="1" transform="rotate(90 66.5 168.5)" stroke="#76A3D3"/>
<rect x="66.5" y="180.5" width="6" height="2" rx="1" transform="rotate(90 66.5 180.5)" stroke="#76A3D3"/>
<rect x="75.5" y="148.5" width="2" height="2" rx="1" transform="rotate(90 75.5 148.5)" stroke="#76A3D3"/>
<rect x="75.5" y="160.5" width="2" height="2" rx="1" transform="rotate(90 75.5 160.5)" stroke="#76A3D3"/>
<rect x="75.5" y="172.5" width="2" height="2" rx="1" transform="rotate(90 75.5 172.5)" stroke="#76A3D3"/>
<rect x="75.5" y="184.5" width="2" height="2" rx="1" transform="rotate(90 75.5 184.5)" stroke="#76A3D3"/>
<line x1="53" y1="153.5" x2="79" y2="153.5" stroke="#76A3D3"/>
<line x1="53" y1="165.5" x2="79" y2="165.5" stroke="#76A3D3"/>
<line x1="53" y1="177.5" x2="79" y2="177.5" stroke="#76A3D3"/>
<g style="mix-blend-mode:multiply">
<circle cx="117.991" cy="164" r="3.99121" fill="#89DFFF"/>
</g>
<circle cx="117" cy="164" r="5" stroke="#003E6E" stroke-opacity="0.5" stroke-width="2"/>
<line x1="123" y1="164.5" x2="145" y2="164.5" stroke="#00C1FE" stroke-dasharray="1 1"/>
<line x1="84" y1="164.5" x2="111" y2="164.5" stroke="#00C1FE" stroke-dasharray="1 1"/>
<line x1="117.5" y1="146" x2="117.5" y2="158" stroke="#00C1FE" stroke-dasharray="1 1"/>
<rect width="26" height="48" transform="translate(104 98.2344)" fill="white"/>
<rect x="104" y="98.2344" width="26" height="48" rx="2" stroke="#003E6E" stroke-opacity="0.5" stroke-width="2"/>
<rect x="110" y="104.734" width="14" height="3" rx="1.5" fill="#96E5FE"/>
<circle cx="117" cy="135.234" r="2.5" stroke="white"/>
<g style="mix-blend-mode:multiply">
<circle cx="117.881" cy="134.236" r="2.49121" fill="#89DFFF"/>
</g>
<rect x="110.881" y="111.484" width="14" height="3" rx="1.5" fill="#96E5FE"/>
<rect x="109.217" y="119.234" width="14" height="3" rx="1.5" fill="#96E5FE"/>
<rect x="110.5" y="106.734" width="13" height="2" rx="1" stroke="#80A9D6"/>
<rect x="110.5" y="112.734" width="13" height="2" rx="1" stroke="#80A9D6"/>
<rect x="110.5" y="118.734" width="13" height="2" rx="1" stroke="#80A9D6"/>
<path fill-rule="evenodd" clip-rule="evenodd" d="M167.795 148.911L168.275 149.493C168.085 149.652 167.896 149.812 167.708 149.973L167.22 149.397C167.411 149.234 167.602 149.072 167.795 148.911ZM166.651 149.889L167.146 150.459C166.96 150.622 166.774 150.786 166.59 150.952L166.089 150.388C166.275 150.221 166.463 150.054 166.651 149.889ZM165.532 150.894C165.348 151.064 165.164 151.235 164.982 151.408L165.497 151.959C165.677 151.789 165.859 151.62 166.041 151.452L165.532 150.894ZM164.438 151.928L164.96 152.472C164.782 152.645 164.605 152.818 164.43 152.992L163.901 152.454C164.079 152.278 164.258 152.102 164.438 151.928ZM163.37 152.988L163.905 153.519C163.732 153.696 163.559 153.874 163.388 154.052L162.846 153.528C163.019 153.347 163.194 153.167 163.37 152.988ZM162.328 154.074L162.877 154.592C162.707 154.773 162.539 154.955 162.372 155.138L161.818 154.627C161.987 154.442 162.157 154.257 162.328 154.074ZM161.314 155.186L161.875 155.69C161.71 155.875 161.547 156.061 161.384 156.248L160.817 155.751C160.981 155.562 161.147 155.373 161.314 155.186ZM160.327 156.323L160.9 156.813C160.74 157.002 160.581 157.192 160.423 157.383L159.844 156.901C160.004 156.707 160.165 156.514 160.327 156.323ZM159.369 157.484L159.954 157.96C159.798 158.153 159.644 158.347 159.491 158.542L158.9 158.073C159.055 157.876 159.211 157.68 159.369 157.484ZM158.439 158.669L159.036 159.13C158.885 159.326 158.736 159.524 158.588 159.723L157.985 159.27C158.135 159.069 158.287 158.868 158.439 158.669ZM157.539 159.876L158.147 160.322C158.002 160.522 157.857 160.724 157.714 160.926L157.101 160.488C157.245 160.283 157.392 160.079 157.539 159.876ZM156.669 161.106L157.288 161.536C157.147 161.74 157.008 161.946 156.87 162.152L156.246 161.729C156.386 161.52 156.527 161.313 156.669 161.106ZM155.83 162.357L156.46 162.772C156.324 162.979 156.19 163.187 156.057 163.397L155.423 162.99C155.557 162.778 155.693 162.567 155.83 162.357ZM155.022 163.628L155.662 164.027C155.531 164.238 155.402 164.45 155.274 164.663L154.63 164.272C154.76 164.057 154.89 163.842 155.022 163.628ZM154.247 164.92L154.896 165.302C154.771 165.516 154.647 165.731 154.524 165.947L153.871 165.572C153.995 165.354 154.12 165.136 154.247 164.92ZM153.503 166.23L154.161 166.597C154.041 166.814 153.923 167.032 153.806 167.251L153.143 166.893C153.262 166.671 153.381 166.45 153.503 166.23ZM152.792 167.559L153.459 167.908C153.345 168.128 153.232 168.349 153.121 168.571L152.449 168.23C152.562 168.005 152.676 167.781 152.792 167.559ZM152.114 168.905L152.79 169.238C152.681 169.461 152.574 169.685 152.468 169.909L151.788 169.585C151.895 169.357 152.004 169.131 152.114 168.905ZM151.47 170.267L152.154 170.583C152.051 170.809 151.949 171.035 151.849 171.262L151.161 170.955C151.263 170.725 151.366 170.496 151.47 170.267ZM150.86 171.647L151.552 171.945C151.455 172.173 151.359 172.402 151.264 172.631L150.569 172.341C150.665 172.109 150.762 171.878 150.86 171.647ZM150.286 173.039L150.984 173.32C150.893 173.551 150.802 173.782 150.713 174.014L150.011 173.742C150.101 173.507 150.193 173.273 150.286 173.039ZM149.745 174.448L150.451 174.711C150.365 174.944 150.28 175.177 150.197 175.411L149.489 175.156C149.573 174.919 149.658 174.683 149.745 174.448ZM149.241 175.867L149.953 176.113C149.873 176.348 149.794 176.583 149.717 176.819L149.002 176.583C149.08 176.344 149.16 176.105 149.241 175.867ZM148.771 177.302L149.489 177.529C149.415 177.765 149.343 178.003 149.271 178.24L148.551 178.022C148.623 177.781 148.696 177.541 148.771 177.302ZM148.339 178.745L149.062 178.954C148.994 179.192 148.927 179.431 148.862 179.671L148.136 179.471C148.202 179.228 148.27 178.986 148.339 178.745ZM147.942 180.201L148.67 180.392C148.608 180.632 148.547 180.872 148.488 181.113L147.757 180.931C147.817 180.688 147.879 180.444 147.942 180.201ZM147.582 181.664C147.525 181.909 147.469 182.154 147.415 182.4L148.15 182.563C148.204 182.32 148.258 182.078 148.315 181.836L147.582 181.664ZM147.258 183.139L147.995 183.293C147.945 183.535 147.896 183.778 147.849 184.022L147.11 183.877C147.158 183.631 147.207 183.385 147.258 183.139ZM146.971 184.618L147.712 184.753C147.668 184.997 147.625 185.242 147.584 185.487L146.842 185.361C146.884 185.113 146.927 184.865 146.971 184.618ZM146.721 186.107L147.465 186.224C147.427 186.469 147.39 186.714 147.355 186.959L146.61 186.852C146.646 186.603 146.683 186.355 146.721 186.107ZM146.509 187.598L147.255 187.696C147.223 187.942 147.193 188.189 147.164 188.436L146.416 188.347C146.446 188.097 146.477 187.847 146.509 187.598ZM146.333 189.099L147.081 189.178C147.056 189.424 147.031 189.671 147.009 189.918L146.259 189.848C146.282 189.598 146.307 189.348 146.333 189.099ZM146.195 190.598L146.945 190.659C146.925 190.906 146.907 191.154 146.89 191.402L146.139 191.351C146.156 191.1 146.175 190.849 146.195 190.598ZM146.093 192.106L146.845 192.148C146.831 192.395 146.819 192.643 146.808 192.891L146.056 192.858C146.067 192.607 146.079 192.356 146.093 192.106ZM146.029 193.61L146.781 193.634C146.773 193.881 146.767 194.13 146.763 194.378L146.01 194.365C146.015 194.113 146.021 193.861 146.029 193.61ZM146.001 195.121C146 195.247 146 195.374 146 195.5C146 195.627 146 195.753 146.001 195.879L146.754 195.875C146.753 195.75 146.753 195.625 146.753 195.5C146.753 195.375 146.753 195.25 146.754 195.126L146.001 195.121ZM146.01 196.636L146.763 196.622C146.767 196.87 146.773 197.119 146.781 197.367L146.029 197.39C146.021 197.139 146.015 196.887 146.01 196.636ZM146.056 198.142L146.808 198.109C146.819 198.357 146.831 198.605 146.845 198.853L146.093 198.894C146.079 198.644 146.067 198.393 146.056 198.142ZM146.139 199.649L146.89 199.598C146.907 199.846 146.925 200.094 146.945 200.342L146.195 200.402C146.175 200.152 146.156 199.901 146.139 199.649ZM146.259 201.152L147.009 201.082C147.031 201.329 147.056 201.576 147.081 201.822L146.333 201.901C146.307 201.652 146.282 201.402 146.259 201.152ZM146.416 202.653L147.164 202.565C147.193 202.812 147.223 203.058 147.255 203.304L146.509 203.402C146.477 203.153 146.446 202.903 146.416 202.653ZM146.61 204.148L147.355 204.041C147.39 204.287 147.427 204.532 147.465 204.776L146.721 204.893C146.683 204.645 146.646 204.397 146.61 204.148ZM146.842 205.639L147.584 205.513C147.625 205.759 147.668 206.003 147.712 206.248L146.971 206.383C146.927 206.135 146.883 205.888 146.842 205.639ZM147.11 207.123L147.849 206.978C147.896 207.222 147.945 207.465 147.995 207.707L147.258 207.861C147.207 207.616 147.158 207.37 147.11 207.123ZM147.415 208.6L148.15 208.437C148.204 208.68 148.258 208.922 148.315 209.164L147.582 209.336C147.525 209.092 147.469 208.846 147.415 208.6ZM147.757 210.069L148.488 209.887C148.547 210.128 148.608 210.368 148.67 210.608L147.942 210.799C147.879 210.556 147.817 210.313 147.757 210.069ZM148.136 211.529L148.862 211.329C148.927 211.569 148.994 211.808 149.062 212.046L148.339 212.256C148.27 212.014 148.202 211.772 148.136 211.529ZM148.551 212.978L149.271 212.76C149.342 212.998 149.415 213.235 149.489 213.471L148.771 213.698C148.696 213.459 148.623 213.219 148.551 212.978ZM149.002 214.418L149.717 214.181C149.794 214.417 149.873 214.653 149.953 214.888L149.241 215.133C149.16 214.895 149.08 214.657 149.002 214.418ZM149.489 215.844C149.573 216.081 149.658 216.317 149.745 216.552L150.451 216.289C150.365 216.057 150.28 215.824 150.197 215.59L149.489 215.844ZM150.011 217.259L150.713 216.987C150.802 217.219 150.893 217.45 150.984 217.68L150.286 217.961C150.193 217.728 150.101 217.494 150.011 217.259ZM150.569 218.659L151.264 218.369C151.358 218.599 151.455 218.827 151.552 219.055L150.86 219.354C150.762 219.123 150.665 218.891 150.569 218.659ZM151.161 220.045L151.849 219.738C151.949 219.965 152.051 220.192 152.154 220.417L151.47 220.733C151.366 220.505 151.263 220.275 151.161 220.045ZM151.788 221.416L152.468 221.091C152.574 221.316 152.681 221.539 152.79 221.762L152.114 222.095C152.004 221.869 151.895 221.643 151.788 221.416ZM152.449 222.771L153.12 222.429C153.232 222.651 153.345 222.872 153.459 223.092L152.792 223.442C152.676 223.219 152.562 222.995 152.449 222.771ZM153.143 224.108L153.806 223.75C153.923 223.968 154.041 224.186 154.161 224.404L153.503 224.77C153.381 224.55 153.261 224.329 153.143 224.108ZM153.871 225.428L154.524 225.053C154.647 225.269 154.771 225.484 154.896 225.698L154.246 226.081C154.12 225.864 153.995 225.646 153.871 225.428ZM154.63 226.728C154.76 226.944 154.89 227.158 155.022 227.372L155.662 226.973C155.531 226.762 155.402 226.55 155.274 226.337L154.63 226.728ZM155.423 228.01L156.057 227.604C156.19 227.813 156.324 228.021 156.46 228.229L155.83 228.644C155.693 228.433 155.557 228.222 155.423 228.01ZM156.246 229.271C156.386 229.48 156.527 229.688 156.669 229.895L157.288 229.464C157.147 229.26 157.008 229.055 156.87 228.849L156.246 229.271ZM157.101 230.512L157.714 230.074C157.857 230.276 158.001 230.478 158.147 230.678L157.539 231.124C157.392 230.921 157.245 230.717 157.101 230.512ZM157.985 231.73L158.588 231.277C158.736 231.476 158.885 231.674 159.036 231.871L158.439 232.332C158.287 232.132 158.135 231.932 157.985 231.73ZM158.9 232.927L159.491 232.459C159.644 232.654 159.798 232.848 159.954 233.041L159.369 233.516C159.211 233.321 159.055 233.124 158.9 232.927ZM159.844 234.1L160.423 233.617C160.581 233.808 160.74 233.998 160.9 234.187L160.327 234.677C160.165 234.486 160.004 234.293 159.844 234.1ZM160.817 235.249L161.384 234.752C161.547 234.939 161.71 235.125 161.875 235.31L161.314 235.814C161.147 235.627 160.981 235.438 160.817 235.249ZM161.818 236.373C161.987 236.559 162.157 236.743 162.328 236.926L162.877 236.408C162.707 236.227 162.539 236.045 162.372 235.862L161.818 236.373ZM162.846 237.473L163.388 236.948C163.559 237.127 163.732 237.305 163.905 237.481L163.37 238.013C163.194 237.834 163.019 237.654 162.846 237.473ZM163.901 238.546L164.43 238.008C164.605 238.182 164.782 238.356 164.96 238.528L164.438 239.073C164.258 238.898 164.079 238.723 163.901 238.546ZM164.982 239.593L165.497 239.042C165.677 239.212 165.859 239.381 166.041 239.549L165.532 240.106C165.348 239.936 165.164 239.765 164.982 239.593ZM166.089 240.612L166.59 240.048C166.774 240.214 166.96 240.378 167.146 240.542L166.651 241.111C166.463 240.946 166.275 240.78 166.089 240.612ZM167.22 241.604L167.708 241.028C167.896 241.189 168.085 241.348 168.275 241.507L167.795 242.089C167.602 241.928 167.411 241.767 167.22 241.604ZM168.375 242.567L168.849 241.979C169.041 242.135 169.234 242.29 169.428 242.444L168.962 243.037C168.765 242.882 168.57 242.725 168.375 242.567ZM169.554 243.501L170.013 242.901C170.209 243.053 170.406 243.203 170.604 243.352L170.153 243.957C169.952 243.806 169.753 243.654 169.554 243.501ZM170.756 244.405L171.2 243.794C171.399 243.94 171.6 244.086 171.801 244.229L171.365 244.846C171.161 244.7 170.958 244.553 170.756 244.405ZM171.98 245.279L172.408 244.657C172.611 244.799 172.815 244.939 173.021 245.078L172.6 245.705C172.392 245.564 172.186 245.422 171.98 245.279ZM173.225 246.122L173.637 245.49C173.844 245.626 174.051 245.761 174.26 245.895L173.855 246.532C173.644 246.397 173.434 246.26 173.225 246.122ZM174.49 246.934L174.887 246.292C175.097 246.423 175.308 246.552 175.52 246.681L175.131 247.328C174.916 247.198 174.703 247.067 174.49 246.934ZM175.775 247.714L176.156 247.062C176.369 247.187 176.583 247.311 176.798 247.434L176.425 248.091C176.207 247.967 175.991 247.841 175.775 247.714ZM177.079 248.461L177.444 247.8C177.66 247.92 177.877 248.039 178.095 248.157L177.739 248.823C177.518 248.703 177.298 248.583 177.079 248.461ZM178.401 249.175L178.749 248.505C178.968 248.62 179.188 248.733 179.409 248.845L179.069 249.52C178.846 249.406 178.623 249.292 178.401 249.175ZM179.742 249.856L180.073 249.177C180.295 249.287 180.517 249.395 180.74 249.501L180.418 250.184C180.192 250.076 179.966 249.967 179.742 249.856ZM181.097 250.503L181.411 249.816C181.636 249.92 181.861 250.022 182.087 250.123L181.781 250.814C181.552 250.712 181.324 250.608 181.097 250.503ZM182.47 251.116L182.767 250.421C182.994 250.519 183.221 250.616 183.449 250.711L183.161 251.409C182.93 251.313 182.7 251.215 182.47 251.116ZM183.856 251.694L184.135 250.992C184.365 251.084 184.595 251.174 184.825 251.264L184.554 251.969C184.321 251.879 184.088 251.787 183.856 251.694ZM185.257 252.237L185.519 251.528C185.751 251.614 185.983 251.699 186.215 251.782L185.962 252.495C185.727 252.41 185.492 252.324 185.257 252.237ZM186.67 252.744L186.914 252.028C187.148 252.109 187.382 252.188 187.617 252.265L187.382 252.984C187.144 252.905 186.907 252.825 186.67 252.744ZM188.098 253.215L188.324 252.494C188.559 252.568 188.795 252.641 189.031 252.713L188.814 253.437C188.575 253.365 188.336 253.291 188.098 253.215ZM189.534 253.65L189.742 252.923C189.979 252.992 190.217 253.059 190.456 253.125L190.257 253.854C190.015 253.787 189.774 253.719 189.534 253.65ZM190.983 254.049L191.173 253.317C191.412 253.38 191.651 253.441 191.89 253.5L191.71 254.235C191.467 254.174 191.225 254.112 190.983 254.049ZM192.439 254.411L192.61 253.674C192.851 253.731 193.092 253.786 193.333 253.84L193.171 254.578C192.926 254.524 192.682 254.468 192.439 254.411ZM193.907 254.736L194.06 253.996C194.301 254.046 194.543 254.095 194.785 254.142L194.641 254.885C194.396 254.837 194.151 254.787 193.907 254.736ZM195.378 255.024L195.513 254.28C195.756 254.324 195.999 254.367 196.243 254.409L196.118 255.154C195.871 255.112 195.624 255.069 195.378 255.024ZM196.861 255.275L196.977 254.528C197.22 254.566 197.464 254.603 197.708 254.638L197.602 255.387C197.354 255.351 197.107 255.314 196.861 255.275ZM198.344 255.489L198.442 254.739C198.687 254.771 198.932 254.802 199.178 254.831L199.09 255.582C198.841 255.552 198.592 255.521 198.344 255.489ZM199.838 255.666L199.917 254.913C200.162 254.939 200.407 254.964 200.653 254.987L200.584 255.74C200.335 255.716 200.086 255.692 199.838 255.666ZM201.33 255.804C201.579 255.825 201.829 255.843 202.079 255.86L202.13 255.106C201.883 255.089 201.636 255.07 201.39 255.051L201.33 255.804ZM202.83 255.907L202.872 255.151C203.118 255.165 203.365 255.177 203.612 255.188L203.579 255.944C203.329 255.933 203.08 255.92 202.83 255.907ZM204.327 255.971L204.351 255.215C204.597 255.223 204.844 255.229 205.092 255.234L205.078 255.99C204.827 255.985 204.577 255.979 204.327 255.971ZM205.831 255.999L205.835 255.243C205.96 255.244 206.084 255.244 206.208 255.244C206.332 255.244 206.457 255.244 206.581 255.243L206.585 255.999C206.46 256 206.334 256 206.208 256C206.082 256 205.957 256 205.831 255.999ZM207.338 255.99L207.324 255.234C207.572 255.229 207.819 255.223 208.066 255.215L208.089 255.971C207.839 255.979 207.589 255.985 207.338 255.99ZM208.837 255.944L208.805 255.188C209.052 255.177 209.298 255.165 209.544 255.151L209.586 255.907C209.337 255.92 209.087 255.933 208.837 255.944ZM210.337 255.86L210.287 255.106C210.534 255.089 210.78 255.07 211.026 255.051L211.086 255.804C210.837 255.825 210.587 255.843 210.337 255.86ZM211.833 255.74L211.763 254.987C212.009 254.964 212.255 254.939 212.5 254.913L212.578 255.666C212.33 255.692 212.082 255.716 211.833 255.74ZM213.327 255.582L213.239 254.831C213.484 254.802 213.73 254.771 213.975 254.739L214.072 255.489C213.824 255.521 213.576 255.552 213.327 255.582ZM214.814 255.387L214.708 254.638C214.952 254.603 215.196 254.566 215.44 254.528L215.556 255.275C215.309 255.314 215.062 255.351 214.814 255.387ZM216.298 255.154L216.173 254.409C216.417 254.367 216.661 254.324 216.904 254.28L217.038 255.024C216.792 255.069 216.546 255.112 216.298 255.154ZM217.775 254.885L217.631 254.142C217.873 254.095 218.115 254.046 218.357 253.996L218.51 254.736C218.265 254.787 218.02 254.837 217.775 254.885ZM219.245 254.578L219.083 253.84C219.325 253.786 219.566 253.731 219.806 253.674L219.978 254.411C219.734 254.468 219.49 254.524 219.245 254.578ZM220.707 254.235L220.526 253.5C220.766 253.441 221.005 253.38 221.243 253.317L221.433 254.049C221.192 254.112 220.949 254.174 220.707 254.235ZM222.16 253.854L221.961 253.125C222.199 253.059 222.437 252.992 222.675 252.923L222.883 253.65C222.642 253.719 222.401 253.787 222.16 253.854ZM223.602 253.437L223.385 252.713C223.621 252.641 223.857 252.568 224.093 252.494L224.319 253.215C224.08 253.291 223.842 253.365 223.602 253.437ZM225.034 252.984L224.799 252.265C225.034 252.188 225.268 252.109 225.502 252.028L225.746 252.744C225.51 252.825 225.272 252.905 225.034 252.984ZM226.454 252.495L226.201 251.782C226.434 251.699 226.666 251.614 226.897 251.528L227.159 252.237C226.925 252.324 226.69 252.41 226.454 252.495ZM227.862 251.969C228.096 251.879 228.328 251.787 228.561 251.694L228.281 250.992C228.052 251.084 227.822 251.174 227.591 251.264L227.862 251.969ZM229.255 251.409L228.967 250.711C229.195 250.616 229.423 250.519 229.65 250.421L229.947 251.116C229.717 251.215 229.486 251.313 229.255 251.409ZM230.635 250.814L230.329 250.123C230.555 250.022 230.781 249.92 231.005 249.816L231.319 250.503C231.092 250.608 230.864 250.712 230.635 250.814ZM231.999 250.184L231.676 249.501C231.899 249.395 232.122 249.287 232.344 249.177L232.675 249.857C232.45 249.967 232.225 250.076 231.999 250.184ZM233.347 249.52L233.008 248.845C233.228 248.733 233.448 248.62 233.667 248.505L234.015 249.175C233.793 249.292 233.571 249.406 233.347 249.52ZM234.678 248.823L234.321 248.157C234.539 248.039 234.756 247.92 234.972 247.8L235.337 248.461C235.118 248.583 234.898 248.703 234.678 248.823ZM235.992 248.091L235.619 247.434C235.833 247.311 236.047 247.187 236.26 247.062L236.641 247.714C236.426 247.841 236.209 247.967 235.992 248.091ZM237.286 247.328L236.897 246.681C237.108 246.552 237.319 246.423 237.529 246.292L237.926 246.934C237.714 247.067 237.5 247.198 237.286 247.328ZM264.835 209.336L264.102 209.164C264.158 208.922 264.213 208.68 264.266 208.438L265.001 208.601C264.947 208.846 264.892 209.092 264.835 209.336ZM265.159 207.861L264.422 207.708C264.472 207.465 264.521 207.222 264.568 206.979L265.306 207.123C265.259 207.37 265.209 207.616 265.159 207.861ZM265.445 206.383L264.704 206.248C264.749 206.003 264.791 205.759 264.832 205.514L265.575 205.639C265.533 205.888 265.49 206.135 265.445 206.383ZM265.695 204.893L264.952 204.776C264.989 204.532 265.026 204.287 265.061 204.041L265.806 204.148C265.771 204.397 265.734 204.645 265.695 204.893ZM265.908 203.402L265.161 203.304C265.193 203.058 265.224 202.812 265.253 202.565L266 202.653C265.971 202.903 265.94 203.153 265.908 203.402Z" fill="#00C1FE"/>
<path d="M152.5 197L156.5 201.5L155.5 203.5L149 208L145.5 213L144 220L145.5 223C154.167 223.333 171.6 224.1 172 224.5C172.4 224.9 182.167 223 187 222V217.5L182.5 208L177 205L174.5 203.5L178 197L181 189H184L183 185.5V182L180 181L178 176.5L174.5 172L170 169H165L160.5 170L155.5 173L152.5 177.5L151 182H148.5V184V187.5L150 189L152.5 197Z" fill="white"/>
<mask id="path-96-inside-1_379_862726" fill="white">
<path fill-rule="evenodd" clip-rule="evenodd" d="M179.531 187.673L152.372 187.673C152.7 196.385 158.654 203.327 165.952 203.327C173.249 203.327 179.203 196.385 179.531 187.673Z"/>
</mask>
<path d="M179.531 187.673L181.53 187.748L181.608 185.673L179.531 185.673L179.531 187.673ZM152.372 187.673L152.372 185.673L150.296 185.673L150.374 187.748L152.372 187.673ZM179.531 185.673L152.372 185.673L152.372 189.673L179.531 189.673L179.531 185.673ZM165.952 201.327C160.051 201.327 154.672 195.589 154.371 187.598L150.374 187.748C150.729 197.181 157.257 205.327 165.952 205.327L165.952 201.327ZM177.533 187.598C177.232 195.589 171.852 201.327 165.952 201.327L165.952 205.327C174.646 205.327 181.175 197.181 181.53 187.748L177.533 187.598Z" fill="#003E6E" fill-opacity="0.5" mask="url(#path-96-inside-1_379_862726)"/>
<path fill-rule="evenodd" clip-rule="evenodd" d="M179.298 183C177.997 175.574 172.537 170 165.998 170C159.459 170 153.999 175.574 152.698 183H154.728C155.995 176.464 160.794 172 165.998 172C171.202 172 176.001 176.464 177.268 183H179.298Z" fill="#003E6E" fill-opacity="0.5"/>
<rect x="150" y="183" width="32" height="3" fill="white"/>
<rect x="150.5" y="183.5" width="31" height="2" stroke="#003E6E" stroke-opacity="0.5"/>
<path d="M159.871 216L158.934 216.938L160.996 219.826C161.083 219.948 161.198 220.047 161.33 220.115C161.463 220.183 161.611 220.219 161.76 220.219H161.826C161.949 220.219 162.071 220.243 162.185 220.29C162.299 220.337 162.402 220.406 162.49 220.494L164.997 223.001L162.544 225.489C162.124 225.366 161.682 225.342 161.251 225.419C160.821 225.497 160.414 225.673 160.064 225.935C159.713 226.197 159.429 226.537 159.232 226.928C159.036 227.319 158.934 227.75 158.934 228.188C158.934 228.591 159.021 228.989 159.189 229.355C159.357 229.722 159.602 230.048 159.907 230.311C160.212 230.575 160.57 230.77 160.957 230.883C161.344 230.996 161.75 231.025 162.149 230.967C162.548 230.909 162.93 230.767 163.269 230.548C163.608 230.33 163.896 230.042 164.113 229.702C164.331 229.363 164.473 228.981 164.53 228.582C164.587 228.183 164.558 227.776 164.444 227.39L166.932 224.936L167.84 225.844L167.554 226.701C167.499 226.866 167.491 227.043 167.531 227.212C167.571 227.382 167.658 227.537 167.781 227.66L170.927 230.806C171.103 230.982 171.341 231.081 171.59 231.081C171.838 231.081 172.077 230.982 172.253 230.806L173.74 229.319C173.915 229.143 174.014 228.905 174.014 228.656C174.014 228.408 173.915 228.169 173.74 227.994L170.593 224.847C170.47 224.724 170.315 224.638 170.146 224.598C169.977 224.558 169.799 224.565 169.634 224.62L168.777 224.906L167.877 224.006L170.39 221.529C170.807 221.64 171.243 221.654 171.667 221.57C172.09 221.485 172.488 221.305 172.83 221.043C173.173 220.78 173.45 220.443 173.641 220.056C173.833 219.669 173.933 219.244 173.934 218.813C173.934 218.56 173.901 218.316 173.838 218.084L171.832 220.091L170.184 219.75L169.842 218.103L171.85 216.096C171.372 215.967 170.869 215.967 170.392 216.095C169.914 216.223 169.479 216.475 169.129 216.824C168.78 217.174 168.529 217.61 168.402 218.088C168.274 218.566 168.275 219.068 168.404 219.546L165.929 222.056L163.427 219.556C163.251 219.38 163.152 219.142 163.152 218.893V218.827C163.152 218.677 163.117 218.53 163.048 218.398C162.98 218.265 162.881 218.15 162.76 218.064L159.871 216ZM168.914 225.981C168.958 225.937 169.009 225.902 169.066 225.879C169.123 225.855 169.184 225.843 169.246 225.843C169.308 225.843 169.369 225.855 169.426 225.879C169.483 225.902 169.534 225.937 169.578 225.981L172.39 228.793C172.434 228.837 172.469 228.889 172.492 228.945C172.516 229.002 172.528 229.063 172.528 229.125C172.528 229.187 172.516 229.248 172.492 229.305C172.469 229.362 172.434 229.413 172.39 229.457C172.347 229.501 172.295 229.535 172.238 229.559C172.181 229.582 172.12 229.594 172.059 229.594C171.997 229.594 171.936 229.582 171.879 229.559C171.822 229.535 171.77 229.501 171.727 229.457L168.914 226.644C168.871 226.601 168.836 226.549 168.812 226.492C168.789 226.435 168.777 226.374 168.777 226.313C168.777 226.251 168.789 226.19 168.812 226.133C168.836 226.076 168.871 226.024 168.914 225.981ZM161.746 226.313L162.188 226.539L162.684 226.564L162.953 226.981L163.37 227.25L163.394 227.746L163.621 228.188L163.394 228.629L163.37 229.125L162.953 229.394L162.684 229.811L162.188 229.836L161.746 230.063L161.305 229.836L160.809 229.811L160.54 229.394L160.122 229.125L160.098 228.629L159.871 228.188L160.098 227.746L160.122 227.25L160.54 226.981L160.809 226.564L161.305 226.539L161.746 226.313Z" fill="#003E6E" fill-opacity="0.5"/>
<line x1="161.433" y1="174.75" x2="164.933" y2="180.812" stroke="#003E6E" stroke-opacity="0.5"/>
<line x1="166.567" y1="180.812" x2="170.067" y2="174.75" stroke="#003E6E" stroke-opacity="0.5"/>
<path fill-rule="evenodd" clip-rule="evenodd" d="M170.848 215C170.271 213.714 169.536 212.554 168.679 211.547L169.993 210.01C171.247 211.431 172.275 213.121 173.007 215H170.848ZM162.018 215C162.486 213.958 163.058 212.997 163.714 212.135L162.39 210.585C161.353 211.88 160.495 213.369 159.859 215H162.018ZM158 219H148.205C149.28 212.36 154.137 207.625 159.633 207.358L158.061 205.52C152.008 206.546 147.201 212.024 146.184 219C146.089 219.654 146.027 220.322 146 221H158V219ZM175 221H186.866C186.84 220.322 186.778 219.654 186.682 219C185.617 211.691 180.39 206.025 173.929 205.403L172.259 207.358C172.42 207.35 172.582 207.347 172.745 207.347C178.439 207.347 183.555 212.164 184.661 219H175V221Z" fill="#003E6E" fill-opacity="0.5"/>
<path fill-rule="evenodd" clip-rule="evenodd" d="M157.255 195.999C156.726 195.143 156.215 194.237 155.772 193.409C155.251 192.435 155.668 191.238 156.662 190.756C157.656 190.274 158.851 190.69 159.375 191.662C159.765 192.387 160.206 193.166 160.657 193.895C161.091 194.597 161.511 195.216 161.883 195.684C162.193 196.073 162.378 196.239 162.434 196.289C162.455 196.308 162.458 196.31 162.442 196.302C162.876 196.527 163.288 196.741 163.662 196.936C164.642 197.446 165.017 198.655 164.503 199.633C163.988 200.61 162.779 200.986 161.799 200.476C161.431 200.284 161.027 200.074 160.602 199.854C159.845 199.461 159.207 198.745 158.753 198.174C158.244 197.534 157.731 196.769 157.255 195.999Z" fill="#00C1FE" fill-opacity="0.3"/>
<path fill-rule="evenodd" clip-rule="evenodd" d="M164.125 181.515C163.186 182.095 161.953 181.805 161.373 180.865L160.405 179.3C159.824 178.36 160.115 177.128 161.054 176.547C161.994 175.966 163.226 176.257 163.807 177.196L164.775 178.762C165.356 179.701 165.065 180.934 164.125 181.515Z" fill="#00C1FE" fill-opacity="0.3"/>
</svg>
