<svg viewBox="-1.283 -1.048 1017.826 419.745" width="1017.826" height="419.745" xmlns="http://www.w3.org/2000/svg">
  <defs>
    <linearGradient id="paint0_linear_520_400294" x1="81.3022" y1="215.004" x2="87.1438" y2="237.249"
                    gradientUnits="userSpaceOnUse" gradientTransform="matrix(1, 0, 0, 1, 962.737976, 177.938705)">
      <stop stop-color="#003E6E"></stop>
      <stop offset="1" stop-color="#00C1FE"></stop>
    </linearGradient>
    <linearGradient id="paint1_linear_520_400294" x1="520.208" y1="233.123" x2="526.05" y2="255.369"
                    gradientUnits="userSpaceOnUse" gradientTransform="matrix(1, 0, 0, 1, 962.737976, 177.938705)">
      <stop stop-color="#003E6E"></stop>
      <stop offset="1" stop-color="#00C1FE"></stop>
    </linearGradient>
    <linearGradient id="paint2_linear_520_400294" x1="677.755" y1="203.125" x2="683.597" y2="225.371"
                    gradientUnits="userSpaceOnUse" gradientTransform="matrix(1, 0, 0, 1, 962.737976, 177.938705)">
      <stop stop-color="#003E6E"></stop>
      <stop offset="1" stop-color="#00C1FE"></stop>
    </linearGradient>
    <linearGradient id="paint3_linear_520_400294" x1="415.866" y1="300.738" x2="415.866" y2="305.107"
                    gradientUnits="userSpaceOnUse" gradientTransform="matrix(1, 0, 0, 1, 0, 0)">
      <stop stop-color="#003E6E"></stop>
      <stop offset="1" stop-color="#00C1FE"></stop>
    </linearGradient>
    <linearGradient id="paint4_linear_520_400294" x1="502.933" y1="415.52" x2="502.933" y2="419.89"
                    gradientUnits="userSpaceOnUse" gradientTransform="matrix(1, 0, 0, 1, 0, 0)">
      <stop stop-color="#003E6E"></stop>
      <stop offset="1" stop-color="#00C1FE"></stop>
    </linearGradient>
    <linearGradient id="paint5_linear_520_400294" x1="564.571" y1="162.421" x2="570.413" y2="184.667"
                    gradientUnits="userSpaceOnUse" gradientTransform="matrix(1, 0, 0, 1, 962.737976, 177.938705)">
      <stop stop-color="#003E6E"></stop>
      <stop offset="1" stop-color="#00C1FE"></stop>
    </linearGradient>
    <linearGradient id="paint6_linear_520_400294" x1="525.758" y1="131.007" x2="538.29" y2="178.732"
                    gradientUnits="userSpaceOnUse" gradientTransform="matrix(1, 0, 0, 1, 962.737976, 177.938705)">
      <stop stop-color="#003E6E"></stop>
      <stop offset="1" stop-color="#00C1FE"></stop>
    </linearGradient>
  </defs>
  <g transform="matrix(1, 0, 0, 1, -847.52887, -178.987656)">
    <g>
      <path opacity="0.1"
            d="M 846.246 444.882 L 1226.359 345.067 L 1247.676 363.249 L 867.563 463.064 L 846.246 444.882 Z"
            fill="url(#paint0_linear_520_400294)"></path>
      <path opacity="0.1"
            d="M 1414.274 429.095 L 1546.245 394.44 L 1557.459 415.275 L 1425.489 449.93 L 1414.274 429.095 Z"
            fill="url(#paint1_linear_520_400294)"></path>
      <path opacity="0.1"
            d="M 1509.92 415.352 L 1760.85 349.459 L 1776.908 369.022 L 1525.978 434.915 L 1509.92 415.352 Z"
            fill="url(#paint2_linear_520_400294)"></path>
      <rect opacity="0.1" x="2.34" y="300.738" width="827.052" height="4.369"
            transform="matrix(0.967209, -0.253982, 0.253982, 0.967209, 886.432495, 188.394684)"
            fill="url(#paint3_linear_520_400294)"></rect>
      <rect opacity="0.1" x="89.407" y="415.52" width="827.052" height="4.369"
            transform="matrix(0.967209, -0.253982, 0.253982, 0.967209, 860.134949, 214.271957)"
            fill="url(#paint4_linear_520_400294)"></rect>
      <path opacity="0.1"
            d="M 1329.515 392.299 L 1709.628 292.484 L 1730.945 310.666 L 1350.832 410.481 L 1329.515 392.299 Z"
            fill="url(#paint5_linear_520_400294)"></path>
      <path opacity="0.1"
            d="M 1125.453 404.278 L 1836.064 217.676 L 1864.072 261.338 L 1153.46 447.94 L 1125.453 404.278 Z"
            fill="url(#paint6_linear_520_400294)"></path>
      <circle opacity="0.1" cx="838.561" cy="171.755" r="12.5"
              transform="matrix(0.967209, -0.253982, 0.253982, 0.967209, 946.612849, 396.550531)"
              fill="#D9D9D9"></circle>
      <circle opacity="0.1" cx="883.281" cy="15.265" r="12.5"
              transform="matrix(0.967209, -0.253982, 0.253982, 0.967209, 987.825008, 402.777101)"
              fill="#D9D9D9"></circle>
      <circle opacity="0.1" cx="826.665" cy="47.708" r="7.5"
              transform="matrix(0.967209, -0.253982, 0.253982, 0.967209, 977.728444, 389.461495)"
              fill="#D9D9D9"></circle>
    </g>
  </g>
</svg>
