<svg width="335" height="335" viewBox="0 0 335 335" fill="none" xmlns="http://www.w3.org/2000/svg">
<circle cx="167.5" cy="167.5" r="167.5" fill="#EBF3F8"/>
<g clip-path="url(#clip0_379_862727)">
<g opacity="0.3">
<path d="M237 151C237 149.895 237.895 149 239 149H275C276.105 149 277 149.895 277 151V216H237V151Z" stroke="#76A3D3" stroke-width="2"/>
<path d="M241 133C241 131.895 241.895 131 243 131H271C272.105 131 273 131.895 273 133V149H241V133Z" stroke="#76A3D3" stroke-width="2"/>
<path d="M245 119C245 117.895 245.895 117 247 117H267C268.105 117 269 117.895 269 119V131H245V119Z" stroke="#76A3D3" stroke-width="2"/>
<rect x="250.5" y="121.5" width="5" height="2" rx="1" stroke="#76A3D3"/>
<rect x="250.5" y="126.5" width="5" height="2" rx="1" stroke="#76A3D3"/>
<rect x="246.5" y="137.5" width="5" height="2" rx="1" stroke="#76A3D3"/>
<rect x="246.5" y="142.5" width="5" height="2" rx="1" stroke="#76A3D3"/>
<rect x="242.5" y="154.5" width="5" height="2" rx="1" stroke="#76A3D3"/>
<rect x="242.5" y="159.5" width="5" height="2" rx="1" stroke="#76A3D3"/>
<rect x="242.5" y="164.5" width="5" height="2" rx="1" stroke="#76A3D3"/>
<rect x="242.5" y="169.5" width="5" height="2" rx="1" stroke="#76A3D3"/>
<rect x="242.5" y="174.5" width="5" height="2" rx="1" stroke="#76A3D3"/>
<rect x="242.5" y="179.5" width="5" height="2" rx="1" stroke="#76A3D3"/>
<rect x="242.5" y="184.5" width="5" height="2" rx="1" stroke="#76A3D3"/>
<rect x="242.5" y="189.5" width="5" height="2" rx="1" stroke="#76A3D3"/>
<rect x="262.5" y="137.5" width="5" height="2" rx="1" stroke="#76A3D3"/>
<rect x="262.5" y="142.5" width="5" height="2" rx="1" stroke="#76A3D3"/>
<rect x="258.5" y="154.5" width="5" height="2" rx="1" stroke="#76A3D3"/>
<rect x="258.5" y="159.5" width="5" height="2" rx="1" stroke="#76A3D3"/>
<rect x="258.5" y="164.5" width="5" height="2" rx="1" stroke="#76A3D3"/>
<rect x="258.5" y="169.5" width="5" height="2" rx="1" stroke="#76A3D3"/>
<rect x="258.5" y="174.5" width="5" height="2" rx="1" stroke="#76A3D3"/>
<rect x="258.5" y="179.5" width="5" height="2" rx="1" stroke="#76A3D3"/>
<rect x="258.5" y="184.5" width="5" height="2" rx="1" stroke="#76A3D3"/>
<rect x="258.5" y="189.5" width="5" height="2" rx="1" stroke="#76A3D3"/>
<rect x="266.5" y="154.5" width="5" height="2" rx="1" stroke="#76A3D3"/>
<rect x="266.5" y="159.5" width="5" height="2" rx="1" stroke="#76A3D3"/>
<rect x="266.5" y="164.5" width="5" height="2" rx="1" stroke="#76A3D3"/>
<rect x="266.5" y="169.5" width="5" height="2" rx="1" stroke="#76A3D3"/>
<rect x="266.5" y="174.5" width="5" height="2" rx="1" stroke="#76A3D3"/>
<rect x="266.5" y="179.5" width="5" height="2" rx="1" stroke="#76A3D3"/>
<rect x="266.5" y="184.5" width="5" height="2" rx="1" stroke="#76A3D3"/>
<rect x="266.5" y="189.5" width="5" height="2" rx="1" stroke="#76A3D3"/>
<rect x="258.5" y="121.5" width="5" height="2" rx="1" stroke="#76A3D3"/>
<rect x="258.5" y="126.5" width="5" height="2" rx="1" stroke="#76A3D3"/>
<rect x="254.5" y="137.5" width="5" height="2" rx="1" stroke="#76A3D3"/>
<rect x="254.5" y="142.5" width="5" height="2" rx="1" stroke="#76A3D3"/>
<rect x="250.5" y="154.5" width="5" height="2" rx="1" stroke="#76A3D3"/>
<rect x="250.5" y="159.5" width="5" height="2" rx="1" stroke="#76A3D3"/>
<rect x="250.5" y="164.5" width="5" height="2" rx="1" stroke="#76A3D3"/>
<rect x="250.5" y="169.5" width="5" height="2" rx="1" stroke="#76A3D3"/>
<rect x="250.5" y="174.5" width="5" height="2" rx="1" stroke="#76A3D3"/>
<rect x="250.5" y="179.5" width="5" height="2" rx="1" stroke="#76A3D3"/>
<rect x="250.5" y="184.5" width="5" height="2" rx="1" stroke="#76A3D3"/>
<rect x="250.5" y="189.5" width="5" height="2" rx="1" stroke="#76A3D3"/>
<path d="M257 101L258 118H256L257 101Z" fill="#76A3D3"/>
</g>
<g opacity="0.3">
<path d="M206 165C206 163.895 206.895 163 208 163H233C234.105 163 235 163.895 235 165V216H206V165Z" stroke="#76A3D3" stroke-width="2"/>
<rect x="209.5" y="167.5" width="22" height="2" rx="1" stroke="#76A3D3"/>
<rect x="195.5" y="142.5" width="7" height="4" rx="1.5" stroke="#76A3D3"/>
<rect x="170.5" y="119.5" width="7" height="2" rx="1" stroke="#76A3D3"/>
<rect x="170.5" y="124.5" width="7" height="2" rx="1" stroke="#76A3D3"/>
<rect x="170.5" y="129.5" width="7" height="2" rx="1" stroke="#76A3D3"/>
<rect x="170.5" y="134.5" width="7" height="2" rx="1" stroke="#76A3D3"/>
<rect x="170.5" y="139.5" width="7" height="2" rx="1" stroke="#76A3D3"/>
<rect x="170.5" y="144.5" width="7" height="2" rx="1" stroke="#76A3D3"/>
<rect x="170.5" y="149.5" width="7" height="2" rx="1" stroke="#76A3D3"/>
<rect x="170.5" y="154.5" width="7" height="2" rx="1" stroke="#76A3D3"/>
<rect x="170.5" y="159.5" width="7" height="2" rx="1" stroke="#76A3D3"/>
<rect x="170.5" y="164.5" width="7" height="2" rx="1" stroke="#76A3D3"/>
<rect x="170.5" y="169.5" width="7" height="2" rx="1" stroke="#76A3D3"/>
<rect x="170.5" y="174.5" width="7" height="2" rx="1" stroke="#76A3D3"/>
<rect x="170.5" y="179.5" width="7" height="2" rx="1" stroke="#76A3D3"/>
<rect x="170.5" y="184.5" width="7" height="2" rx="1" stroke="#76A3D3"/>
<rect x="170.5" y="189.5" width="7" height="2" rx="1" stroke="#76A3D3"/>
<rect x="182.5" y="119.5" width="7" height="2" rx="1" stroke="#76A3D3"/>
<rect x="182.5" y="124.5" width="7" height="2" rx="1" stroke="#76A3D3"/>
<rect x="182.5" y="129.5" width="7" height="2" rx="1" stroke="#76A3D3"/>
<rect x="182.5" y="134.5" width="7" height="2" rx="1" stroke="#76A3D3"/>
<rect x="182.5" y="139.5" width="7" height="2" rx="1" stroke="#76A3D3"/>
<rect x="182.5" y="144.5" width="7" height="2" rx="1" stroke="#76A3D3"/>
<rect x="182.5" y="149.5" width="7" height="2" rx="1" stroke="#76A3D3"/>
<rect x="182.5" y="154.5" width="7" height="2" rx="1" stroke="#76A3D3"/>
<rect x="182.5" y="159.5" width="7" height="2" rx="1" stroke="#76A3D3"/>
<rect x="182.5" y="164.5" width="7" height="2" rx="1" stroke="#76A3D3"/>
<rect x="182.5" y="169.5" width="7" height="2" rx="1" stroke="#76A3D3"/>
<rect x="182.5" y="174.5" width="7" height="2" rx="1" stroke="#76A3D3"/>
<rect x="182.5" y="179.5" width="7" height="2" rx="1" stroke="#76A3D3"/>
<rect x="182.5" y="184.5" width="7" height="2" rx="1" stroke="#76A3D3"/>
<rect x="182.5" y="189.5" width="7" height="2" rx="1" stroke="#76A3D3"/>
<rect x="209.5" y="142.5" width="7" height="4" rx="1.5" stroke="#76A3D3"/>
<rect x="209.5" y="175.5" width="22" height="2" rx="1" stroke="#76A3D3"/>
<rect x="195.5" y="154.5" width="7" height="4" rx="1.5" stroke="#76A3D3"/>
<rect x="209.5" y="154.5" width="7" height="4" rx="1.5" stroke="#76A3D3"/>
<rect x="209.5" y="183.5" width="22" height="2" rx="1" stroke="#76A3D3"/>
<rect x="195.5" y="166.5" width="7" height="4" rx="1.5" stroke="#76A3D3"/>
<rect x="209.5" y="191.5" width="22" height="2" rx="1" stroke="#76A3D3"/>
<rect x="195.5" y="178.5" width="7" height="4" rx="1.5" stroke="#76A3D3"/>
<rect x="195.5" y="190.5" width="7" height="4" rx="1.5" stroke="#76A3D3"/>
<rect x="168" y="116" width="24" height="87" stroke="#76A3D3" stroke-width="2"/>
<rect x="177.5" y="89.5" width="5" height="6" stroke="#76A3D3"/>
<path fill-rule="evenodd" clip-rule="evenodd" d="M177.111 96L167.481 116L167 117H168.11H191.89H193L192.519 116L182.889 96H181.779L191.409 116H168.591L178.221 96H177.111Z" fill="#76A3D3"/>
<path d="M180 73L181 90H179L180 73Z" fill="#76A3D3"/>
<path fill-rule="evenodd" clip-rule="evenodd" d="M194 135C192.343 135 191 136.343 191 138V202H193V138C193 137.448 193.448 137 194 137H218C218.552 137 219 137.448 219 138V163H221V138C221 136.343 219.657 135 218 135H194ZM206 217V215H197.5V217H206Z" fill="#76A3D3"/>
</g>
<g style="mix-blend-mode:multiply">
<rect x="247" y="143" width="6" height="4" rx="2" fill="#00C1FE" fill-opacity="0.5"/>
</g>
<g style="mix-blend-mode:multiply">
<rect x="263" y="144" width="6" height="3" rx="1.5" fill="#00C1FE" fill-opacity="0.5"/>
</g>
<g style="mix-blend-mode:multiply">
<rect x="255" y="138" width="6" height="3" rx="1.5" fill="#00C1FE" fill-opacity="0.5"/>
</g>
<g style="mix-blend-mode:multiply">
<rect x="259" y="127" width="7" height="3" rx="1.5" fill="#00C1FE" fill-opacity="0.5"/>
</g>
<g style="mix-blend-mode:multiply">
<rect x="243" y="156" width="6" height="3" rx="1.5" fill="#00C1FE" fill-opacity="0.5"/>
</g>
<g style="mix-blend-mode:multiply">
<rect x="251" y="160" width="5" height="3" rx="1.5" fill="#00C1FE" fill-opacity="0.5"/>
</g>
<g style="mix-blend-mode:multiply">
<rect x="259" y="165" width="5" height="3" rx="1.5" fill="#00C1FE" fill-opacity="0.5"/>
</g>
<g style="mix-blend-mode:multiply">
<rect x="266" y="170" width="6" height="3" rx="1.5" fill="#00C1FE" fill-opacity="0.5"/>
</g>
<g style="mix-blend-mode:multiply">
<rect x="251" y="172" width="5" height="2" rx="1" fill="#00C1FE" fill-opacity="0.5"/>
</g>
<g style="mix-blend-mode:multiply">
<rect x="243" y="175" width="6" height="3" rx="1.5" fill="#00C1FE" fill-opacity="0.5"/>
</g>
<g style="mix-blend-mode:multiply">
<rect x="251" y="181" width="6" height="2" rx="1" fill="#00C1FE" fill-opacity="0.5"/>
</g>
<g style="mix-blend-mode:multiply">
<rect x="259" y="185" width="5" height="3" rx="1.5" fill="#00C1FE" fill-opacity="0.5"/>
</g>
</g>
<g style="mix-blend-mode:multiply">
<rect x="213.051" y="179.016" width="19" height="2.72363" rx="1.36182" fill="#00C1FE" fill-opacity="0.3"/>
</g>
<g style="mix-blend-mode:multiply">
<rect x="197.061" y="166.434" width="6.57031" height="3.56641" rx="1.7832" fill="#00C1FE" fill-opacity="0.3"/>
</g>
<g style="mix-blend-mode:multiply">
<rect x="195.766" y="155.226" width="6.57031" height="3.56641" rx="1.7832" fill="#00C1FE" fill-opacity="0.3"/>
</g>
<g style="mix-blend-mode:multiply">
<rect x="210.48" y="166.5" width="6.57031" height="3.56641" rx="1.7832" fill="#00C1FE" fill-opacity="0.3"/>
</g>
<g style="mix-blend-mode:multiply">
<rect x="197.061" y="190" width="6.57031" height="3.56641" rx="1.7832" fill="#00C1FE" fill-opacity="0.3"/>
</g>
<g style="mix-blend-mode:multiply">
<rect x="182.384" y="184.276" width="7.33398" height="2.72363" rx="1.36182" fill="#00C1FE" fill-opacity="0.4"/>
</g>
<g style="mix-blend-mode:multiply">
<rect x="172.217" y="185.638" width="7.33398" height="2.72363" rx="1.36182" fill="#00C1FE" fill-opacity="0.4"/>
</g>
<g style="mix-blend-mode:multiply">
<rect x="179.551" y="176.5" width="7.33398" height="2.72363" rx="1.36182" fill="#00C1FE" fill-opacity="0.4"/>
</g>
<g style="mix-blend-mode:multiply">
<rect x="171.717" y="134.276" width="7.33398" height="2.72363" rx="1.36182" fill="#00C1FE" fill-opacity="0.4"/>
</g>
<g style="mix-blend-mode:multiply">
<rect x="183.717" y="135.638" width="7.33398" height="2.72363" rx="1.36182" fill="#00C1FE" fill-opacity="0.4"/>
</g>
<g style="mix-blend-mode:multiply">
<rect x="170.717" y="140.516" width="7.33398" height="2.72363" rx="1.36182" fill="#00C1FE" fill-opacity="0.4"/>
</g>
<g style="mix-blend-mode:multiply">
<rect x="182.384" y="144.611" width="7.33398" height="2.72363" rx="1.36182" fill="#00C1FE" fill-opacity="0.4"/>
</g>
<g style="mix-blend-mode:multiply">
<rect x="181.514" y="149.117" width="7.33398" height="2.72363" rx="1.36182" fill="#00C1FE" fill-opacity="0.4"/>
</g>
<g style="mix-blend-mode:multiply">
<rect x="170.717" y="154.921" width="7.33398" height="2.72363" rx="1.36182" fill="#00C1FE" fill-opacity="0.4"/>
</g>
<g style="mix-blend-mode:multiply">
<rect x="181.514" y="156.069" width="7.33398" height="2.72363" rx="1.36182" fill="#00C1FE" fill-opacity="0.4"/>
</g>
<g style="mix-blend-mode:multiply">
<rect x="171.717" y="161.5" width="7.33398" height="2.72363" rx="1.36182" fill="#00C1FE" fill-opacity="0.4"/>
</g>
<g style="mix-blend-mode:multiply">
<rect x="181.322" y="159.958" width="7.33398" height="2.72363" rx="1.36182" fill="#00C1FE" fill-opacity="0.4"/>
</g>
<g style="mix-blend-mode:multiply">
<rect x="172.217" y="169.351" width="7.33398" height="2.72363" rx="1.36182" fill="#00C1FE" fill-opacity="0.4"/>
</g>
<g style="mix-blend-mode:multiply">
<rect x="181.322" y="170.5" width="7.33398" height="2.72363" rx="1.36182" fill="#00C1FE" fill-opacity="0.4"/>
</g>
<line x1="126.5" y1="143" x2="126.5" y2="179" stroke="#00C1FE" stroke-dasharray="1 1"/>
<path d="M153.005 139.364L152.159 139.496V139.515H95.8828L95.1425 139.444C87.3552 138.69 81.2539 132.073 81.2539 124.01C81.2539 115.44 88.1458 108.505 96.6311 108.505C97.843 108.505 99.0209 108.646 100.15 108.913L101.522 109.237L101.374 107.835C101.344 107.552 101.329 107.264 101.329 106.973C101.329 102.519 104.91 98.9215 109.31 98.9215C111.466 98.9215 113.422 99.7827 114.86 101.187L115.918 102.22L116.483 100.853C119.278 94.0861 125.899 89.3379 133.612 89.3379C143.848 89.3379 152.159 97.7026 152.159 108.038C152.159 109.608 151.967 111.133 151.606 112.589L151.298 113.829H152.159V113.849L153.005 113.98C159.102 114.929 163.781 120.246 163.781 126.672C163.781 133.099 159.102 138.415 153.005 139.364Z" stroke="#76A3D3" stroke-width="2"/>
<path fill-rule="evenodd" clip-rule="evenodd" d="M111.216 105.039C110.039 104.299 109.174 104.159 108.458 104.495C107.557 104.917 107.155 105.277 106.976 105.505C106.829 105.692 106.772 105.86 106.762 106.11C106.748 106.425 106.811 106.839 106.969 107.493C107.004 107.641 107.047 107.808 107.093 107.99V107.99C107.339 108.955 106.701 109.89 105.721 110.066L104.904 110.212C104.161 110.346 103.44 109.853 103.253 109.122V109.122C103.198 108.908 103.141 108.681 103.08 108.432C102.911 107.729 102.726 106.851 102.765 105.937C102.808 104.957 103.105 103.956 103.833 103.031C104.529 102.147 105.523 101.453 106.76 100.873C109.34 99.6642 111.766 100.66 113.345 101.652C114.162 102.166 114.873 102.751 115.424 103.228C115.684 103.453 115.882 103.629 116.039 103.769V103.769C116.304 104.005 116.359 104.418 116.149 104.705L114.94 106.358C114.514 106.942 113.709 107.051 113.168 106.571V106.571C113.039 106.456 112.915 106.347 112.804 106.251C112.31 105.822 111.777 105.392 111.216 105.039ZM93.7529 117.726C91.5392 118.663 89.6731 120.045 88.726 122.228C87.94 124.039 88.5419 125.957 90.2076 127.844C91.2883 129.068 92.6567 130.074 93.8896 130.746C94.8593 131.276 95.4777 132.394 95.1742 133.456V133.456C94.8706 134.518 93.7585 135.135 92.7612 134.66C90.8757 133.762 88.8048 132.299 87.2087 130.491C85.0537 128.049 83.3845 124.489 85.0566 120.636C86.5675 117.154 89.4666 115.196 92.194 114.042C94.5096 113.062 96.908 112.582 98.4714 112.269V112.269C98.8576 112.191 99.2363 112.439 99.3177 112.824L99.8275 115.238C99.9212 115.681 99.6376 116.115 99.1936 116.205V116.205C97.6128 116.524 95.6599 116.919 93.7529 117.726Z" fill="#00C1FE" fill-opacity="0.3"/>
<path d="M116.833 133.736H151.256" stroke="#00C1FE" stroke-opacity="0.5" stroke-width="4"/>
<path fill-rule="evenodd" clip-rule="evenodd" d="M241.754 113.564C241.488 113.368 241.22 113.173 240.951 112.98L240.369 113.793C240.634 113.983 240.897 114.175 241.16 114.369L241.754 113.564ZM240.141 112.408L239.57 113.229C239.302 113.042 239.033 112.858 238.762 112.675L239.321 111.846C239.596 112.032 239.869 112.219 240.141 112.408ZM238.495 111.298L237.948 112.134C237.675 111.956 237.401 111.779 237.125 111.605L237.661 110.76C237.94 110.937 238.218 111.117 238.495 111.298ZM236.818 110.235L236.295 111.087C236.017 110.916 235.738 110.748 235.458 110.581L235.969 109.721C236.253 109.89 236.536 110.061 236.818 110.235ZM235.113 109.22L234.614 110.087C234.331 109.924 234.047 109.764 233.762 109.605L234.248 108.731C234.538 108.892 234.826 109.055 235.113 109.22ZM233.377 108.255L232.904 109.135C232.617 108.981 232.329 108.829 232.04 108.678L232.501 107.791C232.794 107.944 233.086 108.098 233.377 108.255ZM231.617 107.34L231.168 108.234C230.877 108.087 230.584 107.943 230.29 107.801L230.725 106.901C231.024 107.045 231.321 107.191 231.617 107.34ZM229.83 106.475L229.407 107.382C229.112 107.244 228.815 107.108 228.518 106.975L228.927 106.063C229.229 106.198 229.53 106.336 229.83 106.475ZM228.018 105.662L227.622 106.581C227.323 106.451 227.022 106.324 226.721 106.199L227.104 105.276C227.41 105.402 227.715 105.531 228.018 105.662ZM226.185 104.902L225.816 105.832C225.513 105.711 225.209 105.593 224.904 105.476L225.26 104.542C225.57 104.66 225.878 104.78 226.185 104.902ZM224.329 104.194L223.986 105.134C223.681 105.022 223.374 104.913 223.066 104.806L223.396 103.861C223.708 103.97 224.019 104.081 224.329 104.194ZM222.456 103.541L222.141 104.49C221.831 104.387 221.521 104.286 221.209 104.188L221.511 103.234C221.827 103.335 222.142 103.437 222.456 103.541ZM220.563 102.942L220.275 103.899C219.963 103.805 219.651 103.714 219.337 103.624L219.612 102.663C219.93 102.753 220.247 102.846 220.563 102.942ZM218.655 102.397L218.394 103.362C218.079 103.277 217.763 103.195 217.447 103.114L217.693 102.145C218.015 102.227 218.335 102.311 218.655 102.397ZM216.732 101.908L216.499 102.88C216.182 102.804 215.865 102.731 215.546 102.659L215.765 101.684C216.088 101.756 216.41 101.831 216.732 101.908ZM214.793 101.473L214.588 102.452C214.27 102.385 213.951 102.321 213.631 102.259L213.821 101.277C214.146 101.34 214.47 101.406 214.793 101.473ZM212.847 101.095L212.67 102.08C212.349 102.022 212.028 101.967 211.705 101.914L211.867 100.927C212.195 100.981 212.521 101.037 212.847 101.095ZM210.885 100.773L210.737 101.762C210.416 101.713 210.094 101.668 209.771 101.624L209.905 100.633C210.233 100.677 210.559 100.724 210.885 100.773ZM208.921 100.507L208.801 101.5C208.477 101.461 208.152 101.424 207.827 101.389L207.932 100.395C208.262 100.43 208.592 100.467 208.921 100.507ZM206.946 100.297L206.854 101.293C206.531 101.263 206.206 101.235 205.881 101.21L205.959 100.213C206.288 100.239 206.617 100.267 206.946 100.297ZM204.967 100.143L204.904 101.141C204.578 101.121 204.251 101.102 203.924 101.086L203.973 100.087C204.305 100.104 204.637 100.122 204.967 100.143ZM202.985 100.046L202.95 101.045C202.625 101.034 202.299 101.024 201.973 101.017L201.994 100.018C202.325 100.025 202.656 100.034 202.985 100.046ZM200.999 100.004L200.992 101.004C200.828 101.003 200.664 101.002 200.5 101.002C200.336 101.002 200.172 101.003 200.009 101.004L200.002 100.004C200.168 100.003 200.334 100.002 200.5 100.002C200.667 100.002 200.833 100.003 200.999 100.004ZM199.007 100.018L199.028 101.017C198.701 101.024 198.375 101.034 198.05 101.045L198.015 100.046C198.345 100.034 198.676 100.025 199.007 100.018ZM197.027 100.087L197.076 101.086C196.749 101.102 196.422 101.121 196.096 101.141L196.033 100.143C196.364 100.122 196.695 100.104 197.027 100.087ZM195.042 100.213L195.119 101.21C194.794 101.235 194.47 101.263 194.146 101.293L194.055 100.297C194.383 100.267 194.712 100.239 195.042 100.213ZM193.068 100.395L193.174 101.389C192.848 101.424 192.524 101.461 192.2 101.5L192.08 100.507C192.409 100.467 192.738 100.43 193.068 100.395ZM191.095 100.633L191.229 101.624C190.907 101.668 190.585 101.713 190.263 101.762L190.115 100.773C190.441 100.724 190.768 100.677 191.095 100.633ZM189.133 100.927L189.295 101.914C188.973 101.967 188.651 102.022 188.33 102.08L188.154 101.095C188.48 101.037 188.806 100.981 189.133 100.927ZM170.275 106.901L170.711 107.801C170.417 107.943 170.124 108.087 169.832 108.234L169.384 107.34C169.68 107.191 169.977 107.045 170.275 106.901ZM168.5 107.791L168.961 108.678C168.672 108.829 168.384 108.981 168.097 109.135L167.623 108.255C167.914 108.098 168.206 107.944 168.5 107.791ZM166.752 108.731L167.238 109.605C166.953 109.764 166.669 109.924 166.387 110.087L165.888 109.22C166.175 109.055 166.463 108.892 166.752 108.731ZM165.032 109.721L165.543 110.581C165.262 110.748 164.983 110.916 164.706 111.087L164.182 110.234C164.464 110.061 164.747 109.89 165.032 109.721ZM154.613 221.701L155.274 220.95C155.519 221.166 155.765 221.379 156.013 221.591L155.363 222.351C155.112 222.136 154.862 221.92 154.613 221.701ZM156.122 222.991L156.761 222.222C157.012 222.43 157.264 222.637 157.518 222.842L156.89 223.62C156.633 223.412 156.377 223.202 156.122 222.991ZM157.667 224.237L158.284 223.45C158.54 223.652 158.799 223.851 159.058 224.048L158.453 224.844C158.189 224.644 157.927 224.442 157.667 224.237ZM159.247 225.44L159.841 224.635C160.103 224.829 160.367 225.021 160.632 225.211L160.049 226.024C159.78 225.831 159.513 225.636 159.247 225.44ZM160.86 226.596C161.132 226.785 161.405 226.972 161.679 227.157L162.238 226.328C161.968 226.146 161.699 225.962 161.431 225.775L160.86 226.596ZM162.505 227.706L163.053 226.869C163.326 227.048 163.6 227.224 163.875 227.399L163.34 228.244C163.06 228.066 162.782 227.887 162.505 227.706ZM164.182 228.769L164.706 227.917C164.983 228.088 165.262 228.256 165.543 228.423L165.032 229.283C164.747 229.113 164.464 228.942 164.182 228.769ZM165.888 229.784L166.387 228.917C166.669 229.079 166.953 229.24 167.238 229.399L166.752 230.273C166.463 230.112 166.175 229.949 165.888 229.784ZM167.623 230.749L168.097 229.869C168.384 230.023 168.672 230.175 168.961 230.325L168.5 231.213C168.206 231.06 167.914 230.906 167.623 230.749ZM169.384 231.664L169.832 230.77C170.124 230.917 170.417 231.061 170.711 231.203L170.275 232.103C169.977 231.959 169.68 231.813 169.384 231.664ZM171.171 232.529C171.471 232.668 171.771 232.806 172.073 232.941L172.483 232.029C172.185 231.895 171.889 231.76 171.594 231.622L171.171 232.529ZM172.983 233.342L173.379 232.423C173.678 232.553 173.978 232.68 174.28 232.805L173.897 233.728C173.591 233.601 173.286 233.473 172.983 233.342ZM174.815 234.102L175.185 233.172C175.488 233.293 175.792 233.411 176.097 233.528L175.74 234.462C175.431 234.344 175.123 234.224 174.815 234.102ZM176.672 234.809L177.015 233.87C177.32 233.982 177.627 234.091 177.934 234.198L177.605 235.143C177.293 235.034 176.982 234.923 176.672 234.809ZM178.544 235.463L178.86 234.514C179.169 234.617 179.48 234.718 179.792 234.816L179.49 235.77C179.173 235.669 178.858 235.567 178.544 235.463ZM180.437 236.062L180.726 235.105C181.037 235.198 181.35 235.29 181.663 235.38L181.389 236.341C181.071 236.25 180.753 236.157 180.437 236.062ZM182.346 236.607L182.606 235.641C182.921 235.726 183.237 235.809 183.554 235.89L183.307 236.859C182.986 236.777 182.665 236.693 182.346 236.607ZM184.269 237.096L184.502 236.124C184.818 236.2 185.136 236.273 185.454 236.345L185.236 237.32C184.913 237.248 184.59 237.173 184.269 237.096ZM186.208 237.531L186.412 236.552C186.731 236.619 187.05 236.683 187.37 236.745L187.179 237.727C186.855 237.664 186.531 237.598 186.208 237.531ZM188.154 237.909L188.33 236.924C188.651 236.982 188.973 237.037 189.296 237.09L189.133 238.077C188.806 238.023 188.48 237.967 188.154 237.909ZM190.115 238.231L190.264 237.242C190.585 237.29 190.907 237.336 191.229 237.38L191.095 238.371C190.768 238.327 190.441 238.28 190.115 238.231ZM192.08 238.497L192.2 237.504C192.524 237.543 192.849 237.58 193.174 237.615L193.068 238.609C192.738 238.574 192.409 238.537 192.08 238.497ZM194.055 238.707L194.146 237.711C194.47 237.741 194.795 237.769 195.12 237.794L195.042 238.791C194.712 238.765 194.383 238.737 194.055 238.707ZM196.033 238.861L196.097 237.863C196.423 237.883 196.749 237.902 197.076 237.918L197.027 238.917C196.695 238.9 196.364 238.882 196.033 238.861ZM198.015 238.958L198.05 237.959C198.376 237.97 198.701 237.98 199.028 237.986L199.007 238.986C198.676 238.979 198.345 238.97 198.015 238.958ZM200.002 239L200.009 238C200.117 238.001 200.226 238.001 200.335 238.002C200.39 238.002 200.445 238.002 200.5 238.002C200.664 238.002 200.828 238.001 200.992 238L200.999 239C200.833 239.001 200.667 239.002 200.5 239.002C200.334 239.002 200.168 239.001 200.002 239ZM201.994 238.986L201.973 237.986C202.299 237.98 202.625 237.97 202.95 237.959L202.986 238.958C202.656 238.97 202.325 238.979 201.994 238.986ZM203.974 238.917L203.924 237.918C204.252 237.902 204.578 237.883 204.904 237.863L204.967 238.861C204.637 238.882 204.305 238.9 203.974 238.917ZM205.959 238.791L205.881 237.794C206.206 237.769 206.531 237.741 206.854 237.711L206.946 238.707C206.617 238.737 206.288 238.765 205.959 238.791ZM207.932 238.609L207.827 237.615C208.152 237.58 208.477 237.543 208.801 237.504L208.921 238.497C208.592 238.537 208.263 238.574 207.932 238.609ZM209.905 238.371L209.771 237.38C210.094 237.336 210.416 237.29 210.737 237.242L210.885 238.231C210.559 238.28 210.233 238.327 209.905 238.371ZM211.867 238.077L211.705 237.09C212.028 237.037 212.349 236.982 212.67 236.924L212.847 237.909C212.521 237.967 212.195 238.023 211.867 238.077ZM213.821 237.727L213.631 236.745C213.951 236.683 214.27 236.619 214.588 236.552L214.793 237.531C214.47 237.598 214.146 237.664 213.821 237.727ZM215.765 237.32L215.546 236.345C215.865 236.273 216.182 236.2 216.499 236.124L216.732 237.096C216.41 237.173 216.088 237.248 215.765 237.32ZM217.693 236.859L217.447 235.89C217.763 235.809 218.079 235.726 218.394 235.641L218.655 236.607C218.335 236.693 218.015 236.777 217.693 236.859ZM219.612 236.341L219.337 235.38C219.651 235.29 219.964 235.198 220.275 235.105L220.563 236.062C220.247 236.157 219.93 236.25 219.612 236.341ZM221.511 235.77L221.209 234.816C221.521 234.718 221.831 234.617 222.141 234.514L222.456 235.463C222.142 235.567 221.827 235.669 221.511 235.77ZM223.396 235.143L223.066 234.198C223.374 234.091 223.681 233.982 223.986 233.87L224.329 234.809C224.019 234.923 223.708 235.034 223.396 235.143ZM225.26 234.462C225.57 234.344 225.878 234.224 226.185 234.102L225.816 233.172C225.513 233.293 225.209 233.411 224.904 233.528L225.26 234.462ZM227.104 233.728L226.721 232.805C227.022 232.68 227.323 232.553 227.622 232.423L228.018 233.341C227.715 233.473 227.41 233.601 227.104 233.728ZM228.927 232.941L228.518 232.029C228.815 231.895 229.112 231.76 229.407 231.622L229.83 232.529C229.53 232.668 229.229 232.806 228.927 232.941ZM230.725 232.103L230.29 231.203C230.584 231.061 230.877 230.917 231.168 230.77L231.617 231.664C231.321 231.813 231.024 231.959 230.725 232.103ZM232.501 231.213L232.04 230.325C232.329 230.175 232.617 230.023 232.904 229.869L233.377 230.749C233.086 230.906 232.794 231.06 232.501 231.213ZM234.248 230.273L233.762 229.399C234.047 229.24 234.331 229.079 234.614 228.917L235.113 229.784C234.826 229.949 234.538 230.112 234.248 230.273ZM235.969 229.283L235.458 228.423C235.738 228.256 236.017 228.088 236.295 227.917L236.818 228.769C236.536 228.942 236.253 229.113 235.969 229.283ZM237.661 228.244L237.125 227.399C237.401 227.224 237.675 227.048 237.948 226.869L238.495 227.706C238.218 227.887 237.94 228.067 237.661 228.244ZM239.321 227.157L238.762 226.328C239.033 226.146 239.302 225.962 239.57 225.775L240.141 226.596C239.869 226.785 239.596 226.972 239.321 227.157ZM240.951 226.024L240.369 225.211C240.634 225.021 240.897 224.829 241.16 224.635L241.754 225.44C241.488 225.636 241.22 225.831 240.951 226.024ZM242.548 224.844L241.942 224.048C242.202 223.851 242.46 223.652 242.717 223.45L243.334 224.237C243.073 224.442 242.811 224.644 242.548 224.844ZM244.11 223.62C244.368 223.412 244.624 223.203 244.878 222.991L244.239 222.222C243.989 222.43 243.736 222.637 243.482 222.842L244.11 223.62ZM245.637 222.351L244.988 221.591C245.236 221.379 245.482 221.166 245.727 220.95L246.387 221.701C246.139 221.92 245.889 222.136 245.637 222.351ZM247.128 221.04L246.457 220.299C246.698 220.08 246.939 219.86 247.177 219.637L247.859 220.369C247.617 220.595 247.373 220.818 247.128 221.04ZM248.58 219.687L247.888 218.965C248.124 218.74 248.358 218.512 248.59 218.283L249.292 218.996C249.056 219.228 248.819 219.458 248.58 219.687ZM249.994 218.294L249.282 217.592C249.511 217.359 249.738 217.126 249.964 216.89L250.686 217.582C250.457 217.821 250.226 218.058 249.994 218.294ZM251.367 216.861L250.636 216.179C250.858 215.94 251.078 215.7 251.297 215.458L252.039 216.129C251.817 216.375 251.593 216.618 251.367 216.861ZM252.699 215.389L251.949 214.728C252.164 214.484 252.378 214.237 252.59 213.989L253.35 214.639C253.135 214.891 252.918 215.141 252.699 215.389ZM253.99 213.88L253.22 213.241C253.429 212.99 253.635 212.738 253.84 212.484L254.618 213.112C254.41 213.37 254.201 213.626 253.99 213.88ZM255.236 212.335L254.449 211.718C254.65 211.462 254.849 211.204 255.047 210.944L255.843 211.55C255.642 211.813 255.44 212.075 255.236 212.335ZM256.438 210.755L255.634 210.161C255.827 209.899 256.019 209.635 256.209 209.37L257.022 209.953C256.829 210.222 256.635 210.489 256.438 210.755ZM257.595 209.142L256.774 208.571C256.96 208.303 257.144 208.034 257.327 207.764L258.156 208.323C257.971 208.598 257.784 208.871 257.595 209.142ZM258.705 207.497L257.868 206.949C258.046 206.677 258.223 206.402 258.397 206.127L259.242 206.662C259.065 206.942 258.886 207.22 258.705 207.497ZM259.768 205.82L258.916 205.297C259.086 205.019 259.255 204.74 259.421 204.46L260.281 204.971C260.112 205.255 259.941 205.538 259.768 205.82ZM260.782 204.114L259.915 203.615C260.078 203.333 260.238 203.049 260.397 202.764L261.271 203.25C261.11 203.539 260.947 203.827 260.782 204.114ZM261.748 202.379L260.867 201.905C261.021 201.618 261.173 201.33 261.324 201.041L262.211 201.502C262.059 201.796 261.904 202.088 261.748 202.379ZM262.663 200.618L261.769 200.17C261.915 199.878 262.059 199.585 262.201 199.291L263.102 199.727C262.957 200.025 262.811 200.322 262.663 200.618ZM263.527 198.831L262.621 198.409C262.758 198.113 262.894 197.817 263.027 197.519L263.94 197.929C263.804 198.231 263.667 198.532 263.527 198.831ZM264.34 197.02C264.471 196.716 264.6 196.411 264.727 196.106L263.803 195.723C263.678 196.024 263.551 196.324 263.422 196.623L264.34 197.02Z" fill="#00C1FE"/>
<g style="mix-blend-mode:multiply">
<circle cx="62.9912" cy="199" r="3.99121" fill="#89DFFF"/>
</g>
<circle cx="62" cy="199" r="5" stroke="#003E6E" stroke-opacity="0.5" stroke-width="2"/>
<line x1="68" y1="199.5" x2="99" y2="199.5" stroke="#00C1FE" stroke-dasharray="1 1"/>
<line x1="29" y1="199.5" x2="56" y2="199.5" stroke="#00C1FE" stroke-dasharray="1 1"/>
<line x1="62.5" y1="181" x2="62.5" y2="193" stroke="#00C1FE" stroke-dasharray="1 1"/>
<rect width="26" height="48" transform="translate(49 133.234)" fill="white"/>
<rect x="49" y="133.234" width="26" height="48" rx="2" stroke="#003E6E" stroke-opacity="0.5" stroke-width="2"/>
<rect x="55" y="139.734" width="14" height="3" rx="1.5" fill="#96E5FE"/>
<circle cx="62" cy="170.234" r="2.5" stroke="white"/>
<g style="mix-blend-mode:multiply">
<circle cx="62.8809" cy="169.236" r="2.49121" fill="#89DFFF"/>
</g>
<rect x="55.8809" y="146.484" width="14" height="3" rx="1.5" fill="#96E5FE"/>
<rect x="54.2168" y="154.234" width="14" height="3" rx="1.5" fill="#96E5FE"/>
<rect x="55.5" y="141.734" width="13" height="2" rx="1" stroke="#80A9D6"/>
<rect x="55.5" y="147.734" width="13" height="2" rx="1" stroke="#80A9D6"/>
<rect x="55.5" y="153.734" width="13" height="2" rx="1" stroke="#80A9D6"/>
<rect x="102.572" y="182.273" width="51.4681" height="35.766" rx="2" stroke="#0053AD" stroke-opacity="0.5" stroke-width="2"/>
<rect x="117.901" y="221.156" width="20.8085" height="1.61702" rx="0.808511" stroke="#0053AD" stroke-opacity="0.5"/>
<rect x="126.997" y="218.039" width="2.61702" height="2.61702" fill="#0053AD" fill-opacity="0.5"/>
<path d="M142.822 203.31C142.822 203.111 142.901 202.92 143.042 202.78C143.183 202.639 143.373 202.56 143.572 202.56H145.072C145.271 202.56 145.462 202.639 145.603 202.78C145.743 202.92 145.822 203.111 145.822 203.31V212.31H146.197C146.297 212.31 146.392 212.35 146.462 212.42C146.533 212.49 146.572 212.586 146.572 212.685C146.572 212.785 146.533 212.88 146.462 212.95C146.392 213.021 146.297 213.06 146.197 213.06H134.947C134.848 213.06 134.752 213.021 134.682 212.95C134.612 212.88 134.572 212.785 134.572 212.685C134.572 212.586 134.612 212.49 134.682 212.42C134.752 212.35 134.848 212.31 134.947 212.31H135.322V210.06C135.322 209.861 135.401 209.67 135.542 209.53C135.683 209.389 135.873 209.31 136.072 209.31H137.572C137.771 209.31 137.962 209.389 138.103 209.53C138.243 209.67 138.322 209.861 138.322 210.06V212.31H139.072V207.06C139.072 206.861 139.151 206.67 139.292 206.53C139.433 206.389 139.623 206.31 139.822 206.31H141.322C141.521 206.31 141.712 206.389 141.853 206.53C141.993 206.67 142.072 206.861 142.072 207.06V212.31H142.822V203.31Z" fill="#00C1FE" fill-opacity="0.41"/>
<path d="M122.561 194.763H116.728L112.603 198.888C113.445 199.631 114.478 200.122 115.586 200.307C116.694 200.491 117.831 200.361 118.868 199.932C119.906 199.502 120.802 198.79 121.455 197.876C122.107 196.962 122.491 195.883 122.561 194.763ZM112.072 198.357C111.33 197.515 110.838 196.481 110.653 195.373C110.469 194.266 110.599 193.128 111.029 192.091C111.458 191.054 112.171 190.158 113.084 189.505C113.998 188.852 115.077 188.469 116.197 188.399V194.232L112.072 198.357Z" fill="#89DFFF"/>
<path d="M116.947 194.013V188.399C118.406 188.491 119.782 189.112 120.815 190.145C121.849 191.179 122.47 192.554 122.561 194.013H116.947Z" fill="#3984BA"/>
<path d="M143.616 197.396H135.554V190.692C135.554 190.645 135.512 190.606 135.46 190.606H134.804C134.752 190.606 134.71 190.645 134.71 190.692V198.083C134.71 198.13 134.752 198.169 134.804 198.169H143.616C143.668 198.169 143.71 198.13 143.71 198.083V197.481C143.71 197.434 143.668 197.396 143.616 197.396ZM136.585 195.376C136.585 195.558 136.664 195.733 136.805 195.862C136.945 195.991 137.136 196.063 137.335 196.063C137.534 196.063 137.725 195.991 137.865 195.862C138.006 195.733 138.085 195.558 138.085 195.376C138.085 195.194 138.006 195.019 137.865 194.89C137.725 194.761 137.534 194.688 137.335 194.688C137.136 194.688 136.945 194.761 136.805 194.89C136.664 195.019 136.585 195.194 136.585 195.376ZM141.554 192.046C141.554 192.205 141.623 192.358 141.746 192.471C141.869 192.584 142.036 192.647 142.21 192.647C142.384 192.647 142.551 192.584 142.674 192.471C142.797 192.358 142.866 192.205 142.866 192.046C142.866 191.886 142.797 191.733 142.674 191.621C142.551 191.508 142.384 191.444 142.21 191.444C142.036 191.444 141.869 191.508 141.746 191.621C141.623 191.733 141.554 191.886 141.554 192.046Z" fill="#00C1FE"/>
<path opacity="0.4" d="M138.133 193.334C138.027 193.238 137.968 193.106 137.968 192.97C137.968 192.833 138.027 192.702 138.133 192.605C138.238 192.508 138.381 192.454 138.53 192.454C138.679 192.454 138.823 192.508 138.928 192.605C139.034 192.702 139.093 192.833 139.093 192.97C139.093 193.106 139.034 193.238 138.928 193.334C138.823 193.431 138.679 193.485 138.53 193.485C138.381 193.485 138.238 193.431 138.133 193.334Z" fill="#00C1FE"/>
<path opacity="0.4" d="M140.149 196.148C139.938 195.955 139.819 195.692 139.819 195.419C139.819 195.145 139.938 194.883 140.149 194.69C140.36 194.496 140.646 194.388 140.944 194.388C141.243 194.388 141.529 194.496 141.74 194.69C141.951 194.883 142.069 195.145 142.069 195.419C142.069 195.692 141.951 195.955 141.74 196.148C141.529 196.342 141.243 196.45 140.944 196.45C140.646 196.45 140.36 196.342 140.149 196.148Z" fill="#00C1FE"/>
<path d="M109.656 212.935L115.593 208.554L118.76 210.887L124.373 206.238L125.489 207.061L118.76 212.637L115.593 210.304L110.843 213.81L109.656 212.935V212.935ZM110.843 210.31L115.593 206.804L118.76 209.137L125.489 203.561L124.373 202.738L118.76 207.387L115.593 205.054L109.656 209.435L110.843 210.31V210.31Z" fill="#3984BA"/>
<path d="M190.477 138.5L183.977 136.5H180.477L175.977 139.5L173.477 143.5L172.477 146V151.5L170.977 154L172.477 158.5L174.977 164L175.977 167.5L173.477 169.5L162.477 172.5L160.477 175.5L159.477 182V187.5L160.477 194.5H231.977V192.5L230.477 184.5L228.477 180.5L226.477 178L221.977 175.5V172.5L223.477 169.5V166L221.977 160L220.477 156.5L216.977 153L212.977 151.5H208.477L204.977 153L202.477 156.5L200.977 158.5H197.477L198.477 154V151.5L197.477 147.5L194.977 141L190.477 138.5Z" fill="white"/>
<mask id="path-156-inside-1_379_862727" fill="white">
<path fill-rule="evenodd" clip-rule="evenodd" d="M208.774 184.207L210.166 179.466L209.487 178.732C209.178 178.29 209.111 177.904 209.285 177.573C209.655 176.855 210.419 176.988 211.132 176.988C211.879 176.988 212.8 176.85 213.036 177.766C213.114 178.075 213.013 178.395 212.794 178.726L212.115 179.461L213.507 184.202L211.143 186.034L208.774 184.207ZM180.063 173.864C178.895 172.556 178.794 171.187 180.063 169.741C181.529 170.105 182.871 170.729 184.106 171.573C184.376 171.457 184.684 171.413 184.988 171.43C186.274 170.536 187.913 170.171 189.345 169.498C191.058 171.137 190.872 172.644 189.188 174.046C188.25 173.836 187.352 173.505 186.498 173.08C186.476 173.295 186.42 173.533 186.313 173.792L186.751 177.369H183.258L183.696 173.792C183.421 173.339 183.32 172.953 183.331 172.627C182.32 173.224 181.214 173.61 180.063 173.864ZM175.402 154.761C174.891 154.783 174.498 154.888 174.234 155.059C174.083 155.159 173.971 155.285 173.898 155.44C173.819 155.611 173.78 155.815 173.785 156.053C173.808 156.748 174.173 157.653 174.891 158.696L174.903 158.713L177.222 162.334C178.154 163.785 179.125 165.265 180.338 166.357C181.501 167.406 182.916 168.113 184.78 168.118C186.801 168.124 188.284 167.39 189.485 166.28C190.732 165.132 191.72 163.554 192.692 161.986L195.303 157.758C195.791 156.665 195.965 155.937 195.853 155.506C195.786 155.252 195.499 155.125 195.011 155.103C194.91 155.098 194.803 155.098 194.691 155.098C194.573 155.103 194.455 155.109 194.326 155.12C194.258 155.125 194.191 155.12 194.124 155.109C193.893 155.12 193.652 155.103 193.405 155.07L194.298 151.179C187.666 152.206 182.702 147.365 175.689 150.213L176.194 154.8C175.919 154.805 175.65 154.8 175.402 154.761ZM178.48 170.933C178.435 170.994 178.379 171.049 178.317 171.093C178.536 172.832 178.845 175.062 179.21 177.369H165.419C164.43 177.369 163.627 178.279 163.779 179.389L165.694 193.656H163.942C162.33 193.535 161.51 192.718 161.37 191.294C161.449 184.919 158.984 177.209 165.817 173.466C168.316 172.092 174.768 171.628 177.581 169.818C177.991 169.056 178.446 167.726 178.732 166.865C178.71 166.926 178.788 166.694 178.772 166.749L178.8 166.667C177.766 165.574 176.919 164.288 176.11 163.018L173.791 159.397C172.943 158.156 172.505 157.019 172.477 156.086C172.466 155.65 172.539 155.247 172.707 154.899C172.881 154.535 173.145 154.226 173.505 153.988C173.673 153.878 173.858 153.784 174.066 153.707C173.914 151.742 173.858 149.264 173.959 147.194C174.01 146.703 174.105 146.212 174.246 145.72C175.094 142.74 177.699 140.593 180.675 139.583C182.118 139.092 181.562 137.921 183.022 138.004C186.481 138.192 191.821 140.383 193.871 142.707C196.746 145.963 196.005 149.976 195.909 153.95C196.549 154.143 196.965 154.54 197.133 155.192C197.319 155.909 197.117 156.925 196.499 158.305C196.488 158.332 196.476 158.354 196.46 158.376L193.82 162.654C192.804 164.304 191.771 165.955 190.39 167.224L190.322 167.285C190.451 167.472 190.597 167.677 190.749 167.892C191.209 168.554 191.732 169.305 192.214 169.895C195.084 171.651 201.401 172.12 203.866 173.477C204.456 173.803 204.972 174.167 205.421 174.57C205.803 174.239 206.168 173.919 206.46 173.654C206.326 173.505 206.191 173.351 206.056 173.201L204.787 171.75L203.844 171.772L202.047 171.816C200.503 170.072 200.598 166.319 200.75 164.155C201.468 159.806 203.181 156.671 205.966 154.86C207.853 153.635 208.982 153.563 211.188 153.563C213.114 153.563 214.294 153.519 215.939 154.585C221.29 158.051 222.952 166.225 220.336 171.733H218.466L218.348 171.871L218.179 172.064L217.365 173.025C217.039 173.406 216.714 173.792 216.36 174.151C216.809 174.581 217.416 175.106 217.972 175.586C218.235 175.812 218.488 176.027 218.713 176.226C227.085 179.505 228.927 181.414 229.949 192.028C230.14 193.988 230.117 193.899 228.208 193.938C221.139 194.076 212.126 193.938 203.973 193.905L204.006 193.656L205.921 179.389C206.073 178.279 205.27 177.369 204.282 177.369H190.799C191.131 175.034 191.372 172.81 191.49 171.126C190.861 170.442 190.187 169.47 189.615 168.637C189.485 168.455 189.362 168.273 189.244 168.107C188.031 168.907 186.588 169.399 184.78 169.399C182.764 169.393 181.197 168.714 179.895 167.677C179.53 168.753 178.996 170.227 178.48 170.933ZM205.977 175.133C208.813 178.307 208.369 183.313 208.257 187.839L211.138 192.542L218.157 181.094L221.206 181.166C220.498 179.764 219.656 178.511 218.713 177.336C218.46 177.082 217.96 176.651 217.421 176.188C216.843 175.691 216.22 175.15 215.754 174.703C215.563 174.863 215.366 175.017 215.153 175.155C214.243 175.768 213.114 176.176 211.581 176.171C210.144 176.171 209.066 175.774 208.179 175.194C207.741 174.907 207.353 174.576 206.999 174.228C206.696 174.504 206.342 174.813 205.977 175.133Z"/>
</mask>
<path d="M205.124 171.099L204.645 171.241L204.707 171.451L204.903 171.547L205.124 171.099ZM208.358 157.499L208.835 157.348L208.59 156.571L208.008 157.142L208.358 157.499ZM217.915 165.667L217.468 165.89L217.468 165.891L217.915 165.667ZM218.37 169.763L218.864 169.84L218.865 169.838L218.37 169.763ZM218.067 171.099L218.312 171.535L218.487 171.436L218.545 171.244L218.067 171.099ZM217.64 171.557L218.014 171.889L218.017 171.885L217.64 171.557ZM217.472 171.755L217.852 172.08L217.858 172.073L217.472 171.755ZM216.652 172.716L216.272 172.391L216.271 172.392L216.652 172.716ZM214.597 174.725L214.319 174.309L214.317 174.31L214.597 174.725ZM208.723 174.763L208.449 175.182L208.451 175.183L208.723 174.763ZM206.73 172.881L206.354 173.211L206.354 173.211L206.73 172.881ZM205.247 171.187L205.624 170.858L205.611 170.844L205.598 170.83L205.247 171.187ZM179.206 167.026L179.245 166.91L178.298 166.589L178.259 166.705L179.206 167.026ZM205.603 170.956C204.874 168.502 204.69 166.177 205.16 164.001C205.629 161.828 206.758 159.77 208.709 157.856L208.008 157.142C205.933 159.179 204.697 161.407 204.182 163.789C203.669 166.168 203.88 168.667 204.645 171.241L205.603 170.956ZM207.881 157.649C208.29 158.945 209.545 160.162 210.938 161.193C212.355 162.241 214.018 163.17 215.385 163.866L215.838 162.974C214.492 162.29 212.885 161.39 211.533 160.389C210.155 159.369 209.14 158.315 208.835 157.348L207.881 157.649ZM215.327 163.838C216.18 164.252 216.93 164.808 217.468 165.89L218.363 165.445C217.699 164.11 216.753 163.418 215.764 162.938L215.327 163.838ZM217.468 165.891C218.098 167.155 218.099 168.216 217.876 169.688L218.865 169.838C219.102 168.274 219.125 166.973 218.363 165.444L217.468 165.891ZM217.876 169.686C217.807 170.133 217.711 170.551 217.589 170.953L218.545 171.244C218.682 170.796 218.788 170.331 218.864 169.84L217.876 169.686ZM217.822 170.663C217.759 170.698 217.662 170.76 217.579 170.858L218.342 171.505C218.326 171.523 218.314 171.532 218.311 171.535C218.307 171.538 218.307 171.537 218.312 171.535L217.822 170.663ZM217.579 170.858C217.465 170.993 217.361 171.116 217.263 171.228L218.017 171.885C218.121 171.766 218.231 171.635 218.342 171.505L217.579 170.858ZM217.267 171.224C217.222 171.274 217.184 171.318 217.086 171.438L217.858 172.073C217.95 171.961 217.98 171.927 218.014 171.889L217.267 171.224ZM217.092 171.431L216.272 172.391L217.032 173.04L217.852 172.08L217.092 171.431ZM216.271 172.392C215.64 173.135 215.054 173.819 214.319 174.309L214.874 175.141C215.745 174.56 216.418 173.764 217.033 173.039L216.271 172.392ZM214.317 174.31C213.632 174.773 212.781 175.086 211.576 175.086V176.086C212.976 176.086 214.023 175.715 214.876 175.139L214.317 174.31ZM211.576 175.086C210.484 175.086 209.668 174.781 208.996 174.344L208.451 175.183C209.272 175.717 210.276 176.086 211.576 176.086V175.086ZM208.997 174.345C208.287 173.88 207.705 173.235 207.106 172.552L206.354 173.211C206.945 173.885 207.609 174.631 208.449 175.182L208.997 174.345ZM207.106 172.552L205.624 170.858L204.871 171.516L206.354 173.211L207.106 172.552ZM205.598 170.83C205.53 170.763 205.442 170.698 205.344 170.65L204.903 171.547C204.9 171.546 204.898 171.545 204.898 171.544C204.897 171.544 204.897 171.544 204.898 171.544C204.898 171.545 204.898 171.545 204.899 171.545C204.899 171.545 204.898 171.545 204.897 171.543L205.598 170.83ZM179.21 177.869H183.258V176.869H179.21V177.869ZM190.799 176.869H186.751V177.869H190.799V176.869ZM208.774 184.207L207.814 183.925L207.622 184.582L208.163 184.999L208.774 184.207ZM210.166 179.466L211.126 179.748L211.286 179.203L210.9 178.787L210.166 179.466ZM209.487 178.732L208.667 179.305L208.707 179.361L208.753 179.411L209.487 178.732ZM209.285 177.573L210.17 178.038L210.173 178.032L209.285 177.573ZM213.036 177.766L214.005 177.52L214.004 177.517L213.036 177.766ZM212.794 178.726L213.528 179.406L213.584 179.346L213.628 179.278L212.794 178.726ZM212.115 179.461L211.381 178.781L210.995 179.198L211.155 179.742L212.115 179.461ZM213.507 184.202L214.12 184.992L214.659 184.574L214.467 183.92L213.507 184.202ZM211.143 186.034L210.533 186.826L211.145 187.298L211.756 186.824L211.143 186.034ZM180.063 173.864L179.317 174.53L179.707 174.966L180.278 174.84L180.063 173.864ZM180.063 169.741L180.304 168.77L179.713 168.623L179.311 169.081L180.063 169.741ZM184.106 171.573L183.542 172.399L183.996 172.709L184.501 172.492L184.106 171.573ZM184.988 171.43L184.933 172.428L185.276 172.447L185.559 172.251L184.988 171.43ZM189.345 169.498L190.037 168.776L189.541 168.301L188.92 168.593L189.345 169.498ZM189.188 174.046L188.97 175.022L189.45 175.129L189.828 174.815L189.188 174.046ZM186.498 173.08L186.944 172.185L185.653 171.542L185.504 172.976L186.498 173.08ZM186.313 173.792L185.388 173.412L185.288 173.654L185.32 173.914L186.313 173.792ZM186.751 177.369V178.369H187.881L187.743 177.247L186.751 177.369ZM183.258 177.369L182.266 177.247L182.128 178.369H183.258V177.369ZM183.696 173.792L184.689 173.914L184.731 173.569L184.551 173.273L183.696 173.792ZM183.331 172.627L184.331 172.662L184.393 170.84L182.823 171.766L183.331 172.627ZM175.402 154.761L175.557 153.773L175.459 153.758L175.359 153.762L175.402 154.761ZM174.234 155.059L173.69 154.22L173.686 154.223L174.234 155.059ZM173.898 155.44L172.993 155.013L172.989 155.023L173.898 155.44ZM173.785 156.053L172.786 156.076L172.786 156.085L173.785 156.053ZM174.891 158.696L175.719 158.135L175.715 158.129L174.891 158.696ZM174.903 158.713L175.745 158.174L175.738 158.163L175.73 158.152L174.903 158.713ZM177.222 162.334L176.38 162.873L176.38 162.874L177.222 162.334ZM180.338 166.357L181.008 165.615L181.008 165.615L180.338 166.357ZM184.78 168.118L184.777 169.118H184.777L184.78 168.118ZM189.485 166.28L188.808 165.545L188.807 165.545L189.485 166.28ZM192.692 161.986L193.542 162.513L193.543 162.511L192.692 161.986ZM195.303 157.758L196.154 158.284L196.189 158.227L196.216 158.166L195.303 157.758ZM195.853 155.506L196.821 155.254L196.82 155.25L195.853 155.506ZM195.011 155.103L194.956 156.102L194.966 156.102L195.011 155.103ZM194.691 155.098V154.098H194.667L194.644 154.099L194.691 155.098ZM194.326 155.12L194.407 156.117L194.411 156.116L194.326 155.12ZM194.124 155.109L194.285 154.122L194.181 154.105L194.076 154.11L194.124 155.109ZM193.405 155.07L192.43 154.847L192.185 155.916L193.272 156.061L193.405 155.07ZM194.298 151.179L195.272 151.403L195.602 149.965L194.145 150.191L194.298 151.179ZM175.689 150.213L175.313 149.287L174.612 149.571L174.695 150.323L175.689 150.213ZM176.194 154.8L176.214 155.8L177.308 155.778L177.188 154.69L176.194 154.8ZM178.48 170.933L179.283 171.528L179.287 171.523L178.48 170.933ZM178.317 171.093L177.735 170.28L177.25 170.626L177.325 171.218L178.317 171.093ZM179.21 177.369V178.369H180.38L180.197 177.212L179.21 177.369ZM163.779 179.389L164.77 179.256L164.77 179.253L163.779 179.389ZM165.694 193.656V194.656H166.837L166.685 193.523L165.694 193.656ZM163.942 193.656L163.867 194.654L163.904 194.656H163.942V193.656ZM161.37 191.294L160.37 191.282L160.369 191.337L160.375 191.392L161.37 191.294ZM165.817 173.466L166.298 174.344L166.299 174.343L165.817 173.466ZM177.581 169.818L178.122 170.659L178.339 170.519L178.462 170.292L177.581 169.818ZM178.732 166.865L179.681 167.181L177.794 166.518L178.732 166.865ZM178.772 166.749L177.815 166.457L179.719 167.07L178.772 166.749ZM178.8 166.667L179.747 166.988L179.94 166.417L179.526 165.98L178.8 166.667ZM176.11 163.018L176.953 162.481L176.952 162.479L176.11 163.018ZM173.791 159.397L174.633 158.858L174.625 158.846L174.617 158.834L173.791 159.397ZM172.477 156.086L171.477 156.112L171.477 156.116L172.477 156.086ZM172.707 154.899L173.607 155.335L173.609 155.33L172.707 154.899ZM173.505 153.988L172.956 153.152L172.953 153.154L173.505 153.988ZM174.066 153.707L174.415 154.644L175.121 154.381L175.063 153.63L174.066 153.707ZM173.959 147.194L172.965 147.092L172.962 147.118L172.961 147.145L173.959 147.194ZM174.246 145.72L175.207 145.995L175.208 145.994L174.246 145.72ZM180.675 139.583L180.997 140.53L180.997 140.529L180.675 139.583ZM183.022 138.004L182.966 139.003L182.968 139.003L183.022 138.004ZM193.871 142.707L193.121 143.368L193.121 143.369L193.871 142.707ZM195.909 153.95L194.91 153.926L194.891 154.687L195.62 154.907L195.909 153.95ZM197.133 155.192L198.102 154.942L198.102 154.941L197.133 155.192ZM196.499 158.305L195.586 157.896L195.579 157.912L195.573 157.928L196.499 158.305ZM196.46 158.376L195.665 157.77L195.635 157.809L195.609 157.851L196.46 158.376ZM193.82 162.654L192.969 162.129L192.969 162.129L193.82 162.654ZM190.39 167.224L191.059 167.967L191.066 167.96L190.39 167.224ZM190.322 167.285L189.653 166.542L189.001 167.129L189.498 167.852L190.322 167.285ZM190.749 167.892L191.57 167.321L191.566 167.316L190.749 167.892ZM192.214 169.895L191.44 170.528L191.548 170.66L191.693 170.748L192.214 169.895ZM203.866 173.477L204.35 172.602L204.349 172.602L203.866 173.477ZM205.421 174.57L204.754 175.315L205.41 175.904L206.077 175.326L205.421 174.57ZM206.46 173.654L207.132 174.395L207.872 173.724L207.202 172.983L206.46 173.654ZM206.056 173.201L205.303 173.86L205.309 173.866L205.314 173.872L206.056 173.201ZM204.787 171.75L205.54 171.092L205.232 170.739L204.764 170.75L204.787 171.75ZM203.844 171.772L203.82 170.772L203.819 170.772L203.844 171.772ZM202.047 171.816L201.298 172.479L201.606 172.827L202.071 172.816L202.047 171.816ZM200.75 164.155L199.763 163.992L199.755 164.038L199.752 164.085L200.75 164.155ZM205.966 154.86L205.422 154.022L205.421 154.022L205.966 154.86ZM215.939 154.585L216.482 153.745L216.482 153.745L215.939 154.585ZM220.336 171.733V172.733H220.968L221.239 172.162L220.336 171.733ZM218.466 171.733V170.733H218.005L217.705 171.084L218.466 171.733ZM218.348 171.871L219.101 172.529L219.108 172.521L218.348 171.871ZM218.179 172.064L217.426 171.407L217.417 171.418L218.179 172.064ZM217.365 173.025L218.125 173.675L218.128 173.672L217.365 173.025ZM216.36 174.151L215.648 173.449L214.936 174.171L215.668 174.873L216.36 174.151ZM217.972 175.586L217.318 176.343L217.321 176.345L217.972 175.586ZM218.713 176.226L218.05 176.975L218.183 177.093L218.348 177.157L218.713 176.226ZM229.949 192.028L228.953 192.124L228.954 192.125L229.949 192.028ZM228.208 193.938L228.228 194.938L228.228 194.938L228.208 193.938ZM203.973 193.905L202.982 193.77L202.829 194.9L203.969 194.905L203.973 193.905ZM204.006 193.656L204.997 193.791L204.998 193.789L204.006 193.656ZM205.921 179.389L204.93 179.253L204.93 179.256L205.921 179.389ZM190.799 177.369L189.809 177.228L189.648 178.369H190.799V177.369ZM191.49 171.126L192.488 171.196L192.518 170.767L192.226 170.45L191.49 171.126ZM189.615 168.637L190.439 168.071L190.435 168.065L190.43 168.059L189.615 168.637ZM189.244 168.107L190.059 167.527L189.499 166.741L188.693 167.272L189.244 168.107ZM184.78 169.399L184.777 170.399H184.78V169.399ZM179.895 167.677L180.518 166.894L179.405 166.008L178.948 167.355L179.895 167.677ZM205.977 175.133L205.318 174.381L204.559 175.047L205.232 175.8L205.977 175.133ZM208.257 187.839L207.257 187.814L207.25 188.109L207.404 188.361L208.257 187.839ZM211.138 192.542L210.285 193.064L211.137 194.455L211.99 193.064L211.138 192.542ZM218.157 181.094L218.18 180.095L217.605 180.081L217.304 180.572L218.157 181.094ZM221.206 181.166L221.182 182.166L222.85 182.205L222.099 180.715L221.206 181.166ZM218.713 177.336L219.493 176.71L219.459 176.668L219.422 176.63L218.713 177.336ZM217.421 176.188L218.073 175.429L218.073 175.429L217.421 176.188ZM215.754 174.703L216.446 173.981L215.798 173.36L215.111 173.936L215.754 174.703ZM215.153 175.155L214.61 174.316L214.602 174.321L214.594 174.326L215.153 175.155ZM211.581 176.171L211.585 175.171H211.581V176.171ZM208.179 175.194L207.63 176.03L207.632 176.031L208.179 175.194ZM206.999 174.228L207.7 173.515L207.026 172.852L206.326 173.489L206.999 174.228ZM209.733 184.489L211.126 179.748L209.207 179.184L207.814 183.925L209.733 184.489ZM210.9 178.787L210.221 178.053L208.753 179.411L209.432 180.145L210.9 178.787ZM210.306 178.159C210.206 178.016 210.191 177.945 210.19 177.939C210.19 177.939 210.19 177.943 210.191 177.95C210.191 177.957 210.19 177.967 210.189 177.979C210.185 178.004 210.177 178.025 210.17 178.038L208.4 177.108C207.979 177.907 208.251 178.709 208.667 179.305L210.306 178.159ZM210.173 178.032C210.192 177.996 210.196 178.003 210.178 178.015C210.168 178.022 210.181 178.009 210.251 177.997C210.326 177.984 210.43 177.977 210.588 177.978C210.666 177.979 210.745 177.981 210.839 177.983C210.928 177.985 211.029 177.988 211.132 177.988V175.988C210.909 175.988 210.348 175.95 209.909 176.026C209.355 176.122 208.759 176.412 208.396 177.114L210.173 178.032ZM211.132 177.988C211.238 177.988 211.346 177.985 211.439 177.983C211.537 177.981 211.622 177.98 211.704 177.981C211.874 177.982 211.982 177.992 212.055 178.009C212.121 178.024 212.112 178.034 212.082 178.007C212.044 177.974 212.051 177.953 212.067 178.015L214.004 177.517C213.902 177.121 213.706 176.774 213.406 176.509C213.114 176.25 212.784 176.123 212.497 176.058C211.998 175.945 211.375 175.988 211.132 175.988V177.988ZM212.067 178.013C212.058 177.979 212.066 177.961 212.061 177.98C212.054 178.006 212.03 178.07 211.96 178.175L213.628 179.278C213.92 178.838 214.183 178.22 214.005 177.52L212.067 178.013ZM212.06 178.047L211.381 178.781L212.849 180.14L213.528 179.406L212.06 178.047ZM211.155 179.742L212.548 184.484L214.467 183.92L213.074 179.179L211.155 179.742ZM212.895 183.411L210.531 185.244L211.756 186.824L214.12 184.992L212.895 183.411ZM211.754 185.242L209.384 183.415L208.163 184.999L210.533 186.826L211.754 185.242ZM180.809 173.198C180.326 172.657 180.156 172.208 180.149 171.836C180.142 171.469 180.291 170.998 180.815 170.4L179.311 169.081C178.567 169.93 178.131 170.866 178.149 171.872C178.168 172.873 178.632 173.763 179.317 174.53L180.809 173.198ZM179.822 170.711C181.164 171.045 182.397 171.617 183.542 172.399L184.67 170.748C183.344 169.841 181.893 169.165 180.304 168.77L179.822 170.711ZM184.501 172.492C184.606 172.447 184.756 172.419 184.933 172.428L185.042 170.431C184.613 170.408 184.146 170.468 183.711 170.655L184.501 172.492ZM185.559 172.251C186.097 171.876 186.735 171.596 187.469 171.315C188.168 171.047 189.01 170.761 189.771 170.403L188.92 168.593C188.248 168.909 187.555 169.141 186.754 169.447C185.989 169.74 185.164 170.089 184.417 170.609L185.559 172.251ZM188.654 170.22C189.402 170.937 189.562 171.457 189.542 171.804C189.522 172.165 189.291 172.659 188.548 173.277L189.828 174.815C190.769 174.031 191.474 173.07 191.539 171.917C191.605 170.751 191.001 169.699 190.037 168.776L188.654 170.22ZM189.406 173.07C188.555 172.88 187.732 172.577 186.944 172.185L186.052 173.975C186.971 174.433 187.946 174.793 188.97 175.022L189.406 173.07ZM185.504 172.976C185.491 173.094 185.459 173.238 185.388 173.412L187.238 174.172C187.38 173.827 187.46 173.497 187.493 173.184L185.504 172.976ZM185.32 173.914L185.758 177.49L187.743 177.247L187.305 173.671L185.32 173.914ZM186.751 176.369H183.258V178.369H186.751V176.369ZM184.251 177.49L184.689 173.914L182.704 173.671L182.266 177.247L184.251 177.49ZM184.551 173.273C184.349 172.941 184.328 172.746 184.331 172.662L182.332 172.593C182.312 173.161 182.493 173.738 182.842 174.312L184.551 173.273ZM182.823 171.766C181.925 172.296 180.923 172.65 179.848 172.887L180.278 174.84C181.505 174.57 182.716 174.151 183.839 173.489L182.823 171.766ZM175.359 153.762C174.756 153.788 174.163 153.914 173.69 154.22L174.778 155.898C174.834 155.862 175.027 155.778 175.446 155.76L175.359 153.762ZM173.686 154.223C173.39 154.417 173.15 154.682 172.993 155.013L174.802 155.867C174.8 155.87 174.798 155.875 174.795 155.879C174.792 155.884 174.789 155.888 174.786 155.891C174.779 155.899 174.776 155.9 174.783 155.896L173.686 154.223ZM172.989 155.023C172.836 155.356 172.777 155.715 172.786 156.076L174.785 156.029C174.782 155.915 174.802 155.867 174.806 155.858L172.989 155.023ZM172.786 156.085C172.817 157.063 173.307 158.16 174.068 159.264L175.715 158.129C175.038 157.147 174.798 156.433 174.785 156.02L172.786 156.085ZM174.064 159.258L174.075 159.274L175.73 158.152L175.719 158.135L174.064 159.258ZM174.061 159.252L176.38 162.873L178.064 161.794L175.745 158.174L174.061 159.252ZM176.38 162.874C177.302 164.309 178.341 165.904 179.669 167.1L181.008 165.615C179.91 164.626 179.006 163.262 178.063 161.793L176.38 162.874ZM179.668 167.1C180.98 168.284 182.625 169.112 184.777 169.118L184.783 167.118C183.206 167.113 182.021 166.529 181.008 165.615L179.668 167.1ZM184.777 169.118C187.082 169.124 188.801 168.273 190.164 167.015L188.807 165.545C187.766 166.506 186.52 167.123 184.783 167.118L184.777 169.118ZM190.163 167.016C191.528 165.759 192.585 164.056 193.542 162.513L191.842 161.459C190.855 163.051 189.936 164.506 188.808 165.545L190.163 167.016ZM193.543 162.511L196.154 158.284L194.452 157.233L191.841 161.461L193.543 162.511ZM196.216 158.166C196.473 157.591 196.665 157.074 196.775 156.62C196.881 156.183 196.938 155.704 196.821 155.254L194.886 155.759C194.88 155.739 194.907 155.839 194.832 156.148C194.761 156.438 194.621 156.832 194.39 157.35L196.216 158.166ZM196.82 155.25C196.694 154.775 196.359 154.474 196.015 154.313C195.703 154.166 195.359 154.118 195.056 154.104L194.966 156.102C195.051 156.106 195.109 156.114 195.146 156.121C195.184 156.129 195.186 156.133 195.165 156.123C195.142 156.112 195.086 156.082 195.025 156.015C194.96 155.944 194.911 155.856 194.887 155.763L196.82 155.25ZM195.065 154.105C194.932 154.098 194.797 154.098 194.691 154.098V156.098C194.809 156.098 194.887 156.098 194.956 156.102L195.065 154.105ZM194.644 154.099C194.528 154.104 194.392 154.111 194.241 154.124L194.411 156.116C194.518 156.107 194.618 156.102 194.738 156.097L194.644 154.099ZM194.244 154.123C194.265 154.122 194.279 154.122 194.286 154.122C194.293 154.123 194.293 154.123 194.285 154.122L193.962 156.096C194.08 156.115 194.233 156.131 194.407 156.117L194.244 154.123ZM194.076 154.11C193.924 154.117 193.746 154.107 193.538 154.079L193.272 156.061C193.558 156.1 193.863 156.123 194.172 156.108L194.076 154.11ZM194.38 155.294L195.272 151.403L193.323 150.955L192.43 154.847L194.38 155.294ZM194.145 150.191C191.077 150.666 188.421 149.792 185.376 149.042C182.374 148.303 179.121 147.74 175.313 149.287L176.065 151.14C179.27 149.838 182.006 150.272 184.897 150.984C187.745 151.686 190.887 152.719 194.451 152.167L194.145 150.191ZM174.695 150.323L175.2 154.909L177.188 154.69L176.683 150.104L174.695 150.323ZM176.174 153.8C175.918 153.805 175.717 153.798 175.557 153.773L175.248 155.749C175.582 155.801 175.921 155.805 176.214 155.8L176.174 153.8ZM177.676 170.338C177.685 170.325 177.695 170.315 177.704 170.306C177.712 170.297 177.723 170.288 177.735 170.28L178.898 171.907C179.045 171.802 179.176 171.673 179.283 171.528L177.676 170.338ZM177.325 171.218C177.545 172.966 177.855 175.206 178.222 177.525L180.197 177.212C179.834 174.917 179.527 172.697 179.309 170.968L177.325 171.218ZM179.21 176.369H165.419V178.369H179.21V176.369ZM165.419 176.369C163.779 176.369 162.561 177.86 162.788 179.524L164.77 179.253C164.694 178.698 165.082 178.369 165.419 178.369V176.369ZM162.788 179.522L164.703 193.789L166.685 193.523L164.77 179.256L162.788 179.522ZM165.694 192.656H163.942V194.656H165.694V192.656ZM164.017 192.659C163.36 192.61 162.996 192.429 162.788 192.234C162.586 192.045 162.418 191.736 162.365 191.196L160.375 191.392C160.462 192.276 160.775 193.088 161.42 193.693C162.06 194.293 162.912 194.582 163.867 194.654L164.017 192.659ZM162.37 191.306C162.39 189.662 162.246 187.931 162.135 186.278C162.022 184.601 161.94 182.987 162.057 181.47C162.289 178.49 163.272 176 166.298 174.344L165.337 172.589C161.529 174.675 160.328 177.911 160.063 181.316C159.933 182.991 160.026 184.734 160.139 186.413C160.254 188.116 160.389 189.739 160.37 191.282L162.37 191.306ZM166.299 174.343C166.81 174.061 167.582 173.8 168.57 173.538C169.547 173.279 170.648 173.042 171.801 172.781C172.941 172.524 174.122 172.246 175.201 171.914C176.272 171.585 177.305 171.185 178.122 170.659L177.04 168.977C176.451 169.356 175.622 169.693 174.614 170.003C173.614 170.31 172.499 170.574 171.361 170.83C170.238 171.084 169.081 171.333 168.058 171.605C167.045 171.873 166.073 172.184 165.335 172.59L166.299 174.343ZM178.462 170.292C178.921 169.438 179.403 168.017 179.681 167.181L177.783 166.55C177.489 167.435 177.061 168.674 176.701 169.344L178.462 170.292ZM177.794 166.518C177.794 166.518 177.795 166.518 177.795 166.517C177.795 166.517 177.795 166.516 177.796 166.515C177.796 166.513 177.798 166.508 177.801 166.501C177.803 166.497 177.805 166.491 177.808 166.484C177.81 166.48 177.812 166.475 177.815 166.469C177.817 166.463 177.821 166.454 177.826 166.444C177.831 166.434 177.839 166.418 177.85 166.397C177.856 166.387 177.864 166.372 177.875 166.355C177.884 166.338 177.901 166.312 177.924 166.281C177.934 166.267 177.958 166.237 177.972 166.221C177.99 166.201 178.034 166.156 178.059 166.132C178.095 166.101 178.186 166.035 178.241 166.002C178.323 165.961 178.529 165.896 178.653 165.878C178.812 165.879 179.129 165.959 179.276 166.039C179.391 166.127 179.557 166.316 179.612 166.408C179.646 166.478 179.69 166.602 179.704 166.656C179.712 166.696 179.722 166.767 179.725 166.797C179.727 166.821 179.728 166.865 179.728 166.884C179.728 166.899 179.727 166.928 179.726 166.941C179.724 166.97 179.721 166.994 179.719 167.01C179.717 167.027 179.715 167.04 179.713 167.05C179.711 167.061 179.709 167.07 179.708 167.077C179.705 167.09 179.702 167.102 179.701 167.109C179.699 167.116 179.697 167.123 179.696 167.127C179.694 167.136 179.692 167.144 179.69 167.148C179.689 167.152 179.688 167.156 179.687 167.158C179.686 167.163 179.685 167.166 179.684 167.167C179.684 167.169 179.684 167.17 179.684 167.17C179.684 167.17 179.684 167.169 179.685 167.166C179.686 167.164 179.687 167.16 179.688 167.157C179.691 167.149 179.694 167.14 179.697 167.13C179.7 167.121 179.703 167.112 179.706 167.104C179.709 167.095 179.711 167.091 179.711 167.089C179.712 167.088 179.71 167.091 179.708 167.096C179.708 167.099 179.705 167.106 179.701 167.116C179.699 167.12 179.695 167.129 179.691 167.14C179.688 167.146 179.685 167.154 179.68 167.164C179.676 167.173 179.669 167.188 179.659 167.207C179.654 167.216 179.647 167.229 179.638 167.244C179.629 167.259 179.616 167.281 179.598 167.307C179.59 167.319 179.572 167.343 179.562 167.356C179.549 167.373 179.519 167.408 179.501 167.427C179.478 167.451 179.421 167.504 179.386 167.531C179.338 167.567 179.213 167.639 179.137 167.673C179.028 167.708 178.767 167.741 178.619 167.729C178.459 167.69 178.181 167.546 178.068 167.449C177.991 167.363 177.883 167.196 177.848 167.119C177.827 167.063 177.799 166.962 177.79 166.918C177.784 166.885 177.778 166.826 177.776 166.799C177.775 166.779 177.774 166.741 177.774 166.725C177.775 166.687 177.777 166.656 177.779 166.637C177.781 166.617 177.784 166.6 177.786 166.589C177.788 166.576 177.789 166.566 177.791 166.558C177.794 166.542 177.797 166.529 177.798 166.521C177.802 166.506 177.805 166.493 177.807 166.488C177.81 166.475 177.812 166.466 177.813 166.464C177.814 166.46 177.815 166.458 177.815 166.457L179.728 167.041C179.729 167.038 179.735 167.019 179.741 166.997C179.742 166.99 179.746 166.977 179.749 166.961C179.751 166.953 179.754 166.94 179.757 166.924C179.76 166.911 179.765 166.882 179.769 166.844C179.771 166.826 179.773 166.795 179.774 166.757C179.774 166.74 179.773 166.703 179.772 166.682C179.77 166.656 179.764 166.597 179.758 166.564C179.749 166.52 179.721 166.419 179.7 166.362C179.665 166.286 179.557 166.118 179.48 166.032C179.366 165.935 179.089 165.792 178.929 165.753C178.781 165.741 178.52 165.773 178.411 165.809C178.334 165.842 178.21 165.915 178.162 165.95C178.127 165.978 178.07 166.03 178.047 166.054C177.998 166.106 177.966 166.151 177.95 166.174C177.932 166.2 177.918 166.223 177.91 166.237C177.901 166.252 177.894 166.266 177.889 166.275C177.871 166.308 177.86 166.335 177.857 166.343C177.852 166.354 177.848 166.364 177.846 166.369C177.841 166.38 177.838 166.389 177.836 166.393C177.833 166.403 177.83 166.411 177.828 166.416C177.82 166.437 177.811 166.465 177.803 166.488C177.795 166.511 177.786 166.539 177.779 166.56C177.777 166.565 177.774 166.575 177.771 166.587C177.769 166.591 177.765 166.605 177.761 166.622C177.759 166.629 177.754 166.648 177.749 166.673C177.746 166.685 177.742 166.71 177.737 166.741C177.735 166.756 177.732 166.78 177.73 166.81C177.729 166.836 177.726 166.888 177.731 166.953C177.734 166.984 177.744 167.055 177.753 167.095C177.766 167.148 177.811 167.273 177.844 167.343C177.899 167.435 178.065 167.624 178.18 167.712C178.328 167.792 178.644 167.872 178.803 167.873C178.928 167.855 179.134 167.79 179.215 167.749C179.271 167.715 179.361 167.65 179.397 167.619C179.423 167.595 179.466 167.55 179.484 167.53C179.498 167.514 179.522 167.484 179.532 167.47C179.555 167.439 179.572 167.412 179.582 167.396C179.593 167.379 179.601 167.364 179.607 167.353C179.618 167.333 179.626 167.316 179.631 167.306C179.64 167.287 179.647 167.272 179.649 167.265C179.653 167.257 179.656 167.25 179.657 167.246C179.663 167.231 179.668 167.217 179.67 167.212L177.794 166.518ZM179.719 167.07L179.747 166.988L177.853 166.345L177.825 166.428L179.719 167.07ZM179.526 165.98C178.566 164.964 177.763 163.752 176.953 162.481L175.267 163.555C176.074 164.823 176.967 166.184 178.073 167.354L179.526 165.98ZM176.952 162.479L174.633 158.858L172.949 159.937L175.268 163.558L176.952 162.479ZM174.617 158.834C173.824 157.673 173.497 156.722 173.476 156.056L171.477 156.116C171.513 157.315 172.062 158.638 172.965 159.961L174.617 158.834ZM173.477 156.06C173.469 155.749 173.522 155.511 173.607 155.335L171.807 154.463C171.555 154.983 171.463 155.551 171.477 156.112L173.477 156.06ZM173.609 155.33C173.705 155.129 173.848 154.96 174.056 154.823L172.953 153.154C172.442 153.492 172.057 153.94 171.805 154.468L173.609 155.33ZM174.053 154.825C174.156 154.757 174.274 154.697 174.415 154.644L173.717 152.77C173.443 152.872 173.19 152.999 172.956 153.152L174.053 154.825ZM175.063 153.63C174.914 151.701 174.859 149.265 174.958 147.243L172.961 147.145C172.857 149.262 172.915 151.783 173.069 153.784L175.063 153.63ZM174.954 147.296C174.998 146.865 175.082 146.432 175.207 145.995L173.284 145.446C173.128 145.991 173.021 146.54 172.965 147.092L174.954 147.296ZM175.208 145.994C175.939 143.422 178.228 141.469 180.997 140.53L180.354 138.636C177.17 139.716 174.248 142.058 173.284 145.447L175.208 145.994ZM180.997 140.529C181.504 140.357 181.875 140.108 182.16 139.817C182.421 139.55 182.598 139.251 182.68 139.124C182.784 138.965 182.792 138.983 182.758 139.004C182.708 139.034 182.729 138.989 182.966 139.003L183.079 137.006C182.586 136.978 182.128 137.049 181.727 137.29C181.341 137.522 181.125 137.847 181.005 138.032C180.863 138.249 180.817 138.33 180.731 138.418C180.669 138.481 180.568 138.563 180.353 138.636L180.997 140.529ZM182.968 139.003C184.546 139.088 186.628 139.642 188.583 140.474C190.555 141.314 192.242 142.371 193.121 143.368L194.621 142.045C193.451 140.719 191.443 139.518 189.367 138.634C187.275 137.744 184.958 137.108 183.076 137.006L182.968 139.003ZM193.121 143.369C194.375 144.789 194.858 146.379 195.008 148.144C195.164 149.981 194.96 151.825 194.91 153.926L196.909 153.974C196.954 152.101 197.169 149.951 197 147.974C196.826 145.926 196.242 143.881 194.621 142.045L193.121 143.369ZM195.62 154.907C195.956 155.008 196.092 155.158 196.165 155.442L198.102 154.941C197.838 153.923 197.143 153.277 196.198 152.992L195.62 154.907ZM196.165 155.442C196.26 155.808 196.189 156.549 195.586 157.896L197.412 158.713C198.044 157.3 198.378 156.011 198.102 154.942L196.165 155.442ZM195.573 157.928C195.576 157.921 195.585 157.898 195.601 157.868C195.618 157.837 195.639 157.803 195.665 157.77L197.255 158.983C197.344 158.866 197.394 158.757 197.425 158.682L195.573 157.928ZM195.609 157.851L192.969 162.129L194.671 163.179L197.311 158.901L195.609 157.851ZM192.969 162.129C191.942 163.797 190.976 165.327 189.713 166.488L191.066 167.96C192.566 166.582 193.666 164.811 194.672 163.178L192.969 162.129ZM189.72 166.481L189.653 166.542L190.992 168.028L191.059 167.967L189.72 166.481ZM189.498 167.852C189.632 168.045 189.786 168.261 189.931 168.468L191.566 167.316C191.409 167.092 191.271 166.9 191.146 166.718L189.498 167.852ZM189.928 168.463C190.382 169.117 190.928 169.902 191.44 170.528L192.989 169.262C192.535 168.708 192.036 167.992 191.57 167.321L189.928 168.463ZM191.693 170.748C193.297 171.73 195.775 172.316 197.972 172.811C199.109 173.067 200.192 173.302 201.151 173.558C202.122 173.817 202.88 174.076 203.384 174.353L204.349 172.602C203.62 172.2 202.664 171.891 201.667 171.626C200.659 171.357 199.521 171.11 198.412 170.86C196.117 170.342 194.001 169.816 192.736 169.042L191.693 170.748ZM203.383 174.353C203.912 174.645 204.366 174.967 204.754 175.315L206.089 173.826C205.579 173.368 204.999 172.961 204.35 172.602L203.383 174.353ZM206.077 175.326C206.46 174.993 206.832 174.667 207.132 174.395L205.788 172.913C205.505 173.171 205.147 173.485 204.766 173.815L206.077 175.326ZM207.202 172.983C207.138 172.913 207.074 172.84 207.006 172.764C206.939 172.689 206.869 172.609 206.798 172.531L205.314 173.872C205.378 173.943 205.442 174.015 205.51 174.092C205.577 174.167 205.648 174.246 205.719 174.325L207.202 172.983ZM206.809 172.543L205.54 171.092L204.034 172.408L205.303 173.86L206.809 172.543ZM204.764 170.75L203.82 170.772L203.867 172.772L204.81 172.75L204.764 170.75ZM203.819 170.772L202.022 170.816L202.071 172.816L203.868 172.772L203.819 170.772ZM202.795 171.153C202.239 170.525 201.902 169.418 201.757 168.038C201.616 166.699 201.673 165.289 201.747 164.225L199.752 164.085C199.675 165.185 199.608 166.733 199.768 168.248C199.923 169.722 200.31 171.363 201.298 172.479L202.795 171.153ZM201.736 164.318C202.427 160.137 204.041 157.305 206.511 155.699L205.421 154.022C202.321 156.037 200.509 159.475 199.763 163.992L201.736 164.318ZM206.511 155.699C207.378 155.136 208.02 154.87 208.668 154.73C209.344 154.584 210.077 154.563 211.188 154.563V152.563C210.093 152.563 209.158 152.578 208.247 152.775C207.307 152.977 206.441 153.36 205.422 154.022L206.511 155.699ZM211.188 154.563C213.13 154.563 214.026 154.537 215.395 155.424L216.482 153.745C214.561 152.501 213.099 152.563 211.188 152.563V154.563ZM215.395 155.424C217.809 156.987 219.441 159.65 220.153 162.626C220.865 165.603 220.629 168.786 219.432 171.304L221.239 172.162C222.659 169.173 222.9 165.514 222.098 162.16C221.295 158.805 219.42 155.648 216.482 153.745L215.395 155.424ZM220.336 170.733H218.466V172.733H220.336V170.733ZM217.705 171.084L217.588 171.222L219.108 172.521L219.226 172.383L217.705 171.084ZM217.594 171.214L217.426 171.407L218.933 172.722L219.101 172.529L217.594 171.214ZM217.417 171.418L216.602 172.378L218.128 173.672L218.942 172.711L217.417 171.418ZM216.605 172.375C216.271 172.766 215.971 173.121 215.648 173.449L217.072 174.853C217.456 174.463 217.808 174.046 218.125 173.675L216.605 172.375ZM215.668 174.873C216.14 175.325 216.768 175.868 217.318 176.343L218.625 174.829C218.063 174.344 217.479 173.838 217.052 173.429L215.668 174.873ZM217.321 176.345C217.589 176.575 217.833 176.783 218.05 176.975L219.375 175.477C219.143 175.272 218.882 175.049 218.622 174.827L217.321 176.345ZM218.348 177.157C222.548 178.802 224.838 180.014 226.283 181.97C227.737 183.939 228.442 186.812 228.953 192.124L230.944 191.932C230.434 186.63 229.707 183.241 227.892 180.782C226.066 178.31 223.25 176.929 219.077 175.295L218.348 177.157ZM228.954 192.125C229.004 192.639 229.03 192.933 229.026 193.129C229.022 193.343 228.98 193.181 229.148 193.008C229.302 192.849 229.446 192.88 229.209 192.904C228.996 192.926 228.701 192.928 228.188 192.938L228.228 194.938C228.67 194.929 229.094 194.927 229.416 194.893C229.714 194.862 230.21 194.786 230.585 194.399C230.972 193.998 231.02 193.488 231.026 193.167C231.032 192.827 230.99 192.397 230.944 191.931L228.954 192.125ZM228.189 192.938C221.135 193.076 212.149 192.938 203.977 192.905L203.969 194.905C212.103 194.938 221.142 195.076 228.228 194.938L228.189 192.938ZM204.964 194.039L204.997 193.791L203.016 193.522L202.982 193.77L204.964 194.039ZM204.998 193.789L206.912 179.522L204.93 179.256L203.015 193.523L204.998 193.789ZM206.912 179.524C207.139 177.86 205.922 176.369 204.282 176.369V178.369C204.618 178.369 205.006 178.698 204.93 179.253L206.912 179.524ZM191.79 177.509C192.123 175.157 192.368 172.908 192.488 171.196L190.493 171.056C190.377 172.711 190.138 174.911 189.809 177.228L191.79 177.509ZM192.226 170.45C191.654 169.827 191.021 168.918 190.439 168.071L188.79 169.203C189.354 170.023 190.068 171.057 190.754 171.803L192.226 170.45ZM190.43 168.059C190.369 167.972 190.309 167.885 190.247 167.796C190.185 167.707 190.122 167.616 190.059 167.527L188.429 168.687C188.484 168.764 188.541 168.846 188.604 168.936C188.665 169.024 188.731 169.119 188.799 169.215L190.43 168.059ZM188.693 167.272C187.642 167.966 186.39 168.399 184.78 168.399V170.399C186.786 170.399 188.42 169.849 189.795 168.942L188.693 167.272ZM184.783 168.399C183.018 168.394 181.665 167.808 180.518 166.894L179.272 168.459C180.73 169.62 182.51 170.392 184.777 170.399L184.783 168.399ZM178.948 167.355C178.767 167.888 178.551 168.501 178.319 169.063C178.08 169.644 177.855 170.093 177.672 170.343L179.287 171.523C179.621 171.066 179.921 170.426 180.169 169.824C180.424 169.203 180.657 168.542 180.842 167.998L178.948 167.355ZM205.232 175.8C206.451 177.164 207.009 178.969 207.228 181.082C207.449 183.213 207.315 185.5 207.257 187.814L209.257 187.864C209.312 185.652 209.456 183.173 209.217 180.876C208.978 178.561 208.34 176.276 206.723 174.467L205.232 175.8ZM207.404 188.361L210.285 193.064L211.991 192.019L209.11 187.317L207.404 188.361ZM211.99 193.064L219.009 181.617L217.304 180.572L210.285 192.019L211.99 193.064ZM218.133 182.094L221.182 182.166L221.229 180.166L218.18 180.095L218.133 182.094ZM222.099 180.715C221.355 179.241 220.472 177.93 219.493 176.71L217.933 177.961C218.84 179.092 219.642 180.287 220.313 181.617L222.099 180.715ZM219.422 176.63C219.134 176.341 218.596 175.879 218.073 175.429L216.769 176.946C217.325 177.424 217.786 177.822 218.004 178.041L219.422 176.63ZM218.073 175.429C217.492 174.93 216.889 174.406 216.446 173.981L215.061 175.424C215.55 175.893 216.194 176.452 216.77 176.946L218.073 175.429ZM215.111 173.936C214.935 174.084 214.774 174.21 214.61 174.316L215.696 175.995C215.958 175.825 216.191 175.641 216.396 175.469L215.111 173.936ZM214.594 174.326C213.851 174.826 212.918 175.176 211.585 175.171L211.578 177.171C213.311 177.177 214.635 176.71 215.711 175.985L214.594 174.326ZM211.581 175.171C210.349 175.171 209.46 174.836 208.725 174.357L207.632 176.031C208.672 176.711 209.938 177.171 211.581 177.171V175.171ZM208.727 174.358C208.357 174.116 208.021 173.83 207.7 173.515L206.298 174.941C206.686 175.322 207.124 175.698 207.63 176.03L208.727 174.358ZM206.326 173.489C206.032 173.757 205.686 174.058 205.318 174.381L206.637 175.885C206.998 175.568 207.361 175.251 207.672 174.968L206.326 173.489ZM204.282 176.369H190.799V178.369H204.282V176.369Z" fill="#003E6E" fill-opacity="0.5" mask="url(#path-156-inside-1_379_862727)"/>
<path fill-rule="evenodd" clip-rule="evenodd" d="M191.447 177.362L178.65 177.362L178.65 176.362L191.447 176.362L191.447 177.362Z" fill="#003E6E" fill-opacity="0.5"/>
<path d="M208.099 156.388C208.382 157.104 209.264 158.695 210.53 159.328C212.113 160.119 213.413 159.78 214.883 161.194C216.353 162.607 217.597 165.038 217.201 165.999" stroke="#00C1FE" stroke-opacity="0.3" stroke-width="5"/>
<path d="M216.713 179.592L211.706 190.179L209.417 187.174" stroke="#00C1FE" stroke-opacity="0.3" stroke-width="5"/>
<circle cx="185.048" cy="187.749" r="1.7506" fill="#003E6E" fill-opacity="0.5"/>
<circle cx="185.048" cy="187.749" r="1.2506" stroke="#003E6E" stroke-opacity="0.5"/>
<path d="M190.562 143.015C188.652 141.29 185.043 140.602 183.478 140.474C183.478 141.09 179.859 142.476 178.242 143.862C176.949 144.971 177.703 146.429 178.242 147.019C178.884 147.045 180.829 147.081 183.478 147.019C186.788 146.942 188.252 148.713 190.562 149.406C192.409 149.961 193.436 149.175 193.719 148.713C193.462 147.533 192.472 144.74 190.562 143.015Z" fill="#A3E2FE"/>
<defs>
<clipPath id="clip0_379_862727">
<rect width="158" height="121" fill="white" transform="translate(161 73)"/>
</clipPath>
</defs>
</svg>
