<svg width="80" height="80" fill="none" xmlns="http://www.w3.org/2000/svg"><path fill="#fff" d="M0 0h80v80H0z"/><path d="m39.638 27.075-.392.06h-25.08l-.305-.029c-3.204-.31-5.72-3.032-5.72-6.355 0-3.532 2.842-6.385 6.334-6.385.5 0 .985.059 1.45.168l1.371.324-.148-1.402a3.128 3.128 0 0 1-.017-.328c0-1.69 1.36-3.05 3.023-3.05.815 0 1.554.325 2.1.857l1.057 1.032.565-1.366c1.17-2.83 3.94-4.81 7.162-4.81 4.276 0 7.754 3.492 7.754 7.814 0 .657-.08 1.295-.231 1.903l-.308 1.24h.993l.392.062c2.464.383 4.36 2.531 4.36 5.132 0 2.601-1.896 4.75-4.36 5.133z" stroke="#76A3D3" stroke-width="2"/><path fill-rule="evenodd" clip-rule="evenodd" d="M21.147 11.962c-.531-.332-.922-.395-1.245-.244-.406.19-.588.352-.669.454a.425.425 0 0 0-.096.272c-.007.142.022.328.093.623l.056.223a.76.76 0 0 1-.617.934l-.373.066a.658.658 0 0 1-.743-.49 25.25 25.25 0 0 1-.078-.31c-.077-.317-.16-.712-.142-1.124.019-.44.153-.89.482-1.307.314-.397.763-.71 1.321-.97 1.164-.545 2.26-.097 2.972.35.369.231.69.494.938.709l.278.243c.12.106.144.292.05.421l-.546.744a.54.54 0 0 1-.8.096 17.378 17.378 0 0 0-.164-.144 5.975 5.975 0 0 0-.717-.546zm-7.882 5.708c-.999.422-1.841 1.044-2.269 2.026-.354.814-.083 1.677.67 2.526a6.303 6.303 0 0 0 1.662 1.306c.437.238.716.742.578 1.22-.136.478-.636.755-1.085.542a8.106 8.106 0 0 1-2.51-1.877c-.972-1.099-1.725-2.7-.97-4.434.681-1.566 1.99-2.447 3.22-2.966 1.046-.441 2.128-.657 2.834-.798a.326.326 0 0 1 .382.251l.23 1.084a.367.367 0 0 1-.286.436c-.714.143-1.595.321-2.456.684z" fill="#00C1FE" fill-opacity=".3"/><path d="M23.545 24.981h15.774" stroke="#00C1FE" stroke-opacity=".5" stroke-width="4"/><path fill-rule="evenodd" clip-rule="evenodd" d="M31.698 36.5h-.95v-1h.95v1zm1.9 0h-.95v-1h.95v1zm1.9 0h-.95v-1h.95v1zm1.9 0h-.95v-1h.95v1zm1.9 0h-.95v-1h.95v1zm1.9 0h-.95v-1h.95v1zm1.9 0h-.95v-1h.95v1zM28.1 30v-1h1v1h-1zm0 2v-1h1v1h-1zm0 2v-1h1v1h-1zm0 2v-1h1v1h-1zm0 2v-1h1v1h-1zm0 2v-1h1v1h-1zm0 2v-1h1v1h-1z" fill="#00C1FE"/><rect x="6.297" y="44.271" width="33.469" height="23.258" rx="2" stroke="#0053AD" stroke-opacity=".5" stroke-width="2"/><rect x="16.366" y="69.656" width="13.331" height=".851" rx=".425" stroke="#0053AD" stroke-opacity=".5" stroke-width=".851"/><path fill="#0053AD" fill-opacity=".5" d="M22.18 67.529h1.702v1.702H22.18z"/><path d="M32.467 57.75c0-.1.046-.195.128-.265a.477.477 0 0 1 .31-.11h.874c.116 0 .228.04.31.11a.35.35 0 0 1 .128.265v4.5h.218c.059 0 .114.02.155.055a.175.175 0 0 1 .064.133c0 .05-.023.097-.064.132a.239.239 0 0 1-.155.055h-6.562a.239.239 0 0 1-.155-.055.175.175 0 0 1-.064-.133c0-.05.023-.097.064-.132a.239.239 0 0 1 .155-.055h.219v-1.125c0-.1.046-.195.128-.265a.477.477 0 0 1 .31-.11h.874c.116 0 .228.04.31.11a.35.35 0 0 1 .128.265v1.125h.437v-2.625c0-.1.046-.195.128-.265a.477.477 0 0 1 .31-.11h.875c.116 0 .227.04.31.11a.35.35 0 0 1 .127.265v2.625h.438v-4.5z" fill="#00C1FE" fill-opacity=".41"/><path d="M18.647 50.625h-3.89l-2.75 2.406c.562.434 1.251.72 1.99.828a4.53 4.53 0 0 0 2.188-.219 3.956 3.956 0 0 0 1.724-1.199 3.235 3.235 0 0 0 .738-1.816zm-6.993 2.096a3.335 3.335 0 0 1-.946-1.74 3.099 3.099 0 0 1 .25-1.915 3.626 3.626 0 0 1 1.37-1.508 4.376 4.376 0 0 1 2.076-.645v3.403l-2.75 2.405z" fill="#89DFFF"/><path d="M14.904 50.188v-3.275c.973.053 1.89.416 2.579 1.019.689.602 1.103 1.405 1.164 2.256h-3.743z" fill="#3984BA"/><path d="M33.725 52.327H29.02v-4.265a.055.055 0 0 0-.054-.055h-.383a.055.055 0 0 0-.055.055v4.703c0 .03.025.054.055.054h5.14c.03 0 .055-.024.055-.054v-.383a.055.055 0 0 0-.054-.055zm-4.102-1.285a.438.438 0 1 0 .875 0 .438.438 0 0 0-.875 0zm2.899-2.12a.383.383 0 1 0 .765 0 .383.383 0 0 0-.765 0z" fill="#00C1FE"/><path opacity=".4" d="M30.526 49.743a.328.328 0 1 1 .464-.464.328.328 0 0 1-.464.464zM31.702 51.533a.656.656 0 1 1 .928-.928.656.656 0 0 1-.928.928z" fill="#00C1FE"/><path d="m11.488 63.396 3.125-2.816 1.666 1.5 2.955-2.989.587.529-3.542 3.585-1.666-1.5-2.5 2.254-.625-.563zm.625-1.687 2.5-2.254 1.666 1.5 3.542-3.585-.587-.529-2.955 2.989-1.666-1.5-3.125 2.816.625.563z" fill="#3984BA"/><circle cx="2.364" cy="2.364" r="2.364" transform="matrix(-1 0 0 1 59.577 66.083)" fill="#89DFFF" style="mix-blend-mode:multiply"/><circle cx="3.553" cy="3.553" r="2.553" transform="matrix(-1 0 0 1 61.353 64.893)" stroke="#003E6E" stroke-opacity=".5" stroke-width="2"/><path fill-rule="evenodd" clip-rule="evenodd" d="M50.348 68.947h1v-1h-1v1zm-2 0h1v-1h-1v1zm-2 0h1v-1h-1v1zm-2 0h1v-1h-1v1zm-2 0h1v-1h-1v1zm-2 0h1v-1h-1v1zM72.652 68.947h1v-1h-1v1zm-2 0h1v-1h-1v1zm-2 0h1v-1h-1v1zm-2 0h1v-1h-1v1zm-2 0h1v-1h-1v1zm-2 0h1v-1h-1v1zM58.283 57.763v-1h-1v1h1zm0 2v-1h-1v1h1zm0 2v-1h-1v1h1zm0 2v-1h-1v1h1z" fill="#00C1FE"/><path fill="#fff" d="M70 13H48v41h22z"/><rect width="20.983" height="41" rx="2" transform="matrix(-1 0 0 1 67.93 13.5)" stroke="#003E6E" stroke-opacity=".5" stroke-width="2"/><rect width="14" height="3" rx="1.5" transform="matrix(-1 0 0 1 64 17.5)" fill="#96E5FE"/><circle cx="3" cy="3" r="2.5" transform="matrix(-1 0 0 1 60 45)" stroke="#fff"/><circle cx="2.491" cy="2.491" r="2.491" transform="matrix(-1 0 0 1 60.274 45)" fill="#89DFFF" style="mix-blend-mode:multiply"/><rect width="14" height="3" rx="1.5" transform="matrix(-1 0 0 1 63.12 24.25)" fill="#96E5FE"/><rect width="14" height="3" rx="1.5" transform="matrix(-1 0 0 1 64.783 32)" fill="#96E5FE"/><rect x="-.5" y=".5" width="13" height="2" rx="1" transform="matrix(-1 0 0 1 63 19)" stroke="#80A9D6"/><rect x="-.5" y=".5" width="13" height="2" rx="1" transform="matrix(-1 0 0 1 63 25)" stroke="#80A9D6"/><rect x="-.5" y=".5" width="13" height="2" rx="1" transform="matrix(-1 0 0 1 63 31)" stroke="#80A9D6"/></svg>