<svg width="335" height="335" fill="none" xmlns="http://www.w3.org/2000/svg"><circle cx="167.5" cy="167.5" r="167.5" fill="#EBF3F8"/><g clip-path="url(#a)"><g opacity=".3"><path d="M237 151a2 2 0 0 1 2-2h36a2 2 0 0 1 2 2v65h-40v-65zM241 133a2 2 0 0 1 2-2h28a2 2 0 0 1 2 2v16h-32v-16zM245 119a2 2 0 0 1 2-2h20a2 2 0 0 1 2 2v12h-24v-12z" stroke="#76A3D3" stroke-width="2"/><rect x="250.5" y="121.5" width="5" height="2" rx="1" stroke="#76A3D3"/><rect x="250.5" y="126.5" width="5" height="2" rx="1" stroke="#76A3D3"/><rect x="246.5" y="137.5" width="5" height="2" rx="1" stroke="#76A3D3"/><rect x="246.5" y="142.5" width="5" height="2" rx="1" stroke="#76A3D3"/><rect x="242.5" y="154.5" width="5" height="2" rx="1" stroke="#76A3D3"/><rect x="242.5" y="159.5" width="5" height="2" rx="1" stroke="#76A3D3"/><rect x="242.5" y="164.5" width="5" height="2" rx="1" stroke="#76A3D3"/><rect x="242.5" y="169.5" width="5" height="2" rx="1" stroke="#76A3D3"/><rect x="242.5" y="174.5" width="5" height="2" rx="1" stroke="#76A3D3"/><rect x="242.5" y="179.5" width="5" height="2" rx="1" stroke="#76A3D3"/><rect x="242.5" y="184.5" width="5" height="2" rx="1" stroke="#76A3D3"/><rect x="242.5" y="189.5" width="5" height="2" rx="1" stroke="#76A3D3"/><rect x="262.5" y="137.5" width="5" height="2" rx="1" stroke="#76A3D3"/><rect x="262.5" y="142.5" width="5" height="2" rx="1" stroke="#76A3D3"/><rect x="258.5" y="154.5" width="5" height="2" rx="1" stroke="#76A3D3"/><rect x="258.5" y="159.5" width="5" height="2" rx="1" stroke="#76A3D3"/><rect x="258.5" y="164.5" width="5" height="2" rx="1" stroke="#76A3D3"/><rect x="258.5" y="169.5" width="5" height="2" rx="1" stroke="#76A3D3"/><rect x="258.5" y="174.5" width="5" height="2" rx="1" stroke="#76A3D3"/><rect x="258.5" y="179.5" width="5" height="2" rx="1" stroke="#76A3D3"/><rect x="258.5" y="184.5" width="5" height="2" rx="1" stroke="#76A3D3"/><rect x="258.5" y="189.5" width="5" height="2" rx="1" stroke="#76A3D3"/><rect x="266.5" y="154.5" width="5" height="2" rx="1" stroke="#76A3D3"/><rect x="266.5" y="159.5" width="5" height="2" rx="1" stroke="#76A3D3"/><rect x="266.5" y="164.5" width="5" height="2" rx="1" stroke="#76A3D3"/><rect x="266.5" y="169.5" width="5" height="2" rx="1" stroke="#76A3D3"/><rect x="266.5" y="174.5" width="5" height="2" rx="1" stroke="#76A3D3"/><rect x="266.5" y="179.5" width="5" height="2" rx="1" stroke="#76A3D3"/><rect x="266.5" y="184.5" width="5" height="2" rx="1" stroke="#76A3D3"/><rect x="266.5" y="189.5" width="5" height="2" rx="1" stroke="#76A3D3"/><rect x="258.5" y="121.5" width="5" height="2" rx="1" stroke="#76A3D3"/><rect x="258.5" y="126.5" width="5" height="2" rx="1" stroke="#76A3D3"/><rect x="254.5" y="137.5" width="5" height="2" rx="1" stroke="#76A3D3"/><rect x="254.5" y="142.5" width="5" height="2" rx="1" stroke="#76A3D3"/><rect x="250.5" y="154.5" width="5" height="2" rx="1" stroke="#76A3D3"/><rect x="250.5" y="159.5" width="5" height="2" rx="1" stroke="#76A3D3"/><rect x="250.5" y="164.5" width="5" height="2" rx="1" stroke="#76A3D3"/><rect x="250.5" y="169.5" width="5" height="2" rx="1" stroke="#76A3D3"/><rect x="250.5" y="174.5" width="5" height="2" rx="1" stroke="#76A3D3"/><rect x="250.5" y="179.5" width="5" height="2" rx="1" stroke="#76A3D3"/><rect x="250.5" y="184.5" width="5" height="2" rx="1" stroke="#76A3D3"/><rect x="250.5" y="189.5" width="5" height="2" rx="1" stroke="#76A3D3"/><path d="m257 101 1 17h-2l1-17z" fill="#76A3D3"/></g><g opacity=".3"><path d="M206 165a2 2 0 0 1 2-2h25a2 2 0 0 1 2 2v51h-29v-51z" stroke="#76A3D3" stroke-width="2"/><rect x="209.5" y="167.5" width="22" height="2" rx="1" stroke="#76A3D3"/><rect x="195.5" y="142.5" width="7" height="4" rx="1.5" stroke="#76A3D3"/><rect x="170.5" y="119.5" width="7" height="2" rx="1" stroke="#76A3D3"/><rect x="170.5" y="124.5" width="7" height="2" rx="1" stroke="#76A3D3"/><rect x="170.5" y="129.5" width="7" height="2" rx="1" stroke="#76A3D3"/><rect x="170.5" y="134.5" width="7" height="2" rx="1" stroke="#76A3D3"/><rect x="170.5" y="139.5" width="7" height="2" rx="1" stroke="#76A3D3"/><rect x="170.5" y="144.5" width="7" height="2" rx="1" stroke="#76A3D3"/><rect x="170.5" y="149.5" width="7" height="2" rx="1" stroke="#76A3D3"/><rect x="170.5" y="154.5" width="7" height="2" rx="1" stroke="#76A3D3"/><rect x="170.5" y="159.5" width="7" height="2" rx="1" stroke="#76A3D3"/><rect x="170.5" y="164.5" width="7" height="2" rx="1" stroke="#76A3D3"/><rect x="170.5" y="169.5" width="7" height="2" rx="1" stroke="#76A3D3"/><rect x="170.5" y="174.5" width="7" height="2" rx="1" stroke="#76A3D3"/><rect x="170.5" y="179.5" width="7" height="2" rx="1" stroke="#76A3D3"/><rect x="170.5" y="184.5" width="7" height="2" rx="1" stroke="#76A3D3"/><rect x="170.5" y="189.5" width="7" height="2" rx="1" stroke="#76A3D3"/><rect x="182.5" y="119.5" width="7" height="2" rx="1" stroke="#76A3D3"/><rect x="182.5" y="124.5" width="7" height="2" rx="1" stroke="#76A3D3"/><rect x="182.5" y="129.5" width="7" height="2" rx="1" stroke="#76A3D3"/><rect x="182.5" y="134.5" width="7" height="2" rx="1" stroke="#76A3D3"/><rect x="182.5" y="139.5" width="7" height="2" rx="1" stroke="#76A3D3"/><rect x="182.5" y="144.5" width="7" height="2" rx="1" stroke="#76A3D3"/><rect x="182.5" y="149.5" width="7" height="2" rx="1" stroke="#76A3D3"/><rect x="182.5" y="154.5" width="7" height="2" rx="1" stroke="#76A3D3"/><rect x="182.5" y="159.5" width="7" height="2" rx="1" stroke="#76A3D3"/><rect x="182.5" y="164.5" width="7" height="2" rx="1" stroke="#76A3D3"/><rect x="182.5" y="169.5" width="7" height="2" rx="1" stroke="#76A3D3"/><rect x="182.5" y="174.5" width="7" height="2" rx="1" stroke="#76A3D3"/><rect x="182.5" y="179.5" width="7" height="2" rx="1" stroke="#76A3D3"/><rect x="182.5" y="184.5" width="7" height="2" rx="1" stroke="#76A3D3"/><rect x="182.5" y="189.5" width="7" height="2" rx="1" stroke="#76A3D3"/><rect x="209.5" y="142.5" width="7" height="4" rx="1.5" stroke="#76A3D3"/><rect x="209.5" y="175.5" width="22" height="2" rx="1" stroke="#76A3D3"/><rect x="195.5" y="154.5" width="7" height="4" rx="1.5" stroke="#76A3D3"/><rect x="209.5" y="154.5" width="7" height="4" rx="1.5" stroke="#76A3D3"/><rect x="209.5" y="183.5" width="22" height="2" rx="1" stroke="#76A3D3"/><rect x="195.5" y="166.5" width="7" height="4" rx="1.5" stroke="#76A3D3"/><rect x="209.5" y="191.5" width="22" height="2" rx="1" stroke="#76A3D3"/><rect x="195.5" y="178.5" width="7" height="4" rx="1.5" stroke="#76A3D3"/><rect x="195.5" y="190.5" width="7" height="4" rx="1.5" stroke="#76A3D3"/><path stroke="#76A3D3" stroke-width="2" d="M168 116h24v87h-24z"/><path stroke="#76A3D3" d="M177.5 89.5h5v6h-5z"/><path fill-rule="evenodd" clip-rule="evenodd" d="m177.111 96-9.63 20-.481 1h26l-.481-1-9.63-20h-1.11l9.63 20h-22.818l9.63-20h-1.11z" fill="#76A3D3"/><path d="m180 73 1 17h-2l1-17z" fill="#76A3D3"/><path fill-rule="evenodd" clip-rule="evenodd" d="M194 135a3 3 0 0 0-3 3v64h2v-64a1 1 0 0 1 1-1h24a1 1 0 0 1 1 1v25h2v-25a3 3 0 0 0-3-3h-24zm12 82v-2h-8.5v2h8.5z" fill="#76A3D3"/></g><rect x="247" y="143" width="6" height="4" rx="2" fill="#00C1FE" fill-opacity=".5" style="mix-blend-mode:multiply"/><rect x="263" y="144" width="6" height="3" rx="1.5" fill="#00C1FE" fill-opacity=".5" style="mix-blend-mode:multiply"/><rect x="255" y="138" width="6" height="3" rx="1.5" fill="#00C1FE" fill-opacity=".5" style="mix-blend-mode:multiply"/><rect x="259" y="127" width="7" height="3" rx="1.5" fill="#00C1FE" fill-opacity=".5" style="mix-blend-mode:multiply"/><rect x="243" y="156" width="6" height="3" rx="1.5" fill="#00C1FE" fill-opacity=".5" style="mix-blend-mode:multiply"/><rect x="251" y="160" width="5" height="3" rx="1.5" fill="#00C1FE" fill-opacity=".5" style="mix-blend-mode:multiply"/><rect x="259" y="165" width="5" height="3" rx="1.5" fill="#00C1FE" fill-opacity=".5" style="mix-blend-mode:multiply"/><rect x="266" y="170" width="6" height="3" rx="1.5" fill="#00C1FE" fill-opacity=".5" style="mix-blend-mode:multiply"/><rect x="251" y="172" width="5" height="2" rx="1" fill="#00C1FE" fill-opacity=".5" style="mix-blend-mode:multiply"/><rect x="243" y="175" width="6" height="3" rx="1.5" fill="#00C1FE" fill-opacity=".5" style="mix-blend-mode:multiply"/><rect x="251" y="181" width="6" height="2" rx="1" fill="#00C1FE" fill-opacity=".5" style="mix-blend-mode:multiply"/><rect x="259" y="185" width="5" height="3" rx="1.5" fill="#00C1FE" fill-opacity=".5" style="mix-blend-mode:multiply"/></g><rect x="213.051" y="179.016" width="19" height="2.724" rx="1.362" fill="#00C1FE" fill-opacity=".3" style="mix-blend-mode:multiply"/><rect x="197.061" y="166.434" width="6.57" height="3.566" rx="1.783" fill="#00C1FE" fill-opacity=".3" style="mix-blend-mode:multiply"/><rect x="195.766" y="155.226" width="6.57" height="3.566" rx="1.783" fill="#00C1FE" fill-opacity=".3" style="mix-blend-mode:multiply"/><rect x="210.48" y="166.5" width="6.57" height="3.566" rx="1.783" fill="#00C1FE" fill-opacity=".3" style="mix-blend-mode:multiply"/><rect x="197.061" y="190" width="6.57" height="3.566" rx="1.783" fill="#00C1FE" fill-opacity=".3" style="mix-blend-mode:multiply"/><rect x="182.384" y="184.276" width="7.334" height="2.724" rx="1.362" fill="#00C1FE" fill-opacity=".4" style="mix-blend-mode:multiply"/><rect x="172.217" y="185.638" width="7.334" height="2.724" rx="1.362" fill="#00C1FE" fill-opacity=".4" style="mix-blend-mode:multiply"/><rect x="179.551" y="176.5" width="7.334" height="2.724" rx="1.362" fill="#00C1FE" fill-opacity=".4" style="mix-blend-mode:multiply"/><rect x="171.717" y="134.276" width="7.334" height="2.724" rx="1.362" fill="#00C1FE" fill-opacity=".4" style="mix-blend-mode:multiply"/><rect x="183.717" y="135.638" width="7.334" height="2.724" rx="1.362" fill="#00C1FE" fill-opacity=".4" style="mix-blend-mode:multiply"/><rect x="170.717" y="140.516" width="7.334" height="2.724" rx="1.362" fill="#00C1FE" fill-opacity=".4" style="mix-blend-mode:multiply"/><rect x="182.384" y="144.611" width="7.334" height="2.724" rx="1.362" fill="#00C1FE" fill-opacity=".4" style="mix-blend-mode:multiply"/><rect x="181.514" y="149.117" width="7.334" height="2.724" rx="1.362" fill="#00C1FE" fill-opacity=".4" style="mix-blend-mode:multiply"/><rect x="170.717" y="154.921" width="7.334" height="2.724" rx="1.362" fill="#00C1FE" fill-opacity=".4" style="mix-blend-mode:multiply"/><rect x="181.514" y="156.069" width="7.334" height="2.724" rx="1.362" fill="#00C1FE" fill-opacity=".4" style="mix-blend-mode:multiply"/><rect x="171.717" y="161.5" width="7.334" height="2.724" rx="1.362" fill="#00C1FE" fill-opacity=".4" style="mix-blend-mode:multiply"/><rect x="181.322" y="159.958" width="7.334" height="2.724" rx="1.362" fill="#00C1FE" fill-opacity=".4" style="mix-blend-mode:multiply"/><rect x="172.217" y="169.351" width="7.334" height="2.724" rx="1.362" fill="#00C1FE" fill-opacity=".4" style="mix-blend-mode:multiply"/><rect x="181.322" y="170.5" width="7.334" height="2.724" rx="1.362" fill="#00C1FE" fill-opacity=".4" style="mix-blend-mode:multiply"/><path stroke="#00C1FE" stroke-dasharray="1 1" d="M126.5 143v36"/><path d="m153.005 139.364-.846.132v.019H95.883l-.74-.071c-7.788-.754-13.89-7.371-13.89-15.434 0-8.57 6.893-15.505 15.378-15.505 1.212 0 2.39.141 3.519.408l1.372.324-.148-1.402a8.181 8.181 0 0 1-.045-.862c0-4.454 3.581-8.052 7.981-8.052 2.156 0 4.112.862 5.55 2.266l1.058 1.033.565-1.367c2.795-6.767 9.416-11.515 17.129-11.515 10.236 0 18.547 8.365 18.547 18.7 0 1.57-.192 3.095-.553 4.551l-.308 1.24h.861v.02l.846.131c6.097.949 10.776 6.266 10.776 12.692 0 6.427-4.679 11.743-10.776 12.692z" stroke="#76A3D3" stroke-width="2"/><path fill-rule="evenodd" clip-rule="evenodd" d="M111.216 105.039c-1.177-.74-2.042-.88-2.758-.544-.901.422-1.303.782-1.482 1.01a.942.942 0 0 0-.214.605c-.014.315.049.729.207 1.383.035.148.078.315.124.497.246.965-.392 1.9-1.372 2.076l-.817.146c-.743.134-1.464-.359-1.651-1.09a62.57 62.57 0 0 1-.173-.69c-.169-.703-.354-1.581-.315-2.495.043-.98.34-1.981 1.068-2.906.696-.884 1.69-1.578 2.927-2.158 2.58-1.209 5.006-.213 6.585.779.817.514 1.528 1.099 2.079 1.576.26.225.458.401.615.541a.71.71 0 0 1 .11.936l-1.209 1.653c-.426.584-1.231.693-1.772.213a32.774 32.774 0 0 0-.364-.32c-.494-.429-1.027-.859-1.588-1.212zm-17.463 12.687c-2.214.937-4.08 2.319-5.027 4.502-.786 1.811-.184 3.729 1.482 5.616 1.08 1.224 2.449 2.23 3.682 2.902.97.53 1.588 1.648 1.284 2.71-.303 1.062-1.416 1.679-2.413 1.204-1.885-.898-3.956-2.361-5.552-4.169-2.155-2.442-3.825-6.002-2.152-9.855 1.51-3.482 4.41-5.44 7.137-6.594 2.316-.98 4.714-1.46 6.277-1.773a.72.72 0 0 1 .847.555l.51 2.414a.813.813 0 0 1-.634.967c-1.581.319-3.534.714-5.441 1.521z" fill="#00C1FE" fill-opacity=".3"/><path d="M116.833 133.736h34.423" stroke="#00C1FE" stroke-opacity=".5" stroke-width="4"/><path fill-rule="evenodd" clip-rule="evenodd" d="M241.754 113.564a78.417 78.417 0 0 0-.803-.584l-.582.813c.265.19.528.382.791.576l.594-.805zm-1.613-1.156-.571.821a64.044 64.044 0 0 0-.808-.554l.559-.829c.275.186.548.373.82.562zm-1.646-1.11-.547.836a63.98 63.98 0 0 0-.823-.529l.536-.845c.279.177.557.357.834.538zm-1.677-1.063-.523.852a71.531 71.531 0 0 0-.837-.506l.511-.86c.284.169.567.34.849.514zm-1.705-1.015-.499.867a71.517 71.517 0 0 0-.852-.482l.486-.874c.29.161.578.324.865.489zm-1.736-.965-.473.88a88.779 88.779 0 0 0-.864-.457l.461-.887c.293.153.585.307.876.464zm-1.76-.915-.449.894a54.973 54.973 0 0 0-.878-.433l.435-.9c.299.144.596.29.892.439zm-1.787-.865-.423.907a59.245 59.245 0 0 0-.889-.407l.409-.912c.302.135.603.273.903.412zm-1.812-.813-.396.919c-.299-.13-.6-.257-.901-.382l.383-.923c.306.126.611.255.914.386zm-1.833-.76-.369.93a71.742 71.742 0 0 0-.912-.356l.356-.934c.31.118.618.238.925.36zm-1.856-.708-.343.94a55.623 55.623 0 0 0-.92-.328l.33-.945c.312.109.623.22.933.333zm-1.873-.653-.315.949c-.31-.103-.62-.204-.932-.302l.302-.954c.316.101.631.203.945.307zm-1.893-.599-.288.957a72.367 72.367 0 0 0-.938-.275l.275-.961c.318.09.635.183.951.279zm-1.908-.545-.261.965a77.48 77.48 0 0 0-.947-.248l.246-.969c.322.082.642.166.962.252zm-1.923-.489-.233.972a73.365 73.365 0 0 0-.953-.221l.219-.975c.323.072.645.147.967.224zm-1.939-.435-.205.979a59.982 59.982 0 0 0-.957-.193l.19-.982c.325.063.649.129.972.196zm-1.946-.378-.177.985a60.683 60.683 0 0 0-.965-.166l.162-.987c.328.054.654.11.98.168zm-1.962-.322-.148.989a60.66 60.66 0 0 0-.966-.138l.134-.991c.328.044.654.091.98.14zm-1.964-.266-.12.993a78.37 78.37 0 0 0-.974-.111l.105-.994c.33.035.66.072.989.112zm-1.975-.21-.092.996c-.323-.03-.648-.058-.973-.083l.078-.997c.329.026.658.054.987.084zm-1.979-.154-.063.998a79.3 79.3 0 0 0-.98-.055l.049-.999c.332.017.664.035.994.056zm-1.982-.097-.035.999a79.076 79.076 0 0 0-.977-.028l.021-.999c.331.007.662.016.991.028zm-1.986-.042-.007 1a80.69 80.69 0 0 0-.983 0l-.007-1 .498-.002.499.002zm-1.992.014.021.999a78.68 78.68 0 0 0-.978.028l-.035-.999c.33-.012.661-.021.992-.028zm-1.98.069.049.999a79.3 79.3 0 0 0-.98.055l-.063-.998c.331-.021.662-.039.994-.056zm-1.985.126.077.997c-.325.025-.649.053-.973.083l-.091-.996c.328-.03.657-.058.987-.084zm-1.974.182.106.994c-.326.035-.65.072-.974.111l-.12-.993c.329-.04.658-.077.988-.112zm-1.973.238.134.991c-.322.044-.644.089-.966.138l-.148-.989c.326-.049.653-.096.98-.14zm-1.962.294.162.987c-.322.053-.644.108-.965.166l-.176-.985c.326-.058.652-.114.979-.168zm-18.858 5.974.436.9a59.61 59.61 0 0 0-.879.433l-.448-.894c.296-.149.593-.295.891-.439zm-1.775.89.461.887c-.289.151-.577.303-.864.457l-.474-.88c.291-.157.583-.311.877-.464zm-1.748.94.486.874c-.285.159-.569.319-.851.482l-.499-.867c.287-.165.575-.328.864-.489zm-1.72.99.511.86c-.281.167-.56.335-.837.506l-.524-.853c.282-.173.565-.344.85-.513zm-10.419 111.98.661-.751c.245.216.491.429.739.641l-.65.76a75.783 75.783 0 0 1-.75-.65zm1.509 1.29.639-.769c.251.208.503.415.757.62l-.628.778a91.548 91.548 0 0 1-.768-.629zm1.545 1.246.617-.787c.256.202.515.401.774.598l-.605.796a51.35 51.35 0 0 1-.786-.607zm1.58 1.203.594-.805c.262.194.526.386.791.576l-.583.813a78.282 78.282 0 0 1-.802-.584zm1.613 1.156c.272.189.545.376.819.561l.559-.829c-.27-.182-.539-.366-.807-.553l-.571.821zm1.645 1.11.548-.837c.273.179.547.355.822.53l-.535.845c-.28-.178-.558-.357-.835-.538zm1.677 1.063.524-.852c.277.171.556.339.837.506l-.511.86a79.84 79.84 0 0 1-.85-.514zm1.706 1.015.499-.867c.282.162.566.323.851.482l-.486.874a73.561 73.561 0 0 1-.864-.489zm1.735.965.474-.88c.287.154.575.306.864.456l-.461.888a66.445 66.445 0 0 1-.877-.464zm1.761.915.448-.894c.292.147.585.291.879.433l-.436.9c-.298-.144-.595-.29-.891-.439zm1.787.865c.3.139.6.277.902.412l.41-.912a65.222 65.222 0 0 1-.889-.407l-.423.907zm1.812.813.396-.919c.299.13.599.257.901.382l-.383.923a67.629 67.629 0 0 1-.914-.386zm1.832.76.37-.93c.303.121.607.239.912.356l-.357.934a80.29 80.29 0 0 1-.925-.36zm1.857.707.343-.939c.305.112.612.221.919.328l-.329.945a60.83 60.83 0 0 1-.933-.334zm1.872.654.316-.949c.309.103.62.204.932.302l-.302.954a87.24 87.24 0 0 1-.946-.307zm1.893.599.289-.957c.311.093.624.185.937.275l-.274.961a74.54 74.54 0 0 1-.952-.279zm1.909.545.26-.966c.315.085.631.168.948.249l-.247.969a75.177 75.177 0 0 1-.961-.252zm1.923.489.233-.972c.316.076.634.149.952.221l-.218.975a61.707 61.707 0 0 1-.967-.224zm1.939.435.204-.979c.319.067.638.131.958.193l-.191.982a79.414 79.414 0 0 1-.971-.196zm1.946.378.176-.985c.321.058.643.113.966.166l-.163.987c-.327-.054-.653-.11-.979-.168zm1.961.322.149-.989c.321.048.643.094.965.138l-.134.991a64.164 64.164 0 0 1-.98-.14zm1.965.266.12-.993c.324.039.649.076.974.111l-.106.994c-.33-.035-.659-.072-.988-.112zm1.975.21.091-.996c.324.03.649.058.974.083l-.078.997c-.33-.026-.659-.054-.987-.084zm1.978.154.064-.998c.326.02.652.039.979.055l-.049.999a81.58 81.58 0 0 1-.994-.056zm1.982.097.035-.999c.326.011.651.021.978.027l-.021 1a65.315 65.315 0 0 1-.992-.028zm1.987.042.007-1 .326.002h.165l.492-.002.007 1-.499.002-.498-.002zm1.992-.014-.021-1c.326-.006.652-.016.977-.027l.036.999c-.33.012-.661.021-.992.028zm1.98-.069-.05-.999c.328-.016.654-.035.98-.055l.063.998c-.33.021-.662.039-.993.056zm1.985-.126-.078-.997c.325-.025.65-.053.973-.083l.092.996c-.329.03-.658.058-.987.084zm1.973-.182-.105-.994c.325-.035.65-.072.974-.111l.12.993c-.329.04-.658.077-.989.112zm1.973-.238-.134-.991c.323-.044.645-.09.966-.138l.148.989a62.43 62.43 0 0 1-.98.14zm1.962-.294-.162-.987c.323-.053.644-.108.965-.166l.177.985c-.326.058-.652.114-.98.168zm1.954-.35-.19-.982c.32-.062.639-.126.957-.193l.205.979c-.323.067-.647.133-.972.196zm1.944-.407-.219-.975c.319-.072.636-.145.953-.221l.233.972a64.44 64.44 0 0 1-.967.224zm1.928-.461-.246-.969c.316-.081.632-.164.947-.249l.261.966c-.32.086-.64.17-.962.252zm1.919-.518-.275-.961c.314-.09.627-.182.938-.275l.288.957c-.316.095-.633.188-.951.279zm1.899-.571-.302-.954c.312-.098.622-.199.932-.302l.315.949c-.314.104-.629.206-.945.307zm1.885-.627-.33-.945c.308-.107.615-.216.92-.328l.343.939c-.31.114-.621.225-.933.334zm1.864-.681c.31-.118.618-.238.925-.36l-.369-.93c-.303.121-.607.239-.912.356l.356.934zm1.844-.734-.383-.923c.301-.125.602-.252.901-.382l.396.918c-.303.132-.608.26-.914.387zm1.823-.787-.409-.912c.297-.134.594-.269.889-.407l.423.907c-.3.139-.601.277-.903.412zm1.798-.838-.435-.9c.294-.142.587-.286.878-.433l.449.894c-.296.149-.593.295-.892.439zm1.776-.89-.461-.888c.289-.15.577-.302.864-.456l.473.88c-.291.157-.583.311-.876.464zm1.747-.94-.486-.874c.285-.159.569-.32.852-.482l.499.867c-.287.165-.575.328-.865.489zm1.721-.99-.511-.86c.28-.167.559-.335.837-.506l.523.852a91.15 91.15 0 0 1-.849.514zm1.692-1.039-.536-.845c.276-.175.55-.351.823-.53l.547.837c-.277.181-.555.361-.834.538zm1.66-1.087-.559-.829c.271-.182.54-.366.808-.553l.571.821c-.272.189-.545.376-.82.561zm1.63-1.133-.582-.813c.265-.19.528-.382.791-.576l.594.805c-.266.196-.534.391-.803.584zm1.597-1.18-.606-.796c.26-.197.518-.396.775-.598l.617.787c-.261.205-.523.407-.786.607zm1.562-1.224c.258-.208.514-.417.768-.629l-.639-.769c-.25.208-.503.415-.757.62l.628.778zm1.527-1.269-.649-.76c.248-.212.494-.425.739-.641l.66.751a58.19 58.19 0 0 1-.75.65zm1.491-1.311-.671-.741c.241-.219.482-.439.72-.662l.682.732c-.242.226-.486.449-.731.671zm1.452-1.353-.692-.722c.236-.225.47-.453.702-.682l.702.713c-.236.232-.473.462-.712.691zm1.414-1.393-.712-.702c.229-.233.456-.466.682-.702l.722.692c-.229.239-.46.476-.692.712zm1.373-1.433-.731-.682c.222-.239.442-.479.661-.721l.742.671c-.222.246-.446.489-.672.732zm1.332-1.472-.75-.661c.215-.244.429-.491.641-.739l.76.65c-.215.252-.432.502-.651.75zm1.291-1.509-.77-.639c.209-.251.415-.503.62-.757l.778.628c-.208.258-.417.514-.628.768zm1.246-1.545-.787-.617c.201-.256.4-.514.598-.774l.796.606c-.201.263-.403.525-.607.785zm1.202-1.58-.804-.594c.193-.262.385-.526.575-.791l.813.583c-.193.269-.387.536-.584.802zm1.157-1.613-.821-.571c.186-.268.37-.537.553-.807l.829.559c-.185.275-.372.548-.561.819zm1.11-1.645-.837-.548c.178-.272.355-.547.529-.822l.845.535c-.177.28-.356.558-.537.835zm1.063-1.677-.852-.523c.17-.278.339-.557.505-.837l.86.511c-.169.284-.34.567-.513.849zm1.014-1.706-.867-.499c.163-.282.323-.566.482-.851l.874.486c-.161.289-.324.577-.489.864zm.966-1.735-.881-.474c.154-.287.306-.575.457-.864l.887.461c-.152.294-.307.586-.463.877zm.915-1.761-.894-.448c.146-.292.29-.585.432-.879l.901.436a91.99 91.99 0 0 1-.439.891zm.864-1.787-.906-.422c.137-.296.273-.592.406-.89l.913.41c-.136.302-.273.603-.413.902zm.813-1.811c.131-.304.26-.609.387-.914l-.924-.383c-.125.301-.252.601-.381.9l.918.397z" fill="#00C1FE"/><circle cx="62.991" cy="199" r="3.991" fill="#89DFFF" style="mix-blend-mode:multiply"/><circle cx="62" cy="199" r="5" stroke="#003E6E" stroke-opacity=".5" stroke-width="2"/><path stroke="#00C1FE" stroke-dasharray="1 1" d="M68 199.5h31M29 199.5h27M62.5 181v12"/><path fill="#fff" d="M49 133.234h26v48H49z"/><rect x="49" y="133.234" width="26" height="48" rx="2" stroke="#003E6E" stroke-opacity=".5" stroke-width="2"/><rect x="55" y="139.734" width="14" height="3" rx="1.5" fill="#96E5FE"/><circle cx="62" cy="170.234" r="2.5" stroke="#fff"/><circle cx="62.881" cy="169.236" r="2.491" fill="#89DFFF" style="mix-blend-mode:multiply"/><rect x="55.881" y="146.484" width="14" height="3" rx="1.5" fill="#96E5FE"/><rect x="54.217" y="154.234" width="14" height="3" rx="1.5" fill="#96E5FE"/><rect x="55.5" y="141.734" width="13" height="2" rx="1" stroke="#80A9D6"/><rect x="55.5" y="147.734" width="13" height="2" rx="1" stroke="#80A9D6"/><rect x="55.5" y="153.734" width="13" height="2" rx="1" stroke="#80A9D6"/><rect x="102.572" y="182.273" width="51.468" height="35.766" rx="2" stroke="#0053AD" stroke-opacity=".5" stroke-width="2"/><rect x="117.901" y="221.156" width="20.808" height="1.617" rx=".809" stroke="#0053AD" stroke-opacity=".5"/><path fill="#0053AD" fill-opacity=".5" d="M126.997 218.039h2.617v2.617h-2.617z"/><path d="M142.822 203.31a.749.749 0 0 1 .75-.75h1.5a.75.75 0 0 1 .75.75v9h.375a.375.375 0 0 1 0 .75h-11.25a.375.375 0 1 1 0-.75h.375v-2.25a.749.749 0 0 1 .75-.75h1.5a.75.75 0 0 1 .75.75v2.25h.75v-5.25a.749.749 0 0 1 .75-.75h1.5a.75.75 0 0 1 .75.75v5.25h.75v-9z" fill="#00C1FE" fill-opacity=".41"/><path d="M122.561 194.763h-5.833l-4.125 4.125a6 6 0 0 0 9.958-4.125zm-10.489 3.594a6.002 6.002 0 0 1 4.125-9.958v5.833l-4.125 4.125z" fill="#89DFFF"/><path d="M116.947 194.013v-5.614a6.006 6.006 0 0 1 5.614 5.614h-5.614z" fill="#3984BA"/><path d="M143.616 197.396h-8.062v-6.704c0-.047-.042-.086-.094-.086h-.656c-.052 0-.094.039-.094.086v7.391c0 .047.042.086.094.086h8.812c.052 0 .094-.039.094-.086v-.602c0-.047-.042-.085-.094-.085zm-7.031-2.02a.66.66 0 0 0 .22.486c.14.129.331.201.53.201s.39-.072.53-.201a.66.66 0 0 0 .22-.486.66.66 0 0 0-.22-.486.784.784 0 0 0-.53-.202.784.784 0 0 0-.53.202.66.66 0 0 0-.22.486zm4.969-3.33c0 .159.069.312.192.425.123.113.29.176.464.176a.687.687 0 0 0 .464-.176.578.578 0 0 0 .192-.425.574.574 0 0 0-.192-.425.687.687 0 0 0-.464-.177.687.687 0 0 0-.464.177.574.574 0 0 0-.192.425z" fill="#00C1FE"/><path opacity=".4" d="M138.133 193.334a.492.492 0 0 1-.165-.364c0-.137.059-.268.165-.365a.586.586 0 0 1 .397-.151c.149 0 .293.054.398.151a.494.494 0 0 1 .165.365.492.492 0 0 1-.165.364.588.588 0 0 1-.398.151.586.586 0 0 1-.397-.151zM140.149 196.148a.99.99 0 0 1-.33-.729c0-.274.119-.536.33-.729.211-.194.497-.302.795-.302.299 0 .585.108.796.302a.987.987 0 0 1 .329.729.989.989 0 0 1-.329.729 1.176 1.176 0 0 1-.796.302c-.298 0-.584-.108-.795-.302z" fill="#00C1FE"/><path d="m109.656 212.935 5.937-4.381 3.167 2.333 5.613-4.649 1.116.823-6.729 5.576-3.167-2.333-4.75 3.506-1.187-.875zm1.187-2.625 4.75-3.506 3.167 2.333 6.729-5.576-1.116-.823-5.613 4.649-3.167-2.333-5.937 4.381 1.187.875z" fill="#3984BA"/><path d="m190.477 138.5-6.5-2h-3.5l-4.5 3-2.5 4-1 2.5v5.5l-1.5 2.5 1.5 4.5 2.5 5.5 1 3.5-2.5 2-11 3-2 3-1 6.5v5.5l1 7h71.5v-2l-1.5-8-2-4-2-2.5-4.5-2.5v-3l1.5-3V166l-1.5-6-1.5-3.5-3.5-3.5-4-1.5h-4.5l-3.5 1.5-2.5 3.5-1.5 2h-3.5l1-4.5v-2.5l-1-4-2.5-6.5-4.5-2.5z" fill="#fff"/><mask id="b" fill="#fff"><path fill-rule="evenodd" clip-rule="evenodd" d="m208.774 184.207 1.392-4.741-.679-.734c-.309-.442-.376-.828-.202-1.159.37-.718 1.134-.585 1.847-.585.747 0 1.668-.138 1.904.778.078.309-.023.629-.242.96l-.679.735 1.392 4.741-2.364 1.832-2.369-1.827zm-28.711-10.343c-1.168-1.308-1.269-2.677 0-4.123 1.466.364 2.808.988 4.043 1.832.27-.116.578-.16.882-.143 1.286-.894 2.925-1.259 4.357-1.932 1.713 1.639 1.527 3.146-.157 4.548a11.845 11.845 0 0 1-2.69-.966 2.536 2.536 0 0 1-.185.712l.438 3.577h-3.493l.438-3.577c-.275-.453-.376-.839-.365-1.165-1.011.597-2.117.983-3.268 1.237zm-4.661-19.103c-.511.022-.904.127-1.168.298a.924.924 0 0 0-.336.381 1.38 1.38 0 0 0-.113.613c.023.695.388 1.6 1.106 2.643l.012.017 2.319 3.621c.932 1.451 1.903 2.931 3.116 4.023 1.163 1.049 2.578 1.756 4.442 1.761 2.021.006 3.504-.728 4.705-1.838 1.247-1.148 2.235-2.726 3.207-4.294l2.611-4.228c.488-1.093.662-1.821.55-2.252-.067-.254-.354-.381-.842-.403-.101-.005-.208-.005-.32-.005a8.363 8.363 0 0 0-.365.022.854.854 0 0 1-.202-.011 4.02 4.02 0 0 1-.719-.039l.893-3.891c-6.632 1.027-11.596-3.814-18.609-.966l.505 4.587c-.275.005-.544 0-.792-.039zm3.078 16.172a.728.728 0 0 1-.163.16c.219 1.739.528 3.969.893 6.276h-13.791c-.989 0-1.792.91-1.64 2.02l1.915 14.267h-1.752c-1.612-.121-2.432-.938-2.572-2.362.079-6.375-2.386-14.085 4.447-17.828 2.499-1.374 8.951-1.838 11.764-3.648.41-.762.865-2.092 1.151-2.953-.022.061.056-.171.04-.116l.028-.082c-1.034-1.093-1.881-2.379-2.69-3.649l-2.319-3.621c-.848-1.241-1.286-2.378-1.314-3.311-.011-.436.062-.839.23-1.187.174-.364.438-.673.798-.911.168-.11.353-.204.561-.281-.152-1.965-.208-4.443-.107-6.513.051-.491.146-.982.287-1.474.848-2.98 3.453-5.127 6.429-6.137 1.443-.491.887-1.662 2.347-1.579 3.459.188 8.799 2.379 10.849 4.703 2.875 3.256 2.134 7.269 2.038 11.243.64.193 1.056.59 1.224 1.242.186.717-.016 1.733-.634 3.113a.323.323 0 0 1-.039.071l-2.64 4.278c-1.016 1.65-2.049 3.301-3.43 4.57l-.068.061c.129.187.275.392.427.607.46.662.983 1.413 1.465 2.003 2.87 1.756 9.187 2.225 11.652 3.582.59.326 1.106.69 1.555 1.093.382-.331.747-.651 1.039-.916l-.404-.453-1.269-1.451-.943.022-1.797.044c-1.544-1.744-1.449-5.497-1.297-7.661.718-4.349 2.431-7.484 5.216-9.295 1.887-1.225 3.016-1.297 5.222-1.297 1.926 0 3.106-.044 4.751 1.022 5.351 3.466 7.013 11.64 4.397 17.148h-1.87l-.118.138-.169.193-.814.961c-.326.381-.651.767-1.005 1.126.449.43 1.056.955 1.612 1.435.263.226.516.441.741.64 8.372 3.279 10.214 5.188 11.236 15.802.191 1.96.168 1.871-1.741 1.91-7.069.138-16.082 0-24.235-.033l.033-.249 1.915-14.267c.152-1.11-.651-2.02-1.639-2.02h-13.483c.332-2.335.573-4.559.691-6.243-.629-.684-1.303-1.656-1.875-2.489-.13-.182-.253-.364-.371-.53-1.213.8-2.656 1.292-4.464 1.292-2.016-.006-3.583-.685-4.885-1.722-.365 1.076-.899 2.55-1.415 3.256zm27.497 4.2c2.836 3.174 2.392 8.18 2.28 12.706l2.881 4.703 7.019-11.448 3.049.072a21.759 21.759 0 0 0-2.493-3.83c-.253-.254-.753-.685-1.292-1.148a44.641 44.641 0 0 1-1.667-1.485c-.191.16-.388.314-.601.452-.91.613-2.039 1.021-3.572 1.016-1.437 0-2.515-.397-3.402-.977a7.738 7.738 0 0 1-1.18-.966c-.303.276-.657.585-1.022.905z"/></mask><path d="m205.124 171.099-.479.142.062.21.196.096.221-.448zm3.234-13.6.477-.151-.245-.777-.582.571.35.357zm9.557 8.168-.447.223v.001l.447-.224zm.455 4.096.494.077.001-.002-.495-.075zm-.303 1.336.245.436.175-.099.058-.192-.478-.145zm-.427.458.374.332.003-.004-.377-.328zm-.168.198.38.325.006-.007-.386-.318zm-.82.961-.38-.325-.001.001.381.324zm-2.055 2.009-.278-.416-.002.001.28.415zm-5.874.038-.274.419.002.001.272-.42zm-1.993-1.882-.376.33.376-.33zm-1.483-1.694.377-.329-.013-.014-.013-.014-.351.357zm-26.041-4.161.039-.116-.947-.321-.039.116.947.321zm26.397 3.93c-.729-2.454-.913-4.779-.443-6.955.469-2.173 1.598-4.231 3.549-6.145l-.701-.714c-2.075 2.037-3.311 4.265-3.826 6.647-.513 2.379-.302 4.878.463 7.452l.958-.285zm2.278-13.307c.409 1.296 1.664 2.513 3.057 3.544 1.417 1.048 3.08 1.977 4.447 2.673l.453-.892c-1.346-.684-2.953-1.584-4.305-2.585-1.378-1.02-2.393-2.074-2.698-3.041l-.954.301zm7.446 6.189c.853.414 1.603.97 2.141 2.052l.895-.445c-.664-1.335-1.61-2.027-2.599-2.507l-.437.9zm2.141 2.053c.63 1.264.631 2.325.408 3.797l.989.15c.237-1.564.26-2.865-.502-4.394l-.895.447zm.408 3.795a9.136 9.136 0 0 1-.287 1.267l.956.291c.137-.448.243-.913.319-1.404l-.988-.154zm-.054.977a.875.875 0 0 0-.243.195l.763.647c-.016.018-.028.027-.031.03-.004.003-.004.002.001 0l-.49-.872zm-.243.195c-.114.135-.218.258-.316.37l.754.657c.104-.119.214-.25.325-.38l-.763-.647zm-.312.366c-.045.05-.083.094-.181.214l.772.635c.092-.112.122-.146.156-.184l-.747-.665zm-.175.207-.82.96.76.649.82-.96-.76-.649zm-.821.961c-.631.743-1.217 1.427-1.952 1.917l.555.832c.871-.581 1.544-1.377 2.159-2.102l-.762-.647zm-1.954 1.918c-.685.463-1.536.776-2.741.776v1c1.4 0 2.447-.371 3.3-.947l-.559-.829zm-2.741.776c-1.092 0-1.908-.305-2.58-.742l-.545.839c.821.534 1.825.903 3.125.903v-1zm-2.579-.741c-.71-.465-1.292-1.11-1.891-1.793l-.752.659c.591.674 1.255 1.42 2.095 1.971l.548-.837zm-1.891-1.793-1.482-1.694-.753.658 1.483 1.695.752-.659zm-1.508-1.722a.989.989 0 0 0-.254-.18l-.441.897-.005-.003c-.001 0-.001 0 0 0l.001.001-.002-.002.701-.713zm-26.388 7.039h4.048v-1h-4.048v1zm11.589-1h-4.048v1h4.048v-1zm17.975 7.338-.96-.282-.192.657.541.417.611-.792zm1.392-4.741.96.282.16-.545-.386-.416-.734.679zm-.679-.734-.82.573.04.056.046.05.734-.679zm-.202-1.159.885.465.003-.006-.888-.459zm3.751.193.969-.246-.001-.003-.968.249zm-.242.96.734.68.056-.06.044-.068-.834-.552zm-.679.735-.734-.68-.386.417.16.544.96-.281zm1.392 4.741.613.79.539-.418-.192-.654-.96.282zm-2.364 1.832-.61.792.612.472.611-.474-.613-.79zm-31.08-12.17-.746.666.39.436.571-.126-.215-.976zm0-4.123.241-.971-.591-.147-.402.458.752.66zm4.043 1.832-.564.826.454.31.505-.217-.395-.919zm.882-.143-.055.998.343.019.283-.196-.571-.821zm4.357-1.932.692-.722-.496-.475-.621.292.425.905zm-.157 4.548-.218.976.48.107.378-.314-.64-.769zm-2.69-.966.446-.895-1.291-.643-.149 1.434.994.104zm-.185.712-.925-.38-.1.242.032.26.993-.122zm.438 3.577v1h1.13l-.138-1.122-.992.122zm-3.493 0-.992-.122-.138 1.122h1.13v-1zm.438-3.577.993.122.042-.345-.18-.296-.855.519zm-.365-1.165 1 .035.062-1.822-1.57.926.508.861zm-7.929-17.866.155-.988-.098-.015-.1.004.043.999zm-1.168.298-.544-.839-.004.003.548.836zm-.336.381-.905-.427-.004.01.909.417zm-.113.613-.999.023v.009l.999-.032zm1.106 2.643.828-.561-.004-.006-.824.567zm.012.017.842-.539-.007-.011-.008-.011-.827.561zm2.319 3.621-.842.539v.001l.842-.54zm3.116 4.023.67-.742-.67.742zm4.442 1.761-.003 1 .003-1zm4.705-1.838-.677-.735h-.001l.678.735zm3.207-4.294.85.527.001-.002-.851-.525zm2.611-4.228.851.526.035-.057.027-.061-.913-.408zm.55-2.252.968-.252-.001-.004-.967.256zm-.842-.403-.055.999h.01l.045-.999zm-.32-.005v-1h-.024l-.023.001.047.999zm-.365.022.081.997.004-.001-.085-.996zm-.202-.011.161-.987-.104-.017-.105.005.048.999zm-.719-.039-.975-.223-.245 1.069 1.087.145.133-.991zm.893-3.891.974.224.33-1.438-1.457.226.153.988zm-18.609-.966-.376-.926-.701.284.083.752.994-.11zm.505 4.587.02 1 1.094-.022-.12-1.088-.994.11zm2.286 16.133.803.595.004-.005-.807-.59zm-.163.16-.582-.813-.485.346.075.592.992-.125zm.893 6.276v1h1.17l-.183-1.157-.987.157zm-15.431 2.02.991-.133v-.003l-.991.136zm1.915 14.267v1h1.143l-.152-1.133-.991.133zm-1.752 0-.075.998.037.002h.038v-1zm-2.572-2.362-1-.012-.001.055.006.055.995-.098zm4.447-17.828.481.878.001-.001-.482-.877zm11.764-3.648.541.841.217-.14.123-.227-.881-.474zm1.151-2.953.949.316-1.887-.663.938.347zm.04-.116-.957-.292 1.904.613-.947-.321zm.028-.082.947.321.193-.571-.414-.437-.726.687zm-2.69-3.649.843-.537-.001-.002-.842.539zm-2.319-3.621.842-.539-.008-.012-.008-.012-.826.563zm-1.314-3.311-1 .026v.004l1-.03zm.23-1.187.9.436.002-.005-.902-.431zm.798-.911-.549-.836-.003.002.552.834zm.561-.281.349.937.706-.263-.058-.751-.997.077zm-.107-6.513-.994-.102-.003.026-.001.027.998.049zm.287-1.474.961.275.001-.001-.962-.274zm6.429-6.137.322.947v-.001l-.322-.946zm2.347-1.579-.056.999h.002l.054-.999zm10.849 4.703-.75.661v.001l.75-.662zm2.038 11.243-.999-.024-.019.761.729.22.289-.957zm1.224 1.242.969-.25v-.001l-.969.251zm-.634 3.113-.913-.409-.007.016-.006.016.926.377zm-.039.071-.795-.606-.03.039-.026.042.851.525zm-2.64 4.278-.851-.525.851.525zm-3.43 4.57.669.743.007-.007-.676-.736zm-.068.061-.669-.743-.652.587.497.723.824-.567zm.427.607.821-.571-.004-.005-.817.576zm1.465 2.003-.774.633.108.132.145.088.521-.853zm11.652 3.582.484-.875h-.001l-.483.875zm1.555 1.093-.667.745.656.589.667-.578-.656-.756zm1.039-.916.672.741.74-.671-.67-.741-.742.671zm-.404-.453-.753.659.006.006.005.006.742-.671zm-1.269-1.451.753-.658-.308-.353-.468.011.023 1zm-.943.022-.024-1h-.001l.025 1zm-1.797.044-.749.663.308.348.465-.011-.024-1zm-1.297-7.661-.987-.163-.008.046-.003.047.998.07zm5.216-9.295-.544-.838h-.001l.545.838zm9.973-.275.543-.84-.543.84zm4.397 17.148v1h.632l.271-.571-.903-.429zm-1.87 0v-1h-.461l-.3.351.761.649zm-.118.138.753.658.007-.008-.76-.65zm-.169.193-.753-.657-.009.011.762.646zm-.814.961.76.65.003-.003-.763-.647zm-1.005 1.126-.712-.702-.712.722.732.702.692-.722zm1.612 1.435-.654.757.003.002.651-.759zm.741.64-.663.749.133.118.165.064.365-.931zm11.236 15.802-.996.096.001.001.995-.097zm-1.741 1.91.02 1-.02-1zm-24.235-.033-.991-.135-.153 1.13 1.14.005.004-1zm.033-.249.991.135.001-.002-.992-.133zm1.915-14.267-.991-.136v.003l.991.133zm-15.122-2.02-.99-.141-.161 1.141h1.151v-1zm.691-6.243.998.07.03-.429-.292-.317-.736.676zm-1.875-2.489.824-.566-.004-.006-.005-.006-.815.578zm-.371-.53.815-.58-.56-.786-.806.531.551.835zm-4.464 1.292-.003 1h.003v-1zm-4.885-1.722.623-.783-1.113-.886-.457 1.347.947.322zm26.082 7.456-.659-.752-.759.666.673.753.745-.667zm2.28 12.706-1-.025-.007.295.154.252.853-.522zm2.881 4.703-.853.522.852 1.391.853-1.391-.852-.522zm7.019-11.448.023-.999-.575-.014-.301.491.853.522zm3.049.072-.024 1 1.668.039-.751-1.49-.893.451zm-2.493-3.83.78-.626-.034-.042-.037-.038-.709.706zm-1.292-1.148.652-.759-.652.759zm-1.667-1.485.692-.722-.648-.621-.687.576.643.767zm-.601.452-.543-.839-.008.005-.008.005.559.829zm-3.572 1.016.004-1h-.004v1zm-3.402-.977-.549.836.002.001.547-.837zm-1.18-.966.701-.713-.674-.663-.7.637.673.739zm2.734 10.261 1.393-4.741-1.919-.564-1.393 4.741 1.919.564zm1.167-5.702-.679-.734-1.468 1.358.679.734 1.468-1.358zm-.594-.628a.657.657 0 0 1-.115-.209l-.002.029a.194.194 0 0 1-.019.059l-1.77-.93c-.421.799-.149 1.601.267 2.197l1.639-1.146zm-.133-.127c.019-.036.023-.029.005-.017-.01.007.003-.006.073-.018.075-.013.179-.02.337-.019l.251.005c.089.002.19.005.293.005v-2c-.223 0-.784-.038-1.223.038-.554.096-1.15.386-1.513 1.088l1.777.918zm.959-.044c.106 0 .214-.003.307-.005.098-.002.183-.003.265-.002.17.001.278.011.351.028.066.015.057.025.027-.002-.038-.033-.031-.054-.015.008l1.937-.498a1.975 1.975 0 0 0-.598-1.008 2.024 2.024 0 0 0-.909-.451c-.499-.113-1.122-.07-1.365-.07v2zm.935.025c-.009-.034-.001-.052-.006-.033a.73.73 0 0 1-.101.195l1.668 1.103c.292-.44.555-1.058.377-1.758l-1.938.493zm-.007.034-.679.734 1.468 1.359.679-.734-1.468-1.359zm-.905 1.695 1.393 4.742 1.919-.564-1.393-4.741-1.919.563zm1.74 3.669-2.364 1.833 1.225 1.58 2.364-1.832-1.225-1.581zm-1.141 1.831-2.37-1.827-1.221 1.584 2.37 1.827 1.221-1.584zm-30.945-12.044c-.483-.541-.653-.99-.66-1.362-.007-.367.142-.838.666-1.436l-1.504-1.319c-.744.849-1.18 1.785-1.162 2.791.019 1.001.483 1.891 1.168 2.658l1.492-1.332zm-.987-2.487c1.342.334 2.575.906 3.72 1.688l1.128-1.651a13.428 13.428 0 0 0-4.366-1.978l-.482 1.941zm4.679 1.781a.994.994 0 0 1 .432-.064l.109-1.997a2.984 2.984 0 0 0-1.331.224l.79 1.837zm1.058-.241c.538-.375 1.176-.655 1.91-.936.699-.268 1.541-.554 2.302-.912l-.851-1.81c-.672.316-1.365.548-2.166.854-.765.293-1.59.642-2.337 1.162l1.142 1.642zm3.095-2.031c.748.717.908 1.237.888 1.584-.02.361-.251.855-.994 1.473l1.28 1.538c.941-.784 1.646-1.745 1.711-2.898.066-1.166-.538-2.218-1.502-3.141l-1.383 1.444zm.752 2.85a10.832 10.832 0 0 1-2.462-.885l-.892 1.79a12.81 12.81 0 0 0 2.918 1.047l.436-1.952zm-3.902-.094a1.616 1.616 0 0 1-.116.436l1.85.76a3.57 3.57 0 0 0 .255-.988l-1.989-.208zm-.184.938.438 3.576 1.985-.243-.438-3.576-1.985.243zm1.431 2.455h-3.493v2h3.493v-2zm-2.5 1.121.438-3.576-1.985-.243-.438 3.576 1.985.243zm.3-4.217c-.202-.332-.223-.527-.22-.611l-1.999-.069c-.02.568.161 1.145.51 1.719l1.709-1.039zm-1.728-1.507c-.898.53-1.9.884-2.975 1.121l.43 1.953c1.227-.27 2.438-.689 3.561-1.351l-1.016-1.723zm-7.464-18.004c-.603.026-1.196.152-1.669.458l1.088 1.678c.056-.036.249-.12.668-.138l-.087-1.998zm-1.673.461a1.926 1.926 0 0 0-.693.79l1.809.854-.007.012a.062.062 0 0 1-.009.012c-.007.008-.01.009-.003.005l-1.097-1.673zm-.697.8a2.363 2.363 0 0 0-.203 1.053l1.999-.047a.405.405 0 0 1 .021-.171l-1.817-.835zm-.203 1.062c.031.978.521 2.075 1.282 3.179l1.647-1.135c-.677-.982-.917-1.696-.93-2.109l-1.999.065zm1.278 3.173.011.016 1.655-1.122-.011-.017-1.655 1.123zm-.003-.006 2.319 3.621 1.684-1.079-2.319-3.62-1.684 1.078zm2.319 3.622c.922 1.435 1.961 3.03 3.289 4.226l1.339-1.485c-1.098-.989-2.002-2.353-2.945-3.822l-1.683 1.081zm3.288 4.226c1.312 1.184 2.957 2.012 5.109 2.018l.006-2c-1.577-.005-2.762-.589-3.775-1.503l-1.34 1.485zm5.109 2.018c2.305.006 4.024-.845 5.387-2.103l-1.357-1.47c-1.041.961-2.287 1.578-4.024 1.573l-.006 2zm5.386-2.102c1.365-1.257 2.422-2.96 3.379-4.503l-1.7-1.054c-.987 1.592-1.906 3.047-3.034 4.086l1.355 1.471zm3.38-4.505 2.611-4.227-1.702-1.051-2.611 4.228 1.702 1.05zm2.673-4.345c.257-.575.449-1.092.559-1.546.106-.437.163-.916.046-1.366l-1.935.505c-.006-.02.021.08-.054.389-.071.29-.211.684-.442 1.202l1.826.816zm.604-2.916a1.44 1.44 0 0 0-.805-.937c-.312-.147-.656-.195-.959-.209l-.09 1.998c.085.004.143.012.18.019.038.008.04.012.019.002a.461.461 0 0 1-.14-.108.6.6 0 0 1-.138-.252l1.933-.513zm-1.755-1.145c-.133-.007-.268-.007-.374-.007v2c.118 0 .196 0 .265.004l.109-1.997zm-.421-.006a9.302 9.302 0 0 0-.403.025l.17 1.992c.107-.009.207-.014.327-.019l-.094-1.998zm-.4.024.042-.001h-.001l-.323 1.974c.118.019.271.035.445.021l-.163-1.994zm-.168-.013a3.038 3.038 0 0 1-.538-.031l-.266 1.982c.286.039.591.062.9.047l-.096-1.998zm.304 1.184.892-3.891-1.949-.448-.893 3.892 1.95.447zm-.235-5.103c-3.068.475-5.724-.399-8.769-1.149-3.002-.739-6.255-1.302-10.063.245l.752 1.853c3.205-1.302 5.941-.868 8.832-.156 2.848.702 5.99 1.735 9.554 1.183l-.306-1.976zm-19.45.132.505 4.586 1.988-.219-.505-4.586-1.988.219zm1.479 3.477a3.678 3.678 0 0 1-.617-.027l-.309 1.976a5.7 5.7 0 0 0 .966.051l-.04-2zm1.502 16.538a.229.229 0 0 1 .059-.058l1.163 1.627a1.73 1.73 0 0 0 .385-.379l-1.607-1.19zm-.351.88c.22 1.748.53 3.988.897 6.307l1.975-.313c-.363-2.295-.67-4.515-.888-6.244l-1.984.25zm1.885 5.151h-13.791v2h13.791v-2zm-13.791 0c-1.64 0-2.858 1.491-2.631 3.155l1.982-.271c-.076-.555.312-.884.649-.884v-2zm-2.631 3.153 1.915 14.267 1.982-.266-1.915-14.267-1.982.266zm2.906 13.134h-1.752v2h1.752v-2zm-1.677.003c-.657-.049-1.021-.23-1.229-.425-.202-.189-.37-.498-.423-1.038l-1.99.196c.087.884.4 1.696 1.045 2.301.64.6 1.492.889 2.447.961l.15-1.995zm-1.647-1.353c.02-1.644-.124-3.375-.235-5.028-.113-1.677-.195-3.291-.078-4.808.232-2.98 1.215-5.47 4.241-7.126l-.961-1.755c-3.808 2.086-5.009 5.322-5.274 8.727-.13 1.675-.037 3.418.076 5.097.115 1.703.25 3.326.231 4.869l2 .024zm3.929-16.963c.511-.282 1.283-.543 2.271-.805.977-.259 2.078-.496 3.231-.757 1.14-.257 2.321-.535 3.4-.867 1.071-.329 2.104-.729 2.921-1.255l-1.082-1.682c-.589.379-1.418.716-2.426 1.026-1 .307-2.115.571-3.253.827-1.123.254-2.28.503-3.303.775-1.013.268-1.985.579-2.723.985l.964 1.753zm12.163-4.051c.459-.854.941-2.275 1.219-3.111l-1.898-.631c-.294.885-.722 2.124-1.082 2.794l1.761.948zm-.668-3.774.001-.001.001-.002a.06.06 0 0 1 .005-.014l.007-.017.007-.015a2.636 2.636 0 0 1 .035-.072l.025-.042a1.049 1.049 0 0 1 .184-.223c.036-.031.127-.097.182-.13.082-.041.288-.106.412-.124.159.001.476.081.623.161.115.088.281.277.336.369.034.07.078.194.092.248.008.04.018.111.021.141a1.38 1.38 0 0 1 .001.144 1.198 1.198 0 0 1-.013.109l-.005.027-.007.032-.005.018a.113.113 0 0 1-.006.021l-.003.01-.003.009v.003l.001-.004.003-.009a.426.426 0 0 0 .018-.053l.005-.015-.003.007-.007.02a.255.255 0 0 0-.01.024l-.011.024a.736.736 0 0 1-.021.043l-.021.037c-.009.015-.022.037-.04.063a1.208 1.208 0 0 1-.097.12c-.023.024-.08.077-.115.104a1.751 1.751 0 0 1-.249.142c-.109.035-.37.068-.518.056a1.757 1.757 0 0 1-.551-.28 1.75 1.75 0 0 1-.22-.33 1.775 1.775 0 0 1-.058-.201 1.461 1.461 0 0 1-.016-.193 1.215 1.215 0 0 1 .012-.136l.005-.031.007-.037.009-.033.006-.024.002-.007 1.913.584a1.07 1.07 0 0 0 .013-.044l.008-.036a.653.653 0 0 0 .02-.117 1.145 1.145 0 0 0 .003-.162 1.493 1.493 0 0 0-.014-.118 1.848 1.848 0 0 0-.058-.202 1.783 1.783 0 0 0-.22-.33 1.766 1.766 0 0 0-.551-.279 1.749 1.749 0 0 0-.518.056 1.699 1.699 0 0 0-.249.141 1.022 1.022 0 0 0-.252.287l-.021.038a.59.59 0 0 0-.032.068l-.011.026-.01.024a.276.276 0 0 1-.008.023l-.025.072-.024.072a.248.248 0 0 0-.008.027.71.71 0 0 0-.022.086l-.012.068a1.032 1.032 0 0 0-.007.069c-.001.026-.004.078.001.143.003.031.013.102.022.142.013.053.058.178.091.248.055.092.221.281.336.369.148.08.464.16.623.161.125-.018.331-.083.412-.124a1.81 1.81 0 0 0 .182-.13 1.049 1.049 0 0 0 .185-.223l.025-.043.024-.047a.4.4 0 0 0 .026-.06l.013-.034-1.876-.694zm1.925.552.028-.082-1.894-.643-.028.083 1.894.642zm-.193-1.09c-.96-1.016-1.763-2.228-2.573-3.499l-1.686 1.074c.807 1.268 1.7 2.629 2.806 3.799l1.453-1.374zm-2.574-3.501-2.319-3.621-1.684 1.079 2.319 3.621 1.684-1.079zm-2.335-3.645c-.793-1.161-1.12-2.112-1.141-2.778l-1.999.06c.036 1.199.585 2.522 1.488 3.845l1.652-1.127zm-1.14-2.774c-.008-.311.045-.549.13-.725l-1.8-.872c-.252.52-.344 1.088-.33 1.649l2-.052zm.132-.73c.096-.201.239-.37.447-.507l-1.103-1.669a3.23 3.23 0 0 0-1.148 1.314l1.804.862zm.444-.505c.103-.068.221-.128.362-.181l-.698-1.874a3.816 3.816 0 0 0-.761.382l1.097 1.673zm1.01-1.195c-.149-1.929-.204-4.365-.105-6.387l-1.997-.098c-.104 2.117-.046 4.638.108 6.639l1.994-.154zm-.109-6.334c.044-.431.128-.864.253-1.301l-1.923-.549a9.435 9.435 0 0 0-.319 1.646l1.989.204zm.254-1.302c.731-2.572 3.02-4.525 5.789-5.464l-.643-1.894c-3.184 1.08-6.106 3.422-7.07 6.811l1.924.547zm5.789-5.465a2.878 2.878 0 0 0 1.163-.712c.261-.267.438-.566.52-.693.104-.159.112-.141.078-.12-.05.03-.029-.015.208-.001l.113-1.997c-.493-.028-.951.043-1.352.284-.386.232-.602.557-.722.742-.142.217-.188.298-.274.386a.898.898 0 0 1-.378.218l.644 1.893zm1.971-1.526c1.578.085 3.66.639 5.615 1.471 1.972.84 3.659 1.897 4.538 2.894l1.5-1.323c-1.17-1.326-3.178-2.527-5.254-3.411-2.092-.89-4.409-1.526-6.291-1.628l-.108 1.997zm10.153 4.366c1.254 1.42 1.737 3.01 1.887 4.775.156 1.837-.048 3.681-.098 5.782l1.999.048c.045-1.873.26-4.023.091-6-.174-2.048-.758-4.093-2.379-5.929l-1.5 1.324zm2.499 11.538c.336.101.472.251.545.535l1.937-.501c-.264-1.018-.959-1.664-1.904-1.949l-.578 1.915zm.545.535c.095.366.024 1.107-.579 2.454l1.826.817c.632-1.413.966-2.702.69-3.771l-1.937.5zm-.592 2.486c.003-.007.012-.03.028-.06a.709.709 0 0 1 .064-.098l1.59 1.213c.089-.117.139-.226.17-.301l-1.852-.754zm.036-.077-2.64 4.278 1.702 1.05 2.64-4.278-1.702-1.05zm-2.64 4.278c-1.027 1.668-1.993 3.198-3.256 4.359l1.353 1.472c1.5-1.378 2.6-3.149 3.606-4.782l-1.703-1.049zm-3.249 4.352-.067.061 1.339 1.486.067-.061-1.339-1.486zm-.222 1.371c.134.193.288.409.433.616l1.635-1.152c-.157-.224-.295-.416-.42-.598l-1.648 1.134zm.43.611c.454.654 1 1.439 1.512 2.065l1.549-1.266c-.454-.554-.953-1.27-1.419-1.941l-1.642 1.142zm1.765 2.285c1.604.982 4.082 1.568 6.279 2.063 1.137.256 2.22.491 3.179.747.971.259 1.729.518 2.233.795l.965-1.751c-.729-.402-1.685-.711-2.682-.976-1.008-.269-2.146-.516-3.255-.766-2.295-.518-4.411-1.044-5.676-1.818l-1.043 1.706zm11.69 3.605c.529.292.983.614 1.371.962l1.335-1.489a9.392 9.392 0 0 0-1.739-1.224l-.967 1.751zm2.694.973c.383-.333.755-.659 1.055-.931l-1.344-1.482c-.283.258-.641.572-1.022.902l1.311 1.511zm1.125-2.343c-.064-.07-.128-.143-.196-.219-.067-.075-.137-.155-.208-.233l-1.484 1.341.196.22.209.233 1.483-1.342zm-.393-.44-1.269-1.451-1.506 1.316 1.269 1.452 1.506-1.317zm-2.045-1.793-.944.022.047 2 .943-.022-.046-2zm-.945.022-1.797.044.049 2 1.797-.044-.049-2zm-1.024.381c-.556-.628-.893-1.735-1.038-3.115-.141-1.339-.084-2.749-.01-3.813l-1.995-.14c-.077 1.1-.144 2.648.016 4.163.155 1.474.542 3.115 1.53 4.231l1.497-1.326zm-1.059-6.835c.691-4.181 2.305-7.013 4.775-8.619l-1.09-1.677c-3.1 2.015-4.912 5.453-5.658 9.97l1.973.326zm4.775-8.619c.867-.563 1.509-.829 2.157-.969.676-.146 1.409-.167 2.52-.167v-2c-1.095 0-2.03.015-2.941.212-.94.202-1.806.585-2.825 1.247l1.089 1.677zm4.677-1.136c1.942 0 2.838-.026 4.207.861l1.087-1.679c-1.921-1.244-3.383-1.182-5.294-1.182v2zm4.207.861c2.414 1.563 4.046 4.226 4.758 7.202.712 2.977.476 6.16-.721 8.678l1.807.858c1.42-2.989 1.661-6.648.859-10.002-.803-3.355-2.678-6.512-5.616-8.415l-1.087 1.679zm4.941 15.309h-1.87v2h1.87v-2zm-2.631.351-.117.138 1.52 1.299.118-.138-1.521-1.299zm-.111.13-.168.193 1.507 1.315.168-.193-1.507-1.315zm-.177.204-.815.96 1.526 1.294.814-.961-1.525-1.293zm-.812.957c-.334.391-.634.746-.957 1.074l1.424 1.404c.384-.39.736-.807 1.053-1.178l-1.52-1.3zm-.937 2.498c.472.452 1.1.995 1.65 1.47l1.307-1.514a44.692 44.692 0 0 1-1.573-1.4l-1.384 1.444zm1.653 1.472c.268.23.512.438.729.63l1.325-1.498a60.736 60.736 0 0 0-.753-.65l-1.301 1.518zm1.027.812c4.2 1.645 6.49 2.857 7.935 4.813 1.454 1.969 2.159 4.842 2.67 10.154l1.991-.192c-.51-5.302-1.237-8.691-3.052-11.15-1.826-2.472-4.642-3.853-8.815-5.487l-.729 1.862zm10.606 14.968c.05.514.076.808.072 1.004-.004.214-.046.052.122-.121.154-.159.298-.128.061-.104-.213.022-.508.024-1.021.034l.04 2c.442-.009.866-.011 1.188-.045.298-.031.794-.107 1.169-.494.387-.401.435-.911.441-1.232.006-.34-.036-.77-.082-1.236l-1.99.194zm-.765.813c-7.054.138-16.04 0-24.212-.033l-.008 2c8.134.033 17.173.171 24.259.033l-.039-2zm-23.225 1.101.033-.248-1.981-.269-.034.248 1.982.269zm.034-.25 1.914-14.267-1.982-.266-1.915 14.267 1.983.266zm1.914-14.265c.227-1.664-.99-3.155-2.63-3.155v2c.336 0 .724.329.648.884l1.982.271zm-15.122-2.015c.333-2.352.578-4.601.698-6.313l-1.995-.14c-.116 1.655-.355 3.855-.684 6.172l1.981.281zm.436-7.059c-.572-.623-1.205-1.532-1.787-2.379l-1.649 1.132c.564.82 1.278 1.854 1.964 2.6l1.472-1.353zm-1.796-2.391-.183-.263-.188-.269-1.63 1.16.175.249.195.279 1.631-1.156zm-1.737-.787c-1.051.694-2.303 1.127-3.913 1.127v2c2.006 0 3.64-.55 5.015-1.457l-1.102-1.67zm-3.91 1.127c-1.765-.005-3.118-.591-4.265-1.505l-1.246 1.565c1.458 1.161 3.238 1.933 5.505 1.94l.006-2zm-5.835-1.044a29.184 29.184 0 0 1-.629 1.708c-.239.581-.464 1.03-.647 1.28l1.615 1.18c.334-.457.634-1.097.882-1.699.255-.621.488-1.282.673-1.826l-1.894-.643zm26.284 8.445c1.219 1.364 1.777 3.169 1.996 5.282.221 2.131.087 4.418.029 6.732l2 .05c.055-2.212.199-4.691-.04-6.988-.239-2.315-.877-4.6-2.494-6.409l-1.491 1.333zm2.172 12.561 2.881 4.703 1.706-1.045-2.881-4.702-1.706 1.044zm4.586 4.703 7.019-11.447-1.705-1.045-7.019 11.447 1.705 1.045zm6.143-10.97 3.049.072.047-2-3.049-.071-.047 1.999zm3.966-1.379a22.743 22.743 0 0 0-2.606-4.005l-1.56 1.251a20.763 20.763 0 0 1 2.38 3.656l1.786-.902zm-2.677-4.085c-.288-.289-.826-.751-1.349-1.201l-1.304 1.517c.556.478 1.017.876 1.235 1.095l1.418-1.411zm-1.349-1.201a43.25 43.25 0 0 1-1.627-1.448l-1.385 1.443a44.519 44.519 0 0 0 1.709 1.522l1.303-1.517zm-2.962-1.493a5.025 5.025 0 0 1-.501.38l1.086 1.679c.262-.17.495-.354.7-.526l-1.285-1.533zm-.517.39c-.743.5-1.676.85-3.009.845l-.007 2c1.733.006 3.057-.461 4.133-1.186l-1.117-1.659zm-3.013.845c-1.232 0-2.121-.335-2.856-.814l-1.093 1.674c1.04.68 2.306 1.14 3.949 1.14v-2zm-2.854-.813a6.74 6.74 0 0 1-1.027-.843l-1.402 1.426c.388.381.826.757 1.332 1.089l1.097-1.672zm-2.401-.869c-.294.268-.64.569-1.008.892l1.319 1.504c.361-.317.724-.634 1.035-.917l-1.346-1.479zm-2.044 2.88h-13.483v2h13.483v-2z" fill="#003E6E" fill-opacity=".5" mask="url(#b)"/><path fill-rule="evenodd" clip-rule="evenodd" d="M191.447 177.362H178.65v-1h12.797v1z" fill="#003E6E" fill-opacity=".5"/><path d="M208.099 156.388c.283.716 1.165 2.307 2.431 2.94 1.583.791 2.883.452 4.353 1.866 1.47 1.413 2.714 3.844 2.318 4.805M216.713 179.592l-5.007 10.587-2.289-3.005" stroke="#00C1FE" stroke-opacity=".3" stroke-width="5"/><circle cx="185.048" cy="187.749" r="1.751" fill="#003E6E" fill-opacity=".5"/><circle cx="185.048" cy="187.749" r="1.251" stroke="#003E6E" stroke-opacity=".5"/><path d="M190.562 143.015c-1.91-1.725-5.519-2.413-7.084-2.541 0 .616-3.619 2.002-5.236 3.388-1.293 1.109-.539 2.567 0 3.157.642.026 2.587.062 5.236 0 3.31-.077 4.774 1.694 7.084 2.387 1.847.555 2.874-.231 3.157-.693-.257-1.18-1.247-3.973-3.157-5.698z" fill="#A3E2FE"/><defs><clipPath id="a"><path fill="#fff" transform="translate(161 73)" d="M0 0h158v121H0z"/></clipPath></defs></svg>