<?xml version="1.0" encoding="UTF-8"?><svg id="Logos" xmlns="http://www.w3.org/2000/svg" viewBox="0 0 600 600"><circle cx="300.18" cy="299.72" r="260.34" style="fill:#ffc000;"/><path d="M300,582.64c-155.49,0-282-126.5-282-282S144.51,18.64,300,18.64s282,126.51,282,282-126.51,282-282,282Zm0-540.17c-142.35,0-258.16,115.81-258.16,258.17s115.81,258.16,258.16,258.16,258.16-115.81,258.16-258.16S442.35,42.48,300,42.48Z"/><g><path d="M334.95,160.96c-15.46-7.2-24.36-23.98-21.66-40.79,15.43,7.16,24.36,23.98,21.66,40.79Z" style="fill:#fff; fill-rule:evenodd;"/><path d="M245.55,303.05c2.49,8.3,6.44,16.12,11.8,22.9h80.26c5.4-6.78,9.31-14.6,11.8-22.9h-103.86Z"/><path d="M297.48,377.43c10.34-18.65,15.74-25.05,22.63-32.28h-45.25c6.92,7.23,12.28,13.63,22.63,32.28Z"/><path d="M348.48,256.27c-15.36-11.24-32.52-22.52-51-33.32-18.47,10.79-35.63,22.07-50.96,33.32-3.04,8.79-4.39,18.23-4.08,27.57h110.09c.31-9.34-1.04-18.79-4.05-27.57Z"/><path d="M259.7,160.93c15.43-7.2,24.36-23.97,21.66-40.79-15.46,7.16-24.36,23.98-21.66,40.79Z" style="fill:none;"/><path d="M414.97,220.36c-2.53,2.39-2.66,6.37-.31,8.93l.86,.97c36.47-31.14,58.4-55.22,47.47-74.21-12.04-16.78-62.76-8.82-124.96,19.17,3.15-6.33,4.7-13.29,4.7-20.2,0-2.56-.21-5.12-.66-7.65-1.49-8.93-5.67-17.51-12.56-24.36-3.74-3.77-8.03-6.71-12.59-8.86l.21-.48h.03l4.77-10.38c.76-1.66,.03-3.63-1.63-4.39-1.66-.76-3.63-.03-4.39,1.63l-5.19,11.24c-8.62-2.63-17.89-2.63-26.5,0l-5.19-11.24c-.76-1.66-2.73-2.39-4.39-1.63-1.66,.76-2.39,2.73-1.63,4.39l4.64,10.03,.38,.8c-4.57,2.18-8.82,5.12-12.59,8.89-9.03,9.03-13.42,20.97-13.18,32.87,.1,6.44,1.56,12.84,4.39,18.79-16.09-7.2-105.38-44.18-123.37-18.96-16.29,22.94,33.77,63.1,47.15,74.56l.87-.97c2.35-2.56,2.21-6.54-.28-8.93-6.57-6.19-16.88-16.4-24.08-26.36-9.44-13.08-9.69-20.79-5.12-25.08,14.22-13.35,66.98,4.32,83.34,10.55,15.71,6.02,32.66,13.7,50.13,22.9-83.62,48.47-140.43,106.38-127,129.6,8.41,14.57,43.38,12.66,88.32-3.18l-1.63-2.66c-1.52-2.53-4.46-3.67-7.3-2.8-31.17,9.44-50.58,13.94-57.29,3.91-9.38-16.23,38.16-72.13,112.02-114.76l5.54-3.18c1.87,1.04,3.74,2.11,5.57,3.18,73.86,42.62,121.4,98.53,112.02,114.76-6.71,10.03-26.12,5.54-57.29-3.91-2.84-.87-5.78,.28-7.3,2.8l-1.63,2.66c44.94,15.84,79.92,17.75,88.33,3.18,13.39-23.21-43.38-81.13-127-129.6,58.85-31.03,111.88-44.84,131.33-34.94,17.47,8.89-13.18,39.82-27.02,52.93Zm-155.27-59.44c-2.7-16.81,6.19-33.63,21.66-40.79,2.7,16.81-6.23,33.59-21.66,40.79Zm75.25,0c-15.46-7.2-24.36-23.97-21.66-40.79,15.43,7.16,24.36,23.98,21.66,40.79Z"/><path d="M259.7,160.93c-2.7-16.81,6.19-33.63,21.66-40.79,2.7,16.81-6.23,33.59-21.66,40.79Z" style="fill:#fff; fill-rule:evenodd;"/><path d="M182.66,226.18s1.33-3.22-1.78-6.16c-13.86-13.09-44.49-44.04-27.02-52.93,19.44-9.89,72.59,4.25,131.44,35.28-29.68,17.19-50.07,31.39-71.52,48.72-23.78-17.41-28.02-21.3-31.12-24.91Z" style="fill:#fff; fill-rule:evenodd;"/><path d="M415.4,327.56c-6.71,10.03-26.12,5.54-57.29-3.91-1.42-.42-2.84-.38-4.12,.14,9.51-13.8,11.59-39.23,8.27-57.78-.03-.07-.03-.17-.03-.28-.03-.07-.03-.1-.03-.14-1-7.27-2.59-13.01-4.43-15.57,41.41,33.32,64.49,65.84,57.64,77.53Z" style="fill:#fff; fill-rule:evenodd;"/><path d="M382.63,251.46c-20.97-17.61-42.29-31.86-71.97-49.06,58.85-31.03,111.89-44.84,131.33-34.94,17.47,8.89-13.18,39.82-27.02,52.93-2.46,2.32-1.86,3.38-1.78,6.16-3.1,3.61-6.78,7.5-30.56,24.91Z" style="fill:#fff; fill-rule:evenodd;"/><path d="M238.11,249.59c-1.83,2.56-3.43,8.3-4.43,15.57,0,.03,0,.07-.03,.14,0,.1,0,.21-.03,.28-3.32,18.54-1.25,43.97,8.27,57.78-1.28-.52-2.7-.55-4.12-.14-31.17,9.44-50.58,13.94-57.29,3.91-6.85-11.69,16.23-44.21,57.64-77.53Z" style="fill:#fff; fill-rule:evenodd;"/></g><path d="M300,582.64c-155.49,0-282-126.5-282-282S144.51,18.64,300,18.64s282,126.51,282,282-126.51,282-282,282Zm0-540.17c-142.35,0-258.16,115.81-258.16,258.17s115.81,258.16,258.16,258.16,258.16-115.81,258.16-258.16S442.35,42.48,300,42.48Z"/><polygon points="422.08 553.09 305.67 574.17 175.23 546.77 175.23 503.25 422.08 503.25 422.08 553.09" style="fill:#fff;"/><path d="M300,582.64c-155.49,0-282-126.5-282-282S144.51,18.64,300,18.64s282,126.51,282,282-126.51,282-282,282Zm0-540.17c-142.35,0-258.16,115.81-258.16,258.17s115.81,258.16,258.16,258.16,258.16-115.81,258.16-258.16S442.35,42.48,300,42.48Z"/><path d="M511.27,461c-50.87-25.06-83.41-91.58-84.81-94.37h-4.63c-.49,.93-49.73,102.95-123.36,104.18h-.31c-73.63-1.24-122.87-103.25-123.36-104.18h-4.46c-1.39,2.76-33.09,67.25-82.54,93.13-12.6,6.59-12.64,11.18,1.36,4.61,17.64-8.27,34.91-21.44,51.21-39.18,12.7-13.82,22.17-27.45,27.99-36.68-1.15,15.56-3.48,50.53-4.39,88.65-.09,3.74-.33,7.91-.67,12.24h-58.85l52.86,48.5,30.43,16.84s-2.23-19.97-4.11-40.8c10.37-1.31,20.49-2.4,28.74-2.95,40.77-2.7,83.31-3.6,83.31-3.6h9.01s42.54,.9,83.31,3.6c7.3,.48,16.08,1.4,25.2,2.51-1.88,20.19-4.09,39.32-4.09,39.32l32.36-16.84,54.46-46.58h-62.22c-.43-4.3-.73-8.46-.82-12.24-.9-37.78-3.2-72.45-4.35-88.22,5.85,9.22,15.22,22.64,27.72,36.24,17.67,19.23,36.48,33.08,55.65,41.16,12.57,5.29,11.3,.53-.63-5.34Zm-206.57,28.41h-123.02c-.3-4.61-.51-8.8-.59-12.24-1.16-48.88-1.21-37.46-4.49-88.44,5.84,9.22,15.26,22.75,27.86,36.46,29.25,31.83,61.62,48.93,93.6,49.47h.51c31.98-.54,64.35-17.64,93.6-49.47,12.79-13.92,22.31-27.65,28.13-36.88-3.3,51.48-3.36,39.84-4.52,88.86-.08,3.47-.3,7.66-.6,12.24h-110.48Z"/></svg>