<svg xmlns="http://www.w3.org/2000/svg" xmlns:xlink="http://www.w3.org/1999/xlink" width="463" height="454" fill="none">
  <style>
    <![CDATA[.B{fill-opacity:.3}.C{fill-opacity:.5}.D{fill-opacity:.41}.E{fill-opacity:.4}.F{fill-rule:evenodd}.G{stroke:#003e6e}.H{fill:#003e6e}.I{fill:#00c1fe}.J{stroke:#00c1fe}.K{stroke-width:2}.L{fill-opacity:.8}.M{stroke-dasharray:1 1}.N{stroke-opacity:.3}.O{fill:#89dfff}.P{fill:#75dafe}.Q{stroke-opacity:.6}]]></style>
  <path d="M229.632 321.684h-20.578m34.9 42.324v13.661" class="J M"/>
  <mask id="A" fill="#fff">
    <path d="M10.899 312.534h27.159c-.328 8.712-6.282 15.653-13.58 15.653s-13.252-6.941-13.579-15.653z" class="F"/>
  </mask>
  <g class="H">
    <path d="M10.899 312.534l-1.999.075-.078-2.075h2.077v2zm27.159 0v-2h2.077l-.078 2.075-1.999-.075zm-27.159-2h27.159v4H10.899v-4zm13.58 15.653c5.9 0 11.28-5.737 11.581-13.728l3.997.15c-.355 9.433-6.884 17.578-15.578 17.578v-4zm-11.581-13.728c.301 7.991 5.681 13.728 11.581 13.728v4c-8.694 0-15.223-8.145-15.578-17.578l3.997-.15z"
          mask="url(#A)"/>
    <path d="M11.133 307.859c1.3-7.426 6.761-13 13.3-13s11.999 5.574 13.3 13h-2.03c-1.266-6.536-6.066-11-11.27-11s-10.003 4.464-11.27 11h-2.03z"
          class="F"/>
  </g>
  <path fill="#fff" d="M37.931 308.359h-31v2h31z" class="G"/>
  <path d="M30.56 340.86l.938.938-2.062 2.888a.93.93 0 0 1-.764.393h-.066a.94.94 0 0 0-.359.071c-.114.047-.217.116-.305.204l-2.508 2.507 2.454 2.489c.42-.124.862-.148 1.293-.071a2.82 2.82 0 0 1 1.188.516c.35.262.635.602.831.993s.299.822.299 1.26a2.81 2.81 0 0 1-.256 1.167c-.168.367-.413.693-.717.957a2.82 2.82 0 0 1-1.05.571 2.81 2.81 0 0 1-1.192.084 2.79 2.79 0 0 1-1.12-.419 2.81 2.81 0 0 1-.845-.845 2.82 2.82 0 0 1-.417-1.121 2.81 2.81 0 0 1 .086-1.192l-2.488-2.454-.908.908.286.857a.94.94 0 0 1-.227.959l-3.146 3.146c-.176.176-.414.275-.663.275s-.487-.099-.663-.275l-1.487-1.487a.94.94 0 0 1-.274-.663c0-.248.099-.487.274-.662l3.146-3.147c.123-.123.278-.209.447-.249a.94.94 0 0 1 .512.023l.857.285.9-.9-2.512-2.477c-.417.111-.854.125-1.277.041s-.821-.265-1.164-.527a2.82 2.82 0 0 1-.811-.987c-.191-.386-.291-.812-.292-1.243a2.79 2.79 0 0 1 .096-.729l2.006 2.007 1.648-.341.341-1.647-2.007-2.007c.477-.129.98-.129 1.458-.001a2.82 2.82 0 0 1 1.262.729c.349.35.6.786.728 1.264s.126.981-.003 1.458l2.475 2.51 2.502-2.5c.176-.176.275-.414.275-.663v-.066c0-.15.036-.297.104-.429a.93.93 0 0 1 .289-.334l2.889-2.064zm-9.043 9.981a.47.47 0 0 0-.152-.102.46.46 0 0 0-.18-.036c-.062 0-.123.012-.18.036a.47.47 0 0 0-.152.102l-2.812 2.812c-.044.044-.078.096-.102.153a.47.47 0 0 0 0 .359.46.46 0 0 0 .102.152.47.47 0 0 0 .152.102.48.48 0 0 0 .18.036.48.48 0 0 0 .18-.036.47.47 0 0 0 .152-.102l2.813-2.812a.48.48 0 0 0 .102-.153.47.47 0 0 0 0-.359c-.024-.057-.058-.109-.102-.152zm7.168.332l-.442.227-.496.024-.269.417-.417.269-.024.496-.227.442.227.441.024.496.417.269.269.417.496.025.442.227.442-.227.496-.025.269-.417.417-.269.024-.496.227-.441-.227-.442-.024-.496-.417-.269-.269-.417-.496-.024-.442-.227z"
        class="H"/>
  <g class="G">
    <path transform="matrix(-.5 .866025 .866025 .5 29.4306 299.859)" d="M0-.5h7"/>
    <path transform="matrix(-.5 -.866025 -.866025 .5 23.4306 305.922)" d="M0-.5h7"/>
  </g>
  <g class="F">
    <path d="M19.583 339.858a14.44 14.44 0 0 1 2.169-3.452l-1.313-1.537c-1.255 1.421-2.283 3.111-3.015 4.989h2.159zm8.83 0c-.468-1.042-1.039-2.002-1.696-2.865l1.324-1.549c1.037 1.294 1.895 2.783 2.531 4.414h-2.159zm4.018 4h9.795c-1.074-6.639-5.931-11.375-11.427-11.641l1.571-1.839c6.053 1.026 10.861 6.505 11.877 13.48a19.08 19.08 0 0 1 .184 2h-12v-2zm-17 2H3.564c.027-.678.089-1.345.184-2 1.065-7.309 6.293-12.974 12.753-13.596l1.671 1.955a9.84 9.84 0 0 0-.486-.012c-5.694 0-10.81 4.818-11.916 11.653h9.661v2z"
          class="H"/>
    <g class="I">
      <path d="M33.176 320.857l1.482-2.589c.521-.974.104-2.171-.89-2.653s-2.189-.066-2.713.906l-1.282 2.233-1.226 1.788a4.67 4.67 0 0 1-.551.606c-.021.019-.024.021-.008.013l-1.22.634c-.98.51-1.355 1.719-.841 2.697a2.01 2.01 0 0 0 2.703.843l1.198-.622c.757-.393 1.395-1.109 1.849-1.68.509-.64 1.022-1.405 1.498-2.176zm-6.871-14.482a2 2 0 0 0 2.753-.649l.968-1.566a2 2 0 1 0-3.402-2.103l-.968 1.565a2 2 0 0 0 .649 2.753z"
            class="B"/>
      <path d="M40.554 306.024l.779.88 1.477-1.727-.752-.912-1.504 1.759zm3.06-3.456l.724.943 1.578-1.601-.695-.972-1.607 1.63zm3.262-3.193l.665 1.001 1.671-1.466-.634-1.028-1.701 1.493zm3.448-2.914l.602 1.053 1.755-1.323-.57-1.077-1.788 1.347zm3.615-2.619l.537 1.101 1.832-1.173-.503-1.123-1.866 1.195zm3.767-2.311l.468 1.143 1.898-1.016-.433-1.161-1.933 1.034zm3.897-1.988l.397 1.18 1.956-.855-.36-1.195-1.993.87zm4.012-1.656l.323 1.21 2.002-.687-.286-1.222-2.039.699zm4.1-1.313l.248 1.234 2.042-.518-.21-1.243-2.08.527zm45.014 8.54l-.57 1.077 1.755 1.323.603-1.053-1.788-1.347zm3.534 2.768l-.634 1.028 1.67 1.466.665-1.001-1.701-1.493zm24.266 65.238l-1.075-.157-.294 2.417 1.069.201.3-2.461zm-.675 4.911l-1.063-.246-.442 2.389 1.055.291.45-2.434zm-.975 4.845l-1.045-.335-.586 2.343 1.033.378.598-2.386zm-1.269 4.749l-.744 2.332-1.008-.465.73-2.289 1.022.422zm-1.559 4.63l-.992-.506-.869 2.221.977.547.884-2.262zm-1.838 4.488l-.959-.589-1.002 2.144.94.628 1.021-2.183zm-2.107 4.322l-.921-.667-1.131 2.054.9.705 1.152-2.092zm-2.366 4.135l-.878-.742-1.253 1.955.855.778 1.276-1.991zm-2.611 3.928l-.831-.813-1.368 1.846.805.847 1.394-1.88zM97.125 422.28l-.248-1.234-2.042.517.21 1.244 2.08-.527zm-4.173.966l-.172-1.252-2.065.345.134 1.258 2.104-.351zm-4.219.614l-.095-1.263-2.085.173.057 1.265 2.124-.175zm-4.246.262l-.019-1.267-1.048.011a52.23 52.23 0 0 1-1.048-.011l-.019 1.267 1.067.011 1.067-.011zm-4.257-.087l.057-1.265-2.085-.173-.095 1.263 2.124.175zm-4.239-.438l.134-1.258-2.065-.345-.172 1.252 2.104.351zm-4.197-.79l.21-1.244-2.042-.517-.248 1.234 2.08.527zm-4.14-1.141l.286-1.223-2.002-.686-.323 1.209 2.039.7zm-4.058-1.486l.36-1.195-1.956-.854-.397 1.179 1.993.87zm-3.957-1.823l.433-1.162-1.898-1.016-.468 1.143 1.933 1.035zm-3.835-2.151l.503-1.123-1.832-1.172-.537 1.1 1.866 1.195zm-3.693-2.466l.57-1.078-1.755-1.323-.602 1.053 1.788 1.348zm-20.464-24.814l.941-.628-1.002-2.144-.959.589 1.021 2.183zm-1.975-4.409l.977-.547-.868-2.221-.993.506.884 2.262zm-1.699-4.56l1.008-.465-.73-2.289-1.021.422.744 2.332z"/>
    </g>
    <path d="M89.516 374.883h32v22h-32v-22zm34 22c0 .187-.026.369-.074.541a2 2 0 0 1 .53.826l2.666 8a2 2 0 0 1-1.897 2.633h-14.694-9.062-14.695a2 2 0 0 1-1.897-2.633l2.667-8a2 2 0 0 1 .53-.827 2 2 0 0 1-.074-.54v-22a2 2 0 0 1 2-2h32a2 2 0 0 1 2 2v22zm-24.532 10H86.291l2.667-8h.559 32 .558l2.667 8h-12.693a2.04 2.04 0 0 0-.044-.415l-.425-2a2 2 0 0 0-1.956-1.585h-8.214a2 2 0 0 0-1.957 1.585l-.424 2c-.03.14-.044.278-.044.415zm1 0h11.064a1.07 1.07 0 0 0-.023-.208l-.424-2a1 1 0 0 0-.978-.792h-8.214a1 1 0 0 0-.978.792l-.424 2a.98.98 0 0 0-.023.208z"
          class="H"/>
    <path d="M98.516 387.717a1.17 1.17 0 0 1 1.167 1.167c0 .644-.522 1.167-1.167 1.167s-1.167-.523-1.167-1.167.522-1.167 1.167-1.167zm2.333 1.167c0-1.289-1.045-2.333-2.333-2.333s-2.333 1.044-2.333 2.333 1.045 2.333 2.333 2.333 2.333-1.044 2.333-2.333zm-2.333-5.835c.155 0 .303.062.412.171s.171.258.171.413v.101a1.55 1.55 0 0 0 .937 1.415c.049.021.101.035.154.042.252.088.523.11.787.062.304-.055.584-.2.805-.416l.005-.004.035-.035c.054-.054.118-.098.189-.127s.147-.045.224-.045a.59.59 0 0 1 .223.045.56.56 0 0 1 .189.127h.001c.054.054.097.119.126.189a.59.59 0 0 1 .045.224.57.57 0 0 1-.045.223.59.59 0 0 1-.126.189l-.04.04c-.216.221-.361.501-.416.805a1.55 1.55 0 0 0 .645 1.59c.252.18.553.281.863.288h.013.053c.154 0 .303.062.412.171a.58.58 0 0 1 0 .825c-.109.109-.258.171-.412.171h-.102a1.54 1.54 0 0 0-.847.257c-.251.166-.447.401-.566.677-.124.282-.161.594-.106.897a1.55 1.55 0 0 0 .416.805l.005.005.035.035c.054.054.097.118.127.189a.59.59 0 0 1 0 .447c-.03.071-.073.135-.127.189v.001a.59.59 0 0 1-.19.126.57.57 0 0 1-.223.045c-.077 0-.153-.015-.224-.045a.59.59 0 0 1-.189-.126l-.04-.04a1.54 1.54 0 0 0-.805-.416 1.55 1.55 0 0 0-1.589.645c-.18.252-.281.553-.288.863v.013.053a.58.58 0 1 1-1.166 0v-.099-.003c-.001-.301-.091-.596-.257-.847s-.401-.447-.677-.566c-.282-.124-.594-.161-.897-.106a1.55 1.55 0 0 0-.805.416l-.005.005-.035.035a.6.6 0 0 1-.19.127.59.59 0 0 1-.447 0 .6.6 0 0 1-.189-.127h0a.61.61 0 0 1-.127-.19.58.58 0 0 1 .127-.636l.04-.04a1.54 1.54 0 0 0 .416-.805c.055-.303.018-.615-.106-.897a1.55 1.55 0 0 0-1.413-.934h-.002-.052a.58.58 0 0 1-.583-.583c0-.155.061-.303.171-.413a.58.58 0 0 1 .412-.171h.099.002a1.54 1.54 0 0 0 1.415-.936c.021-.05.035-.102.042-.155.088-.251.11-.522.062-.786a1.54 1.54 0 0 0-.416-.805l-.004-.005-.035-.035a.58.58 0 0 1-.127-.636c.029-.071.072-.135.127-.19h.001a.6.6 0 0 1 .189-.127.59.59 0 0 1 .447 0 .6.6 0 0 1 .189.127l.04.04c.221.216.501.361.805.416a1.54 1.54 0 0 0 .897-.106 1.55 1.55 0 0 0 .677-.566c.166-.251.256-.546.257-.847v-.003-.052c0-.155.061-.303.171-.413a.58.58 0 0 1 .412-.171zm-4.317 7.584l-.534.235a.38.38 0 0 1-.074.417l-.032.032a1.74 1.74 0 0 0-.38.568 1.75 1.75 0 0 0 0 1.34 1.76 1.76 0 0 0 .38.568l.412-.413-.413.413a1.77 1.77 0 0 0 .568.379 1.75 1.75 0 0 0 1.34 0 1.76 1.76 0 0 0 .568-.379l.032-.032c.054-.052.122-.087.196-.101a.39.39 0 0 1 .221.026l.006.003c.068.029.126.077.167.139a.38.38 0 0 1 .063.207v.098a1.75 1.75 0 0 0 2.987 1.237 1.75 1.75 0 0 0 .512-1.237v-.044c.003-.075.027-.146.071-.207s.106-.109.177-.135c.012-.004.023-.009.034-.014.07-.03.147-.04.221-.026s.142.048.196.1l.032.032c.162.163.355.292.568.38a1.75 1.75 0 0 0 1.34 0 1.77 1.77 0 0 0 .947-.947c.088-.213.134-.44.134-.67a1.76 1.76 0 0 0-.134-.671 1.77 1.77 0 0 0-.379-.568l-.032-.032c-.052-.053-.087-.122-.101-.195a.39.39 0 0 1 .026-.221l.003-.006a.37.37 0 0 1 .139-.166c.062-.041.133-.063.207-.064h.098a1.75 1.75 0 1 0 0-3.5h-.044c-.075-.002-.146-.027-.207-.07s-.109-.106-.135-.178l-.014-.034c-.03-.069-.04-.146-.026-.22s.048-.142.1-.196l.032-.032c.163-.163.292-.356.38-.568a1.75 1.75 0 0 0 0-1.34c-.088-.213-.217-.406-.38-.568a1.74 1.74 0 0 0-.567-.38 1.75 1.75 0 0 0-.67-.133c-.23 0-.458.045-.671.133s-.405.217-.568.38l-.032.032c-.053.052-.122.087-.195.1s-.152.005-.221-.026a.58.58 0 0 0-.116-.037c-.041-.028-.076-.063-.103-.105a.37.37 0 0 1-.063-.206v-.098c0-.464-.185-.909-.513-1.238a1.75 1.75 0 0 0-2.475 0c-.328.329-.513.774-.513 1.238v.051c-.001.073-.022.145-.063.207a.38.38 0 0 1-.167.139l-.006.002a.38.38 0 0 1-.221.027c-.074-.014-.142-.049-.196-.101l-.032-.032c-.162-.162-.356-.291-.568-.379a1.75 1.75 0 0 0-.67-.134 1.73 1.73 0 0 0-.67.134 1.76 1.76 0 0 0-.947.947 1.75 1.75 0 0 0 0 1.34 1.75 1.75 0 0 0 .38.568l.032.032a.38.38 0 0 1 .074.417.57.57 0 0 0-.037.116c-.028.04-.063.075-.104.103a.39.39 0 0 1-.207.063h-.098a1.75 1.75 0 0 0-1.237.512c-.328.329-.513.774-.513 1.238a1.75 1.75 0 0 0 1.75 1.75h.051a.37.37 0 0 1 .207.063.38.38 0 0 1 .139.167l.536-.23zm17.817-9a.75.75 0 1 1 0 1.5.75.75 0 1 1 0-1.5zm1.5.75a1.5 1.5 0 1 0-3 0 1.5 1.5 0 1 0 3 0zm-1.5-3.75c.099 0 .195.039.265.11s.11.165.11.265v.065c.001.194.058.383.165.545a.99.99 0 0 0 .437.364c.032.014.065.023.099.028a1.01 1.01 0 0 0 .506.04 1 1 0 0 0 .518-.268l.002-.003.023-.022c.035-.035.076-.063.122-.082a.37.37 0 0 1 .143-.028c.049 0 .098.009.144.028s.087.047.122.082h0c.035.035.063.076.081.122a.37.37 0 0 1 .029.143c0 .049-.01.098-.029.144s-.046.087-.081.121l-.026.026c-.138.142-.232.322-.267.518a.99.99 0 0 0 .064.567c.07.183.191.341.35.455a1 1 0 0 0 .555.185h.009.034c.099 0 .195.039.265.11s.11.165.11.265-.04.195-.11.265-.166.11-.265.11h-.065c-.194.001-.384.058-.545.165s-.288.258-.364.435-.103.382-.068.577a1 1 0 0 0 .267.518l.003.002.023.023c.035.035.063.076.081.122a.37.37 0 0 1 0 .287c-.018.046-.046.087-.081.122h0c-.035.035-.076.063-.122.081s-.094.029-.144.029a.37.37 0 0 1-.143-.029c-.046-.018-.087-.046-.122-.081l-.025-.026c-.142-.138-.323-.231-.518-.267s-.389-.012-.568.064a1 1 0 0 0-.639.905v.009.034c0 .099-.04.195-.11.265s-.166.11-.265.11-.195-.04-.265-.11-.11-.166-.11-.265v-.064-.001c-.001-.194-.058-.384-.165-.545a.99.99 0 0 0-1.012-.432c-.196.036-.376.129-.518.267l-.003.003-.022.023c-.035.035-.077.063-.122.081s-.095.029-.144.029a.37.37 0 0 1-.143-.029c-.046-.018-.087-.046-.122-.081h0c-.035-.035-.063-.076-.082-.122a.37.37 0 0 1-.028-.144c0-.049.009-.098.028-.143s.047-.087.082-.122l.025-.025a1 1 0 0 0-.164-1.53c-.162-.107-.351-.164-.545-.165h-.001-.034c-.1 0-.195-.04-.265-.11s-.11-.166-.11-.265a.37.37 0 0 1 .375-.375h.064.001c.194-.001.383-.058.545-.165a.99.99 0 0 0 .364-.437c.014-.032.023-.066.028-.1.056-.161.07-.336.04-.505-.036-.196-.129-.376-.268-.518l-.003-.003-.022-.022c-.035-.035-.063-.077-.082-.122s-.028-.095-.028-.144.009-.098.028-.143.047-.087.082-.122h0c.035-.035.076-.063.122-.082a.37.37 0 0 1 .143-.028c.049 0 .098.009.144.028a.37.37 0 0 1 .121.082l.026.025c.142.139.322.232.518.268a1 1 0 0 0 1.012-.432c.107-.162.164-.351.165-.545v-.001-.034a.37.37 0 0 1 .375-.375zm-2.775 4.875l-.343.151c.019.045.025.094.017.142s-.031.091-.065.126l-.02.02a1.13 1.13 0 0 0-.245.366c-.056.136-.085.283-.085.43a1.14 1.14 0 0 0 .085.431 1.11 1.11 0 0 0 .245.365l.265-.265-.266.265a1.12 1.12 0 0 0 1.592 0l.021-.02a.24.24 0 0 1 .125-.065c.048-.009.098-.003.142.017l.004.002c.044.018.081.049.107.089a.25.25 0 0 1 .041.133v.063c0 .298.118.584.329.795s.497.33.796.33.584-.119.795-.33.33-.497.33-.795v-.029c.002-.047.017-.093.045-.132s.068-.07.114-.087l.022-.009a.24.24 0 0 1 .142-.017c.047.009.091.031.126.065l.02.02c.105.105.229.188.366.244a1.14 1.14 0 0 0 .43.086 1.12 1.12 0 0 0 .431-.086 1.1 1.1 0 0 0 .609-.609c.057-.136.086-.283.086-.431a1.11 1.11 0 0 0-.086-.43 1.14 1.14 0 0 0-.244-.366l-.021-.02a.25.25 0 0 1-.064-.126.24.24 0 0 1 .017-.142l.001-.003a.25.25 0 0 1 .09-.108c.039-.026.086-.04.133-.04h.063c.298 0 .584-.119.795-.33s.33-.497.33-.795-.119-.585-.33-.796-.497-.329-.795-.329h-.029c-.047-.002-.093-.018-.132-.046a.24.24 0 0 1-.087-.114l-.009-.022c-.02-.044-.026-.094-.017-.142s.031-.091.064-.125l.021-.021a1.1 1.1 0 0 0 .244-.365 1.12 1.12 0 0 0-.244-1.227 1.13 1.13 0 0 0-.365-.244c-.136-.056-.283-.085-.431-.085a1.13 1.13 0 0 0-.796.33l-.02.02c-.035.034-.079.056-.126.065s-.097.002-.142-.017c-.024-.011-.049-.019-.074-.024-.027-.018-.049-.041-.067-.067-.026-.04-.04-.086-.04-.133v-.063c0-.299-.119-.585-.33-.796s-.497-.329-.795-.329-.585.118-.796.329-.329.497-.329.796v.033c-.001.047-.015.093-.041.133s-.063.07-.107.089l-.004.002c-.044.019-.094.025-.142.017a.24.24 0 0 1-.125-.065l-.021-.02c-.104-.105-.228-.188-.365-.245a1.14 1.14 0 0 0-1.227.245c-.104.104-.187.228-.244.364a1.14 1.14 0 0 0 0 .862 1.13 1.13 0 0 0 .244.365l.021.021a.24.24 0 0 1 .065.125c.008.048.002.098-.017.142-.011.024-.019.049-.024.075-.018.026-.041.049-.067.066-.04.026-.086.041-.133.041h-.063c-.299 0-.585.118-.796.329s-.329.497-.329.796a1.12 1.12 0 0 0 .329.795c.211.211.497.33.796.33h.033c.047 0 .093.014.133.04s.07.064.089.108l.345-.148z"
          class="I"/>
  </g>
  <path d="M253.459 365.957v13.261m46.861-36.198v24.667m-66.356-3.679v8.872" class="J M"/>
  <ellipse cx="2.96" cy="3.464" rx="2.96" ry="3.464" transform="matrix(-1 0 0 1 216.364 408.613)"
           style="mix-blend-mode:multiply" class="L P"/>
  <g class="H">
    <g class="F">
      <path d="M223.152 389.997c-2.094 0-3.791-1.716-3.791-3.832s1.697-3.831 3.791-3.831 3.79 1.715 3.79 3.831-1.697 3.832-3.79 3.832zm0 1.094c-2.692 0-4.874-2.205-4.874-4.926s2.182-4.926 4.874-4.926 4.873 2.206 4.873 4.926-2.182 4.926-4.873 4.926zm30.325 10.948c-2.692 0-4.874-2.206-4.874-4.927s2.182-4.926 4.874-4.926 4.874 2.206 4.874 4.926-2.182 4.927-4.874 4.927zm0 1.094c-3.29 0-5.957-2.695-5.957-6.021s2.667-6.021 5.957-6.021 5.957 2.696 5.957 6.021-2.667 6.021-5.957 6.021zm-29.784 24.084h21.661c2.019 0 3.715 1.395 4.196 3.284h-30.052c.48-1.889 2.177-3.284 4.195-3.284zm-5.307 3.284c.502-2.498 2.687-4.379 5.307-4.379h21.661c2.62 0 4.805 1.881 5.307 4.379.071.354.108.72.108 1.095h-32.491c0-.375.037-.741.108-1.095z"/>
      <path d="M219.361 431.596h30.325v1.095h-30.325v-1.095zm31.408-1.095v3.284h-32.491v-3.284h32.491zm-18.411-14.231c-3.589 0-6.499-2.941-6.499-6.568s2.91-6.569 6.499-6.569 6.498 2.941 6.498 6.569-2.909 6.568-6.498 6.568zm0 1.095c-4.187 0-7.582-3.431-7.582-7.663s3.395-7.663 7.582-7.663 7.581 3.43 7.581 7.663-3.394 7.663-7.581 7.663zm0-4.379c-1.795 0-3.249-1.471-3.249-3.284s1.454-3.285 3.249-3.285 3.249 1.471 3.249 3.285-1.455 3.284-3.249 3.284zm0 1.094c-2.393 0-4.333-1.96-4.333-4.378s1.94-4.379 4.333-4.379 4.332 1.96 4.332 4.379-1.94 4.378-4.332 4.378zm21.119-15.326c-.897 0-1.624-.735-1.624-1.642s.727-1.642 1.624-1.642 1.625.735 1.625 1.642-.728 1.642-1.625 1.642zm0 1.095c-1.495 0-2.708-1.225-2.708-2.737s1.213-2.736 2.708-2.736 2.708 1.225 2.708 2.736-1.213 2.737-2.708 2.737z"/>
    </g>
    <path d="M221.527 386.165c0 .907.728 1.642 1.625 1.642s1.624-.735 1.624-1.642-.727-1.642-1.624-1.642-1.625.735-1.625 1.642z"/>
    <g class="F">
      <path d="M227.824 384.758l24.868 6.385a5.86 5.86 0 0 0-1.962.626l-22.709-5.831c-.019-.408-.086-.803-.197-1.18zm12.115 24.976l12.411-6.708a5.86 5.86 0 0 1-1.425-.472l-11.073 5.985c.057.379.087.767.087 1.163v.032zm-.288 2.066l5.935 14.322h-1.175l-5.333-12.871a7.58 7.58 0 0 0 .573-1.451zm-13.599 2.157l-1.455 12.165h-1.091l1.669-13.961c.215.641.511 1.244.877 1.796zm5.612-11.887l11.334-5.513-17.592-6.023a4.87 4.87 0 0 0 1.088-.783l19.364 6.629-11.958 5.817a7.54 7.54 0 0 0-1.542-.158l-.694.031zm-17.525-20.436a2.69 2.69 0 0 1 2.426-.692l2.884.619a2.7 2.7 0 0 1 1.045.474c-.32.211-.614.459-.875.737-.124-.063-.256-.111-.395-.14l-2.884-.619c-.523-.112-1.067.043-1.455.415l-3.21 3.077c-.164.158-.196.41-.075.603a.47.47 0 0 0 .605.176l3.211-1.555c.841-.407 1.829-.348 2.617.155l.357.228a5.01 5.01 0 0 0-.112 1.053l.003.182-.13-.092-.697-.445c-.473-.302-1.066-.338-1.57-.093l-3.211 1.554c-.712.345-1.566.097-1.988-.577-.397-.635-.295-1.466.244-1.983l3.21-3.077zm5.299 7.722a4.94 4.94 0 0 0 1.083.957v.918a2.74 2.74 0 0 1-1.537 2.468l-2.889 1.399c-.233.113-.316.405-.178.626a.43.43 0 0 0 .433.197l4.121-.676c.591-.096 1.081-.513 1.276-1.085l1.052-3.081.353.012a4.91 4.91 0 0 0 .81-.067l-.027.084-1.164 3.409c-.325.953-1.142 1.648-2.126 1.809l-4.122.675c-.598.099-1.197-.174-1.522-.692a1.54 1.54 0 0 1 .626-2.198l2.889-1.399c.564-.273.922-.849.922-1.481v-1.875zM183.079 409.7c-2.094 0-3.791-1.716-3.791-3.832s1.697-3.831 3.791-3.831 3.791 1.715 3.791 3.831-1.698 3.832-3.791 3.832zm0 1.095c-2.692 0-4.874-2.206-4.874-4.927s2.182-4.926 4.874-4.926 4.874 2.206 4.874 4.926-2.182 4.927-4.874 4.927zm30.325 10.947c-2.691 0-4.873-2.206-4.873-4.927s2.182-4.926 4.873-4.926 4.874 2.206 4.874 4.926-2.182 4.927-4.874 4.927zm0 1.094c-3.29 0-5.956-2.695-5.956-6.021s2.666-6.02 5.956-6.02 5.957 2.695 5.957 6.02-2.667 6.021-5.957 6.021zM183.62 446.92h21.661c2.019 0 3.715 1.396 4.196 3.284h-30.052c.481-1.888 2.177-3.284 4.195-3.284zm-5.306 3.284c.501-2.498 2.687-4.379 5.306-4.379h21.661c2.62 0 4.806 1.881 5.307 4.379.071.354.109.72.109 1.095h-32.492a5.49 5.49 0 0 1 .109-1.095z"/>
      <path d="M179.288 451.299h30.326v1.095h-30.326v-1.095zm31.409-1.095v3.284h-32.492v-3.284h32.492zm-18.412-14.231c-3.589 0-6.498-2.941-6.498-6.568s2.909-6.569 6.498-6.569 6.498 2.941 6.498 6.569-2.909 6.568-6.498 6.568zm0 1.095c-4.187 0-7.582-3.431-7.582-7.663s3.395-7.663 7.582-7.663 7.581 3.431 7.581 7.663-3.394 7.663-7.581 7.663zm0-4.379c-1.795 0-3.249-1.471-3.249-3.284s1.454-3.284 3.249-3.284 3.249 1.47 3.249 3.284-1.455 3.284-3.249 3.284zm0 1.095c-2.393 0-4.332-1.961-4.332-4.379s1.939-4.379 4.332-4.379 4.332 1.96 4.332 4.379-1.94 4.379-4.332 4.379zm21.119-15.326c-.897 0-1.624-.736-1.624-1.643s.727-1.642 1.624-1.642 1.625.736 1.625 1.642-.727 1.643-1.625 1.643zm0 1.094c-1.495 0-2.707-1.225-2.707-2.737s1.212-2.736 2.707-2.736 2.708 1.225 2.708 2.736-1.212 2.737-2.708 2.737z"/>
    </g>
    <path d="M181.454 405.868c0 .907.728 1.642 1.625 1.642s1.624-.735 1.624-1.642-.727-1.642-1.624-1.642-1.625.735-1.625 1.642z"/>
    <path d="M187.751 404.462l24.869 6.384a5.88 5.88 0 0 0-1.963.626l-22.709-5.83a4.98 4.98 0 0 0-.197-1.18zm12.115 24.975l12.411-6.708c-.5-.097-.977-.257-1.424-.472l-11.073 5.986a7.81 7.81 0 0 1 .086 1.162v.032zm-.288 2.066l5.935 14.322h-1.174l-5.334-12.871a7.58 7.58 0 0 0 .573-1.451zm-13.599 2.157l-1.455 12.165h-1.091l1.67-13.96c.214.64.51 1.243.876 1.795zm5.612-11.887l11.334-5.513-17.592-6.023a4.87 4.87 0 0 0 1.088-.783l19.365 6.629-11.959 5.817a7.54 7.54 0 0 0-1.542-.158l-.694.031zm-17.524-20.436c.646-.62 1.553-.878 2.425-.691l2.884.618a2.69 2.69 0 0 1 1.045.475c-.32.21-.613.458-.875.736a1.63 1.63 0 0 0-.395-.14l-2.884-.619c-.523-.112-1.067.043-1.455.415l-3.21 3.078c-.164.157-.195.409-.075.603a.47.47 0 0 0 .605.175l3.211-1.555c.841-.407 1.829-.348 2.617.155l.357.228a5.01 5.01 0 0 0-.112 1.053l.003.183c-.041-.033-.085-.064-.13-.093l-.697-.445a1.61 1.61 0 0 0-1.57-.093l-3.211 1.555a1.55 1.55 0 0 1-1.988-.578c-.397-.635-.295-1.466.244-1.983l3.211-3.077zm5.299 7.722a4.87 4.87 0 0 0 1.083.957v.918a2.74 2.74 0 0 1-1.538 2.468l-2.889 1.399c-.233.113-.316.405-.178.626a.43.43 0 0 0 .433.197l4.122-.675a1.63 1.63 0 0 0 1.275-1.086l1.052-3.081.353.013a4.91 4.91 0 0 0 .81-.068l-.027.084-1.164 3.409c-.325.953-1.142 1.648-2.126 1.809l-4.122.676c-.598.098-1.197-.175-1.521-.693-.485-.774-.193-1.803.625-2.198l2.889-1.399c.564-.273.923-.849.923-1.481v-1.875z"
          class="F"/>
  </g>
  <g class="P L">
    <ellipse cx="2.96" cy="2.992" rx="2.96" ry="2.992" transform="matrix(-1 0 0 1 192.787 427.234)"
             style="mix-blend-mode:multiply"/>
    <ellipse cx="2.96" cy="2.992" rx="2.96" ry="2.992" transform="matrix(-1 0 0 1 231.389 407.336)"
             style="mix-blend-mode:multiply"/>
    <ellipse cx="2.96" cy="2.992" rx="2.96" ry="2.992" transform="matrix(-1 0 0 1 254.019 394.605)"
             style="mix-blend-mode:multiply"/>
  </g>
  <g class="J K">
    <path d="M172.034 405.333c.357-.12 2.607-1.957 3.687-2.86.658.012 2.056.113 2.384.414" class="N"/>
    <path d="M211.024 385.626c.357-.12 2.607-1.957 3.687-2.86.658.012 2.056.113 2.383.414" class="Q"/>
    <path d="M176.783 415.005c1.192-.191 3.615-.698 3.778-1.191l.893-2.544" class="N"/>
    <path d="M215.773 395.298c1.192-.191 3.615-.698 3.778-1.191l.893-2.545" class="Q"/>
  </g>
  <g class="F">
    <path d="M184.703 450.644l21.12-1.095.541-2.19h-21.661v3.285zm36.283-20.255l23.827-.547.541-2.19h-21.661l-1.624 1.095-1.083 1.642z"
          fill-opacity=".6" style="mix-blend-mode:multiply" class="I"/>
    <path d="M300.319 372.406c-.298-.001-.54-.284-.54-.634s.242-.634.541-.634.542.284.542.634-.242.633-.541.634h-.002zm1.626-.634c0 .828-.452 1.532-1.083 1.793v6.445h2.166v-1.993a.54.54 0 0 1 .541-.542c.299 0 .542.243.542.542v1.993h2.166v-3.91c-.631-.261-1.083-.965-1.083-1.793 0-1.05.727-1.901 1.624-1.901s1.625.851 1.625 1.901c0 .828-.452 1.532-1.083 1.793v3.91h2.166v-1.993a.54.54 0 1 1 1.083 0v1.993h2.166c1.196 0 2.166 1.135 2.166 2.535v2.535h1.533c.35 0 .633.284.633.634s-.283.633-.633.633h-1.533v2.535h1.533c.35 0 .633.284.633.634s-.283.633-.633.633h-1.533v2.535h1.533c.35 0 .633.284.633.634s-.283.634-.633.634h-1.533v2.534h5.508c.223-.738.825-1.267 1.532-1.267.897 0 1.625.851 1.625 1.901s-.728 1.901-1.625 1.901c-.707 0-1.309-.529-1.532-1.267h-5.508v2.535h1.533c.35 0 .633.283.633.633s-.283.634-.633.634h-1.533v2.535h1.533c.35 0 .633.283.633.633s-.283.634-.633.634h-1.533v2.535h1.533c.35 0 .633.284.633.634s-.283.633-.633.633h-1.533v2.535c0 1.4-.97 2.535-2.166 2.535h-2.166v1.993a.54.54 0 1 1-1.083 0v-1.993h-2.166v3.91c.631.261 1.083.965 1.083 1.793 0 1.05-.727 1.901-1.625 1.901s-1.624-.851-1.624-1.901c0-.828.452-1.532 1.083-1.793v-3.91h-2.166v1.993c0 .299-.243.542-.542.542a.54.54 0 0 1-.541-.542v-1.993h-2.166v6.445c.631.261 1.083.965 1.083 1.793 0 1.05-.728 1.901-1.625 1.901s-1.625-.851-1.625-1.901c0-.828.453-1.532 1.084-1.793v-6.445h-2.167v1.993a.54.54 0 0 1-.541.542c-.299 0-.542-.243-.542-.542v-1.993h-2.166v3.91c.631.261 1.083.965 1.083 1.793 0 1.05-.727 1.901-1.624 1.901s-1.625-.851-1.625-1.901c0-.828.452-1.532 1.083-1.793v-3.91h-2.166v1.993a.54.54 0 0 1-.541.542c-.299 0-.542-.243-.542-.542v-1.993h-2.166c-1.196 0-2.166-1.135-2.166-2.535v-2.535h-1.533c-.35 0-.633-.283-.633-.633s.283-.634.633-.634h1.533v-2.535h-1.533c-.35 0-.633-.284-.633-.634s.283-.633.633-.633h1.533v-2.535h-1.533c-.35 0-.633-.284-.633-.634s.283-.633.633-.633h1.533v-2.535h-5.508c-.223.738-.825 1.267-1.532 1.267-.897 0-1.625-.851-1.625-1.901s.728-1.901 1.625-1.901c.707 0 1.309.529 1.532 1.267h5.508v-2.534h-1.533c-.35 0-.633-.284-.633-.634s.283-.634.633-.634h1.533v-2.535h-1.533c-.35 0-.633-.283-.633-.633s.283-.634.633-.634h1.533v-2.535h-1.533c-.35 0-.633-.284-.633-.633s.283-.634.633-.634h1.533v-2.535c0-1.4.97-2.535 2.166-2.535h2.166v-1.993c0-.299.243-.542.542-.542a.54.54 0 0 1 .541.542v1.993h2.166v-3.91c-.631-.261-1.083-.965-1.083-1.793 0-1.05.728-1.901 1.625-1.901s1.624.851 1.624 1.901c0 .828-.452 1.532-1.083 1.793v3.91h2.166v-1.993c0-.299.243-.542.542-.542a.54.54 0 0 1 .541.542v1.993h2.167v-6.445c-.631-.261-1.084-.965-1.084-1.793 0-1.05.728-1.901 1.625-1.901s1.625.851 1.625 1.901zm19.494 25.347v.002c.001.35.243.633.542.633s.542-.284.542-.634-.243-.634-.542-.634-.541.284-.542.633zm-42.238.001c0 .35-.243.634-.542.634s-.541-.284-.541-.634.242-.634.541-.634.542.284.542.634zm27.617 22.179c.299 0 .542.284.542.634s-.243.634-.542.634-.541-.284-.541-.634.242-.634.541-.634zm-5.956 3.169c0-.35-.243-.634-.542-.634s-.541.284-.541.634.242.634.541.634.542-.284.542-.634zm-7.04-3.169c.299 0 .541.284.541.634s-.242.634-.541.634-.542-.284-.542-.634.243-.634.542-.634zm0-44.358c-.299 0-.542-.284-.542-.634s.243-.634.542-.634.541.284.541.634-.242.634-.541.634zm12.996 0c-.299 0-.541-.284-.541-.634s.242-.634.541-.634.542.284.542.634-.243.634-.542.634zm5.957 7.604v29.15h-24.91v-29.15h24.91zm-5.415 3.169c0-.35-.284-.634-.634-.634h-1.982c-.35 0-.633.284-.633.634s.283.633.633.633h1.982c.35 0 .634-.284.634-.633zm2.166 7.696a.54.54 0 1 1-1.083 0v-3.986a.54.54 0 1 1 1.083 0v3.986zm-17.87.542a.54.54 0 0 0 .541-.542v-3.986a.54.54 0 1 0-1.083 0v3.986c0 .299.243.542.542.542zm17.87 10.865a.54.54 0 1 1-1.083 0v-7.789a.54.54 0 1 1 1.083 0v7.789zm-17.87.541a.54.54 0 0 0 .541-.541v-7.789a.54.54 0 0 0-.541-.542c-.299 0-.542.243-.542.542v7.789a.54.54 0 0 0 .542.541zm6.406-1.267c.35 0 .633.283.633.633s-.283.634-.633.634h-4.148c-.35 0-.634-.284-.634-.634s.284-.633.634-.633h4.148zm9.298 4.436c0-.35-.284-.634-.634-.634h-1.982c-.35 0-.633.284-.633.634s.283.633.633.633h1.982c.35 0 .634-.283.634-.633zm-6.049-23.447c.35 0 .634.284.634.634s-.284.633-.634.633h-7.397c-.35 0-.634-.284-.634-.633s.284-.634.634-.634h7.397zm.634 23.447c0-.35-.284-.634-.634-.634h-7.397c-.35 0-.634.284-.634.634s.284.633.634.633h7.397c.35 0 .634-.283.634-.633zm4.781-19.645c.35 0 .634.284.634.634s-.284.633-.634.633h-5.231c-.35 0-.633-.283-.633-.633s.283-.634.633-.634h5.231zm3.883-4.436c0 .35.242.634.542.634s.541-.284.541-.634-.242-.634-.541-.634-.542.284-.542.634zm.542 25.982c-.3 0-.542-.284-.542-.634s.242-.634.542-.634.541.284.541.634-.242.634-.541.634zm-22.203-25.982c0 .35.242.634.542.634s.541-.284.541-.634-.242-.634-.541-.634-.542.284-.542.634zm.542 25.982c-.3 0-.542-.284-.542-.634s.242-.634.542-.634.541.284.541.634-.242.634-.541.634z"
          class="H"/>
  </g>
  <g class="P L">
    <ellipse cx="1.209" cy="1.415" rx="1.209" ry="1.415" transform="matrix(-1 0 0 1 303.072 369.871)"/>
    <ellipse cx="1.209" cy="1.415" rx="1.209" ry="1.415" transform="matrix(-1 0 0 1 307.985 372.699)"/>
    <ellipse cx="1.209" cy="1.415" rx="1.209" ry="1.415" transform="matrix(-1 0 0 1 323.606 397.121)"/>
    <ellipse cx="1.209" cy="1.415" rx="1.209" ry="1.415" transform="matrix(-1 0 0 1 309.195 419.605)"/>
    <ellipse cx="1.209" cy="1.415" rx="1.209" ry="1.415" transform="matrix(-1 0 0 1 280.454 397.121)"/>
  </g>
  <g fill="#91e1fe">
    <path d="M308.533 392.03a1.12 1.12 0 0 0-.525-.95c-.748-.473-1.723.065-1.723.95v7.121l.436 6.638a.91.91 0 0 0 .905.847c.501 0 .907-.406.907-.907V392.03z"/>
    <path d="M293.507 406.637c-.576 0-1.085.375-1.256.925-.264.846.369 1.706 1.256 1.706h3.497l3.367-.45c.544-.072.951-.537.951-1.086 0-.605-.491-1.095-1.096-1.095h-6.719zm12.289-23.465c-.645 0-1.194.467-1.298 1.103-.132.8.486 1.528 1.298 1.528h.969c.177 0 .353-.022.525-.066l1.145-.29c.513-.13.872-.591.872-1.12 0-.638-.517-1.155-1.155-1.155h-2.356z"
          class="C"/>
  </g>
  <g class="G">
    <use xlink:href="#D"/>
    <use xlink:href="#D" x="-42"/>
    <path d="M99.228 227.34v-4.195c-2.773 0-5.553-5.593-2.775-12.584s6.02-6.059 8.335-5.593c.926-2.796 4.114-3.52 8.33-1.398 5.558 2.796 4.168 6.525 2.78 8.389 2.314 4.195 1.715 11.186-1.393 11.186h-4.164v4.195"/>
    <rect x="-.5" y=".5" width="4" height="2" rx="1" transform="matrix(-1 0 0 1 189.302 292.34)"/>
    <rect x="-.5" y=".5" width="4" height="2" rx="1" transform="matrix(-1 0 0 1 197.595 292.34)"/>
    <rect x="-.5" y=".5" width="5" height="2" rx="1" transform="matrix(-1 0 0 1 178.302 292.34)"/>
    <rect x="-.5" y=".5" width="5" height="2" rx="1" transform="matrix(-1 0 0 1 178.302 300.34)"/>
    <rect x="-.5" y=".5" width="4" height="2" rx="1" transform="matrix(-1 0 0 1 189.302 300.34)"/>
    <rect x="-.5" y=".5" width="4" height="2" rx="1" transform="matrix(-1 0 0 1 197.595 300.34)"/>
    <rect x="-.5" y=".5" width="5" height="2" rx="1" transform="matrix(-1 0 0 1 105.302 300.34)"/>
    <rect x="-.5" y=".5" width="5" height="2" rx="1" transform="matrix(-1 0 0 1 105.302 292.34)"/>
    <rect x="-.5" y=".5" width="5" height="2" rx="1" transform="matrix(-1 0 0 1 116.302 292.34)"/>
    <rect x="-.5" y=".5" width="5" height="2" rx="1" transform="matrix(-1 0 0 1 116.302 300.34)"/>
  </g>
  <g class="F H">
    <path d="M133.595 269.34a2 2 0 0 1 2-2h23a2 2 0 0 1 2 2v12a3 3 0 0 0 3 3h9a3 3 0 0 0 3-3v-12a2 2 0 0 1 2-2h27a2 2 0 0 1 2 2v49a2 2 0 0 1-2 2h-114a2 2 0 0 1-2-2v-49a2 2 0 0 1 2-2h26a2 2 0 0 1 2 2v12a3 3 0 0 0 3 3h9a3 3 0 0 0 3-3v-12zm0-4h-1a1 1 0 0 0-1 1v15a1 1 0 0 1-1 1h-9a1 1 0 0 1-1-1v-15a1 1 0 0 0-1-1h-1-30a2 2 0 0 0-2 2v53a2 2 0 0 0 2 2h118a2 2 0 0 0 2-2v-53a2 2 0 0 0-2-2h-31-1a1 1 0 0 0-1 1v15a1 1 0 0 1-1 1h-9a1 1 0 0 1-1-1v-15a1 1 0 0 0-1-1h-1-27z"/>
    <path d="M197.255 266.34a1 1 0 0 1-.997-.914l-2.624-30.259a2 2 0 0 0-1.993-1.827h-4.092a2 2 0 0 0-1.993 1.827l-2.624 30.259a1 1 0 0 1-1.993-.173l2.783-32.086a2 2 0 0 1 1.993-1.827h7.76a2 2 0 0 1 1.993 1.827l2.783 32.086a1 1 0 0 1-.996 1.087zm-100.319 0a1 1 0 0 1-.996-1.087l2.783-32.086a2 2 0 0 1 1.993-1.827h7.76a2 2 0 0 1 1.993 1.827l2.783 32.086a1 1 0 0 1-1.993.173l-2.624-30.259a2 2 0 0 0-1.993-1.827h-4.092a2 2 0 0 0-1.993 1.827l-2.624 30.259a1 1 0 0 1-.996.914zm42.932 0a1 1 0 0 1-.996-1.082l2.643-32.082a2 2 0 0 1 1.994-1.836h7.173a2 2 0 0 1 1.993 1.836l2.643 32.082a1 1 0 0 1-.996 1.082 1 1 0 0 1-.997-.918l-2.492-30.246a2 2 0 0 0-1.993-1.836h-3.489a2 2 0 0 0-1.994 1.836l-2.492 30.246a1 1 0 0 1-.997.918z"/>
  </g>
  <rect x="-.5" y=".5" width="10" height="12" rx="1.5" transform="matrix(-1 0 0 1 151.595 309.34)" class="G"/>
  <g class="J">
    <path d="M203.723 270.657c-7.093-.502-21.667-1.204-23.214 0s-1.935 8.383-1.935 11.823m-19.562-11.964c-6.722-.501-20.533-1.204-22 0s-1.833 8.384-1.833 11.823m-19.96-11.823c-6.722-.501-20.533-1.204-22 0s-1.834 8.384-1.834 11.823"
          stroke-width="6" class="N"/>
    <path d="M191.483 226.305l.392-8.193c1.589 1.52 4.974 3.648 5.803 0s-.046-4.588-.391-5.901m-47.963 14.094l.392-8.193c1.589 1.52 4.974 3.648 5.803 0s-.046-4.588-.391-5.901m-47.963 14.094l.392-8.193c1.589 1.52 4.974 3.648 5.803 0s-.046-4.588-.392-5.901"
          stroke-opacity=".2" stroke-width="4"/>
  </g>
  <g class="I D">
    <rect width="22" height="3" rx="1.5" transform="matrix(-1 0 0 1 199.019 291.898)" style="mix-blend-mode:multiply"/>
    <rect width="11" height="3" rx="1.5" transform="matrix(-1 0 0 1 178.019 301.898)" style="mix-blend-mode:multiply"/>
    <rect width="11" height="3" rx="1.5" transform="matrix(-1 0 0 1 105.019 293.898)" style="mix-blend-mode:multiply"/>
    <rect width="8" height="3" rx="1.5" transform="matrix(-1 0 0 1 119.019 300.898)" style="mix-blend-mode:multiply"/>
    <rect width="8" height="10" rx="2" transform="matrix(-1 0 0 1 149.019 310.898)" style="mix-blend-mode:multiply"/>
  </g>
  <g class="G">
    <rect width="28.159" height="62.102" rx="2" transform="matrix(-1 0 0 1 258.207 297.395)" class="K"/>
    <rect x=".5" y=".5" width="7.872" height="2.249" rx="1.125" transform="matrix(0 1 1 0 251.709 301.195)"/>
  </g>
  <g class="I C">
    <rect width="8.872" height="2.43" rx="1.215" transform="matrix(0 1 1 0 250.903 301.195)"/>
    <rect width="8.872" height="2.43" rx="1.215" transform="matrix(0 1 1 0 242.239 301.195)"/>
    <rect width="8.872" height="2.43" rx="1.215" transform="matrix(0 1 1 0 246.571 316.406)"/>
    <rect width="8.872" height="2.43" rx="1.215" transform="matrix(0 1 1 0 250.903 331.613)"/>
    <rect width="8.872" height="2.43" rx="1.215" transform="matrix(0 1 1 0 246.162 331.613)"/>
    <rect width="8.872" height="2.43" rx="1.215" transform="matrix(0 1 1 0 242.239 346.824)"/>
    <rect width="8.872" height="2.43" rx="1.215" transform="matrix(0 1 1 0 250.494 346.824)"/>
  </g>
  <g class="G">
    <rect x=".5" y=".5" width="7.872" height="2.249" rx="1.125" transform="matrix(0 1 1 0 251.709 316.406)"/>
    <rect x=".5" y=".5" width="7.872" height="2.249" rx="1.125" transform="matrix(0 1 1 0 251.709 331.613)"/>
    <rect x=".5" y=".5" width="7.872" height="2.249" rx="1.125" transform="matrix(0 1 1 0 251.709 346.824)"/>
    <rect x=".5" y=".5" width="7.872" height="2.249" rx="1.125" transform="matrix(0 1 1 0 247.376 301.195)"/>
    <rect x=".5" y=".5" width="7.872" height="2.249" rx="1.125" transform="matrix(0 1 1 0 247.376 316.406)"/>
    <rect x=".5" y=".5" width="7.872" height="2.249" rx="1.125" transform="matrix(0 1 1 0 247.376 331.613)"/>
    <rect x=".5" y=".5" width="7.872" height="2.249" rx="1.125" transform="matrix(0 1 1 0 247.376 346.824)"/>
    <rect x=".5" y=".5" width="7.872" height="2.249" rx="1.125" transform="matrix(0 1 1 0 243.044 301.195)"/>
    <rect x=".5" y=".5" width="7.872" height="2.249" rx="1.125" transform="matrix(0 1 1 0 243.044 316.406)"/>
    <rect x=".5" y=".5" width="7.872" height="2.249" rx="1.125" transform="matrix(0 1 1 0 243.044 331.613)"/>
    <rect x=".5" y=".5" width="7.872" height="2.249" rx="1.125" transform="matrix(0 1 1 0 243.044 346.824)"/>
    <rect x=".5" y=".5" width="2.802" height="2.249" rx="1.125" transform="matrix(0 1 1 0 233.297 306.266)"/>
    <rect x=".5" y=".5" width="2.802" height="2.249" rx="1.125" transform="matrix(0 1 1 0 233.297 321.477)"/>
    <rect x=".5" y=".5" width="2.802" height="2.249" rx="1.125" transform="matrix(0 1 1 0 233.297 336.684)"/>
    <rect x=".5" y=".5" width="2.802" height="2.249" rx="1.125" transform="matrix(0 1 1 0 233.297 351.891)"/>
    <path d="M258.207 313.371h-28.159m28.159 15.207h-28.159m28.159 15.211h-28.159"/>
  </g>
  <g class="F">
    <path d="M43.643 384.696c.281 0 .55.13.749.363s.31.547.31.876v.215a3.69 3.69 0 0 0 .466 1.799c.302.534.731.953 1.234 1.205.089.045.184.075.28.09.457.187.949.233 1.427.131.552-.117 1.06-.424 1.461-.883l.008-.009.063-.075c.098-.115.215-.207.344-.269a.93.93 0 0 1 .405-.095.93.93 0 0 1 .405.095c.129.062.245.154.343.269l.001.001a1.26 1.26 0 0 1 .23.402 1.42 1.42 0 0 1 0 .948 1.26 1.26 0 0 1-.23.402l-.072.085c-.392.469-.655 1.064-.755 1.71-.098.632-.035 1.284.18 1.875.196.602.54 1.124.989 1.5.458.383 1.004.596 1.566.611l.025.001h.095c.281 0 .55.13.749.362s.31.548.31.876-.112.644-.31.876-.468.363-.748.363h-.184c-.547.002-1.081.192-1.538.546s-.811.851-1.027 1.437c-.224.598-.291 1.262-.191 1.905s.363 1.241.755 1.71l.008.009.064.075c.098.115.177.252.23.402s.081.312.081.474a1.43 1.43 0 0 1-.081.475c-.053.15-.131.287-.23.402v.001a1.06 1.06 0 0 1-.344.268.92.92 0 0 1-.811 0 1.06 1.06 0 0 1-.344-.268l-.072-.085c-.401-.458-.91-.766-1.461-.883a2.43 2.43 0 0 0-1.602.211c-.515.23-.961.632-1.282 1.158-.327.535-.51 1.174-.523 1.832v.029.112c0 .328-.111.643-.31.876s-.468.362-.748.362-.55-.13-.748-.362-.31-.548-.31-.876v-.211-.005c-.002-.64-.164-1.265-.466-1.799s-.728-.95-1.229-1.202a2.43 2.43 0 0 0-1.628-.224c-.551.117-1.06.425-1.461.883l-.008.01-.064.074c-.098.115-.215.207-.344.269a.92.92 0 0 1-.811 0 1.06 1.06 0 0 1-.344-.268l-.001-.001c-.098-.115-.176-.252-.23-.402a1.43 1.43 0 0 1-.081-.475 1.42 1.42 0 0 1 .081-.474c.053-.15.131-.287.23-.402l.072-.085a3.5 3.5 0 0 0 .755-1.709 3.8 3.8 0 0 0-.191-1.905c-.216-.586-.573-1.085-1.027-1.438s-.991-.543-1.538-.545h-.004-.095c-.281 0-.55-.131-.748-.363s-.31-.547-.31-.876.111-.643.31-.876.468-.362.749-.362h.18.004a2.53 2.53 0 0 0 1.538-.546c.456-.354.814-.855 1.029-1.444a1.4 1.4 0 0 0 .077-.327c.16-.535.2-1.11.113-1.671-.1-.645-.363-1.24-.755-1.709l-.008-.01-.064-.074c-.098-.115-.177-.252-.23-.403a1.42 1.42 0 0 1 0-.948 1.26 1.26 0 0 1 .23-.402l.001-.001c.098-.115.215-.207.343-.269a.92.92 0 0 1 .811 0c.128.062.245.154.344.269l.072.084c.401.459.91.766 1.461.883a2.43 2.43 0 0 0 1.628-.224c.501-.252.927-.67 1.228-1.202s.464-1.159.466-1.799v-.005-.111c0-.329.111-.644.31-.876s.468-.363.748-.363zm-7.833 16.102l-.968.5c.055.147.072.311.047.469a.86.86 0 0 1-.182.415l-.058.068c-.295.345-.529.755-.689 1.206a4.27 4.27 0 0 0-.242 1.423c0 .489.082.972.242 1.423a3.81 3.81 0 0 0 .689 1.206l.748-.876-.749.875c.295.346.645.62 1.031.807a2.78 2.78 0 0 0 1.216.283 2.78 2.78 0 0 0 1.216-.283c.385-.187.735-.461 1.03-.806l.058-.069c.098-.11.221-.184.355-.213a.6.6 0 0 1 .401.056l.01.005a.73.73 0 0 1 .303.296c.074.13.114.283.114.439v.208c0 .985.335 1.93.93 2.627s1.403 1.089 2.245 1.089 1.65-.392 2.245-1.089.93-1.642.93-2.627v-.094c.005-.158.05-.31.128-.438s.193-.232.322-.288l.062-.029a.6.6 0 0 1 .401-.056c.134.029.257.103.355.213l.058.068a3.19 3.19 0 0 0 1.031.807 2.78 2.78 0 0 0 1.216.283 2.78 2.78 0 0 0 1.216-.283 3.2 3.2 0 0 0 1.03-.806 3.81 3.81 0 0 0 .689-1.206 4.27 4.27 0 0 0 0-2.846 3.81 3.81 0 0 0-.689-1.206l-.058-.068a.86.86 0 0 1-.182-.415c-.025-.158-.008-.322.048-.469l.005-.012a.79.79 0 0 1 .252-.354.62.62 0 0 1 .375-.134h.177c.842 0 1.65-.391 2.245-1.088s.93-1.642.93-2.628-.334-1.93-.93-2.627-1.403-1.089-2.245-1.089h-.08a.62.62 0 0 1-.375-.149c-.112-.094-.198-.226-.245-.377l-.025-.073a.93.93 0 0 1-.048-.469.86.86 0 0 1 .182-.415l.058-.068a3.81 3.81 0 0 0 .689-1.206 4.27 4.27 0 0 0 0-2.846c-.16-.451-.394-.86-.689-1.205a3.17 3.17 0 0 0-1.03-.806 2.78 2.78 0 0 0-1.216-.284 2.78 2.78 0 0 0-1.216.284 3.2 3.2 0 0 0-1.031.806l-.058.068a.66.66 0 0 1-.355.213c-.135.029-.275.009-.401-.056a.97.97 0 0 0-.21-.079.76.76 0 0 1-.187-.221.91.91 0 0 1-.114-.44v-.207c0-.986-.335-1.931-.93-2.628s-1.403-1.088-2.245-1.088-1.65.391-2.245 1.088-.93 1.642-.93 2.628v.108c-.001.156-.041.309-.114.439a.73.73 0 0 1-.303.296l-.011.005c-.126.065-.265.085-.401.056s-.257-.103-.355-.213l-.058-.068c-.295-.346-.645-.62-1.031-.807a2.78 2.78 0 0 0-1.216-.283 2.78 2.78 0 0 0-1.216.283c-.385.187-.736.461-1.031.807a3.81 3.81 0 0 0-.688 1.205 4.27 4.27 0 0 0 0 2.846c.16.451.394.86.689 1.205l.058.069a.86.86 0 0 1 .182.415.93.93 0 0 1-.047.469c-.03.079-.053.162-.068.246-.05.087-.114.161-.189.219-.111.087-.242.133-.376.134h-.177c-.842 0-1.65.392-2.245 1.089s-.93 1.642-.93 2.627.335 1.931.93 2.628 1.403 1.088 2.245 1.088h.093c.134.001.264.047.376.134a.79.79 0 0 1 .252.354l.973-.488z"
          fill="#b2ecff"/>
    <path d="M44.139 390.484a2 2 0 1 1 0 4 2 2 0 1 1 0-4zm4 2a4 4 0 1 0-8 0 4 4 0 1 0 8 0zm-4-10a1 1 0 0 1 1 1v.174a2.65 2.65 0 0 0 .441 1.453c.285.431.691.769 1.166.973.085.036.173.06.264.072a2.65 2.65 0 0 0 2.729-.607l.008-.007.06-.061a1.02 1.02 0 0 1 .325-.217 1 1 0 0 1 .766 0 1 1 0 0 1 .325.217v.001c.093.093.167.203.217.324s.076.252.076.383-.026.262-.076.383a1 1 0 0 1-.217.325l-.068.068a2.65 2.65 0 0 0-.542 2.894 2.65 2.65 0 0 0 .934 1.211 2.64 2.64 0 0 0 1.48.494h.023.09a1 1 0 0 1 1 1c0 .266-.105.52-.293.707a1 1 0 0 1-.707.293h-.174c-.517.002-1.022.156-1.453.441a2.65 2.65 0 0 0-.438 4.079l.008.008.06.059a1.01 1.01 0 0 1 .294.708c0 .131-.026.262-.076.383a1 1 0 0 1-.217.325v.001a1.01 1.01 0 0 1-.325.217c-.121.05-.252.076-.383.076a1.01 1.01 0 0 1-.708-.293l-.068-.069c-.378-.37-.859-.618-1.38-.713a2.65 2.65 0 0 0-1.514.171 2.64 2.64 0 0 0-1.211.934 2.65 2.65 0 0 0-.494 1.48v.023.09c0 .266-.105.52-.293.707a1 1 0 0 1-1.707-.707v-.17-.004a2.65 2.65 0 0 0-4.519-1.89l-.008.007-.06.06a1.01 1.01 0 0 1-.325.218.99.99 0 0 1-.383.076c-.131 0-.262-.026-.383-.076a1.01 1.01 0 0 1-.325-.217l-.001-.001a.99.99 0 0 1-.217-.325c-.05-.122-.076-.251-.076-.383s.026-.261.076-.383.124-.231.217-.324l.068-.068a2.65 2.65 0 0 0-.438-4.079c-.431-.285-.936-.439-1.453-.441h-.004-.09a1 1 0 0 1-.707-1.707c.188-.187.442-.293.707-.293h.17.004a2.65 2.65 0 0 0 2.425-1.606c.036-.084.06-.173.072-.264a2.65 2.65 0 0 0-.607-2.729l-.008-.008-.06-.06a1 1 0 0 1-.293-.708c0-.132.026-.261.076-.383s.124-.231.217-.324l.001-.001a.99.99 0 0 1 .325-.217 1.01 1.01 0 0 1 .383-.076c.131 0 .262.026.383.076a1 1 0 0 1 .325.217l.068.068a2.64 2.64 0 0 0 1.38.713 2.65 2.65 0 0 0 2.699-1.151 2.65 2.65 0 0 0 .441-1.453v-.004-.09a1 1 0 0 1 .293-.707c.188-.187.442-.293.707-.293zm-7.4 13l-.915.404a.65.65 0 0 1-.127.714l-.055.055a3 3 0 0 0-.651.974c-.151.364-.229.754-.229 1.148a3 3 0 0 0 .229 1.149 3.01 3.01 0 0 0 .651.974l.707-.708-.707.707a3 3 0 0 0 4.245 0l.055-.055a.65.65 0 0 1 .335-.172c.128-.023.26-.007.378.045l.01.005a.65.65 0 0 1 .394.593v.167a3 3 0 1 0 6 0v-.075a.65.65 0 0 1 .425-.586l.059-.024c.119-.052.251-.068.378-.045a.65.65 0 0 1 .336.172l.055.055a3 3 0 0 0 3.271.651 3.01 3.01 0 0 0 .973-.65c.279-.279.5-.61.651-.974s.229-.754.229-1.149a2.99 2.99 0 0 0-.229-1.148c-.151-.364-.372-.696-.651-.974l-.055-.055a.65.65 0 0 1-.127-.714l.004-.01c.05-.116.133-.216.239-.286a.66.66 0 0 1 .355-.108h.168a3 3 0 1 0 0-6h-.076c-.127-.004-.25-.046-.354-.12a.65.65 0 0 1-.232-.305l-.024-.058a.65.65 0 0 1 .127-.714l.055-.055c.279-.279.5-.61.651-.974s.229-.754.229-1.149a2.99 2.99 0 0 0-.229-1.148c-.151-.364-.372-.695-.651-.974a3 3 0 0 0-.973-.651 3.02 3.02 0 0 0-2.298 0 3.01 3.01 0 0 0-.974.652l-.055.054c-.092.09-.209.15-.336.172a.66.66 0 0 1-.378-.044.94.94 0 0 0-.199-.064.66.66 0 0 1-.177-.179.65.65 0 0 1-.108-.355v-.168a3 3 0 1 0-6 0v.088a.65.65 0 0 1-.108.355c-.07.106-.169.188-.286.238l-.01.004a.64.64 0 0 1-.378.045c-.126-.022-.243-.082-.336-.172l-.055-.054a3 3 0 0 0-.974-.652 3.02 3.02 0 0 0-2.298 0 3.01 3.01 0 0 0-.974.652 3 3 0 0 0-.65.973c-.151.364-.229.754-.229 1.148a3 3 0 0 0 .229 1.149 2.99 2.99 0 0 0 .651.973l.055.056a.65.65 0 0 1 .127.714.99.99 0 0 0-.064.198.65.65 0 0 1-.179.177.64.64 0 0 1-.355.108h-.167a3 3 0 1 0 0 6h.087a.66.66 0 0 1 .355.108c.106.07.189.17.238.286l.919-.394z"
          class="H"/>
  </g>
  <g class="G">
    <g class="K">
      <path d="M377.83 129.516a2 2 0 0 1 2-2h20v16h-22v-14zm62-2h20a2 2 0 0 1 2 2v14h-22v-16z"/>
      <path d="M399.83 78.516a2 2 0 0 1 2-2h36a2 2 0 0 1 2 2v65h-40v-65z"/>
      <path d="M403.83 60.516a2 2 0 0 1 2-2h28a2 2 0 0 1 2 2v16h-32v-16z"/>
      <path d="M407.83 46.516a2 2 0 0 1 2-2h20a2 2 0 0 1 2 2v12h-24v-12z"/>
    </g>
    <rect x="413.33" y="49.016" width="5" height="2" rx="1"/>
    <rect x="413.33" y="54.016" width="5" height="2" rx="1"/>
    <rect x="409.33" y="65.016" width="5" height="2" rx="1"/>
    <rect x="409.33" y="70.016" width="5" height="2" rx="1"/>
    <rect x="405.33" y="82.016" width="5" height="2" rx="1"/>
    <rect x="405.33" y="87.016" width="5" height="2" rx="1"/>
    <rect x="405.33" y="92.016" width="5" height="2" rx="1"/>
    <rect x="405.33" y="97.016" width="5" height="2" rx="1"/>
    <rect x="405.33" y="102.016" width="5" height="2" rx="1"/>
    <rect x="405.33" y="107.016" width="5" height="2" rx="1"/>
    <rect x="405.33" y="112.016" width="5" height="2" rx="1"/>
    <rect x="405.33" y="117.016" width="5" height="2" rx="1"/>
    <rect x="405.33" y="122.016" width="5" height="2" rx="1"/>
    <rect x="405.33" y="127.016" width="5" height="2" rx="1"/>
    <rect x="405.33" y="132.016" width="5" height="2" rx="1"/>
    <rect x="383.33" y="137.016" width="5" height="2" rx="1"/>
    <rect x="444.33" y="137.016" width="5" height="2" rx="1"/>
    <rect x="383.33" y="132.016" width="5" height="2" rx="1"/>
    <rect x="444.33" y="132.016" width="5" height="2" rx="1"/>
    <rect x="425.33" y="65.016" width="5" height="2" rx="1"/>
    <rect x="425.33" y="70.016" width="5" height="2" rx="1"/>
    <rect x="421.33" y="82.016" width="5" height="2" rx="1"/>
    <rect x="421.33" y="87.016" width="5" height="2" rx="1"/>
    <rect x="421.33" y="92.016" width="5" height="2" rx="1"/>
    <rect x="421.33" y="97.016" width="5" height="2" rx="1"/>
    <rect x="421.33" y="102.016" width="5" height="2" rx="1"/>
    <rect x="421.33" y="107.016" width="5" height="2" rx="1"/>
    <rect x="421.33" y="112.016" width="5" height="2" rx="1"/>
    <rect x="421.33" y="117.016" width="5" height="2" rx="1"/>
    <rect x="421.33" y="122.016" width="5" height="2" rx="1"/>
    <rect x="421.33" y="127.016" width="5" height="2" rx="1"/>
    <rect x="421.33" y="132.016" width="5" height="2" rx="1"/>
    <rect x="429.33" y="82.016" width="5" height="2" rx="1"/>
    <rect x="429.33" y="87.016" width="5" height="2" rx="1"/>
    <rect x="429.33" y="92.016" width="5" height="2" rx="1"/>
    <rect x="429.33" y="97.016" width="5" height="2" rx="1"/>
    <rect x="429.33" y="102.016" width="5" height="2" rx="1"/>
    <rect x="429.33" y="107.016" width="5" height="2" rx="1"/>
    <rect x="429.33" y="112.016" width="5" height="2" rx="1"/>
    <rect x="429.33" y="117.016" width="5" height="2" rx="1"/>
    <rect x="429.33" y="122.016" width="5" height="2" rx="1"/>
    <rect x="429.33" y="127.016" width="5" height="2" rx="1"/>
    <rect x="429.33" y="132.016" width="5" height="2" rx="1"/>
    <path d="M428.33 143.016h-17v-6h17v6z"/>
    <rect x="421.33" y="49.016" width="5" height="2" rx="1"/>
    <rect x="421.33" y="54.016" width="5" height="2" rx="1"/>
    <rect x="417.33" y="65.016" width="5" height="2" rx="1"/>
    <rect x="417.33" y="70.016" width="5" height="2" rx="1"/>
    <rect x="413.33" y="82.016" width="5" height="2" rx="1"/>
    <rect x="413.33" y="87.016" width="5" height="2" rx="1"/>
    <rect x="413.33" y="92.016" width="5" height="2" rx="1"/>
    <rect x="413.33" y="97.016" width="5" height="2" rx="1"/>
    <rect x="413.33" y="102.016" width="5" height="2" rx="1"/>
    <rect x="413.33" y="107.016" width="5" height="2" rx="1"/>
    <rect x="413.33" y="112.016" width="5" height="2" rx="1"/>
    <rect x="413.33" y="117.016" width="5" height="2" rx="1"/>
    <rect x="413.33" y="122.016" width="5" height="2" rx="1"/>
    <rect x="413.33" y="127.016" width="5" height="2" rx="1"/>
    <rect x="413.33" y="132.016" width="5" height="2" rx="1"/>
    <rect x="391.33" y="137.016" width="5" height="2" rx="1"/>
    <rect x="452.33" y="137.016" width="5" height="2" rx="1"/>
    <rect x="391.33" y="132.016" width="5" height="2" rx="1"/>
    <rect x="452.33" y="132.016" width="5" height="2" rx="1"/>
  </g>
  <path d="M419.83 28.516l1 17h-2l1-17z" class="H"/>
  <g class="G">
    <path d="M348.83 92.516a2 2 0 0 1 2-2h25a2 2 0 0 1 2 2v51h-29v-51z" class="K"/>
    <rect x="352.33" y="95.016" width="22" height="2" rx="1"/>
    <rect x="338.33" y="70.016" width="7" height="4" rx="1.5"/>
    <rect x="313.33" y="47.016" width="7" height="2" rx="1"/>
    <rect x="313.33" y="52.016" width="7" height="2" rx="1"/>
    <rect x="313.33" y="57.016" width="7" height="2" rx="1"/>
    <rect x="313.33" y="62.016" width="7" height="2" rx="1"/>
    <rect x="313.33" y="67.016" width="7" height="2" rx="1"/>
    <rect x="313.33" y="72.016" width="7" height="2" rx="1"/>
    <rect x="313.33" y="77.016" width="7" height="2" rx="1"/>
    <rect x="313.33" y="82.016" width="7" height="2" rx="1"/>
    <rect x="313.33" y="87.016" width="7" height="2" rx="1"/>
    <rect x="313.33" y="92.016" width="7" height="2" rx="1"/>
    <rect x="313.33" y="97.016" width="7" height="2" rx="1"/>
    <rect x="313.33" y="102.016" width="7" height="2" rx="1"/>
    <rect x="313.33" y="107.016" width="7" height="2" rx="1"/>
    <rect x="313.33" y="112.016" width="7" height="2" rx="1"/>
    <rect x="313.33" y="117.016" width="7" height="2" rx="1"/>
    <rect x="313.33" y="122.016" width="7" height="2" rx="1"/>
    <rect x="325.33" y="47.016" width="7" height="2" rx="1"/>
    <rect x="325.33" y="52.016" width="7" height="2" rx="1"/>
    <rect x="325.33" y="57.016" width="7" height="2" rx="1"/>
    <rect x="325.33" y="62.016" width="7" height="2" rx="1"/>
    <rect x="325.33" y="67.016" width="7" height="2" rx="1"/>
    <rect x="325.33" y="72.016" width="7" height="2" rx="1"/>
    <rect x="325.33" y="77.016" width="7" height="2" rx="1"/>
    <rect x="325.33" y="82.016" width="7" height="2" rx="1"/>
    <rect x="325.33" y="87.016" width="7" height="2" rx="1"/>
    <rect x="325.33" y="92.016" width="7" height="2" rx="1"/>
    <rect x="325.33" y="97.016" width="7" height="2" rx="1"/>
    <rect x="325.33" y="102.016" width="7" height="2" rx="1"/>
    <rect x="325.33" y="107.016" width="7" height="2" rx="1"/>
    <rect x="325.33" y="112.016" width="7" height="2" rx="1"/>
    <rect x="325.33" y="117.016" width="7" height="2" rx="1"/>
    <rect x="325.33" y="122.016" width="7" height="2" rx="1"/>
    <rect x="352.33" y="70.016" width="7" height="4" rx="1.5"/>
    <rect x="352.33" y="103.016" width="22" height="2" rx="1"/>
    <rect x="338.33" y="82.016" width="7" height="4" rx="1.5"/>
    <rect x="352.33" y="82.016" width="7" height="4" rx="1.5"/>
    <rect x="352.33" y="111.016" width="22" height="2" rx="1"/>
    <rect x="338.33" y="94.016" width="7" height="4" rx="1.5"/>
    <rect x="352.33" y="119.016" width="22" height="2" rx="1"/>
    <rect x="338.33" y="106.016" width="7" height="4" rx="1.5"/>
    <rect x="352.33" y="127.016" width="22" height="2" rx="1"/>
    <rect x="338.33" y="118.016" width="7" height="4" rx="1.5"/>
    <path d="M364.33 135.016h6v8h-6z"/>
  </g>
  <path d="M365.379 135.77h2.407v6.77h-2.407v-6.77zm-41.086 0h2.407v6.77h-2.407v-6.77zm-6.917.359h4.324v6.77h-4.324v-6.77z"
        fill="#a3e2fe"/>
  <g class="G">
    <path d="M316.33 135.016h6v8h-6zm7 0h6v8h-6z"/>
    <g class="K">
      <path d="M304.83 130.516h35v13h-35z"/>
      <path d="M310.83 43.516h24v87h-24z"/>
    </g>
    <path d="M320.33 17.016h5v6h-5z"/>
  </g>
  <g class="H">
    <path d="M319.941 23.516l-9.63 20-.481 1h1.11 23.78 1.11l-.482-1-9.629-20h-1.11l9.629 20h-22.817l9.63-20h-1.11z"
          class="F"/>
    <path d="M322.83.516l1 17h-2l1-17z"/>
    <path d="M336.83 62.516a3 3 0 0 0-3 3v64h2v-64a1 1 0 0 1 1-1h24a1 1 0 0 1 1 1v25h2v-25a3 3 0 0 0-3-3h-24zm12 82v-2h-8.5v2h8.5z"
          class="F"/>
  </g>
  <g class="I">
    <rect x="324.101" y="121.152" width="7.334" height="2.724" rx="1.362" style="mix-blend-mode:multiply" class="B"/>
    <rect x="351.83" y="111.516" width="19" height="2.724" rx="1.362" style="mix-blend-mode:multiply" class="B"/>
    <rect x="355.83" y="95.531" width="19" height="2.724" rx="1.362" style="mix-blend-mode:multiply" class="B"/>
    <rect x="339.84" y="82.949" width="6.57" height="3.566" rx="1.783" style="mix-blend-mode:multiply" class="B"/>
    <rect x="338.545" y="71.742" width="6.57" height="3.566" rx="1.783" style="mix-blend-mode:multiply" class="B"/>
    <rect x="357.753" y="127.5" width="17.077" height="3.566" rx="1.783" style="mix-blend-mode:multiply" class="B"/>
    <rect x="409.259" y="69.234" width="6.57" height="3.566" rx="1.783" style="mix-blend-mode:multiply" class="B"/>
    <rect x="425.259" y="69.988" width="6.57" height="3.144" rx="1.572" style="mix-blend-mode:multiply" class="C"/>
    <rect x="417.259" y="63.852" width="6.57" height="3.144" rx="1.572" style="mix-blend-mode:multiply" class="B"/>
    <rect x="421.545" y="52.945" width="6.57" height="3.144" rx="1.572" style="mix-blend-mode:multiply" class="B"/>
    <rect x="405.545" y="82.129" width="5.669" height="2.703" rx="1.352" style="mix-blend-mode:multiply" class="B"/>
    <rect x="413.161" y="86.125" width="5.669" height="2.703" rx="1.352" style="mix-blend-mode:multiply" class="B"/>
    <rect x="421.161" y="91.106" width="5.669" height="2.703" rx="1.352" style="mix-blend-mode:multiply" class="B"/>
    <rect x="428.996" y="96.086" width="5.669" height="2.703" rx="1.352" style="mix-blend-mode:multiply" class="B"/>
    <rect x="413.161" y="97.438" width="5.669" height="2.703" rx="1.352" style="mix-blend-mode:multiply" class="B"/>
    <rect x="405.545" y="101.094" width="5.669" height="2.703" rx="1.352" style="mix-blend-mode:multiply" class="B"/>
    <rect x="405.545" y="123.016" width="5.669" height="2.703" rx="1.352" style="mix-blend-mode:multiply" class="C"/>
    <rect x="413.549" y="106.516" width="5.669" height="2.703" rx="1.352" style="mix-blend-mode:multiply" class="C"/>
    <rect x="421.161" y="111.105" width="5.669" height="2.703" rx="1.352" style="mix-blend-mode:multiply" class="B"/>
    <rect x="412.996" y="120.988" width="5.669" height="2.703" rx="1.352" style="mix-blend-mode:multiply" class="C"/>
    <rect x="421.996" y="131.066" width="5.669" height="2.703" rx="1.352" style="mix-blend-mode:multiply" class="C"/>
    <rect x="412.545" y="132.418" width="5.669" height="2.703" rx="1.352" style="mix-blend-mode:multiply" class="C"/>
    <rect x="444.161" y="136.312" width="5.669" height="2.703" rx="1.352" style="mix-blend-mode:multiply" class="C"/>
    <rect x="452.161" y="135.516" width="5.669" height="2.703" rx="1.352" style="mix-blend-mode:multiply" class="C"/>
    <rect x="443.83" y="129.715" width="12.669" height="2.703" rx="1.352" style="mix-blend-mode:multiply" class="C"/>
    <rect x="429.161" y="126.164" width="5.669" height="2.703" rx="1.352" style="mix-blend-mode:multiply" class="B"/>
    <rect x="353.259" y="83.016" width="6.57" height="3.566" rx="1.783" style="mix-blend-mode:multiply" class="B"/>
    <rect x="339.84" y="106.516" width="6.57" height="3.566" rx="1.783" style="mix-blend-mode:multiply" class="B"/>
    <rect x="325.496" y="116.152" width="7.334" height="2.724" rx="1.362" style="mix-blend-mode:multiply" class="B"/>
    <rect x="313.163" y="110.793" width="7.334" height="2.724" rx="1.362" style="mix-blend-mode:multiply" class="E"/>
    <rect x="324.293" y="110.91" width="7.334" height="2.724" rx="1.362" style="mix-blend-mode:multiply" class="E"/>
    <rect x="325.163" y="100.793" width="7.334" height="2.724" rx="1.362" style="mix-blend-mode:multiply" class="E"/>
    <rect x="314.996" y="102.152" width="7.334" height="2.724" rx="1.362" style="mix-blend-mode:multiply" class="E"/>
    <rect x="322.33" y="93.016" width="7.334" height="2.724" rx="1.362" style="mix-blend-mode:multiply" class="E"/>
    <rect x="314.496" y="50.793" width="7.334" height="2.724" rx="1.362" style="mix-blend-mode:multiply" class="E"/>
    <rect x="326.496" y="52.152" width="7.334" height="2.724" rx="1.362" style="mix-blend-mode:multiply" class="E"/>
    <rect x="313.496" y="57.031" width="7.334" height="2.724" rx="1.362" style="mix-blend-mode:multiply" class="E"/>
    <rect x="325.163" y="61.125" width="7.334" height="2.724" rx="1.362" style="mix-blend-mode:multiply" class="E"/>
    <rect x="324.293" y="65.633" width="7.334" height="2.724" rx="1.362" style="mix-blend-mode:multiply" class="E"/>
    <rect x="313.496" y="71.438" width="7.334" height="2.724" rx="1.362" style="mix-blend-mode:multiply" class="E"/>
    <rect x="324.293" y="72.586" width="7.334" height="2.724" rx="1.362" style="mix-blend-mode:multiply" class="E"/>
    <rect x="314.496" y="78.016" width="7.334" height="2.724" rx="1.362" style="mix-blend-mode:multiply" class="E"/>
    <rect x="324.101" y="76.473" width="7.334" height="2.724" rx="1.362" style="mix-blend-mode:multiply" class="E"/>
    <rect x="314.996" y="85.867" width="7.334" height="2.724" rx="1.362" style="mix-blend-mode:multiply" class="E"/>
    <rect x="324.101" y="87.016" width="7.334" height="2.724" rx="1.362" style="mix-blend-mode:multiply" class="E"/>
  </g>
  <path d="M253.851 58.395v37.123" class="J M"/>
  <path d="M245.971 137.968l.902.432-.8 1.754-.917-.399.815-1.787zm-1.566 3.601l.931.366-.673 1.806-.943-.332.685-1.84zm-1.304 3.704l.955.298-.542 1.85-.964-.264.551-1.884zm-1.035 3.787l.973.229-.408 1.884-.981-.194.416-1.919zm-.763 3.852l.988.159-.273 1.909-.993-.124.278-1.944zm20.555 52.24l.614-.789 1.541 1.157-.586.81-1.569-1.178zm3.181 2.3l.556-.831 1.622 1.044-.527.85-1.651-1.063zm3.339 2.066l.495-.868 1.691.923-.464.886-1.722-.941zm3.479 1.821l1.786.816.399-.917-1.754-.801-.431.902zm3.6 1.566l.366-.931 1.806.673-.332.943-1.84-.685zm3.704 1.304l.298-.955 1.85.542-.263.964-1.885-.551zm3.787 1.035l.229-.973 1.884.408-.194.981-1.919-.416zm3.852.763l.159-.987 1.909.272-.124.993-1.944-.278zm3.896.486l.089-.996 1.923.137-.053.999-1.959-.14zm3.921.209l.018-.999h1.928l.018.999h-1.964zm3.926-.069l-.053-.999 1.923-.137.089.996-1.959.14zm3.911-.348l-.124-.993 1.909-.272.159.987-1.944.278zm3.877-.625l-.194-.981 1.884-.408.229.973-1.919.416zm3.822-.9l-.264-.964 1.85-.542.298.955-1.884.551zm3.749-1.17l-.332-.943 1.806-.673.365.931-1.839.685zm3.653-1.435l-.399-.917 1.754-.801.432.902-1.787.816zm3.543-1.696l-.463-.886 1.69-.923.495.868-1.722.941zm3.41-1.944l-.526-.85 1.621-1.044.557.831-1.652 1.063zm3.263-2.185l-.586-.81 1.541-1.157.615.789-1.57 1.178zm3.097-2.412l-.642-.766 1.458-1.266.669.744-1.485 1.288zm2.919-2.625l-.695-.72.691-.678.678-.691.72.695-.691.703-.703.691zm2.731-2.828l-.744-.669 1.266-1.458.766.642-1.288 1.485zm2.522-3.012l-.789-.615 1.157-1.541.81.586-1.178 1.57zm2.3-3.181l-.831-.557 1.044-1.621.851.526-1.064 1.652zm2.066-3.34l-.868-.495.924-1.69.885.463-.941 1.722zm1.821-3.478l-.902-.432.801-1.754.917.399-.816 1.787zm1.566-3.601l-.931-.365.673-1.806.943.332-.685 1.839zm1.304-3.704l-.955-.298.542-1.85.964.264-.551 1.884zm1.035-3.787l-.973-.229.408-1.884.981.194-.416 1.919zm.763-3.852l-.987-.159.273-1.909.992.124-.278 1.944zm.487-3.896l-.997-.089.137-1.923.999.053-.139 1.959zm.208-3.921l-.999-.018v-1.928l.999-.018v1.964zm-.069-3.926l-.999.053-.137-1.923.997-.089.139 1.959zm-.348-3.911l-.992.124-.273-1.909.987-.159.278 1.944zm-.625-3.877l-.981.194-.408-1.884.973-.229.416 1.919z"
        class="F I"/>
  <path d="M267.075 55.878l-.846.132v.019h-56.276l-.74-.072c-7.787-.754-13.889-7.37-13.889-15.433 0-8.571 6.892-15.505 15.378-15.505 1.211 0 2.389.141 3.519.408l1.371.324-.147-1.402c-.03-.283-.045-.571-.045-.862 0-4.454 3.58-8.051 7.981-8.051 2.156 0 4.111.861 5.549 2.265l1.059 1.033.564-1.367c2.796-6.767 9.416-11.515 17.129-11.515 10.236 0 18.547 8.365 18.547 18.7a18.89 18.89 0 0 1-.553 4.551l-.307 1.241h.86v.019l.846.132c6.098.949 10.777 6.266 10.777 12.692s-4.679 11.743-10.777 12.692z"
        class="G K"/>
  <path d="M225.287 21.554c-1.177-.74-2.042-.879-2.759-.544-.9.422-1.302.782-1.481 1.01-.147.186-.204.354-.215.604-.014.316.049.729.207 1.384l.125.497c.246.965-.393 1.9-1.373 2.076l-.817.147c-.743.133-1.464-.359-1.65-1.09l-.173-.69c-.17-.703-.355-1.581-.315-2.496.042-.98.339-1.981 1.068-2.906.695-.884 1.69-1.578 2.927-2.158 2.58-1.209 5.006-.213 6.585.779.816.514 1.528 1.098 2.078 1.575l.616.542a.71.71 0 0 1 .11.936l-1.209 1.654c-.427.584-1.232.692-1.772.213l-.364-.32c-.494-.428-1.027-.859-1.588-1.212zm-17.464 12.687c-2.213.937-4.079 2.32-5.026 4.502-.786 1.811-.185 3.729 1.481 5.616 1.081 1.224 2.449 2.23 3.682 2.903.97.529 1.588 1.648 1.285 2.71s-1.416 1.678-2.413 1.204c-1.886-.898-3.957-2.361-5.553-4.169-2.155-2.442-3.824-6.002-2.152-9.855 1.511-3.482 4.41-5.439 7.138-6.594 2.315-.98 4.714-1.46 6.277-1.773a.72.72 0 0 1 .846.556l.51 2.413c.094.443-.19.877-.634.967-1.581.319-3.534.714-5.441 1.521z"
        class="B F I"/>
  <path d="M230.903 50.25h34.423" stroke-opacity=".5" stroke-width="4" class="J"/>
  <circle cx="126.77" cy="120.515" r="3.991" style="mix-blend-mode:multiply" class="O"/>
  <circle cx="125.779" cy="120.516" r="5" class="G K"/>
  <path d="M131.779 121.016h92.167m-98.667 74.785v-69.285m1-24v12" class="J M"/>
  <path fill="#fff" d="M112.779 54.75h26v48h-26z"/>
  <rect x="112.779" y="54.75" width="26" height="48" rx="2" class="G K"/>
  <path d="M113.779 55.188h24v47h-24z" class="H"/>
  <rect x="118.779" y="61.25" width="14" height="3" rx="1.5" fill="#96e5fe"/>
  <circle cx="125.779" cy="91.75" r="2.5" stroke="#fff"/>
  <circle cx="126.66" cy="90.753" r="2.491" style="mix-blend-mode:multiply" class="O"/>
  <g fill="#96e5fe">
    <rect x="119.66" y="68" width="14" height="3" rx="1.5"/>
    <rect x="117.996" y="75.75" width="14" height="3" rx="1.5"/>
  </g>
  <g stroke="#fff">
    <rect x="119.279" y="63.25" width="13" height="2" rx="1"/>
    <rect x="119.279" y="69.25" width="13" height="2" rx="1"/>
    <rect x="119.279" y="75.25" width="13" height="2" rx="1"/>
  </g>
  <path d="M223.279 59.754v79.761" class="J M"/>
  <path fill="#fff" d="M213.151 142.539h26v49h-26z"/>
  <g class="G">
    <rect x="213.151" y="142.539" width="26" height="49" rx="2" class="K"/>
    <rect x="218.651" y="146.039" width="6" height="2" rx="1" transform="rotate(90 218.651 146.039)"/>
    <rect x="218.651" y="158.039" width="6" height="2" rx="1" transform="rotate(90 218.651 158.039)"/>
    <rect x="218.651" y="170.039" width="6" height="2" rx="1" transform="rotate(90 218.651 170.039)"/>
    <rect x="218.651" y="182.039" width="6" height="2" rx="1" transform="rotate(90 218.651 182.039)"/>
    <rect x="222.651" y="146.039" width="6" height="2" rx="1" transform="rotate(90 222.651 146.039)"/>
    <rect x="222.651" y="158.039" width="6" height="2" rx="1" transform="rotate(90 222.651 158.039)"/>
    <rect x="222.651" y="170.039" width="6" height="2" rx="1" transform="rotate(90 222.651 170.039)"/>
    <rect x="222.651" y="182.039" width="6" height="2" rx="1" transform="rotate(90 222.651 182.039)"/>
    <rect x="226.651" y="146.039" width="6" height="2" rx="1" transform="rotate(90 226.651 146.039)"/>
    <rect x="226.651" y="158.039" width="6" height="2" rx="1" transform="rotate(90 226.651 158.039)"/>
    <rect x="226.651" y="170.039" width="6" height="2" rx="1" transform="rotate(90 226.651 170.039)"/>
    <rect x="226.651" y="182.039" width="6" height="2" rx="1" transform="rotate(90 226.651 182.039)"/>
    <rect x="235.651" y="150.039" width="2" height="2" rx="1" transform="rotate(90 235.651 150.039)"/>
    <rect x="235.651" y="162.039" width="2" height="2" rx="1" transform="rotate(90 235.651 162.039)"/>
    <rect x="235.651" y="174.039" width="2" height="2" rx="1" transform="rotate(90 235.651 174.039)"/>
    <rect x="235.651" y="186.039" width="2" height="2" rx="1" transform="rotate(90 235.651 186.039)"/>
    <path d="M213.151 155.039h26m-26 12h26m-26 12h26"/>
  </g>
  <g class="I D">
    <rect x="225.651" y="153.363" width="7.648" height="3" rx="1.5" transform="rotate(270 225.651 153.363)"
          style="mix-blend-mode:multiply"/>
    <rect x="220.151" y="165.363" width="7.648" height="3" rx="1.5" transform="rotate(270 220.151 165.363)"
          style="mix-blend-mode:multiply"/>
    <rect x="225.401" y="175.188" width="7.648" height="3" rx="1.5" transform="rotate(270 225.401 175.188)"
          style="mix-blend-mode:multiply"/>
    <rect x="221.151" y="188.863" width="7.648" height="3" rx="1.5" transform="rotate(270 221.151 188.863)"
          style="mix-blend-mode:multiply"/>
    <rect x="220.151" y="153.363" width="7.648" height="3" rx="1.5" transform="rotate(270 220.151 153.363)"
          style="mix-blend-mode:multiply"/>
    <rect x="214.651" y="165.363" width="7.648" height="3" rx="1.5" transform="rotate(270 214.651 165.363)"
          style="mix-blend-mode:multiply"/>
    <rect x="219.901" y="175.188" width="7.648" height="3" rx="1.5" transform="rotate(270 219.901 175.188)"
          style="mix-blend-mode:multiply"/>
    <rect x="216.151" y="178.16" width="7.648" height="3" rx="1.5" transform="rotate(270 216.151 178.16)"
          style="mix-blend-mode:multiply"/>
    <rect x="225.401" y="189.188" width="7.648" height="3" rx="1.5" transform="rotate(270 225.401 189.188)"
          style="mix-blend-mode:multiply"/>
    <rect x="215.651" y="188.863" width="7.648" height="3" rx="1.5" transform="rotate(270 215.651 188.863)"
          style="mix-blend-mode:multiply"/>
  </g>
  <g class="O">
    <circle cx="233.79" cy="151.587" r="1.329" style="mix-blend-mode:multiply"/>
    <circle cx="235.98" cy="174.337" r="1.329" style="mix-blend-mode:multiply"/>
  </g>
  <g class="G">
    <rect x="245.351" y="98.789" width="51.468" height="35.766" rx="2" class="K"/>
    <rect x="260.68" y="137.672" width="20.809" height="1.617" rx=".809"/>
  </g>
  <path d="M269.776 134.555h2.617v2.617h-2.617z" class="H"/>
  <path d="M285.601 119.824a.75.75 0 0 1 .75-.75h1.5a.75.75 0 0 1 .75.75v9h.375c.1 0 .195.04.265.11s.11.166.11.265a.37.37 0 0 1-.375.375h-11.25c-.099 0-.195-.039-.265-.11s-.11-.165-.11-.265.04-.195.11-.265.166-.11.265-.11h.375v-2.25a.75.75 0 0 1 .75-.75h1.5a.75.75 0 0 1 .75.75v2.25h.75v-5.25a.75.75 0 0 1 .75-.75h1.5a.75.75 0 0 1 .75.75v5.25h.75v-9z"
        class="D I"/>
  <path d="M265.34 111.278h-5.834l-4.125 4.125c.843.743 1.876 1.234 2.984 1.419a6.01 6.01 0 0 0 3.282-.375c1.038-.43 1.934-1.142 2.586-2.056a6 6 0 0 0 1.107-3.113zm-10.489 3.594c-.743-.842-1.234-1.876-1.419-2.984a6.01 6.01 0 0 1 .375-3.282c.43-1.037 1.142-1.933 2.056-2.586s1.992-1.036 3.113-1.106v5.834l-4.125 4.124z"
        class="O"/>
  <path d="M259.726 110.528v-5.614c1.459.091 2.835.712 3.868 1.746a6 6 0 0 1 1.746 3.868h-5.614z" fill="#3984ba"/>
  <g class="I">
    <path d="M286.395 113.91h-8.062v-6.703c0-.047-.043-.086-.094-.086h-.656c-.052 0-.094.039-.094.086v7.391c0 .047.042.086.094.086h8.812c.052 0 .094-.039.094-.086v-.602c0-.047-.042-.086-.094-.086zm-7.031-2.019a.66.66 0 0 0 .22.486c.14.129.331.201.53.201s.39-.072.53-.201a.66.66 0 0 0 .22-.486.66.66 0 0 0-.22-.487.79.79 0 0 0-.53-.201.79.79 0 0 0-.53.201.66.66 0 0 0-.22.487zm4.969-3.33c0 .159.069.312.192.425s.29.176.464.176.341-.063.464-.176.192-.266.192-.425a.58.58 0 0 0-.192-.426c-.123-.113-.29-.176-.464-.176s-.341.063-.464.176a.58.58 0 0 0-.192.426z"/>
    <path opacity=".4"
          d="M280.911 109.849c-.105-.097-.164-.228-.164-.365s.059-.268.164-.364a.59.59 0 0 1 .398-.151.59.59 0 0 1 .398.151c.105.096.165.228.165.364a.5.5 0 0 1-.165.365.59.59 0 0 1-.398.151.59.59 0 0 1-.398-.151zm2.017 2.814a.99.99 0 0 1-.33-.729c0-.274.119-.536.33-.73a1.18 1.18 0 0 1 .795-.302 1.18 1.18 0 0 1 .796.302.99.99 0 0 1 .329.73.99.99 0 0 1-.329.729 1.18 1.18 0 0 1-.796.302 1.18 1.18 0 0 1-.795-.302z"/>
  </g>
  <path d="M252.435 129.451l5.937-4.381 3.167 2.333 5.613-4.649 1.116.822-6.729 5.577-3.167-2.333-4.75 3.506-1.187-.875zm1.187-2.625l4.75-3.506 3.167 2.333 6.729-5.577-1.116-.822-5.613 4.649-3.167-2.333-5.937 4.381 1.187.875z"
        fill="#3984ba"/>
  <mask id="B" fill="#fff">
    <path d="M302.577 192.547l1.393-4.741-.68-.734c-.309-.442-.376-.828-.202-1.159.371-.718 1.134-.585 1.848-.585.746 0 1.667-.138 1.903.778.079.309-.022.629-.241.96l-.68.734 1.393 4.742-2.364 1.832-2.37-1.827zm-28.711-10.343c-1.167-1.308-1.269-2.677 0-4.123 1.466.364 2.808.988 4.043 1.832.27-.116.579-.16.882-.143 1.286-.895 2.926-1.259 4.357-1.932 1.713 1.639 1.528 3.146-.157 4.548a11.82 11.82 0 0 1-2.689-.966c-.023.215-.079.453-.186.712l.438 3.576h-3.492l.438-3.576c-.276-.453-.377-.839-.365-1.165-1.011.596-2.117.983-3.269 1.237zm-4.66-19.103c-.511.022-.904.127-1.168.298-.152.099-.264.226-.337.381-.079.171-.118.375-.112.613.022.695.387 1.6 1.106 2.643l.011.017 2.319 3.621c.932 1.451 1.904 2.93 3.117 4.023 1.162 1.049 2.577 1.755 4.441 1.761 2.022.005 3.504-.729 4.706-1.838 1.246-1.148 2.235-2.727 3.206-4.294l2.611-4.228c.489-1.093.663-1.821.551-2.252-.068-.254-.354-.381-.843-.403l-.32-.005-.365.022c-.067.005-.135 0-.202-.011-.23.011-.472-.006-.719-.039l.893-3.891c-6.632 1.026-11.595-3.814-18.609-.966l.506 4.587c-.276.005-.545 0-.792-.039zm3.077 16.172a.73.73 0 0 1-.163.16 206.58 206.58 0 0 0 .893 6.275h-13.791c-.988 0-1.791.911-1.64 2.021l1.915 14.267h-1.752c-1.611-.121-2.431-.938-2.572-2.362.079-6.375-2.386-14.086 4.448-17.828 2.498-1.374 8.95-1.838 11.764-3.648.409-.762.864-2.092 1.151-2.953a1.32 1.32 0 0 1 .039-.116l.028-.083c-1.033-1.092-1.881-2.379-2.69-3.648l-2.319-3.621c-.848-1.242-1.286-2.379-1.314-3.311-.011-.436.062-.839.231-1.187a2.24 2.24 0 0 1 .797-.911 2.8 2.8 0 0 1 .561-.281c-.151-1.965-.207-4.443-.106-6.513a8.52 8.52 0 0 1 .286-1.474c.848-2.98 3.453-5.127 6.43-6.137 1.443-.492.887-1.662 2.347-1.579 3.459.188 8.799 2.379 10.848 4.703 2.875 3.256 2.134 7.269 2.039 11.243.64.193 1.055.59 1.224 1.241.185.718-.017 1.734-.635 3.113-.011.028-.022.05-.039.072l-2.639 4.278c-1.017 1.65-2.05 3.3-3.431 4.57l-.067.061.426.607c.461.662.983 1.413 1.466 2.003 2.869 1.755 9.186 2.225 11.651 3.582.59.326 1.107.69 1.556 1.093l1.039-.916-.405-.453-1.269-1.451-.943.022-1.797.044c-1.544-1.744-1.449-5.497-1.297-7.661.719-4.349 2.431-7.484 5.217-9.295 1.886-1.225 3.015-1.297 5.222-1.297 1.926 0 3.105-.044 4.75 1.021 5.352 3.467 7.014 11.641 4.397 17.149h-1.87l-.118.138-.168.193-.815.961c-.325.381-.651.767-1.005 1.126.45.43 1.056.955 1.612 1.435l.741.64c8.372 3.279 10.214 5.188 11.236 15.802.191 1.959.169 1.871-1.741 1.91-7.069.138-16.082 0-24.235-.033l.034-.249 1.915-14.267c.151-1.11-.652-2.021-1.64-2.021h-13.482c.331-2.334.573-4.559.69-6.242-.628-.684-1.302-1.656-1.875-2.489l-.371-.53c-1.213.8-2.656 1.291-4.464 1.291a7.59 7.59 0 0 1-4.885-1.722c-.365 1.077-.898 2.55-1.415 3.257zm27.498 4.2c2.835 3.174 2.392 8.18 2.28 12.706l2.88 4.702 7.019-11.447 3.049.072c-.707-1.402-1.55-2.655-2.493-3.831-.253-.254-.752-.684-1.291-1.148-.579-.496-1.202-1.037-1.668-1.484-.191.16-.388.314-.601.452-.91.613-2.038 1.021-3.571 1.016-1.438 0-2.516-.398-3.403-.977a7.73 7.73 0 0 1-1.179-.966l-1.022.905z"
          class="F"/>
  </mask>
  <g class="H">
    <path d="M298.927 179.438l-.479.143.062.21.197.096.22-.449zm3.235-13.599l.477-.151-.246-.778-.582.572.351.357zm9.557 8.168l-.448.223h0l.448-.223zm.455 4.096l.494.077v-.002l-.494-.075zm-.304 1.335l.245.436.175-.098.059-.192-.479-.146zm-.426.459l.373.332.003-.004-.376-.328zm-.169.198l.381.325.005-.007-.386-.318zm-.82.961l-.38-.325-.001.001.381.324zm-2.055 2.009l-.277-.416-.002.001.279.415zm-5.873.038l-.274.419h.001l.273-.419zm-1.994-1.882l-.376.329v.001l.376-.33zm-1.482-1.694l.376-.329-.012-.015-.014-.013-.35.357zm-26.042-4.161l.039-.116-.947-.321-.039.115.947.322zm26.398 3.93c-.729-2.454-.914-4.779-.444-6.955s1.598-4.231 3.549-6.146l-.701-.713c-2.075 2.037-3.31 4.265-3.825 6.647s-.303 4.878.462 7.452l.959-.285zm2.278-13.307c.408 1.296 1.664 2.513 3.056 3.543 1.417 1.049 3.08 1.978 4.447 2.674l.453-.892c-1.345-.684-2.952-1.584-4.305-2.585-1.378-1.02-2.393-2.074-2.697-3.041l-.954.301zm7.446 6.189c.853.414 1.602.97 2.14 2.052l.896-.445c-.664-1.335-1.611-2.027-2.599-2.507l-.437.9zm2.14 2.052c.631 1.265.631 2.326.408 3.798l.989.15c.237-1.564.26-2.865-.502-4.394l-.895.446zm.409 3.796a9.28 9.28 0 0 1-.288 1.267l.957.291c.136-.448.242-.913.319-1.404l-.988-.154zm-.054.977c-.064.035-.161.097-.244.195l.763.647c-.015.018-.027.027-.031.03l-.488-.872zm-.244.195l-.315.37.753.657.325-.38-.763-.647zm-.312.366l-.181.213.772.636.156-.184-.747-.665zm-.175.207l-.82.96.761.649.819-.96-.76-.649zm-.821.961c-.631.743-1.216 1.427-1.951 1.917l.555.832c.871-.581 1.543-1.377 2.158-2.102l-.762-.647zm-1.953 1.918c-.686.462-1.537.776-2.742.776v1c1.401 0 2.447-.371 3.301-.947l-.559-.829zm-2.742.776c-1.092 0-1.908-.305-2.58-.742l-.545.838c.822.535 1.825.904 3.125.904v-1zm-2.578-.741c-.71-.465-1.292-1.11-1.892-1.793l-.752.659c.591.674 1.256 1.42 2.096 1.971l.548-.837zm-1.891-1.793l-1.483-1.694-.753.658 1.483 1.694.753-.658zm-1.509-1.722a1 1 0 0 0-.253-.18l-.441.897.694-.717zm-26.388 7.038h4.049v-1h-4.049v1zm11.59-1h-4.049v1h4.049v-1zm17.974 7.339l-.959-.282-.193.656.542.418.61-.792zm1.393-4.741l.959.282.16-.545-.385-.416-.734.679zm-.68-.734l-.819.573.039.056.046.05.734-.679zm-.202-1.159l.885.465.004-.006-.889-.459zm3.751.193l.969-.247v-.002l-.969.249zm-.241.96l.734.68.055-.06.045-.068-.834-.552zm-.68.734l-.734-.679-.385.417.16.544.959-.282zm1.393 4.742l.612.79.539-.418-.192-.654-.959.282zm-2.364 1.832l-.611.792.612.472.611-.474-.612-.79zm-31.081-12.17l-.745.666.389.436.572-.126-.216-.976zm0-4.123l.242-.971-.591-.147-.402.458.751.66zm4.043 1.832l-.564.826.454.31.505-.217-.395-.919zm.882-.143l-.054.998.343.019.282-.196-.571-.821zm4.357-1.932l.692-.723-.496-.474-.621.292.425.905zm-.157 4.548l-.218.976.48.107.378-.315-.64-.768zm-2.689-.966l.445-.895-1.29-.643-.15 1.434.995.104zm-.186.712l-.925-.38-.099.242.032.259.992-.121zm.438 3.576v1h1.13l-.137-1.121-.993.121zm-3.492 0l-.993-.121-.137 1.121h1.13v-1zm.438-3.576l.992.121.042-.344-.18-.297-.854.52zm-.365-1.165l.999.035.063-1.822-1.57.926.508.861zm-7.929-17.866l.154-.988-.098-.015-.099.004.043.999zm-1.168.298l-.544-.839-.004.003.548.836zm-.337.381l-.904-.427-.005.009.909.418zm-.112.613l-1 .023v.009l1-.032zm1.106 2.643l.827-.561-.004-.006-.823.567zm.011.017l.842-.539-.007-.012-.007-.01-.828.561zm2.319 3.621l-.842.539.001.001.841-.54zm3.117 4.023l.669-.742v-.001l-.669.743zm4.441 1.761l-.003 1h.001l.002-1zm4.706-1.838l-.678-.736-.001.001.679.735zm3.206-4.294l.85.527.001-.002-.851-.525zm2.611-4.228l.851.525.035-.056.027-.061-.913-.408zm.551-2.252l.967-.252-.001-.004-.966.256zm-.843-.403l-.054.999h.009l.045-.999zm-.32-.005v-1h-.023l-.024.001.047.999zm-.365.022l.082.996h.003l-.085-.996zm-.202-.011l.162-.987-.104-.017-.106.005.048.999zm-.719-.039l-.974-.224-.246 1.069 1.087.146.133-.991zm.893-3.891l.975.224.33-1.438-1.458.226.153.988zm-18.609-.966l-.376-.927-.701.285.083.751.994-.109zm.506 4.587l.02.999 1.093-.022-.119-1.087-.994.11zm2.285 16.133l.804.595.003-.005-.807-.59zm-.163.16l-.581-.814-.486.347.075.592.992-.125zm.893 6.275v1h1.171l-.183-1.156-.988.156zm-15.431 2.021l.991-.133v-.003l-.991.136zm1.915 14.267v1h1.143l-.152-1.133-.991.133zm-1.752 0l-.075.997.038.003h.037v-1zm-2.572-2.362l-1-.012v.055l.005.055.995-.098zm4.448-17.828l.48.877.002-.001-.482-.876zm11.764-3.648l.541.841.217-.14.122-.227-.88-.474zm1.151-2.953l.949.316-1.887-.663.938.347zm.039-.116l-.956-.292 1.903.613-.947-.321zm.028-.083l.947.321.194-.57-.414-.438-.727.687zm-2.69-3.648l.844-.537-.002-.002-.842.539zm-2.319-3.621l.842-.539-.008-.012-.008-.013-.826.564zm-1.314-3.311l-.999.025v.005l.999-.03zm.231-1.187l.899.436.003-.005-.902-.431zm.797-.911l-.548-.836-.003.002.551.834zm.561-.281l.349.937.706-.263-.058-.751-.997.077zm-.106-6.513l-.995-.102-.003.026-.001.027.999.049zm.286-1.474l.962.275v-.001l-.962-.274zm6.43-6.137l.321.947.001-.001-.322-.946zm2.347-1.579l-.057.998.003.001.054-.999zm10.848 4.703l-.75.661h.001l.749-.661zm2.039 11.243l-1-.024-.018.761.729.22.289-.957zm1.224 1.241l.968-.25h0l-.968.25zm-.635 3.113l-.912-.408-.007.016-.007.016.926.376zm-.039.072l-.795-.606-.03.039-.026.042.851.525zm-2.639 4.278l-.851-.525h-.001l.852.525zm-3.431 4.57l.669.743.008-.007-.677-.736zm-.067.061l-.67-.743-.652.587.498.722.824-.566zm.426.607l.821-.571-.003-.005-.818.576zm1.466 2.003l-.774.633.107.132.145.088.522-.853zm11.651 3.582l.484-.875-.001-.001-.483.876zm1.556 1.093l-.668.745.657.588.666-.577-.655-.756zm1.039-.916l.672.741.739-.671-.67-.741-.741.671zm-.405-.453l-.752.659.005.006.006.006.741-.671zm-1.269-1.451l.753-.658-.308-.353-.468.011.023 1zm-.943.022l-.023-1h-.002l.025 1zm-1.797.044l-.749.663.309.348.465-.011-.025-1zm-1.297-7.661l-.987-.163-.007.046-.004.047.998.07zm5.217-9.295l-.545-.838h0l.545.838zm9.972-.276l.544-.839h0l-.544.839zm4.397 17.149v1h.632l.271-.571-.903-.429zm-1.87 0v-1h-.461l-.299.351.76.649zm-.118.138l.754.657.006-.007-.76-.65zm-.168.193l-.754-.657-.009.011.763.646zm-.815.961l.76.65.003-.004-.763-.646zm-1.005 1.126l-.712-.702-.712.722.732.702.692-.722zm1.612 1.435l-.654.756.003.003.651-.759zm.741.64l-.662.749.132.117.165.065.365-.931zm11.236 15.802l-.995.096v.001l.995-.097zm-1.741 1.91l.02 1h.001l-.021-1zm-24.235-.033l-.991-.135-.153 1.13 1.14.005.004-1zm.034-.249l.991.135v-.002l-.991-.133zm1.915-14.267l-.991-.136v.003l.991.133zm-15.122-2.021l-.99-.14-.162 1.14h1.152v-1zm.69-6.242l.998.07.03-.43-.291-.317-.737.677zm-1.875-2.489l.824-.567-.004-.006-.004-.006-.816.579zm-.371-.53l.815-.58-.56-.786-.805.531.55.835zm-4.464 1.291l-.002 1h.002v-1zm-4.885-1.722l.623-.782-1.113-.886-.457 1.347.947.321zm26.083 7.457l-.66-.752-.758.666.672.752.746-.666zm2.28 12.706l-1-.025-.007.295.154.252.853-.522zm2.88 4.702l-.853.523.853 1.391.853-1.391-.853-.523zm7.019-11.447l.024-1-.576-.013-.3.49.852.523zm3.049.072l-.023 1 1.668.039-.752-1.49-.893.451zm-2.493-3.831l.78-.625-.033-.042-.038-.038-.709.705zm-1.291-1.148l.652-.758h-.001l-.651.758zm-1.668-1.484l.692-.722-.647-.621-.688.576.643.767zm-.601.452l-.543-.84-.008.006-.008.005.559.829zm-3.571 1.016l.003-1h-.003v1zm-3.403-.977l-.548.836.001.001.547-.837zm-1.179-.966l.701-.713-.675-.663-.699.636.673.74zm2.734 10.261l1.392-4.741-1.919-.564-1.392 4.741 1.919.564zm1.167-5.702l-.68-.734-1.468 1.358.68.734 1.468-1.358zm-.594-.628c-.1-.143-.116-.214-.117-.22.001.018.001.028-.001.04-.004.024-.012.045-.019.059l-1.77-.931c-.42.8-.149 1.602.268 2.198l1.639-1.146zm-.133-.127c.018-.036.022-.029.004-.017-.01.006.003-.006.073-.019.075-.013.179-.019.337-.018l.251.005.294.005v-2c-.224 0-.784-.038-1.223.038-.555.096-1.151.386-1.513 1.088l1.777.918zm.959-.044l.307-.005.265-.003a1.82 1.82 0 0 1 .35.028c.066.015.057.026.027-.001-.038-.033-.03-.054-.014.008l1.937-.498c-.102-.396-.298-.743-.599-1.009-.292-.258-.622-.385-.909-.45-.498-.113-1.122-.07-1.364-.07v2zm.934.024c-.009-.033-.001-.051-.006-.033a.73.73 0 0 1-.1.196l1.668 1.103c.291-.44.554-1.058.376-1.759l-1.938.493zm-.006.035l-.68.734 1.468 1.359.68-.734-1.468-1.359zm-.905 1.695l1.392 4.741 1.919-.563-1.392-4.741-1.919.563zm1.739 3.669l-2.364 1.833 1.225 1.58 2.364-1.832-1.225-1.581zm-1.141 1.831l-2.369-1.827-1.221 1.584 2.369 1.827 1.221-1.584zm-30.945-12.044c-.482-.541-.653-.99-.66-1.362-.006-.367.142-.838.666-1.436l-1.503-1.319c-.745.849-1.181 1.785-1.162 2.791s.482 1.89 1.168 2.658l1.491-1.332zm-.987-2.487c1.342.334 2.576.905 3.72 1.688l1.129-1.651c-1.327-.907-2.777-1.583-4.366-1.978l-.483 1.941zm4.679 1.781c.105-.045.256-.074.433-.064l.109-1.997c-.43-.023-.897.037-1.332.223l.79 1.838zm1.058-.241c.539-.375 1.176-.655 1.911-.936l2.301-.912-.851-1.81c-.671.316-1.365.548-2.166.854-.764.293-1.59.642-2.337 1.162l1.142 1.642zm3.095-2.031c.748.716.908 1.237.888 1.584-.02.361-.251.855-.993 1.473l1.279 1.537c.942-.783 1.646-1.744 1.711-2.897.066-1.166-.538-2.219-1.502-3.142l-1.383 1.445zm.752 2.85c-.851-.191-1.673-.493-2.462-.885l-.891 1.79c.918.457 1.893.818 2.917 1.047l.436-1.952zm-3.902-.094c-.012.118-.044.262-.116.436l1.85.76a3.57 3.57 0 0 0 .255-.988l-1.989-.208zm-.183.937l.438 3.577 1.985-.243-.438-3.577-1.985.243zm1.43 2.455h-3.492v2h3.492v-2zm-2.5 1.122l.438-3.577-1.985-.243-.438 3.577 1.985.243zm.3-4.218c-.201-.331-.223-.526-.22-.61l-1.999-.069c-.019.567.161 1.145.51 1.718l1.709-1.039zm-1.727-1.506c-.899.53-1.9.884-2.976 1.121l.431 1.953c1.226-.27 2.437-.689 3.561-1.351l-1.016-1.723zm-7.464-18.004c-.603.026-1.197.152-1.669.458l1.088 1.678c.055-.036.248-.12.667-.138l-.086-1.998zm-1.673.461c-.296.194-.537.458-.693.79l1.808.854a.12.12 0 0 1-.016.024l-1.099-1.668zm-.698.799c-.153.333-.212.693-.203 1.054l1.999-.047c-.002-.114.017-.163.022-.172l-1.818-.835zm-.203 1.063c.032.978.522 2.075 1.282 3.179l1.647-1.135c-.677-.982-.917-1.696-.93-2.109l-1.999.065zm1.278 3.173l.012.016 1.655-1.122-.012-.017-1.655 1.123zm-.003-.006l2.319 3.621 1.684-1.079-2.319-3.62-1.684 1.078zm2.32 3.622c.921 1.435 1.96 3.029 3.288 4.226l1.339-1.486c-1.097-.989-2.001-2.352-2.944-3.821l-1.683 1.081zm3.288 4.226c1.312 1.183 2.956 2.012 5.108 2.018l.006-2c-1.576-.005-2.762-.59-3.775-1.503l-1.339 1.485zm5.109 2.018c2.305.006 4.023-.845 5.386-2.103l-1.357-1.47c-1.04.961-2.286 1.578-4.024 1.573l-.005 2zm5.385-2.102c1.365-1.258 2.423-2.96 3.379-4.503l-1.7-1.054c-.986 1.592-1.905 3.046-3.034 4.085l1.355 1.472zm3.38-4.505l2.611-4.228-1.702-1.05-2.611 4.227 1.702 1.051zm2.673-4.345c.257-.575.449-1.092.559-1.546.106-.437.163-.917.046-1.366l-1.935.505c-.005-.02.021.08-.054.389-.071.29-.21.684-.442 1.202l1.826.816zm.604-2.916c-.126-.476-.461-.776-.805-.938-.312-.146-.656-.194-.959-.208l-.09 1.998a1.33 1.33 0 0 1 .181.019c.038.007.039.012.018.002s-.079-.042-.14-.108a.61.61 0 0 1-.138-.252l1.933-.513zm-1.754-1.145l-.375-.007v2l.266.004.109-1.997zm-.422-.006l-.403.024.17 1.993.327-.019-.094-1.998zm-.399.024c.02-.002.034-.001.041-.001l-.324 1.974a1.81 1.81 0 0 0 .446.02l-.163-1.993zm-.169-.013c-.152.007-.33-.003-.538-.031l-.266 1.982c.286.038.591.061.9.047l-.096-1.998zm.304 1.184l.893-3.891-1.95-.448-.892 3.891 1.949.448zm-.235-5.103c-3.068.475-5.724-.399-8.769-1.149-3.001-.739-6.255-1.302-10.063.244l.752 1.853c3.206-1.301 5.941-.867 8.833-.155 2.848.701 5.989 1.735 9.553 1.183l-.306-1.976zm-19.45.131l.506 4.587 1.988-.219-.506-4.587-1.988.219zm1.48 3.478c-.257.005-.458-.002-.618-.027l-.309 1.976a5.6 5.6 0 0 0 .967.05l-.04-1.999zm1.501 16.538a.32.32 0 0 1 .028-.032c.009-.009.019-.018.032-.027l1.163 1.627c.146-.104.277-.233.385-.378l-1.608-1.19zm-.351.88a206.71 206.71 0 0 0 .897 6.307l1.976-.313c-.364-2.296-.671-4.515-.889-6.244l-1.984.25zm1.885 5.15h-13.791v2h13.791v-2zm-13.791 0c-1.64 0-2.858 1.492-2.63 3.156l1.981-.271c-.076-.555.312-.885.649-.885v-2zm-2.631 3.154l1.915 14.267 1.982-.266-1.915-14.267-1.982.266zm2.906 13.134h-1.752v2h1.752v-2zm-1.677.003c-.656-.049-1.02-.23-1.229-.425-.202-.189-.369-.498-.422-1.038l-1.991.196c.087.884.4 1.696 1.046 2.301.639.6 1.491.889 2.446.96l.15-1.994zm-1.647-1.353c.021-1.644-.123-3.375-.235-5.028-.113-1.678-.195-3.291-.077-4.808.231-2.98 1.214-5.47 4.24-7.127l-.961-1.754c-3.808 2.085-5.009 5.322-5.273 8.726-.13 1.676-.038 3.419.076 5.098.115 1.703.249 3.326.23 4.869l2 .024zm3.93-16.964c.511-.281 1.282-.543 2.27-.804.977-.259 2.078-.496 3.232-.757 1.139-.257 2.32-.535 3.4-.867 1.07-.329 2.103-.729 2.921-1.255l-1.083-1.682c-.589.379-1.417.716-2.426 1.026-.999.307-2.115.57-3.253.827l-3.303.774c-1.012.269-1.984.58-2.722.986l.964 1.752zm12.162-4.05c.459-.854.941-2.275 1.22-3.111l-1.898-.632c-.295.886-.723 2.125-1.083 2.795l1.761.948zm-.667-3.774c.008-.021.01-.027.014-.034a.71.71 0 0 1 .018-.04c.004-.01.012-.026.023-.047.006-.01.014-.025.025-.043s.027-.042.049-.073a1.89 1.89 0 0 1 .049-.06c.018-.021.061-.065.087-.089.036-.031.126-.097.182-.13.081-.041.287-.107.411-.124a1.76 1.76 0 0 1 .624.161 1.8 1.8 0 0 1 .336.369 1.75 1.75 0 0 1 .091.248 1.99 1.99 0 0 1 .022.141l.003.086-.003.057a.48.48 0 0 1-.007.07c-.002.016-.004.03-.006.04s-.003.02-.005.027l-.007.032-.01.039-.007.022.013-.04c.003-.009.007-.018.009-.026-.007.016-.01.025-.015.036s-.006.014-.011.023-.011.025-.021.043c-.005.01-.012.023-.021.038s-.022.037-.04.063l-.036.049a2.57 2.57 0 0 1-.06.071 2.14 2.14 0 0 1-.115.104c-.049.036-.173.108-.25.141-.109.036-.37.069-.518.056a1.73 1.73 0 0 1-.55-.279c-.077-.086-.185-.254-.22-.33-.021-.057-.05-.158-.059-.201a2.21 2.21 0 0 1-.014-.119 2.04 2.04 0 0 1-.002-.075c.001-.037.004-.068.006-.087s.004-.037.006-.049l.005-.03c.003-.016.006-.029.008-.037a.36.36 0 0 1 .008-.034c.003-.012.006-.021.007-.023l1.914.577c.002-.004.007-.022.013-.044.002-.007.005-.02.009-.036.002-.008.004-.021.007-.037a.76.76 0 0 0 .012-.08.8.8 0 0 0 .005-.087l-.001-.075c-.002-.026-.009-.085-.014-.119-.009-.043-.038-.144-.059-.201-.035-.076-.143-.244-.22-.33a1.74 1.74 0 0 0-.55-.279 1.76 1.76 0 0 0-.519.056 1.81 1.81 0 0 0-.249.141c-.034.028-.092.08-.115.104-.048.052-.081.097-.097.12s-.031.049-.04.063-.016.028-.021.038c-.017.033-.029.06-.032.068a.32.32 0 0 0-.011.026c-.004.011-.008.02-.009.024s-.007.018-.009.023l-.025.072c-.007.023-.017.051-.024.072-.001.005-.004.015-.008.026-.001.005-.005.018-.01.035-.002.008-.007.027-.012.052-.002.012-.007.037-.011.067a1.16 1.16 0 0 0-.007.07.97.97 0 0 0 .001.143 1.89 1.89 0 0 0 .021.142c.014.053.058.178.091.247a1.78 1.78 0 0 0 .337.37c.147.08.463.16.623.16a1.81 1.81 0 0 0 .412-.123 1.96 1.96 0 0 0 .181-.13 1.81 1.81 0 0 0 .088-.089l.048-.06a.75.75 0 0 0 .049-.074c.011-.017.019-.032.025-.043.011-.02.02-.037.024-.047l.019-.041c.003-.008.006-.015.008-.02l.013-.033-1.876-.694zm1.924.552l.028-.083-1.894-.642-.028.083 1.894.642zm-.192-1.091c-.961-1.015-1.764-2.227-2.573-3.498l-1.687 1.074c.808 1.268 1.7 2.628 2.806 3.798l1.454-1.374zm-2.575-3.5l-2.319-3.621-1.684 1.079 2.319 3.62 1.684-1.078zm-2.335-3.646c-.792-1.16-1.12-2.111-1.14-2.777l-1.999.06c.036 1.199.584 2.522 1.487 3.845l1.652-1.128zm-1.14-2.773c-.008-.311.045-.549.13-.725l-1.799-.872c-.252.52-.345 1.088-.33 1.648l1.999-.051zm.133-.73c.096-.201.239-.37.446-.507l-1.102-1.669c-.512.338-.897.786-1.149 1.314l1.805.862zm.443-.505c.103-.068.221-.129.362-.181l-.697-1.875a3.82 3.82 0 0 0-.761.383l1.096 1.673zm1.01-1.195a54.78 54.78 0 0 1-.104-6.387l-1.998-.098c-.103 2.117-.046 4.637.108 6.639l1.994-.154zm-.109-6.334c.045-.431.129-.864.254-1.301l-1.923-.55a9.56 9.56 0 0 0-.32 1.647l1.989.204zm.254-1.302c.732-2.572 3.02-4.525 5.789-5.464l-.643-1.894c-3.183 1.08-6.106 3.422-7.07 6.811l1.924.547zm5.79-5.465c.506-.172.877-.421 1.163-.713.261-.266.437-.565.52-.692.103-.159.112-.141.078-.12-.05.029-.03-.015.207-.002l.113-1.996c-.493-.028-.95.042-1.352.284-.385.232-.602.557-.722.742-.141.217-.188.298-.274.386a.89.89 0 0 1-.378.218l.645 1.893zm1.971-1.526c1.577.085 3.659.639 5.615 1.471 1.971.84 3.658 1.897 4.537 2.894l1.5-1.323c-1.17-1.327-3.178-2.527-5.254-3.411-2.091-.891-4.409-1.526-6.29-1.629l-.108 1.998zm10.153 4.365c1.254 1.421 1.736 3.011 1.886 4.776.156 1.837-.048 3.681-.098 5.782l1.999.048c.045-1.874.26-4.023.092-6-.174-2.049-.759-4.093-2.38-5.929l-1.499 1.323zm2.499 11.539c.336.101.471.251.545.535l1.936-.501c-.264-1.019-.959-1.664-1.903-1.949l-.578 1.915zm.545.535c.094.366.023 1.107-.579 2.454l1.825.817c.633-1.413.966-2.703.69-3.772l-1.936.501zm-.593 2.486a.54.54 0 0 1 .028-.06c.017-.032.039-.065.064-.098l1.59 1.213c.089-.117.14-.226.171-.302l-1.853-.753zm.036-.077l-2.639 4.278 1.702 1.05 2.639-4.278-1.702-1.05zm-2.64 4.278c-1.027 1.668-1.993 3.198-3.256 4.359l1.354 1.472c1.499-1.378 2.6-3.149 3.605-4.782l-1.703-1.049zm-3.249 4.352l-.067.061 1.339 1.485.067-.06-1.339-1.486zm-.221 1.37l.433.616 1.635-1.151-.421-.598-1.647 1.133zm.429.611c.455.654 1 1.44 1.513 2.066l1.548-1.266c-.453-.554-.952-1.27-1.419-1.941l-1.642 1.141zm1.765 2.286c1.605.982 4.082 1.567 6.279 2.063l3.18.747c.97.259 1.728.518 2.232.795l.965-1.752c-.729-.401-1.685-.71-2.682-.976-1.008-.268-2.146-.515-3.255-.765-2.295-.518-4.41-1.044-5.675-1.818l-1.044 1.706zm11.69 3.605a7.34 7.34 0 0 1 1.371.962l1.336-1.489a9.4 9.4 0 0 0-1.74-1.224l-.967 1.751zm2.694.973l1.056-.931-1.344-1.482-1.022.902 1.31 1.511zm1.125-2.343l-.196-.219-.208-.233-1.483 1.341.196.22.208.233 1.483-1.342zm-.393-.44l-1.269-1.451-1.506 1.316 1.27 1.452 1.505-1.317zm-2.045-1.793l-.943.022.046 2 .944-.023-.047-1.999zm-.945.022l-1.796.044.049 2 1.797-.044-.05-2zm-1.023.381c-.556-.628-.894-1.736-1.039-3.115-.141-1.339-.084-2.749-.009-3.813l-1.996-.14c-.077 1.099-.143 2.648.016 4.162.155 1.475.542 3.116 1.53 4.232l1.498-1.326zm-1.059-6.835c.691-4.182 2.304-7.013 4.775-8.619l-1.09-1.677c-3.1 2.015-4.912 5.453-5.659 9.97l1.974.326zm4.774-8.619c.868-.563 1.509-.829 2.157-.969.676-.146 1.409-.167 2.521-.167v-2c-1.095 0-2.03.015-2.942.212-.94.202-1.806.585-2.825 1.247l1.089 1.677zm4.678-1.136c1.941 0 2.837-.026 4.207.861l1.087-1.679c-1.921-1.244-3.383-1.182-5.294-1.182v2zm4.207.861c2.413 1.563 4.045 4.226 4.757 7.202s.476 6.16-.72 8.678l1.806.858c1.421-2.99 1.661-6.648.859-10.002s-2.677-6.512-5.615-8.415l-1.087 1.679zm4.94 15.309h-1.87v2h1.87v-2zm-2.63.351l-.118.137 1.52 1.3.118-.138-1.52-1.299zm-.112.13l-.168.193 1.507 1.315.169-.194-1.508-1.314zm-.177.204l-.814.96 1.525 1.293.814-.96-1.525-1.293zm-.812.957c-.334.391-.633.746-.957 1.074l1.424 1.404c.385-.39.736-.808 1.053-1.178l-1.52-1.3zm-.937 2.498c.472.452 1.1.995 1.65 1.469l1.308-1.513c-.562-.485-1.147-.991-1.574-1.4l-1.384 1.444zm1.653 1.472l.73.63 1.325-1.498-.753-.65-1.302 1.518zm1.027.812c4.2 1.645 6.491 2.857 7.935 4.813 1.454 1.969 2.159 4.842 2.671 10.154l1.991-.192c-.511-5.302-1.237-8.691-3.053-11.15-1.825-2.472-4.641-3.853-8.814-5.487l-.73 1.862zm10.606 14.968c.05.514.076.808.072 1.004-.004.214-.046.052.122-.121.154-.16.298-.129.062-.104-.214.022-.509.024-1.022.034l.041 2c.441-.009.865-.011 1.187-.045.298-.031.794-.107 1.169-.494.388-.401.435-.911.441-1.232.007-.34-.036-.77-.082-1.236l-1.99.194zm-.765.813c-7.054.138-16.04 0-24.212-.033l-.008 2 24.259.033-.039-2zm-23.225 1.101l.034-.248-1.982-.269-.034.248 1.982.269zm.034-.25l1.915-14.267-1.982-.266-1.915 14.267 1.982.266zm1.914-14.265c.228-1.664-.99-3.156-2.63-3.156v2c.337 0 .725.33.649.885l1.981.271zm-15.122-2.015c.334-2.352.578-4.601.698-6.313l-1.995-.14c-.116 1.655-.354 3.855-.683 6.172l1.98.281zm.437-7.06c-.572-.622-1.206-1.531-1.788-2.379l-1.648 1.133c.563.82 1.277 1.853 1.963 2.6l1.473-1.354zm-1.796-2.391l-.184-.263-.188-.268-1.629 1.16.174.249.195.279 1.632-1.157zm-1.737-.786c-1.052.694-2.303 1.126-3.914 1.126v2c2.006 0 3.641-.549 5.015-1.456l-1.101-1.67zm-3.911 1.126c-1.765-.004-3.117-.59-4.265-1.504l-1.246 1.565c1.458 1.161 3.239 1.933 5.506 1.939l.005-2zm-5.835-1.043a29.13 29.13 0 0 1-.628 1.707c-.24.581-.465 1.031-.647 1.281l1.614 1.18c.334-.457.634-1.097.882-1.699.256-.621.489-1.282.673-1.826l-1.894-.643zm26.284 8.444c1.219 1.365 1.777 3.17 1.997 5.283.22 2.131.086 4.418.029 6.732l1.999.05c.055-2.212.199-4.691-.039-6.988-.24-2.315-.878-4.6-2.495-6.409l-1.491 1.332zm2.173 12.562l2.88 4.703 1.706-1.045-2.881-4.703-1.705 1.045zm4.586 4.703l7.019-11.447-1.705-1.046-7.019 11.448 1.705 1.045zm6.143-10.97l3.049.072.047-2-3.049-.072-.047 2zm3.965-1.379c-.744-1.474-1.627-2.785-2.606-4.005l-1.56 1.251a20.74 20.74 0 0 1 2.381 3.655l1.785-.901zm-2.677-4.085c-.287-.289-.826-.752-1.348-1.201l-1.304 1.517c.555.478 1.016.876 1.234 1.095l1.418-1.411zm-1.349-1.201a43.25 43.25 0 0 1-1.627-1.448l-1.384 1.443c.489.469 1.132 1.027 1.708 1.522l1.303-1.517zm-2.962-1.493c-.176.148-.337.273-.501.379l1.086 1.68a7.01 7.01 0 0 0 .7-.526l-1.285-1.533zm-.517.39c-.743.5-1.675.85-3.009.845l-.007 2c1.733.006 3.057-.462 4.134-1.186l-1.118-1.659zm-3.012.845c-1.232 0-2.122-.335-2.856-.814l-1.094 1.674c1.04.679 2.307 1.14 3.95 1.14v-2zm-2.855-.814c-.369-.242-.706-.527-1.026-.842l-1.402 1.426a8.68 8.68 0 0 0 1.332 1.089l1.096-1.673zm-2.4-.869l-1.009.893 1.319 1.504 1.036-.917-1.346-1.48zm-2.045 2.88h-13.482v2h13.482v-2z"
          mask="url(#B)"/>
    <path d="M285.251 185.703h-12.797v-1h12.797v1z" class="F"/>
  </g>
  <path d="M301.902 164.727c.283.716 1.166 2.306 2.432 2.94 1.582.791 2.883.452 4.353 1.865s2.713 3.844 2.317 4.805m-.488 13.597l-5.007 10.586-2.289-3.004"
        stroke-width="5" class="J N"/>
  <circle cx="278.852" cy="196.09" r="1.251" class="G H"/>
  <path d="M284.365 151.354c-1.91-1.725-5.519-2.413-7.084-2.542 0 .616-3.619 2.003-5.236 3.389-1.293 1.108-.539 2.566 0 3.157h5.236c3.311-.077 4.774 1.694 7.084 2.387 1.848.554 2.875-.231 3.157-.693-.256-1.181-1.247-3.974-3.157-5.698z"
        fill="#a3e2fe"/>
  <path d="M298.779 116.016h10" class="J M"/>
  <defs>
    <path id="D"
          d="M183.228 227.34v-4.195c-2.774 0-5.553-5.593-2.776-12.584s6.02-6.059 8.335-5.593c.926-2.796 4.114-3.52 8.33-1.398 5.558 2.796 4.168 6.525 2.78 8.389 2.314 4.195 1.715 11.186-1.393 11.186h-4.164v4.195"/>
  </defs>
</svg>
