<?xml version="1.0" encoding="utf-8"?>
<!-- Generator: Adobe Illustrator 26.5.2, SVG Export Plug-In . SVG Version: 6.00 Build 0)  -->
<svg version="1.1" id="Logos" xmlns="http://www.w3.org/2000/svg" xmlns:xlink="http://www.w3.org/1999/xlink" x="0px" y="0px"
	 viewBox="0 0 1290 340" style="enable-background:new 0 0 1290 340;" xml:space="preserve">
<style type="text/css">
	.st0{fill:#FFC000;}
	.st1{enable-background:new    ;}
	.st2{fill-rule:evenodd;clip-rule:evenodd;fill:#FFFFFF;}
	.st3{fill-rule:evenodd;clip-rule:evenodd;}
</style>
<polygon points="176.6,9.5 43.8,66.4 11.1,210.1 102.9,325.3 250.3,325.3 342.2,210.1 309.4,66.4 "/>
<polygon class="st0" points="176.6,34.2 60.7,81.8 32.1,203.3 112.3,300.6 241,300.6 321.2,203.3 292.6,81.8 "/>
<path d="M520.9,55.1v138c-0.1,3.2-2.7,5.8-5.9,5.7l-30.9-0.3c0-53.9,0-53.9,0-53.9c-0.1-3.2-2.7-5.8-5.9-5.7h-49.3
	c-3.2-0.1-5.8,2.5-5.9,5.7c0,0,0,0,0,0l-0.2,53.9c-29.4,0-30.7,0.3-30.7,0.3c-3.2,0.1-5.8-2.5-5.9-5.7c0,0,0,0,0,0v-138
	c0.1-3.2,2.7-5.8,5.9-5.7c0,0,0,0,0,0l30.7,0.2c0,52.1,0.2,53.2,0.2,53.2c0.1,3.2,2.7,5.8,5.9,5.7c0,0,0,0,0,0h49.3
	c3.2,0.1,5.8-2.5,5.9-5.7L484,49.5c34.4,0,31-0.1,31-0.1C518.2,49.4,520.9,51.9,520.9,55.1C520.9,55.1,520.9,55.1,520.9,55.1z"/>
<path d="M558.9,66.7H581c2.8-0.1,5.2,2.2,5.2,5V194c-0.1,2.8-2.4,5.1-5.2,5h-22.1c-2.8,0.1-5.2-2.2-5.2-5V71.8
	C553.7,68.9,556,66.7,558.9,66.7C558.9,66.7,558.9,66.7,558.9,66.7z"/>
<path d="M741.1,73.4l-44.4,123.8c-0.8,2.1-2.8,3.4-5,3.4H658c-2.2,0-4.2-1.3-5-3.4L608.5,73.4c-0.9-2.7,0.5-5.5,3.2-6.4
	c0.6-0.2,1.2-0.3,1.8-0.3h22.4c2.2,0,4.2,1.3,5,3.4l29.1,83.7c1,2.7,4.1,4.1,6.8,3.1c1.4-0.5,2.6-1.7,3.1-3.1l29-83.7
	c0.8-2.1,2.8-3.5,5-3.4h22.4c2.8,0,5.1,2.3,5.1,5.1C741.4,72.4,741.3,72.9,741.1,73.4z"/>
<path d="M855.1,178.9v15c-0.1,2.8-2.4,5.1-5.2,5h-81.1c-2.8,0.1-5.2-2.2-5.2-5V71.8c0.1-2.8,2.4-5.1,5.2-5h80.2
	c2.8-0.1,5.2,2.2,5.2,5v15c-0.1,2.8-2.4,5.1-5.2,5h-47.6c-2.8-0.1-5.2,2.2-5.2,5c0,0,0,0.1,0,23.2c0,0-0.7,0.1,48.8,0.1v24.7
	c-51.1,0-49,0.2-49,0.2c0,24.3,0.2,23.9,0.2,23.9c0.1,2.8,2.4,5.1,5.2,5h48.5C852.6,173.8,855,176,855.1,178.9
	C855.1,178.9,855.1,178.9,855.1,178.9z"/>
<path d="M1051.9,55.1v138c-0.1,3.2-2.7,5.8-5.9,5.7h-25c-3.2,0.1-5.8-2.5-5.9-5.7l-0.3-87.7c0-5.6-33.1,41.4-33.1,41.4
	c-1.1,1.6-2.9,2.5-4.9,2.5h-12.2c-1.9,0-3.8-0.9-4.9-2.5c0,0-32.8-47.3-32.8-41.7l0.2,88c-0.1,3.2-2.7,5.8-5.9,5.7h-25
	c-3.2,0.1-5.8-2.5-5.9-5.7v-138c0.1-3.2,2.7-5.8,5.9-5.7h33.5c2,0,3.8,0.9,5,2.6l31.5,45.6c1.9,2.7,5.6,3.4,8.4,1.5
	c0.6-0.4,1.1-0.9,1.5-1.5l31.6-45.6c1.1-1.6,3-2.5,4.9-2.5h33.4C1049.2,49.4,1051.8,51.9,1051.9,55.1z"/>
<path d="M1228,159.2c-3.5,8.6-8.9,16.3-15.6,22.6c-2.2,2.1-2.3,5.6-0.3,7.8c0,0,0,0,0,0l20.4,21.5c-37.3,0-39.3,0.3-39.3,0.3
	c-1.7,0-3.3-0.7-4.5-2l-6.7-7.6c-1.5-1.6-3.8-2.3-5.9-1.8c-6.9,1.5-13.9,2.2-21,2.1c-17.2,0-31.8-3.4-43.8-10.1
	c-11.6-6.3-21-16-27-27.8c-6-11.8-9-25.1-9-39.9c0-14.6,3-27.7,9-39.4c6.1-11.8,15.4-21.5,27-27.9c12-6.9,26.6-10.3,43.8-10.3
	c16.9,0,31.3,3.4,43.3,10.3c11.6,6.5,21,16.2,27.1,28c6.1,11.8,9.1,24.9,9.1,39.3C1234.8,136.3,1232.5,148.1,1228,159.2z
	 M1123.8,159.1c7.2,8.7,17.6,13.1,31.3,13.1h0.4l-9.5-10.7c-2.1-2.4-1.8-5.9,0.5-8c1.1-1,2.5-1.5,3.9-1.4h25.3c1.7,0,3.3,0.7,4.5,2
	l0,0c2.7,2.9,6.7,5.4,8.6,2.1c2-3.9,3.7-8,5.1-12.2c2.1-6.5,3.1-13.3,3.1-20.2c0.1-8.3-1.5-16.6-4.9-24.2
	c-3.1-6.9-8.1-12.7-14.4-16.8c-6.3-4.1-13.9-6.1-22.6-6.1c-13.5,0-23.9,4.4-31.2,13.2s-10.9,20.3-10.9,34.5
	C1113,138.8,1116.7,150.4,1123.8,159.1L1123.8,159.1z"/>
<g class="st1">
	<path d="M398.1,301.7h-9.6v-73.1h9.6V301.7z"/>
	<path d="M471.9,301.7h-9.7l-36.8-56.3v56.3h-9.7v-73.1h9.7l36.9,56.6v-56.6h9.6V301.7z"/>
	<path d="M489,301.7v-73.1h20.6c6.4,0,12,1.4,16.9,4.2c4.9,2.8,8.7,6.8,11.3,12c2.7,5.2,4,11.1,4,17.9v4.7c0,6.9-1.3,12.9-4,18.1
		c-2.7,5.2-6.5,9.2-11.4,12s-10.7,4.2-17.2,4.3H489z M498.6,236.4v57.3h10.1c7.4,0,13.2-2.3,17.3-6.9c4.1-4.6,6.2-11.2,6.2-19.8
		v-4.3c0-8.3-2-14.8-5.9-19.4c-3.9-4.6-9.4-6.9-16.6-7H498.6z"/>
	<path d="M607.9,228.6v49.7c0,6.9-2.2,12.5-6.5,16.9c-4.3,4.4-10.1,6.8-17.5,7.4l-2.6,0.1c-8,0-14.4-2.2-19.1-6.5
		c-4.8-4.3-7.2-10.3-7.2-17.8v-49.8h9.5v49.5c0,5.3,1.5,9.4,4.4,12.3c2.9,2.9,7.1,4.4,12.5,4.4c5.5,0,9.6-1.5,12.5-4.4
		c2.9-2.9,4.3-7,4.3-12.3v-49.6H607.9z"/>
	<path d="M644.7,269.1c-8.3-2.4-14.3-5.3-18.1-8.8c-3.8-3.5-5.6-7.7-5.6-12.8c0-5.8,2.3-10.5,6.9-14.3c4.6-3.8,10.6-5.6,18-5.6
		c5,0,9.5,1,13.4,2.9c3.9,1.9,7,4.6,9.1,8c2.2,3.4,3.2,7.1,3.2,11.2h-9.7c0-4.4-1.4-7.9-4.2-10.5c-2.8-2.5-6.8-3.8-11.9-3.8
		c-4.8,0-8.5,1-11.1,3.1c-2.7,2.1-4,5-4,8.7c0,3,1.3,5.5,3.8,7.6c2.5,2.1,6.8,3.9,12.9,5.7c6.1,1.7,10.8,3.6,14.3,5.7
		c3.4,2.1,6,4.5,7.6,7.2c1.7,2.7,2.5,6,2.5,9.7c0,5.9-2.3,10.7-6.9,14.2c-4.6,3.6-10.8,5.3-18.5,5.3c-5,0-9.7-1-14.1-2.9
		c-4.4-1.9-7.7-4.6-10.1-7.9c-2.4-3.3-3.5-7.1-3.5-11.4h9.7c0,4.4,1.6,7.9,4.9,10.5c3.3,2.6,7.6,3.8,13.1,3.8c5.1,0,9-1,11.7-3.1
		c2.7-2.1,4.1-4.9,4.1-8.5c0-3.6-1.3-6.4-3.8-8.3C655.8,272.9,651.3,271,644.7,269.1z"/>
	<path d="M734.6,236.4h-23.5v65.2h-9.6v-65.2h-23.4v-7.9h56.5V236.4z"/>
	<path d="M772.3,272.1h-17.2v29.6h-9.7v-73.1h24.2c8.2,0,14.6,1.9,19,5.6c4.4,3.7,6.7,9.2,6.7,16.4c0,4.6-1.2,8.5-3.7,11.9
		c-2.5,3.4-5.9,5.9-10.3,7.6l17.2,31v0.6h-10.3L772.3,272.1z M755.1,264.2h14.8c4.8,0,8.6-1.2,11.4-3.7c2.8-2.5,4.2-5.8,4.2-10
		c0-4.5-1.3-8-4-10.4c-2.7-2.4-6.6-3.6-11.7-3.7h-14.8V264.2z"/>
</g>
<g class="st1">
	<path d="M819.1,301.7h-9.6v-73.1h9.6V301.7z"/>
</g>
<g class="st1">
	<path d="M878,282.5h-30.6l-6.9,19.1h-9.9l27.9-73.1h8.4l28,73.1H885L878,282.5z M850.3,274.7h24.9l-12.5-34.2L850.3,274.7z"/>
	<path d="M914.5,293.8h34.6v7.9h-44.3v-73.1h9.7V293.8z"/>
	<path d="M1026.9,267.9h-31.7v25.9h36.8v7.9h-46.4v-73.1h45.9v7.9h-36.3V260h31.7V267.9z"/>
	<path d="M1044,301.7v-73.1h20.6c6.4,0,12,1.4,16.9,4.2c4.9,2.8,8.7,6.8,11.3,12c2.7,5.2,4,11.1,4,17.9v4.7c0,6.9-1.3,12.9-4,18.1
		c-2.7,5.2-6.5,9.2-11.4,12c-4.9,2.8-10.7,4.2-17.2,4.3H1044z M1053.6,236.4v57.3h10.1c7.4,0,13.2-2.3,17.3-6.9
		c4.1-4.6,6.2-11.2,6.2-19.8v-4.3c0-8.3-2-14.8-5.8-19.4c-3.9-4.6-9.4-6.9-16.6-7H1053.6z"/>
	<path d="M1165.4,292.1c-2.5,3.5-5.9,6.2-10.4,8s-9.6,2.6-15.5,2.6c-6,0-11.2-1.4-15.9-4.2c-4.6-2.8-8.2-6.8-10.7-11.9
		c-2.5-5.2-3.8-11.1-3.9-17.9v-6.4c0-11,2.6-19.5,7.7-25.6c5.1-6.1,12.4-9.1,21.7-9.1c7.6,0,13.8,2,18.4,5.8
		c4.7,3.9,7.5,9.4,8.5,16.6h-9.6c-1.8-9.7-7.6-14.6-17.3-14.6c-6.5,0-11.4,2.3-14.7,6.8c-3.3,4.5-5,11.1-5,19.7v6
		c0,8.2,1.9,14.7,5.6,19.6s8.8,7.3,15.2,7.3c3.6,0,6.8-0.4,9.5-1.2c2.7-0.8,5-2.2,6.7-4.1v-16.4h-16.9v-7.9h26.5V292.1z"/>
	<path d="M1222.8,267.9h-31.7v25.9h36.8v7.9h-46.4v-73.1h45.9v7.9h-36.3V260h31.7V267.9z"/>
</g>
<path class="st2" d="M154.1,129.3c-1.6-9.9,3.6-19.7,12.8-24C168.4,115.2,163.2,125,154.1,129.3z"/>
<path class="st2" d="M108.7,167.7c0.4-1.3,0-2.7-1-3.6c-8.2-7.7-26.2-26-15.9-31.2c11.4-5.8,42.8,2.5,77.4,20.8
	c-14.8,8.4-28.9,18-42.1,28.7C113.1,172.1,110.6,169.8,108.7,167.7z"/>
<path class="st2" d="M245.9,227.4c-3.9,5.9-15.4,3.3-33.8-2.3c-0.8-0.2-1.7-0.2-2.4,0.1c5.6-8.1,6.8-23.1,4.9-34c0-0.1,0-0.1,0-0.2
	c0,0,0-0.1,0-0.1c-0.6-4.3-1.5-7.7-2.6-9.2C236.3,201.4,249.9,220.6,245.9,227.4z"/>
<path class="st2" d="M226.5,182.6c-12.4-10.4-24.9-18.8-42.4-28.9c34.7-18.3,65.9-26.4,77.4-20.6c10.3,5.2-7.8,23.5-15.9,31.2
	c-1.4,1.4-1.1,2-1,3.6C242.7,170.1,240.6,172.3,226.5,182.6z"/>
<path class="st2" d="M141.4,181.5c-1.1,1.5-2,4.9-2.6,9.2c0,0,0,0.1,0,0.1c0,0.1,0,0.1,0,0.2c-2,10.9-0.7,25.9,4.9,34
	c-0.8-0.3-1.6-0.3-2.4-0.1c-18.4,5.6-29.8,8.2-33.8,2.3C103.4,220.3,117,201.1,141.4,181.5z"/>
<path d="M176.4,256.8c6.1-11,9.3-14.8,13.3-19H163C167.1,242.1,170.3,245.8,176.4,256.8z"/>
<path d="M145.8,213c1.4,4.9,3.8,9.5,6.9,13.5H200c3.2-4,5.5-8.6,7-13.5H145.8z"/>
<path d="M206.4,185.4c-9.7-7.1-19.7-13.6-30-19.6c-10.3,6-20.3,12.6-30,19.6c-1.8,5.2-2.6,10.7-2.4,16.2h64.8
	C209,196.2,208.2,190.7,206.4,185.4z"/>
<path class="st3" d="M245.6,164.3c-1.5,1.4-1.6,3.7-0.2,5.3l0.5,0.6c21.5-18.4,34.4-32.5,28-43.7c-7.1-9.9-37-5.2-73.6,11.3
	c1.8-3.7,2.8-7.8,2.8-11.9c0-10.3-5.9-19.7-15.2-24.1l0.1-0.3l0,0l2.8-6.1c0.2-1.1-0.5-2.1-1.5-2.4c-0.8-0.2-1.5,0.1-2,0.7l-3.1,6.6
	c-5.1-1.6-10.5-1.6-15.6,0l-3.1-6.6c-0.7-0.9-2-1-2.8-0.3c-0.6,0.5-0.8,1.2-0.7,1.9l2.7,5.9l0.2,0.5c-2.8,1.3-5.3,3.1-7.4,5.2
	c-8,8-10,20.2-5.2,30.4c-9.5-4.2-62.1-26-72.7-11.2c-9.6,13.5,19.9,37.2,27.8,43.9l0.5-0.6c1.4-1.5,1.3-3.8-0.2-5.3
	c-5.2-4.8-9.9-9.9-14.2-15.5c-5.6-7.8-5.8-12.3-3.1-14.8c8.4-7.9,39.5,2.6,49.1,6.2c10.1,3.9,20,8.4,29.5,13.5
	c-49.3,28.5-82.7,62.6-74.8,76.3c4.9,8.6,25.6,7.5,52-1.9l-1-1.6c-0.9-1.5-2.7-2.2-4.3-1.6c-18.4,5.6-29.8,8.2-33.8,2.3
	c-5.5-9.6,22.5-42.5,66-67.6l3.3-1.9c1.1,0.6,2.2,1.2,3.3,1.9c43.5,25.1,71.5,58.1,66,67.6c-3.9,5.9-15.4,3.3-33.8-2.3
	c-1.6-0.5-3.4,0.2-4.3,1.6l-1,1.6c26.5,9.3,47.1,10.5,52,1.9c7.9-13.7-25.6-47.8-74.8-76.4c34.7-18.3,65.9-26.4,77.4-20.6
	C271.8,138.3,253.8,156.6,245.6,164.3z M154.1,129.3c-1.6-9.9,3.6-19.7,12.8-24C168.4,115.2,163.2,125,154.1,129.3L154.1,129.3z
	 M198.4,129.3c-9.1-4.3-14.3-14.1-12.8-24C194.8,109.6,200,119.3,198.4,129.3z"/>
<path class="st2" d="M198.4,129.3c-9.1-4.3-14.3-14.1-12.8-24C194.8,109.6,200,119.3,198.4,129.3z"/>
</svg>
