<?xml version="1.0" encoding="utf-8"?>
<!-- Generator: Adobe Illustrator 26.5.2, SVG Export Plug-In . SVG Version: 6.00 Build 0)  -->
<svg version="1.1" id="Logos" xmlns="http://www.w3.org/2000/svg" xmlns:xlink="http://www.w3.org/1999/xlink" x="0px" y="0px"
	 viewBox="0 0 1290 340" style="enable-background:new 0 0 1290 340;" xml:space="preserve">
<style type="text/css">
	.st0{fill:#FFFFFF;}
	.st1{fill:#FFC000;}
	.st2{fill-rule:evenodd;clip-rule:evenodd;fill:#FFFFFF;}
	.st3{fill-rule:evenodd;clip-rule:evenodd;}
	.st4{enable-background:new    ;}
</style>
<path class="st0" d="M529.4,49.7v138c-0.1,3.2-2.7,5.8-5.9,5.7l-30.9-0.3c0-53.9,0-53.9,0-53.9c-0.1-3.2-2.7-5.8-5.9-5.7h-49.3
	c-3.2-0.1-5.8,2.5-5.9,5.7c0,0,0,0,0,0l-0.2,53.9c-29.4,0-30.7,0.3-30.7,0.3c-3.2,0.1-5.8-2.5-5.9-5.7c0,0,0,0,0,0v-138
	c0.1-3.2,2.7-5.8,5.9-5.7c0,0,0,0,0,0l30.7,0.2c0,52.1,0.2,53.2,0.2,53.2c0.1,3.2,2.7,5.8,5.9,5.7c0,0,0,0,0,0h49.3
	c3.2,0.1,5.8-2.5,5.9-5.7l-0.1-53.3c34.4,0,31-0.1,31-0.1C526.7,44,529.3,46.5,529.4,49.7z"/>
<path class="st0" d="M567.3,61.3h22.1c2.8-0.1,5.2,2.2,5.2,5v122.2c-0.1,2.8-2.4,5.1-5.2,5h-22.1c-2.8,0.1-5.2-2.2-5.2-5V66.3
	C562.2,63.5,564.5,61.2,567.3,61.3z"/>
<path class="st0" d="M749.6,68l-44.4,123.7c-0.8,2.1-2.7,3.4-5,3.4h-33.8c-2.2,0-4.2-1.3-5-3.4L617,68c-0.9-2.7,0.5-5.5,3.2-6.4
	c0.6-0.2,1.2-0.3,1.7-0.3h22.4c2.2,0,4.2,1.3,5,3.4l29.1,83.7c1,2.7,4.1,4.1,6.8,3.1c1.4-0.5,2.6-1.7,3.1-3.1l29-83.7
	c0.8-2.1,2.8-3.5,5-3.5h22.4c2.8,0,5.1,2.2,5.2,5C749.9,66.9,749.8,67.5,749.6,68z"/>
<path class="st0" d="M863.5,173.5v15c-0.1,2.8-2.4,5.1-5.2,5h-81.1c-2.8,0.1-5.2-2.2-5.2-5V66.3c0.1-2.8,2.4-5.1,5.2-5h80.2
	c2.8-0.1,5.2,2.2,5.2,5v15c-0.1,2.8-2.4,5.1-5.2,5h-47.6c-2.8-0.1-5.2,2.2-5.2,5c0,0-0.1-0.1-0.1,23.1c0,0-0.7,0.1,48.8,0.1v24.7
	c-51.1,0-49,0.2-49,0.2c0,24.3,0.2,23.9,0.2,23.9c0.1,2.8,2.4,5.1,5.2,5h48.5c2.8-0.1,5.2,2.1,5.3,5
	C863.6,173.3,863.6,173.4,863.5,173.5z"/>
<path class="st0" d="M1060.4,49.7v138c-0.1,3.2-2.7,5.8-5.9,5.7h-25c-3.2,0.1-5.8-2.5-5.9-5.7c0,0,0,0,0,0l-0.3-87.7
	c0-5.6-33.1,41.4-33.1,41.4c-1.1,1.5-2.9,2.5-4.9,2.4h-12.1c-1.9,0-3.7-0.9-4.9-2.5c0,0-32.8-47.3-32.8-41.7l0.2,88
	c-0.1,3.2-2.7,5.8-5.9,5.7h-25c-3.2,0.1-5.8-2.5-5.9-5.7v-138c0.1-3.2,2.7-5.8,5.9-5.7h33.5c2,0,3.8,0.9,4.9,2.5l31.6,45.5
	c1.9,2.7,5.6,3.4,8.4,1.5c0.6-0.4,1.1-0.9,1.5-1.5l31.6-45.5c1.1-1.6,3-2.5,4.9-2.5h33.5C1057.7,43.9,1060.3,46.5,1060.4,49.7z"/>
<path class="st0" d="M1236.5,153.8c-3.5,8.6-8.9,16.3-15.6,22.6c-2.2,2.1-2.3,5.6-0.3,7.8c0,0,0,0,0,0l20.4,21.5
	c-37.3,0-39.3,0.3-39.3,0.3c-1.7,0-3.3-0.7-4.5-2l-6.7-7.6c-1.5-1.6-3.8-2.3-5.9-1.8c-6.9,1.4-13.9,2.2-21,2.1
	c-17.2,0-31.8-3.4-43.8-10.1c-11.6-6.3-21-16-27-27.8c-6-11.7-9-25-9-39.9c0-14.6,3-27.7,9-39.4c6.1-11.8,15.4-21.5,27-27.9
	c12-6.9,26.6-10.3,43.8-10.3c16.9,0,31.3,3.5,43.3,10.3c11.6,6.5,21,16.2,27.1,28c6.1,11.8,9.1,24.9,9.1,39.3
	C1243.3,130.8,1241.1,142.7,1236.5,153.8z M1132.4,153.7c7.2,8.7,17.6,13.1,31.3,13.1h0.4l-9.6-10.7c-2.1-2.4-1.8-5.9,0.5-8
	c1.1-1,2.5-1.5,3.9-1.4h25.3c1.7,0,3.3,0.7,4.5,2l0,0c2.7,2.9,6.7,5.4,8.7,2.1c2-3.9,3.7-8,5.1-12.2c2.1-6.5,3.1-13.3,3.1-20.2
	c0.1-8.3-1.5-16.6-4.9-24.2c-3.1-6.9-8.1-12.7-14.4-16.8c-6.3-4.1-13.9-6.1-22.6-6.1c-13.5,0-23.9,4.4-31.2,13.2
	c-7.3,8.8-10.9,20.3-10.9,34.5C1121.5,133.3,1125.2,144.9,1132.4,153.7L1132.4,153.7z"/>
<polygon class="st1" points="176.5,42.5 66.5,87.7 39.4,202.9 115.5,295.3 237.5,295.3 313.6,202.9 286.5,87.7 "/>
<path class="st0" d="M315.4,63L176.5,3.5L37.6,63L3.3,213.3l96.1,120.5h154.1l96.1-120.5L315.4,63z M243.8,308H109.2L25.3,206.1
	l29.9-127l121.2-49.8l121.2,49.9l29.9,127L243.8,308z"/>
<path class="st2" d="M154,130.5c-1.6-9.9,3.6-19.7,12.8-24C168.3,116.4,163.1,126.2,154,130.5z"/>
<path class="st2" d="M108.6,168.9c0.4-1.3,0-2.7-1-3.6c-8.2-7.7-26.2-25.9-15.9-31.2c11.4-5.8,42.8,2.5,77.4,20.8
	c-14.8,8.4-28.9,18-42.1,28.7C112.9,173.4,110.4,171.1,108.6,168.9z"/>
<path class="st2" d="M245.7,228.7c-3.9,5.9-15.4,3.3-33.8-2.3c-0.8-0.3-1.7-0.2-2.4,0.1c5.6-8.1,6.8-23.1,4.9-34c0-0.1,0-0.1,0-0.2
	c0,0,0-0.1,0-0.1c-0.6-4.3-1.5-7.7-2.6-9.2C236.1,202.6,249.7,221.8,245.7,228.7z"/>
<path class="st2" d="M226.4,183.8c-12.4-10.4-24.9-18.8-42.4-28.9c34.7-18.3,65.9-26.4,77.4-20.6c10.3,5.2-7.8,23.5-15.9,31.2
	c-1.4,1.4-1.1,2-1,3.6C242.6,171.3,240.4,173.6,226.4,183.8z"/>
<path class="st2" d="M141.2,182.7c-1.1,1.5-2,4.9-2.6,9.2c0,0,0,0.1,0,0.1c0,0.1,0,0.1,0,0.2c-2,10.9-0.7,25.9,4.9,34
	c-0.8-0.3-1.6-0.3-2.4-0.1c-18.4,5.6-29.8,8.2-33.8,2.3C103.2,221.5,116.8,202.4,141.2,182.7z"/>
<path d="M176.2,258.1c6.1-11,9.3-14.8,13.3-19h-26.7C167,243.3,170.1,247.1,176.2,258.1z"/>
<path d="M145.6,214.2c1.5,4.9,3.8,9.5,7,13.5h47.3c3.2-4,5.5-8.6,6.9-13.5H145.6z"/>
<path d="M206.3,186.7c-9.7-7-19.7-13.6-30-19.6c-10.3,6-20.3,12.6-30,19.6c-1.8,5.2-2.6,10.7-2.4,16.2h64.9
	C208.9,197.4,208.1,191.9,206.3,186.7z"/>
<path class="st3" d="M245.4,165.5c-1.5,1.4-1.6,3.7-0.2,5.3l0.5,0.6c21.5-18.3,34.4-32.5,28-43.7c-7.1-9.9-37-5.2-73.6,11.3
	c1.8-3.7,2.8-7.8,2.8-11.9c0-7.1-2.8-13.8-7.8-18.8c-2.1-2.2-4.7-3.9-7.4-5.2l0.1-0.3l0,0l2.8-6.1c0.2-1.1-0.5-2.1-1.5-2.4
	c-0.8-0.2-1.5,0.1-2,0.7l-3.1,6.6c-5.1-1.6-10.5-1.6-15.6,0l-3.1-6.6c-0.2-1.1-1.3-1.8-2.4-1.5s-1.8,1.3-1.5,2.4
	c0.1,0.3,0.2,0.6,0.4,0.8l2.7,5.9l0.2,0.5c-9.5,4.5-15.4,14.1-15.2,24.6c0.1,3.8,0.9,7.6,2.6,11.1c-9.5-4.2-62.1-26-72.7-11.2
	c-9.6,13.5,19.9,37.2,27.8,43.9l0.5-0.6c1.4-1.5,1.3-3.8-0.2-5.3c-5.2-4.7-9.9-9.9-14.2-15.5c-5.6-7.7-5.7-12.2-3-14.8
	c8.4-7.9,39.5,2.6,49.1,6.2c10.1,3.9,20,8.4,29.5,13.5c-49.3,28.6-82.7,62.7-74.8,76.4c5,8.6,25.6,7.5,52-1.9l-1-1.6
	c-0.9-1.5-2.7-2.2-4.3-1.6c-18.4,5.6-29.8,8.2-33.8,2.3c-5.5-9.6,22.5-42.5,66-67.6l3.3-1.9c1.1,0.6,2.2,1.2,3.3,1.9
	c43.5,25.1,71.5,58,66,67.6c-3.9,5.9-15.4,3.3-33.8-2.3c-1.6-0.5-3.4,0.2-4.3,1.6l-1,1.6c26.5,9.3,47.1,10.4,52,1.9
	c7.9-13.7-25.6-47.8-74.8-76.4c34.7-18.3,65.9-26.4,77.4-20.6C271.7,139.6,253.6,157.8,245.4,165.5z M154,130.5
	c-1.6-9.9,3.6-19.7,12.8-24C168.3,116.4,163.1,126.2,154,130.5z M198.3,130.5c-9.1-4.3-14.3-14.1-12.8-24
	C194.7,110.8,199.9,120.6,198.3,130.5L198.3,130.5z"/>
<path class="st2" d="M198.3,130.5c-9.1-4.3-14.3-14.1-12.8-24C194.6,110.8,199.8,120.6,198.3,130.5z"/>
<g class="st4">
	<path class="st0" d="M406.6,296.2h-9.6v-73.1h9.6V296.2z"/>
	<path class="st0" d="M480.4,296.2h-9.7l-36.8-56.3v56.3h-9.7v-73.1h9.7l36.9,56.6v-56.6h9.6V296.2z"/>
	<path class="st0" d="M497.5,296.2v-73.1h20.6c6.4,0,12,1.4,16.9,4.2c4.9,2.8,8.7,6.8,11.3,12c2.7,5.2,4,11.1,4,17.9v4.7
		c0,6.9-1.3,12.9-4,18.1c-2.7,5.2-6.5,9.2-11.4,12c-4.9,2.8-10.7,4.2-17.2,4.3H497.5z M507.1,231v57.3h10.1c7.4,0,13.2-2.3,17.3-6.9
		c4.1-4.6,6.2-11.2,6.2-19.8v-4.3c0-8.3-2-14.8-5.9-19.4c-3.9-4.6-9.4-6.9-16.6-7H507.1z"/>
	<path class="st0" d="M616.4,223.1v49.7c0,6.9-2.2,12.5-6.5,16.9c-4.3,4.4-10.1,6.8-17.5,7.4l-2.6,0.1c-8,0-14.4-2.2-19.1-6.5
		c-4.8-4.3-7.2-10.3-7.2-17.8v-49.8h9.5v49.5c0,5.3,1.5,9.4,4.4,12.3c2.9,2.9,7.1,4.4,12.5,4.4c5.5,0,9.6-1.5,12.5-4.4
		c2.9-2.9,4.3-7,4.3-12.3v-49.6H616.4z"/>
	<path class="st0" d="M653.2,263.7c-8.3-2.4-14.3-5.3-18.1-8.8c-3.8-3.5-5.6-7.7-5.6-12.8c0-5.8,2.3-10.5,6.9-14.3
		c4.6-3.8,10.6-5.6,18-5.6c5,0,9.5,1,13.4,2.9c3.9,1.9,7,4.6,9.1,8c2.2,3.4,3.2,7.1,3.2,11.2h-9.7c0-4.4-1.4-7.9-4.2-10.5
		s-6.8-3.8-11.9-3.8c-4.8,0-8.5,1-11.1,3.1c-2.7,2.1-4,5-4,8.7c0,3,1.3,5.5,3.8,7.6c2.5,2.1,6.8,3.9,12.9,5.7
		c6.1,1.7,10.8,3.6,14.3,5.7c3.4,2.1,6,4.5,7.6,7.2c1.7,2.7,2.5,6,2.5,9.7c0,5.9-2.3,10.7-6.9,14.2c-4.6,3.6-10.8,5.3-18.5,5.3
		c-5,0-9.7-1-14.1-2.9c-4.4-1.9-7.7-4.6-10.1-7.9c-2.4-3.3-3.5-7.1-3.5-11.4h9.7c0,4.4,1.6,7.9,4.9,10.5c3.3,2.6,7.6,3.8,13.1,3.8
		c5.1,0,9-1,11.7-3.1c2.7-2.1,4.1-4.9,4.1-8.5c0-3.6-1.3-6.4-3.8-8.3C664.3,267.5,659.7,265.6,653.2,263.7z"/>
	<path class="st0" d="M743.1,231h-23.5v65.2H710V231h-23.4v-7.9h56.5V231z"/>
	<path class="st0" d="M780.8,266.7h-17.2v29.6h-9.7v-73.1h24.2c8.2,0,14.6,1.9,19,5.6s6.7,9.2,6.7,16.4c0,4.6-1.2,8.5-3.7,11.9
		c-2.5,3.4-5.9,5.9-10.3,7.6l17.2,31v0.6h-10.3L780.8,266.7z M763.6,258.8h14.8c4.8,0,8.6-1.2,11.4-3.7c2.8-2.5,4.2-5.8,4.2-10
		c0-4.5-1.3-8-4-10.4c-2.7-2.4-6.6-3.6-11.7-3.7h-14.8V258.8z"/>
</g>
<g class="st4">
	<path class="st0" d="M827.6,296.2H818v-73.1h9.6V296.2z"/>
</g>
<g class="st4">
	<path class="st0" d="M886.5,277.1h-30.6l-6.9,19.1h-9.9l27.9-73.1h8.4l28,73.1h-9.9L886.5,277.1z M858.8,269.2h24.9L871.2,235
		L858.8,269.2z"/>
	<path class="st0" d="M922.9,288.4h34.6v7.9h-44.3v-73.1h9.7V288.4z"/>
	<path class="st0" d="M1035.4,262.4h-31.7v25.9h36.8v7.9H994v-73.1h45.9v7.9h-36.3v23.5h31.7V262.4z"/>
	<path class="st0" d="M1052.5,296.2v-73.1h20.6c6.4,0,12,1.4,16.9,4.2c4.9,2.8,8.7,6.8,11.3,12c2.7,5.2,4,11.1,4,17.9v4.7
		c0,6.9-1.3,12.9-4,18.1c-2.7,5.2-6.5,9.2-11.4,12s-10.7,4.2-17.2,4.3H1052.5z M1062.1,231v57.3h10.1c7.4,0,13.2-2.3,17.3-6.9
		c4.1-4.6,6.2-11.2,6.2-19.8v-4.3c0-8.3-2-14.8-5.9-19.4c-3.9-4.6-9.4-6.9-16.6-7H1062.1z"/>
	<path class="st0" d="M1173.9,286.6c-2.5,3.5-5.9,6.2-10.4,8s-9.6,2.6-15.5,2.6c-6,0-11.2-1.4-15.9-4.2c-4.6-2.8-8.2-6.8-10.7-11.9
		c-2.5-5.2-3.8-11.1-3.9-17.9v-6.4c0-11,2.6-19.5,7.7-25.6c5.1-6.1,12.4-9.1,21.7-9.1c7.6,0,13.8,2,18.4,5.8
		c4.7,3.9,7.5,9.4,8.5,16.6h-9.6c-1.8-9.7-7.6-14.6-17.3-14.6c-6.5,0-11.4,2.3-14.7,6.8c-3.3,4.5-5,11.1-5,19.7v6
		c0,8.2,1.9,14.7,5.6,19.6s8.8,7.3,15.2,7.3c3.6,0,6.8-0.4,9.5-1.2c2.7-0.8,5-2.2,6.7-4.1v-16.4h-16.9v-7.9h26.5V286.6z"/>
	<path class="st0" d="M1231.3,262.4h-31.7v25.9h36.8v7.9H1190v-73.1h45.9v7.9h-36.3v23.5h31.7V262.4z"/>
</g>
</svg>
