<?xml version="1.0" encoding="UTF-8"?>
<svg id="Logos" xmlns="http://www.w3.org/2000/svg" viewBox="0 0 725 725">
  <defs>
    <style>.cls-1{fill:#ffc000;}.cls-2{fill:#fff;}.cls-2,.cls-3{fill-rule:evenodd;}</style>
  </defs>
  <polygon points="362.5 33 85.46 151.81 17.03 451.59 208.75 692 516.25 692 707.97 451.59 639.54 151.81 362.5 33"/>
  <polygon class="cls-1"
           points="362.5 84.52 120.65 184 60.91 437.33 228.28 640.48 496.72 640.48 664.09 437.33 604.35 184 362.5 84.52"/>
  <path class="cls-2" d="m315.5,282.94c-3.32-20.67,7.61-41.34,26.62-50.14,3.32,20.67-7.66,41.29-26.62,50.14Z"/>
  <path class="cls-2"
        d="m220.8,363.15s1.63-3.96-2.19-7.57c-17.04-16.09-54.69-54.14-33.21-65.07,23.9-12.16,89.24,5.22,161.57,43.37-36.49,21.14-61.55,38.58-87.91,59.88-29.23-21.4-34.45-26.18-38.26-30.62Z"/>
  <path class="cls-2"
        d="m506.89,487.76c-8.25,12.33-32.11,6.8-70.42-4.81-1.74-.51-3.49-.47-5.06.17,11.69-16.97,14.25-48.23,10.16-71.02-.04-.08-.04-.21-.04-.34-.04-.09-.04-.13-.04-.17-1.23-8.93-3.19-15.99-5.44-19.14,50.9,40.95,79.27,80.93,70.85,95.3Z"/>
  <path class="cls-2"
        d="m466.61,394.22c-25.77-21.65-51.98-39.17-88.47-60.3,72.34-38.15,137.53-55.11,161.43-42.95,21.48,10.93-16.2,48.95-33.21,65.07-3.02,2.85-2.29,4.16-2.19,7.57-3.81,4.44-8.33,9.21-37.56,30.62Z"/>
  <path class="cls-2"
        d="m288.97,391.93c-2.25,3.15-4.21,10.21-5.44,19.14,0,.04,0,.09-.04.17,0,.13,0,.26-.04.34-4.08,22.79-1.53,54.05,10.16,71.02-1.57-.64-3.32-.68-5.06-.17-38.32,11.61-62.17,17.14-70.42,4.81-8.42-14.37,19.95-54.35,70.85-95.3Z"/>
  <path d="m361.94,549.07c12.72-22.92,19.35-30.79,27.81-39.68h-55.63c8.51,8.89,15.1,16.76,27.81,39.68Z"/>
  <path d="m298.11,457.64c3.06,10.21,7.91,19.82,14.5,28.15h98.66c6.63-8.33,11.44-17.95,14.5-28.15h-127.67Z"/>
  <path d="m424.63,400.14c-18.88-13.82-39.98-27.68-62.68-40.95-22.71,13.27-43.8,27.13-62.64,40.95-3.74,10.8-5.4,22.41-5.02,33.89h135.32c.38-11.48-1.28-23.09-4.98-33.89Z"/>
  <path class="cls-3"
        d="m506.36,356c-3.1,2.93-3.27,7.82-.38,10.97l1.06,1.19c44.82-38.27,71.79-67.87,58.35-91.22-14.8-20.62-77.14-10.84-153.61,23.56,3.87-7.78,5.78-16.33,5.78-24.84,0-3.15-.26-6.29-.81-9.4-1.83-10.97-6.97-21.52-15.44-29.94-4.59-4.63-9.87-8.25-15.48-10.89l.26-.59h.04l5.87-12.76c.94-2.04.04-4.47-2-5.4-2.04-.94-4.47-.04-5.4,2l-6.38,13.82c-10.59-3.23-21.99-3.23-32.58,0l-6.38-13.82c-.94-2.04-3.36-2.93-5.4-2-2.04.94-2.93,3.36-2,5.4l5.7,12.33.47.98c-5.61,2.68-10.84,6.29-15.48,10.93-11.1,11.1-16.5,25.77-16.2,40.4.13,7.91,1.91,15.78,5.4,23.09-19.77-8.85-129.54-54.31-151.65-23.3-20.03,28.19,41.51,77.57,57.96,91.65l1.06-1.19c2.89-3.15,2.72-8.04-.34-10.97-8.08-7.61-20.75-20.16-29.6-32.41-11.61-16.07-11.91-25.56-6.29-30.83,17.48-16.42,82.33,5.32,102.45,12.97,19.31,7.4,40.15,16.84,61.62,28.15-102.79,59.58-172.62,130.77-156.12,159.31,10.33,17.9,53.33,15.56,108.57-3.91l-2-3.27c-1.87-3.1-5.49-4.51-8.97-3.44-38.32,11.61-62.17,17.14-70.42,4.81-11.53-19.94,46.91-88.67,137.7-141.06l6.8-3.91c2.3,1.28,4.59,2.59,6.85,3.91,90.8,52.39,149.23,121.12,137.7,141.06-8.25,12.33-32.11,6.8-70.42-4.81-3.49-1.06-7.1.34-8.97,3.44l-2,3.27c55.24,19.48,98.24,21.82,108.57,3.91,16.46-28.54-53.33-99.73-156.12-159.31,72.34-38.15,137.53-55.11,161.43-42.95,21.48,10.93-16.2,48.95-33.21,65.07Zm-190.86-73.06c-3.32-20.67,7.61-41.34,26.62-50.14,3.32,20.67-7.66,41.29-26.62,50.14Zm92.5.04c-19.01-8.85-29.94-29.47-26.62-50.14,18.97,8.8,29.94,29.47,26.62,50.14Z"/>
  <path class="cls-2" d="m408,282.98c-19.01-8.85-29.94-29.47-26.62-50.14,18.97,8.8,29.94,29.47,26.62,50.14Z"/>
</svg>
