<svg id="Logos" xmlns="http://www.w3.org/2000/svg" viewBox="0 0 725 725"><polygon points="362.5 33 85.46 151.81 17.04 451.59 208.75 692 516.25 692 707.97 451.59 639.54 151.81 362.5 33"/><polygon points="362.5 84.52 120.65 184 60.91 437.33 228.28 640.48 496.72 640.48 664.09 437.33 604.35 184 362.5 84.52" style="fill:#ffc000"/><path d="M315.5,282.94a47.24,47.24,0,0,1,26.63-50.14A47.33,47.33,0,0,1,315.5,282.94Z" style="fill:#fff;fill-rule:evenodd"/><path d="M220.8,363.15s1.63-4-2.19-7.57c-17-16.09-54.69-54.14-33.21-65.07,23.9-12.16,89.23,5.23,161.57,43.37-36.49,21.14-61.54,38.59-87.91,59.89C229.83,372.36,224.61,367.59,220.8,363.15Z" style="fill:#fff;fill-rule:evenodd"/><path d="M506.89,487.76c-8.25,12.34-32.1,6.81-70.42-4.8a7.61,7.61,0,0,0-5.06.17c11.69-17,14.25-48.23,10.16-71a.88.88,0,0,1,0-.34.35.35,0,0,1,0-.17c-1.23-8.93-3.19-16-5.45-19.14C487,433.41,515.31,473.39,506.89,487.76Z" style="fill:#fff;fill-rule:evenodd"/><path d="M466.61,394.22c-25.77-21.64-52-39.16-88.46-60.3,72.33-38.14,137.53-55.11,161.43-42.95,21.47,10.93-16.21,48.95-33.22,65.07-3,2.85-2.28,4.15-2.19,7.57C500.37,368,495.85,372.82,466.61,394.22Z" style="fill:#fff;fill-rule:evenodd"/><path d="M289,391.93c-2.26,3.15-4.21,10.21-5.45,19.14a.35.35,0,0,1,0,.17.91.91,0,0,1,0,.34c-4.08,22.79-1.53,54.05,10.16,71a7.61,7.61,0,0,0-5.06-.17c-38.32,11.61-62.17,17.13-70.42,4.8C209.7,472.86,238.06,432.88,289,391.93Z" style="fill:#fff;fill-rule:evenodd"/><path d="M361.94,549.07c12.72-22.92,19.35-30.79,27.82-39.68H334.13C342.64,518.28,349.23,526.15,361.94,549.07Z"/><path d="M298.11,457.64a84.52,84.52,0,0,0,14.5,28.15h98.66a83.81,83.81,0,0,0,14.51-28.15Z"/><path d="M424.63,400.14a731.36,731.36,0,0,0-62.69-40.95,724,724,0,0,0-62.64,40.95,94.49,94.49,0,0,0-5,33.89H429.6A95.12,95.12,0,0,0,424.63,400.14Z"/><path d="M506.36,356a7.82,7.82,0,0,0-.38,11l1.06,1.19c44.83-38.27,71.79-67.87,58.35-91.22-14.8-20.63-77.14-10.84-153.61,23.56a55.85,55.85,0,0,0,5.79-24.84,53.8,53.8,0,0,0-.81-9.39,54.78,54.78,0,0,0-15.44-29.94,54,54,0,0,0-15.48-10.89l.26-.59h0L392,212.09a4.07,4.07,0,0,0-7.4-3.41l-6.38,13.83a55.82,55.82,0,0,0-32.58,0l-6.37-13.83a4.07,4.07,0,0,0-7.4,3.41l5.69,12.33.47,1a56,56,0,0,0-26.28,74.42C292,291,182.22,245.51,160.11,276.52c-20,28.19,41.51,77.56,58,91.64l1.07-1.19a7.86,7.86,0,0,0-.34-11c-8.08-7.62-20.76-20.16-29.6-32.41-11.61-16.07-11.91-25.56-6.3-30.83,17.48-16.42,82.34,5.32,102.45,13A574.94,574.94,0,0,1,347,333.88C244.19,393.46,174.36,464.65,190.86,493.19c10.33,17.9,53.33,15.56,108.57-3.91l-2-3.28a7.72,7.72,0,0,0-9-3.44c-38.32,11.61-62.18,17.14-70.43,4.8-11.52-19.94,46.91-88.67,137.7-141.06l6.81-3.91c2.29,1.27,4.59,2.59,6.84,3.91,90.8,52.39,149.23,121.12,137.71,141.06-8.25,12.34-32.11,6.81-70.43-4.8a7.72,7.72,0,0,0-9,3.44l-2,3.28c55.24,19.47,98.24,21.81,108.57,3.91,16.46-28.54-53.33-99.73-156.11-159.31,72.33-38.14,137.53-55.11,161.43-42.95C561.05,301.86,523.37,339.88,506.36,356ZM315.5,282.94a47.24,47.24,0,0,1,26.63-50.14A47.33,47.33,0,0,1,315.5,282.94Zm92.5,0a47.26,47.26,0,0,1-26.62-50.14A47.29,47.29,0,0,1,408,283Z" style="fill-rule:evenodd"/><path d="M408,283a47.26,47.26,0,0,1-26.62-50.14A47.29,47.29,0,0,1,408,283Z" style="fill:#fff;fill-rule:evenodd"/></svg>
