<svg id="Logos" xmlns="http://www.w3.org/2000/svg" viewBox="0 0 725 725"><polygon points="362.5 102.28 140.02 193.8 85.07 426.84 239.03 613.72 485.97 613.72 639.93 426.84 584.98 193.8 362.5 102.28" style="fill:#ffc000"/><path d="M643.46,143.83,362.5,23.34l-281,120.49-69.39,304L206.58,691.66H518.42L712.85,447.85ZM498.62,639.41H226.38l-169.73-206,60.57-256.91L362.5,75.59,607.78,176.48l60.57,256.91Z" style="fill:#fff"/><path d="M316.93,280.34a45.8,45.8,0,0,1,25.81-48.62A45.87,45.87,0,0,1,316.93,280.34Z" style="fill:#fff;fill-rule:evenodd"/><path d="M225.09,358.13a6.82,6.82,0,0,0-2.12-7.34c-16.53-15.6-53-52.5-32.21-63.1,23.17-11.79,86.53,5.07,156.68,42.06-35.38,20.5-59.68,37.41-85.25,58.07C233.84,367.07,228.78,362.43,225.09,358.13Z" style="fill:#fff;fill-rule:evenodd"/><path d="M502.53,479c-8,12-31.14,6.6-68.3-4.66a7.42,7.42,0,0,0-4.91.17c11.35-16.46,13.82-46.77,9.86-68.87a.83.83,0,0,1,0-.33.33.33,0,0,1,0-.17c-1.2-8.66-3.09-15.5-5.28-18.56C483.18,426.27,510.69,465,502.53,479Z" style="fill:#fff;fill-rule:evenodd"/><path d="M463.46,388.26c-25-21-50.4-38-85.79-58.47,70.15-37,133.37-53.45,156.55-41.66,20.83,10.6-15.71,47.47-32.21,63.1-2.93,2.77-2.22,4-2.12,7.34C496.19,362.88,491.81,367.51,463.46,388.26Z" style="fill:#fff;fill-rule:evenodd"/><path d="M291.19,386c-2.18,3-4.08,9.9-5.28,18.56a.3.3,0,0,1,0,.16.81.81,0,0,1,0,.33c-4,22.11-1.48,52.42,9.86,68.87a7.36,7.36,0,0,0-4.91-.16c-37.16,11.26-60.29,16.62-68.3,4.66C214.32,464.52,241.83,425.75,291.19,386Z" style="fill:#fff;fill-rule:evenodd"/><path d="M362,538.42c12.33-22.22,18.76-29.85,27-38.47H335C343.24,508.57,349.63,516.2,362,538.42Z"/><path d="M300.06,449.76a81.87,81.87,0,0,0,14.06,27.3H409.8a81.14,81.14,0,0,0,14.06-27.3Z"/><path d="M422.75,394A708.21,708.21,0,0,0,362,354.29,701.13,701.13,0,0,0,301.21,394a91.55,91.55,0,0,0-4.86,32.87H427.57A92.41,92.41,0,0,0,422.75,394Z"/><path d="M502,351.19a7.59,7.59,0,0,0-.37,10.64l1,1.16c43.47-37.12,69.61-65.82,56.58-88.46-14.35-20-74.81-10.52-149,22.85a54.09,54.09,0,0,0,5.61-24.09,52.53,52.53,0,0,0-.78-9.11,53.3,53.3,0,0,0-15-29,52.56,52.56,0,0,0-15-10.55l.24-.58h.05l5.69-12.37a4,4,0,1,0-7.18-3.3l-6.19,13.4a54.31,54.31,0,0,0-31.59,0L340,208.34a4,4,0,1,0-7.18,3.3l5.53,12,.45,1a54.26,54.26,0,0,0-25.48,72.17c-19.18-8.58-125.62-52.67-147.07-22.6-19.42,27.34,40.25,75.22,56.21,88.87l1-1.16a7.62,7.62,0,0,0-.32-10.64c-7.84-7.38-20.13-19.54-28.71-31.42-11.26-15.59-11.55-24.79-6.1-29.9,16.95-15.92,79.84,5.15,99.35,12.58a556.37,556.37,0,0,1,59.75,27.3c-99.67,57.78-167.39,126.81-151.39,154.48,10,17.37,51.72,15.1,105.29-3.79l-1.94-3.17a7.49,7.49,0,0,0-8.7-3.35c-37.16,11.26-60.3,16.62-68.3,4.67-11.17-19.35,45.49-86,133.54-136.8l6.6-3.79c2.22,1.23,4.45,2.51,6.64,3.79,88,50.81,144.71,117.45,133.53,136.8-8,12-31.13,6.59-68.29-4.67a7.48,7.48,0,0,0-8.7,3.35l-1.94,3.17c53.57,18.89,95.26,21.16,105.28,3.79,16-27.67-51.71-96.7-151.39-154.48,70.15-37,133.37-53.45,156.55-41.65C555.05,298.7,518.51,335.56,502,351.19ZM316.93,280.34a45.8,45.8,0,0,1,25.81-48.62A45.87,45.87,0,0,1,316.93,280.34Zm89.69,0a45.83,45.83,0,0,1-25.81-48.62A45.85,45.85,0,0,1,406.62,280.38Z" style="fill-rule:evenodd"/><path d="M406.62,280.38a45.83,45.83,0,0,1-25.81-48.62A45.85,45.85,0,0,1,406.62,280.38Z" style="fill:#fff;fill-rule:evenodd"/></svg>
