<svg width="463" height="454" fill="none" xmlns="http://www.w3.org/2000/svg">
  <path stroke="#00C1FE" stroke-dasharray="1 1" d="M229.632 321.684h-20.578M243.954 364.008v13.661"/>
  <mask id="a" fill="#fff">
    <path fill-rule="evenodd" clip-rule="evenodd"
          d="M10.9 312.534h27.158c-.328 8.712-6.282 15.653-13.58 15.653-7.297 0-13.25-6.941-13.579-15.653z"/>
  </mask>
  <path d="m10.9 312.534-2 .075-.077-2.075h2.076v2zm27.158 0v-2h2.077l-.078 2.075-1.999-.075zm-27.159-2h27.16v4h-27.16v-4zm13.58 15.653c5.9 0 11.28-5.737 11.58-13.728l3.998.15c-.355 9.433-6.884 17.578-15.578 17.578v-4zm-11.581-13.728c.3 7.991 5.68 13.728 11.58 13.728v4c-8.694 0-15.222-8.145-15.577-17.578l3.997-.15z"
        fill="#003E6E" mask="url(#a)"/>
  <path fill-rule="evenodd" clip-rule="evenodd"
        d="M11.133 307.859c1.3-7.426 6.76-13 13.3-13 6.538 0 11.999 5.574 13.3 13h-2.03c-1.267-6.536-6.066-11-11.27-11s-10.004 4.464-11.27 11h-2.03z"
        fill="#003E6E"/>
  <path fill="#fff" stroke="#003E6E" d="M37.93 308.359h-31v2h31z"/>
  <path d="m30.56 340.86.937.938-2.063 2.888a.93.93 0 0 1-.764.393h-.065a.941.941 0 0 0-.664.275l-2.508 2.507 2.454 2.489a2.814 2.814 0 0 1 3.354 3.865 2.814 2.814 0 0 1-1.767 1.528 2.81 2.81 0 0 1-3.574-2.301 2.811 2.811 0 0 1 .086-1.192l-2.488-2.454-.907.908.286.857a.938.938 0 0 1-.227.959l-3.146 3.146a.937.937 0 0 1-1.326 0l-1.487-1.487a.938.938 0 0 1 0-1.325l3.146-3.147a.937.937 0 0 1 .96-.226l.856.285.9-.9-2.512-2.477a2.824 2.824 0 0 1-2.44-.486 2.82 2.82 0 0 1-1.008-2.959l2.006 2.007 1.648-.341.341-1.647-2.007-2.007a2.805 2.805 0 0 1 2.72.728 2.813 2.813 0 0 1 .725 2.722l2.475 2.51 2.502-2.5a.937.937 0 0 0 .275-.663v-.066a.933.933 0 0 1 .393-.763l2.889-2.064zm-9.044 9.981a.47.47 0 0 0-.663 0l-2.813 2.812a.475.475 0 0 0-.102.512.46.46 0 0 0 .254.254.48.48 0 0 0 .36 0 .47.47 0 0 0 .152-.102l2.812-2.812a.478.478 0 0 0 .138-.332.47.47 0 0 0-.138-.332zm7.169.332-.442.227-.496.024-.27.417-.416.269-.025.496-.227.442.227.441.025.496.417.269.269.417.496.025.442.227.441-.227.496-.025.269-.417.417-.269.025-.496.227-.441-.227-.442-.025-.496-.417-.269-.269-.417-.496-.024-.442-.227z"
        fill="#003E6E"/>
  <path stroke="#003E6E" d="m28.998 299.609-3.5 6.062M23.864 305.672l-3.5-6.062"/>
  <path fill-rule="evenodd" clip-rule="evenodd"
        d="M19.582 339.858a14.439 14.439 0 0 1 2.17-3.452l-1.314-1.537a16.69 16.69 0 0 0-3.015 4.989h2.16zm8.83 0a14.626 14.626 0 0 0-1.695-2.865l1.324-1.549a16.834 16.834 0 0 1 2.53 4.414h-2.159zm4.019 4h9.794c-1.074-6.639-5.931-11.375-11.427-11.641l1.571-1.839c6.053 1.026 10.861 6.505 11.878 13.48.095.655.157 1.322.184 2h-12v-2zm-17 2H3.564c.027-.678.089-1.345.184-2 1.065-7.309 6.293-12.974 12.754-13.596l1.67 1.955a9.838 9.838 0 0 0-.486-.012c-5.695 0-10.81 4.818-11.916 11.653h9.66v2z"
        fill="#003E6E"/>
  <path fill-rule="evenodd" clip-rule="evenodd"
        d="M33.176 320.857a48.258 48.258 0 0 0 1.482-2.589c.52-.974.104-2.171-.89-2.653-.993-.482-2.188-.066-2.712.906-.39.725-.832 1.504-1.283 2.233a19.115 19.115 0 0 1-1.226 1.788c-.31.39-.495.556-.55.606-.021.019-.024.021-.009.013l-1.22.634a1.993 1.993 0 0 0-.84 2.697 2.008 2.008 0 0 0 2.703.843c.368-.192.772-.402 1.198-.622.757-.393 1.394-1.109 1.849-1.68a23.044 23.044 0 0 0 1.498-2.176zM26.305 306.375a2 2 0 0 0 2.753-.649l.968-1.566a2 2 0 0 0-3.402-2.103l-.968 1.565a2 2 0 0 0 .65 2.753z"
        fill="#00C1FE" fill-opacity=".3"/>
  <path fill-rule="evenodd" clip-rule="evenodd"
        d="m40.554 306.024.78.88c.483-.586.975-1.162 1.476-1.727l-.752-.912a65.691 65.691 0 0 0-1.504 1.759zm3.06-3.456.724.943a63.57 63.57 0 0 1 1.578-1.601l-.695-.972a63.878 63.878 0 0 0-1.607 1.63zm3.262-3.193.665 1.001c.549-.5 1.106-.989 1.67-1.466l-.634-1.028c-.575.486-1.142.984-1.701 1.493zm3.447-2.914.603 1.053a57.996 57.996 0 0 1 1.755-1.323l-.57-1.077c-.603.437-1.2.886-1.788 1.347zm3.616-2.619.537 1.101a57.705 57.705 0 0 1 1.831-1.173l-.503-1.123c-.628.386-1.25.784-1.865 1.195zm3.767-2.311.468 1.143c.627-.351 1.26-.69 1.898-1.016l-.433-1.161c-.65.331-1.295.676-1.933 1.034zm3.897-1.988.397 1.18a53.752 53.752 0 0 1 1.956-.855l-.36-1.195c-.67.277-1.334.567-1.993.87zm4.012-1.656.324 1.21c.662-.243 1.33-.472 2.001-.687l-.285-1.222c-.685.219-1.365.452-2.04.699zm4.1-1.313.248 1.234a50.47 50.47 0 0 1 2.042-.518l-.21-1.243a50.61 50.61 0 0 0-2.08.527zm45.014 8.54-.57 1.077c.592.429 1.177.87 1.755 1.323l.603-1.053a60.544 60.544 0 0 0-1.788-1.347zm3.534 2.768-.634 1.028c.564.477 1.121.966 1.67 1.466l.665-1.001a61.336 61.336 0 0 0-1.701-1.493zm24.266 65.238-1.075-.157a79.33 79.33 0 0 1-.294 2.417l1.069.201c.112-.816.212-1.636.3-2.461zm-.675 4.911-1.063-.246a77.41 77.41 0 0 1-.442 2.389l1.055.291c.162-.806.312-1.618.45-2.434zm-.975 4.845-1.045-.335a77.087 77.087 0 0 1-.586 2.343l1.033.378c.211-.789.411-1.585.598-2.386zm-1.269 4.749a80.182 80.182 0 0 1-.744 2.332l-1.008-.465a73.54 73.54 0 0 0 .73-2.289l1.022.422zm-1.559 4.63-.992-.506a75.17 75.17 0 0 1-.869 2.221l.977.547c.306-.747.601-1.501.884-2.262zm-1.838 4.488-.959-.589a72.368 72.368 0 0 1-1.002 2.144l.94.628a71.21 71.21 0 0 0 1.021-2.183zm-2.107 4.322-.921-.667a72.623 72.623 0 0 1-1.131 2.054l.9.705a72.81 72.81 0 0 0 1.152-2.092zm-2.366 4.135-.878-.742a67.698 67.698 0 0 1-1.253 1.955l.855.778c.435-.654.861-1.318 1.276-1.991zm-2.611 3.928-.831-.813c-.447.625-.903 1.24-1.368 1.846l.805.847c.474-.617.939-1.244 1.394-1.88zM97.125 422.28l-.248-1.234c-.676.186-1.357.359-2.042.517l.21 1.244a54.061 54.061 0 0 0 2.08-.527zm-4.173.966-.172-1.252c-.684.129-1.373.244-2.065.345l.133 1.258c.706-.103 1.407-.22 2.104-.351zm-4.219.614-.095-1.263c-.692.072-1.387.129-2.086.173l.057 1.265c.712-.044 1.42-.102 2.124-.175zm-4.246.262-.019-1.267a52.215 52.215 0 0 1-2.096 0l-.02 1.267a47.381 47.381 0 0 0 2.135 0zm-4.256-.087.057-1.265a51.28 51.28 0 0 1-2.086-.173l-.095 1.263c.704.073 1.412.131 2.124.175zm-4.24-.438.134-1.258a50.577 50.577 0 0 1-2.065-.345l-.172 1.252c.697.131 1.398.248 2.103.351zm-4.196-.79.21-1.244a50.422 50.422 0 0 1-2.042-.517l-.248 1.234c.689.189 1.382.365 2.08.527zm-4.14-1.141.285-1.223a51.983 51.983 0 0 1-2.001-.686l-.324 1.209c.675.247 1.355.48 2.04.7zm-4.059-1.486.36-1.195a53.732 53.732 0 0 1-1.956-.854l-.397 1.179c.659.303 1.323.594 1.993.87zm-3.956-1.823.432-1.162a53.96 53.96 0 0 1-1.898-1.016l-.468 1.143a55.81 55.81 0 0 0 1.933 1.035zm-3.836-2.151.503-1.123a55.95 55.95 0 0 1-1.831-1.172l-.537 1.1c.615.411 1.237.809 1.865 1.195zm-3.693-2.466.57-1.078a57.996 57.996 0 0 1-1.755-1.323l-.603 1.053a58.01 58.01 0 0 0 1.788 1.348zm-20.463-24.814.94-.628a72.12 72.12 0 0 1-1.002-2.144l-.96.589c.33.735.67 1.463 1.022 2.183zm-1.975-4.409.977-.547c-.3-.734-.59-1.474-.869-2.221l-.992.506c.283.761.578 1.515.884 2.262zm-1.699-4.56 1.008-.465a74.626 74.626 0 0 1-.73-2.289l-1.021.422c.236.784.484 1.561.743 2.332z"
        fill="#00C1FE"/>
  <path fill-rule="evenodd" clip-rule="evenodd"
        d="M89.516 374.883h32v22h-32v-22zm34 22c0 .187-.026.369-.074.541.237.222.422.503.53.826l2.666 8a2 2 0 0 1-1.897 2.633H86.29a2 2 0 0 1-1.897-2.633l2.667-8c.108-.323.292-.604.53-.827a1.998 1.998 0 0 1-.074-.54v-22a2 2 0 0 1 2-2h32a2 2 0 0 1 2 2v22zm-24.532 10H86.29l2.667-8h33.117l2.667 8h-12.693a2.04 2.04 0 0 0-.044-.415l-.425-2a2 2 0 0 0-1.956-1.585h-8.214a2 2 0 0 0-1.957 1.585l-.424 2c-.03.14-.044.278-.044.415zm1 0h11.064a1.068 1.068 0 0 0-.023-.208l-.424-2a1 1 0 0 0-.978-.792h-8.214a1 1 0 0 0-.978.792l-.424 2a.982.982 0 0 0-.023.208z"
        fill="#003E6E"/>
  <path fill-rule="evenodd" clip-rule="evenodd"
        d="M98.516 387.717a1.167 1.167 0 1 1-.001 2.334 1.167 1.167 0 0 1 0-2.334zm2.333 1.167a2.333 2.333 0 1 0-4.666 0 2.333 2.333 0 0 0 4.666 0z"
        fill="#00C1FE"/>
  <path fill-rule="evenodd" clip-rule="evenodd"
        d="M98.516 383.049a.585.585 0 0 1 .583.584v.101a1.548 1.548 0 0 0 .937 1.415.586.586 0 0 0 .154.042 1.547 1.547 0 0 0 1.592-.354l.005-.004.035-.035a.577.577 0 0 1 .636-.127.562.562 0 0 1 .189.127h.001a.585.585 0 0 1 0 .825l-.04.04a1.545 1.545 0 0 0-.317 1.688 1.55 1.55 0 0 0 1.409.995h.066a.585.585 0 0 1 0 1.167h-.102a1.539 1.539 0 0 0-1.413.934 1.543 1.543 0 0 0 .31 1.702l.005.005.035.035a.593.593 0 0 1 .171.413.59.59 0 0 1-.171.412v.001a.59.59 0 0 1-.826 0l-.04-.04a1.541 1.541 0 0 0-1.688-.317 1.548 1.548 0 0 0-.994 1.409v.066a.581.581 0 0 1-.584.583.581.581 0 0 1-.583-.583V394.031a1.545 1.545 0 0 0-.934-1.413 1.543 1.543 0 0 0-1.703.31l-.004.005-.035.035a.59.59 0 0 1-.826 0 .593.593 0 0 1-.171-.413.578.578 0 0 1 .17-.413l.04-.04a1.542 1.542 0 0 0 .311-1.702 1.546 1.546 0 0 0-1.413-.934h-.055a.581.581 0 0 1-.584-.583.585.585 0 0 1 .584-.584h.101a1.54 1.54 0 0 0 1.415-.936.593.593 0 0 0 .042-.155 1.543 1.543 0 0 0-.354-1.591l-.004-.005-.035-.035a.583.583 0 0 1 0-.826.59.59 0 0 1 .825 0l.04.04a1.545 1.545 0 0 0 1.703.31 1.55 1.55 0 0 0 .933-1.413v-.055a.585.585 0 0 1 .584-.584zm-4.317 7.584-.534.235a.38.38 0 0 1-.074.417l-.032.032a1.74 1.74 0 0 0-.513 1.238 1.747 1.747 0 0 0 .513 1.238l.413-.413-.413.413a1.757 1.757 0 0 0 1.908.379c.213-.088.405-.217.568-.379l.032-.032a.385.385 0 0 1 .196-.101.388.388 0 0 1 .22.026l.006.003a.375.375 0 0 1 .23.346v.098a1.749 1.749 0 0 0 3.5 0v-.044a.377.377 0 0 1 .248-.342l.034-.014a.382.382 0 0 1 .417.074l.032.032a1.733 1.733 0 0 0 1.238.513 1.748 1.748 0 0 0 1.617-2.421 1.768 1.768 0 0 0-.379-.568l-.032-.032a.382.382 0 0 1-.075-.416l.003-.006a.383.383 0 0 1 .346-.23h.098a1.75 1.75 0 1 0 0-3.5h-.044a.376.376 0 0 1-.342-.248l-.014-.034a.378.378 0 0 1 .074-.416l.032-.032a1.755 1.755 0 0 0 .38-1.908 1.733 1.733 0 0 0-.38-.568 1.74 1.74 0 0 0-1.237-.513 1.757 1.757 0 0 0-1.239.513l-.032.032a.373.373 0 0 1-.195.1.372.372 0 0 1-.221-.026.58.58 0 0 0-.116-.037.368.368 0 0 1-.103-.105.37.37 0 0 1-.063-.206v-.098a1.75 1.75 0 0 0-3.5 0v.051a.383.383 0 0 1-.23.346l-.006.002a.38.38 0 0 1-.416-.074l-.032-.032a1.757 1.757 0 0 0-1.908-.379 1.758 1.758 0 0 0-.948.947 1.747 1.747 0 0 0 .38 1.908l.032.032a.38.38 0 0 1 .074.417.569.569 0 0 0-.037.116.39.39 0 0 1-.311.166h-.098a1.75 1.75 0 1 0 0 3.5h.05a.38.38 0 0 1 .346.23l.537-.23zM112.016 381.633a.75.75 0 1 1 0 1.5.75.75 0 0 1 0-1.5zm1.5.75a1.5 1.5 0 1 0-3 0 1.5 1.5 0 0 0 3 0z"
        fill="#00C1FE"/>
  <path fill-rule="evenodd" clip-rule="evenodd"
        d="M112.016 378.633a.375.375 0 0 1 .375.375v.065a.997.997 0 0 0 .602.909.385.385 0 0 0 .099.028 1 1 0 0 0 1.024-.228l.002-.003.023-.022a.375.375 0 0 1 .531 0 .37.37 0 0 1 0 .53l-.026.026a.995.995 0 0 0-.203 1.085.997.997 0 0 0 .905.64H115.391a.375.375 0 1 1 0 .75h-.065a.994.994 0 0 0-.909.6.993.993 0 0 0 .199 1.095l.003.002.023.023a.37.37 0 0 1 .081.409.357.357 0 0 1-.081.122.374.374 0 0 1-.531 0l-.025-.026a.995.995 0 0 0-1.086-.203.999.999 0 0 0-.639.905V385.758a.376.376 0 0 1-.375.375.375.375 0 0 1-.375-.375v-.065a.994.994 0 0 0-.601-.909.99.99 0 0 0-1.094.199l-.003.003-.022.023a.378.378 0 0 1-.531 0 .375.375 0 0 1 0-.531l.025-.025a1 1 0 0 0 .2-1.095 1.001 1.001 0 0 0-.909-.6h-.035a.375.375 0 0 1 0-.75h.065a.997.997 0 0 0 .909-.602.392.392 0 0 0 .028-.1.997.997 0 0 0-.228-1.023l-.003-.003-.022-.022a.377.377 0 0 1 0-.531.375.375 0 0 1 .53 0l.026.025a.997.997 0 0 0 1.695-.709v-.035c0-.1.039-.195.11-.265a.37.37 0 0 1 .265-.11zm-2.775 4.875-.343.151a.243.243 0 0 1-.048.268l-.02.02s-.001.001 0 0a1.132 1.132 0 0 0-.33.796 1.117 1.117 0 0 0 .33.796l.265-.265-.266.265a1.12 1.12 0 0 0 .796.33 1.12 1.12 0 0 0 .796-.33l.021-.02a.24.24 0 0 1 .267-.048l.004.002a.232.232 0 0 1 .107.089.25.25 0 0 1 .041.133v.063a1.124 1.124 0 1 0 2.25 0v-.029a.244.244 0 0 1 .159-.219.497.497 0 0 0 .022-.009.24.24 0 0 1 .268.048l.02.02c.001 0 0 0 0 0 .105.105.229.188.366.244a1.115 1.115 0 0 0 .861 0c.137-.056.261-.139.365-.244a1.116 1.116 0 0 0 .244-1.226 1.113 1.113 0 0 0-.244-.366l-.021-.02a.25.25 0 0 1-.064-.126.24.24 0 0 1 .017-.142l.001-.003a.241.241 0 0 1 .223-.148h.063a1.125 1.125 0 0 0 0-2.25h-.029a.245.245 0 0 1-.219-.16.497.497 0 0 1-.009-.022.246.246 0 0 1 .047-.267l.021-.021a1.12 1.12 0 0 0 0-1.592 1.13 1.13 0 0 0-1.226-.244c-.137.057-.261.14-.366.245l-.02.02a.247.247 0 0 1-.126.065.256.256 0 0 1-.142-.017.336.336 0 0 0-.074-.024.244.244 0 0 1-.107-.2v-.063a1.125 1.125 0 0 0-2.25 0v.033a.245.245 0 0 1-.148.222l-.004.002a.24.24 0 0 1-.267-.048l-.021-.02a1.117 1.117 0 0 0-1.227-.245 1.138 1.138 0 0 0-.609.609 1.138 1.138 0 0 0 0 .862c.057.137.14.261.244.365l.021.021a.24.24 0 0 1 .048.267.328.328 0 0 0-.024.075.247.247 0 0 1-.2.107h-.063a1.125 1.125 0 1 0 0 2.25h.033c.047 0 .093.014.133.04.039.027.07.064.089.108l.345-.148z"
        fill="#00C1FE"/>
  <path d="M253.459 365.957v13.261M300.32 343.02v24.667M233.964 364.008v8.872" stroke="#00C1FE" stroke-dasharray="1 1"/>
  <ellipse cx="2.96" cy="3.464" rx="2.96" ry="3.464" transform="matrix(-1 0 0 1 216.364 408.613)" fill="#75DAFE"
           fill-opacity=".8" style="mix-blend-mode:multiply"/>
  <path fill-rule="evenodd" clip-rule="evenodd"
        d="M223.152 389.997c-2.094 0-3.791-1.716-3.791-3.832 0-2.116 1.697-3.831 3.791-3.831 2.093 0 3.79 1.715 3.79 3.831 0 2.116-1.697 3.832-3.79 3.832zm0 1.094c-2.692 0-4.874-2.205-4.874-4.926 0-2.72 2.182-4.926 4.874-4.926 2.691 0 4.873 2.206 4.873 4.926 0 2.721-2.182 4.926-4.873 4.926zM253.477 402.039c-2.692 0-4.874-2.206-4.874-4.927 0-2.72 2.182-4.926 4.874-4.926 2.692 0 4.874 2.206 4.874 4.926 0 2.721-2.182 4.927-4.874 4.927zm0 1.094c-3.29 0-5.957-2.695-5.957-6.021 0-3.325 2.667-6.021 5.957-6.021s5.957 2.696 5.957 6.021c0 3.326-2.667 6.021-5.957 6.021zM223.693 427.217h21.661c2.019 0 3.715 1.395 4.196 3.284h-30.052c.48-1.889 2.177-3.284 4.195-3.284zm-5.307 3.284c.502-2.498 2.687-4.379 5.307-4.379h21.661c2.62 0 4.805 1.881 5.307 4.379.071.354.108.72.108 1.095h-32.491c0-.375.037-.741.108-1.095z"
        fill="#003E6E"/>
  <path fill-rule="evenodd" clip-rule="evenodd"
        d="M219.361 431.596h30.325v1.095h-30.325v-1.095zm31.408-1.095v3.284h-32.491v-3.284h32.491zM232.358 416.27c-3.589 0-6.499-2.941-6.499-6.568 0-3.628 2.91-6.569 6.499-6.569 3.589 0 6.498 2.941 6.498 6.569 0 3.627-2.909 6.568-6.498 6.568zm0 1.095c-4.187 0-7.582-3.431-7.582-7.663 0-4.233 3.395-7.663 7.582-7.663 4.187 0 7.581 3.43 7.581 7.663 0 4.232-3.394 7.663-7.581 7.663z"
        fill="#003E6E"/>
  <path fill-rule="evenodd" clip-rule="evenodd"
        d="M232.358 412.986c-1.795 0-3.249-1.471-3.249-3.284 0-1.814 1.454-3.285 3.249-3.285 1.794 0 3.249 1.471 3.249 3.285 0 1.813-1.455 3.284-3.249 3.284zm0 1.094c-2.393 0-4.333-1.96-4.333-4.378 0-2.419 1.94-4.379 4.333-4.379 2.392 0 4.332 1.96 4.332 4.379 0 2.418-1.94 4.378-4.332 4.378zM253.477 398.754a1.633 1.633 0 0 1-1.624-1.642c0-.907.727-1.642 1.624-1.642.897 0 1.625.735 1.625 1.642 0 .907-.728 1.642-1.625 1.642zm0 1.095c-1.495 0-2.708-1.225-2.708-2.737 0-1.511 1.213-2.736 2.708-2.736s2.708 1.225 2.708 2.736c0 1.512-1.213 2.737-2.708 2.737z"
        fill="#003E6E"/>
  <path d="M221.527 386.165c0 .907.728 1.642 1.625 1.642s1.624-.735 1.624-1.642c0-.907-.727-1.642-1.624-1.642-.897 0-1.625.735-1.625 1.642z"
        fill="#003E6E"/>
  <path fill-rule="evenodd" clip-rule="evenodd"
        d="m227.824 384.758 24.868 6.385a5.859 5.859 0 0 0-1.962.626l-22.709-5.831a4.995 4.995 0 0 0-.197-1.18zm12.115 24.976 12.411-6.708a5.861 5.861 0 0 1-1.425-.472l-11.073 5.985c.057.379.087.767.087 1.163v.032zm-.288 2.066 5.935 14.322h-1.175l-5.333-12.871c.238-.458.431-.944.573-1.451zm-13.599 2.157-1.455 12.165h-1.091l1.669-13.961c.215.641.511 1.244.877 1.796zm5.612-11.887 11.334-5.513-17.592-6.023a4.87 4.87 0 0 0 1.088-.783l19.364 6.629-11.958 5.817a7.538 7.538 0 0 0-2.236-.127zM214.139 381.634a2.692 2.692 0 0 1 2.426-.692l2.884.619c.383.082.738.246 1.045.474-.32.211-.614.459-.875.737a1.587 1.587 0 0 0-.395-.14l-2.884-.619a1.613 1.613 0 0 0-1.455.415l-3.21 3.077a.482.482 0 0 0-.075.603.471.471 0 0 0 .605.176l3.211-1.555a2.684 2.684 0 0 1 2.617.155l.357.228a5.01 5.01 0 0 0-.109 1.235 1.777 1.777 0 0 0-.13-.092l-.697-.445a1.608 1.608 0 0 0-1.57-.093l-3.211 1.554a1.547 1.547 0 0 1-1.988-.577 1.587 1.587 0 0 1 .244-1.983l3.21-3.077zm5.299 7.722c.312.37.677.693 1.083.957v.918a2.74 2.74 0 0 1-1.537 2.468l-2.889 1.399a.438.438 0 0 0-.178.626.429.429 0 0 0 .433.197l4.121-.676a1.626 1.626 0 0 0 1.276-1.085l1.052-3.081a4.91 4.91 0 0 0 1.163-.055l-.027.084-1.164 3.409a2.714 2.714 0 0 1-2.126 1.809l-4.122.675a1.508 1.508 0 0 1-1.522-.692 1.538 1.538 0 0 1 .626-2.198l2.889-1.399c.564-.273.922-.849.922-1.481v-1.875zM183.079 409.7c-2.094 0-3.791-1.716-3.791-3.832 0-2.116 1.697-3.831 3.791-3.831 2.093 0 3.791 1.715 3.791 3.831 0 2.116-1.698 3.832-3.791 3.832zm0 1.095c-2.692 0-4.874-2.206-4.874-4.927 0-2.72 2.182-4.926 4.874-4.926 2.692 0 4.874 2.206 4.874 4.926 0 2.721-2.182 4.927-4.874 4.927zM213.404 421.742c-2.691 0-4.873-2.206-4.873-4.927 0-2.72 2.182-4.926 4.873-4.926 2.692 0 4.874 2.206 4.874 4.926 0 2.721-2.182 4.927-4.874 4.927zm0 1.094c-3.29 0-5.956-2.695-5.956-6.021 0-3.325 2.666-6.02 5.956-6.02 3.29 0 5.957 2.695 5.957 6.02 0 3.326-2.667 6.021-5.957 6.021zM183.62 446.92h21.661c2.019 0 3.715 1.396 4.196 3.284h-30.052c.481-1.888 2.177-3.284 4.195-3.284zm-5.306 3.284c.501-2.498 2.687-4.379 5.306-4.379h21.661c2.62 0 4.806 1.881 5.307 4.379.071.354.109.72.109 1.095h-32.492c0-.375.037-.741.109-1.095z"
        fill="#003E6E"/>
  <path fill-rule="evenodd" clip-rule="evenodd"
        d="M179.288 451.299h30.326v1.095h-30.326v-1.095zm31.409-1.095v3.284h-32.492v-3.284h32.492zM192.285 435.973c-3.589 0-6.498-2.941-6.498-6.568 0-3.628 2.909-6.569 6.498-6.569 3.589 0 6.498 2.941 6.498 6.569 0 3.627-2.909 6.568-6.498 6.568zm0 1.095c-4.187 0-7.582-3.431-7.582-7.663s3.395-7.663 7.582-7.663c4.187 0 7.581 3.431 7.581 7.663s-3.394 7.663-7.581 7.663z"
        fill="#003E6E"/>
  <path fill-rule="evenodd" clip-rule="evenodd"
        d="M192.285 432.689c-1.795 0-3.249-1.471-3.249-3.284 0-1.814 1.454-3.284 3.249-3.284 1.794 0 3.249 1.47 3.249 3.284 0 1.813-1.455 3.284-3.249 3.284zm0 1.095c-2.393 0-4.332-1.961-4.332-4.379 0-2.419 1.939-4.379 4.332-4.379 2.392 0 4.332 1.96 4.332 4.379 0 2.418-1.94 4.379-4.332 4.379zM213.404 418.458a1.634 1.634 0 0 1-1.624-1.643c0-.906.727-1.642 1.624-1.642.898 0 1.625.736 1.625 1.642 0 .907-.727 1.643-1.625 1.643zm0 1.094c-1.495 0-2.707-1.225-2.707-2.737 0-1.511 1.212-2.736 2.707-2.736 1.496 0 2.708 1.225 2.708 2.736 0 1.512-1.212 2.737-2.708 2.737z"
        fill="#003E6E"/>
  <path d="M181.454 405.868c0 .907.728 1.642 1.625 1.642s1.624-.735 1.624-1.642c0-.907-.727-1.642-1.624-1.642-.897 0-1.625.735-1.625 1.642z"
        fill="#003E6E"/>
  <path fill-rule="evenodd" clip-rule="evenodd"
        d="m187.751 404.462 24.869 6.384a5.88 5.88 0 0 0-1.963.626l-22.709-5.83a4.978 4.978 0 0 0-.197-1.18zm12.115 24.975 12.411-6.708a5.854 5.854 0 0 1-1.424-.472l-11.073 5.986c.057.379.086.767.086 1.162v.032zm-.288 2.066 5.935 14.322h-1.174l-5.334-12.871c.238-.458.431-.944.573-1.451zm-13.599 2.157-1.455 12.165h-1.091l1.67-13.96c.214.64.51 1.243.876 1.795zm5.612-11.887 11.334-5.513-17.592-6.023a4.87 4.87 0 0 0 1.088-.783l19.365 6.629-11.959 5.817a7.538 7.538 0 0 0-2.236-.127zM174.067 401.337a2.686 2.686 0 0 1 2.425-.691l2.884.618c.383.082.738.246 1.045.475-.32.21-.613.458-.875.736a1.628 1.628 0 0 0-.395-.14l-2.884-.619a1.613 1.613 0 0 0-1.455.415l-3.21 3.078a.483.483 0 0 0-.075.603c.129.204.388.28.605.175l3.211-1.555a2.684 2.684 0 0 1 2.617.155l.357.228a5.01 5.01 0 0 0-.109 1.236 1.527 1.527 0 0 0-.13-.093l-.697-.445a1.61 1.61 0 0 0-1.57-.093l-3.211 1.555a1.548 1.548 0 0 1-1.988-.578 1.587 1.587 0 0 1 .244-1.983l3.211-3.077zm5.299 7.722c.311.37.676.694 1.083.957v.918a2.74 2.74 0 0 1-1.538 2.468l-2.889 1.399a.438.438 0 0 0-.178.626.43.43 0 0 0 .433.197l4.122-.675a1.63 1.63 0 0 0 1.275-1.086l1.052-3.081a4.91 4.91 0 0 0 1.163-.055 1.363 1.363 0 0 1-.027.084l-1.164 3.409a2.714 2.714 0 0 1-2.126 1.809l-4.122.676a1.508 1.508 0 0 1-1.521-.693 1.537 1.537 0 0 1 .625-2.198l2.889-1.399c.564-.273.923-.849.923-1.481v-1.875z"
        fill="#003E6E"/>
  <ellipse cx="2.96" cy="2.992" rx="2.96" ry="2.992" transform="matrix(-1 0 0 1 192.787 427.234)" fill="#75DAFE"
           fill-opacity=".8" style="mix-blend-mode:multiply"/>
  <ellipse cx="2.96" cy="2.992" rx="2.96" ry="2.992" transform="matrix(-1 0 0 1 231.389 407.336)" fill="#75DAFE"
           fill-opacity=".8" style="mix-blend-mode:multiply"/>
  <ellipse cx="2.96" cy="2.992" rx="2.96" ry="2.992" transform="matrix(-1 0 0 1 254.019 394.605)" fill="#75DAFE"
           fill-opacity=".8" style="mix-blend-mode:multiply"/>
  <path d="M172.034 405.333c.357-.12 2.607-1.957 3.687-2.86.658.012 2.056.113 2.384.414" stroke="#00C1FE"
        stroke-opacity=".3" stroke-width="2"/>
  <path d="M211.024 385.626c.357-.12 2.607-1.957 3.687-2.86.658.012 2.056.113 2.383.414" stroke="#00C1FE"
        stroke-opacity=".6" stroke-width="2"/>
  <path d="M176.783 415.005c1.192-.191 3.615-.698 3.778-1.191.162-.492.663-1.901.893-2.544" stroke="#00C1FE"
        stroke-opacity=".3" stroke-width="2"/>
  <path d="M215.773 395.298c1.192-.191 3.615-.698 3.778-1.191.162-.492.663-1.901.893-2.545" stroke="#00C1FE"
        stroke-opacity=".6" stroke-width="2"/>
  <path fill-rule="evenodd" clip-rule="evenodd"
        d="m184.703 450.644 21.12-1.095.541-2.19h-21.661v3.285zM220.986 430.389l23.827-.547.541-2.19h-21.661l-1.624 1.095-1.083 1.642z"
        fill="#00C1FE" fill-opacity=".6" style="mix-blend-mode:multiply"/>
  <path fill-rule="evenodd" clip-rule="evenodd"
        d="M300.319 372.406c-.298-.001-.54-.284-.54-.634 0-.35.242-.634.541-.634.299 0 .542.284.542.634 0 .35-.242.633-.541.634h-.002zm1.626-.634c0 .828-.452 1.532-1.083 1.793v6.445h2.166v-1.993a.542.542 0 1 1 1.083 0v1.993h2.166v-3.91c-.631-.261-1.083-.965-1.083-1.793 0-1.05.727-1.901 1.624-1.901.898 0 1.625.851 1.625 1.901 0 .828-.452 1.532-1.083 1.793v3.91h2.166v-1.993a.542.542 0 1 1 1.083 0v1.993h2.166c1.196 0 2.166 1.135 2.166 2.535v2.535h1.533a.633.633 0 0 1 0 1.267h-1.533v2.535h1.533a.633.633 0 0 1 0 1.267h-1.533v2.535h1.533a.633.633 0 0 1 0 1.268h-1.533v2.534h5.508c.223-.738.825-1.267 1.532-1.267.897 0 1.625.851 1.625 1.901s-.728 1.901-1.625 1.901c-.707 0-1.309-.529-1.532-1.267h-5.508v2.535h1.533a.632.632 0 1 1 0 1.267h-1.533v2.535h1.533a.632.632 0 1 1 0 1.267h-1.533v2.535h1.533a.633.633 0 0 1 0 1.267h-1.533v2.535c0 1.4-.97 2.535-2.166 2.535h-2.166v1.993a.542.542 0 1 1-1.083 0v-1.993h-2.166v3.91c.631.261 1.083.965 1.083 1.793 0 1.05-.727 1.901-1.625 1.901-.897 0-1.624-.851-1.624-1.901 0-.828.452-1.532 1.083-1.793v-3.91h-2.166v1.993a.542.542 0 0 1-1.083 0v-1.993h-2.166v6.445c.631.261 1.083.965 1.083 1.793 0 1.05-.728 1.901-1.625 1.901s-1.625-.851-1.625-1.901c0-.828.453-1.532 1.084-1.793v-6.445h-2.167v1.993a.542.542 0 1 1-1.083 0v-1.993h-2.166v3.91c.631.261 1.083.965 1.083 1.793 0 1.05-.727 1.901-1.624 1.901-.897 0-1.625-.851-1.625-1.901 0-.828.452-1.532 1.083-1.793v-3.91h-2.166v1.993a.542.542 0 1 1-1.083 0v-1.993h-2.166c-1.196 0-2.166-1.135-2.166-2.535v-2.535h-1.533a.632.632 0 1 1 0-1.267h1.533v-2.535h-1.533a.633.633 0 0 1 0-1.267h1.533v-2.535h-1.533a.633.633 0 0 1 0-1.267h1.533v-2.535h-5.508c-.223.738-.825 1.267-1.532 1.267-.897 0-1.625-.851-1.625-1.901s.728-1.901 1.625-1.901c.707 0 1.309.529 1.532 1.267h5.508v-2.534h-1.533a.633.633 0 0 1 0-1.268h1.533v-2.535h-1.533a.632.632 0 1 1 0-1.267h1.533v-2.535h-1.533a.633.633 0 0 1 0-1.267h1.533v-2.535c0-1.4.97-2.535 2.166-2.535h2.166v-1.993a.542.542 0 0 1 1.083 0v1.993h2.166v-3.91c-.631-.261-1.083-.965-1.083-1.793 0-1.05.728-1.901 1.625-1.901s1.624.851 1.624 1.901c0 .828-.452 1.532-1.083 1.793v3.91h2.166v-1.993a.542.542 0 0 1 1.083 0v1.993h2.167v-6.445c-.631-.261-1.084-.965-1.084-1.793 0-1.05.728-1.901 1.625-1.901s1.625.851 1.625 1.901zm19.494 25.347v.002c.001.35.243.633.542.633.299 0 .542-.284.542-.634 0-.35-.243-.634-.542-.634-.299 0-.541.284-.542.633zm-42.238.001c0 .35-.243.634-.542.634-.299 0-.541-.284-.541-.634 0-.35.242-.634.541-.634.299 0 .542.284.542.634zm27.617 22.179c.299 0 .542.284.542.634 0 .35-.243.634-.542.634-.299 0-.541-.284-.541-.634 0-.35.242-.634.541-.634zm-5.956 3.169c0-.35-.243-.634-.542-.634-.299 0-.541.284-.541.634 0 .35.242.634.541.634.299 0 .542-.284.542-.634zm-7.04-3.169c.299 0 .541.284.541.634 0 .35-.242.634-.541.634-.299 0-.542-.284-.542-.634 0-.35.243-.634.542-.634zm0-44.358c-.299 0-.542-.284-.542-.634 0-.35.243-.634.542-.634.299 0 .541.284.541.634 0 .35-.242.634-.541.634zm12.996 0c-.299 0-.541-.284-.541-.634 0-.35.242-.634.541-.634.299 0 .542.284.542.634 0 .35-.243.634-.542.634zm5.957 7.604v29.15h-24.91v-29.15h24.91zm-5.415 3.169a.634.634 0 0 0-.634-.634h-1.982a.633.633 0 0 0 0 1.267h1.982c.35 0 .634-.284.634-.633zm2.166 7.696a.542.542 0 1 1-1.083 0v-3.986a.54.54 0 1 1 1.083 0v3.986zm-17.87.542a.542.542 0 0 0 .541-.542v-3.986a.54.54 0 1 0-1.083 0v3.986c0 .299.243.542.542.542zm17.87 10.865a.54.54 0 1 1-1.083 0v-7.789a.542.542 0 1 1 1.083 0v7.789zm-17.87.541a.54.54 0 0 0 .541-.541v-7.789a.542.542 0 1 0-1.083 0v7.789c0 .299.243.541.542.541zm6.406-1.267a.632.632 0 1 1 0 1.267h-4.148a.634.634 0 0 1 0-1.267h4.148zm9.298 4.436a.634.634 0 0 0-.634-.634h-1.982a.633.633 0 0 0 0 1.267h1.982c.35 0 .634-.283.634-.633zm-6.049-23.447a.634.634 0 0 1 0 1.267h-7.397a.634.634 0 1 1 0-1.267h7.397zm.634 23.447a.634.634 0 0 0-.634-.634h-7.397a.634.634 0 0 0 0 1.267h7.397c.35 0 .634-.283.634-.633zm4.781-19.645a.634.634 0 0 1 0 1.267h-5.231a.632.632 0 1 1 0-1.267h5.231zm3.883-4.436c0 .35.242.634.542.634.299 0 .541-.284.541-.634 0-.35-.242-.634-.541-.634-.3 0-.542.284-.542.634zm.542 25.982c-.3 0-.542-.284-.542-.634 0-.35.242-.634.542-.634.299 0 .541.284.541.634 0 .35-.242.634-.541.634zm-22.203-25.982c0 .35.242.634.542.634.299 0 .541-.284.541-.634 0-.35-.242-.634-.541-.634-.3 0-.542.284-.542.634zm.542 25.982c-.3 0-.542-.284-.542-.634 0-.35.242-.634.542-.634.299 0 .541.284.541.634 0 .35-.242.634-.541.634z"
        fill="#003E6E"/>
  <ellipse cx="1.209" cy="1.415" rx="1.209" ry="1.415" transform="matrix(-1 0 0 1 303.072 369.871)" fill="#75DAFE"
           fill-opacity=".8"/>
  <ellipse cx="1.209" cy="1.415" rx="1.209" ry="1.415" transform="matrix(-1 0 0 1 307.985 372.699)" fill="#75DAFE"
           fill-opacity=".8"/>
  <ellipse cx="1.209" cy="1.415" rx="1.209" ry="1.415" transform="matrix(-1 0 0 1 323.606 397.121)" fill="#75DAFE"
           fill-opacity=".8"/>
  <ellipse cx="1.209" cy="1.415" rx="1.209" ry="1.415" transform="matrix(-1 0 0 1 309.195 419.605)" fill="#75DAFE"
           fill-opacity=".8"/>
  <ellipse cx="1.209" cy="1.415" rx="1.209" ry="1.415" transform="matrix(-1 0 0 1 280.454 397.121)" fill="#75DAFE"
           fill-opacity=".8"/>
  <path d="M308.533 392.03a1.123 1.123 0 1 0-2.248 0v7.121l.436 6.638a.907.907 0 0 0 1.812-.06V392.03z" fill="#91E1FE"/>
  <path d="M293.507 406.637a1.316 1.316 0 0 0 0 2.631h3.497l3.367-.45a1.096 1.096 0 0 0-.145-2.181h-6.719zM305.796 383.172a1.315 1.315 0 1 0 0 2.631h.969c.177 0 .353-.022.525-.066l1.145-.29a1.155 1.155 0 0 0-.283-2.275h-2.356z"
        fill="#91E1FE" fill-opacity=".5"/>
  <path d="M183.228 227.34v-4.195c-2.774 0-5.553-5.593-2.776-12.584 2.778-6.991 6.02-6.059 8.335-5.593.926-2.796 4.114-3.52 8.33-1.398 5.558 2.796 4.168 6.525 2.78 8.389 2.314 4.195 1.715 11.186-1.393 11.186h-4.164v4.195M141.228 227.34v-4.195c-2.774 0-5.553-5.593-2.776-12.584 2.778-6.991 6.02-6.059 8.335-5.593.926-2.796 4.114-3.52 8.33-1.398 5.558 2.796 4.168 6.525 2.78 8.389 2.314 4.195 1.715 11.186-1.393 11.186h-4.164v4.195M99.228 227.34v-4.195c-2.774 0-5.553-5.593-2.776-12.584 2.778-6.991 6.02-6.059 8.335-5.593.926-2.796 4.114-3.52 8.33-1.398 5.558 2.796 4.168 6.525 2.78 8.389 2.314 4.195 1.715 11.186-1.393 11.186h-4.164v4.195"
        stroke="#003E6E"/>
  <rect x="-.5" y=".5" width="4" height="2" rx="1" transform="matrix(-1 0 0 1 189.302 292.34)" stroke="#003E6E"/>
  <rect x="-.5" y=".5" width="4" height="2" rx="1" transform="matrix(-1 0 0 1 197.595 292.34)" stroke="#003E6E"/>
  <rect x="-.5" y=".5" width="5" height="2" rx="1" transform="matrix(-1 0 0 1 178.302 292.34)" stroke="#003E6E"/>
  <rect x="-.5" y=".5" width="5" height="2" rx="1" transform="matrix(-1 0 0 1 178.302 300.34)" stroke="#003E6E"/>
  <rect x="-.5" y=".5" width="4" height="2" rx="1" transform="matrix(-1 0 0 1 189.302 300.34)" stroke="#003E6E"/>
  <rect x="-.5" y=".5" width="4" height="2" rx="1" transform="matrix(-1 0 0 1 197.595 300.34)" stroke="#003E6E"/>
  <rect x="-.5" y=".5" width="5" height="2" rx="1" transform="matrix(-1 0 0 1 105.302 300.34)" stroke="#003E6E"/>
  <rect x="-.5" y=".5" width="5" height="2" rx="1" transform="matrix(-1 0 0 1 105.302 292.34)" stroke="#003E6E"/>
  <rect x="-.5" y=".5" width="5" height="2" rx="1" transform="matrix(-1 0 0 1 116.302 292.34)" stroke="#003E6E"/>
  <rect x="-.5" y=".5" width="5" height="2" rx="1" transform="matrix(-1 0 0 1 116.302 300.34)" stroke="#003E6E"/>
  <path fill-rule="evenodd" clip-rule="evenodd"
        d="M133.595 269.34a2 2 0 0 1 2-2h23a2 2 0 0 1 2 2v12a3 3 0 0 0 3 3h9a3 3 0 0 0 3-3v-12a2 2 0 0 1 2-2h27a2 2 0 0 1 2 2v49a2 2 0 0 1-2 2h-114a2 2 0 0 1-2-2v-49a2 2 0 0 1 2-2h26a2 2 0 0 1 2 2v12a3 3 0 0 0 3 3h9a3 3 0 0 0 3-3v-12zm0-4h-1a1 1 0 0 0-1 1v15a1 1 0 0 1-1 1h-9a1 1 0 0 1-1-1v-15a1 1 0 0 0-1-1h-31a2 2 0 0 0-2 2v53a2 2 0 0 0 2 2h118a2 2 0 0 0 2-2v-53a2 2 0 0 0-2-2h-32a1 1 0 0 0-1 1v15a1 1 0 0 1-1 1h-9a1 1 0 0 1-1-1v-15a1 1 0 0 0-1-1h-28z"
        fill="#003E6E"/>
  <path fill-rule="evenodd" clip-rule="evenodd"
        d="M197.255 266.34a1 1 0 0 1-.997-.914l-2.624-30.259a2 2 0 0 0-1.993-1.827h-4.092a2 2 0 0 0-1.993 1.827l-2.624 30.259a1 1 0 0 1-1.993-.173l2.783-32.086a2 2 0 0 1 1.993-1.827h7.76a2 2 0 0 1 1.993 1.827l2.783 32.086a1 1 0 0 1-.996 1.087zm-100.32 0a1 1 0 0 1-.996-1.087l2.783-32.086a2 2 0 0 1 1.993-1.827h7.76a2 2 0 0 1 1.993 1.827l2.783 32.086a1 1 0 1 1-1.993.173l-2.624-30.259a2 2 0 0 0-1.993-1.827h-4.092a2 2 0 0 0-1.993 1.827l-2.624 30.259a1 1 0 0 1-.996.914zm42.933 0a1 1 0 0 1-.996-1.082l2.643-32.082a2 2 0 0 1 1.994-1.836h7.173a2 2 0 0 1 1.993 1.836l2.643 32.082a1 1 0 1 1-1.993.164l-2.492-30.246a2 2 0 0 0-1.993-1.836h-3.489a2 2 0 0 0-1.994 1.836l-2.492 30.246a1 1 0 0 1-.997.918z"
        fill="#003E6E"/>
  <rect x="-.5" y=".5" width="10" height="12" rx="1.5" transform="matrix(-1 0 0 1 151.595 309.34)" stroke="#003E6E"/>
  <path d="M203.723 270.657c-7.093-.502-21.667-1.204-23.214 0-1.548 1.204-1.935 8.383-1.935 11.823M159.012 270.516c-6.722-.501-20.533-1.204-22 0-1.467 1.204-1.833 8.384-1.833 11.823M115.219 270.516c-6.722-.501-20.533-1.204-22 0-1.467 1.204-1.834 8.384-1.834 11.823"
        stroke="#00C1FE" stroke-opacity=".3" stroke-width="6"/>
  <path d="m191.483 226.305.392-8.193c1.589 1.52 4.974 3.648 5.803 0 .829-3.647-.046-4.588-.391-5.901M149.324 226.305l.392-8.193c1.589 1.52 4.974 3.648 5.803 0 .829-3.647-.046-4.588-.391-5.901M107.165 226.305l.392-8.193c1.589 1.52 4.974 3.648 5.803 0 .829-3.647-.046-4.588-.392-5.901"
        stroke="#00C1FE" stroke-opacity=".2" stroke-width="4"/>
  <rect width="22" height="3" rx="1.5" transform="matrix(-1 0 0 1 199.019 291.898)" fill="#00C1FE" fill-opacity=".41"
        style="mix-blend-mode:multiply"/>
  <rect width="11" height="3" rx="1.5" transform="matrix(-1 0 0 1 178.019 301.898)" fill="#00C1FE" fill-opacity=".41"
        style="mix-blend-mode:multiply"/>
  <rect width="11" height="3" rx="1.5" transform="matrix(-1 0 0 1 105.019 293.898)" fill="#00C1FE" fill-opacity=".41"
        style="mix-blend-mode:multiply"/>
  <rect width="8" height="3" rx="1.5" transform="matrix(-1 0 0 1 119.019 300.898)" fill="#00C1FE" fill-opacity=".41"
        style="mix-blend-mode:multiply"/>
  <rect width="8" height="10" rx="2" transform="matrix(-1 0 0 1 149.019 310.898)" fill="#00C1FE" fill-opacity=".41"
        style="mix-blend-mode:multiply"/>
  <rect width="28.159" height="62.102" rx="2" transform="matrix(-1 0 0 1 258.207 297.395)" stroke="#003E6E"
        stroke-width="2"/>
  <rect x=".5" y=".5" width="7.872" height="2.249" rx="1.125" transform="matrix(0 1 1 0 251.709 301.195)"
        stroke="#003E6E"/>
  <rect width="8.872" height="2.43" rx="1.215" transform="matrix(0 1 1 0 250.903 301.195)" fill="#00C1FE"
        fill-opacity=".5"/>
  <rect width="8.872" height="2.43" rx="1.215" transform="matrix(0 1 1 0 242.239 301.195)" fill="#00C1FE"
        fill-opacity=".5"/>
  <rect width="8.872" height="2.43" rx="1.215" transform="matrix(0 1 1 0 246.571 316.406)" fill="#00C1FE"
        fill-opacity=".5"/>
  <rect width="8.872" height="2.43" rx="1.215" transform="matrix(0 1 1 0 250.903 331.613)" fill="#00C1FE"
        fill-opacity=".5"/>
  <rect width="8.872" height="2.43" rx="1.215" transform="matrix(0 1 1 0 246.162 331.613)" fill="#00C1FE"
        fill-opacity=".5"/>
  <rect width="8.872" height="2.43" rx="1.215" transform="matrix(0 1 1 0 242.239 346.824)" fill="#00C1FE"
        fill-opacity=".5"/>
  <rect width="8.872" height="2.43" rx="1.215" transform="matrix(0 1 1 0 250.494 346.824)" fill="#00C1FE"
        fill-opacity=".5"/>
  <rect x=".5" y=".5" width="7.872" height="2.249" rx="1.125" transform="matrix(0 1 1 0 251.709 316.406)"
        stroke="#003E6E"/>
  <rect x=".5" y=".5" width="7.872" height="2.249" rx="1.125" transform="matrix(0 1 1 0 251.709 331.613)"
        stroke="#003E6E"/>
  <rect x=".5" y=".5" width="7.872" height="2.249" rx="1.125" transform="matrix(0 1 1 0 251.709 346.824)"
        stroke="#003E6E"/>
  <rect x=".5" y=".5" width="7.872" height="2.249" rx="1.125" transform="matrix(0 1 1 0 247.376 301.195)"
        stroke="#003E6E"/>
  <rect x=".5" y=".5" width="7.872" height="2.249" rx="1.125" transform="matrix(0 1 1 0 247.376 316.406)"
        stroke="#003E6E"/>
  <rect x=".5" y=".5" width="7.872" height="2.249" rx="1.125" transform="matrix(0 1 1 0 247.376 331.613)"
        stroke="#003E6E"/>
  <rect x=".5" y=".5" width="7.872" height="2.249" rx="1.125" transform="matrix(0 1 1 0 247.376 346.824)"
        stroke="#003E6E"/>
  <rect x=".5" y=".5" width="7.872" height="2.249" rx="1.125" transform="matrix(0 1 1 0 243.044 301.195)"
        stroke="#003E6E"/>
  <rect x=".5" y=".5" width="7.872" height="2.249" rx="1.125" transform="matrix(0 1 1 0 243.044 316.406)"
        stroke="#003E6E"/>
  <rect x=".5" y=".5" width="7.872" height="2.249" rx="1.125" transform="matrix(0 1 1 0 243.044 331.613)"
        stroke="#003E6E"/>
  <rect x=".5" y=".5" width="7.872" height="2.249" rx="1.125" transform="matrix(0 1 1 0 243.044 346.824)"
        stroke="#003E6E"/>
  <rect x=".5" y=".5" width="2.802" height="2.249" rx="1.125" transform="matrix(0 1 1 0 233.297 306.266)"
        stroke="#003E6E"/>
  <rect x=".5" y=".5" width="2.802" height="2.249" rx="1.125" transform="matrix(0 1 1 0 233.297 321.477)"
        stroke="#003E6E"/>
  <rect x=".5" y=".5" width="2.802" height="2.249" rx="1.125" transform="matrix(0 1 1 0 233.297 336.684)"
        stroke="#003E6E"/>
  <rect x=".5" y=".5" width="2.802" height="2.249" rx="1.125" transform="matrix(0 1 1 0 233.297 351.891)"
        stroke="#003E6E"/>
  <path stroke="#003E6E" d="M258.207 313.371h-28.159M258.207 328.578h-28.159M258.207 343.789h-28.159"/>
  <path fill-rule="evenodd" clip-rule="evenodd"
        d="M43.643 384.696c.28 0 .55.13.748.363.199.232.31.547.31.876v.215c.002.64.164 1.266.466 1.799.302.534.731.953 1.234 1.205.09.045.184.075.28.09.457.187.949.233 1.427.131a2.689 2.689 0 0 0 1.461-.883l.008-.009.064-.075c.098-.115.215-.207.344-.269a.932.932 0 0 1 .405-.095c.14 0 .277.033.406.095.128.062.245.154.343.269l.001.001c.098.115.176.251.23.402a1.418 1.418 0 0 1 0 .948 1.262 1.262 0 0 1-.23.402l-.072.085a3.502 3.502 0 0 0-.755 1.71 3.802 3.802 0 0 0 .18 1.875c.197.602.54 1.124.99 1.5a2.544 2.544 0 0 0 1.566.611l.025.001h.095c.28 0 .55.13.748.362.199.233.31.548.31.876 0 .329-.111.644-.31.876a.988.988 0 0 1-.748.363h-.184a2.518 2.518 0 0 0-1.538.546 3.209 3.209 0 0 0-1.027 1.437 3.797 3.797 0 0 0-.192 1.905c.1.645.363 1.241.755 1.71l.008.009.064.075c.098.115.177.252.23.402a1.425 1.425 0 0 1 0 .949c-.053.15-.131.287-.23.402v.001a1.06 1.06 0 0 1-.344.268.918.918 0 0 1-.81 0 1.06 1.06 0 0 1-.344-.268l-.072-.085c-.401-.458-.91-.766-1.461-.883a2.431 2.431 0 0 0-1.603.211c-.515.23-.96.632-1.282 1.158a3.663 3.663 0 0 0-.522 1.832V408.23c0 .328-.112.643-.31.876a.987.987 0 0 1-.75.362c-.28 0-.549-.13-.748-.362a1.356 1.356 0 0 1-.31-.876v-.216a3.693 3.693 0 0 0-.466-1.799 2.961 2.961 0 0 0-1.228-1.202 2.429 2.429 0 0 0-1.628-.224 2.695 2.695 0 0 0-1.461.883l-.008.01-.064.074a1.064 1.064 0 0 1-.344.269.918.918 0 0 1-.81 0 1.06 1.06 0 0 1-.344-.268v-.001a1.275 1.275 0 0 1-.23-.402 1.429 1.429 0 0 1 0-.949c.053-.15.13-.287.23-.402l.071-.085a3.5 3.5 0 0 0 .755-1.709 3.8 3.8 0 0 0-.191-1.905 3.217 3.217 0 0 0-1.027-1.438 2.523 2.523 0 0 0-1.538-.545h-.1a.988.988 0 0 1-.748-.363 1.352 1.352 0 0 1-.31-.876c0-.328.111-.643.31-.876a.987.987 0 0 1 .748-.362h.185a2.53 2.53 0 0 0 1.537-.546 3.215 3.215 0 0 0 1.03-1.444 1.4 1.4 0 0 0 .076-.327c.16-.535.2-1.11.113-1.671a3.502 3.502 0 0 0-.755-1.709l-.008-.01-.064-.074a1.268 1.268 0 0 1-.23-.403 1.418 1.418 0 0 1 0-.948c.053-.151.132-.287.23-.402v-.001c.1-.115.216-.207.344-.269a.918.918 0 0 1 .81 0c.13.062.246.154.344.269l.073.084c.4.459.91.766 1.46.883a2.43 2.43 0 0 0 1.628-.224c.501-.252.928-.67 1.229-1.202a3.688 3.688 0 0 0 .466-1.799v-.116c0-.329.112-.644.31-.876a.985.985 0 0 1 .749-.363zm-7.833 16.102-.968.5a.933.933 0 0 1 .047.469.858.858 0 0 1-.182.415l-.058.068c-.295.345-.53.755-.69 1.206-.159.451-.241.935-.241 1.423 0 .489.082.972.242 1.423.16.451.394.861.69 1.206l.747-.876-.749.875c.295.346.645.62 1.031.807.385.187.799.283 1.216.283.417 0 .83-.096 1.216-.283a3.198 3.198 0 0 0 1.03-.806l.059-.069a.666.666 0 0 1 .355-.213.601.601 0 0 1 .4.056l.01.005a.729.729 0 0 1 .303.296c.074.13.114.283.115.439v.208c0 .985.334 1.93.93 2.627.595.697 1.403 1.089 2.245 1.089.842 0 1.65-.392 2.245-1.089.596-.697.93-1.642.93-2.627v-.094a.895.895 0 0 1 .128-.438.712.712 0 0 1 .322-.288.758.758 0 0 0 .062-.029.6.6 0 0 1 .4-.056.666.666 0 0 1 .356.213l.058.068c.295.346.645.62 1.03.807a2.78 2.78 0 0 0 1.217.283c.417 0 .83-.096 1.216-.283a3.199 3.199 0 0 0 1.03-.806c.295-.345.529-.755.689-1.206.16-.451.242-.934.242-1.423 0-.488-.083-.972-.242-1.423a3.811 3.811 0 0 0-.69-1.206l-.058-.068a.86.86 0 0 1-.182-.415.933.933 0 0 1 .048-.469l.005-.012a.79.79 0 0 1 .252-.354.622.622 0 0 1 .375-.134h.178c.842 0 1.65-.391 2.245-1.088.596-.697.93-1.642.93-2.628 0-.985-.334-1.93-.93-2.627-.595-.697-1.403-1.089-2.245-1.089h-.08a.618.618 0 0 1-.375-.149.807.807 0 0 1-.245-.377 1.277 1.277 0 0 0-.025-.073.93.93 0 0 1-.048-.469.86.86 0 0 1 .182-.415l.058-.068a3.81 3.81 0 0 0 .69-1.206c.16-.451.241-.935.241-1.423s-.082-.972-.242-1.423a3.805 3.805 0 0 0-.689-1.205 3.17 3.17 0 0 0-1.03-.806 2.78 2.78 0 0 0-1.216-.284c-.417 0-.83.097-1.216.284a3.198 3.198 0 0 0-1.03.806l-.058.068a.66.66 0 0 1-.355.213.595.595 0 0 1-.401-.056.97.97 0 0 0-.21-.079.76.76 0 0 1-.188-.221.91.91 0 0 1-.114-.44v-.207c0-.986-.335-1.931-.93-2.628-.596-.697-1.403-1.088-2.245-1.088-.843 0-1.65.391-2.246 1.088-.595.697-.93 1.642-.93 2.628v.108c0 .156-.04.309-.114.439a.729.729 0 0 1-.303.296l-.01.005a.595.595 0 0 1-.4.056.666.666 0 0 1-.356-.213l-.058-.068a3.188 3.188 0 0 0-1.03-.807 2.78 2.78 0 0 0-1.216-.283c-.418 0-.83.096-1.216.283a3.188 3.188 0 0 0-1.031.807 3.81 3.81 0 0 0-.688 1.205c-.16.451-.242.935-.242 1.423s.082.972.242 1.423c.16.451.393.86.688 1.205 0 .001 0 0 0 0l.059.069a.86.86 0 0 1 .182.415.932.932 0 0 1-.048.469c-.03.079-.052.162-.067.246a.745.745 0 0 1-.19.219.615.615 0 0 1-.375.134h-.177c-.843 0-1.65.392-2.246 1.089-.595.697-.93 1.642-.93 2.627 0 .986.335 1.931.93 2.628.596.697 1.403 1.088 2.246 1.088h.092a.616.616 0 0 1 .376.134c.111.087.2.21.252.354l.973-.488z"
        fill="#B2ECFF"/>
  <path fill-rule="evenodd" clip-rule="evenodd"
        d="M44.139 390.484a2 2 0 1 1 0 4 2 2 0 0 1 0-4zm4 2a4 4 0 1 0-8 0 4 4 0 0 0 8 0z" fill="#003E6E"/>
  <path fill-rule="evenodd" clip-rule="evenodd"
        d="M44.139 382.484a1.002 1.002 0 0 1 1 1v.174a2.651 2.651 0 0 0 1.606 2.426c.085.036.174.06.264.072a2.652 2.652 0 0 0 2.73-.607l.007-.007.06-.061a1.012 1.012 0 0 1 .708-.293 1.006 1.006 0 0 1 .707.293l.001.001a1.003 1.003 0 0 1 .217 1.09.996.996 0 0 1-.217.325l-.068.068a2.65 2.65 0 0 0-.542 2.894 2.646 2.646 0 0 0 2.414 1.705H53.139a1.002 1.002 0 0 1 1 1 .997.997 0 0 1-1 1h-.174a2.653 2.653 0 0 0-2.423 1.601 2.652 2.652 0 0 0 .532 2.919l.008.008.06.059a1.008 1.008 0 0 1 .294.708.997.997 0 0 1-.294.708v.001a1.01 1.01 0 0 1-.708.293 1.006 1.006 0 0 1-.707-.293l-.069-.069a2.656 2.656 0 0 0-2.894-.542 2.645 2.645 0 0 0-1.705 2.414V401.484a.997.997 0 0 1-1 1 .998.998 0 0 1-1-1V401.31a2.65 2.65 0 0 0-1.601-2.423 2.652 2.652 0 0 0-2.918.533l-.008.007-.06.06a1.006 1.006 0 0 1-1.415.001l-.001-.001a.997.997 0 0 1-.217-1.091c.05-.121.124-.231.217-.324l.068-.068a2.654 2.654 0 0 0 .532-2.918 2.648 2.648 0 0 0-2.423-1.602h-.094a.998.998 0 0 1-.707-1.707c.188-.187.442-.293.707-.293H35.313a2.652 2.652 0 0 0 2.425-1.606.993.993 0 0 0 .073-.264 2.65 2.65 0 0 0-.607-2.729l-.008-.008-.06-.06a.999.999 0 0 1 0-1.415v-.001a.995.995 0 0 1 1.091-.217c.121.05.232.124.325.217l.068.068a2.652 2.652 0 0 0 2.918.532 2.647 2.647 0 0 0 1.601-2.423v-.094a1.001 1.001 0 0 1 1-1zm-7.4 13-.915.404a.652.652 0 0 1-.127.714l-.055.055a3 3 0 0 0 0 4.245l.707-.708-.707.707a3 3 0 0 0 4.244 0s0 .001 0 0l.055-.055a.652.652 0 0 1 .714-.127l.01.005a.647.647 0 0 1 .394.593v.167a3.002 3.002 0 0 0 5.121 2.122 3.002 3.002 0 0 0 .879-2.122v-.075a.65.65 0 0 1 .425-.586.656.656 0 0 0 .059-.024.655.655 0 0 1 .714.127l.055.055a3 3 0 1 0 4.244-4.244l-.055-.055a.649.649 0 0 1-.127-.714l.004-.01a.653.653 0 0 1 .593-.394h.168a3.002 3.002 0 0 0 3-3 3.001 3.001 0 0 0-3-3h-.076a.644.644 0 0 1-.585-.425.879.879 0 0 0-.024-.058.652.652 0 0 1 .127-.714l.055-.055a3.007 3.007 0 0 0 .88-2.123 2.996 2.996 0 0 0-.88-2.122c-.278-.278-.61-.5-.973-.651a3.018 3.018 0 0 0-2.298 0 3.003 3.003 0 0 0-.974.652l-.054.054a.646.646 0 0 1-.714.128.939.939 0 0 0-.199-.064.658.658 0 0 1-.285-.534v-.168a3.001 3.001 0 0 0-6 0v.088a.653.653 0 0 1-.394.593l-.01.004a.639.639 0 0 1-.378.045.637.637 0 0 1-.336-.172l-.054-.054a3.001 3.001 0 0 0-3.272-.652 3.003 3.003 0 0 0-.973 4.895c0 .001 0 0 0 0l.055.056a.648.648 0 0 1 .127.714.988.988 0 0 0-.064.198.648.648 0 0 1-.534.285h-.167a2.999 2.999 0 0 0-3 3 3.002 3.002 0 0 0 3 3h.087a.653.653 0 0 1 .593.394l.92-.394z"
        fill="#003E6E"/>
  <path d="M377.83 129.516a2 2 0 0 1 2-2h20v16h-22v-14zM439.83 127.516h20a2 2 0 0 1 2 2v14h-22v-16zM399.83 78.516a2 2 0 0 1 2-2h36a2 2 0 0 1 2 2v65h-40v-65zM403.83 60.516a2 2 0 0 1 2-2h28a2 2 0 0 1 2 2v16h-32v-16zM407.83 46.516a2 2 0 0 1 2-2h20a2 2 0 0 1 2 2v12h-24v-12z"
        stroke="#003E6E" stroke-width="2"/>
  <rect x="413.33" y="49.016" width="5" height="2" rx="1" stroke="#003E6E"/>
  <rect x="413.33" y="54.016" width="5" height="2" rx="1" stroke="#003E6E"/>
  <rect x="409.33" y="65.016" width="5" height="2" rx="1" stroke="#003E6E"/>
  <rect x="409.33" y="70.016" width="5" height="2" rx="1" stroke="#003E6E"/>
  <rect x="405.33" y="82.016" width="5" height="2" rx="1" stroke="#003E6E"/>
  <rect x="405.33" y="87.016" width="5" height="2" rx="1" stroke="#003E6E"/>
  <rect x="405.33" y="92.016" width="5" height="2" rx="1" stroke="#003E6E"/>
  <rect x="405.33" y="97.016" width="5" height="2" rx="1" stroke="#003E6E"/>
  <rect x="405.33" y="102.016" width="5" height="2" rx="1" stroke="#003E6E"/>
  <rect x="405.33" y="107.016" width="5" height="2" rx="1" stroke="#003E6E"/>
  <rect x="405.33" y="112.016" width="5" height="2" rx="1" stroke="#003E6E"/>
  <rect x="405.33" y="117.016" width="5" height="2" rx="1" stroke="#003E6E"/>
  <rect x="405.33" y="122.016" width="5" height="2" rx="1" stroke="#003E6E"/>
  <rect x="405.33" y="127.016" width="5" height="2" rx="1" stroke="#003E6E"/>
  <rect x="405.33" y="132.016" width="5" height="2" rx="1" stroke="#003E6E"/>
  <rect x="383.33" y="137.016" width="5" height="2" rx="1" stroke="#003E6E"/>
  <rect x="444.33" y="137.016" width="5" height="2" rx="1" stroke="#003E6E"/>
  <rect x="383.33" y="132.016" width="5" height="2" rx="1" stroke="#003E6E"/>
  <rect x="444.33" y="132.016" width="5" height="2" rx="1" stroke="#003E6E"/>
  <rect x="425.33" y="65.016" width="5" height="2" rx="1" stroke="#003E6E"/>
  <rect x="425.33" y="70.016" width="5" height="2" rx="1" stroke="#003E6E"/>
  <rect x="421.33" y="82.016" width="5" height="2" rx="1" stroke="#003E6E"/>
  <rect x="421.33" y="87.016" width="5" height="2" rx="1" stroke="#003E6E"/>
  <rect x="421.33" y="92.016" width="5" height="2" rx="1" stroke="#003E6E"/>
  <rect x="421.33" y="97.016" width="5" height="2" rx="1" stroke="#003E6E"/>
  <rect x="421.33" y="102.016" width="5" height="2" rx="1" stroke="#003E6E"/>
  <rect x="421.33" y="107.016" width="5" height="2" rx="1" stroke="#003E6E"/>
  <rect x="421.33" y="112.016" width="5" height="2" rx="1" stroke="#003E6E"/>
  <rect x="421.33" y="117.016" width="5" height="2" rx="1" stroke="#003E6E"/>
  <rect x="421.33" y="122.016" width="5" height="2" rx="1" stroke="#003E6E"/>
  <rect x="421.33" y="127.016" width="5" height="2" rx="1" stroke="#003E6E"/>
  <rect x="421.33" y="132.016" width="5" height="2" rx="1" stroke="#003E6E"/>
  <rect x="429.33" y="82.016" width="5" height="2" rx="1" stroke="#003E6E"/>
  <rect x="429.33" y="87.016" width="5" height="2" rx="1" stroke="#003E6E"/>
  <rect x="429.33" y="92.016" width="5" height="2" rx="1" stroke="#003E6E"/>
  <rect x="429.33" y="97.016" width="5" height="2" rx="1" stroke="#003E6E"/>
  <rect x="429.33" y="102.016" width="5" height="2" rx="1" stroke="#003E6E"/>
  <rect x="429.33" y="107.016" width="5" height="2" rx="1" stroke="#003E6E"/>
  <rect x="429.33" y="112.016" width="5" height="2" rx="1" stroke="#003E6E"/>
  <rect x="429.33" y="117.016" width="5" height="2" rx="1" stroke="#003E6E"/>
  <rect x="429.33" y="122.016" width="5" height="2" rx="1" stroke="#003E6E"/>
  <rect x="429.33" y="127.016" width="5" height="2" rx="1" stroke="#003E6E"/>
  <rect x="429.33" y="132.016" width="5" height="2" rx="1" stroke="#003E6E"/>
  <path d="M428.33 143.016h-17v-6h17v6z" stroke="#003E6E"/>
  <rect x="421.33" y="49.016" width="5" height="2" rx="1" stroke="#003E6E"/>
  <rect x="421.33" y="54.016" width="5" height="2" rx="1" stroke="#003E6E"/>
  <rect x="417.33" y="65.016" width="5" height="2" rx="1" stroke="#003E6E"/>
  <rect x="417.33" y="70.016" width="5" height="2" rx="1" stroke="#003E6E"/>
  <rect x="413.33" y="82.016" width="5" height="2" rx="1" stroke="#003E6E"/>
  <rect x="413.33" y="87.016" width="5" height="2" rx="1" stroke="#003E6E"/>
  <rect x="413.33" y="92.016" width="5" height="2" rx="1" stroke="#003E6E"/>
  <rect x="413.33" y="97.016" width="5" height="2" rx="1" stroke="#003E6E"/>
  <rect x="413.33" y="102.016" width="5" height="2" rx="1" stroke="#003E6E"/>
  <rect x="413.33" y="107.016" width="5" height="2" rx="1" stroke="#003E6E"/>
  <rect x="413.33" y="112.016" width="5" height="2" rx="1" stroke="#003E6E"/>
  <rect x="413.33" y="117.016" width="5" height="2" rx="1" stroke="#003E6E"/>
  <rect x="413.33" y="122.016" width="5" height="2" rx="1" stroke="#003E6E"/>
  <rect x="413.33" y="127.016" width="5" height="2" rx="1" stroke="#003E6E"/>
  <rect x="413.33" y="132.016" width="5" height="2" rx="1" stroke="#003E6E"/>
  <rect x="391.33" y="137.016" width="5" height="2" rx="1" stroke="#003E6E"/>
  <rect x="452.33" y="137.016" width="5" height="2" rx="1" stroke="#003E6E"/>
  <rect x="391.33" y="132.016" width="5" height="2" rx="1" stroke="#003E6E"/>
  <rect x="452.33" y="132.016" width="5" height="2" rx="1" stroke="#003E6E"/>
  <path d="m419.83 28.516 1 17h-2l1-17z" fill="#003E6E"/>
  <path d="M348.83 92.516a2 2 0 0 1 2-2h25a2 2 0 0 1 2 2v51h-29v-51z" stroke="#003E6E" stroke-width="2"/>
  <rect x="352.33" y="95.016" width="22" height="2" rx="1" stroke="#003E6E"/>
  <rect x="338.33" y="70.016" width="7" height="4" rx="1.5" stroke="#003E6E"/>
  <rect x="313.33" y="47.016" width="7" height="2" rx="1" stroke="#003E6E"/>
  <rect x="313.33" y="52.016" width="7" height="2" rx="1" stroke="#003E6E"/>
  <rect x="313.33" y="57.016" width="7" height="2" rx="1" stroke="#003E6E"/>
  <rect x="313.33" y="62.016" width="7" height="2" rx="1" stroke="#003E6E"/>
  <rect x="313.33" y="67.016" width="7" height="2" rx="1" stroke="#003E6E"/>
  <rect x="313.33" y="72.016" width="7" height="2" rx="1" stroke="#003E6E"/>
  <rect x="313.33" y="77.016" width="7" height="2" rx="1" stroke="#003E6E"/>
  <rect x="313.33" y="82.016" width="7" height="2" rx="1" stroke="#003E6E"/>
  <rect x="313.33" y="87.016" width="7" height="2" rx="1" stroke="#003E6E"/>
  <rect x="313.33" y="92.016" width="7" height="2" rx="1" stroke="#003E6E"/>
  <rect x="313.33" y="97.016" width="7" height="2" rx="1" stroke="#003E6E"/>
  <rect x="313.33" y="102.016" width="7" height="2" rx="1" stroke="#003E6E"/>
  <rect x="313.33" y="107.016" width="7" height="2" rx="1" stroke="#003E6E"/>
  <rect x="313.33" y="112.016" width="7" height="2" rx="1" stroke="#003E6E"/>
  <rect x="313.33" y="117.016" width="7" height="2" rx="1" stroke="#003E6E"/>
  <rect x="313.33" y="122.016" width="7" height="2" rx="1" stroke="#003E6E"/>
  <rect x="325.33" y="47.016" width="7" height="2" rx="1" stroke="#003E6E"/>
  <rect x="325.33" y="52.016" width="7" height="2" rx="1" stroke="#003E6E"/>
  <rect x="325.33" y="57.016" width="7" height="2" rx="1" stroke="#003E6E"/>
  <rect x="325.33" y="62.016" width="7" height="2" rx="1" stroke="#003E6E"/>
  <rect x="325.33" y="67.016" width="7" height="2" rx="1" stroke="#003E6E"/>
  <rect x="325.33" y="72.016" width="7" height="2" rx="1" stroke="#003E6E"/>
  <rect x="325.33" y="77.016" width="7" height="2" rx="1" stroke="#003E6E"/>
  <rect x="325.33" y="82.016" width="7" height="2" rx="1" stroke="#003E6E"/>
  <rect x="325.33" y="87.016" width="7" height="2" rx="1" stroke="#003E6E"/>
  <rect x="325.33" y="92.016" width="7" height="2" rx="1" stroke="#003E6E"/>
  <rect x="325.33" y="97.016" width="7" height="2" rx="1" stroke="#003E6E"/>
  <rect x="325.33" y="102.016" width="7" height="2" rx="1" stroke="#003E6E"/>
  <rect x="325.33" y="107.016" width="7" height="2" rx="1" stroke="#003E6E"/>
  <rect x="325.33" y="112.016" width="7" height="2" rx="1" stroke="#003E6E"/>
  <rect x="325.33" y="117.016" width="7" height="2" rx="1" stroke="#003E6E"/>
  <rect x="325.33" y="122.016" width="7" height="2" rx="1" stroke="#003E6E"/>
  <rect x="352.33" y="70.016" width="7" height="4" rx="1.5" stroke="#003E6E"/>
  <rect x="352.33" y="103.016" width="22" height="2" rx="1" stroke="#003E6E"/>
  <rect x="338.33" y="82.016" width="7" height="4" rx="1.5" stroke="#003E6E"/>
  <rect x="352.33" y="82.016" width="7" height="4" rx="1.5" stroke="#003E6E"/>
  <rect x="352.33" y="111.016" width="22" height="2" rx="1" stroke="#003E6E"/>
  <rect x="338.33" y="94.016" width="7" height="4" rx="1.5" stroke="#003E6E"/>
  <rect x="352.33" y="119.016" width="22" height="2" rx="1" stroke="#003E6E"/>
  <rect x="338.33" y="106.016" width="7" height="4" rx="1.5" stroke="#003E6E"/>
  <rect x="352.33" y="127.016" width="22" height="2" rx="1" stroke="#003E6E"/>
  <rect x="338.33" y="118.016" width="7" height="4" rx="1.5" stroke="#003E6E"/>
  <path stroke="#003E6E" d="M364.33 135.016h6v8h-6z"/>
  <path d="M365.379 135.77h2.407v6.77h-2.407v-6.77zM324.293 135.77h2.407v6.77h-2.407v-6.77zM317.376 136.129h4.324v6.77h-4.324v-6.77z"
        fill="#A3E2FE"/>
  <path stroke="#003E6E" d="M316.33 135.016h6v8h-6zM323.33 135.016h6v8h-6z"/>
  <path stroke="#003E6E" stroke-width="2" d="M304.83 130.516h35v13h-35zM310.83 43.516h24v87h-24z"/>
  <path stroke="#003E6E" d="M320.33 17.016h5v6h-5z"/>
  <path fill-rule="evenodd" clip-rule="evenodd"
        d="m319.941 23.516-9.63 20-.481 1h26l-.482-1-9.629-20h-1.11l9.629 20h-22.817l9.63-20h-1.11z" fill="#003E6E"/>
  <path d="m322.83.516 1 17h-2l1-17z" fill="#003E6E"/>
  <path fill-rule="evenodd" clip-rule="evenodd"
        d="M336.83 62.516a3 3 0 0 0-3 3v64h2v-64a1 1 0 0 1 1-1h24a1 1 0 0 1 1 1v25h2v-25a3 3 0 0 0-3-3h-24zm12 82v-2h-8.5v2h8.5z"
        fill="#003E6E"/>
  <rect x="324.101" y="121.152" width="7.334" height="2.724" rx="1.362" fill="#00C1FE" fill-opacity=".3"
        style="mix-blend-mode:multiply"/>
  <rect x="351.83" y="111.516" width="19" height="2.724" rx="1.362" fill="#00C1FE" fill-opacity=".3"
        style="mix-blend-mode:multiply"/>
  <rect x="355.83" y="95.531" width="19" height="2.724" rx="1.362" fill="#00C1FE" fill-opacity=".3"
        style="mix-blend-mode:multiply"/>
  <rect x="339.84" y="82.949" width="6.57" height="3.566" rx="1.783" fill="#00C1FE" fill-opacity=".3"
        style="mix-blend-mode:multiply"/>
  <rect x="338.545" y="71.742" width="6.57" height="3.566" rx="1.783" fill="#00C1FE" fill-opacity=".3"
        style="mix-blend-mode:multiply"/>
  <rect x="357.753" y="127.5" width="17.077" height="3.566" rx="1.783" fill="#00C1FE" fill-opacity=".3"
        style="mix-blend-mode:multiply"/>
  <rect x="409.259" y="69.234" width="6.57" height="3.566" rx="1.783" fill="#00C1FE" fill-opacity=".3"
        style="mix-blend-mode:multiply"/>
  <rect x="425.259" y="69.988" width="6.57" height="3.144" rx="1.572" fill="#00C1FE" fill-opacity=".5"
        style="mix-blend-mode:multiply"/>
  <rect x="417.259" y="63.852" width="6.57" height="3.144" rx="1.572" fill="#00C1FE" fill-opacity=".3"
        style="mix-blend-mode:multiply"/>
  <rect x="421.545" y="52.945" width="6.57" height="3.144" rx="1.572" fill="#00C1FE" fill-opacity=".3"
        style="mix-blend-mode:multiply"/>
  <rect x="405.545" y="82.129" width="5.669" height="2.703" rx="1.352" fill="#00C1FE" fill-opacity=".3"
        style="mix-blend-mode:multiply"/>
  <rect x="413.161" y="86.125" width="5.669" height="2.703" rx="1.352" fill="#00C1FE" fill-opacity=".3"
        style="mix-blend-mode:multiply"/>
  <rect x="421.161" y="91.106" width="5.669" height="2.703" rx="1.352" fill="#00C1FE" fill-opacity=".3"
        style="mix-blend-mode:multiply"/>
  <rect x="428.996" y="96.086" width="5.669" height="2.703" rx="1.352" fill="#00C1FE" fill-opacity=".3"
        style="mix-blend-mode:multiply"/>
  <rect x="413.161" y="97.438" width="5.669" height="2.703" rx="1.352" fill="#00C1FE" fill-opacity=".3"
        style="mix-blend-mode:multiply"/>
  <rect x="405.545" y="101.094" width="5.669" height="2.703" rx="1.352" fill="#00C1FE" fill-opacity=".3"
        style="mix-blend-mode:multiply"/>
  <rect x="405.545" y="123.016" width="5.669" height="2.703" rx="1.352" fill="#00C1FE" fill-opacity=".5"
        style="mix-blend-mode:multiply"/>
  <rect x="413.549" y="106.516" width="5.669" height="2.703" rx="1.352" fill="#00C1FE" fill-opacity=".5"
        style="mix-blend-mode:multiply"/>
  <rect x="421.161" y="111.105" width="5.669" height="2.703" rx="1.352" fill="#00C1FE" fill-opacity=".3"
        style="mix-blend-mode:multiply"/>
  <rect x="412.996" y="120.988" width="5.669" height="2.703" rx="1.352" fill="#00C1FE" fill-opacity=".5"
        style="mix-blend-mode:multiply"/>
  <rect x="421.996" y="131.066" width="5.669" height="2.703" rx="1.352" fill="#00C1FE" fill-opacity=".5"
        style="mix-blend-mode:multiply"/>
  <rect x="412.545" y="132.418" width="5.669" height="2.703" rx="1.352" fill="#00C1FE" fill-opacity=".5"
        style="mix-blend-mode:multiply"/>
  <rect x="444.161" y="136.312" width="5.669" height="2.703" rx="1.352" fill="#00C1FE" fill-opacity=".5"
        style="mix-blend-mode:multiply"/>
  <rect x="452.161" y="135.516" width="5.669" height="2.703" rx="1.352" fill="#00C1FE" fill-opacity=".5"
        style="mix-blend-mode:multiply"/>
  <rect x="443.83" y="129.715" width="12.669" height="2.703" rx="1.352" fill="#00C1FE" fill-opacity=".5"
        style="mix-blend-mode:multiply"/>
  <rect x="429.161" y="126.164" width="5.669" height="2.703" rx="1.352" fill="#00C1FE" fill-opacity=".3"
        style="mix-blend-mode:multiply"/>
  <rect x="353.259" y="83.016" width="6.57" height="3.566" rx="1.783" fill="#00C1FE" fill-opacity=".3"
        style="mix-blend-mode:multiply"/>
  <rect x="339.84" y="106.516" width="6.57" height="3.566" rx="1.783" fill="#00C1FE" fill-opacity=".3"
        style="mix-blend-mode:multiply"/>
  <rect x="325.496" y="116.152" width="7.334" height="2.724" rx="1.362" fill="#00C1FE" fill-opacity=".3"
        style="mix-blend-mode:multiply"/>
  <rect x="313.163" y="110.793" width="7.334" height="2.724" rx="1.362" fill="#00C1FE" fill-opacity=".4"
        style="mix-blend-mode:multiply"/>
  <rect x="324.293" y="110.91" width="7.334" height="2.724" rx="1.362" fill="#00C1FE" fill-opacity=".4"
        style="mix-blend-mode:multiply"/>
  <rect x="325.163" y="100.793" width="7.334" height="2.724" rx="1.362" fill="#00C1FE" fill-opacity=".4"
        style="mix-blend-mode:multiply"/>
  <rect x="314.996" y="102.152" width="7.334" height="2.724" rx="1.362" fill="#00C1FE" fill-opacity=".4"
        style="mix-blend-mode:multiply"/>
  <rect x="322.33" y="93.016" width="7.334" height="2.724" rx="1.362" fill="#00C1FE" fill-opacity=".4"
        style="mix-blend-mode:multiply"/>
  <rect x="314.496" y="50.793" width="7.334" height="2.724" rx="1.362" fill="#00C1FE" fill-opacity=".4"
        style="mix-blend-mode:multiply"/>
  <rect x="326.496" y="52.152" width="7.334" height="2.724" rx="1.362" fill="#00C1FE" fill-opacity=".4"
        style="mix-blend-mode:multiply"/>
  <rect x="313.496" y="57.031" width="7.334" height="2.724" rx="1.362" fill="#00C1FE" fill-opacity=".4"
        style="mix-blend-mode:multiply"/>
  <rect x="325.163" y="61.125" width="7.334" height="2.724" rx="1.362" fill="#00C1FE" fill-opacity=".4"
        style="mix-blend-mode:multiply"/>
  <rect x="324.293" y="65.633" width="7.334" height="2.724" rx="1.362" fill="#00C1FE" fill-opacity=".4"
        style="mix-blend-mode:multiply"/>
  <rect x="313.496" y="71.438" width="7.334" height="2.724" rx="1.362" fill="#00C1FE" fill-opacity=".4"
        style="mix-blend-mode:multiply"/>
  <rect x="324.293" y="72.586" width="7.334" height="2.724" rx="1.362" fill="#00C1FE" fill-opacity=".4"
        style="mix-blend-mode:multiply"/>
  <rect x="314.496" y="78.016" width="7.334" height="2.724" rx="1.362" fill="#00C1FE" fill-opacity=".4"
        style="mix-blend-mode:multiply"/>
  <rect x="324.101" y="76.473" width="7.334" height="2.724" rx="1.362" fill="#00C1FE" fill-opacity=".4"
        style="mix-blend-mode:multiply"/>
  <rect x="314.996" y="85.867" width="7.334" height="2.724" rx="1.362" fill="#00C1FE" fill-opacity=".4"
        style="mix-blend-mode:multiply"/>
  <rect x="324.101" y="87.016" width="7.334" height="2.724" rx="1.362" fill="#00C1FE" fill-opacity=".4"
        style="mix-blend-mode:multiply"/>
  <path stroke="#00C1FE" stroke-dasharray="1 1" d="M253.851 58.395v37.122"/>
  <path fill-rule="evenodd" clip-rule="evenodd"
        d="m245.971 137.968.902.432a51.989 51.989 0 0 0-.8 1.754l-.917-.399c.26-.599.532-1.195.815-1.787zm-1.566 3.601.931.366c-.235.598-.46 1.2-.673 1.806l-.943-.332c.217-.617.445-1.23.685-1.84zm-1.304 3.704.955.298a55.015 55.015 0 0 0-.542 1.85l-.964-.264c.172-.63.356-1.259.551-1.884zm-1.035 3.787.973.229a55.429 55.429 0 0 0-.408 1.884l-.981-.194c.127-.641.266-1.281.416-1.919zm-.763 3.852.988.159a51.264 51.264 0 0 0-.273 1.909l-.993-.124c.082-.649.174-1.297.278-1.944zm20.555 52.24.614-.789c.508.396 1.022.782 1.541 1.157l-.586.81a53.032 53.032 0 0 1-1.569-1.178zm3.181 2.3.556-.831c.536.359 1.076.707 1.622 1.044l-.527.85a53.756 53.756 0 0 1-1.651-1.063zm3.339 2.066.495-.868c.559.318 1.123.626 1.691.923l-.464.886a53.444 53.444 0 0 1-1.722-.941zm3.479 1.821c.591.283 1.187.555 1.786.816l.399-.917a54.078 54.078 0 0 1-1.754-.801l-.431.902zm3.6 1.566.366-.931c.598.236 1.201.46 1.806.673l-.332.943a53.55 53.55 0 0 1-1.84-.685zm3.704 1.304.298-.955c.614.192 1.231.373 1.85.542l-.263.964a54.113 54.113 0 0 1-1.885-.551zm3.787 1.035.229-.973c.626.147 1.254.283 1.884.408l-.194.981a55.608 55.608 0 0 1-1.919-.416zm3.852.763.159-.987c.635.102 1.271.193 1.909.272l-.124.993a55.77 55.77 0 0 1-1.944-.278zm3.896.486.089-.996c.64.057 1.281.103 1.923.137l-.053.999a55.703 55.703 0 0 1-1.959-.14zm3.921.209.018-.999c.643.011 1.286.011 1.928 0l.018.999c-.655.012-1.309.012-1.964 0zm3.926-.069-.053-.999c.642-.034 1.283-.08 1.923-.137l.089.996c-.652.058-1.305.105-1.959.14zm3.911-.348-.124-.993c.638-.079 1.274-.17 1.909-.272l.159.987a55.43 55.43 0 0 1-1.944.278zm3.877-.625-.194-.981c.63-.125 1.258-.261 1.884-.408l.229.973c-.638.15-1.277.289-1.919.416zm3.822-.9-.264-.964c.619-.169 1.236-.35 1.85-.542l.298.955c-.625.195-1.254.379-1.884.551zm3.749-1.17-.332-.943a52.365 52.365 0 0 0 1.806-.673l.365.931c-.61.24-1.223.468-1.839.685zm3.653-1.435-.399-.917a53.116 53.116 0 0 0 1.754-.801l.432.902a56.13 56.13 0 0 1-1.787.816zm3.543-1.696-.463-.886a55.518 55.518 0 0 0 1.69-.923l.495.868c-.569.325-1.143.639-1.722.941zm3.41-1.944-.526-.85a51.83 51.83 0 0 0 1.621-1.044l.557.831c-.546.365-1.097.72-1.652 1.063zm3.263-2.185-.586-.81a52.905 52.905 0 0 0 1.541-1.157l.615.789c-.518.404-1.041.796-1.57 1.178zm3.097-2.412-.642-.766c.492-.412.978-.834 1.458-1.266l.669.744c-.489.439-.984.869-1.485 1.288zm2.919-2.625-.695-.72a55.096 55.096 0 0 0 1.369-1.369l.72.695a57.138 57.138 0 0 1-1.394 1.394zm2.731-2.828-.744-.669c.432-.48.854-.966 1.266-1.458l.766.642c-.419.501-.849.996-1.288 1.485zm2.522-3.012-.789-.615c.396-.508.782-1.022 1.157-1.541l.81.586a53.072 53.072 0 0 1-1.178 1.57zm2.3-3.181-.831-.557a51.83 51.83 0 0 0 1.044-1.621l.851.526a57.135 57.135 0 0 1-1.064 1.652zm2.066-3.34-.868-.495c.318-.559.626-1.123.924-1.69l.885.463a51.393 51.393 0 0 1-.941 1.722zm1.821-3.478-.902-.432c.278-.581.545-1.165.801-1.754l.917.399a56.13 56.13 0 0 1-.816 1.787zm1.566-3.601-.931-.365c.236-.599.46-1.201.673-1.806l.943.332a54.29 54.29 0 0 1-.685 1.839zm1.304-3.704-.955-.298c.192-.614.373-1.231.542-1.85l.964.264c-.172.63-.356 1.259-.551 1.884zm1.035-3.787-.973-.229c.147-.626.283-1.254.408-1.884l.981.194a55.103 55.103 0 0 1-.416 1.919zm.763-3.852-.987-.159c.102-.635.193-1.271.273-1.909l.992.124a55.77 55.77 0 0 1-.278 1.944zm.487-3.896-.997-.089c.057-.64.103-1.281.137-1.923l.999.053a55.7 55.7 0 0 1-.139 1.959zm.208-3.921-.999-.018c.011-.643.011-1.285 0-1.928l.999-.018c.012.655.012 1.309 0 1.964zm-.069-3.926-.999.053a53.674 53.674 0 0 0-.137-1.923l.997-.089a55.7 55.7 0 0 1 .139 1.959zm-.348-3.911-.992.124a55.834 55.834 0 0 0-.273-1.909l.987-.159c.104.647.197 1.295.278 1.944zm-.625-3.877-.981.194a55.429 55.429 0 0 0-.408-1.884l.973-.229c.15.638.289 1.278.416 1.919z"
        fill="#00C1FE"/>
  <path d="m267.075 55.878-.846.132v.019h-56.276l-.74-.072c-7.787-.753-13.889-7.37-13.889-15.433 0-8.57 6.892-15.505 15.378-15.505 1.211 0 2.389.14 3.519.407l1.371.324-.147-1.402a8.173 8.173 0 0 1-.045-.862c0-4.454 3.58-8.05 7.981-8.05 2.156 0 4.111.86 5.549 2.264l1.059 1.034.564-1.367c2.796-6.767 9.416-11.515 17.129-11.515 10.236 0 18.547 8.364 18.547 18.7 0 1.57-.192 3.095-.553 4.55l-.307 1.241h.86v.02l.846.13c6.098.95 10.777 6.267 10.777 12.693 0 6.426-4.679 11.743-10.777 12.692z"
        stroke="#003E6E" stroke-width="2"/>
  <path fill-rule="evenodd" clip-rule="evenodd"
        d="M225.287 21.554c-1.177-.74-2.042-.88-2.759-.544-.9.422-1.302.782-1.481 1.01a.945.945 0 0 0-.215.604c-.014.316.049.73.207 1.384.036.148.079.315.125.497.246.965-.393 1.9-1.373 2.075l-.817.147c-.743.134-1.464-.359-1.65-1.09-.055-.215-.113-.44-.173-.69-.17-.703-.355-1.581-.315-2.495.042-.98.339-1.981 1.068-2.906.695-.884 1.69-1.578 2.927-2.158 2.58-1.209 5.006-.213 6.585.78.816.513 1.528 1.098 2.078 1.574.261.226.459.402.616.542a.71.71 0 0 1 .11.936l-1.209 1.653c-.427.584-1.232.692-1.772.213a37.83 37.83 0 0 0-.364-.32c-.494-.429-1.027-.86-1.588-1.212zM207.823 34.24c-2.213.937-4.079 2.32-5.026 4.502-.786 1.811-.185 3.728 1.481 5.616 1.081 1.224 2.449 2.23 3.682 2.902.97.53 1.588 1.648 1.285 2.71-.304 1.062-1.416 1.679-2.413 1.204-1.886-.898-3.957-2.361-5.553-4.17-2.155-2.44-3.824-6.001-2.152-9.854 1.511-3.482 4.41-5.44 7.138-6.594 2.315-.98 4.714-1.46 6.277-1.773a.72.72 0 0 1 .846.555l.51 2.414a.813.813 0 0 1-.634.967c-1.581.32-3.534.714-5.441 1.52z"
        fill="#00C1FE" fill-opacity=".3"/>
  <path d="M230.903 50.25h34.423" stroke="#00C1FE" stroke-opacity=".5" stroke-width="4"/>
  <circle cx="126.77" cy="120.515" r="3.991" fill="#89DFFF" style="mix-blend-mode:multiply"/>
  <circle cx="125.779" cy="120.516" r="5" stroke="#003E6E" stroke-width="2"/>
  <path stroke="#00C1FE" stroke-dasharray="1 1" d="M131.779 121.016h92.167M125.279 195.801v-69.285M126.279 102.516v12"/>
  <path fill="#fff" d="M112.779 54.75h26v48h-26z"/>
  <rect x="112.779" y="54.75" width="26" height="48" rx="2" stroke="#003E6E" stroke-width="2"/>
  <path fill="#003E6E" d="M113.779 55.188h24v47h-24z"/>
  <rect x="118.779" y="61.25" width="14" height="3" rx="1.5" fill="#96E5FE"/>
  <circle cx="125.779" cy="91.75" r="2.5" stroke="#fff"/>
  <circle cx="126.66" cy="90.753" r="2.491" fill="#89DFFF" style="mix-blend-mode:multiply"/>
  <rect x="119.66" y="68" width="14" height="3" rx="1.5" fill="#96E5FE"/>
  <rect x="117.996" y="75.75" width="14" height="3" rx="1.5" fill="#96E5FE"/>
  <rect x="119.279" y="63.25" width="13" height="2" rx="1" stroke="#fff"/>
  <rect x="119.279" y="69.25" width="13" height="2" rx="1" stroke="#fff"/>
  <rect x="119.279" y="75.25" width="13" height="2" rx="1" stroke="#fff"/>
  <path stroke="#00C1FE" stroke-dasharray="1 1" d="M223.279 59.754v79.761"/>
  <path fill="#fff" d="M213.151 142.539h26v49h-26z"/>
  <rect x="213.151" y="142.539" width="26" height="49" rx="2" stroke="#003E6E" stroke-width="2"/>
  <rect x="218.651" y="146.039" width="6" height="2" rx="1" transform="rotate(90 218.651 146.039)" stroke="#003E6E"/>
  <rect x="218.651" y="158.039" width="6" height="2" rx="1" transform="rotate(90 218.651 158.039)" stroke="#003E6E"/>
  <rect x="218.651" y="170.039" width="6" height="2" rx="1" transform="rotate(90 218.651 170.039)" stroke="#003E6E"/>
  <rect x="218.651" y="182.039" width="6" height="2" rx="1" transform="rotate(90 218.651 182.039)" stroke="#003E6E"/>
  <rect x="222.651" y="146.039" width="6" height="2" rx="1" transform="rotate(90 222.651 146.039)" stroke="#003E6E"/>
  <rect x="222.651" y="158.039" width="6" height="2" rx="1" transform="rotate(90 222.651 158.039)" stroke="#003E6E"/>
  <rect x="222.651" y="170.039" width="6" height="2" rx="1" transform="rotate(90 222.651 170.039)" stroke="#003E6E"/>
  <rect x="222.651" y="182.039" width="6" height="2" rx="1" transform="rotate(90 222.651 182.039)" stroke="#003E6E"/>
  <rect x="226.651" y="146.039" width="6" height="2" rx="1" transform="rotate(90 226.651 146.039)" stroke="#003E6E"/>
  <rect x="226.651" y="158.039" width="6" height="2" rx="1" transform="rotate(90 226.651 158.039)" stroke="#003E6E"/>
  <rect x="226.651" y="170.039" width="6" height="2" rx="1" transform="rotate(90 226.651 170.039)" stroke="#003E6E"/>
  <rect x="226.651" y="182.039" width="6" height="2" rx="1" transform="rotate(90 226.651 182.039)" stroke="#003E6E"/>
  <rect x="235.651" y="150.039" width="2" height="2" rx="1" transform="rotate(90 235.651 150.039)" stroke="#003E6E"/>
  <rect x="235.651" y="162.039" width="2" height="2" rx="1" transform="rotate(90 235.651 162.039)" stroke="#003E6E"/>
  <rect x="235.651" y="174.039" width="2" height="2" rx="1" transform="rotate(90 235.651 174.039)" stroke="#003E6E"/>
  <rect x="235.651" y="186.039" width="2" height="2" rx="1" transform="rotate(90 235.651 186.039)" stroke="#003E6E"/>
  <path stroke="#003E6E" d="M213.151 155.039h26M213.151 167.039h26M213.151 179.039h26"/>
  <rect x="225.651" y="153.363" width="7.648" height="3" rx="1.5" transform="rotate(-90 225.651 153.363)" fill="#00C1FE"
        fill-opacity=".41" style="mix-blend-mode:multiply"/>
  <rect x="220.151" y="165.363" width="7.648" height="3" rx="1.5" transform="rotate(-90 220.151 165.363)" fill="#00C1FE"
        fill-opacity=".41" style="mix-blend-mode:multiply"/>
  <rect x="225.401" y="175.188" width="7.648" height="3" rx="1.5" transform="rotate(-90 225.401 175.188)" fill="#00C1FE"
        fill-opacity=".41" style="mix-blend-mode:multiply"/>
  <rect x="221.151" y="188.863" width="7.648" height="3" rx="1.5" transform="rotate(-90 221.151 188.863)" fill="#00C1FE"
        fill-opacity=".41" style="mix-blend-mode:multiply"/>
  <rect x="220.151" y="153.363" width="7.648" height="3" rx="1.5" transform="rotate(-90 220.151 153.363)" fill="#00C1FE"
        fill-opacity=".41" style="mix-blend-mode:multiply"/>
  <rect x="214.651" y="165.363" width="7.648" height="3" rx="1.5" transform="rotate(-90 214.651 165.363)" fill="#00C1FE"
        fill-opacity=".41" style="mix-blend-mode:multiply"/>
  <rect x="219.901" y="175.188" width="7.648" height="3" rx="1.5" transform="rotate(-90 219.901 175.188)" fill="#00C1FE"
        fill-opacity=".41" style="mix-blend-mode:multiply"/>
  <rect x="216.151" y="178.16" width="7.648" height="3" rx="1.5" transform="rotate(-90 216.151 178.16)" fill="#00C1FE"
        fill-opacity=".41" style="mix-blend-mode:multiply"/>
  <rect x="225.401" y="189.188" width="7.648" height="3" rx="1.5" transform="rotate(-90 225.401 189.188)" fill="#00C1FE"
        fill-opacity=".41" style="mix-blend-mode:multiply"/>
  <rect x="215.651" y="188.863" width="7.648" height="3" rx="1.5" transform="rotate(-90 215.651 188.863)" fill="#00C1FE"
        fill-opacity=".41" style="mix-blend-mode:multiply"/>
  <circle cx="233.79" cy="151.587" r="1.329" fill="#89DFFF" style="mix-blend-mode:multiply"/>
  <circle cx="235.98" cy="174.337" r="1.329" fill="#89DFFF" style="mix-blend-mode:multiply"/>
  <rect x="245.351" y="98.789" width="51.468" height="35.766" rx="2" stroke="#003E6E" stroke-width="2"/>
  <rect x="260.68" y="137.672" width="20.808" height="1.617" rx=".809" stroke="#003E6E"/>
  <path fill="#003E6E" d="M269.776 134.555h2.617v2.617h-2.617z"/>
  <path d="M285.601 119.824a.749.749 0 0 1 .75-.75h1.5a.75.75 0 0 1 .75.75v9h.375a.375.375 0 0 1 0 .75h-11.25a.375.375 0 1 1 0-.75h.375v-2.25a.749.749 0 0 1 .75-.75h1.5a.75.75 0 0 1 .75.75v2.25h.75v-5.25a.749.749 0 0 1 .75-.75h1.5a.75.75 0 0 1 .75.75v5.25h.75v-9z"
        fill="#00C1FE" fill-opacity=".41"/>
  <path d="M265.34 111.278h-5.834l-4.125 4.125a6.007 6.007 0 0 0 6.266 1.044 5.998 5.998 0 0 0 3.693-5.169zm-10.489 3.594a6.003 6.003 0 0 1 1.012-8.852 5.996 5.996 0 0 1 3.113-1.106v5.834l-4.125 4.124z"
        fill="#89DFFF"/>
  <path d="M259.726 110.528v-5.614a5.998 5.998 0 0 1 5.614 5.614h-5.614z" fill="#3984BA"/>
  <path d="M286.395 113.91h-8.062v-6.703c0-.047-.043-.086-.094-.086h-.656c-.052 0-.094.039-.094.086v7.391c0 .047.042.086.094.086h8.812c.052 0 .094-.039.094-.086v-.602c0-.047-.042-.086-.094-.086zm-7.031-2.019a.66.66 0 0 0 .22.486c.14.129.331.201.53.201s.39-.072.53-.201a.66.66 0 0 0 .22-.486.66.66 0 0 0-.22-.487.788.788 0 0 0-.53-.201.788.788 0 0 0-.53.201.66.66 0 0 0-.22.487zm4.969-3.33c0 .159.069.312.192.425.123.113.29.176.464.176a.687.687 0 0 0 .464-.176.578.578 0 0 0 .192-.425.578.578 0 0 0-.192-.426.687.687 0 0 0-.464-.176.687.687 0 0 0-.464.176.578.578 0 0 0-.192.426z"
        fill="#00C1FE"/>
  <path opacity=".4"
        d="M280.911 109.849a.497.497 0 0 1-.164-.365c0-.136.059-.268.164-.364a.59.59 0 0 1 .398-.151.59.59 0 0 1 .398.151.496.496 0 0 1 .165.364c0 .137-.06.268-.165.365a.59.59 0 0 1-.398.151.59.59 0 0 1-.398-.151zM282.928 112.663a.991.991 0 0 1-.33-.729c0-.274.119-.536.33-.73a1.18 1.18 0 0 1 .795-.302c.299 0 .585.109.796.302a.99.99 0 0 1 .329.73.99.99 0 0 1-.329.729 1.181 1.181 0 0 1-.796.302 1.18 1.18 0 0 1-.795-.302z"
        fill="#00C1FE"/>
  <path d="m252.435 129.451 5.937-4.381 3.167 2.333 5.613-4.649 1.116.822-6.729 5.577-3.167-2.333-4.75 3.506-1.187-.875zm1.187-2.625 4.75-3.506 3.167 2.333 6.729-5.577-1.116-.822-5.613 4.649-3.167-2.333-5.937 4.381 1.187.875z"
        fill="#3984BA"/>
  <mask id="b" fill="#fff">
    <path fill-rule="evenodd" clip-rule="evenodd"
          d="m302.577 192.547 1.393-4.741-.68-.734c-.309-.442-.376-.828-.202-1.159.371-.718 1.134-.585 1.848-.585.746 0 1.667-.138 1.903.778.079.309-.022.629-.241.96l-.68.734 1.393 4.742-2.364 1.832-2.37-1.827zm-28.711-10.343c-1.167-1.308-1.269-2.677 0-4.123 1.466.364 2.808.988 4.043 1.832.27-.116.579-.16.882-.143 1.286-.895 2.926-1.259 4.357-1.932 1.713 1.639 1.528 3.146-.157 4.548a11.82 11.82 0 0 1-2.689-.966 2.576 2.576 0 0 1-.186.712l.438 3.576h-3.492l.438-3.576c-.276-.453-.377-.839-.365-1.165-1.011.596-2.117.983-3.269 1.237zm-4.66-19.103c-.511.022-.904.127-1.168.298a.914.914 0 0 0-.337.381 1.366 1.366 0 0 0-.112.613c.022.695.387 1.6 1.106 2.643l.011.017 2.319 3.621c.932 1.451 1.904 2.93 3.117 4.023 1.162 1.049 2.577 1.755 4.441 1.761 2.022.005 3.504-.729 4.706-1.838 1.246-1.148 2.235-2.727 3.206-4.294l2.611-4.228c.489-1.093.663-1.821.551-2.252-.068-.254-.354-.381-.843-.403-.101-.005-.208-.005-.32-.005a8.363 8.363 0 0 0-.365.022.857.857 0 0 1-.202-.011 4.024 4.024 0 0 1-.719-.039l.893-3.891c-6.632 1.026-11.595-3.814-18.609-.966l.506 4.587c-.276.005-.545 0-.792-.039zm3.077 16.172a.728.728 0 0 1-.163.16c.219 1.739.528 3.968.893 6.275h-13.791c-.988 0-1.791.911-1.64 2.021l1.915 14.267h-1.752c-1.611-.121-2.431-.938-2.572-2.362.079-6.375-2.386-14.086 4.448-17.828 2.498-1.374 8.95-1.838 11.764-3.648.409-.762.864-2.092 1.151-2.953a1.32 1.32 0 0 1 .039-.116l.028-.083c-1.033-1.092-1.881-2.379-2.69-3.648l-2.319-3.621c-.848-1.242-1.286-2.379-1.314-3.311-.011-.436.062-.839.231-1.187.174-.364.438-.673.797-.911.168-.11.354-.204.561-.281-.151-1.965-.207-4.443-.106-6.513.05-.491.146-.983.286-1.474.848-2.98 3.453-5.127 6.43-6.137 1.443-.492.887-1.662 2.347-1.579 3.459.188 8.799 2.379 10.848 4.703 2.875 3.256 2.134 7.269 2.039 11.243.64.193 1.055.59 1.224 1.241.185.718-.017 1.734-.635 3.113a.276.276 0 0 1-.039.072l-2.639 4.278c-1.017 1.65-2.05 3.3-3.431 4.57l-.067.061c.129.187.275.391.426.607.461.662.983 1.413 1.466 2.003 2.869 1.755 9.186 2.225 11.651 3.582.59.326 1.107.69 1.556 1.093.382-.331.747-.651 1.039-.916-.135-.149-.27-.304-.405-.453l-1.269-1.451-.943.022-1.797.044c-1.544-1.744-1.449-5.497-1.297-7.661.719-4.349 2.431-7.484 5.217-9.295 1.886-1.225 3.015-1.297 5.222-1.297 1.926 0 3.105-.044 4.75 1.021 5.352 3.467 7.014 11.641 4.397 17.149h-1.87l-.118.138-.168.193-.815.961c-.325.381-.651.767-1.005 1.126.45.43 1.056.955 1.612 1.435.264.226.517.441.741.64 8.372 3.279 10.214 5.188 11.236 15.802.191 1.959.169 1.871-1.741 1.91-7.069.138-16.082 0-24.235-.033l.034-.249 1.915-14.267c.151-1.11-.652-2.021-1.64-2.021h-13.482c.331-2.334.573-4.559.69-6.242-.628-.684-1.302-1.656-1.875-2.489-.129-.182-.253-.365-.371-.53-1.213.8-2.656 1.291-4.464 1.291-2.016-.005-3.582-.684-4.885-1.722-.365 1.077-.898 2.55-1.415 3.257zm27.498 4.2c2.835 3.174 2.392 8.18 2.28 12.706l2.88 4.702 7.019-11.447 3.049.072c-.707-1.402-1.55-2.655-2.493-3.831-.253-.254-.752-.684-1.291-1.148a43.094 43.094 0 0 1-1.668-1.484c-.191.16-.388.314-.601.452-.91.613-2.038 1.021-3.571 1.016-1.438 0-2.516-.398-3.403-.977a7.729 7.729 0 0 1-1.179-.966c-.303.276-.657.585-1.022.905z"/>
  </mask>
  <path d="m298.927 179.438-.479.143.062.21.197.096.22-.449zm3.235-13.599.477-.151-.246-.778-.582.572.351.357zm9.557 8.168-.448.223.448-.223zm.455 4.096.494.077v-.002l-.494-.075zm-.304 1.335.245.436.175-.098.059-.192-.479-.146zm-.426.459.373.332.003-.004-.376-.328zm-.169.198.381.325.005-.007-.386-.318zm-.82.961-.38-.325-.001.001.381.324zm-2.055 2.009-.277-.416-.002.001.279.415zm-5.873.038-.274.419h.001l.273-.419zm-1.994-1.882-.376.329v.001l.376-.33zm-1.482-1.694.376-.329-.012-.015-.014-.013-.35.357zm-26.042-4.161.039-.116-.947-.321-.039.115.947.322zm26.398 3.93c-.729-2.454-.914-4.779-.444-6.955.47-2.173 1.598-4.231 3.549-6.146l-.701-.713c-2.075 2.037-3.31 4.265-3.825 6.647-.514 2.379-.303 4.878.462 7.452l.959-.285zm2.278-13.307c.408 1.296 1.664 2.513 3.056 3.543 1.417 1.049 3.08 1.978 4.447 2.674l.453-.892c-1.345-.684-2.952-1.584-4.305-2.585-1.378-1.02-2.393-2.074-2.697-3.041l-.954.301zm7.446 6.189c.853.414 1.602.97 2.14 2.052l.896-.445c-.664-1.335-1.611-2.027-2.599-2.507l-.437.9zm2.14 2.052c.631 1.265.631 2.326.408 3.798l.989.15c.237-1.564.26-2.865-.502-4.394l-.895.446zm.409 3.796c-.07.447-.166.865-.288 1.267l.957.291c.136-.448.242-.913.319-1.404l-.988-.154zm-.054.977a.863.863 0 0 0-.244.195l.763.647a.179.179 0 0 1-.03.029l-.489-.871zm-.244.195c-.114.135-.217.257-.315.37l.753.657c.105-.119.215-.25.325-.38l-.763-.647zm-.312.366c-.044.05-.082.094-.181.213l.772.636c.093-.112.122-.146.156-.184l-.747-.665zm-.175.207-.82.96.761.649.819-.96-.76-.649zm-.821.961c-.631.743-1.216 1.427-1.951 1.917l.555.832c.871-.581 1.543-1.377 2.158-2.102l-.762-.647zm-1.953 1.918c-.686.462-1.537.776-2.742.776v1c1.401 0 2.447-.371 3.301-.947l-.559-.829zm-2.742.776c-1.092 0-1.908-.305-2.58-.742l-.545.838c.822.535 1.825.904 3.125.904v-1zm-2.578-.741c-.71-.465-1.292-1.11-1.892-1.793l-.752.659c.591.674 1.256 1.42 2.096 1.971l.548-.837zm-1.891-1.793-1.483-1.694-.753.658 1.483 1.694.753-.658zm-1.509-1.722a1 1 0 0 0-.253-.18l-.441.897-.006-.003c-.001 0-.001 0 0 0l.001.001-.002-.002.701-.713zm-26.388 7.038h4.049v-1h-4.049v1zm11.59-1h-4.049v1h4.049v-1zm17.974 7.339-.959-.282-.193.656.542.418.61-.792zm1.393-4.741.959.282.16-.545-.385-.416-.734.679zm-.68-.734-.819.573.039.056.046.05.734-.679zm-.202-1.159.885.465.004-.006-.889-.459zm3.751.193.969-.247v-.002l-.969.249zm-.241.96.734.68.055-.06.045-.068-.834-.552zm-.68.734-.734-.679-.385.417.16.544.959-.282zm1.393 4.742.612.79.539-.418-.192-.654-.959.282zm-2.364 1.832-.611.792.612.472.611-.474-.612-.79zm-31.081-12.17-.745.666.389.436.572-.126-.216-.976zm0-4.123.242-.971-.591-.147-.402.458.751.66zm4.043 1.832-.564.826.454.31.505-.217-.395-.919zm.882-.143-.054.998.343.019.282-.196-.571-.821zm4.357-1.932.692-.723-.496-.474-.621.292.425.905zm-.157 4.548-.218.976.48.107.378-.315-.64-.768zm-2.689-.966.445-.895-1.29-.643-.15 1.434.995.104zm-.186.712-.925-.38-.099.242.032.259.992-.121zm.438 3.576v1h1.13l-.137-1.121-.993.121zm-3.492 0-.993-.121-.137 1.121h1.13v-1zm.438-3.576.992.121.042-.344-.18-.297-.854.52zm-.365-1.165.999.035.063-1.822-1.57.926.508.861zm-7.929-17.866.154-.988-.098-.015-.099.004.043.999zm-1.168.298-.544-.839-.004.003.548.836zm-.337.381-.904-.427-.005.009.909.418zm-.112.613-1 .023v.009l1-.032zm1.106 2.643.827-.561-.004-.006-.823.567zm.011.017.842-.539-.007-.012-.007-.01-.828.561zm2.319 3.621-.842.539.001.001.841-.54zm3.117 4.023.669-.742v-.001l-.669.743zm4.441 1.761-.003 1h.001l.002-1zm4.706-1.838-.678-.736-.001.001.679.735zm3.206-4.294.85.527.001-.002-.851-.525zm2.611-4.228.851.525.035-.056.027-.061-.913-.408zm.551-2.252.967-.252-.001-.004-.966.256zm-.843-.403-.054.999h.009l.045-.999zm-.32-.005v-1h-.023l-.024.001.047.999zm-.365.022.082.996h.003l-.085-.996zm-.202-.011.162-.987-.104-.017-.106.005.048.999zm-.719-.039-.974-.224-.246 1.069 1.087.146.133-.991zm.893-3.891.975.224.33-1.438-1.458.226.153.988zm-18.609-.966-.376-.927-.701.285.083.751.994-.109zm.506 4.587.02.999 1.093-.022-.119-1.087-.994.11zm2.285 16.133.804.595.003-.005-.807-.59zm-.163.16-.581-.814-.486.347.075.592.992-.125zm.893 6.275v1h1.171l-.183-1.156-.988.156zm-15.431 2.021.991-.133v-.003l-.991.136zm1.915 14.267v1h1.143l-.152-1.133-.991.133zm-1.752 0-.075.997.038.003h.037v-1zm-2.572-2.362-1-.012v.055l.005.055.995-.098zm4.448-17.828.48.877.002-.001-.482-.876zm11.764-3.648.541.841.217-.14.122-.227-.88-.474zm1.151-2.953.949.316-1.887-.663.938.347zm.039-.116-.956-.292 1.903.613-.947-.321zm.028-.083.947.321.194-.57-.414-.438-.727.687zm-2.69-3.648.844-.537-.002-.002-.842.539zm-2.319-3.621.842-.539-.008-.012-.008-.013-.826.564zm-1.314-3.311-.999.025v.005l.999-.03zm.231-1.187.899.436.003-.005-.902-.431zm.797-.911-.548-.836-.003.002.551.834zm.561-.281.349.937.706-.263-.058-.751-.997.077zm-.106-6.513-.995-.102-.003.026-.001.027.999.049zm.286-1.474.962.275v-.001l-.962-.274zm6.43-6.137.321.947.001-.001-.322-.946zm2.347-1.579-.057.998.003.001.054-.999zm10.848 4.703-.75.661h.001l.749-.661zm2.039 11.243-1-.024-.018.761.729.22.289-.957zm1.224 1.241.968-.25-.968.25zm-.635 3.113-.912-.408-.007.016-.007.016.926.376zm-.039.072-.795-.606-.03.039-.026.042.851.525zm-2.639 4.278-.851-.525h-.001l.852.525zm-3.431 4.57.669.743.008-.007-.677-.736zm-.067.061-.67-.743-.652.587.498.722.824-.566zm.426.607.821-.571-.003-.005-.818.576zm1.466 2.003-.774.633.107.132.145.088.522-.853zm11.651 3.582.484-.875-.001-.001-.483.876zm1.556 1.093-.668.745.657.588.666-.577-.655-.756zm1.039-.916.672.741.739-.671-.67-.741-.741.671zm-.405-.453-.752.659.005.006.006.006.741-.671zm-1.269-1.451.753-.658-.308-.353-.468.011.023 1zm-.943.022-.023-1h-.002l.025 1zm-1.797.044-.749.663.309.348.465-.011-.025-1zm-1.297-7.661-.987-.163-.007.046-.004.047.998.07zm5.217-9.295-.545-.838.545.838zm9.972-.276.544-.839-.544.839zm4.397 17.149v1h.632l.271-.571-.903-.429zm-1.87 0v-1h-.461l-.299.351.76.649zm-.118.138.754.657.006-.007-.76-.65zm-.168.193-.754-.657-.009.011.763.646zm-.815.961.76.65.003-.004-.763-.646zm-1.005 1.126-.712-.702-.712.722.732.702.692-.722zm1.612 1.435-.654.756.003.003.651-.759zm.741.64-.662.749.132.117.165.065.365-.931zm11.236 15.802-.995.096v.001l.995-.097zm-1.741 1.91.02 1h.001l-.021-1zm-24.235-.033-.991-.135-.153 1.13 1.14.005.004-1zm.034-.249.991.135v-.002l-.991-.133zm1.915-14.267-.991-.136v.003l.991.133zm-15.122-2.021-.99-.14-.162 1.14h1.152v-1zm.69-6.242.998.07.03-.43-.291-.317-.737.677zm-1.875-2.489.824-.567-.004-.006-.004-.006-.816.579zm-.371-.53.815-.58-.56-.786-.805.531.55.835zm-4.464 1.291-.002 1h.002v-1zm-4.885-1.722.623-.782-1.113-.886-.457 1.347.947.321zm26.083 7.457-.66-.752-.758.666.672.752.746-.666zm2.28 12.706-1-.025-.007.295.154.252.853-.522zm2.88 4.702-.853.523.853 1.391.853-1.391-.853-.523zm7.019-11.447.024-1-.576-.013-.3.49.852.523zm3.049.072-.023 1 1.668.039-.752-1.49-.893.451zm-2.493-3.831.78-.625-.033-.042-.038-.038-.709.705zm-1.291-1.148.652-.758h-.001l-.651.758zm-1.668-1.484.692-.722-.647-.621-.688.576.643.767zm-.601.452-.543-.84-.008.006-.008.005.559.829zm-3.571 1.016.003-1h-.003v1zm-3.403-.977-.548.836.001.001.547-.837zm-1.179-.966.701-.713-.675-.663-.699.636.673.74zm2.734 10.261 1.392-4.741-1.919-.564-1.392 4.741 1.919.564zm1.167-5.702-.68-.734-1.468 1.358.68.734 1.468-1.358zm-.594-.628a.676.676 0 0 1-.116-.209c0 .007 0 .017-.002.029a.215.215 0 0 1-.019.059l-1.77-.931c-.42.8-.149 1.602.268 2.198l1.639-1.146zm-.133-.127c.018-.036.022-.029.004-.017-.01.006.003-.006.073-.019.075-.013.179-.019.337-.018l.251.005c.089.002.191.005.294.005v-2c-.224 0-.784-.038-1.223.038-.555.096-1.151.386-1.513 1.088l1.777.918zm.959-.044c.106 0 .213-.003.307-.005l.265-.003c.169.002.278.012.35.028.066.015.057.026.027-.001-.038-.033-.03-.054-.014.008l1.937-.498a1.977 1.977 0 0 0-.599-1.009 2.032 2.032 0 0 0-.909-.45c-.498-.113-1.122-.07-1.364-.07v2zm.934.024c-.009-.033-.001-.051-.006-.033a.73.73 0 0 1-.1.196l1.668 1.103c.291-.44.554-1.058.376-1.759l-1.938.493zm-.006.035-.68.734 1.468 1.359.68-.734-1.468-1.359zm-.905 1.695 1.392 4.741 1.919-.563-1.392-4.741-1.919.563zm1.739 3.669-2.364 1.833 1.225 1.58 2.364-1.832-1.225-1.581zm-1.141 1.831-2.369-1.827-1.221 1.584 2.369 1.827 1.221-1.584zm-30.945-12.044c-.482-.541-.653-.99-.66-1.362-.006-.367.142-.838.666-1.436l-1.503-1.319c-.745.849-1.181 1.785-1.162 2.791.018 1.001.482 1.89 1.168 2.658l1.491-1.332zm-.987-2.487c1.342.334 2.576.905 3.72 1.688l1.129-1.651a13.438 13.438 0 0 0-4.366-1.978l-.483 1.941zm4.679 1.781a.984.984 0 0 1 .433-.064l.109-1.997a2.998 2.998 0 0 0-1.332.223l.79 1.838zm1.058-.241c.539-.375 1.176-.655 1.911-.936.698-.268 1.541-.555 2.301-.912l-.851-1.81c-.671.316-1.365.548-2.166.854-.764.293-1.59.642-2.337 1.162l1.142 1.642zm3.095-2.031c.748.716.908 1.237.888 1.584-.02.361-.251.855-.993 1.473l1.279 1.537c.942-.783 1.646-1.744 1.711-2.897.066-1.166-.538-2.219-1.502-3.142l-1.383 1.445zm.752 2.85a10.897 10.897 0 0 1-2.462-.885l-.891 1.79c.918.457 1.893.818 2.917 1.047l.436-1.952zm-3.902-.094a1.544 1.544 0 0 1-.116.436l1.85.76a3.57 3.57 0 0 0 .255-.988l-1.989-.208zm-.183.937.438 3.577 1.985-.243-.438-3.577-1.985.243zm1.43 2.455h-3.492v2h3.492v-2zm-2.5 1.122.438-3.577-1.985-.243-.438 3.577 1.985.243zm.3-4.218c-.201-.331-.223-.526-.22-.61l-1.999-.069c-.019.567.161 1.145.51 1.718l1.709-1.039zm-1.727-1.506c-.899.53-1.9.884-2.976 1.121l.431 1.953c1.226-.27 2.437-.689 3.561-1.351l-1.016-1.723zm-7.464-18.004c-.603.026-1.197.152-1.669.458l1.088 1.678c.055-.036.248-.12.667-.138l-.086-1.998zm-1.673.461a1.912 1.912 0 0 0-.693.79l1.808.854-.007.012a.062.062 0 0 1-.009.012c-.007.008-.01.009-.003.004l-1.096-1.672zm-.698.799a2.367 2.367 0 0 0-.203 1.054l1.999-.047a.402.402 0 0 1 .022-.172l-1.818-.835zm-.203 1.063c.032.978.522 2.075 1.282 3.179l1.647-1.135c-.677-.982-.917-1.696-.93-2.109l-1.999.065zm1.278 3.173.012.016 1.655-1.122-.012-.017-1.655 1.123zm-.003-.006 2.319 3.621 1.684-1.079-2.319-3.62-1.684 1.078zm2.32 3.622c.921 1.435 1.96 3.029 3.288 4.226l1.339-1.486c-1.097-.989-2.001-2.352-2.944-3.821l-1.683 1.081zm3.288 4.226c1.312 1.183 2.956 2.012 5.108 2.018l.006-2c-1.576-.005-2.762-.59-3.775-1.503l-1.339 1.485zm5.109 2.018c2.305.006 4.023-.845 5.386-2.103l-1.357-1.47c-1.04.961-2.286 1.578-4.024 1.573l-.005 2zm5.385-2.102c1.365-1.258 2.423-2.96 3.379-4.503l-1.7-1.054c-.986 1.592-1.905 3.046-3.034 4.085l1.355 1.472zm3.38-4.505 2.611-4.228-1.702-1.05-2.611 4.227 1.702 1.051zm2.673-4.345c.257-.575.449-1.092.559-1.546.106-.437.163-.917.046-1.366l-1.935.505c-.005-.02.021.08-.054.389-.071.29-.21.684-.442 1.202l1.826.816zm.604-2.916a1.442 1.442 0 0 0-.805-.938c-.312-.146-.656-.194-.959-.208l-.09 1.998c.085.004.144.012.181.019.038.007.039.012.018.002a.493.493 0 0 1-.14-.108.611.611 0 0 1-.138-.252l1.933-.513zm-1.754-1.145c-.134-.008-.269-.007-.375-.007v2c.118 0 .197 0 .266.004l.109-1.997zm-.422-.006a9.161 9.161 0 0 0-.403.024l.17 1.993c.108-.009.207-.014.327-.019l-.094-1.998zm-.399.024c.02-.002.034-.001.041-.001.007.001.008.001 0 0l-.324 1.974c.118.019.271.035.446.02l-.163-1.993zm-.169-.013a3.038 3.038 0 0 1-.538-.031l-.266 1.982c.286.038.591.061.9.047l-.096-1.998zm.304 1.184.893-3.891-1.95-.448-.892 3.891 1.949.448zm-.235-5.103c-3.068.475-5.724-.399-8.769-1.149-3.001-.739-6.255-1.302-10.063.244l.752 1.853c3.206-1.301 5.941-.867 8.833-.155 2.848.701 5.989 1.735 9.553 1.183l-.306-1.976zm-19.45.131.506 4.587 1.988-.219-.506-4.587-1.988.219zm1.48 3.478a3.685 3.685 0 0 1-.618-.027l-.309 1.976a5.6 5.6 0 0 0 .967.05l-.04-1.999zm1.501 16.538a.32.32 0 0 1 .06-.059l1.163 1.627c.146-.104.277-.233.385-.378l-1.608-1.19zm-.351.88c.22 1.748.53 3.988.897 6.307l1.976-.313a204.216 204.216 0 0 1-.889-6.244l-1.984.25zm1.885 5.15h-13.791v2h13.791v-2zm-13.791 0c-1.64 0-2.858 1.492-2.63 3.156l1.981-.271c-.076-.555.312-.885.649-.885v-2zm-2.631 3.154 1.915 14.267 1.982-.266-1.915-14.267-1.982.266zm2.906 13.134h-1.752v2h1.752v-2zm-1.677.003c-.656-.049-1.02-.23-1.229-.425-.202-.189-.369-.498-.422-1.038l-1.991.196c.087.884.4 1.696 1.046 2.301.639.6 1.491.889 2.446.96l.15-1.994zm-1.647-1.353c.021-1.644-.123-3.375-.235-5.028-.113-1.678-.195-3.291-.077-4.808.231-2.98 1.214-5.47 4.24-7.127l-.961-1.754c-3.808 2.085-5.009 5.322-5.273 8.726-.13 1.676-.038 3.419.076 5.098.115 1.703.249 3.326.23 4.869l2 .024zm3.93-16.964c.511-.281 1.282-.543 2.27-.804.977-.259 2.078-.496 3.232-.757 1.139-.257 2.32-.535 3.4-.867 1.07-.329 2.103-.729 2.921-1.255l-1.083-1.682c-.589.379-1.417.716-2.426 1.026-.999.307-2.115.57-3.253.827-1.123.254-2.279.503-3.303.774-1.012.269-1.984.58-2.722.986l.964 1.752zm12.162-4.05c.459-.854.941-2.275 1.22-3.111l-1.898-.632c-.295.886-.723 2.125-1.083 2.795l1.761.948zm-.667-3.774v-.001l.001-.002a.093.093 0 0 0 .005-.014l.008-.017a.116.116 0 0 1 .006-.016l.012-.024a.607.607 0 0 1 .023-.047l.025-.043.049-.073.049-.06c.018-.021.061-.065.087-.089.036-.031.126-.097.182-.13.081-.041.287-.107.411-.124.16.001.476.081.624.161.114.087.28.277.336.369.033.07.078.194.091.248.008.04.019.111.022.141l.003.086-.003.057a.478.478 0 0 1-.007.07.605.605 0 0 1-.006.04l-.005.027-.007.032a.713.713 0 0 0-.005.018l-.005.021a.026.026 0 0 0-.003.01.042.042 0 0 0-.003.009l-.001.003.001-.004.003-.01a.256.256 0 0 0 .009-.026l.009-.026a.067.067 0 0 1 .006-.015l-.003.007a.305.305 0 0 1-.008.019l-.01.025a.152.152 0 0 1-.011.023c-.004.009-.011.025-.021.043a.714.714 0 0 1-.061.101l-.036.049a2.57 2.57 0 0 1-.06.071 2.138 2.138 0 0 1-.115.104 1.675 1.675 0 0 1-.25.141c-.109.036-.37.069-.518.056a1.73 1.73 0 0 1-.55-.279 1.783 1.783 0 0 1-.22-.33 1.926 1.926 0 0 1-.059-.201 2.21 2.21 0 0 1-.014-.119 1.107 1.107 0 0 1 .01-.211l.005-.03a.653.653 0 0 1 .023-.094l.002-.007 1.912.584a.505.505 0 0 0 .013-.044l.009-.036.007-.037a.76.76 0 0 0 .017-.167l-.001-.075a2.335 2.335 0 0 0-.014-.119 1.926 1.926 0 0 0-.059-.201 1.783 1.783 0 0 0-.22-.33 1.74 1.74 0 0 0-.55-.279 1.76 1.76 0 0 0-.519.056 1.81 1.81 0 0 0-.249.141c-.034.028-.092.08-.115.104a1.142 1.142 0 0 0-.097.12c-.018.026-.031.049-.04.063a.856.856 0 0 0-.064.132l-.009.024-.009.023-.025.072-.024.072a.216.216 0 0 1-.008.026l-.01.035-.012.052-.011.067a1.158 1.158 0 0 0-.006.213c.003.031.013.102.021.142.014.053.058.178.091.247.056.093.222.282.337.37.147.08.463.16.623.16a1.81 1.81 0 0 0 .412-.123c.055-.034.146-.1.181-.13.026-.024.07-.069.088-.089l.048-.06a.752.752 0 0 0 .049-.074l.025-.043a.535.535 0 0 0 .024-.047l.019-.041.008-.02.013-.033-1.876-.694zm1.924.552.028-.083-1.894-.642-.028.083 1.894.642zm-.192-1.091c-.961-1.015-1.764-2.227-2.573-3.498l-1.687 1.074c.808 1.268 1.7 2.628 2.806 3.798l1.454-1.374zm-2.575-3.5-2.319-3.621-1.684 1.079 2.319 3.62 1.684-1.078zm-2.335-3.646c-.792-1.16-1.12-2.111-1.14-2.777l-1.999.06c.036 1.199.584 2.522 1.487 3.845l1.652-1.128zm-1.14-2.773c-.008-.311.045-.549.13-.725l-1.799-.872a3.542 3.542 0 0 0-.33 1.648l1.999-.051zm.133-.73c.096-.201.239-.37.446-.507l-1.102-1.669a3.226 3.226 0 0 0-1.149 1.314l1.805.862zm.443-.505c.103-.068.221-.129.362-.181l-.697-1.875c-.275.103-.528.23-.761.383l1.096 1.673zm1.01-1.195c-.148-1.929-.203-4.365-.104-6.387l-1.998-.098c-.103 2.117-.046 4.637.108 6.639l1.994-.154zm-.109-6.334c.045-.431.129-.864.254-1.301l-1.923-.55a9.561 9.561 0 0 0-.32 1.647l1.989.204zm.254-1.302c.732-2.572 3.02-4.525 5.789-5.464l-.643-1.894c-3.183 1.08-6.106 3.422-7.07 6.811l1.924.547zm5.79-5.465a2.882 2.882 0 0 0 1.163-.713c.261-.266.437-.565.52-.692.103-.159.112-.141.078-.12-.05.029-.03-.015.207-.002l.113-1.996c-.493-.028-.95.042-1.352.284-.385.232-.602.557-.722.742-.141.217-.188.298-.274.386a.891.891 0 0 1-.378.218l.645 1.893zm1.971-1.526c1.577.085 3.659.639 5.615 1.471 1.971.84 3.658 1.897 4.537 2.894l1.5-1.323c-1.17-1.327-3.178-2.527-5.254-3.411-2.091-.891-4.409-1.526-6.29-1.629l-.108 1.998zm10.153 4.365c1.254 1.421 1.736 3.011 1.886 4.776.156 1.837-.048 3.681-.098 5.782l1.999.048c.045-1.874.26-4.023.092-6-.174-2.049-.759-4.093-2.38-5.929l-1.499 1.323zm2.499 11.539c.336.101.471.251.545.535l1.936-.501c-.264-1.019-.959-1.664-1.903-1.949l-.578 1.915zm.545.535c.094.366.023 1.107-.579 2.454l1.825.817c.633-1.413.966-2.703.69-3.772l-1.936.501zm-.593 2.486a.743.743 0 0 1 .092-.158l1.59 1.213c.089-.117.14-.226.171-.302l-1.853-.753zm.036-.077-2.639 4.278 1.702 1.05 2.639-4.278-1.702-1.05zm-2.64 4.278c-1.027 1.668-1.993 3.198-3.256 4.359l1.354 1.472c1.499-1.378 2.6-3.149 3.605-4.782l-1.703-1.049zm-3.249 4.352-.067.061 1.339 1.485.067-.06-1.339-1.486zm-.221 1.37c.133.194.287.41.433.616l1.635-1.151c-.158-.224-.296-.417-.421-.598l-1.647 1.133zm.429.611c.455.654 1 1.44 1.513 2.066l1.548-1.266c-.453-.554-.952-1.27-1.419-1.941l-1.642 1.141zm1.765 2.286c1.605.982 4.082 1.567 6.279 2.063 1.137.256 2.22.491 3.18.747.97.259 1.728.518 2.232.795l.965-1.752c-.729-.401-1.685-.71-2.682-.976-1.008-.268-2.146-.515-3.255-.765-2.295-.518-4.41-1.044-5.675-1.818l-1.044 1.706zm11.69 3.605c.529.292.983.613 1.371.962l1.336-1.489a9.4 9.4 0 0 0-1.74-1.224l-.967 1.751zm2.694.973c.383-.333.755-.659 1.056-.931l-1.344-1.482c-.284.258-.642.572-1.022.902l1.31 1.511zm1.125-2.343-.196-.219a19.681 19.681 0 0 0-.208-.233l-1.483 1.341.196.22.208.233 1.483-1.342zm-.393-.44-1.269-1.451-1.506 1.316 1.27 1.452 1.505-1.317zm-2.045-1.793-.943.022.046 2 .944-.023-.047-1.999zm-.945.022-1.796.044.049 2 1.797-.044-.05-2zm-1.023.381c-.556-.628-.894-1.736-1.039-3.115-.141-1.339-.084-2.749-.009-3.813l-1.996-.14c-.077 1.099-.143 2.648.016 4.162.155 1.475.542 3.116 1.53 4.232l1.498-1.326zm-1.059-6.835c.691-4.182 2.304-7.013 4.775-8.619l-1.09-1.677c-3.1 2.015-4.912 5.453-5.659 9.97l1.974.326zm4.774-8.619c.868-.563 1.509-.829 2.157-.969.676-.146 1.409-.167 2.521-.167v-2c-1.095 0-2.03.015-2.942.212-.94.202-1.806.585-2.825 1.247l1.089 1.677zm4.678-1.136c1.941 0 2.837-.026 4.207.861l1.087-1.679c-1.921-1.244-3.383-1.182-5.294-1.182v2zm4.207.861c2.413 1.563 4.045 4.226 4.757 7.202.712 2.977.476 6.16-.72 8.678l1.806.858c1.421-2.99 1.661-6.648.859-10.002-.803-3.355-2.677-6.512-5.615-8.415l-1.087 1.679zm4.94 15.309h-1.87v2h1.87v-2zm-2.63.351-.118.137 1.52 1.3.118-.138-1.52-1.299zm-.112.13-.168.193 1.507 1.315.169-.194-1.508-1.314zm-.177.204-.814.96 1.525 1.293.814-.96-1.525-1.293zm-.812.957c-.334.391-.633.746-.957 1.074l1.424 1.404c.385-.39.736-.808 1.053-1.178l-1.52-1.3zm-.937 2.498c.472.452 1.1.995 1.65 1.469l1.308-1.513a44.789 44.789 0 0 1-1.574-1.4l-1.384 1.444zm1.653 1.472c.268.23.512.438.73.63l1.325-1.498a60.736 60.736 0 0 0-.753-.65l-1.302 1.518zm1.027.812c4.2 1.645 6.491 2.857 7.935 4.813 1.454 1.969 2.159 4.842 2.671 10.154l1.991-.192c-.511-5.302-1.237-8.691-3.053-11.15-1.825-2.472-4.641-3.853-8.814-5.487l-.73 1.862zm10.606 14.968c.05.514.076.808.072 1.004-.004.214-.046.052.122-.121.154-.16.298-.129.062-.104-.214.022-.509.024-1.022.034l.041 2c.441-.009.865-.011 1.187-.045.298-.031.794-.107 1.169-.494.388-.401.435-.911.441-1.232.007-.34-.036-.77-.082-1.236l-1.99.194zm-.765.813c-7.054.138-16.04 0-24.212-.033l-.008 2c8.135.033 17.174.171 24.259.033l-.039-2zm-23.225 1.101.034-.248-1.982-.269-.034.248 1.982.269zm.034-.25 1.915-14.267-1.982-.266-1.915 14.267 1.982.266zm1.914-14.265c.228-1.664-.99-3.156-2.63-3.156v2c.337 0 .725.33.649.885l1.981.271zm-15.122-2.015c.334-2.352.578-4.601.698-6.313l-1.995-.14c-.116 1.655-.354 3.855-.683 6.172l1.98.281zm.437-7.06c-.572-.622-1.206-1.531-1.788-2.379l-1.648 1.133c.563.82 1.277 1.853 1.963 2.6l1.473-1.354zm-1.796-2.391a23.302 23.302 0 0 1-.184-.263c-.061-.088-.125-.18-.188-.268l-1.629 1.16.174.249.195.279 1.632-1.157zm-1.737-.786c-1.052.694-2.303 1.126-3.914 1.126v2c2.006 0 3.641-.549 5.015-1.456l-1.101-1.67zm-3.911 1.126c-1.765-.004-3.117-.59-4.265-1.504l-1.246 1.565c1.458 1.161 3.239 1.933 5.506 1.939l.005-2zm-5.835-1.043c-.18.532-.397 1.146-.628 1.707-.24.581-.465 1.031-.647 1.281l1.614 1.18c.334-.457.634-1.097.882-1.699.256-.621.489-1.282.673-1.826l-1.894-.643zm26.284 8.444c1.219 1.365 1.777 3.17 1.997 5.283.22 2.131.086 4.418.029 6.732l1.999.05c.055-2.212.199-4.691-.039-6.988-.24-2.315-.878-4.6-2.495-6.409l-1.491 1.332zm2.173 12.562 2.88 4.703 1.706-1.045-2.881-4.703-1.705 1.045zm4.586 4.703 7.019-11.447-1.705-1.046-7.019 11.448 1.705 1.045zm6.143-10.97 3.049.072.047-2-3.049-.072-.047 2zm3.965-1.379a22.743 22.743 0 0 0-2.606-4.005l-1.56 1.251a20.74 20.74 0 0 1 2.381 3.655l1.785-.901zm-2.677-4.085c-.287-.289-.826-.752-1.348-1.201l-1.304 1.517c.555.478 1.016.876 1.234 1.095l1.418-1.411zm-1.349-1.201a43.25 43.25 0 0 1-1.627-1.448l-1.384 1.443a45.325 45.325 0 0 0 1.708 1.522l1.303-1.517zm-2.962-1.493a5.006 5.006 0 0 1-.501.379l1.086 1.68a7.01 7.01 0 0 0 .7-.526l-1.285-1.533zm-.517.39c-.743.5-1.675.85-3.009.845l-.007 2c1.733.006 3.057-.462 4.134-1.186l-1.118-1.659zm-3.012.845c-1.232 0-2.122-.335-2.856-.814l-1.094 1.674c1.04.679 2.307 1.14 3.95 1.14v-2zm-2.855-.814a6.726 6.726 0 0 1-1.026-.842l-1.402 1.426c.387.381.825.757 1.332 1.089l1.096-1.673zm-2.4-.869c-.295.269-.64.57-1.009.893l1.319 1.504c.362-.317.724-.634 1.036-.917l-1.346-1.48zm-2.045 2.88h-13.482v2h13.482v-2z"
        fill="#003E6E" mask="url(#b)"/>
  <path fill-rule="evenodd" clip-rule="evenodd" d="M285.251 185.703h-12.797v-1h12.797v1z" fill="#003E6E"/>
  <path d="M301.902 164.727c.283.716 1.166 2.306 2.432 2.94 1.582.791 2.883.452 4.353 1.865 1.469 1.413 2.713 3.844 2.317 4.805M310.516 187.934l-5.007 10.586-2.289-3.004"
        stroke="#00C1FE" stroke-opacity=".3" stroke-width="5"/>
  <circle cx="278.852" cy="196.09" r="1.251" fill="#003E6E" stroke="#003E6E"/>
  <path d="M284.365 151.354c-1.91-1.725-5.519-2.413-7.084-2.542 0 .616-3.619 2.003-5.236 3.389-1.293 1.108-.539 2.566 0 3.157.642.025 2.587.061 5.236 0 3.311-.077 4.774 1.694 7.084 2.387 1.848.554 2.875-.231 3.157-.693-.256-1.181-1.247-3.974-3.157-5.698z"
        fill="#A3E2FE"/>
  <path stroke="#00C1FE" stroke-dasharray="1 1" d="M298.779 116.016h10"/>
</svg>
