<?xml version="1.0" encoding="UTF-8"?>
<svg id="Logos" xmlns="http://www.w3.org/2000/svg" viewBox="0 0 850 1000">
  <defs>
    <style>.cls-1{fill:#ffc000;}.cls-2{fill:#fff;}.cls-2,.cls-3{fill-rule:evenodd;}</style>
  </defs>
  <path d="m321.13,917.13h-38.44v38.52h44.79v11.72h-58.45v-108.68h57.7v11.72h-44.04v35.01h38.44v11.72Z"/>
  <path d="m344.95,967.37v-108.68h25.9c12.69,0,22.54,3.97,29.56,11.91s10.52,19.1,10.52,33.48v18.21c0,14.38-3.56,25.49-10.67,33.33-7.12,7.84-17.44,11.76-30.98,11.76h-24.33Zm13.66-96.96v85.24h10.97c9.6,0,16.62-2.75,21.05-8.25,4.43-5.5,6.69-13.66,6.79-24.47v-19.27c0-11.46-2.2-19.86-6.61-25.22-4.4-5.35-11.06-8.03-19.97-8.03h-12.24Z"/>
  <path d="m500.2,953.86l-2.39,2.99c-6.87,8.01-16.92,12.02-30.16,12.02-11.74,0-20.96-3.89-27.66-11.68-6.69-7.79-10.11-18.8-10.26-33.03v-21.35c0-15.23,3.05-26.63,9.14-34.22,6.1-7.59,15.21-11.38,27.36-11.38,10.35,0,18.45,2.87,24.3,8.62,5.85,5.75,9.07,13.97,9.67,24.67h-13.66c-.55-6.77-2.43-12.06-5.64-15.86-3.21-3.81-8.07-5.71-14.59-5.71-7.81,0-13.54,2.55-17.17,7.65-3.63,5.1-5.52,13.25-5.67,24.44v22.17c0,10.95,2.09,19.35,6.27,25.19s10.18,8.77,17.99,8.77c7.36,0,12.96-1.78,16.79-5.35l2.02-1.86v-24.96h-19.86v-11.72h33.51v40.61Z"/>
  <path d="m574.62,917.13h-38.44v38.52h44.79v11.72h-58.45v-108.68h57.7v11.72h-44.04v35.01h38.44v11.72Z"/>
  <path d="m164.99,696.34v123.92c0,2.83-2.38,5.12-5.31,5.12l-27.71-.24q0-48.41-.02-48.45c0-2.83-2.38-5.12-5.31-5.12h-44.28c-2.93,0-5.31,2.29-5.31,5.12l-.16,48.45c-26.4,0-27.58.24-27.58.24-2.93,0-5.31-2.29-5.31-5.12v-123.92c0-2.83,2.38-5.12,5.31-5.12l27.58.16c0,46.81.16,47.82.16,47.82,0,2.83,2.38,5.12,5.31,5.12h44.28c2.93,0,5.31-2.29,5.31-5.12l-.08-47.88c30.94,0,27.81-.09,27.81-.09,2.93,0,5.31,2.29,5.31,5.12Z"/>
  <path d="m199.06,706.75h19.87c2.6,0,4.7,2.03,4.7,4.53v109.74c0,2.5-2.1,4.53-4.7,4.53h-19.87c-2.6,0-4.7-2.03-4.7-4.53v-109.74c0-2.5,2.1-4.53,4.7-4.53Z"/>
  <path d="m362.76,712.76l-39.84,111.15c-.65,1.83-2.44,3.05-4.44,3.05h-30.37c-2,0-3.79-1.22-4.44-3.05l-39.99-111.15c-1.06-2.94,1.21-6.02,4.44-6.02h20.09c2.02,0,3.81,1.24,4.46,3.09l26.16,75.14c1.44,4.12,7.49,4.12,8.92,0l26.02-75.13c.64-1.85,2.44-3.1,4.46-3.1h20.1c3.23,0,5.5,3.07,4.44,6.01Z"/>
  <path d="m465.07,807.52v13.51c0,2.5-2.1,4.53-4.7,4.53h-72.87c-2.6,0-4.7-2.03-4.7-4.53v-109.74c0-2.5,2.1-4.53,4.7-4.53h72.06c2.6,0,4.7,2.03,4.7,4.53v13.51c0,2.5-2.1,4.53-4.7,4.53h-42.79c-2.6,0-4.7,2.03-4.7,4.53,0,0-.06-.06-.06,20.74,0,0-.59.08,43.84.08l.04,22.19c-45.87,0-43.97.17-43.97.17,0,21.8.16,21.43.16,21.43,0,2.5,2.1,4.53,4.7,4.53h43.6c2.6,0,4.7,2.03,4.7,4.53Z"/>
  <path d="m641.87,696.34v123.92c0,2.83-2.38,5.12-5.31,5.12h-22.43c-2.93,0-5.31-2.29-5.31-5.12l-.31-78.73c0-5.02-29.68,37.21-29.68,37.21-.99,1.38-2.62,2.21-4.37,2.21h-10.93c-1.76,0-3.4-.84-4.39-2.24,0,0-29.42-42.51-29.42-37.47l.16,79.01c0,2.83-2.38,5.12-5.31,5.12h-22.43c-2.93,0-5.31-2.29-5.31-5.12v-123.92c0-2.83,2.38-5.12,5.31-5.12h30.04c1.77,0,3.43.85,4.41,2.27l28.34,40.91c2.1,3.03,6.73,3.03,8.83,0l28.34-40.91c.98-1.42,2.64-2.27,4.41-2.27h30.04c2.93,0,5.31,2.29,5.31,5.12Z"/>
  <path d="m800.03,789.8c-3.32,7.89-7.99,14.66-14,20.32-2.01,1.89-2.1,4.97-.24,7l18.32,19.34c-33.47,0-35.32.24-35.32.24-1.55,0-3.03-.65-4.03-1.79l-6.01-6.77c-1.31-1.47-3.36-2.06-5.32-1.64-5.76,1.26-12.04,1.88-18.85,1.88-15.42,0-28.52-3.04-39.29-9.12-10.77-6.08-18.85-14.39-24.23-24.95-5.39-10.56-8.08-22.5-8.08-35.84s2.69-24.89,8.08-35.4c5.38-10.5,13.46-18.85,24.23-25.04s23.87-9.29,39.29-9.29,28.15,3.1,38.92,9.29c10.77,6.19,18.88,14.57,24.32,25.13,5.45,10.56,8.17,22.33,8.17,35.31,0,11.45-1.99,21.89-5.97,31.33Zm-93.54-.09c6.49,7.85,15.85,11.77,28.09,11.77h.37l-8.59-9.59c-2.97-3.32-.52-8.46,4.02-8.46h22.71c1.54,0,3,.64,4.01,1.76h0c2.38,2.64,5.97,4.9,7.76,1.86,1.5-2.54,3.59-7.94,4.6-10.96,1.84-5.49,2.76-11.53,2.76-18.14,0-8.14-1.47-15.4-4.41-21.77-2.94-6.37-7.25-11.39-12.94-15.04-5.69-3.66-12.46-5.49-20.29-5.49-12.12,0-21.45,3.95-28,11.86-6.55,7.91-9.82,18.23-9.82,30.97s3.24,23.39,9.73,31.24Z"/>
  <polygon points="425 36 168.98 145.8 105.75 422.83 282.92 645 567.08 645 744.25 422.83 681.02 145.8 425 36"/>
  <polygon class="cls-1"
           points="425 83.61 201.5 175.55 146.3 409.65 300.97 597.38 549.03 597.38 703.7 409.65 648.5 175.55 425 83.61"/>
  <path class="cls-2" d="m381.57,266.97c-3.07-19.1,7.03-38.2,24.6-46.33,3.07,19.1-7.07,38.16-24.6,46.33Z"/>
  <path class="cls-2"
        d="m294.05,341.1s1.51-3.66-2.02-7c-15.75-14.87-50.54-50.03-30.69-60.13,22.09-11.24,82.46,4.83,149.31,40.08-33.72,19.53-56.88,35.66-81.24,55.34-27.02-19.78-31.83-24.19-35.36-28.29Z"/>
  <path class="cls-2"
        d="m558.44,456.26c-7.62,11.4-29.67,6.29-65.08-4.44-1.61-.47-3.22-.43-4.68.16,10.81-15.68,13.17-44.57,9.39-65.63-.04-.08-.04-.2-.04-.31-.04-.08-.04-.12-.04-.16-1.14-8.25-2.95-14.78-5.03-17.68,47.04,37.85,73.26,74.79,65.47,88.07Z"/>
  <path class="cls-2"
        d="m521.21,369.81c-23.82-20-48.03-36.19-81.75-55.73,66.85-35.25,127.1-50.93,149.18-39.69,19.85,10.1-14.97,45.23-30.69,60.13-2.79,2.63-2.11,3.84-2.02,7-3.52,4.1-7.7,8.52-34.71,28.29Z"/>
  <path class="cls-2"
        d="m357.05,367.69c-2.08,2.91-3.89,9.43-5.03,17.68,0,.04,0,.08-.04.16,0,.12,0,.24-.04.31-3.77,21.06-1.41,49.95,9.39,65.63-1.45-.59-3.07-.63-4.68-.16-35.41,10.73-57.46,15.84-65.08,4.44-7.78-13.28,18.43-50.23,65.47-88.07Z"/>
  <path d="m424.48,512.91c11.75-21.18,17.88-28.45,25.7-36.67h-51.4c7.86,8.21,13.95,15.48,25.7,36.67Z"/>
  <path d="m365.5,428.42c2.83,9.43,7.31,18.31,13.4,26.02h91.18c6.13-7.7,10.57-16.58,13.4-26.02h-117.98Z"/>
  <path d="m482.41,375.28c-17.45-12.77-36.94-25.58-57.93-37.85-20.99,12.26-40.48,25.07-57.89,37.85-3.46,9.98-4.99,20.71-4.64,31.32h125.05c.35-10.61-1.18-21.34-4.6-31.32Z"/>
  <path class="cls-3"
        d="m557.95,334.49c-2.87,2.71-3.03,7.23-.35,10.14l.98,1.1c41.42-35.37,66.34-62.72,53.92-84.3-13.68-19.06-71.29-10.02-141.95,21.77,3.58-7.19,5.34-15.09,5.34-22.95,0-2.91-.24-5.82-.75-8.69-1.69-10.14-6.45-19.89-14.27-27.67-4.24-4.28-9.12-7.62-14.31-10.06l.24-.55h.04l5.42-11.79c.86-1.89.04-4.13-1.85-4.99-1.89-.87-4.13-.04-4.99,1.85l-5.9,12.77c-9.79-2.99-20.32-2.99-30.1,0l-5.89-12.77c-.86-1.89-3.1-2.71-4.99-1.85-1.89.86-2.71,3.1-1.85,4.99l5.27,11.4.43.9c-5.19,2.48-10.02,5.82-14.31,10.1-10.26,10.26-15.25,23.82-14.97,37.34.12,7.31,1.77,14.58,4.99,21.34-18.27-8.17-119.71-50.19-140.14-21.54-18.51,26.06,38.36,71.68,53.57,84.69l.98-1.1c2.67-2.91,2.52-7.43-.31-10.14-7.47-7.04-19.18-18.63-27.35-29.95-10.73-14.86-11-23.62-5.82-28.49,16.15-15.17,76.08,4.91,94.67,11.99,17.84,6.84,37.1,15.56,56.95,26.02-94.99,55.06-159.52,120.85-144.27,147.22,9.55,16.55,49.28,14.38,100.33-3.62l-1.85-3.03c-1.73-2.87-5.07-4.17-8.29-3.18-35.41,10.73-57.46,15.84-65.08,4.44-10.65-18.43,43.35-81.94,127.25-130.36l6.29-3.62c2.12,1.18,4.24,2.4,6.33,3.62,83.91,48.42,137.9,111.93,127.25,130.36-7.62,11.4-29.67,6.29-65.08-4.44-3.22-.98-6.56.31-8.29,3.18l-1.85,3.03c51.05,18,90.78,20.16,100.33,3.62,15.21-26.37-49.28-92.16-144.27-147.22,66.85-35.25,127.1-50.93,149.18-39.69,19.85,10.1-14.97,45.23-30.69,60.13Zm-176.38-67.52c-3.07-19.1,7.03-38.2,24.6-46.33,3.07,19.1-7.07,38.16-24.6,46.33Zm85.48.04c-17.57-8.17-27.67-27.23-24.6-46.33,17.53,8.13,27.67,27.23,24.6,46.33Z"/>
  <path class="cls-2" d="m467.05,267.01c-17.57-8.17-27.67-27.23-24.6-46.33,17.53,8.14,27.67,27.23,24.6,46.33Z"/>
</svg>
