<?xml version="1.0" encoding="UTF-8"?><svg id="Logos" xmlns="http://www.w3.org/2000/svg" viewBox="0 0 850 1000"><defs><style>.cls-1,.cls-2{fill:#fff;}.cls-3{fill:#ffc000;}.cls-2,.cls-4{fill-rule:evenodd;}</style></defs><polygon class="cls-3" points="425 88.27 208.56 177.3 155.11 404 304.89 585.81 545.11 585.81 694.89 404 641.44 177.3 425 88.27"/><path class="cls-1" d="m698.33,128.69L425,11.47l-273.33,117.22-67.51,295.76,189.15,237.18h303.37l189.15-237.18-67.51-295.76Zm-140.91,482.12h-264.84l-165.12-200.43,58.93-249.93,238.61-98.15,238.61,98.15,58.93,249.93-165.12,200.43Z"/><path class="cls-2" d="m380.66,261.49c-3.13-19.5,7.18-39,25.11-47.3,3.13,19.5-7.22,38.96-25.11,47.3Z"/><path class="cls-2" d="m291.32,337.16s1.54-3.74-2.07-7.14c-16.07-15.18-51.59-51.07-31.33-61.38,22.55-11.47,84.18,4.93,152.43,40.91-34.42,19.94-58.06,36.4-82.94,56.49-27.58-20.19-32.5-24.7-36.09-28.88Z"/><path class="cls-2" d="m561.22,454.72c-7.78,11.63-30.29,6.42-66.44-4.53-1.65-.48-3.29-.44-4.77.16,11.03-16.01,13.44-45.5,9.59-67-.04-.08-.04-.2-.04-.32-.04-.08-.04-.12-.04-.16-1.16-8.42-3.01-15.08-5.14-18.05,48.02,38.63,74.78,76.35,66.84,89.91Z"/><path class="cls-2" d="m523.22,366.48c-24.31-20.42-49.04-36.95-83.46-56.89,68.24-35.99,129.75-51.99,152.29-40.52,20.26,10.31-15.29,46.18-31.33,61.38-2.85,2.69-2.16,3.92-2.07,7.14-3.59,4.19-7.86,8.69-35.44,28.88Z"/><path class="cls-2" d="m355.63,364.31c-2.13,2.97-3.97,9.63-5.14,18.05,0,.04,0,.08-.04.16,0,.12,0,.24-.04.32-3.85,21.5-1.44,50.99,9.59,67-1.48-.6-3.13-.64-4.77-.16-36.15,10.95-58.65,16.17-66.44,4.53-7.94-13.56,18.82-51.27,66.84-89.91Z"/><path d="m424.47,512.56c12-21.62,18.25-29.05,26.24-37.43h-52.48c8.02,8.38,14.24,15.81,26.24,37.43Z"/><path d="m364.25,426.3c2.89,9.63,7.46,18.7,13.68,26.56h93.08c6.26-7.86,10.79-16.93,13.68-26.56h-120.44Z"/><path d="m483.61,372.06c-17.81-13.04-37.71-26.12-59.14-38.63-21.42,12.52-41.32,25.6-59.1,38.63-3.53,10.19-5.1,21.14-4.73,31.98h127.66c.36-10.83-1.2-21.79-4.69-31.98Z"/><path class="cls-4" d="m560.72,330.42c-2.93,2.77-3.09,7.38-.36,10.35l1,1.12c42.29-36.11,67.72-64.03,55.04-86.06-13.96-19.46-72.78-10.23-144.91,22.23,3.65-7.34,5.46-15.41,5.46-23.43,0-2.97-.24-5.94-.76-8.87-1.73-10.35-6.58-20.3-14.56-28.24-4.33-4.37-9.31-7.78-14.6-10.27l.24-.56h.04l5.54-12.04c.88-1.93.04-4.21-1.89-5.09-1.93-.88-4.21-.04-5.1,1.89l-6.02,13.04c-9.99-3.05-20.74-3.05-30.73,0l-6.02-13.04c-.88-1.93-3.17-2.77-5.1-1.89-1.93.88-2.77,3.17-1.89,5.09l5.38,11.63.44.92c-5.3,2.53-10.23,5.94-14.6,10.31-10.47,10.47-15.57,24.31-15.29,38.11.12,7.46,1.81,14.88,5.1,21.78-18.66-8.34-122.2-51.23-143.07-21.99-18.9,26.6,39.16,73.18,54.68,86.46l1-1.12c2.73-2.97,2.57-7.58-.32-10.35-7.62-7.18-19.58-19.02-27.92-30.57-10.95-15.16-11.23-24.11-5.94-29.09,16.49-15.49,77.67,5.01,96.65,12.24,18.21,6.98,37.87,15.89,58.13,26.56-96.97,56.21-162.84,123.37-147.28,150.29,9.75,16.89,50.31,14.68,102.42-3.69l-1.89-3.09c-1.77-2.93-5.18-4.25-8.47-3.25-36.15,10.95-58.65,16.17-66.44,4.53-10.87-18.82,44.25-83.65,129.91-133.08l6.42-3.69c2.17,1.2,4.33,2.45,6.46,3.69,85.66,49.43,140.78,114.26,129.91,133.08-7.78,11.63-30.29,6.42-66.44-4.53-3.29-1-6.7.32-8.47,3.25l-1.89,3.09c52.12,18.37,92.68,20.58,102.42,3.69,15.53-26.92-50.31-94.08-147.28-150.29,68.24-35.99,129.75-51.99,152.29-40.52,20.26,10.31-15.29,46.18-31.33,61.38Zm-180.06-68.93c-3.13-19.5,7.18-39,25.11-47.3,3.13,19.5-7.22,38.96-25.11,47.3Zm87.26.04c-17.93-8.34-28.24-27.8-25.11-47.3,17.89,8.3,28.24,27.8,25.11,47.3Z"/><path class="cls-2" d="m467.92,261.53c-17.93-8.34-28.24-27.8-25.11-47.3,17.89,8.3,28.24,27.8,25.11,47.3Z"/><path class="cls-1" d="m164.99,704.34v123.92c0,2.83-2.38,5.12-5.31,5.12l-27.71-.24q0-48.41-.02-48.45c0-2.83-2.38-5.12-5.31-5.12h-44.28c-2.93,0-5.31,2.29-5.31,5.12l-.16,48.45c-26.4,0-27.58.24-27.58.24-2.93,0-5.31-2.29-5.31-5.12v-123.92c0-2.83,2.38-5.12,5.31-5.12l27.58.16c0,46.81.16,47.82.16,47.82,0,2.83,2.38,5.12,5.31,5.12h44.28c2.93,0,5.31-2.29,5.31-5.12l-.08-47.88c30.94,0,27.81-.09,27.81-.09,2.93,0,5.31,2.29,5.31,5.12Z"/><path class="cls-1" d="m199.06,714.75h19.87c2.6,0,4.7,2.03,4.7,4.53v109.74c0,2.5-2.1,4.53-4.7,4.53h-19.87c-2.6,0-4.7-2.03-4.7-4.53v-109.74c0-2.5,2.1-4.53,4.7-4.53Z"/><path class="cls-1" d="m362.76,720.76l-39.84,111.15c-.65,1.83-2.44,3.05-4.44,3.05h-30.37c-2,0-3.79-1.22-4.44-3.05l-39.99-111.15c-1.06-2.94,1.21-6.02,4.44-6.02h20.09c2.02,0,3.81,1.24,4.46,3.09l26.16,75.14c1.44,4.12,7.49,4.12,8.92,0l26.02-75.13c.64-1.85,2.44-3.1,4.46-3.1h20.1c3.23,0,5.5,3.07,4.44,6.01Z"/><path class="cls-1" d="m465.07,815.52v13.51c0,2.5-2.1,4.53-4.7,4.53h-72.87c-2.6,0-4.7-2.03-4.7-4.53v-109.74c0-2.5,2.1-4.53,4.7-4.53h72.06c2.6,0,4.7,2.03,4.7,4.53v13.51c0,2.5-2.1,4.53-4.7,4.53h-42.79c-2.6,0-4.7,2.03-4.7,4.53,0,0-.06-.06-.06,20.74,0,0-.59.08,43.84.08l.04,22.19c-45.87,0-43.97.17-43.97.17,0,21.8.16,21.43.16,21.43,0,2.5,2.1,4.53,4.7,4.53h43.6c2.6,0,4.7,2.03,4.7,4.53Z"/><path class="cls-1" d="m641.87,704.34v123.92c0,2.83-2.38,5.12-5.31,5.12h-22.43c-2.93,0-5.31-2.29-5.31-5.12l-.31-78.73c0-5.02-29.68,37.21-29.68,37.21-.99,1.38-2.62,2.21-4.37,2.21h-10.93c-1.76,0-3.4-.84-4.39-2.24,0,0-29.42-42.51-29.42-37.47l.16,79.01c0,2.83-2.38,5.12-5.31,5.12h-22.43c-2.93,0-5.31-2.29-5.31-5.12v-123.92c0-2.83,2.38-5.12,5.31-5.12h30.04c1.77,0,3.43.85,4.41,2.27l28.34,40.91c2.1,3.03,6.73,3.03,8.83,0l28.34-40.91c.98-1.42,2.64-2.27,4.41-2.27h30.04c2.93,0,5.31,2.29,5.31,5.12Z"/><path class="cls-1" d="m800.03,797.8c-3.32,7.89-7.99,14.66-14,20.32-2.01,1.89-2.1,4.97-.24,7l18.32,19.34c-33.47,0-35.32.24-35.32.24-1.55,0-3.03-.65-4.03-1.79l-6.01-6.77c-1.31-1.47-3.36-2.06-5.32-1.64-5.76,1.26-12.04,1.88-18.85,1.88-15.42,0-28.52-3.04-39.29-9.12-10.77-6.08-18.85-14.39-24.23-24.95-5.39-10.56-8.08-22.5-8.08-35.84s2.69-24.89,8.08-35.4c5.38-10.5,13.46-18.85,24.23-25.04,10.77-6.19,23.87-9.29,39.29-9.29s28.15,3.1,38.92,9.29c10.77,6.19,18.88,14.57,24.32,25.13,5.45,10.56,8.17,22.33,8.17,35.31,0,11.45-1.99,21.89-5.97,31.33Zm-93.54-.09c6.49,7.85,15.85,11.77,28.09,11.77h.37l-8.59-9.59c-2.97-3.32-.52-8.46,4.02-8.46h22.71c1.54,0,3,.64,4.01,1.76h0c2.38,2.64,5.97,4.9,7.76,1.86,1.5-2.54,3.59-7.94,4.6-10.96,1.84-5.49,2.76-11.53,2.76-18.14,0-8.14-1.47-15.4-4.41-21.77-2.94-6.37-7.25-11.39-12.94-15.04-5.69-3.66-12.46-5.49-20.29-5.49-12.12,0-21.45,3.95-28,11.86-6.55,7.91-9.82,18.23-9.82,30.97s3.24,23.39,9.73,31.24Z"/><path class="cls-1" d="m321.13,917.13h-38.44v38.52h44.79v11.72h-58.45v-108.68h57.7v11.72h-44.04v35.01h38.44v11.72Z"/><path class="cls-1" d="m344.95,967.37v-108.68h25.9c12.69,0,22.54,3.97,29.56,11.91s10.52,19.1,10.52,33.48v18.21c0,14.38-3.56,25.49-10.67,33.33-7.12,7.84-17.44,11.76-30.98,11.76h-24.33Zm13.66-96.96v85.24h10.97c9.6,0,16.62-2.75,21.05-8.25,4.43-5.5,6.69-13.66,6.79-24.47v-19.27c0-11.46-2.2-19.86-6.61-25.22-4.4-5.35-11.06-8.03-19.97-8.03h-12.24Z"/><path class="cls-1" d="m500.2,953.86l-2.39,2.99c-6.87,8.01-16.92,12.02-30.16,12.02-11.74,0-20.96-3.89-27.66-11.68-6.69-7.79-10.11-18.8-10.26-33.03v-21.35c0-15.23,3.05-26.63,9.14-34.22,6.1-7.59,15.21-11.38,27.36-11.38,10.35,0,18.45,2.87,24.3,8.62,5.85,5.75,9.07,13.97,9.67,24.67h-13.66c-.55-6.77-2.43-12.06-5.64-15.86-3.21-3.81-8.07-5.71-14.59-5.71-7.81,0-13.54,2.55-17.17,7.65-3.63,5.1-5.52,13.25-5.67,24.44v22.17c0,10.95,2.09,19.35,6.27,25.19s10.18,8.77,17.99,8.77c7.36,0,12.96-1.78,16.79-5.35l2.02-1.86v-24.96h-19.86v-11.72h33.51v40.61Z"/><path class="cls-1" d="m574.62,917.13h-38.44v38.52h44.79v11.72h-58.45v-108.68h57.7v11.72h-44.04v35.01h38.44v11.72Z"/></svg>