<?xml version="1.0" encoding="UTF-8"?>
<svg id="Logos" xmlns="http://www.w3.org/2000/svg" viewBox="0 0 725 725">
  <defs>
    <style>.cls-1,.cls-2{fill:#fff;}.cls-3{fill:#ffc000;}.cls-2,.cls-4{fill-rule:evenodd;}</style>
  </defs>
  <polygon class="cls-3"
           points="362.5 102.29 140.02 193.8 85.07 426.84 239.03 613.72 485.97 613.72 639.93 426.84 584.98 193.8 362.5 102.29"/>
  <path class="cls-1"
        d="m643.46,143.83L362.5,23.34,81.54,143.83,12.15,447.85l194.43,243.81h311.84l194.43-243.81-69.39-304.03Zm-144.84,495.59H226.38L56.65,433.39l60.58-256.91,245.28-100.89,245.28,100.89,60.58,256.91-169.74,206.03Z"/>
  <path class="cls-2" d="m316.93,280.34c-3.22-20.04,7.38-40.09,25.82-48.62,3.22,20.04-7.42,40.04-25.82,48.62Z"/>
  <path class="cls-2"
        d="m225.09,358.13s1.58-3.84-2.12-7.34c-16.52-15.6-53.03-52.5-32.21-63.1,23.18-11.79,86.54,5.07,156.69,42.06-35.38,20.5-59.68,37.42-85.25,58.07-28.35-20.76-33.41-25.39-37.1-29.69Z"/>
  <path class="cls-2"
        d="m502.53,478.97c-8,11.96-31.14,6.6-68.29-4.66-1.69-.49-3.38-.45-4.91.16,11.34-16.45,13.82-46.77,9.86-68.87-.04-.08-.04-.21-.04-.33-.04-.08-.04-.12-.04-.17-1.2-8.66-3.09-15.51-5.28-18.56,49.36,39.71,76.87,78.48,68.71,92.42Z"/>
  <path class="cls-2"
        d="m463.46,388.26c-24.99-20.99-50.41-37.98-85.79-58.48,70.15-36.99,133.37-53.45,156.55-41.65,20.83,10.6-15.71,47.47-32.21,63.1-2.93,2.76-2.22,4.03-2.12,7.34-3.69,4.3-8.08,8.94-36.43,29.69Z"/>
  <path class="cls-2"
        d="m291.19,386.04c-2.19,3.05-4.08,9.9-5.28,18.56,0,.04,0,.08-.04.17,0,.12,0,.25-.04.33-3.96,22.1-1.48,52.42,9.86,68.87-1.53-.62-3.22-.66-4.91-.16-37.16,11.26-60.29,16.62-68.29,4.66-8.17-13.94,19.34-52.71,68.71-92.42Z"/>
  <path d="m361.96,538.42c12.33-22.23,18.76-29.86,26.97-38.48h-53.94c8.25,8.62,14.64,16.25,26.97,38.48Z"/>
  <path d="m300.06,449.76c2.97,9.9,7.67,19.22,14.06,27.3h95.68c6.43-8.08,11.09-17.4,14.06-27.3h-123.8Z"/>
  <path d="m422.75,394c-18.31-13.4-38.77-26.85-60.79-39.71-22.02,12.87-42.48,26.31-60.75,39.71-3.63,10.48-5.24,21.73-4.87,32.87h131.23c.37-11.14-1.24-22.39-4.83-32.87Z"/>
  <path class="cls-4"
        d="m502.01,351.19c-3.01,2.85-3.18,7.59-.37,10.64l1.03,1.15c43.47-37.12,69.61-65.82,56.58-88.46-14.35-20-74.81-10.52-148.96,22.85,3.75-7.55,5.61-15.84,5.61-24.08,0-3.05-.25-6.1-.78-9.11-1.77-10.64-6.76-20.87-14.97-29.03-4.45-4.49-9.57-8-15.01-10.56l.25-.58h.04l5.69-12.37c.91-1.98.04-4.33-1.94-5.24-1.98-.91-4.33-.04-5.24,1.94l-6.19,13.4c-10.27-3.13-21.32-3.13-31.59,0l-6.19-13.4c-.91-1.98-3.26-2.85-5.24-1.94-1.98.91-2.85,3.26-1.94,5.24l5.53,11.96.45.95c-5.44,2.6-10.52,6.1-15.01,10.6-10.76,10.76-16,24.99-15.71,39.18.12,7.67,1.86,15.3,5.24,22.39-19.18-8.58-125.62-52.66-147.06-22.6-19.42,27.34,40.25,75.22,56.21,88.87l1.03-1.15c2.8-3.05,2.64-7.79-.33-10.64-7.84-7.38-20.13-19.55-28.7-31.43-11.26-15.59-11.55-24.79-6.1-29.9,16.95-15.92,79.84,5.16,99.35,12.58,18.72,7.18,38.93,16.33,59.76,27.3-99.68,57.78-167.39,126.81-151.39,154.49,10.02,17.36,51.72,15.09,105.29-3.79l-1.94-3.18c-1.81-3.01-5.32-4.37-8.7-3.34-37.16,11.26-60.29,16.62-68.29,4.66-11.18-19.34,45.49-85.99,133.54-136.79l6.6-3.79c2.23,1.24,4.45,2.52,6.64,3.79,88.05,50.81,144.71,117.45,133.54,136.79-8,11.96-31.14,6.6-68.29-4.66-3.38-1.03-6.89.33-8.7,3.34l-1.94,3.18c53.57,18.89,95.27,21.16,105.29,3.79,15.96-27.67-51.72-96.71-151.39-154.49,70.15-36.99,133.37-53.45,156.55-41.65,20.83,10.6-15.71,47.47-32.21,63.1Zm-185.09-70.85c-3.22-20.04,7.38-40.08,25.82-48.62,3.22,20.04-7.42,40.04-25.82,48.62Zm89.7.04c-18.43-8.58-29.03-28.58-25.82-48.62,18.39,8.54,29.03,28.58,25.82,48.62Z"/>
  <path class="cls-2" d="m406.62,280.38c-18.43-8.58-29.03-28.58-25.82-48.62,18.39,8.54,29.03,28.58,25.82,48.62Z"/>
</svg>
