<?xml version="1.0" encoding="UTF-8"?><svg id="Logos" xmlns="http://www.w3.org/2000/svg" viewBox="0 0 1290 340"><defs><style>.cls-1{fill:#ffc000;}.cls-2{fill:#fff;}.cls-2,.cls-3{fill-rule:evenodd;}</style></defs><polygon points="176.64 9.47 43.85 66.41 11.06 210.1 102.95 325.33 250.33 325.33 342.22 210.1 309.43 66.41 176.64 9.47"/><polygon class="cls-1" points="176.64 34.16 60.72 81.84 32.09 203.26 112.31 300.63 240.97 300.63 321.19 203.26 292.56 81.84 176.64 34.16"/><path d="m520.92,55.12v137.98c0,3.15-2.65,5.7-5.91,5.7l-30.86-.27q0-53.9-.03-53.94c0-3.15-2.65-5.7-5.91-5.7h-49.3c-3.26,0-5.91,2.55-5.91,5.7l-.17,53.94c-29.4,0-30.71.27-30.71.27-3.26,0-5.91-2.55-5.91-5.7V55.12c0-3.15,2.65-5.7,5.91-5.7l30.71.18c0,52.12.17,53.24.17,53.24,0,3.15,2.65,5.7,5.91,5.7h49.3c3.26,0,5.91-2.55,5.91-5.7l-.08-53.32c34.45,0,30.97-.1,30.97-.1,3.26,0,5.91,2.55,5.91,5.7Z"/><path d="m558.86,66.72h22.12c2.89,0,5.23,2.26,5.23,5.05v122.2c0,2.79-2.34,5.05-5.23,5.05h-22.12c-2.89,0-5.23-2.26-5.23-5.05v-122.2c0-2.79,2.34-5.05,5.23-5.05Z"/><path d="m741.14,73.41l-44.36,123.77c-.73,2.03-2.72,3.4-4.95,3.4h-33.82c-2.23,0-4.21-1.36-4.95-3.39l-44.53-123.77c-1.18-3.28,1.35-6.7,4.95-6.7h22.37c2.25,0,4.25,1.38,4.96,3.44l29.13,83.67c1.6,4.59,8.34,4.59,9.93,0l28.98-83.65c.71-2.06,2.71-3.45,4.96-3.45h22.38c3.6,0,6.12,3.42,4.95,6.69Z"/><path d="m855.06,178.92v15.04c0,2.79-2.34,5.05-5.23,5.05h-81.14c-2.89,0-5.23-2.26-5.23-5.05v-122.2c0-2.79,2.34-5.05,5.23-5.05h80.24c2.89,0,5.23,2.26,5.23,5.05v15.04c0,2.79-2.34,5.05-5.23,5.05h-47.65c-2.89,0-5.23,2.26-5.23,5.05,0,0-.07-.07-.07,23.09,0,0-.66.09,48.81.09l.04,24.71c-51.08,0-48.96.19-48.96.19,0,24.28.18,23.86.18,23.86,0,2.79,2.34,5.05,5.23,5.05h48.55c2.89,0,5.23,2.26,5.23,5.05Z"/><path d="m1051.92,55.12v137.98c0,3.15-2.65,5.7-5.91,5.7h-24.97c-3.26,0-5.91-2.55-5.91-5.7l-.35-87.66c0-5.59-33.05,41.44-33.05,41.44-1.1,1.54-2.92,2.46-4.86,2.46h-12.17c-1.96,0-3.79-.93-4.89-2.49,0,0-32.76-47.33-32.76-41.72l.17,87.98c0,3.15-2.65,5.7-5.91,5.7h-24.98c-3.26,0-5.91-2.55-5.91-5.7V55.12c0-3.15,2.65-5.7,5.91-5.7h33.45c1.97,0,3.82.95,4.91,2.53l31.56,45.55c2.34,3.38,7.49,3.38,9.83,0l31.56-45.55c1.1-1.58,2.94-2.53,4.91-2.53h33.45c3.26,0,5.91,2.55,5.91,5.7Z"/><path d="m1228.04,159.19c-3.7,8.78-8.9,16.32-15.59,22.63-2.24,2.11-2.34,5.54-.27,7.79l20.4,21.54c-37.27,0-39.33.27-39.33.27-1.73,0-3.37-.73-4.49-2l-6.69-7.54c-1.46-1.64-3.74-2.3-5.92-1.82-6.41,1.4-13.41,2.1-20.99,2.1-17.17,0-31.75-3.38-43.75-10.15-11.99-6.77-20.99-16.03-26.98-27.79-6-11.76-8.99-25.06-8.99-39.91s2.99-27.72,8.99-39.41c6-11.69,14.99-20.99,26.98-27.88,11.99-6.9,26.58-10.35,43.75-10.35s31.35,3.45,43.34,10.35c11.99,6.9,21.02,16.23,27.09,27.98,6.06,11.76,9.1,24.87,9.1,39.31,0,12.75-2.22,24.37-6.64,34.88Zm-104.16-.1c7.22,8.74,17.65,13.1,31.28,13.1h.41l-9.56-10.68c-3.3-3.69-.58-9.42,4.47-9.42h25.28c1.71,0,3.34.72,4.46,1.96h0c2.65,2.94,6.65,5.46,8.64,2.07,1.67-2.83,4-8.84,5.13-12.2,2.05-6.11,3.07-12.84,3.07-20.2,0-9.06-1.64-17.14-4.91-24.24-3.27-7.09-8.07-12.68-14.41-16.75-6.34-4.07-13.87-6.11-22.59-6.11-13.49,0-23.88,4.4-31.17,13.2-7.29,8.8-10.94,20.3-10.94,34.49s3.61,26.05,10.84,34.78Z"/><path d="m439.99,280.04h-41.24v33.72h47.91v10.26h-60.46v-95.16h59.8v10.26h-47.25v30.65h41.24v10.26Z"/><path d="m462.27,324.02v-95.16h26.86c8.28,0,15.6,1.83,21.96,5.49,6.36,3.66,11.27,8.87,14.74,15.62,3.46,6.75,5.22,14.51,5.26,23.27v6.08c0,8.98-1.73,16.84-5.2,23.59-3.46,6.75-8.41,11.94-14.84,15.56-6.43,3.62-13.91,5.47-22.45,5.55h-26.34Zm12.55-84.9v74.64h13.2c9.67,0,17.2-3.01,22.58-9.03,5.38-6.02,8.07-14.59,8.07-25.71v-5.56c0-10.81-2.54-19.22-7.61-25.22-5.08-6-12.28-9.04-21.6-9.13h-14.64Z"/><path d="m620.31,311.54c-3.22,4.62-7.72,8.07-13.5,10.36s-12.49,3.43-20.16,3.43-14.64-1.82-20.65-5.46-10.66-8.81-13.95-15.52c-3.29-6.71-4.98-14.49-5.07-23.33v-8.3c0-14.33,3.34-25.45,10.03-33.33,6.69-7.89,16.09-11.83,28.2-11.83,9.93,0,17.93,2.54,23.99,7.61,6.06,5.08,9.76,12.28,11.11,21.6h-12.55c-2.35-12.63-9.85-18.95-22.48-18.95-8.41,0-14.78,2.96-19.12,8.86-4.34,5.91-6.53,14.47-6.57,25.67v7.78c0,10.68,2.44,19.18,7.32,25.48,4.88,6.3,11.48,9.45,19.8,9.45,4.71,0,8.82-.52,12.35-1.56,3.53-1.04,6.45-2.8,8.76-5.28v-21.32h-22.03v-10.26h34.51v34.9Z"/><path d="m695.01,280.04h-41.24v33.72h47.91v10.26h-60.46v-95.16h59.8v10.26h-47.25v30.65h41.24v10.26Z"/><path class="cls-2" d="m154.12,129.26c-1.59-9.91,3.65-19.81,12.76-24.03,1.59,9.91-3.67,19.79-12.76,24.03Z"/><path class="cls-2" d="m108.72,167.71s.78-1.9-1.05-3.63c-8.17-7.71-26.21-25.95-15.92-31.19,11.46-5.83,42.77,2.5,77.44,20.79-17.49,10.13-29.5,18.49-42.14,28.7-14.01-10.26-16.51-12.55-18.34-14.68Z"/><path class="cls-2" d="m245.85,227.44c-3.95,5.91-15.39,3.26-33.75-2.3-.84-.24-1.67-.22-2.43.08,5.61-8.13,6.83-23.11,4.87-34.04-.02-.04-.02-.1-.02-.16-.02-.04-.02-.06-.02-.08-.59-4.28-1.53-7.66-2.61-9.17,24.4,19.63,37.99,38.79,33.96,45.68Z"/><path class="cls-2" d="m226.54,182.6c-12.35-10.38-24.91-18.77-42.4-28.9,34.67-18.28,65.92-26.42,77.38-20.59,10.29,5.24-7.77,23.46-15.92,31.19-1.45,1.37-1.1,1.99-1.05,3.63-1.83,2.13-3.99,4.42-18,14.68Z"/><path class="cls-2" d="m141.4,181.5c-1.08,1.51-2.02,4.89-2.61,9.17,0,.02,0,.04-.02.08,0,.06,0,.12-.02.16-1.96,10.93-.73,25.91,4.87,34.04-.75-.31-1.59-.33-2.43-.08-18.37,5.56-29.8,8.21-33.75,2.3-4.04-6.89,9.56-26.05,33.96-45.68Z"/><path d="m176.37,256.82c6.09-10.99,9.27-14.76,13.33-19.02h-26.66c4.08,4.26,7.24,8.03,13.33,19.02Z"/><path d="m145.78,213c1.47,4.89,3.79,9.5,6.95,13.49h47.29c3.18-3.99,5.48-8.6,6.95-13.49h-61.19Z"/><path d="m206.42,185.44c-9.05-6.62-19.16-13.27-30.05-19.63-10.88,6.36-20.99,13-30.02,19.63-1.79,5.18-2.59,10.74-2.41,16.25h64.86c.18-5.5-.61-11.07-2.39-16.25Z"/><path class="cls-3" d="m245.6,164.28c-1.49,1.41-1.57,3.75-.18,5.26l.51.57c21.48-18.35,34.41-32.53,27.97-43.72-7.09-9.89-36.98-5.2-73.62,11.29,1.85-3.73,2.77-7.83,2.77-11.9,0-1.51-.12-3.02-.39-4.5-.88-5.26-3.34-10.31-7.4-14.35-2.2-2.22-4.73-3.95-7.42-5.22l.12-.29h.02l2.81-6.12c.45-.98.02-2.14-.96-2.59-.98-.45-2.14-.02-2.59.96l-3.06,6.62c-5.08-1.55-10.54-1.55-15.61,0l-3.06-6.62c-.45-.98-1.61-1.41-2.59-.96-.98.45-1.41,1.61-.96,2.59l2.73,5.91.22.47c-2.69,1.28-5.2,3.02-7.42,5.24-5.32,5.32-7.91,12.35-7.77,19.36.06,3.79.92,7.56,2.59,11.07-9.48-4.24-62.09-26.03-72.69-11.17-9.6,13.51,19.89,37.18,27.78,43.93l.51-.57c1.39-1.51,1.3-3.85-.16-5.26-3.87-3.65-9.95-9.66-14.19-15.53-5.56-7.7-5.71-12.25-3.02-14.78,8.38-7.87,39.46,2.55,49.1,6.22,9.25,3.55,19.24,8.07,29.54,13.49-49.27,28.56-82.74,62.68-74.83,76.36,4.95,8.58,25.56,7.46,52.04-1.88l-.96-1.57c-.9-1.49-2.63-2.16-4.3-1.65-18.37,5.56-29.8,8.21-33.75,2.3-5.52-9.56,22.48-42.5,66-67.61l3.26-1.88c1.1.61,2.2,1.24,3.28,1.88,43.52,25.11,71.53,58.05,66,67.61-3.95,5.91-15.39,3.26-33.75-2.3-1.67-.51-3.4.16-4.3,1.65l-.96,1.57c26.48,9.34,47.09,10.46,52.04,1.88,7.89-13.68-25.56-47.8-74.83-76.36,34.67-18.28,65.92-26.42,77.38-20.59,10.29,5.24-7.77,23.46-15.92,31.19Zm-91.48-35.02c-1.59-9.91,3.65-19.81,12.76-24.03,1.59,9.91-3.67,19.79-12.76,24.03Zm44.33.02c-9.11-4.24-14.35-14.13-12.76-24.03,9.09,4.22,14.35,14.13,12.76,24.03Z"/><path class="cls-2" d="m198.45,129.28c-9.11-4.24-14.35-14.13-12.76-24.03,9.09,4.22,14.35,14.13,12.76,24.03Z"/></svg>