<svg width="80" height="80" viewBox="0 0 80 80" fill="none" xmlns="http://www.w3.org/2000/svg">
<rect width="80" height="80" fill="white"/>
<path fill-rule="evenodd" clip-rule="evenodd" d="M32.2442 61.9609C32.3612 61.9603 32.4559 61.8652 32.4559 61.7481C32.4559 61.6305 32.3607 61.5353 32.2431 61.5353C32.1256 61.5353 32.0303 61.6305 32.0303 61.7481C32.0303 61.8652 32.125 61.9603 32.2421 61.9609H32.2442ZM31.6047 61.7481C31.6047 62.026 31.7823 62.2624 32.0302 62.3501V64.5145H31.179V63.876C31.179 63.7585 31.0837 63.6633 30.9662 63.6633C30.8487 63.6633 30.7534 63.7585 30.7534 63.876V64.5145H29.9022V63.2014C30.1502 63.1138 30.3279 62.8773 30.3279 62.5993C30.3279 62.2467 30.042 61.9609 29.6895 61.9609C29.3369 61.9609 29.0511 62.2467 29.0511 62.5993C29.0511 62.8772 29.2287 63.1136 29.4766 63.2013V64.5145H28.6253V63.876C28.6253 63.7585 28.5301 63.6633 28.4125 63.6633C28.295 63.6633 28.1997 63.7585 28.1997 63.876V64.5145H27.3486C26.8785 64.5145 26.4974 64.8955 26.4974 65.3656V66.2168H25.8589C25.7414 66.2168 25.6461 66.3121 25.6461 66.4296C25.6461 66.5472 25.7414 66.6424 25.8589 66.6424H26.4974V67.4936H25.8589C25.7414 67.4936 25.6461 67.5889 25.6461 67.7064C25.6461 67.8239 25.7414 67.9192 25.8589 67.9192H26.4974V68.7704H25.8589C25.7414 68.7704 25.6461 68.8657 25.6461 68.9832C25.6461 69.1007 25.7414 69.196 25.8589 69.196H26.4974V70.0472H24.3332C24.2456 69.7992 24.0091 69.6216 23.7312 69.6216C23.3786 69.6216 23.0928 69.9074 23.0928 70.26C23.0928 70.6126 23.3786 70.8984 23.7312 70.8984C24.0091 70.8984 24.2456 70.7207 24.3332 70.4728H26.4974V71.324H25.8589C25.7414 71.324 25.6461 71.4193 25.6461 71.5368C25.6461 71.6543 25.7414 71.7496 25.8589 71.7496H26.4974V72.6008H25.8589C25.7414 72.6008 25.6461 72.696 25.6461 72.8136C25.6461 72.9311 25.7414 73.0264 25.8589 73.0264H26.4974V73.8776H25.8589C25.7414 73.8776 25.6461 73.9728 25.6461 74.0904C25.6461 74.2079 25.7414 74.3032 25.8589 74.3032H26.4974V75.1543C26.4974 75.6244 26.8785 76.0055 27.3486 76.0055H28.1997V76.6439C28.1997 76.7615 28.2949 76.8567 28.4125 76.8567C28.53 76.8567 28.6252 76.7615 28.6252 76.6439V76.0055H29.4765L29.4765 77.3187C29.2287 77.4064 29.0511 77.6428 29.0511 77.9207C29.0511 78.2733 29.3369 78.5591 29.6895 78.5591C30.0421 78.5591 30.3279 78.2733 30.3279 77.9207C30.3279 77.6427 30.1501 77.4061 29.9021 77.3186V76.0055H30.7533V76.6439C30.7533 76.7615 30.8486 76.8567 30.9661 76.8567C31.0836 76.8567 31.1789 76.7615 31.1789 76.6439V76.0055H32.0301V78.1698C31.7821 78.2574 31.6044 78.4939 31.6044 78.7719C31.6044 79.1245 31.8903 79.4103 32.2428 79.4103C32.5954 79.4103 32.8812 79.1245 32.8812 78.7719C32.8812 78.494 32.7036 78.2575 32.4557 78.1699V76.0055H33.307V76.6439C33.307 76.7615 33.4022 76.8567 33.5198 76.8567C33.6373 76.8567 33.7326 76.7615 33.7326 76.6439V76.0055H34.5838V77.3187C34.336 77.4064 34.1584 77.6428 34.1584 77.9207C34.1584 78.2733 34.4442 78.5591 34.7968 78.5591C35.1494 78.5591 35.4352 78.2733 35.4352 77.9207C35.4352 77.6427 35.2575 77.4061 35.0094 77.3186V76.0055H35.8606V76.6439C35.8606 76.7615 35.9559 76.8567 36.0734 76.8567C36.1909 76.8567 36.2862 76.7615 36.2862 76.6439V76.0055H37.1373C37.6074 76.0055 37.9885 75.6244 37.9885 75.1543V74.3031H38.627C38.7445 74.3031 38.8398 74.2079 38.8398 74.0903C38.8398 73.9728 38.7445 73.8775 38.627 73.8775H37.9885V73.0264H38.627C38.7445 73.0264 38.8398 72.9311 38.8398 72.8136C38.8398 72.6961 38.7445 72.6008 38.627 72.6008H37.9885V71.7496H38.627C38.7445 71.7496 38.8398 71.6543 38.8398 71.5368C38.8398 71.4192 38.7445 71.324 38.627 71.324H37.9885V70.4728H40.153C40.2407 70.7207 40.4772 70.8984 40.7551 70.8984C41.1077 70.8984 41.3935 70.6126 41.3935 70.26C41.3935 69.9074 41.1077 69.6216 40.7551 69.6216C40.4772 69.6216 40.2407 69.7992 40.1531 70.0472H37.9885V69.196H38.627C38.7445 69.196 38.8398 69.1007 38.8398 68.9832C38.8398 68.8657 38.7445 68.7704 38.627 68.7704H37.9885V67.9192H38.627C38.7445 67.9192 38.8398 67.824 38.8398 67.7064C38.8398 67.5889 38.7445 67.4936 38.627 67.4936H37.9885V66.6424H38.627C38.7445 66.6424 38.8398 66.5471 38.8398 66.4296C38.8398 66.3121 38.7445 66.2168 38.627 66.2168H37.9885V65.3656C37.9885 64.8955 37.6074 64.5145 37.1373 64.5145H36.286V63.876C36.286 63.7585 36.1907 63.6633 36.0732 63.6633C35.9557 63.6633 35.8604 63.7585 35.8604 63.876V64.5145H35.0095V63.2013C35.2573 63.1136 35.4348 62.8771 35.4348 62.5993C35.4348 62.2467 35.149 61.9609 34.7964 61.9609C34.4439 61.9609 34.1581 62.2467 34.1581 62.5993C34.1581 62.8773 34.3358 63.1139 34.5839 63.2014V64.5145H33.7327V63.876C33.7327 63.7585 33.6374 63.6633 33.5199 63.6633C33.4023 63.6633 33.3071 63.7585 33.3071 63.876V64.5145H32.4558V62.3502C32.7038 62.2626 32.8815 62.0261 32.8815 61.7481C32.8815 61.3955 32.5957 61.1097 32.2431 61.1097C31.8906 61.1097 31.6047 61.3955 31.6047 61.7481ZM23.9438 70.2505V70.2695C23.9388 70.3826 23.8455 70.4728 23.7312 70.4728C23.6136 70.4728 23.5184 70.3775 23.5184 70.26C23.5184 70.1425 23.6136 70.0472 23.7312 70.0472C23.8455 70.0472 23.9388 70.1374 23.9438 70.2505ZM29.6869 77.7079H29.6921C29.8084 77.7093 29.9023 77.804 29.9023 77.9207C29.9023 78.0382 29.807 78.1335 29.6895 78.1335C29.572 78.1335 29.4767 78.0382 29.4767 77.9207C29.4767 77.804 29.5706 77.7093 29.6869 77.7079ZM32.03 78.7719C32.03 78.6547 32.1248 78.5596 32.2419 78.5591L32.2428 78.5591L32.2437 78.5591C32.3609 78.5596 32.4556 78.6547 32.4556 78.7719C32.4556 78.8894 32.3604 78.9847 32.2428 78.9847C32.1253 78.9847 32.03 78.8894 32.03 78.7719ZM34.7942 77.7079H34.7994C34.9157 77.7093 35.0096 77.804 35.0096 77.9207C35.0096 78.0382 34.9143 78.1335 34.7968 78.1335C34.6793 78.1335 34.584 78.0382 34.584 77.9207C34.584 77.804 34.6779 77.7093 34.7942 77.7079ZM34.7939 62.8121C34.6775 62.8107 34.5836 62.7159 34.5836 62.5993C34.5836 62.4818 34.6789 62.3865 34.7964 62.3865C34.914 62.3865 35.0092 62.4818 35.0092 62.5993C35.0092 62.7159 34.9154 62.8107 34.799 62.8121H34.7939ZM29.6921 62.8121C29.8084 62.8107 29.9023 62.7159 29.9023 62.5993C29.9023 62.4818 29.807 62.3865 29.6895 62.3865C29.5719 62.3865 29.4767 62.4818 29.4767 62.5993C29.4767 62.7159 29.5706 62.8107 29.6869 62.8121H29.6921ZM27.3486 65.3656V75.1543H37.1373V65.3656H27.3486ZM29.4766 66.4296C29.4766 66.3121 29.5718 66.2168 29.6894 66.2168H30.5406C30.6581 66.2168 30.7534 66.3121 30.7534 66.4296C30.7534 66.5471 30.6581 66.6424 30.5406 66.6424H29.6894C29.5718 66.6424 29.4766 66.5471 29.4766 66.4296ZM28.6252 68.9832C28.6252 69.1007 28.7205 69.196 28.838 69.196C28.9556 69.196 29.0508 69.1007 29.0508 68.9832V67.7064C29.0508 67.5889 28.9556 67.4936 28.838 67.4936C28.7205 67.4936 28.6252 67.5889 28.6252 67.7064V68.9832ZM35.648 69.196C35.5305 69.196 35.4352 69.1007 35.4352 68.9832V67.7064C35.4352 67.5889 35.5305 67.4936 35.648 67.4936C35.7655 67.4936 35.8608 67.5889 35.8608 67.7064V68.9832C35.8608 69.1007 35.7655 69.196 35.648 69.196ZM28.6252 72.8136C28.6252 72.9311 28.7205 73.0264 28.838 73.0264C28.9556 73.0264 29.0508 72.9311 29.0508 72.8136L29.0508 70.26C29.0508 70.1425 28.9556 70.0472 28.838 70.0472C28.7205 70.0472 28.6252 70.1425 28.6252 70.26V72.8136ZM35.648 73.0264C35.5305 73.0264 35.4352 72.9311 35.4352 72.8136V70.26C35.4352 70.1425 35.5305 70.0472 35.648 70.0472C35.7655 70.0472 35.8608 70.1425 35.8608 70.26V72.8136C35.8608 72.9311 35.7655 73.0264 35.648 73.0264ZM33.094 72.6008C32.9765 72.6008 32.8812 72.6961 32.8812 72.8136C32.8812 72.9311 32.9765 73.0264 33.094 73.0264H34.7964C34.9139 73.0264 35.0092 72.9311 35.0092 72.8136C35.0092 72.6961 34.9139 72.6008 34.7964 72.6008H33.094ZM29.4766 74.0903C29.4766 73.9728 29.5718 73.8775 29.6894 73.8775H30.5406C30.6581 73.8775 30.7534 73.9728 30.7534 74.0903C30.7534 74.2079 30.6581 74.3031 30.5406 74.3031H29.6894C29.5718 74.3031 29.4766 74.2079 29.4766 74.0903ZM31.8175 66.2168C31.7 66.2168 31.6047 66.3121 31.6047 66.4296C31.6047 66.5471 31.7 66.6424 31.8175 66.6424H34.7967C34.9142 66.6424 35.0095 66.5471 35.0095 66.4296C35.0095 66.3121 34.9142 66.2168 34.7967 66.2168H31.8175ZM31.6047 74.0903C31.6047 73.9728 31.7 73.8775 31.8175 73.8775H34.7967C34.9142 73.8775 35.0095 73.9728 35.0095 74.0903C35.0095 74.2079 34.9142 74.3031 34.7967 74.3031H31.8175C31.7 74.3031 31.6047 74.2079 31.6047 74.0903ZM29.6894 67.4936C29.5718 67.4936 29.4766 67.5889 29.4766 67.7064C29.4766 67.824 29.5718 67.9192 29.6894 67.9192H31.8174C31.9349 67.9192 32.0301 67.824 32.0301 67.7064C32.0301 67.5889 31.9349 67.4936 31.8174 67.4936H29.6894ZM28.1998 66.004C28.1998 66.1216 28.1046 66.2168 27.987 66.2168C27.8695 66.2168 27.7743 66.1216 27.7743 66.004C27.7743 65.8865 27.8695 65.7912 27.987 65.7912C28.1046 65.7912 28.1998 65.8865 28.1998 66.004ZM27.987 74.7288C28.1046 74.7288 28.1998 74.6335 28.1998 74.516C28.1998 74.3984 28.1046 74.3032 27.987 74.3032C27.8695 74.3032 27.7743 74.3984 27.7743 74.516C27.7743 74.6335 27.8695 74.7288 27.987 74.7288ZM36.7118 66.004C36.7118 66.1216 36.6165 66.2168 36.499 66.2168C36.3815 66.2168 36.2862 66.1216 36.2862 66.004C36.2862 65.8865 36.3815 65.7912 36.499 65.7912C36.6165 65.7912 36.7118 65.8865 36.7118 66.004ZM36.499 74.7288C36.6165 74.7288 36.7118 74.6335 36.7118 74.516C36.7118 74.3984 36.6165 74.3032 36.499 74.3032C36.3815 74.3032 36.2862 74.3984 36.2862 74.516C36.2862 74.6335 36.3815 74.7288 36.499 74.7288ZM40.7551 70.4728C40.6376 70.4728 40.5423 70.3775 40.5423 70.26C40.5423 70.1425 40.6376 70.0472 40.7551 70.0472C40.8726 70.0472 40.9679 70.1425 40.9679 70.26C40.9679 70.3775 40.8726 70.4728 40.7551 70.4728Z" fill="#76A3D3"/>
<circle cx="32.9131" cy="61.5848" r="0.475158" fill="#75DAFE" fill-opacity="0.8"/>
<circle cx="30.983" cy="62.535" r="0.475158" fill="#75DAFE" fill-opacity="0.8"/>
<circle cx="24.8448" cy="70.7351" r="0.475158" fill="#75DAFE" fill-opacity="0.8"/>
<circle cx="30.5074" cy="78.2859" r="0.475158" fill="#75DAFE" fill-opacity="0.8"/>
<path d="M30.2925 68.6062C30.2925 68.4437 30.3816 68.2944 30.5246 68.2173C30.8189 68.0587 31.176 68.2718 31.176 68.6062V70.9418L31.0079 73.1245C30.9935 73.3111 30.8379 73.4552 30.6507 73.4552C30.4529 73.4552 30.2925 73.2948 30.2925 73.097V68.6062Z" fill="#91E1FE"/>
<path d="M36.2681 73.4553C36.4538 73.4553 36.6197 73.5715 36.6832 73.746C36.7881 74.0341 36.5747 74.3388 36.2681 74.3388L34.8226 74.3388L33.4492 74.1821C33.265 74.1611 33.1259 74.0053 33.1259 73.8199C33.1259 73.6185 33.2891 73.4553 33.4905 73.4553L36.2681 73.4553Z" fill="#91E1FE" fill-opacity="0.5"/>
<path d="M31.4421 65.5764C31.6539 65.5764 31.836 65.7268 31.8759 65.9349C31.9281 66.2073 31.7194 66.4598 31.4421 66.4598L30.9713 66.4598C30.9122 66.4598 30.8533 66.4535 30.7955 66.441L30.2893 66.3315C30.1136 66.2934 29.9882 66.138 29.9882 65.9582C29.9882 65.7473 30.1592 65.5764 30.3701 65.5764L31.4421 65.5764Z" fill="#91E1FE" fill-opacity="0.5"/>
<rect x="27.4551" y="7.57886" width="12.3314" height="23.2399" rx="2" stroke="#76A3D3"/>
<rect x="29.9451" y="9.35742" width="2.60856" height="0.711426" rx="0.355713" transform="rotate(90 29.9451 9.35742)" stroke="#76A3D3" stroke-opacity="0.3" stroke-width="0.711426"/>
<rect x="30.6533" y="9.00171" width="3.31999" height="1.06413" rx="0.532064" transform="rotate(90 30.6533 9.00171)" fill="#00C1FE" fill-opacity="0.5"/>
<rect x="34.4478" y="9.00171" width="3.31999" height="1.06413" rx="0.532064" transform="rotate(90 34.4478 9.00171)" fill="#00C1FE" fill-opacity="0.5"/>
<rect x="32.5508" y="14.6931" width="3.31999" height="1.06413" rx="0.532064" transform="rotate(90 32.5508 14.6931)" fill="#00C1FE" fill-opacity="0.5"/>
<rect x="30.6533" y="20.3845" width="3.31999" height="1.06413" rx="0.532064" transform="rotate(90 30.6533 20.3845)" fill="#00C1FE" fill-opacity="0.5"/>
<rect x="32.73" y="20.3845" width="3.31999" height="1.06413" rx="0.532064" transform="rotate(90 32.73 20.3845)" fill="#00C1FE" fill-opacity="0.5"/>
<rect x="34.4478" y="26.0759" width="3.31999" height="1.06413" rx="0.532064" transform="rotate(90 34.4478 26.0759)" fill="#00C1FE" fill-opacity="0.5"/>
<rect x="30.833" y="26.0759" width="3.31999" height="1.06413" rx="0.532064" transform="rotate(90 30.833 26.0759)" fill="#00C1FE" fill-opacity="0.5"/>
<rect x="29.9451" y="15.0488" width="2.60856" height="0.711426" rx="0.355713" transform="rotate(90 29.9451 15.0488)" stroke="#76A3D3" stroke-opacity="0.3" stroke-width="0.711426"/>
<rect x="29.9451" y="20.7402" width="2.60856" height="0.711426" rx="0.355713" transform="rotate(90 29.9451 20.7402)" stroke="#76A3D3" stroke-opacity="0.3" stroke-width="0.711426"/>
<rect x="29.9451" y="26.4316" width="2.60856" height="0.711426" rx="0.355713" transform="rotate(90 29.9451 26.4316)" stroke="#76A3D3" stroke-opacity="0.3" stroke-width="0.711426"/>
<rect x="31.842" y="9.35742" width="2.60856" height="0.711426" rx="0.355713" transform="rotate(90 31.842 9.35742)" stroke="#76A3D3" stroke-opacity="0.3" stroke-width="0.711426"/>
<rect x="31.842" y="15.0488" width="2.60856" height="0.711426" rx="0.355713" transform="rotate(90 31.842 15.0488)" stroke="#76A3D3" stroke-opacity="0.3" stroke-width="0.711426"/>
<rect x="31.842" y="20.7402" width="2.60856" height="0.711426" rx="0.355713" transform="rotate(90 31.842 20.7402)" stroke="#76A3D3" stroke-opacity="0.3" stroke-width="0.711426"/>
<rect x="31.842" y="26.4316" width="2.60856" height="0.711426" rx="0.355713" transform="rotate(90 31.842 26.4316)" stroke="#76A3D3" stroke-opacity="0.3" stroke-width="0.711426"/>
<rect x="33.7395" y="9.35742" width="2.60856" height="0.711426" rx="0.355713" transform="rotate(90 33.7395 9.35742)" stroke="#76A3D3" stroke-opacity="0.3" stroke-width="0.711426"/>
<rect x="33.7395" y="15.0488" width="2.60856" height="0.711426" rx="0.355713" transform="rotate(90 33.7395 15.0488)" stroke="#76A3D3" stroke-opacity="0.3" stroke-width="0.711426"/>
<rect x="33.7395" y="20.7402" width="2.60856" height="0.711426" rx="0.355713" transform="rotate(90 33.7395 20.7402)" stroke="#76A3D3" stroke-opacity="0.3" stroke-width="0.711426"/>
<rect x="33.7395" y="26.4316" width="2.60856" height="0.711426" rx="0.355713" transform="rotate(90 33.7395 26.4316)" stroke="#76A3D3" stroke-opacity="0.3" stroke-width="0.711426"/>
<rect x="38.0081" y="11.2546" width="0.711426" height="0.711426" rx="0.355713" transform="rotate(90 38.0081 11.2546)" stroke="#76A3D3" stroke-width="0.711426"/>
<rect x="38.0081" y="16.946" width="0.711426" height="0.711426" rx="0.355713" transform="rotate(90 38.0081 16.946)" stroke="#76A3D3" stroke-width="0.711426"/>
<rect x="38.0081" y="22.6374" width="0.711426" height="0.711426" rx="0.355713" transform="rotate(90 38.0081 22.6374)" stroke="#76A3D3" stroke-width="0.711426"/>
<rect x="38.0081" y="28.3288" width="0.711426" height="0.711426" rx="0.355713" transform="rotate(90 38.0081 28.3288)" stroke="#76A3D3" stroke-width="0.711426"/>
<line x1="27.4551" y1="13.2446" x2="39.7865" y2="13.2446" stroke="#76A3D3"/>
<line x1="27.4551" y1="18.936" x2="39.7865" y2="18.936" stroke="#76A3D3"/>
<line x1="27.4551" y1="24.6274" x2="39.7865" y2="24.6274" stroke="#76A3D3"/>
<path d="M5.59358 17.9183L12.6977 16.4124L13.8106 18.1474L8.76914 19.7188L11.8136 20.9955L13.3522 21.3556L14.8581 22.6324V24.3347L14.2361 24.6293L14.8581 27.7393H15.1528L16.5605 28.6232V30.391H5.59358L6.05196 28.6232L7.5906 27.7393C8.15805 26.9318 9.18817 25.3103 8.76914 25.2841C8.3501 25.2579 8.94374 24.6402 9.29293 24.3347V23.5817L6.05196 21.8467L4.8407 21.683L3.59669 21.3556L3.23658 20.2753V19.0968L4.21869 17.9183H5.59358Z" fill="white"/>
<path fill-rule="evenodd" clip-rule="evenodd" d="M14.859 17.7886C15.5 17.7886 16.0197 17.3022 16.0197 16.7022C16.0197 16.1022 15.5 15.6158 14.859 15.6158C14.218 15.6158 13.6984 16.1022 13.6984 16.7022C13.6984 17.3022 14.218 17.7886 14.859 17.7886ZM14.859 18.099C15.6832 18.099 16.3513 17.4736 16.3513 16.7022C16.3513 15.9308 15.6832 15.3054 14.859 15.3054C14.0349 15.3054 13.3668 15.9308 13.3668 16.7022C13.3668 17.4736 14.0349 18.099 14.859 18.099Z" fill="#76A3D3"/>
<path fill-rule="evenodd" clip-rule="evenodd" d="M5.57387 21.2029C6.39802 21.2029 7.06613 20.5776 7.06613 19.8061C7.06613 19.0347 6.39802 18.4094 5.57387 18.4094C4.74972 18.4094 4.08161 19.0347 4.08161 19.8061C4.08161 20.5776 4.74972 21.2029 5.57387 21.2029ZM5.57387 21.5133C6.58117 21.5133 7.39774 20.749 7.39774 19.8061C7.39774 18.8633 6.58117 18.099 5.57387 18.099C4.56658 18.099 3.75 18.8633 3.75 19.8061C3.75 20.749 4.56658 21.5133 5.57387 21.5133Z" fill="#76A3D3"/>
<path fill-rule="evenodd" clip-rule="evenodd" d="M14.6932 28.342H8.06097C7.4429 28.342 6.92356 28.7377 6.77631 29.2732H15.9779C15.8306 28.7377 15.3113 28.342 14.6932 28.342ZM16.3181 29.2732C16.1645 28.5648 15.4954 28.0316 14.6932 28.0316H8.06097C7.25881 28.0316 6.5897 28.5648 6.43607 29.2732C6.41432 29.3735 6.4029 29.4773 6.4029 29.5836H16.3513C16.3513 29.4773 16.3399 29.3735 16.3181 29.2732Z" fill="#76A3D3"/>
<path fill-rule="evenodd" clip-rule="evenodd" d="M16.0197 29.5836H6.73452V29.894H16.0197V29.5836ZM6.4029 29.2732V30.2044H16.3513V29.2732H6.4029Z" fill="#76A3D3"/>
<path fill-rule="evenodd" clip-rule="evenodd" d="M12.0403 25.2381C13.1392 25.2381 14.03 24.4043 14.03 23.3757C14.03 22.3471 13.1392 21.5133 12.0403 21.5133C10.9415 21.5133 10.0506 22.3471 10.0506 23.3757C10.0506 24.4043 10.9415 25.2381 12.0403 25.2381ZM12.0403 25.5485C13.3223 25.5485 14.3616 24.5757 14.3616 23.3757C14.3616 22.1757 13.3223 21.2029 12.0403 21.2029C10.7583 21.2029 9.71904 22.1757 9.71904 23.3757C9.71904 24.5757 10.7583 25.5485 12.0403 25.5485Z" fill="#76A3D3"/>
<path fill-rule="evenodd" clip-rule="evenodd" d="M12.0403 24.3069C12.5898 24.3069 13.0352 23.89 13.0352 23.3757C13.0352 22.8614 12.5898 22.4445 12.0403 22.4445C11.4909 22.4445 11.0455 22.8614 11.0455 23.3757C11.0455 23.89 11.4909 24.3069 12.0403 24.3069ZM12.0403 24.6173C12.7729 24.6173 13.3668 24.0614 13.3668 23.3757C13.3668 22.69 12.7729 22.1341 12.0403 22.1341C11.3077 22.1341 10.7139 22.69 10.7139 23.3757C10.7139 24.0614 11.3077 24.6173 12.0403 24.6173Z" fill="#76A3D3"/>
<path fill-rule="evenodd" clip-rule="evenodd" d="M5.57387 20.2717C5.84859 20.2717 6.07129 20.0633 6.07129 19.8061C6.07129 19.549 5.84859 19.3406 5.57387 19.3406C5.29915 19.3406 5.07645 19.549 5.07645 19.8061C5.07645 20.0633 5.29915 20.2717 5.57387 20.2717ZM5.57387 20.5821C6.03173 20.5821 6.4029 20.2347 6.4029 19.8061C6.4029 19.3776 6.03173 19.0302 5.57387 19.0302C5.11601 19.0302 4.74484 19.3776 4.74484 19.8061C4.74484 20.2347 5.11601 20.5821 5.57387 20.5821Z" fill="#76A3D3"/>
<path d="M15.3565 16.7022C15.3565 16.9593 15.1338 17.1678 14.859 17.1678C14.5843 17.1678 14.3616 16.9593 14.3616 16.7022C14.3616 16.4451 14.5843 16.2366 14.859 16.2366C15.1338 16.2366 15.3565 16.4451 15.3565 16.7022Z" fill="#76A3D3"/>
<path fill-rule="evenodd" clip-rule="evenodd" d="M13.4285 16.3033L5.81416 18.1137C6.02842 18.1401 6.23097 18.2013 6.4151 18.291L13.3683 16.6379C13.3739 16.5221 13.3945 16.41 13.4285 16.3033ZM9.71906 23.3849L5.91895 21.4828C6.07202 21.4554 6.21829 21.41 6.35518 21.3492L9.74556 23.0462C9.72809 23.1536 9.71904 23.2637 9.71904 23.3757C9.71904 23.3788 9.71904 23.3819 9.71906 23.3849ZM9.80716 23.9707L7.99013 28.0316H8.34965L9.98257 24.3822C9.90987 24.2522 9.8508 24.1145 9.80716 23.9707ZM13.9711 24.5822L14.4166 28.0316H14.7506L14.2394 24.0732C14.1737 24.2548 14.083 24.4257 13.9711 24.5822ZM12.2527 21.2119L8.78243 19.6486L14.169 17.941C14.047 17.8814 13.935 17.8064 13.8358 17.7189L7.90661 19.5985L11.568 21.2479C11.7205 21.2184 11.8785 21.2029 12.0403 21.2029C12.1119 21.2029 12.1827 21.206 12.2527 21.2119Z" fill="#76A3D3"/>
<path fill-rule="evenodd" clip-rule="evenodd" d="M17.6185 15.4174C17.4205 15.2416 17.1428 15.1683 16.8759 15.2213L15.9929 15.3966C15.8755 15.42 15.7667 15.4664 15.6728 15.5312C15.7707 15.5909 15.8607 15.6611 15.9408 15.7401C15.9787 15.7222 16.0192 15.7087 16.0617 15.7003L16.9448 15.5249C17.1049 15.4932 17.2715 15.5371 17.3903 15.6426L18.3732 16.5151C18.4234 16.5597 18.4329 16.6313 18.3959 16.6861C18.3566 16.7442 18.2771 16.7656 18.2108 16.7359L17.2275 16.295C16.9702 16.1797 16.6675 16.1963 16.4263 16.339L16.3171 16.4036C16.3395 16.4998 16.3513 16.5997 16.3513 16.7022C16.3513 16.7195 16.351 16.7367 16.3503 16.7539C16.3631 16.7446 16.3764 16.7358 16.3901 16.7277L16.6036 16.6013C16.7483 16.5157 16.9299 16.5057 17.0843 16.575L18.0676 17.0158C18.2855 17.1135 18.547 17.0431 18.6762 16.852C18.7979 16.672 18.7665 16.4365 18.6014 16.2899L17.6185 15.4174ZM15.996 17.6069C15.9005 17.7119 15.7888 17.8035 15.6644 17.8783V18.1385C15.6644 18.4372 15.8475 18.7094 16.1353 18.8384L17.0198 19.2349C17.0911 19.2669 17.1166 19.3499 17.0743 19.4124C17.046 19.4542 16.9938 19.4762 16.9417 19.4683L15.6797 19.2768C15.4989 19.2494 15.3488 19.1311 15.2891 18.9691L14.967 18.0954C14.9313 18.0978 14.8953 18.099 14.859 18.099C14.7745 18.099 14.6916 18.0924 14.6109 18.0797C14.6135 18.0878 14.6163 18.0957 14.6192 18.1037L14.9756 19.0703C15.0752 19.3404 15.3253 19.5375 15.6266 19.5832L16.8886 19.7747C17.0719 19.8025 17.2553 19.7252 17.3545 19.5784C17.5029 19.3588 17.4134 19.0672 17.163 18.955L16.2785 18.5585C16.1059 18.481 15.996 18.3177 15.996 18.1385V17.6069Z" fill="#76A3D3"/>
<g style="mix-blend-mode:multiply">
<circle cx="11.6449" cy="22.7282" r="1.57895" fill="#75DAFE" fill-opacity="0.8"/>
</g>
<g style="mix-blend-mode:multiply">
<circle cx="5.25874" cy="19.5" r="0.719187" fill="#75DAFE" fill-opacity="0.8"/>
</g>
<path d="M17.9603 16.4124C17.8673 16.4124 17.2823 16.4124 17.0014 16.4124C16.8302 16.4124 16.4666 16.4124 16.3813 16.4124" stroke="#00C1FE" stroke-opacity="0.3" stroke-width="2"/>
<path d="M16.7272 18.8894C16.4377 18.8433 15.8488 18.7215 15.8094 18.6031C15.7699 18.4847 15.6482 18.1459 15.5923 17.9913" stroke="#00C1FE" stroke-opacity="0.3" stroke-width="2"/>
<g style="mix-blend-mode:multiply">
<path fill-rule="evenodd" clip-rule="evenodd" d="M14.0134 30.6229L6.29409 30.3071L6.11865 29.0439H13.1362L13.6625 29.6755L14.0134 30.6229Z" fill="#00C1FE" fill-opacity="0.3"/>
</g>
<path fill-rule="evenodd" clip-rule="evenodd" d="M24.2769 28.3215H25.0664V27.532H24.2769V28.3215ZM22.698 28.3215H23.4875V27.532H22.698V28.3215ZM21.119 28.3215H21.9085V27.532H21.119V28.3215Z" fill="#00C1FE"/>
<path fill-rule="evenodd" clip-rule="evenodd" d="M24.2769 23.0992H25.0664V22.3097H24.2769V23.0992ZM22.698 23.0992H23.4875V22.3097H22.698V23.0992Z" fill="#00C1FE"/>
<path fill-rule="evenodd" clip-rule="evenodd" d="M24.2769 17.8768H25.0664V17.0873H24.2769V17.8768ZM22.698 17.8768H23.4875V17.0873H22.698V17.8768ZM21.119 17.8768H21.9085V17.0873H21.119V17.8768Z" fill="#00C1FE"/>
<path d="M5.21655 26.7263L14.1299 24.8188L15.5262 27.0165L9.20085 29.0069L13.0207 30.6241L14.9512 31.0803L16.8406 32.6975V34.8538L16.0602 35.227L16.8406 39.1663H17.2103L18.9766 40.2859V42.5251H5.21655L5.79168 40.2859L7.72217 39.1663C8.43413 38.1435 9.7266 36.0895 9.20085 36.0563C8.6751 36.0231 9.41992 35.2408 9.85804 34.8538V33.9L5.79168 31.7023L4.27192 31.4949L2.7111 31.0803L2.25928 29.7119V28.219L3.49151 26.7263H5.21655Z" fill="white"/>
<path fill-rule="evenodd" clip-rule="evenodd" d="M16.8215 26.562C17.6334 26.562 18.2916 25.9459 18.2916 25.1859C18.2916 24.4259 17.6334 23.8098 16.8215 23.8098C16.0095 23.8098 15.3513 24.4259 15.3513 25.1859C15.3513 25.9459 16.0095 26.562 16.8215 26.562ZM16.8215 26.9551C17.8654 26.9551 18.7116 26.163 18.7116 25.1859C18.7116 24.2088 17.8654 23.4166 16.8215 23.4166C15.7775 23.4166 14.9313 24.2088 14.9313 25.1859C14.9313 26.163 15.7775 26.9551 16.8215 26.9551Z" fill="#76A3D3"/>
<path fill-rule="evenodd" clip-rule="evenodd" d="M5.06024 30.8868C6.10416 30.8868 6.95043 30.0947 6.95043 29.1176C6.95043 28.1404 6.10416 27.3483 5.06024 27.3483C4.01631 27.3483 3.17004 28.1404 3.17004 29.1176C3.17004 30.0947 4.01631 30.8868 5.06024 30.8868ZM5.06024 31.28C6.33615 31.28 7.37048 30.3118 7.37048 29.1176C7.37048 27.9233 6.33615 26.9551 5.06024 26.9551C3.78433 26.9551 2.75 27.9233 2.75 29.1176C2.75 30.3118 3.78433 31.28 5.06024 31.28Z" fill="#76A3D3"/>
<path fill-rule="evenodd" clip-rule="evenodd" d="M16.6114 39.9297H8.21056C7.42767 39.9297 6.76984 40.4309 6.58332 41.1092H18.2387C18.0522 40.4309 17.3943 39.9297 16.6114 39.9297ZM18.6696 41.1092C18.475 40.2119 17.6275 39.5365 16.6114 39.5365H8.21056C7.1945 39.5365 6.34695 40.2119 6.15236 41.1092C6.12481 41.2362 6.11035 41.3677 6.11035 41.5024H18.7116C18.7116 41.3677 18.6972 41.2362 18.6696 41.1092Z" fill="#76A3D3"/>
<path fill-rule="evenodd" clip-rule="evenodd" d="M18.2916 41.5024H6.53039V41.8955H18.2916V41.5024ZM6.11035 41.1092V42.2887H18.7116V41.1092H6.11035Z" fill="#76A3D3"/>
<path fill-rule="evenodd" clip-rule="evenodd" d="M13.2511 35.998C14.643 35.998 15.7713 34.9418 15.7713 33.639C15.7713 32.3362 14.643 31.28 13.2511 31.28C11.8592 31.28 10.7308 32.3362 10.7308 33.639C10.7308 34.9418 11.8592 35.998 13.2511 35.998ZM13.2511 36.3912C14.875 36.3912 16.1914 35.159 16.1914 33.639C16.1914 32.119 14.875 30.8868 13.2511 30.8868C11.6272 30.8868 10.3108 32.119 10.3108 33.639C10.3108 35.159 11.6272 36.3912 13.2511 36.3912Z" fill="#76A3D3"/>
<path fill-rule="evenodd" clip-rule="evenodd" d="M13.2511 34.8185C13.947 34.8185 14.5112 34.2904 14.5112 33.639C14.5112 32.9876 13.947 32.4595 13.2511 32.4595C12.5551 32.4595 11.991 32.9876 11.991 33.639C11.991 34.2904 12.5551 34.8185 13.2511 34.8185ZM13.2511 35.2117C14.179 35.2117 14.9313 34.5076 14.9313 33.639C14.9313 32.7704 14.179 32.0663 13.2511 32.0663C12.3231 32.0663 11.5709 32.7704 11.5709 33.639C11.5709 34.5076 12.3231 35.2117 13.2511 35.2117Z" fill="#76A3D3"/>
<path fill-rule="evenodd" clip-rule="evenodd" d="M5.06024 29.7073C5.40821 29.7073 5.6903 29.4433 5.6903 29.1176C5.6903 28.7919 5.40821 28.5278 5.06024 28.5278C4.71226 28.5278 4.43017 28.7919 4.43017 29.1176C4.43017 29.4433 4.71226 29.7073 5.06024 29.7073ZM5.06024 30.1005C5.6402 30.1005 6.11035 29.6604 6.11035 29.1176C6.11035 28.5747 5.6402 28.1347 5.06024 28.1347C4.48028 28.1347 4.01013 28.5747 4.01013 29.1176C4.01013 29.6604 4.48028 30.1005 5.06024 30.1005Z" fill="#76A3D3"/>
<path d="M17.4515 25.1859C17.4515 25.5116 17.1694 25.7756 16.8215 25.7756C16.4735 25.7756 16.1914 25.5116 16.1914 25.1859C16.1914 24.8602 16.4735 24.5961 16.8215 24.5961C17.1694 24.5961 17.4515 24.8602 17.4515 25.1859Z" fill="#76A3D3"/>
<path fill-rule="evenodd" clip-rule="evenodd" d="M15.0094 24.6806L5.36461 26.9738C5.636 27.0072 5.89256 27.0847 6.12579 27.1984L14.9331 25.1044C14.9402 24.9578 14.9664 24.8158 15.0094 24.6806ZM10.3108 33.6507L5.49734 31.2413C5.69122 31.2066 5.8765 31.1491 6.0499 31.0721L10.3444 33.2216C10.3223 33.3577 10.3108 33.4971 10.3108 33.639C10.3108 33.6429 10.3108 33.6468 10.3108 33.6507ZM10.4224 34.3927L8.12084 39.5365H8.57623L10.6446 34.9139C10.5525 34.7493 10.4777 34.5748 10.4224 34.3927ZM15.6968 35.1673L16.261 39.5365H16.6841L16.0366 34.5225C15.9534 34.7526 15.8385 34.969 15.6968 35.1673ZM13.52 30.8982L9.12441 28.918L15.9474 26.7551C15.7929 26.6795 15.651 26.5846 15.5253 26.4737L8.01504 28.8546L12.6528 30.9438C12.846 30.9065 13.0461 30.8868 13.2511 30.8868C13.3417 30.8868 13.4315 30.8907 13.52 30.8982Z" fill="#76A3D3"/>
<path fill-rule="evenodd" clip-rule="evenodd" d="M20.3167 23.5584C20.066 23.3358 19.7143 23.243 19.3762 23.3101L18.2576 23.5322C18.1089 23.5617 17.9712 23.6206 17.8523 23.7026C17.9763 23.7783 18.0902 23.8672 18.1917 23.9672C18.2397 23.9445 18.291 23.9275 18.3448 23.9168L19.4634 23.6947C19.6662 23.6544 19.8772 23.7102 20.0277 23.8437L21.2727 24.9489C21.3363 25.0054 21.3484 25.0961 21.3015 25.1655C21.2517 25.2391 21.151 25.2662 21.0671 25.2286L19.8215 24.6702C19.4956 24.524 19.1122 24.545 18.8067 24.7258L18.6684 24.8077C18.6967 24.9296 18.7116 25.0561 18.7116 25.1859C18.7116 25.2078 18.7112 25.2296 18.7104 25.2513C18.7265 25.2396 18.7434 25.2285 18.7608 25.2182L19.0312 25.0582C19.2145 24.9497 19.4445 24.9371 19.6401 25.0247L20.8856 25.5832C21.1616 25.7069 21.4929 25.6177 21.6565 25.3757C21.8106 25.1476 21.7709 24.8494 21.5617 24.6637L20.3167 23.5584ZM18.2616 26.3319C18.1407 26.4649 17.9991 26.5809 17.8416 26.6756V27.0053C17.8416 27.3836 18.0735 27.7283 18.438 27.8917L19.5584 28.394C19.6487 28.4345 19.681 28.5397 19.6275 28.6188C19.5917 28.6718 19.5255 28.6997 19.4594 28.6896L17.861 28.4471C17.6319 28.4123 17.4419 28.2626 17.3662 28.0573L16.9582 26.9506C16.913 26.9536 16.8674 26.9551 16.8215 26.9551C16.7144 26.9551 16.6093 26.9468 16.5071 26.9308C16.5105 26.9409 16.514 26.9511 16.5177 26.9611L16.9691 28.1855C17.0952 28.5277 17.412 28.7772 17.7937 28.8352L19.3922 29.0777C19.6244 29.113 19.8567 29.0151 19.9824 28.829C20.1704 28.5509 20.0569 28.1816 19.7399 28.0395L18.6195 27.5372C18.4008 27.4391 18.2616 27.2323 18.2616 27.0053V26.3319Z" fill="#76A3D3"/>
<g style="mix-blend-mode:multiply">
<circle cx="12.75" cy="32.8188" r="2" fill="#75DAFE" fill-opacity="0.8"/>
</g>
<g style="mix-blend-mode:multiply">
<circle cx="4.66097" cy="28.7298" r="0.91097" fill="#75DAFE" fill-opacity="0.8"/>
</g>
<path d="M20.75 24.8188C20.6322 24.8188 19.8912 24.8188 19.5353 24.8188C19.3185 24.8188 18.858 24.8188 18.75 24.8188" stroke="#00C1FE" stroke-opacity="0.3" stroke-width="2"/>
<path d="M19.1876 27.9563C18.8209 27.8979 18.075 27.7437 18.025 27.5937C17.975 27.4438 17.8208 27.0146 17.75 26.8188" stroke="#00C1FE" stroke-opacity="0.3" stroke-width="2"/>
<g style="mix-blend-mode:multiply">
<path fill-rule="evenodd" clip-rule="evenodd" d="M15.75 42.8188L5.97222 42.4188L5.75 40.8188H14.6389L15.3056 41.6188L15.75 42.8188Z" fill="#00C1FE" fill-opacity="0.3"/>
</g>
<path fill-rule="evenodd" clip-rule="evenodd" d="M20.6379 47.899H6.41569V57.6768H20.6379V47.899ZM5.5268 57.6768C5.5268 57.7601 5.53825 57.8407 5.55967 57.9171C5.45422 58.0159 5.37212 58.141 5.32425 58.2846L4.13907 61.8402C3.94721 62.4157 4.37563 63.0101 4.98234 63.0101H11.5128H15.5406H22.0714C22.6781 63.0101 23.1065 62.4157 22.9146 61.8402L21.7295 58.2846C21.6816 58.141 21.5994 58.0158 21.494 57.917C21.5154 57.8406 21.5268 57.76 21.5268 57.6768V47.899C21.5268 47.4081 21.1288 47.0101 20.6379 47.0101H6.41569C5.92477 47.0101 5.5268 47.4081 5.5268 47.899V57.6768ZM16.4298 62.1212H22.0714L20.8862 58.5657L20.6379 58.5657H6.41569L6.16753 58.5657L4.98234 62.1212H10.6236C10.6237 62.0606 10.6301 61.9989 10.6433 61.9368L10.8318 61.0479C10.9189 60.6372 11.2815 60.3435 11.7014 60.3435H15.352C15.7719 60.3435 16.1345 60.6372 16.2216 61.0479L16.4101 61.9368C16.4233 61.9989 16.4297 62.0606 16.4298 62.1212ZM15.9852 62.1212H11.0682C11.0683 62.0909 11.0715 62.0601 11.078 62.029L11.2666 61.1401C11.3102 60.9348 11.4914 60.7879 11.7014 60.7879H15.352C15.562 60.7879 15.7433 60.9348 15.7868 61.1401L15.9754 62.029C15.982 62.0601 15.9851 62.0909 15.9852 62.1212Z" fill="#76A3D3"/>
<path fill-rule="evenodd" clip-rule="evenodd" d="M17.0461 53.5381C16.862 53.5381 16.7127 53.6873 16.7127 53.8714C16.7127 54.0555 16.862 54.2048 17.0461 54.2048C17.2302 54.2048 17.3794 54.0555 17.3794 53.8714C17.3794 53.6873 17.2302 53.5381 17.0461 53.5381ZM16.3794 53.8714C16.3794 53.5032 16.6779 53.2048 17.0461 53.2048C17.4143 53.2048 17.7127 53.5032 17.7127 53.8714C17.7127 54.2396 17.4143 54.5381 17.0461 54.5381C16.6779 54.5381 16.3794 54.2396 16.3794 53.8714Z" fill="#00C1FE"/>
<path fill-rule="evenodd" clip-rule="evenodd" d="M17.0459 52.2048C17.0017 52.2048 16.9593 52.2224 16.928 52.2536C16.8968 52.2849 16.8792 52.3273 16.8792 52.3715V52.4005C16.8789 52.4866 16.8534 52.5707 16.8058 52.6426C16.7582 52.7144 16.6907 52.7707 16.6116 52.8046C16.5975 52.8107 16.5826 52.8147 16.5675 52.8167C16.4956 52.8419 16.4181 52.8481 16.3427 52.8345C16.2559 52.8187 16.1758 52.7773 16.1127 52.7156L16.1114 52.7143L16.1014 52.7043C16.0859 52.6888 16.0675 52.6765 16.0472 52.6681C16.027 52.6597 16.0053 52.6554 15.9834 52.6554C15.9615 52.6554 15.9398 52.6597 15.9196 52.6681C15.8993 52.6765 15.881 52.6887 15.8655 52.7042L15.8654 52.7044C15.8499 52.7199 15.8376 52.7382 15.8292 52.7585C15.8208 52.7787 15.8165 52.8004 15.8165 52.8223C15.8165 52.8442 15.8208 52.8659 15.8292 52.8861C15.8376 52.9063 15.8499 52.9247 15.8654 52.9402L15.8767 52.9516C15.9384 53.0147 15.9798 53.0948 15.9956 53.1816C16.011 53.2667 16.0011 53.3545 15.9671 53.4339C15.9362 53.515 15.8821 53.5852 15.8114 53.6358C15.7393 53.6873 15.6534 53.716 15.5648 53.7181L15.5609 53.7181H15.5459C15.5017 53.7181 15.4593 53.7357 15.428 53.7669C15.3968 53.7982 15.3792 53.8406 15.3792 53.8848C15.3792 53.929 15.3968 53.9714 15.428 54.0026C15.4593 54.0339 15.5017 54.0515 15.5459 54.0515H15.5749C15.661 54.0518 15.7452 54.0773 15.817 54.1249C15.8886 54.1723 15.9448 54.2395 15.9787 54.3183C16.0141 54.3988 16.0246 54.4881 16.0089 54.5746C15.9931 54.6615 15.9518 54.7416 15.89 54.8047L15.8888 54.806L15.8787 54.816C15.8633 54.8315 15.8509 54.8499 15.8425 54.8701C15.8341 54.8904 15.8298 54.9121 15.8298 54.934C15.8298 54.9559 15.8341 54.9776 15.8425 54.9978C15.8509 55.018 15.8632 55.0364 15.8787 55.0519L15.8788 55.052C15.8943 55.0675 15.9127 55.0798 15.9329 55.0882C15.9531 55.0966 15.9748 55.1009 15.9967 55.1009C16.0186 55.1009 16.0403 55.0966 16.0606 55.0882C16.0808 55.0798 16.0992 55.0675 16.1146 55.052L16.126 55.0406C16.1891 54.9789 16.2692 54.9375 16.3561 54.9218C16.4412 54.9064 16.5289 54.9163 16.6084 54.9502C16.6895 54.9811 16.7597 55.0353 16.8102 55.106C16.8618 55.178 16.8904 55.264 16.8925 55.3526L16.8926 55.3565V55.3715C16.8926 55.4157 16.9101 55.4581 16.9414 55.4893C16.9726 55.5206 17.015 55.5381 17.0592 55.5381C17.1034 55.5381 17.1458 55.5206 17.1771 55.4893C17.2083 55.4581 17.2259 55.4157 17.2259 55.3715V55.3431L17.2259 55.3425C17.2262 55.2563 17.2518 55.1722 17.2993 55.1004C17.3467 55.0288 17.4139 54.9726 17.4928 54.9386C17.5733 54.9033 17.6625 54.8928 17.7491 54.9085C17.8359 54.9242 17.916 54.9656 17.9791 55.0273L17.9804 55.0286L17.9904 55.0386C18.0059 55.0541 18.0243 55.0665 18.0446 55.0749C18.0648 55.0832 18.0865 55.0876 18.1084 55.0876C18.1303 55.0876 18.152 55.0832 18.1722 55.0749C18.1925 55.0665 18.2108 55.0542 18.2263 55.0387L18.2264 55.0385C18.2419 55.0231 18.2542 55.0047 18.2626 54.9845C18.271 54.9642 18.2753 54.9425 18.2753 54.9206C18.2753 54.8987 18.271 54.877 18.2626 54.8568C18.2542 54.8366 18.2419 54.8182 18.2264 54.8027L18.2151 54.7913C18.1534 54.7283 18.112 54.6481 18.0962 54.5613C18.0805 54.4748 18.091 54.3855 18.1264 54.305C18.1604 54.2262 18.2166 54.159 18.2881 54.1116C18.3599 54.064 18.4441 54.0385 18.5302 54.0381L18.5309 54.0381L18.5459 54.0381C18.5901 54.0381 18.6325 54.0206 18.6637 53.9893C18.695 53.9581 18.7126 53.9157 18.7126 53.8715C18.7126 53.8273 18.695 53.7849 18.6637 53.7536C18.6325 53.7224 18.5901 53.7048 18.5459 53.7048H18.5176L18.5169 53.7048C18.4308 53.7044 18.3466 53.6789 18.2748 53.6314C18.203 53.5838 18.1466 53.5163 18.1127 53.4371C18.1067 53.423 18.1026 53.4082 18.1006 53.3931C18.0754 53.3211 18.0692 53.2437 18.0829 53.1683C18.0986 53.0815 18.14 53.0013 18.2018 52.9382L18.203 52.9369L18.213 52.9269C18.2285 52.9115 18.2409 52.893 18.2493 52.8728C18.2577 52.8526 18.262 52.8309 18.262 52.809C18.262 52.7871 18.2577 52.7654 18.2493 52.7451C18.2409 52.7249 18.2286 52.7065 18.2131 52.691L18.213 52.6909C18.1975 52.6754 18.1791 52.6631 18.1589 52.6547C18.1387 52.6463 18.117 52.642 18.0951 52.642C18.0732 52.642 18.0515 52.6463 18.0312 52.6547C18.011 52.6631 17.9926 52.6754 17.9771 52.6909L17.9658 52.7023C17.9027 52.764 17.8226 52.8054 17.7357 52.8211C17.6492 52.8368 17.5599 52.8263 17.4794 52.791C17.4006 52.757 17.3334 52.7008 17.286 52.6292C17.2384 52.5574 17.2129 52.4733 17.2126 52.3871L17.2126 52.3865V52.3715C17.2126 52.3273 17.195 52.2849 17.1637 52.2536C17.1325 52.2224 17.0901 52.2048 17.0459 52.2048ZM18.2792 54.3715L18.4317 54.4388C18.423 54.4586 18.4204 54.4805 18.4242 54.5018C18.428 54.5229 18.438 54.5423 18.4529 54.5577L18.462 54.5669C18.462 54.5669 18.462 54.5669 18.462 54.5669C18.5085 54.6133 18.5454 54.6685 18.5705 54.7292C18.5957 54.7899 18.6087 54.8549 18.6087 54.9206C18.6087 54.9863 18.5957 55.0514 18.5705 55.1121C18.5454 55.1728 18.5085 55.2279 18.462 55.2744L18.3442 55.1565L18.4621 55.2742C18.4157 55.3207 18.3606 55.3576 18.2999 55.3828C18.2392 55.4079 18.1741 55.4209 18.1084 55.4209C18.0427 55.4209 17.9776 55.4079 17.9169 55.3828C17.8563 55.3576 17.8011 55.3208 17.7547 55.2743C17.7547 55.2743 17.7547 55.2743 17.7547 55.2743L17.7455 55.2651C17.7301 55.2502 17.7107 55.2403 17.6896 55.2365C17.6683 55.2326 17.6463 55.2352 17.6265 55.2439L17.6249 55.2447C17.6055 55.253 17.5889 55.2668 17.5772 55.2844C17.5656 55.302 17.5594 55.3225 17.5592 55.3435V55.3715C17.5592 55.5041 17.5066 55.6312 17.4128 55.725C17.319 55.8188 17.1918 55.8715 17.0592 55.8715C16.9266 55.8715 16.7994 55.8188 16.7057 55.725C16.6119 55.6312 16.5592 55.5041 16.5592 55.3715V55.3589C16.5584 55.3377 16.5514 55.3171 16.5391 55.2999C16.5264 55.2822 16.5088 55.2687 16.4884 55.2612C16.4851 55.26 16.4818 55.2587 16.4786 55.2573C16.4588 55.2485 16.4368 55.2459 16.4155 55.2498C16.3945 55.2536 16.375 55.2636 16.3596 55.2784L16.3505 55.2876C16.3505 55.2876 16.3505 55.2876 16.3505 55.2876C16.3041 55.334 16.2489 55.371 16.1882 55.3961C16.1275 55.4213 16.0624 55.4342 15.9967 55.4342C15.931 55.4342 15.866 55.4213 15.8053 55.3961C15.7446 55.371 15.6895 55.3341 15.6431 55.2877C15.5966 55.2413 15.5597 55.1861 15.5346 55.1254C15.5094 55.0647 15.4965 54.9997 15.4965 54.934C15.4965 54.8683 15.5094 54.8032 15.5346 54.7425C15.5597 54.6818 15.5966 54.6266 15.6431 54.5802L15.6523 54.5711C15.6671 54.5557 15.6771 54.5362 15.6809 54.5152C15.6848 54.4939 15.6822 54.4719 15.6734 54.4521L15.6727 54.4505C15.6644 54.431 15.6506 54.4145 15.633 54.4028C15.6154 54.3912 15.5949 54.3849 15.5738 54.3848H15.5459C15.4133 54.3848 15.2861 54.3321 15.1923 54.2383C15.0986 54.1446 15.0459 54.0174 15.0459 53.8848C15.0459 53.7522 15.0986 53.625 15.1923 53.5312C15.2861 53.4375 15.4133 53.3848 15.5459 53.3848H15.5585C15.5797 53.384 15.6002 53.377 15.6175 53.3647C15.6352 53.352 15.6486 53.3343 15.6561 53.3139C15.6574 53.3106 15.6587 53.3074 15.6601 53.3042C15.6688 53.2844 15.6714 53.2624 15.6676 53.2411C15.6638 53.22 15.6538 53.2006 15.6389 53.1852L15.6298 53.176C15.5833 53.1296 15.5464 53.0745 15.5212 53.0138C15.4961 52.9531 15.4831 52.888 15.4831 52.8223C15.4831 52.7566 15.4961 52.6915 15.5212 52.6308C15.5464 52.5702 15.5833 52.515 15.6297 52.4686C15.6761 52.4222 15.7313 52.3853 15.7919 52.3601C15.8526 52.335 15.9177 52.322 15.9834 52.322C16.0491 52.322 16.1142 52.335 16.1749 52.3601C16.2356 52.3853 16.2907 52.4222 16.3371 52.4687L16.3463 52.4778C16.3617 52.4927 16.3811 52.5026 16.4022 52.5065C16.4235 52.5103 16.4455 52.5077 16.4653 52.499C16.4759 52.4943 16.4871 52.4907 16.4984 52.4883C16.51 52.4804 16.5201 52.4703 16.5279 52.4585C16.5395 52.441 16.5458 52.4204 16.5459 52.3994V52.3715C16.5459 52.2389 16.5986 52.1117 16.6923 52.0179C16.7861 51.9241 16.9133 51.8715 17.0459 51.8715C17.1785 51.8715 17.3057 51.9241 17.3995 52.0179C17.4932 52.1117 17.5459 52.2389 17.5459 52.3715V52.386C17.546 52.4071 17.5523 52.4276 17.5639 52.4452C17.5756 52.4628 17.5921 52.4766 17.6116 52.4849L17.6132 52.4856C17.633 52.4944 17.655 52.497 17.6763 52.4931C17.6973 52.4893 17.7168 52.4793 17.7322 52.4645L17.7413 52.4553C17.7878 52.4089 17.8429 52.372 17.9036 52.3468C17.9643 52.3216 18.0294 52.3087 18.0951 52.3087C18.1608 52.3087 18.2258 52.3216 18.2865 52.3468C18.3472 52.372 18.4024 52.4089 18.4488 52.4553C18.4952 52.5018 18.5321 52.5568 18.5572 52.6175C18.5824 52.6782 18.5953 52.7433 18.5953 52.809C18.5953 52.8747 18.5824 52.9397 18.5572 53.0004C18.5321 53.0611 18.4952 53.1162 18.4488 53.1626C18.4487 53.1627 18.4488 53.1626 18.4488 53.1626L18.4395 53.1718C18.4247 53.1872 18.4147 53.2067 18.4109 53.2278C18.407 53.2491 18.4096 53.271 18.4184 53.2908C18.4231 53.3015 18.4267 53.3126 18.429 53.324C18.4369 53.3356 18.447 53.3456 18.4588 53.3535C18.4764 53.3651 18.4969 53.3713 18.518 53.3715H18.5459C18.6785 53.3715 18.8057 53.4241 18.8995 53.5179C18.9932 53.6117 19.0459 53.7389 19.0459 53.8715C19.0459 54.0041 18.9932 54.1312 18.8995 54.225C18.8057 54.3188 18.6785 54.3715 18.5459 54.3715H18.5313C18.5103 54.3716 18.4897 54.3778 18.4722 54.3895C18.4546 54.4011 18.4407 54.4177 18.4324 54.4371L18.2792 54.3715Z" fill="#00C1FE"/>
<path fill-rule="evenodd" clip-rule="evenodd" d="M12.5459 52.1215C12.4078 52.1215 12.2959 52.2334 12.2959 52.3715C12.2959 52.5095 12.4078 52.6215 12.5459 52.6215C12.684 52.6215 12.7959 52.5095 12.7959 52.3715C12.7959 52.2334 12.684 52.1215 12.5459 52.1215ZM12.0459 52.3715C12.0459 52.0953 12.2698 51.8715 12.5459 51.8715C12.822 51.8715 13.0459 52.0953 13.0459 52.3715C13.0459 52.6476 12.822 52.8715 12.5459 52.8715C12.2698 52.8715 12.0459 52.6476 12.0459 52.3715Z" fill="#00C1FE"/>
<path fill-rule="evenodd" clip-rule="evenodd" d="M12.5459 51.1215C12.5127 51.1215 12.481 51.1346 12.4575 51.1581C12.4341 51.1815 12.4209 51.2133 12.4209 51.2465V51.2682C12.4206 51.3328 12.4015 51.3959 12.3658 51.4498C12.3302 51.5036 12.2795 51.5459 12.2201 51.5714C12.2096 51.5759 12.1985 51.5789 12.1871 51.5804C12.1331 51.5993 12.0751 51.604 12.0185 51.5937C11.9534 51.5819 11.8933 51.5508 11.846 51.5046L11.845 51.5036L11.8375 51.4961C11.8259 51.4845 11.8121 51.4752 11.7969 51.4689C11.7817 51.4626 11.7655 51.4594 11.749 51.4594C11.7326 51.4594 11.7163 51.4626 11.7012 51.4689C11.686 51.4752 11.6722 51.4844 11.6606 51.496L11.6605 51.4961C11.6489 51.5078 11.6396 51.5215 11.6334 51.5367C11.6271 51.5519 11.6238 51.5682 11.6238 51.5846C11.6238 51.601 11.6271 51.6173 11.6334 51.6325C11.6396 51.6476 11.6489 51.6614 11.6605 51.673L11.669 51.6815C11.7153 51.7289 11.7463 51.789 11.7581 51.8541C11.7697 51.9179 11.7623 51.9837 11.7368 52.0433C11.7136 52.1041 11.673 52.1568 11.62 52.1947C11.566 52.2334 11.5015 52.2549 11.4351 52.2564L11.4321 52.2565H11.4209C11.3877 52.2565 11.356 52.2696 11.3325 52.2931C11.3091 52.3165 11.2959 52.3483 11.2959 52.3815C11.2959 52.4146 11.3091 52.4464 11.3325 52.4698C11.356 52.4933 11.3877 52.5065 11.4209 52.5065H11.4426C11.5072 52.5067 11.5704 52.5259 11.6242 52.5615C11.6779 52.5971 11.72 52.6475 11.7455 52.7066C11.772 52.767 11.7799 52.8339 11.7681 52.8988C11.7563 52.964 11.7253 53.0241 11.679 53.0714L11.678 53.0724L11.6705 53.0798C11.6589 53.0915 11.6496 53.1053 11.6434 53.1205C11.6371 53.1356 11.6338 53.1519 11.6338 53.1683C11.6338 53.1848 11.6371 53.201 11.6434 53.2162C11.6496 53.2314 11.6589 53.2452 11.6705 53.2568L11.6706 53.2569C11.6822 53.2685 11.696 53.2777 11.7112 53.284C11.7263 53.2903 11.7426 53.2935 11.759 53.2935C11.7755 53.2935 11.7917 53.2903 11.8069 53.284C11.8221 53.2777 11.8359 53.2685 11.8475 53.2569L11.856 53.2483C11.9033 53.2021 11.9634 53.171 12.0285 53.1592C12.0924 53.1476 12.1581 53.1551 12.2177 53.1805C12.2786 53.2037 12.3312 53.2443 12.3691 53.2973C12.4078 53.3514 12.4293 53.4158 12.4309 53.4823L12.4309 53.4852V53.4965C12.4309 53.5296 12.4441 53.5614 12.4675 53.5848C12.491 53.6083 12.5227 53.6215 12.5559 53.6215C12.5891 53.6215 12.6208 53.6083 12.6443 53.5848C12.6677 53.5614 12.6809 53.5296 12.6809 53.4965V53.4752L12.6809 53.4747C12.6812 53.4101 12.7003 53.347 12.736 53.2931C12.7715 53.2395 12.8219 53.1973 12.8811 53.1718C12.9414 53.1453 13.0084 53.1374 13.0733 53.1492C13.1384 53.161 13.1985 53.1921 13.2458 53.2384L13.2468 53.2393L13.2543 53.2468C13.2659 53.2584 13.2797 53.2677 13.2949 53.274C13.3101 53.2803 13.3263 53.2835 13.3428 53.2835C13.3592 53.2835 13.3755 53.2803 13.3906 53.274C13.4058 53.2677 13.4196 53.2585 13.4312 53.2469L13.4313 53.2468C13.4429 53.2352 13.4522 53.2214 13.4584 53.2062C13.4647 53.191 13.468 53.1748 13.468 53.1583C13.468 53.1419 13.4647 53.1256 13.4584 53.1105C13.4522 53.0953 13.4429 53.0815 13.4313 53.0699L13.4228 53.0614C13.3765 53.0141 13.3455 52.954 13.3337 52.8888C13.3219 52.8239 13.3298 52.757 13.3563 52.6966C13.3817 52.6375 13.4239 52.5871 13.4776 52.5515C13.5314 52.5159 13.5945 52.4967 13.6591 52.4965L13.6596 52.4965L13.6709 52.4965C13.7041 52.4965 13.7358 52.4833 13.7593 52.4598C13.7827 52.4364 13.7959 52.4046 13.7959 52.3715C13.7959 52.3383 13.7827 52.3065 13.7593 52.2831C13.7358 52.2596 13.7041 52.2465 13.6709 52.2465H13.6496L13.6491 52.2465C13.5845 52.2462 13.5214 52.2271 13.4676 52.1914C13.4137 52.1557 13.3715 52.1051 13.346 52.0457C13.3415 52.0351 13.3384 52.024 13.337 52.0127C13.3181 51.9587 13.3134 51.9006 13.3237 51.8441C13.3355 51.779 13.3665 51.7189 13.4128 51.6716L13.4138 51.6706L13.4213 51.6631C13.4329 51.6515 13.4422 51.6376 13.4484 51.6225C13.4547 51.6073 13.458 51.591 13.458 51.5746C13.458 51.5582 13.4547 51.5419 13.4484 51.5267C13.4422 51.5115 13.4329 51.4978 13.4213 51.4861L13.4212 51.486C13.4096 51.4744 13.3958 51.4652 13.3806 51.4589C13.3655 51.4526 13.3492 51.4494 13.3328 51.4494C13.3163 51.4494 13.3001 51.4526 13.2849 51.4589C13.2697 51.4652 13.2559 51.4744 13.2443 51.486L13.2358 51.4946C13.1885 51.5409 13.1284 51.5719 13.0633 51.5837C12.9984 51.5955 12.9314 51.5876 12.871 51.5611C12.8119 51.5356 12.7615 51.4935 12.726 51.4398C12.6903 51.3859 12.6712 51.3228 12.6709 51.2582L12.6709 51.2577V51.2465C12.6709 51.2133 12.6577 51.1815 12.6343 51.1581C12.6108 51.1346 12.5791 51.1215 12.5459 51.1215ZM13.4709 52.7465L13.5853 52.7969C13.5787 52.8118 13.5767 52.8283 13.5796 52.8442C13.5825 52.86 13.59 52.8746 13.6011 52.8862L13.608 52.893C13.608 52.893 13.608 52.893 13.608 52.893C13.6428 52.9278 13.6705 52.9692 13.6894 53.0147C13.7083 53.0603 13.718 53.1091 13.718 53.1583C13.718 53.2076 13.7083 53.2564 13.6894 53.3019C13.6705 53.3475 13.6429 53.3888 13.608 53.4236L13.5196 53.3352L13.6081 53.4235C13.5733 53.4584 13.5319 53.4861 13.4864 53.5049C13.4409 53.5238 13.3921 53.5335 13.3428 53.5335C13.2935 53.5335 13.2447 53.5238 13.1992 53.5049C13.1537 53.4861 13.1123 53.4584 13.0775 53.4236C13.0775 53.4236 13.0775 53.4236 13.0775 53.4236L13.0706 53.4167C13.0591 53.4055 13.0445 53.3981 13.0287 53.3952C13.0127 53.3923 12.9962 53.3943 12.9814 53.4008L12.9801 53.4014C12.9656 53.4076 12.9532 53.418 12.9444 53.4312C12.9357 53.4443 12.931 53.4597 12.9309 53.4755V53.4965C12.9309 53.5959 12.8914 53.6913 12.8211 53.7616C12.7507 53.832 12.6554 53.8715 12.5559 53.8715C12.4564 53.8715 12.3611 53.832 12.2907 53.7616C12.2204 53.6913 12.1809 53.5959 12.1809 53.4965V53.487C12.1803 53.4711 12.1751 53.4557 12.1658 53.4428C12.1563 53.4295 12.1431 53.4194 12.1278 53.4138C12.1253 53.4129 12.1228 53.4119 12.1204 53.4108C12.1056 53.4043 12.0891 53.4023 12.0731 53.4052C12.0573 53.4081 12.0427 53.4156 12.0312 53.4267L12.0243 53.4335C12.0243 53.4336 12.0244 53.4335 12.0243 53.4335C11.9895 53.4684 11.9481 53.4961 11.9026 53.5149C11.8571 53.5338 11.8083 53.5435 11.759 53.5435C11.7097 53.5435 11.6609 53.5338 11.6154 53.5149C11.5699 53.4961 11.5286 53.4685 11.4938 53.4336C11.4589 53.3988 11.4313 53.3575 11.4124 53.3119C11.3935 53.2664 11.3838 53.2176 11.3838 53.1683C11.3838 53.1191 11.3935 53.0703 11.4124 53.0247C11.4313 52.9792 11.4589 52.9378 11.4938 52.903L11.5007 52.8962C11.5118 52.8846 11.5193 52.87 11.5222 52.8542C11.5251 52.8383 11.5231 52.8218 11.5165 52.8069L11.516 52.8057C11.5098 52.7911 11.4994 52.7787 11.4862 52.77C11.473 52.7613 11.4576 52.7566 11.4418 52.7565H11.4209C11.3214 52.7565 11.2261 52.717 11.1557 52.6466C11.0854 52.5763 11.0459 52.4809 11.0459 52.3815C11.0459 52.282 11.0854 52.1866 11.1557 52.1163C11.2261 52.046 11.3214 52.0065 11.4209 52.0065H11.4304C11.4463 52.0059 11.4616 52.0006 11.4746 51.9914C11.4879 51.9819 11.498 51.9686 11.5036 51.9533C11.5045 51.9508 11.5055 51.9484 11.5065 51.946C11.5131 51.9311 11.5151 51.9147 11.5122 51.8987C11.5093 51.8829 11.5018 51.8683 11.4907 51.8567L11.4838 51.8499C11.4489 51.8151 11.4213 51.7737 11.4024 51.7282C11.3835 51.6827 11.3738 51.6339 11.3738 51.5846C11.3738 51.5353 11.3835 51.4865 11.4024 51.441C11.4213 51.3955 11.4489 51.3541 11.4838 51.3193C11.5186 51.2845 11.5599 51.2568 11.6054 51.238C11.6509 51.2191 11.6997 51.2094 11.749 51.2094C11.7983 51.2094 11.8471 51.2191 11.8926 51.238C11.9382 51.2568 11.9795 51.2845 12.0143 51.3194L12.0212 51.3262C12.0327 51.3374 12.0473 51.3449 12.0631 51.3477C12.0791 51.3506 12.0956 51.3487 12.1104 51.3421C12.1184 51.3386 12.1268 51.3359 12.1353 51.3341C12.144 51.3282 12.1515 51.3206 12.1574 51.3117C12.1661 51.2986 12.1708 51.2832 12.1709 51.2674V51.2465C12.1709 51.147 12.2104 51.0516 12.2807 50.9813C12.3511 50.911 12.4464 50.8715 12.5459 50.8715C12.6454 50.8715 12.7407 50.911 12.8111 50.9813C12.8814 51.0516 12.9209 51.147 12.9209 51.2465V51.2574C12.921 51.2732 12.9257 51.2886 12.9344 51.3017C12.9432 51.315 12.9556 51.3253 12.9701 51.3316L12.9714 51.3321C12.9862 51.3387 13.0027 51.3406 13.0187 51.3377C13.0345 51.3349 13.0491 51.3274 13.0606 51.3162L13.0675 51.3094C13.1023 51.2745 13.1436 51.2468 13.1892 51.228C13.2347 51.2091 13.2835 51.1994 13.3328 51.1994C13.3821 51.1994 13.4309 51.2091 13.4764 51.228C13.5219 51.2468 13.5633 51.2745 13.5981 51.3094C13.6329 51.3442 13.6605 51.3855 13.6794 51.431C13.6983 51.4765 13.708 51.5253 13.708 51.5746C13.708 51.6239 13.6983 51.6727 13.6794 51.7182C13.6605 51.7637 13.6329 51.805 13.598 51.8398C13.598 51.8399 13.5981 51.8398 13.598 51.8398L13.5911 51.8467C13.58 51.8583 13.5725 51.8729 13.5696 51.8887C13.5667 51.9047 13.5687 51.9211 13.5753 51.936C13.5788 51.944 13.5815 51.9523 13.5832 51.9608C13.5892 51.9696 13.5967 51.9771 13.6056 51.983C13.6188 51.9917 13.6342 51.9964 13.65 51.9965H13.6709C13.7704 51.9965 13.8657 52.036 13.9361 52.1063C14.0064 52.1766 14.0459 52.272 14.0459 52.3715C14.0459 52.4709 14.0064 52.5663 13.9361 52.6366C13.8657 52.707 13.7704 52.7465 13.6709 52.7465H13.66C13.6442 52.7466 13.6288 52.7513 13.6156 52.76C13.6024 52.7687 13.592 52.7811 13.5858 52.7957L13.4709 52.7465Z" fill="#00C1FE"/>
<g style="mix-blend-mode:multiply">
<circle cx="3.24406" cy="3.24406" r="3.24406" transform="matrix(-1 0 0 1 61.562 66.5261)" fill="#89DFFF"/>
</g>
<circle cx="4.8768" cy="4.8768" r="3.8768" transform="matrix(-1 0 0 1 64 64.8934)" stroke="#003E6E" stroke-opacity="0.5" stroke-width="2"/>
<path fill-rule="evenodd" clip-rule="evenodd" d="M52.479 70.7702H53.479V69.7702H52.479V70.7702ZM50.479 70.7702H51.479V69.7702H50.479V70.7702ZM48.479 70.7702H49.479V69.7702H48.479V70.7702ZM46.479 70.7702H47.479V69.7702H46.479V70.7702ZM44.479 70.7702H45.479V69.7702H44.479V70.7702ZM42.479 70.7702H43.479V69.7702H42.479V70.7702Z" fill="#00C1FE"/>
<path fill-rule="evenodd" clip-rule="evenodd" d="M74.7832 70.7702H75.7832V69.7702H74.7832V70.7702ZM72.7832 70.7702H73.7832V69.7702H72.7832V70.7702ZM70.7832 70.7702H71.7832V69.7702H70.7832V70.7702ZM68.7832 70.7702H69.7832V69.7702H68.7832V70.7702ZM66.7832 70.7702H67.7832V69.7702H66.7832V70.7702ZM64.7832 70.7702H65.7832V69.7702H64.7832V70.7702Z" fill="#00C1FE"/>
<path fill-rule="evenodd" clip-rule="evenodd" d="M40.5908 50.9824H41.5908V49.9824H40.5908V50.9824ZM38.5908 50.9824H39.5908V49.9824H38.5908V50.9824ZM36.5908 50.9824H37.5908V49.9824H36.5908V50.9824Z" fill="#00C1FE"/>
<path fill-rule="evenodd" clip-rule="evenodd" d="M34.6606 50.9824H35.6606V49.9824H34.6606V50.9824ZM32.6606 50.9824H33.6606V49.9824H32.6606V50.9824ZM30.6606 50.9824H31.6606V49.9824H30.6606V50.9824ZM28.6606 50.9824H29.6606V49.9824H28.6606V50.9824ZM26.6606 50.9824H27.6606V49.9824H26.6606V50.9824ZM24.6606 50.9824H25.6606V49.9824H24.6606V50.9824Z" fill="#00C1FE"/>
<path fill-rule="evenodd" clip-rule="evenodd" d="M58.2832 57.7631V56.7631H57.2832V57.7631H58.2832ZM58.2832 59.7631V58.7631H57.2832V59.7631H58.2832ZM58.2832 61.7631V60.7631H57.2832V61.7631H58.2832ZM58.2832 63.7631V62.7631H57.2832V63.7631H58.2832Z" fill="#00C1FE"/>
<rect width="22" height="41" transform="matrix(-1 0 0 1 70 13)" fill="white"/>
<rect width="20.9831" height="41" rx="2" transform="matrix(-1 0 0 1 67.9292 13.5)" stroke="#003E6E" stroke-opacity="0.5" stroke-width="2"/>
<rect width="14" height="3" rx="1.5" transform="matrix(-1 0 0 1 64 17.5)" fill="#96E5FE"/>
<circle cx="3" cy="3" r="2.5" transform="matrix(-1 0 0 1 60 45)" stroke="white"/>
<g style="mix-blend-mode:multiply">
<circle cx="2.49121" cy="2.49121" r="2.49121" transform="matrix(-1 0 0 1 60.2744 45)" fill="#89DFFF"/>
</g>
<rect width="14" height="3" rx="1.5" transform="matrix(-1 0 0 1 63.1191 24.25)" fill="#96E5FE"/>
<rect width="14" height="3" rx="1.5" transform="matrix(-1 0 0 1 64.7832 32)" fill="#96E5FE"/>
<rect x="-0.5" y="0.5" width="13" height="2" rx="1" transform="matrix(-1 0 0 1 63 19)" stroke="#80A9D6"/>
<rect x="-0.5" y="0.5" width="13" height="2" rx="1" transform="matrix(-1 0 0 1 63 25)" stroke="#80A9D6"/>
<rect x="-0.5" y="0.5" width="13" height="2" rx="1" transform="matrix(-1 0 0 1 63 31)" stroke="#80A9D6"/>
<path fill-rule="evenodd" clip-rule="evenodd" d="M43.5865 24.196H44.376V23.4065H43.5865V24.196ZM42.0076 24.196H42.797V23.4065H42.0076V24.196Z" fill="#00C1FE"/>
</svg>
