<svg xmlns="http://www.w3.org/2000/svg" xmlns:xlink="http://www.w3.org/1999/xlink" width="335" height="335" fill="none">
  <style>
    <![CDATA[.B{fill-opacity:.5}.C{fill-rule:evenodd}.D{fill-opacity:.8}.E{fill:#00c1fe}.F{stroke:#00c1fe}.G{fill-opacity:.41}.H{fill:#76a3d3}.I{stroke-width:2}.J{stroke:#003e6e}.K{stroke-opacity:.5}.L{stroke-dasharray:1 1}.M{fill:#003e6e}]]></style>
  <circle cx="167.5" cy="167.5" r="167.5" fill="#ebf3f8"/>
  <path d="M65.5 192v7" class="F L"/>
  <g class="C H">
    <path d="M81.5 207.163a3.5 3.5 0 1 0 0-7 3.5 3.5 0 1 0 0 7zm0 1a4.5 4.5 0 1 0 0-9 4.5 4.5 0 1 0 0 9zm-28 10a4.5 4.5 0 1 0 0-9 4.5 4.5 0 1 0 0 9zm0 1a5.5 5.5 0 1 0 0-11 5.5 5.5 0 1 0 0 11zm27.5 22H61c-1.864 0-3.43 1.275-3.874 3h27.748c-.444-1.725-2.01-3-3.874-3zm4.9 3c-.463-2.282-2.481-4-4.9-4H61c-2.419 0-4.437 1.718-4.9 4a4.99 4.99 0 0 0-.1 1h30a4.99 4.99 0 0 0-.1-1z"/>
    <path d="M85 245.163H57v1h28v-1zm-29-1v3h30v-3H56zm17-13a6 6 0 1 0 0-12 6 6 0 1 0 0 12zm0 1a7 7 0 1 0 0-14 7 7 0 1 0 0 14zm0-4a3 3 0 1 0 0-6 3 3 0 1 0 0 6zm0 1a4 4 0 1 0 0-8 4 4 0 1 0 0 8zm-19.5-14a1.5 1.5 0 1 0 0-3 1.5 1.5 0 1 0 0 3zm0 1a2.5 2.5 0 1 0 0-5 2.5 2.5 0 1 0 0 5z"/>
  </g>
  <path d="M83 203.663a1.5 1.5 0 1 1-3 0 1.5 1.5 0 1 1 3 0z" class="H"/>
  <g class="C">
    <path d="M77.186 202.378l-22.961 5.832a5.44 5.44 0 0 1 1.812.572l20.968-5.326a4.49 4.49 0 0 1 .182-1.078zM66 225.193l-11.46-6.129a5.44 5.44 0 0 0 1.316-.43l10.224 5.467c-.053.346-.08.701-.08 1.062v.03zm.266 1.887l-5.479 13.083h1.084l4.924-11.758a6.94 6.94 0 0 1-.529-1.325zm12.557 1.97l1.343 11.113h1.007l-1.541-12.753c-.198.585-.472 1.136-.809 1.64zm-5.182-10.858l-10.465-5.037 16.243-5.501a4.51 4.51 0 0 1-1.005-.716l-17.88 6.056 11.041 5.314c.46-.095.936-.145 1.424-.145l.64.029zm16.18-18.669a2.5 2.5 0 0 0-2.239-.631l-2.663.565c-.354.075-.682.224-.965.433a4.58 4.58 0 0 1 .808.673 1.47 1.47 0 0 1 .364-.128l2.663-.565a1.5 1.5 0 0 1 1.344.379l2.964 2.811a.44.44 0 0 1 .069.551c-.118.187-.358.256-.558.16l-2.965-1.42a2.5 2.5 0 0 0-2.416.142l-.329.208a4.52 4.52 0 0 1 .103.962l-.003.166a1.43 1.43 0 0 1 .12-.084l.644-.407a1.5 1.5 0 0 1 1.45-.085l2.965 1.42c.657.315 1.446.088 1.835-.527.367-.581.272-1.339-.226-1.811l-2.964-2.812zm-4.893 7.055c-.288.338-.625.633-1 .874v.838a2.5 2.5 0 0 0 1.42 2.255l2.667 1.278c.215.102.292.37.164.571-.085.135-.243.206-.4.18l-3.805-.617a1.5 1.5 0 0 1-1.178-.991l-.971-2.815-.326.012c-.255 0-.505-.021-.748-.062l.025.077 1.075 3.114c.3.87 1.055 1.505 1.963 1.653l3.805.616a1.4 1.4 0 0 0 .828-2.64l-2.667-1.278a1.5 1.5 0 0 1-.852-1.353v-1.712zM263.227 212h-32v22h32v-22zm-34 22c0 .187.025.369.074.541-.238.222-.422.503-.53.827l-2.667 8a2 2 0 0 0 1.898 2.632h14.693 9.063 14.694a2 2 0 0 0 1.897-2.632l-2.666-8c-.108-.324-.293-.605-.53-.827.048-.172.074-.354.074-.541v-22a2 2 0 0 0-2-2h-32a2 2 0 0 0-2 2v22zm24.531 10h12.694l-2.667-8h-.558-32-.559l-2.666 8h12.692a2.05 2.05 0 0 1 .045-.415l.424-2a2 2 0 0 1 1.956-1.585h8.214a2 2 0 0 1 1.957 1.585l.424 2a1.98 1.98 0 0 1 .044.415zm-1 0h-11.063c0-.068.007-.138.022-.208l.424-2a1 1 0 0 1 .978-.792h8.214a1 1 0 0 1 .979.792l.424 2c.015.07.022.14.022.208z"
          class="H"/>
    <path d="M254.226 224.833c-.644 0-1.166.523-1.166 1.167s.522 1.167 1.166 1.167a1.17 1.17 0 0 0 1.167-1.167c0-.644-.522-1.167-1.167-1.167zM251.893 226c0-1.289 1.045-2.333 2.333-2.333s2.334 1.044 2.334 2.333-1.045 2.333-2.334 2.333-2.333-1.044-2.333-2.333zm2.334-5.833a.58.58 0 0 0-.413.171c-.109.109-.171.257-.171.412v.101a1.54 1.54 0 0 1-.257.848c-.166.251-.403.448-.68.567-.049.021-.101.035-.154.042-.252.089-.523.11-.787.062-.303-.055-.584-.2-.805-.415l-.004-.005-.035-.035a.58.58 0 0 0-.19-.127.59.59 0 0 0-.636.127h0c-.055.054-.098.119-.127.19s-.044.146-.044.223.015.152.044.223.072.135.127.19l.039.039a1.55 1.55 0 0 1 .416.806c.054.297.02.604-.099.883a1.55 1.55 0 0 1-.545.706 1.54 1.54 0 0 1-.863.288h-.014-.052c-.155 0-.304.062-.413.171s-.171.258-.171.413.062.303.171.412a.58.58 0 0 0 .413.171h.101c.302.001.596.091.847.257s.448.401.566.677c.124.282.161.594.106.897a1.55 1.55 0 0 1-.416.805l-.004.005-.035.035a.57.57 0 0 0-.127.189c-.03.071-.045.147-.045.224a.57.57 0 0 0 .045.223.59.59 0 0 0 .126.189l.001.001c.054.054.118.097.189.127a.59.59 0 0 0 .447 0c.071-.03.135-.073.189-.127l.04-.04c.221-.216.501-.361.805-.416.298-.054.605-.019.883.1a1.54 1.54 0 0 1 .707.545c.18.252.28.553.288.863v.013.053a.58.58 0 0 0 .583.583c.155 0 .303-.061.413-.171a.58.58 0 0 0 .171-.412v-.099-.002a1.54 1.54 0 0 1 .257-.848c.165-.25.401-.447.677-.566a1.54 1.54 0 0 1 .897-.105 1.55 1.55 0 0 1 .805.415l.004.005.035.035a.59.59 0 0 0 .637.127c.071-.029.135-.073.189-.127h0c.055-.054.098-.119.127-.19a.59.59 0 0 0 .045-.223.59.59 0 0 0-.045-.223c-.029-.071-.072-.135-.127-.19l-.039-.039a1.55 1.55 0 0 1-.311-1.703c.119-.275.316-.511.566-.677a1.56 1.56 0 0 1 .848-.257h.002.053a.58.58 0 0 0 .412-.171c.109-.109.171-.257.171-.412s-.062-.303-.171-.412a.58.58 0 0 0-.412-.171h-.1-.002c-.301-.002-.596-.091-.847-.257a1.55 1.55 0 0 1-.568-.68c-.021-.05-.035-.101-.042-.154-.088-.252-.11-.523-.062-.787.055-.304.2-.584.416-.805l.005-.005.035-.035c.054-.054.097-.119.126-.189a.59.59 0 0 0 .045-.224.57.57 0 0 0-.045-.223.59.59 0 0 0-.126-.189l-.001-.001c-.054-.054-.118-.097-.189-.127a.59.59 0 0 0-.447 0c-.071.03-.135.073-.189.127l-.04.04c-.221.216-.501.361-.805.416a1.54 1.54 0 0 1-.897-.106c-.276-.119-.511-.315-.677-.566a1.54 1.54 0 0 1-.257-.847v-.003-.052c0-.155-.062-.303-.171-.412a.58.58 0 0 0-.412-.171zm4.316 7.583l.534.236a.37.37 0 0 0-.026.22c.013.074.048.142.1.196l.032.032c.163.162.292.356.38.568a1.75 1.75 0 0 1 0 1.34c-.088.213-.217.406-.38.568l-.412-.413.412.413a1.75 1.75 0 0 1-1.908.38c-.212-.088-.405-.217-.568-.38l-.032-.032c-.054-.052-.122-.087-.196-.101a.37.37 0 0 0-.22.027l-.006.002c-.068.029-.126.078-.167.139a.38.38 0 0 0-.063.207v.098a1.75 1.75 0 0 1-1.75 1.75c-.464 0-.909-.184-1.237-.513a1.75 1.75 0 0 1-.513-1.237v-.044c-.003-.074-.027-.146-.07-.207s-.106-.109-.178-.135l-.034-.014a.39.39 0 0 0-.221-.026.38.38 0 0 0-.195.1l-.032.032c-.163.163-.356.292-.568.38a1.76 1.76 0 0 1-.671.134c-.229 0-.457-.046-.67-.134a1.74 1.74 0 0 1-.567-.379 1.76 1.76 0 0 1-.38-.568 1.75 1.75 0 0 1 0-1.34c.088-.213.217-.406.38-.568l.032-.032c.052-.054.087-.122.1-.196a.38.38 0 0 0-.026-.221l-.003-.006a.38.38 0 0 0-.139-.166.37.37 0 0 0-.207-.063h-.097a1.75 1.75 0 1 1 0-3.5h.044a.38.38 0 0 0 .206-.071c.062-.044.109-.106.135-.177l.014-.035a.37.37 0 0 0 .026-.22c-.013-.074-.048-.142-.1-.196l-.032-.032c-.163-.162-.292-.355-.38-.568a1.75 1.75 0 0 1 0-1.34c.088-.213.217-.405.38-.568s.355-.292.568-.38a1.75 1.75 0 0 1 1.34 0 1.77 1.77 0 0 1 .568.38l.032.032c.054.052.122.087.196.101a.37.37 0 0 0 .22-.027c.038-.016.077-.029.116-.037.041-.028.076-.063.104-.104.04-.062.062-.134.063-.207v-.098a1.75 1.75 0 0 1 .512-1.237c.328-.329.773-.513 1.238-.513s.909.184 1.237.513a1.75 1.75 0 0 1 .513 1.237v.051a.37.37 0 0 0 .229.346l.006.003a.39.39 0 0 0 .221.026c.074-.014.142-.048.196-.1l.032-.032c.162-.163.355-.292.568-.38a1.75 1.75 0 0 1 .67-.134c.23 0 .457.046.67.134s.405.217.568.38.291.355.379.567a1.75 1.75 0 0 1 0 1.34c-.088.213-.217.406-.379.568l-.033.032c-.052.054-.087.122-.1.196a.39.39 0 0 0 .026.221c.017.037.029.076.038.116.027.04.063.076.104.103a.37.37 0 0 0 .207.063h.098c.464 0 .909.184 1.237.513a1.75 1.75 0 0 1 0 2.474c-.328.329-.773.513-1.237.513h-.051a.37.37 0 0 0-.207.063c-.062.041-.11.099-.14.167l-.536-.23zm-17.816-9a.75.75 0 1 0 0 1.5.75.75 0 1 0 0-1.5zm-1.5.75a1.5 1.5 0 1 1 3 0 1.5 1.5 0 1 1-3 0zm1.5-3.75a.38.38 0 0 0-.266.11c-.07.07-.109.166-.109.265v.065a1 1 0 0 1-.166.545c-.107.162-.259.288-.437.365-.031.013-.065.022-.099.027a1 1 0 0 1-1.023-.228l-.003-.003-.023-.022a.37.37 0 0 0-.121-.082c-.046-.019-.095-.028-.144-.028s-.098.009-.144.028a.37.37 0 0 0-.121.082h-.001c-.035.035-.062.076-.081.122a.37.37 0 0 0-.029.143c0 .05.01.098.029.144s.046.087.081.122l.026.025a.99.99 0 0 1 .203 1.086.99.99 0 0 1-.35.454c-.162.116-.356.18-.555.185h-.009-.033a.38.38 0 0 0-.266.11c-.07.07-.109.166-.109.265s.039.195.109.265a.38.38 0 0 0 .266.11h.065c.194.001.383.058.545.165a.99.99 0 0 1 .363.435c.08.182.104.382.068.577a.99.99 0 0 1-.267.518l-.003.003-.023.022a.39.39 0 0 0-.081.122c-.019.046-.029.094-.029.144a.37.37 0 0 0 .029.143c.019.046.046.087.081.122h.001a.37.37 0 0 0 .121.082c.046.019.095.028.144.028s.098-.009.144-.028a.38.38 0 0 0 .121-.082l.026-.025a1 1 0 0 1 .517-.268c.192-.034.389-.012.568.064a.99.99 0 0 1 .454.351c.116.162.181.355.185.554l.001.009v.034c0 .099.039.195.109.265a.38.38 0 0 0 .266.11c.099 0 .194-.04.265-.11s.11-.166.11-.265v-.064-.001a.99.99 0 0 1 .165-.545c.106-.161.258-.287.435-.364a1 1 0 0 1 1.094.2l.003.003.023.022c.035.035.076.063.122.082a.37.37 0 0 0 .143.028c.049 0 .098-.009.144-.028s.087-.047.122-.082h0c.035-.035.062-.076.081-.122a.37.37 0 0 0 .029-.143c0-.05-.01-.098-.029-.144s-.046-.087-.081-.122l-.026-.025a.99.99 0 0 1-.267-.518c-.035-.195-.012-.395.068-.577s.203-.328.364-.435.351-.164.544-.165h.002.034c.099 0 .194-.04.265-.11s.11-.166.11-.265-.04-.195-.11-.265-.166-.11-.265-.11h-.064-.002c-.193-.001-.383-.058-.544-.165a.99.99 0 0 1-.365-.437c-.014-.032-.023-.065-.027-.099a.99.99 0 0 1 .227-1.024l.003-.003.023-.022c.035-.035.062-.076.081-.122s.029-.094.029-.144a.37.37 0 0 0-.029-.143c-.019-.046-.046-.087-.081-.122h-.001a.37.37 0 0 0-.121-.082c-.046-.019-.095-.028-.144-.028s-.098.009-.143.028-.087.047-.122.082l-.026.025a1 1 0 0 1-1.094.2c-.177-.077-.329-.203-.435-.364a.99.99 0 0 1-.165-.545v-.001-.034c0-.099-.04-.195-.11-.265s-.166-.11-.265-.11zm2.775 4.875l.343.151a.24.24 0 0 0-.017.142c.008.048.031.091.064.126l.021.021a1.13 1.13 0 0 1 .244.365c.057.136.086.283.086.431a1.11 1.11 0 0 1-.086.43c-.057.136-.14.261-.244.366l-.265-.266.265.265a1.1 1.1 0 0 1-.365.244 1.12 1.12 0 0 1-1.227-.244l-.02-.02c-.035-.034-.079-.056-.126-.065a.24.24 0 0 0-.142.017l-.004.002c-.043.018-.081.049-.107.089s-.04.086-.04.133v.063c0 .298-.119.585-.33.795a1.13 1.13 0 0 1-.795.33c-.298 0-.585-.119-.796-.33a1.12 1.12 0 0 1-.329-.795v-.028c-.002-.048-.018-.094-.046-.133a.24.24 0 0 0-.114-.087l-.022-.009c-.044-.02-.094-.025-.142-.017s-.091.031-.126.065l-.02.02a1.12 1.12 0 0 1-1.227.244c-.136-.056-.26-.139-.365-.243a1.12 1.12 0 0 1-.33-.796 1.12 1.12 0 0 1 .086-.431 1.13 1.13 0 0 1 .244-.365l.021-.021c.033-.035.056-.078.064-.126a.24.24 0 0 0-.017-.142l-.001-.003a.24.24 0 0 0-.09-.107c-.039-.027-.085-.041-.133-.041h-.062c-.299 0-.585-.119-.796-.33a1.12 1.12 0 0 1 0-1.59c.211-.211.497-.33.796-.33h.028c.048-.002.094-.018.133-.045s.07-.069.087-.114c.002-.008.005-.015.008-.022a.24.24 0 0 0 .017-.142c-.008-.048-.031-.091-.064-.126l-.021-.021a1.13 1.13 0 0 1-.244-.365c-.057-.136-.086-.283-.086-.431a1.11 1.11 0 0 1 .086-.43 1.13 1.13 0 0 1 .244-.365 1.12 1.12 0 0 1 1.592 0l.02.02c.035.034.079.056.126.065a.24.24 0 0 0 .142-.017c.024-.011.049-.019.075-.024.026-.018.048-.041.066-.067.026-.04.04-.086.041-.133v-.063a1.12 1.12 0 0 1 .329-.795c.211-.211.497-.33.796-.33s.584.119.795.33.33.497.33.795v.033c0 .047.014.093.04.133s.064.071.107.089l.004.002c.045.02.094.025.142.017s.091-.031.126-.065l.02-.02a1.12 1.12 0 0 1 1.227-.244 1.1 1.1 0 0 1 .365.244c.105.104.187.228.244.365a1.12 1.12 0 0 1 0 .861c-.057.136-.139.261-.244.365l-.021.021c-.033.035-.056.078-.064.126a.24.24 0 0 0 .017.142.49.49 0 0 1 .024.074c.017.026.04.049.067.066.039.027.085.041.133.041h.063c.298 0 .584.119.795.33s.33.497.33.795-.119.585-.33.795a1.13 1.13 0 0 1-.795.33h-.033c-.048 0-.094.014-.133.041a.24.24 0 0 0-.09.107l-.344-.148z"
          class="E"/>
  </g>
  <path d="M57 192v9m18-9v10m42-30v31" class="F L"/>
  <g fill="#75dafe" class="D">
    <circle cx="64.627" cy="225.733" r="2.733" style="mix-blend-mode:multiply"/>
    <circle cx="43.733" cy="214.104" r="2.733" style="mix-blend-mode:multiply"/>
  </g>
  <path d="M80.698 203.174c-.33-.11-2.407-1.788-3.404-2.613-.608.011-1.898.103-2.201.378m1.22 11.068c-1.1-.175-3.338-.638-3.488-1.088L72 208.594"
        stroke-opacity=".6" class="F I"/>
  <g class="C">
    <path d="M71.5 244.061l-22-.5-.5-2h20l1.5 1 1 1.5z" fill-opacity=".6" style="mix-blend-mode:multiply" class="E"/>
    <path d="M122.5 207a.5.5 0 1 0 0-1 .5.5 0 1 0 0 1zm1.5-.5a1.5 1.5 0 0 1-1 1.415V213h2v-1.5a.5.5 0 1 1 1 0v1.5h2v-3.085a1.5 1.5 0 0 1 .5-2.915 1.5 1.5 0 0 1 .5 2.915V213h2v-1.5a.5.5 0 1 1 1 0v1.5h2a2 2 0 0 1 2 2v2h1.5a.5.5 0 1 1 0 1H136v2h1.5a.5.5 0 1 1 0 1H136v2h1.5a.5.5 0 1 1 0 1H136v2h5.085a1.5 1.5 0 0 1 2.915.5 1.5 1.5 0 0 1-2.915.5H136v2h1.5a.5.5 0 1 1 0 1H136v2h1.5a.5.5 0 1 1 0 1H136v2h1.5a.5.5 0 1 1 0 1H136v2a2 2 0 0 1-2 2h-2v1.5a.5.5 0 1 1-1 0V240h-2v3.085a1.5 1.5 0 0 1-.5 2.915 1.5 1.5 0 0 1-.5-2.915V240h-2v1.5a.5.5 0 1 1-1 0V240h-2v5.085a1.5 1.5 0 0 1-.5 2.915 1.5 1.5 0 0 1-.5-2.915V240h-2v1.5a.5.5 0 1 1-1 0V240h-2v3.085a1.5 1.5 0 0 1-.5 2.915 1.5 1.5 0 0 1-.5-2.915V240h-2v1.5a.5.5 0 1 1-1 0V240h-2a2 2 0 0 1-2-2v-2h-1.5a.5.5 0 1 1 0-1h1.5v-2h-1.5a.5.5 0 1 1 0-1h1.5v-2h-1.5a.5.5 0 1 1 0-1h1.5v-2h-5.085a1.5 1.5 0 0 1-2.915-.5 1.5 1.5 0 0 1 2.915-.5H109v-2h-1.5a.5.5 0 1 1 0-1h1.5v-2h-1.5a.5.5 0 1 1 0-1h1.5v-2h-1.5a.5.5 0 1 1 0-1h1.5v-2a2 2 0 0 1 2-2h2v-1.5a.5.5 0 1 1 1 0v1.5h2v-3.085a1.5 1.5 0 0 1 .5-2.915 1.5 1.5 0 0 1 .5 2.915V213h2v-1.5a.5.5 0 1 1 1 0v1.5h2v-5.085a1.5 1.5 0 0 1 .5-2.915 1.5 1.5 0 0 1 1.5 1.5zm-21 20a.5.5 0 1 0-1 0 .5.5 0 1 0 1 0zm39 0a.5.5 0 1 0 1 0 .5.5 0 1 0-1 0zM116.5 244a.5.5 0 1 0 0 1 .5.5 0 1 0 0-1zm5.5 2.5a.5.5 0 1 1 1 0 .5.5 0 1 1-1 0zm6.5-2.5a.5.5 0 1 0 0 1 .5.5 0 1 0 0-1zm0-35a.5.5 0 1 0 0-1 .5.5 0 1 0 0 1zm-12 0a.5.5 0 1 0 0-1 .5.5 0 1 0 0 1zm-5.5 6v23h23v-23h-23zm5 2.5a.5.5 0 0 1 .5-.5h2a.5.5 0 1 1 0 1h-2a.5.5 0 0 1-.5-.5zm-2 6a.5.5 0 1 0 1 0v-3a.5.5 0 1 0-1 0v3zm16.5.5a.5.5 0 0 1-.5-.5v-3a.5.5 0 1 1 1 0v3a.5.5 0 0 1-.5.5zm-16.5 8.5a.5.5 0 1 0 1 0v-6a.5.5 0 1 0-1 0v6zm16.5.5a.5.5 0 0 1-.5-.5v-6a.5.5 0 1 1 1 0v6a.5.5 0 0 1-.5.5zm-6-1a.5.5 0 1 0 0 1h4a.5.5 0 1 0 0-1h-4zm-8.5 3.5a.5.5 0 0 1 .5-.5h2a.5.5 0 1 1 0 1h-2a.5.5 0 0 1-.5-.5zm5.5-18.5a.5.5 0 1 0 0 1h7a.5.5 0 1 0 0-1h-7zm-.5 18.5a.5.5 0 0 1 .5-.5h7a.5.5 0 1 1 0 1h-7a.5.5 0 0 1-.5-.5zm-4.5-15.5a.5.5 0 1 0 0 1h5a.5.5 0 1 0 0-1h-5zm-3.5-3.5a.5.5 0 1 1-1 0 .5.5 0 1 1 1 0zm-.5 20.5a.5.5 0 1 0 0-1 .5.5 0 1 0 0 1zm20.5-20.5a.5.5 0 1 1-1 0 .5.5 0 1 1 1 0zm-.5 20.5a.5.5 0 1 0 0-1 .5.5 0 1 0 0 1z"
          class="H"/>
  </g>
  <g fill="#75dafe" class="D">
    <circle cx="124.075" cy="206.116" r="1.116"/>
    <circle cx="119.539" cy="208.349" r="1.116"/>
    <circle cx="105.116" cy="227.616" r="1.116"/>
    <circle cx="118.422" cy="245.358" r="1.116"/>
    <circle cx="144.959" cy="227.616" r="1.116"/>
  </g>
  <g fill="#91e1fe">
    <path d="M117.917 222.614a1.04 1.04 0 0 1 .545-.914 1.04 1.04 0 0 1 1.531.914v5.488l-.395 5.129c-.034.438-.4.777-.839.777a.84.84 0 0 1-.842-.842v-10.552z"/>
    <path d="M131.958 234.008a1.04 1.04 0 0 1 .976.683 1.04 1.04 0 0 1-.976 1.393h-3.396l-3.227-.368a.86.86 0 0 1-.76-.852c0-.473.384-.856.857-.856h6.526zm-11.34-18.513c.498 0 .926.354 1.019.843.123.64-.367 1.233-1.019 1.233h-1.106a1.98 1.98 0 0 1-.413-.044l-1.189-.258c-.413-.089-.708-.454-.708-.877a.9.9 0 0 1 .897-.897h2.519z"
          class="B"/>
  </g>
  <g stroke="#c8dbed">
    <use xlink:href="#C"/>
    <use xlink:href="#C" x="42"/>
    <use xlink:href="#C" x="84"/>
    <rect x="187.793" y="173.5" width="4" height="2" rx="1"/>
    <rect x="179.5" y="173.5" width="4" height="2" rx="1"/>
    <rect x="198.793" y="173.5" width="5" height="2" rx="1"/>
    <rect x="198.793" y="181.5" width="5" height="2" rx="1"/>
    <rect x="187.793" y="181.5" width="4" height="2" rx="1"/>
    <rect x="179.5" y="181.5" width="4" height="2" rx="1"/>
    <rect x="271.793" y="181.5" width="5" height="2" rx="1"/>
    <rect x="271.793" y="173.5" width="5" height="2" rx="1"/>
    <rect x="260.793" y="173.5" width="5" height="2" rx="1"/>
    <rect x="260.793" y="181.5" width="5" height="2" rx="1"/>
  </g>
  <g fill="#c8dbed" class="C">
    <path d="M244 150a2 2 0 0 0-2-2h-23a2 2 0 0 0-2 2v12a3 3 0 0 1-3 3h-9a3 3 0 0 1-3-3v-12a2 2 0 0 0-2-2h-27a2 2 0 0 0-2 2v49a2 2 0 0 0 2 2h114a2 2 0 0 0 2-2v-49a2 2 0 0 0-2-2h-26a2 2 0 0 0-2 2v12a3 3 0 0 1-3 3h-9a3 3 0 0 1-3-3v-12zm0-4h1a1 1 0 0 1 1 1v15a1 1 0 0 0 1 1h9a1 1 0 0 0 1-1v-15a1 1 0 0 1 1-1h1 30a2 2 0 0 1 2 2v53a2 2 0 0 1-2 2H171a2 2 0 0 1-2-2v-53a2 2 0 0 1 2-2h31 1a1 1 0 0 1 1 1v15a1 1 0 0 0 1 1h9a1 1 0 0 0 1-1v-15a1 1 0 0 1 1-1h1 27z"/>
    <path d="M180.34 147a1 1 0 0 0 .997-.914l2.624-30.259a2 2 0 0 1 1.993-1.827h4.092a2 2 0 0 1 1.993 1.827l2.624 30.259a1 1 0 1 0 1.993-.172l-2.783-32.087A2 2 0 0 0 191.88 112h-7.76a2 2 0 0 0-1.993 1.827l-2.783 32.087a1 1 0 0 0 .996 1.086zm100.319 0a1 1 0 0 0 .997-1.086l-2.783-32.087A2 2 0 0 0 276.88 112h-7.76a2 2 0 0 0-1.993 1.827l-2.783 32.087a1 1 0 1 0 1.993.172l2.624-30.259a2 2 0 0 1 1.993-1.827h4.092a2 2 0 0 1 1.993 1.827l2.624 30.259a1 1 0 0 0 .996.914zm-42.932 0a1 1 0 0 0 .996-1.082l-2.643-32.082a2 2 0 0 0-1.993-1.836h-7.174a2 2 0 0 0-1.993 1.836l-2.643 32.082a1 1 0 0 0 .996 1.082 1 1 0 0 0 .997-.918l2.492-30.246a2 2 0 0 1 1.993-1.836h3.49a2 2 0 0 1 1.993 1.836l2.492 30.246a1 1 0 0 0 .997.918z"/>
  </g>
  <rect x="225.5" y="190.5" width="10" height="12" rx="1.5" stroke="#c8dbed"/>
  <g class="F">
    <path d="M173.872 151.315c7.093-.502 21.667-1.204 23.214 0s1.935 8.384 1.935 11.823m19.562-11.961c6.722-.501 20.533-1.203 22 0s1.834 8.384 1.834 11.823m19.959-11.823c6.722-.501 20.533-1.203 22 0s1.833 8.384 1.833 11.823"
          stroke-opacity=".3" stroke-width="6"/>
    <path d="M186.112 106.967l-.392-8.192c-1.589 1.519-4.974 3.647-5.803 0s.046-4.589.391-5.902m47.963 14.094l-.392-8.192c-1.589 1.519-4.974 3.647-5.803 0s.046-4.589.391-5.902m47.963 14.094l-.392-8.192c-1.589 1.519-4.974 3.647-5.803 0s.046-4.589.392-5.902"
          stroke-opacity=".2" stroke-width="4"/>
  </g>
  <g class="E G">
    <rect x="178.576" y="172.561" width="22" height="3" rx="1.5" style="mix-blend-mode:multiply"/>
    <rect x="199.576" y="182.561" width="11" height="3" rx="1.5" style="mix-blend-mode:multiply"/>
    <rect x="272.576" y="174.561" width="11" height="3" rx="1.5" style="mix-blend-mode:multiply"/>
    <rect x="258.576" y="181.561" width="8" height="3" rx="1.5" style="mix-blend-mode:multiply"/>
    <rect x="228.576" y="191.561" width="8" height="10" rx="2" style="mix-blend-mode:multiply"/>
  </g>
  <g stroke="#76a3d3">
    <rect x="53" y="141" width="26" height="49" rx="2" class="I"/>
    <rect x="58.5" y="144.5" width="6" height="2" rx="1" transform="rotate(90 58.5 144.5)"/>
  </g>
  <g class="E B">
    <rect x="59.744" y="144" width="7" height="2.244" rx="1.122" transform="rotate(90 59.744 144)"/>
    <rect x="67.744" y="144" width="7" height="2.244" rx="1.122" transform="rotate(90 67.744 144)"/>
    <rect x="63.744" y="156" width="7" height="2.244" rx="1.122" transform="rotate(90 63.744 156)"/>
    <rect x="59.744" y="168" width="7" height="2.244" rx="1.122" transform="rotate(90 59.744 168)"/>
    <rect x="64.122" y="168" width="7" height="2.244" rx="1.122" transform="rotate(90 64.122 168)"/>
    <rect x="67.744" y="180" width="7" height="2.244" rx="1.122" transform="rotate(90 67.744 180)"/>
    <rect x="60.122" y="180" width="7" height="2.244" rx="1.122" transform="rotate(90 60.122 180)"/>
  </g>
  <g stroke="#76a3d3">
    <rect x="58.5" y="156.5" width="6" height="2" rx="1" transform="rotate(90 58.5 156.5)"/>
    <rect x="58.5" y="168.5" width="6" height="2" rx="1" transform="rotate(90 58.5 168.5)"/>
    <rect x="58.5" y="180.5" width="6" height="2" rx="1" transform="rotate(90 58.5 180.5)"/>
    <rect x="62.5" y="144.5" width="6" height="2" rx="1" transform="rotate(90 62.5 144.5)"/>
    <rect x="62.5" y="156.5" width="6" height="2" rx="1" transform="rotate(90 62.5 156.5)"/>
    <rect x="62.5" y="168.5" width="6" height="2" rx="1" transform="rotate(90 62.5 168.5)"/>
    <rect x="62.5" y="180.5" width="6" height="2" rx="1" transform="rotate(90 62.5 180.5)"/>
    <rect x="66.5" y="144.5" width="6" height="2" rx="1" transform="rotate(90 66.5 144.5)"/>
    <rect x="66.5" y="156.5" width="6" height="2" rx="1" transform="rotate(90 66.5 156.5)"/>
    <rect x="66.5" y="168.5" width="6" height="2" rx="1" transform="rotate(90 66.5 168.5)"/>
    <rect x="66.5" y="180.5" width="6" height="2" rx="1" transform="rotate(90 66.5 180.5)"/>
    <rect x="75.5" y="148.5" width="2" height="2" rx="1" transform="rotate(90 75.5 148.5)"/>
    <rect x="75.5" y="160.5" width="2" height="2" rx="1" transform="rotate(90 75.5 160.5)"/>
    <rect x="75.5" y="172.5" width="2" height="2" rx="1" transform="rotate(90 75.5 172.5)"/>
    <rect x="75.5" y="184.5" width="2" height="2" rx="1" transform="rotate(90 75.5 184.5)"/>
    <path d="M53 153.5h26m-26 12h26m-26 12h26"/>
  </g>
  <circle cx="117.991" cy="164" r="3.991" fill="#89dfff" style="mix-blend-mode:multiply"/>
  <circle cx="117" cy="164" r="5" class="I J K"/>
  <path d="M123 164.5h22m-61 0h27m6.5-18.5v12" class="F L"/>
  <path fill="#fff" d="M104 98.234h26v48h-26z"/>
  <rect x="104" y="98.234" width="26" height="48" rx="2" class="I J K"/>
  <rect x="110" y="104.734" width="14" height="3" rx="1.5" fill="#96e5fe"/>
  <circle cx="117" cy="135.234" r="2.5" stroke="#fff"/>
  <circle cx="117.881" cy="134.236" r="2.491" fill="#89dfff" style="mix-blend-mode:multiply"/>
  <g fill="#96e5fe">
    <rect x="110.881" y="111.484" width="14" height="3" rx="1.5"/>
    <rect x="109.217" y="119.234" width="14" height="3" rx="1.5"/>
  </g>
  <g stroke="#80a9d6">
    <rect x="110.5" y="106.734" width="13" height="2" rx="1"/>
    <rect x="110.5" y="112.734" width="13" height="2" rx="1"/>
    <rect x="110.5" y="118.734" width="13" height="2" rx="1"/>
  </g>
  <path d="M167.795 148.911l.48.582-.567.48-.488-.576.575-.486zm-1.144.978l.495.57-.556.493-.501-.564.562-.499zm-1.119 1.005l-.55.514.515.551.544-.507-.509-.558zm-1.094 1.034l.522.544-.53.52-.529-.538.537-.526zm-1.068 1.06l.535.531-.517.533-.542-.524.524-.54zm-1.042 1.086l.549.518-.505.546-.554-.511.51-.553zm-1.014 1.112l.561.504-.491.558-.567-.497.497-.565zm-.987 1.137l.573.49-.477.57-.579-.482.483-.578zm-.958 1.161l.585.476-.463.582-.591-.469.469-.589zm-.93 1.185l.597.461-.448.593-.603-.453.454-.601zm-.9 1.207l.608.446-.433.604-.613-.438.438-.612zm-.87 1.23l.619.43-.418.616-.624-.423.423-.623zm-.839 1.251l.63.415-.403.625-.634-.407.407-.633zm-.808 1.271l.64.399-.388.636-.644-.391.392-.644zm-.775 1.292l.649.382-.372.645-.653-.375.376-.652zm-.744 1.31l.658.367-.355.654-.663-.358.36-.663zm-.711 1.329l.667.349-.338.663-.672-.341.343-.671zm-.678 1.346l.676.333-.322.671-.68-.324.326-.68zm-.644 1.362l.684.316-.305.679-.688-.307.309-.688zm-.61 1.38l.692.298-.288.686-.695-.29.291-.694zm-.574 1.392l.698.281-.271.694-.702-.272.275-.703zm-.541 1.409l.706.263-.254.7-.708-.255.256-.708zm-.504 1.419l.712.246-.236.706-.715-.236.239-.716zm-.47 1.435l.718.227-.218.711-.72-.218.22-.72zm-.432 1.443l.723.209-.2.717-.726-.2.203-.726zm-.397 1.456l.728.191-.182.721-.731-.182.185-.73zm-.36 1.463l-.167.736.735.163.165-.727-.733-.172zm-.324 1.475l.737.154-.146.729-.739-.145.148-.738zm-.287 1.479l.741.135-.128.734-.742-.126.129-.743zm-.25 1.489l.744.117-.11.735-.745-.107.111-.745zm-.212 1.491l.746.098-.091.74-.748-.089.093-.749zm-.176 1.501l.748.079-.072.74-.75-.07.074-.749zm-.138 1.499l.75.061-.055.743-.751-.051.056-.753zm-.102 1.508l.752.042-.037.743-.752-.033.037-.752zm-.064 1.504l.752.024-.018.744-.753-.013.019-.755zm-.028 1.511l-.001.379.001.379.753-.004-.001-.375.001-.374-.753-.005zm.009 1.515l.753-.014.018.745-.752.023-.019-.754zm.046 1.506l.752-.033.037.744-.752.041-.037-.752zm.083 1.507l.751-.051.055.744-.75.06-.056-.753zm.12 1.503l.75-.07.072.74-.748.079-.074-.749zm.157 1.501l.748-.088.091.739-.746.098-.093-.749zm.194 1.495l.745-.107.11.735-.744.117-.111-.745zm.232 1.491l.742-.126.128.735-.741.135-.129-.744zm.268 1.484l.739-.145.146.729-.737.154-.148-.738zm.305 1.477l.735-.163.165.727-.733.172-.167-.736zm.342 1.469l.731-.182.182.721-.728.191-.185-.73zm.379 1.46l.726-.2.2.717-.723.21-.203-.727zm.415 1.449l.72-.218.218.711-.718.227-.22-.72zm.451 1.44l.715-.237.236.707-.712.245-.239-.715zm.487 1.426l.256.708.706-.263-.254-.699-.708.254zm.522 1.415l.702-.272.271.693-.698.281-.275-.702zm.558 1.4l.695-.29.288.686-.692.299-.291-.695zm.592 1.386l.688-.307.305.679-.684.316-.309-.688zm.627 1.371l.68-.325.322.671-.676.333-.326-.679zm.661 1.355l.671-.342.339.663-.667.35-.343-.671zm.694 1.337l.663-.358.355.654-.658.366-.36-.662zm.728 1.32l.653-.375.372.645-.65.383-.375-.653zm.759 1.3l.392.644.64-.399-.388-.636-.644.391zm.793 1.282l.634-.406.403.625-.63.415-.407-.634zm.823 1.261l.423.624.619-.431-.418-.615-.624.422zm.855 1.241l.613-.438.433.604-.608.446-.438-.612zm.884 1.218l.603-.453.448.594-.597.461-.454-.602zm.915 1.197l.591-.468.463.582-.585.475-.469-.589zm.944 1.173l.579-.483.477.57-.573.49-.483-.577zm.973 1.149l.567-.497.491.558-.561.504-.497-.565zm1.001 1.124l.51.553.549-.518-.505-.546-.554.511zm1.028 1.1l.542-.525.517.533-.535.532-.524-.54zm1.055 1.073l.529-.538.53.52-.522.545-.537-.527zm1.081 1.047l.515-.551.544.507-.509.557-.55-.513zm1.107 1.019l.501-.564.556.494-.495.569-.562-.499zm1.131.992l.488-.576.567.479-.48.582-.575-.485zm1.155.963l.474-.588.579.465-.466.593-.587-.47zm1.179.934l.459-.6.591.451-.451.605-.599-.456zm1.202.904l.444-.611.601.435-.436.617-.609-.441zm1.224.874l.428-.622.613.421-.421.627-.62-.426zm1.245.843l.412-.632.623.405-.405.637-.63-.41zm1.265.812l.397-.642.633.389-.389.647-.641-.394zm1.285.78l.381-.652.642.372-.373.657-.65-.377zm1.304.747l.365-.661.651.357-.356.666-.66-.362zm1.322.714l.348-.67.66.34-.34.675-.668-.345zm1.341.681l.331-.679.667.324-.322.683-.676-.328zm1.355.647l.314-.687.676.307-.306.691-.684-.311zm1.373.613l.297-.695.682.29-.288.698-.691-.293zm1.386.578l.279-.702.69.272-.271.705-.698-.275zm1.401.543l.262-.709.696.254-.253.713-.705-.258zm1.413.507l.244-.716.703.237-.235.719-.712-.24zm1.428.471l.226-.721.707.219-.217.724-.716-.222zm1.436.435l.208-.727.714.202-.199.729-.723-.204zm1.449.399l.19-.732.717.183-.18.735-.727-.186zm1.456.362l.171-.737.723.166-.162.738-.732-.167zm1.468.325l.153-.74.725.146-.144.743-.734-.149zm1.471.288l.135-.744.73.129-.125.745-.74-.13zm1.483.251l.116-.747.731.11-.106.749-.741-.112zm1.483.214l.098-.75.736.092-.088.751-.746-.093zm1.494.177l.079-.753.736.074-.069.753-.746-.074zm1.492.138l.749.056.051-.754-.74-.055-.06.753zm1.5.103l.042-.756.74.037-.033.756-.749-.037zm1.497.064l.024-.756.741.019-.014.756-.751-.019zm1.504.028l.004-.756.373.001.373-.001.004.756-.377.001c-.126 0-.251 0-.377-.001zm1.507-.009l-.014-.756.742-.019.023.756-.751.019zm1.499-.046l-.032-.756.739-.037.042.756-.749.037zm1.5-.084l-.05-.754.739-.055.06.753-.749.056zm1.496-.12l-.07-.753.737-.074.078.753-.745.074zm1.494-.158l-.088-.751.736-.092.097.75-.745.093zm1.487-.195l-.106-.749.732-.11.116.747-.742.112zm1.484-.233l-.125-.745.731-.129.134.744-.74.13zm1.477-.269l-.144-.743.726-.146.153.74-.735.149zm1.47-.307l-.162-.738.723-.166.172.737-.733.167zm1.462-.343l-.181-.735.717-.183.19.732-.726.186zm1.453-.381l-.199-.729.714-.202.208.727-.723.204zm1.442-.417l-.217-.724.708-.219.226.721-.717.222zm1.432-.453l-.235-.719.703-.237.244.716-.712.24zm1.42-.489l-.253-.713.696-.254.262.709-.705.258zm1.408-.526l.699-.275-.28-.702-.69.272.271.705zm1.393-.56l-.288-.698.683-.29.297.695-.692.293zm1.38-.595l-.306-.691.676-.307.314.687-.684.311zm1.364-.63l-.323-.683.668-.324.331.68-.676.327zm1.348-.664l-.339-.675.659-.34.348.67-.668.345zm1.331-.697l-.357-.666.651-.357.365.661-.659.362zm1.314-.732l-.373-.657.641-.372.381.652-.649.377zm1.294-.763l-.389-.647.632-.389.397.642-.64.394zm27.549-37.992l-.733-.172.164-.726.735.163-.166.735zm.324-1.475l-.737-.153.146-.729.738.144-.147.738zm.286-1.478l-.741-.135.128-.734.743.125-.13.744zm.25-1.49l-.743-.117.109-.735.745.107-.111.745zm.213-1.491l-.747-.098.092-.739.747.088-.092.749z"
        class="C E"/>
  <path d="M152.5 197l4 4.5-1 2-6.5 4.5-3.5 5-1.5 7 1.5 3c8.667.333 26.1 1.1 26.5 1.5s10.167-1.5 15-2.5v-4.5l-4.5-9.5-5.5-3-2.5-1.5 3.5-6.5 3-8h3l-1-3.5V182l-3-1-2-4.5-3.5-4.5-4.5-3h-5l-4.5 1-5 3-3 4.5-1.5 4.5h-2.5v2 3.5l1.5 1.5 2.5 8z"
        fill="#fff"/>
  <mask id="A" fill="#fff">
    <path d="M179.531 187.673h-27.159c.328 8.712 6.282 15.654 13.58 15.654s13.251-6.942 13.579-15.654z" class="C"/>
  </mask>
  <g class="M B">
    <path d="M179.531 187.673l1.999.075.078-2.075h-2.077v2zm-27.159 0v-2h-2.076l.078 2.075 1.998-.075zm27.159-2h-27.159v4h27.159v-4zm-13.579 15.654c-5.901 0-11.28-5.738-11.581-13.729l-3.997.15c.355 9.433 6.883 17.579 15.578 17.579v-4zm11.581-13.729c-.301 7.991-5.681 13.729-11.581 13.729v4c8.694 0 15.223-8.146 15.578-17.579l-3.997-.15z"
          mask="url(#A)"/>
    <path d="M179.298 183c-1.301-7.426-6.761-13-13.3-13s-11.999 5.574-13.3 13h2.03c1.267-6.536 6.066-11 11.27-11s10.003 4.464 11.27 11h2.03z"
          class="C"/>
  </g>
  <path fill="#fff" d="M150 183h32v3h-32z"/>
  <path d="M150.5 183.5h31v2h-31z" class="J K"/>
  <path d="M159.871 216l-.937.938 2.062 2.888a.94.94 0 0 0 .334.289c.133.068.281.104.43.104h.066a.94.94 0 0 1 .359.071c.114.047.217.116.305.204l2.507 2.507-2.453 2.488a2.83 2.83 0 0 0-1.293-.07 2.82 2.82 0 0 0-2.019 1.509 2.81 2.81 0 0 0-.298 1.26c0 .403.087.801.255 1.167s.413.693.718.956.663.459 1.05.572a2.81 2.81 0 0 0 1.192.084c.399-.058.781-.2 1.12-.419a2.79 2.79 0 0 0 .844-.846c.218-.339.36-.721.417-1.12a2.81 2.81 0 0 0-.086-1.192l2.488-2.454.908.908-.286.857c-.055.165-.063.342-.023.511a.94.94 0 0 0 .25.448l3.146 3.146c.176.176.414.275.663.275a.94.94 0 0 0 .663-.275l1.487-1.487a.94.94 0 0 0 0-1.325l-3.147-3.147c-.123-.123-.278-.209-.447-.249a.94.94 0 0 0-.512.022l-.857.286-.9-.9 2.513-2.477c.417.111.853.125 1.277.041a2.83 2.83 0 0 0 1.163-.527 2.81 2.81 0 0 0 1.104-2.23c0-.253-.033-.497-.096-.729l-2.006 2.007-1.648-.341-.342-1.647 2.008-2.007c-.478-.129-.981-.129-1.458-.001s-.913.38-1.263.729-.6.786-.727 1.264-.127.98.002 1.458l-2.475 2.51-2.502-2.5c-.176-.176-.275-.414-.275-.663v-.066c0-.15-.035-.297-.104-.429a.93.93 0 0 0-.288-.334L159.871 216zm9.043 9.981c.044-.044.095-.079.152-.102s.118-.036.18-.036.123.012.18.036.108.058.152.102l2.812 2.812c.044.044.079.096.102.152s.036.118.036.18-.012.123-.036.18-.058.108-.102.152a.46.46 0 0 1-.152.102.48.48 0 0 1-.359 0 .46.46 0 0 1-.152-.102l-2.813-2.813a.48.48 0 0 1-.137-.331.48.48 0 0 1 .137-.332zm-7.168.332l.442.226.496.025.269.417.417.269.024.496.227.442-.227.441-.024.496-.417.269-.269.417-.496.025-.442.227-.441-.227-.496-.025-.269-.417-.418-.269-.024-.496-.227-.441.227-.442.024-.496.418-.269.269-.417.496-.025.441-.226z"
        class="B M"/>
  <path d="M161.433 174.75l3.5 6.062m1.634 0l3.5-6.062" class="J K"/>
  <g class="C">
    <path d="M170.848 215c-.577-1.286-1.312-2.446-2.169-3.453l1.314-1.537c1.254 1.421 2.282 3.111 3.014 4.99h-2.159zm-8.83 0c.468-1.042 1.04-2.003 1.696-2.865l-1.324-1.55c-1.037 1.295-1.895 2.784-2.531 4.415h2.159zM158 219h-9.795c1.075-6.64 5.932-11.375 11.428-11.642l-1.572-1.838c-6.053 1.026-10.86 6.504-11.877 13.48-.095.654-.157 1.322-.184 2h12v-2zm17 2h11.866c-.026-.678-.088-1.346-.184-2-1.065-7.309-6.292-12.975-12.753-13.597l-1.67 1.955c.161-.008.323-.011.486-.011 5.694 0 10.81 4.817 11.916 11.653H175v2z"
          class="B M"/>
    <path d="M157.255 195.999l-1.483-2.59c-.521-.974-.104-2.171.89-2.653s2.189-.066 2.713.906l1.282 2.233 1.226 1.789c.31.389.495.555.551.605.021.019.024.021.008.013l1.22.634c.98.51 1.355 1.719.841 2.697a2.01 2.01 0 0 1-2.704.843l-1.197-.622c-.757-.393-1.395-1.109-1.849-1.68-.509-.64-1.022-1.405-1.498-2.175zm6.87-14.484a2 2 0 0 1-2.752-.65l-.968-1.565a2 2 0 0 1 3.402-2.104l.968 1.566a2 2 0 0 1-.65 2.753z"
          fill-opacity=".3" class="E"/>
  </g>
  <defs>
    <path id="C"
          d="M194.367 108v-4.195c2.774 0 5.553-5.593 2.776-12.584s-6.02-6.059-8.335-5.593c-.926-2.796-4.114-3.52-8.33-1.398-5.558 2.796-4.168 6.525-2.78 8.389-2.314 4.195-1.715 11.186 1.393 11.186h4.164V108"/>
  </defs>
</svg>
