<svg width="80" height="80" viewBox="0 0 80 80" fill="none" xmlns="http://www.w3.org/2000/svg">
  <rect width="80" height="80"/>
  <path d="M39.6384 27.0749L39.2461 27.1359H14.1665L13.8614 27.1064C10.6567 26.7966 8.14014 24.0741 8.14014 20.7512C8.14014 17.2186 10.9827 14.3665 14.475 14.3665C14.9748 14.3665 15.4599 14.4246 15.9244 14.5341L17.2962 14.8576L17.1484 13.4559C17.1371 13.3486 17.1312 13.2393 17.1312 13.1282C17.1312 11.4375 18.4907 10.0786 20.1536 10.0786C20.969 10.0786 21.7083 10.4032 22.2538 10.9352L23.3115 11.9669L23.8761 10.6015C25.0463 7.77175 27.8157 5.79065 31.0375 5.79065C35.3138 5.79065 38.792 9.28271 38.792 13.6047C38.792 14.2623 38.7116 14.8996 38.5606 15.5077L38.2526 16.7486H39.2461L39.6384 16.8096C42.102 17.1926 43.9973 19.3412 43.9973 21.9423C43.9973 24.5434 42.102 26.6919 39.6384 27.0749Z"
        stroke="#76A3D3" stroke-width="2" fill="white"/>
  <path fill-rule="evenodd" clip-rule="evenodd"
        d="M21.147 11.9624C20.6158 11.6295 20.2254 11.5668 19.9021 11.7179C19.4956 11.9077 19.3143 12.0697 19.2333 12.1723C19.1671 12.2562 19.1414 12.3317 19.1365 12.4441C19.1304 12.5863 19.1587 12.7724 19.23 13.0666C19.2461 13.1331 19.2654 13.2085 19.2863 13.2901C19.3972 13.724 19.1101 14.1446 18.6692 14.2235L18.2962 14.2902C17.9617 14.3501 17.6373 14.1285 17.553 13.7994C17.5283 13.7029 17.5023 13.6011 17.4751 13.4891C17.3984 13.1726 17.315 12.7776 17.3329 12.3664C17.352 11.9255 17.4861 11.4753 17.8148 11.0591C18.1288 10.6616 18.5776 10.3492 19.136 10.0884C20.3003 9.54449 21.3953 9.99239 22.1079 10.439C22.4765 10.67 22.7977 10.9331 23.046 11.1476C23.1635 11.2491 23.2529 11.3284 23.3238 11.3912C23.4434 11.4973 23.4678 11.6834 23.3733 11.8123L22.8281 12.5558C22.6352 12.8187 22.2724 12.8677 22.0281 12.6518C21.9698 12.6002 21.9139 12.5508 21.8639 12.5077C21.6408 12.315 21.4004 12.1212 21.147 11.9624ZM13.2653 17.6701C12.2662 18.0916 11.4239 18.7136 10.9965 19.6956C10.6417 20.5104 10.9134 21.373 11.6652 22.222C12.1531 22.773 12.771 23.2256 13.3276 23.5282C13.7648 23.7659 14.0435 24.2701 13.9063 24.7484C13.7695 25.2257 13.2698 25.5027 12.8211 25.2901C11.9692 24.8864 11.033 24.2275 10.3117 23.4129C9.33901 22.3144 8.58565 20.7128 9.34033 18.9792C10.0223 17.4128 11.3307 16.5321 12.5617 16.0129C13.6068 15.572 14.6893 15.3559 15.3949 15.2151C15.5693 15.1803 15.7402 15.292 15.7771 15.466L16.0068 16.5497C16.0491 16.7496 15.9212 16.9455 15.7208 16.9859C15.0074 17.1295 14.126 17.307 13.2653 17.6701Z"
        fill="#00C1FE" fill-opacity="0.3"/>
  <path d="M23.5449 24.9811H39.3188" stroke="#00C1FE" stroke-opacity="0.5" stroke-width="4"/>
  <path fill-rule="evenodd" clip-rule="evenodd"
        d="M31.6976 36.5L30.7476 36.5L30.7476 35.5L31.6976 35.5L31.6976 36.5ZM33.5976 36.5L32.6476 36.5L32.6476 35.5L33.5976 35.5L33.5976 36.5ZM35.4976 36.5L34.5476 36.5L34.5476 35.5L35.4976 35.5L35.4976 36.5ZM37.3976 36.5L36.4476 36.5L36.4476 35.5L37.3976 35.5L37.3976 36.5ZM39.2976 36.5L38.3476 36.5L38.3476 35.5L39.2976 35.5L39.2976 36.5ZM41.1976 36.5L40.2476 36.5L40.2476 35.5L41.1976 35.5L41.1976 36.5ZM43.0976 36.5L42.1476 36.5L42.1476 35.5L43.0976 35.5L43.0976 36.5Z"
        fill="#00C1FE"/>
  <path fill-rule="evenodd" clip-rule="evenodd"
        d="M28.0991 30L28.0991 29L29.0991 29L29.0991 30L28.0991 30ZM28.0991 32L28.0991 31L29.0991 31L29.0991 32L28.0991 32ZM28.0991 34L28.0991 33L29.0991 33L29.0991 34L28.0991 34ZM28.0991 36L28.0991 35L29.0991 35L29.0991 36L28.0991 36ZM28.0991 38L28.0991 37L29.0991 37L29.0991 38L28.0991 38ZM28.0991 40L28.0991 39L29.0991 39L29.0991 40L28.0991 40ZM28.0991 42L28.0991 41L29.0991 41L29.0991 42L28.0991 42Z"
        fill="#00C1FE"/>
  <rect x="6.29736" y="44.2707" width="33.4694" height="23.2584" rx="2" stroke="#0053AD" stroke-opacity="0.5"
        stroke-width="2" fill="white"/>
  <rect x="16.3664" y="69.6564" width="13.331" height="0.850918" rx="0.425459" stroke="#0053AD" stroke-opacity="0.5"
        stroke-width="0.850918"/>
  <rect x="22.1802" y="67.5291" width="1.70184" height="1.70184" fill="#0053AD" fill-opacity="0.5"/>
  <path d="M32.4668 57.75C32.4668 57.6505 32.5129 57.5552 32.5949 57.4848C32.677 57.4145 32.7883 57.375 32.9043 57.375H33.7793C33.8953 57.375 34.0066 57.4145 34.0887 57.4848C34.1707 57.5552 34.2168 57.6505 34.2168 57.75V62.25H34.4355C34.4936 62.25 34.5492 62.2698 34.5902 62.3049C34.6313 62.3401 34.6543 62.3878 34.6543 62.4375C34.6543 62.4872 34.6313 62.5349 34.5902 62.5701C34.5492 62.6052 34.4936 62.625 34.4355 62.625H27.873C27.815 62.625 27.7594 62.6052 27.7184 62.5701C27.6773 62.5349 27.6543 62.4872 27.6543 62.4375C27.6543 62.3878 27.6773 62.3401 27.7184 62.3049C27.7594 62.2698 27.815 62.25 27.873 62.25H28.0918V61.125C28.0918 61.0255 28.1379 60.9302 28.2199 60.8598C28.302 60.7895 28.4133 60.75 28.5293 60.75H29.4043C29.5203 60.75 29.6316 60.7895 29.7137 60.8598C29.7957 60.9302 29.8418 61.0255 29.8418 61.125V62.25H30.2793V59.625C30.2793 59.5255 30.3254 59.4302 30.4074 59.3598C30.4895 59.2895 30.6008 59.25 30.7168 59.25H31.5918C31.7078 59.25 31.8191 59.2895 31.9012 59.3598C31.9832 59.4302 32.0293 59.5255 32.0293 59.625V62.25H32.4668V57.75Z"
        fill="#00C1FE" fill-opacity="0.41"/>
  <path d="M18.6468 50.625H14.7578L12.0078 53.0313C12.5692 53.4646 13.2583 53.7515 13.9967 53.8591C14.7351 53.9668 15.4933 53.8909 16.1849 53.6402C16.8766 53.3895 17.4739 52.974 17.909 52.441C18.3441 51.908 18.6001 51.2788 18.6468 50.625ZM11.6543 52.7215C11.159 52.2303 10.8312 51.6274 10.7082 50.9812C10.5852 50.3351 10.6718 49.6717 10.9583 49.0665C11.2448 48.4614 11.7197 47.9387 12.3289 47.5579C12.9381 47.1772 13.6571 46.9537 14.4043 46.9128V50.3157L11.6543 52.7215Z"
        fill="#89DFFF"/>
  <path d="M14.9043 50.1878V46.9131C15.8769 46.9664 16.7938 47.3285 17.4829 47.9315C18.172 48.5344 18.5859 49.3367 18.6468 50.1878H14.9043Z"
        fill="#3984BA"/>
  <path d="M33.7246 52.3271H29.0215V48.0615C29.0215 48.0314 28.9969 48.0068 28.9668 48.0068H28.584C28.5539 48.0068 28.5293 48.0314 28.5293 48.0615V52.7646C28.5293 52.7947 28.5539 52.8193 28.584 52.8193H33.7246C33.7547 52.8193 33.7793 52.7947 33.7793 52.7646V52.3818C33.7793 52.3518 33.7547 52.3271 33.7246 52.3271ZM29.623 51.042C29.623 51.158 29.6691 51.2693 29.7512 51.3514C29.8332 51.4334 29.9445 51.4795 30.0605 51.4795C30.1766 51.4795 30.2879 51.4334 30.3699 51.3514C30.452 51.2693 30.498 51.158 30.498 51.042C30.498 50.926 30.452 50.8147 30.3699 50.7326C30.2879 50.6506 30.1766 50.6045 30.0605 50.6045C29.9445 50.6045 29.8332 50.6506 29.7512 50.7326C29.6691 50.8147 29.623 50.926 29.623 51.042ZM32.5215 48.9229C32.5215 49.0244 32.5618 49.1217 32.6336 49.1935C32.7054 49.2653 32.8028 49.3057 32.9043 49.3057C33.0058 49.3057 33.1032 49.2653 33.175 49.1935C33.2468 49.1217 33.2871 49.0244 33.2871 48.9229C33.2871 48.8213 33.2468 48.724 33.175 48.6522C33.1032 48.5804 33.0058 48.54 32.9043 48.54C32.8028 48.54 32.7054 48.5804 32.6336 48.6522C32.5618 48.724 32.5215 48.8213 32.5215 48.9229Z"
        fill="#00C1FE"/>
  <path opacity="0.4"
        d="M30.5258 49.7428C30.4643 49.6812 30.4297 49.5978 30.4297 49.5107C30.4297 49.4237 30.4643 49.3403 30.5258 49.2787C30.5873 49.2172 30.6708 49.1826 30.7578 49.1826C30.8448 49.1826 30.9283 49.2172 30.9898 49.2787C31.0514 49.3403 31.0859 49.4237 31.0859 49.5107C31.0859 49.5978 31.0514 49.6812 30.9898 49.7428C30.9283 49.8043 30.8448 49.8389 30.7578 49.8389C30.6708 49.8389 30.5873 49.8043 30.5258 49.7428Z"
        fill="#00C1FE"/>
  <path opacity="0.4"
        d="M31.702 51.5334C31.5789 51.4103 31.5098 51.2434 31.5098 51.0693C31.5098 50.8953 31.5789 50.7284 31.702 50.6053C31.825 50.4822 31.992 50.4131 32.166 50.4131C32.3401 50.4131 32.507 50.4822 32.6301 50.6053C32.7531 50.7284 32.8223 50.8953 32.8223 51.0693C32.8223 51.2434 32.7531 51.4103 32.6301 51.5334C32.507 51.6564 32.3401 51.7256 32.166 51.7256C31.992 51.7256 31.825 51.6564 31.702 51.5334Z"
        fill="#00C1FE"/>
  <path d="M11.4878 63.3961L14.6128 60.5799L16.2795 62.0799L19.2336 59.0911L19.8211 59.6199L16.2795 63.2049L14.6128 61.7049L12.1128 63.9586L11.4878 63.3961ZM12.1128 61.7086L14.6128 59.4549L16.2795 60.9549L19.8211 57.3699L19.2336 56.8411L16.2795 59.8299L14.6128 58.3299L11.4878 61.1461L12.1128 61.7086Z"
        fill="#3984BA"/>
  <circle cx="2.36365" cy="2.36365" r="2.36365" transform="matrix(-1 0 0 1 59.5767 66.083)" fill="#89DFFF"/>

  <circle cx="3.55328" cy="3.55328" r="2.55328" transform="matrix(-1 0 0 1 61.353 64.8934)" stroke="#003E6E"
          stroke-opacity="0.5" stroke-width="2"/>
  <path fill-rule="evenodd" clip-rule="evenodd"
        d="M50.3481 68.9467H51.3481V67.9467H50.3481V68.9467ZM48.3481 68.9467H49.3481V67.9467H48.3481V68.9467ZM46.3481 68.9467H47.3481V67.9467H46.3481V68.9467ZM44.3481 68.9467H45.3481V67.9467H44.3481V68.9467ZM42.3481 68.9467H43.3481V67.9467H42.3481V68.9467ZM40.3481 68.9467H41.3481V67.9467H40.3481V68.9467Z"
        fill="#00C1FE"/>
  <path fill-rule="evenodd" clip-rule="evenodd"
        d="M72.6523 68.9467H73.6523V67.9467H72.6523V68.9467ZM70.6523 68.9467H71.6523V67.9467H70.6523V68.9467ZM68.6523 68.9467H69.6523V67.9467H68.6523V68.9467ZM66.6523 68.9467H67.6523V67.9467H66.6523V68.9467ZM64.6523 68.9467H65.6523V67.9467H64.6523V68.9467ZM62.6523 68.9467H63.6523V67.9467H62.6523V68.9467Z"
        fill="#00C1FE"/>
  <path fill-rule="evenodd" clip-rule="evenodd"
        d="M58.2832 57.7631V56.7631H57.2832V57.7631H58.2832ZM58.2832 59.7631V58.7631H57.2832V59.7631H58.2832ZM58.2832 61.7631V60.7631H57.2832V61.7631H58.2832ZM58.2832 63.7631V62.7631H57.2832V63.7631H58.2832Z"
        fill="#00C1FE"/>
  <rect width="22" height="41" transform="matrix(-1 0 0 1 70 13)" fill="white"/>
  <rect width="20.9831" height="41" rx="2" transform="matrix(-1 0 0 1 67.9292 13.5)" stroke="#003E6E"
        stroke-opacity="0.5" stroke-width="2"/>
  <rect width="14" height="3" rx="1.5" transform="matrix(-1 0 0 1 64 17.5)" fill="#96E5FE"/>
  <circle cx="3" cy="3" r="2.5" transform="matrix(-1 0 0 1 60 45)" stroke="white"/>
  <circle cx="2.49121" cy="2.49121" r="2.49121" transform="matrix(-1 0 0 1 60.2744 45)" fill="#89DFFF"/>

  <rect width="14" height="3" rx="1.5" transform="matrix(-1 0 0 1 63.1191 24.25)" fill="#96E5FE"/>
  <rect width="14" height="3" rx="1.5" transform="matrix(-1 0 0 1 64.7832 32)" fill="#96E5FE"/>
  <rect x="-0.5" y="0.5" width="13" height="2" rx="1" transform="matrix(-1 0 0 1 63 19)" stroke="#80A9D6"/>
  <rect x="-0.5" y="0.5" width="13" height="2" rx="1" transform="matrix(-1 0 0 1 63 25)" stroke="#80A9D6"/>
  <rect x="-0.5" y="0.5" width="13" height="2" rx="1" transform="matrix(-1 0 0 1 63 31)" stroke="#80A9D6"/>
</svg>
