<svg viewBox="0 0 100 100" width="100" height="100" xmlns="http://www.w3.org/2000/svg">
    <path d="M 95.458 54.454 C 97.919 51.995 97.919 48.005 95.458 45.546 L 77.23 27.318 L 86.367 18.3 C 91.078 19.468 95.287 15.097 93.942 10.433 C 92.597 5.768 86.708 4.309 83.341 7.806 C 81.777 9.43 81.2 11.765 81.826 13.93 L 72.775 22.862 L 54.508 4.596 C 52.049 2.135 48.059 2.135 45.6 4.596 L 27.372 22.824 L 18.355 13.686 C 19.522 8.974 15.15 4.765 10.485 6.111 C 5.821 7.457 4.363 13.347 7.86 16.714 C 9.485 18.277 11.82 18.855 13.987 18.228 L 22.917 27.279 L 4.65 45.546 C 2.189 48.005 2.189 51.995 4.65 54.454 L 22.916 72.721 L 13.987 81.772 C 9.331 80.432 4.971 84.633 6.138 89.335 C 7.305 94.037 13.124 95.712 16.612 92.351 C 18.228 90.793 18.892 88.493 18.356 86.314 L 27.372 77.176 L 45.6 95.404 C 48.06 97.865 52.049 97.865 54.509 95.404 L 72.775 77.138 L 81.826 86.07 C 80.486 90.726 84.689 95.086 89.391 93.919 C 94.093 92.752 95.768 86.932 92.406 83.443 C 90.848 81.827 88.547 81.162 86.367 81.7 L 77.23 72.682 L 95.458 54.454 Z M 50.054 90.95 L 9.104 50 L 50.054 9.05 L 91.004 50 L 50.054 90.95 Z" style="transform-box: fill-box; transform-origin: 50% 50%;"/>
    <text font-family="Roboto Mono, sans-serif" font-size="30" font-weight="700" x="20.296" y="62.834">TCP</text>
</svg>
